%TF.GenerationSoftware,KiCad,Pcbnew,7.0.9*%
%TF.CreationDate,2024-04-04T21:50:02+13:00*%
%TF.ProjectId,panel,70616e65-6c2e-46b6-9963-61645f706362,rev?*%
%TF.SameCoordinates,Original*%
%TF.FileFunction,Copper,L2,Inr*%
%TF.FilePolarity,Positive*%
%FSLAX46Y46*%
G04 Gerber Fmt 4.6, Leading zero omitted, Abs format (unit mm)*
G04 Created by KiCad (PCBNEW 7.0.9) date 2024-04-04 21:50:02*
%MOMM*%
%LPD*%
G01*
G04 APERTURE LIST*
%TA.AperFunction,ComponentPad*%
%ADD10O,1.900000X3.500000*%
%TD*%
%TA.AperFunction,ComponentPad*%
%ADD11C,1.600000*%
%TD*%
%TA.AperFunction,ViaPad*%
%ADD12C,0.450000*%
%TD*%
%TA.AperFunction,Conductor*%
%ADD13C,0.400000*%
%TD*%
%TA.AperFunction,Conductor*%
%ADD14C,0.200000*%
%TD*%
G04 APERTURE END LIST*
D10*
%TO.N,Board_0-GND*%
%TO.C,J1*%
X142800000Y-23100000D03*
X154200000Y-23100000D03*
%TD*%
D11*
%TO.N,Board_0-Cap_V+*%
%TO.C,C3*%
X146000000Y-28900000D03*
%TO.N,Board_0-GND*%
X151000000Y-28900000D03*
%TD*%
D12*
%TO.N,Board_0-VBUS*%
X152650000Y-44500000D03*
X142100000Y-41400000D03*
X145300000Y-21800000D03*
X142150000Y-35100000D03*
%TO.N,Board_0-User_SW1*%
X149850000Y-39850000D03*
X150875000Y-24725000D03*
%TO.N,Board_0-User_LED3*%
X147650000Y-40750000D03*
X145450000Y-20750000D03*
%TO.N,Board_0-TXD*%
X153000000Y-40400000D03*
X147900000Y-34400000D03*
X151500000Y-20750000D03*
X144400000Y-34300000D03*
%TO.N,Board_0-RXD*%
X153000000Y-41500000D03*
X147550000Y-33450000D03*
X143550000Y-34100000D03*
X148650000Y-20750000D03*
%TO.N,Board_0-Net-(U6-V+)*%
X141600000Y-24700000D03*
X151250000Y-45300000D03*
%TO.N,Board_0-Net-(U6--)*%
X144000000Y-26900000D03*
%TO.N,Board_0-Net-(U5-~{CS})*%
X146490000Y-43720000D03*
%TO.N,Board_0-Net-(U4-VDD3P3)*%
X147775000Y-36625000D03*
%TO.N,Board_0-Net-(U1-VOUT)*%
X142080000Y-29400000D03*
%TO.N,Board_0-Net-(U1-RUN)*%
X145400000Y-24100000D03*
X144600000Y-30000000D03*
%TO.N,Board_0-Net-(R23-Pad1)*%
X146000000Y-25300000D03*
X151250000Y-44300000D03*
%TO.N,Board_0-GPIO9*%
X150650000Y-43300000D03*
%TO.N,Board_0-GPIO8*%
X148250000Y-44250000D03*
%TO.N,Board_0-GPIO2*%
X150600000Y-41400000D03*
%TO.N,Board_0-GND*%
X150874264Y-38800000D03*
X142600000Y-47000000D03*
X151400000Y-32400000D03*
X152500000Y-37200000D03*
X143675000Y-37625000D03*
X154200000Y-29600000D03*
X151400000Y-34000000D03*
X155100000Y-40500000D03*
X149600000Y-37600000D03*
X143675000Y-36625000D03*
X152300000Y-23450000D03*
X151400000Y-30700000D03*
X155400000Y-30400000D03*
X153500000Y-37200000D03*
X145675000Y-37625000D03*
X148575000Y-34825000D03*
X154000000Y-46700000D03*
X144675000Y-38625000D03*
X148100000Y-32900000D03*
X142800000Y-31800000D03*
X144675000Y-36625000D03*
X154500000Y-26000000D03*
X153950000Y-48300000D03*
X155100000Y-29000000D03*
X143675000Y-38625000D03*
X146700000Y-27800000D03*
X155100000Y-43500000D03*
X145675000Y-36625000D03*
X153600000Y-43000000D03*
X142600000Y-48000000D03*
X151400000Y-33200000D03*
X151550000Y-37200000D03*
X155100000Y-26500000D03*
X151400000Y-31550000D03*
X151400000Y-34700000D03*
X155200000Y-37200000D03*
X154100000Y-28700000D03*
X145675000Y-38625000D03*
X151400000Y-35350000D03*
X144675000Y-37625000D03*
X150500000Y-21900000D03*
X153250000Y-39000000D03*
X147150000Y-42100000D03*
X153100000Y-28500000D03*
X152300000Y-30400000D03*
X154200000Y-43450000D03*
X153800000Y-30400000D03*
X155000000Y-39000000D03*
X153600000Y-40000000D03*
X154100000Y-42000000D03*
%TO.N,Board_0-D0-*%
X143300000Y-26800000D03*
X147850000Y-45650000D03*
%TO.N,Board_0-Cap_V+*%
X149500000Y-38950000D03*
X149050000Y-30300000D03*
%TO.N,Board_0-A_VBUS*%
X150900000Y-25850000D03*
%TO.N,Board_0-ACC_SCK*%
X144600000Y-41500000D03*
%TO.N,Board_0-ACC_MOSI*%
X142450000Y-40850000D03*
%TO.N,Board_0-ACC_MISO*%
X144000000Y-41900000D03*
%TO.N,Board_0-ACC_INT2*%
X146600000Y-40600000D03*
%TO.N,Board_0-ACC_INT1*%
X145325000Y-41850000D03*
%TO.N,Board_0-+3V3*%
X149950000Y-35550000D03*
X145350000Y-41050000D03*
X142325000Y-39825000D03*
X146175000Y-34600000D03*
X149900000Y-23650000D03*
X147850000Y-38900000D03*
%TD*%
D13*
%TO.N,Board_0-VBUS*%
X152650000Y-45450000D02*
X152650000Y-44500000D01*
X145300000Y-21800000D02*
X144400000Y-22700000D01*
X144400000Y-24500000D02*
X142450000Y-26450000D01*
X144400000Y-22700000D02*
X144400000Y-24500000D01*
X142300000Y-26450000D02*
X142300000Y-26900000D01*
X145300000Y-46800000D02*
X151300000Y-46800000D01*
X142800000Y-27400000D02*
X142800000Y-29800000D01*
X142800000Y-29800000D02*
X142300000Y-30300000D01*
X142100000Y-43600000D02*
X145300000Y-46800000D01*
X151300000Y-46800000D02*
X152650000Y-45450000D01*
X142300000Y-30300000D02*
X142300000Y-30950000D01*
X142450000Y-26450000D02*
X142300000Y-26450000D01*
X142100000Y-41400000D02*
X142100000Y-43600000D01*
D14*
X143100000Y-25300000D02*
X143100000Y-25650000D01*
D13*
X142300000Y-26900000D02*
X142800000Y-27400000D01*
D14*
X143100000Y-25650000D02*
X142300000Y-26450000D01*
%TO.N,Board_0-User_SW1*%
X150750000Y-37800000D02*
X150750000Y-30500000D01*
X151700000Y-30050000D02*
X152250000Y-29500000D01*
X150200000Y-39500000D02*
X150200000Y-38350000D01*
X149850000Y-39850000D02*
X150200000Y-39500000D01*
X151200000Y-30050000D02*
X151700000Y-30050000D01*
X152250000Y-29500000D02*
X152250000Y-26100000D01*
X150750000Y-30500000D02*
X151200000Y-30050000D01*
X152250000Y-26100000D02*
X150875000Y-24725000D01*
X150200000Y-38350000D02*
X150750000Y-37800000D01*
%TO.N,Board_0-User_LED3*%
X147500000Y-20750000D02*
X145450000Y-20750000D01*
X147650000Y-40750000D02*
X146850000Y-39950000D01*
X147700000Y-30400000D02*
X147700000Y-29700000D01*
X146850000Y-34450000D02*
X146430000Y-34030000D01*
X146850000Y-39950000D02*
X146850000Y-34450000D01*
X146430000Y-34030000D02*
X146430000Y-31670000D01*
X147700000Y-29700000D02*
X148250000Y-29150000D01*
X148250000Y-29150000D02*
X148250000Y-21500000D01*
X148250000Y-21500000D02*
X147500000Y-20750000D01*
X146430000Y-31670000D02*
X147700000Y-30400000D01*
%TO.N,Board_0-TXD*%
X153000000Y-40400000D02*
X149200000Y-40400000D01*
X147900000Y-34000000D02*
X148800000Y-33100000D01*
X148850000Y-40050000D02*
X148850000Y-36000000D01*
X149850000Y-20750000D02*
X151500000Y-20750000D01*
X148800000Y-33100000D02*
X148800000Y-31850000D01*
X148800000Y-31850000D02*
X148500000Y-31550000D01*
X148500000Y-30100000D02*
X149100000Y-29500000D01*
X149200000Y-40400000D02*
X148850000Y-40050000D01*
X149100000Y-29500000D02*
X149100000Y-21500000D01*
X147900000Y-35050000D02*
X147900000Y-34400000D01*
X148500000Y-31550000D02*
X148500000Y-30100000D01*
X148850000Y-36000000D02*
X147900000Y-35050000D01*
X149100000Y-21500000D02*
X149850000Y-20750000D01*
X147900000Y-34400000D02*
X147900000Y-34000000D01*
%TO.N,Board_0-RXD*%
X147350000Y-33650000D02*
X147550000Y-33450000D01*
X148100000Y-31100000D02*
X148100000Y-29900000D01*
X148100000Y-29900000D02*
X148650000Y-29350000D01*
X149000000Y-40800000D02*
X148400000Y-40200000D01*
X148400000Y-36300000D02*
X147350000Y-35250000D01*
X147350000Y-35250000D02*
X147350000Y-33650000D01*
X152300000Y-40800000D02*
X149000000Y-40800000D01*
X148400000Y-40200000D02*
X148400000Y-36300000D01*
X146900000Y-32300000D02*
X148100000Y-31100000D01*
X147550000Y-33450000D02*
X146900000Y-32800000D01*
X148650000Y-29350000D02*
X148650000Y-20750000D01*
X146900000Y-32800000D02*
X146900000Y-32300000D01*
X153000000Y-41500000D02*
X152300000Y-40800000D01*
%TO.N,Board_0-Net-(U6-V+)*%
X151250000Y-45300000D02*
X150250000Y-46300000D01*
X141500000Y-24800000D02*
X141600000Y-24700000D01*
X141500000Y-38000000D02*
X141500000Y-24800000D01*
X150250000Y-46300000D02*
X146150000Y-46300000D01*
X146150000Y-46300000D02*
X143000000Y-43150000D01*
X143000000Y-43150000D02*
X143000000Y-39500000D01*
X143000000Y-39500000D02*
X141500000Y-38000000D01*
D13*
%TO.N,Board_0-Net-(U1-RUN)*%
X145000000Y-25900000D02*
X145000000Y-24500000D01*
X144600000Y-28100000D02*
X145400000Y-27300000D01*
X145400000Y-26300000D02*
X145000000Y-25900000D01*
X145400000Y-27300000D02*
X145400000Y-26300000D01*
X144600000Y-30000000D02*
X144600000Y-28100000D01*
X145000000Y-24500000D02*
X145400000Y-24100000D01*
D14*
%TO.N,Board_0-Net-(R23-Pad1)*%
X146350000Y-39250000D02*
X146350000Y-36000000D01*
X147300000Y-30200000D02*
X147300000Y-26600000D01*
X146000000Y-31500000D02*
X147300000Y-30200000D01*
X145900000Y-39700000D02*
X146350000Y-39250000D01*
X146000000Y-33000000D02*
X146000000Y-31500000D01*
X145900000Y-44050000D02*
X145900000Y-39700000D01*
X150750000Y-44800000D02*
X146650000Y-44800000D01*
X151250000Y-44300000D02*
X150750000Y-44800000D01*
X145590000Y-33410000D02*
X146000000Y-33000000D01*
X146350000Y-36000000D02*
X145590000Y-35240000D01*
X147300000Y-26600000D02*
X146000000Y-25300000D01*
X146650000Y-44800000D02*
X145900000Y-44050000D01*
X145590000Y-35240000D02*
X145590000Y-33410000D01*
%TO.N,Board_0-D0-*%
X146550000Y-45650000D02*
X143400000Y-42500000D01*
X143000000Y-33700000D02*
X144000000Y-32700000D01*
X144000000Y-32700000D02*
X144000000Y-28000000D01*
X143000000Y-38900000D02*
X143000000Y-33700000D01*
X143400000Y-42500000D02*
X143400000Y-39300000D01*
X144000000Y-28000000D02*
X143300000Y-27300000D01*
X143300000Y-27300000D02*
X143300000Y-26850000D01*
X143400000Y-39300000D02*
X143000000Y-38900000D01*
X147850000Y-45650000D02*
X146550000Y-45650000D01*
%TO.N,Board_0-Cap_V+*%
X149250000Y-30500000D02*
X149250000Y-36200000D01*
X150200000Y-37750000D02*
X149500000Y-38450000D01*
X150200000Y-37150000D02*
X150200000Y-37750000D01*
X149050000Y-30300000D02*
X149250000Y-30500000D01*
X149250000Y-36200000D02*
X150200000Y-37150000D01*
X149500000Y-38450000D02*
X149500000Y-38950000D01*
%TO.N,Board_0-+3V3*%
X149500000Y-29450000D02*
X149950000Y-29900000D01*
X149900000Y-23650000D02*
X149500000Y-24050000D01*
X149500000Y-24050000D02*
X149500000Y-29450000D01*
X149950000Y-29900000D02*
X149950000Y-35550000D01*
%TD*%
%TA.AperFunction,Conductor*%
%TO.N,Board_0-GND*%
G36*
X155608691Y-20269407D02*
G01*
X155644655Y-20318907D01*
X155649500Y-20349500D01*
X155649500Y-27205805D01*
X155649366Y-27209450D01*
X155648969Y-27214815D01*
X155649500Y-27236406D01*
X155649500Y-27262866D01*
X155649388Y-27262866D01*
X155649284Y-27271350D01*
X155649687Y-27271360D01*
X155649567Y-27276223D01*
X155650840Y-27293488D01*
X155650959Y-27295909D01*
X155651384Y-27313207D01*
X155651980Y-27318037D01*
X155651402Y-27318108D01*
X155652478Y-27332684D01*
X155653059Y-27332670D01*
X155653177Y-27337530D01*
X155655298Y-27354726D01*
X155655535Y-27357138D01*
X155656807Y-27374378D01*
X155657639Y-27379168D01*
X155657063Y-27379267D01*
X155658853Y-27393770D01*
X155659435Y-27393728D01*
X155659793Y-27398575D01*
X155659793Y-27398578D01*
X155661198Y-27406679D01*
X155662752Y-27415636D01*
X155663108Y-27418036D01*
X155665226Y-27435213D01*
X155666292Y-27439957D01*
X155665724Y-27440084D01*
X155668224Y-27454485D01*
X155668799Y-27454415D01*
X155669393Y-27459233D01*
X155673190Y-27476141D01*
X155673664Y-27478523D01*
X155676619Y-27495561D01*
X155677916Y-27500244D01*
X155677354Y-27500399D01*
X155680556Y-27514654D01*
X155681129Y-27514555D01*
X155681960Y-27519344D01*
X155686578Y-27536032D01*
X155687168Y-27538386D01*
X155690960Y-27555270D01*
X155692484Y-27559882D01*
X155691930Y-27560064D01*
X155695829Y-27574150D01*
X155696397Y-27574023D01*
X155697461Y-27578762D01*
X155697462Y-27578766D01*
X155701733Y-27591697D01*
X155702892Y-27595204D01*
X155703595Y-27597524D01*
X155708213Y-27614208D01*
X155709964Y-27618747D01*
X155709417Y-27618957D01*
X155714000Y-27632824D01*
X155714563Y-27632669D01*
X155715859Y-27637350D01*
X155715860Y-27637353D01*
X155715861Y-27637357D01*
X155720619Y-27649691D01*
X155722083Y-27653486D01*
X155722901Y-27655773D01*
X155728337Y-27672229D01*
X155730309Y-27676677D01*
X155729775Y-27676913D01*
X155735032Y-27690539D01*
X155735587Y-27690356D01*
X155737112Y-27694973D01*
X155744123Y-27710790D01*
X155745053Y-27713036D01*
X155751286Y-27729194D01*
X155753473Y-27733539D01*
X155752951Y-27733801D01*
X155758869Y-27747147D01*
X155759413Y-27746938D01*
X155761162Y-27751474D01*
X155766182Y-27761445D01*
X155775458Y-27821923D01*
X155747415Y-27876304D01*
X155742586Y-27880778D01*
X155717855Y-27902207D01*
X155640049Y-28023276D01*
X155640046Y-28023283D01*
X155599500Y-28161369D01*
X155599500Y-28305298D01*
X155640046Y-28443384D01*
X155640049Y-28443391D01*
X155717856Y-28564461D01*
X155717858Y-28564463D01*
X155826400Y-28658515D01*
X155857996Y-28710910D01*
X155852760Y-28771871D01*
X155826400Y-28808153D01*
X155717858Y-28902204D01*
X155717856Y-28902206D01*
X155640049Y-29023276D01*
X155640046Y-29023283D01*
X155599500Y-29161369D01*
X155599500Y-29305298D01*
X155640046Y-29443384D01*
X155640049Y-29443391D01*
X155717856Y-29564461D01*
X155717858Y-29564463D01*
X155826400Y-29658515D01*
X155857996Y-29710910D01*
X155852760Y-29771871D01*
X155826400Y-29808153D01*
X155717858Y-29902204D01*
X155717856Y-29902206D01*
X155640049Y-30023276D01*
X155640046Y-30023283D01*
X155599500Y-30161369D01*
X155599500Y-30305298D01*
X155640046Y-30443384D01*
X155640049Y-30443391D01*
X155674808Y-30497477D01*
X155690363Y-30556652D01*
X155668164Y-30613668D01*
X155616691Y-30646748D01*
X155591524Y-30650000D01*
X151650000Y-30650000D01*
X151650000Y-36950000D01*
X155552415Y-36950000D01*
X155610606Y-36968907D01*
X155646570Y-37018407D01*
X155650561Y-37041749D01*
X155650790Y-37041721D01*
X155651980Y-37051371D01*
X155651401Y-37051442D01*
X155652476Y-37066006D01*
X155653058Y-37065992D01*
X155653178Y-37070859D01*
X155655297Y-37088043D01*
X155655534Y-37090455D01*
X155656808Y-37107719D01*
X155657639Y-37112507D01*
X155657063Y-37112606D01*
X155658853Y-37127103D01*
X155659435Y-37127061D01*
X155659793Y-37131908D01*
X155659793Y-37131911D01*
X155661198Y-37140012D01*
X155662752Y-37148969D01*
X155663108Y-37151369D01*
X155665226Y-37168546D01*
X155666292Y-37173290D01*
X155665724Y-37173417D01*
X155668224Y-37187818D01*
X155668799Y-37187748D01*
X155669393Y-37192566D01*
X155673190Y-37209474D01*
X155673664Y-37211856D01*
X155676619Y-37228894D01*
X155677916Y-37233577D01*
X155677354Y-37233732D01*
X155680554Y-37247982D01*
X155681129Y-37247883D01*
X155681961Y-37252680D01*
X155686577Y-37269361D01*
X155687166Y-37271713D01*
X155690960Y-37288602D01*
X155692487Y-37293224D01*
X155691933Y-37293406D01*
X155695831Y-37307487D01*
X155696398Y-37307360D01*
X155697464Y-37312107D01*
X155702893Y-37328542D01*
X155703598Y-37330865D01*
X155708213Y-37347542D01*
X155709961Y-37352074D01*
X155709415Y-37352284D01*
X155714001Y-37366165D01*
X155714564Y-37366010D01*
X155715859Y-37370691D01*
X155722087Y-37386835D01*
X155722905Y-37389121D01*
X155728338Y-37405565D01*
X155730309Y-37410012D01*
X155729774Y-37410249D01*
X155735028Y-37423867D01*
X155735585Y-37423684D01*
X155737111Y-37428304D01*
X155743223Y-37442094D01*
X155744127Y-37444132D01*
X155745055Y-37446373D01*
X155751286Y-37462525D01*
X155753474Y-37466871D01*
X155752951Y-37467134D01*
X155758872Y-37480488D01*
X155759416Y-37480279D01*
X155761164Y-37484813D01*
X155766182Y-37494781D01*
X155775457Y-37555259D01*
X155747412Y-37609639D01*
X155742586Y-37614110D01*
X155717856Y-37635539D01*
X155717854Y-37635542D01*
X155640049Y-37756608D01*
X155640046Y-37756615D01*
X155599500Y-37894701D01*
X155599500Y-38038630D01*
X155640046Y-38176716D01*
X155640049Y-38176723D01*
X155717856Y-38297793D01*
X155717858Y-38297795D01*
X155826400Y-38391847D01*
X155857996Y-38444242D01*
X155852760Y-38505203D01*
X155826400Y-38541485D01*
X155717858Y-38635536D01*
X155717856Y-38635538D01*
X155640049Y-38756608D01*
X155640046Y-38756615D01*
X155599500Y-38894701D01*
X155599500Y-39038630D01*
X155640046Y-39176716D01*
X155640049Y-39176723D01*
X155717856Y-39297793D01*
X155717858Y-39297795D01*
X155826400Y-39391847D01*
X155857996Y-39444242D01*
X155852760Y-39505203D01*
X155826400Y-39541485D01*
X155717858Y-39635536D01*
X155717856Y-39635538D01*
X155640049Y-39756608D01*
X155640046Y-39756615D01*
X155599500Y-39894701D01*
X155599500Y-40038630D01*
X155640046Y-40176716D01*
X155640049Y-40176723D01*
X155717856Y-40297793D01*
X155717858Y-40297795D01*
X155826400Y-40391847D01*
X155857996Y-40444242D01*
X155852760Y-40505203D01*
X155826400Y-40541485D01*
X155717858Y-40635536D01*
X155717856Y-40635538D01*
X155640049Y-40756608D01*
X155640046Y-40756615D01*
X155599500Y-40894701D01*
X155599500Y-41038630D01*
X155640046Y-41176716D01*
X155640049Y-41176723D01*
X155717856Y-41297793D01*
X155742585Y-41319221D01*
X155774180Y-41371617D01*
X155768944Y-41432578D01*
X155766185Y-41438546D01*
X155761165Y-41448519D01*
X155759414Y-41453060D01*
X155758872Y-41452850D01*
X155752951Y-41466209D01*
X155753469Y-41466470D01*
X155751284Y-41470808D01*
X155745055Y-41486958D01*
X155744127Y-41489199D01*
X155737114Y-41505020D01*
X155735588Y-41509641D01*
X155735033Y-41509457D01*
X155729776Y-41523089D01*
X155730308Y-41523325D01*
X155728337Y-41527770D01*
X155722904Y-41544214D01*
X155722088Y-41546496D01*
X155715862Y-41562636D01*
X155714564Y-41567327D01*
X155714001Y-41567171D01*
X155709420Y-41581038D01*
X155709965Y-41581249D01*
X155708212Y-41585793D01*
X155703593Y-41602478D01*
X155702890Y-41604795D01*
X155697464Y-41621225D01*
X155696399Y-41625968D01*
X155695831Y-41625840D01*
X155691932Y-41639929D01*
X155692485Y-41640112D01*
X155690958Y-41644734D01*
X155687167Y-41661611D01*
X155686579Y-41663958D01*
X155681962Y-41680648D01*
X155681129Y-41685450D01*
X155680555Y-41685350D01*
X155677356Y-41699602D01*
X155677916Y-41699757D01*
X155676618Y-41704445D01*
X155673661Y-41721484D01*
X155673188Y-41723860D01*
X155669394Y-41740761D01*
X155668799Y-41745586D01*
X155668225Y-41745515D01*
X155665727Y-41759912D01*
X155666292Y-41760039D01*
X155665227Y-41764779D01*
X155663108Y-41781964D01*
X155662751Y-41784364D01*
X155659793Y-41801413D01*
X155659436Y-41806262D01*
X155658854Y-41806219D01*
X155657064Y-41820728D01*
X155657639Y-41820828D01*
X155656807Y-41825616D01*
X155655535Y-41842862D01*
X155655298Y-41845273D01*
X155653177Y-41862476D01*
X155653059Y-41867330D01*
X155652479Y-41867315D01*
X155651405Y-41881897D01*
X155651979Y-41881968D01*
X155651384Y-41886787D01*
X155650959Y-41904089D01*
X155650840Y-41906510D01*
X155649567Y-41923775D01*
X155649687Y-41928642D01*
X155649283Y-41928651D01*
X155649388Y-41937134D01*
X155649500Y-41937134D01*
X155649500Y-41963592D01*
X155648969Y-41985186D01*
X155649366Y-41990552D01*
X155649500Y-41994197D01*
X155649500Y-48850500D01*
X155630593Y-48908691D01*
X155581093Y-48944655D01*
X155550500Y-48949500D01*
X141449500Y-48949500D01*
X141391309Y-48930593D01*
X141355345Y-48881093D01*
X141350500Y-48850500D01*
X141350500Y-42302250D01*
X141369407Y-42244059D01*
X141418907Y-42208095D01*
X141463588Y-42204258D01*
X141472224Y-42205500D01*
X141600500Y-42205500D01*
X141658691Y-42224407D01*
X141694655Y-42273907D01*
X141699500Y-42304500D01*
X141699500Y-43663437D01*
X141706953Y-43686374D01*
X141710579Y-43701474D01*
X141714354Y-43725306D01*
X141725301Y-43746788D01*
X141731247Y-43761142D01*
X141738703Y-43784088D01*
X141738702Y-43784088D01*
X141752884Y-43803608D01*
X141760997Y-43816847D01*
X141771950Y-43838342D01*
X141771951Y-43838343D01*
X141792031Y-43858424D01*
X144971949Y-47038342D01*
X145061657Y-47128049D01*
X145061658Y-47128050D01*
X145083149Y-47139000D01*
X145096395Y-47147117D01*
X145115910Y-47161296D01*
X145115912Y-47161296D01*
X145115913Y-47161297D01*
X145138852Y-47168750D01*
X145153195Y-47174690D01*
X145174696Y-47185646D01*
X145198524Y-47189419D01*
X145213633Y-47193047D01*
X145222194Y-47195828D01*
X145236567Y-47200499D01*
X145266437Y-47200499D01*
X145266461Y-47200500D01*
X145268481Y-47200500D01*
X151363432Y-47200500D01*
X151363433Y-47200500D01*
X151386382Y-47193043D01*
X151401465Y-47189421D01*
X151425304Y-47185646D01*
X151446802Y-47174690D01*
X151461151Y-47168748D01*
X151484090Y-47161296D01*
X151503612Y-47147111D01*
X151516849Y-47139000D01*
X151538342Y-47128050D01*
X151555261Y-47111129D01*
X151555265Y-47111127D01*
X151560906Y-47105485D01*
X151560909Y-47105484D01*
X152955483Y-45710909D01*
X152978050Y-45688342D01*
X152989002Y-45666843D01*
X152997115Y-45653605D01*
X153011296Y-45634090D01*
X153018751Y-45611144D01*
X153024695Y-45596795D01*
X153035646Y-45575304D01*
X153039419Y-45551473D01*
X153043048Y-45536364D01*
X153050498Y-45513435D01*
X153050499Y-45513434D01*
X153050499Y-45483563D01*
X153050500Y-45483538D01*
X153050500Y-44674987D01*
X153058665Y-44640978D01*
X153057311Y-44640538D01*
X153059718Y-44633127D01*
X153059719Y-44633126D01*
X153080804Y-44500000D01*
X153059719Y-44366874D01*
X152998528Y-44246780D01*
X152903220Y-44151472D01*
X152903217Y-44151470D01*
X152783129Y-44090282D01*
X152783127Y-44090281D01*
X152650000Y-44069196D01*
X152516872Y-44090281D01*
X152516870Y-44090282D01*
X152396782Y-44151470D01*
X152301470Y-44246782D01*
X152240282Y-44366870D01*
X152240281Y-44366872D01*
X152219196Y-44499999D01*
X152219196Y-44500000D01*
X152240281Y-44633127D01*
X152242689Y-44640538D01*
X152241334Y-44640978D01*
X152249500Y-44674987D01*
X152249500Y-45243099D01*
X152230593Y-45301290D01*
X152220504Y-45313103D01*
X151163103Y-46370504D01*
X151108586Y-46398281D01*
X151093099Y-46399500D01*
X150814479Y-46399500D01*
X150756288Y-46380593D01*
X150720324Y-46331093D01*
X150720324Y-46269907D01*
X150744475Y-46230497D01*
X151220324Y-45754647D01*
X151274839Y-45726869D01*
X151383126Y-45709719D01*
X151503220Y-45648528D01*
X151598528Y-45553220D01*
X151659719Y-45433126D01*
X151680804Y-45300000D01*
X151678857Y-45287710D01*
X151667519Y-45216121D01*
X151659719Y-45166874D01*
X151598528Y-45046780D01*
X151503220Y-44951472D01*
X151503217Y-44951470D01*
X151379061Y-44888209D01*
X151335796Y-44844945D01*
X151326225Y-44784513D01*
X151354003Y-44729996D01*
X151379061Y-44711791D01*
X151452963Y-44674134D01*
X151503220Y-44648528D01*
X151598528Y-44553220D01*
X151659719Y-44433126D01*
X151680804Y-44300000D01*
X151659719Y-44166874D01*
X151598528Y-44046780D01*
X151503220Y-43951472D01*
X151503217Y-43951470D01*
X151383129Y-43890282D01*
X151383127Y-43890281D01*
X151250000Y-43869196D01*
X151116872Y-43890281D01*
X151116870Y-43890282D01*
X150996782Y-43951470D01*
X150901470Y-44046782D01*
X150840282Y-44166870D01*
X150840281Y-44166872D01*
X150823129Y-44275160D01*
X150795352Y-44329675D01*
X150654526Y-44470503D01*
X150600010Y-44498281D01*
X150584522Y-44499500D01*
X148757201Y-44499500D01*
X148699010Y-44480593D01*
X148663046Y-44431093D01*
X148659420Y-44385013D01*
X148680804Y-44250000D01*
X148680804Y-44249999D01*
X148667638Y-44166872D01*
X148659719Y-44116874D01*
X148598528Y-43996780D01*
X148503220Y-43901472D01*
X148503217Y-43901470D01*
X148383129Y-43840282D01*
X148383127Y-43840281D01*
X148250000Y-43819196D01*
X148116872Y-43840281D01*
X148116870Y-43840282D01*
X147996782Y-43901470D01*
X147901470Y-43996782D01*
X147840282Y-44116870D01*
X147840281Y-44116872D01*
X147819196Y-44249999D01*
X147819196Y-44250000D01*
X147840580Y-44385013D01*
X147831009Y-44445445D01*
X147787744Y-44488710D01*
X147742799Y-44499500D01*
X146815479Y-44499500D01*
X146757288Y-44480593D01*
X146745475Y-44470504D01*
X146571946Y-44296975D01*
X146544169Y-44242458D01*
X146553740Y-44182026D01*
X146597005Y-44138761D01*
X146615881Y-44132628D01*
X146615718Y-44132126D01*
X146623119Y-44129719D01*
X146623126Y-44129719D01*
X146743220Y-44068528D01*
X146838528Y-43973220D01*
X146899719Y-43853126D01*
X146920804Y-43720000D01*
X146919175Y-43709718D01*
X146909484Y-43648528D01*
X146899719Y-43586874D01*
X146838528Y-43466780D01*
X146743220Y-43371472D01*
X146743217Y-43371470D01*
X146623129Y-43310282D01*
X146623127Y-43310281D01*
X146558215Y-43300000D01*
X150219196Y-43300000D01*
X150240281Y-43433127D01*
X150240282Y-43433129D01*
X150301470Y-43553217D01*
X150301472Y-43553220D01*
X150396780Y-43648528D01*
X150516874Y-43709719D01*
X150650000Y-43730804D01*
X150783126Y-43709719D01*
X150903220Y-43648528D01*
X150998528Y-43553220D01*
X151059719Y-43433126D01*
X151080804Y-43300000D01*
X151078829Y-43287533D01*
X151068131Y-43219987D01*
X151059719Y-43166874D01*
X150998528Y-43046780D01*
X150903220Y-42951472D01*
X150903217Y-42951470D01*
X150783129Y-42890282D01*
X150783127Y-42890281D01*
X150650000Y-42869196D01*
X150516872Y-42890281D01*
X150516870Y-42890282D01*
X150396782Y-42951470D01*
X150301470Y-43046782D01*
X150240282Y-43166870D01*
X150240281Y-43166872D01*
X150219196Y-43299999D01*
X150219196Y-43300000D01*
X146558215Y-43300000D01*
X146490000Y-43289196D01*
X146356874Y-43310281D01*
X146344445Y-43316614D01*
X146284013Y-43326185D01*
X146229496Y-43298408D01*
X146201719Y-43243891D01*
X146200500Y-43228404D01*
X146200500Y-41035547D01*
X146219407Y-40977356D01*
X146268907Y-40941392D01*
X146330093Y-40941392D01*
X146344446Y-40947338D01*
X146346778Y-40948526D01*
X146346780Y-40948528D01*
X146466874Y-41009719D01*
X146600000Y-41030804D01*
X146733126Y-41009719D01*
X146853220Y-40948528D01*
X146948528Y-40853220D01*
X146997752Y-40756613D01*
X147013257Y-40726184D01*
X147015494Y-40727324D01*
X147044404Y-40687514D01*
X147102591Y-40668593D01*
X147160786Y-40687487D01*
X147172618Y-40697589D01*
X147195352Y-40720323D01*
X147223129Y-40774839D01*
X147240281Y-40883127D01*
X147240282Y-40883129D01*
X147288532Y-40977824D01*
X147301472Y-41003220D01*
X147396780Y-41098528D01*
X147516874Y-41159719D01*
X147650000Y-41180804D01*
X147783126Y-41159719D01*
X147903220Y-41098528D01*
X147998528Y-41003220D01*
X148059719Y-40883126D01*
X148080804Y-40750000D01*
X148080006Y-40744964D01*
X148073118Y-40701472D01*
X148059719Y-40616874D01*
X148021976Y-40542799D01*
X148001723Y-40503050D01*
X148000655Y-40496311D01*
X147989382Y-40487634D01*
X147903220Y-40401472D01*
X147903217Y-40401470D01*
X147783129Y-40340282D01*
X147783127Y-40340281D01*
X147674839Y-40323129D01*
X147620323Y-40295352D01*
X147179496Y-39854525D01*
X147151719Y-39800008D01*
X147150500Y-39784521D01*
X147150500Y-36659965D01*
X147160154Y-36630250D01*
X147150500Y-36590034D01*
X147150500Y-35714479D01*
X147169407Y-35656288D01*
X147218907Y-35620324D01*
X147280093Y-35620324D01*
X147319504Y-35644475D01*
X147718951Y-36043922D01*
X147746728Y-36098439D01*
X147737157Y-36158871D01*
X147693892Y-36202136D01*
X147664437Y-36211707D01*
X147641871Y-36215281D01*
X147641870Y-36215282D01*
X147521782Y-36276470D01*
X147426470Y-36371782D01*
X147365282Y-36491870D01*
X147365281Y-36491872D01*
X147347281Y-36605521D01*
X147338380Y-36622989D01*
X147347281Y-36644478D01*
X147365281Y-36758127D01*
X147365282Y-36758129D01*
X147426470Y-36878217D01*
X147426472Y-36878220D01*
X147521780Y-36973528D01*
X147521782Y-36973529D01*
X147575659Y-37000981D01*
X147641874Y-37034719D01*
X147775000Y-37055804D01*
X147908126Y-37034719D01*
X147955554Y-37010552D01*
X148015986Y-37000981D01*
X148070503Y-37028758D01*
X148098281Y-37083274D01*
X148099500Y-37098762D01*
X148099500Y-38392799D01*
X148080593Y-38450990D01*
X148031093Y-38486954D01*
X147985013Y-38490580D01*
X147983126Y-38490281D01*
X147850000Y-38469196D01*
X147716872Y-38490281D01*
X147716870Y-38490282D01*
X147596782Y-38551470D01*
X147501470Y-38646782D01*
X147440282Y-38766870D01*
X147440281Y-38766872D01*
X147419196Y-38899999D01*
X147419196Y-38900000D01*
X147440281Y-39033127D01*
X147440282Y-39033129D01*
X147501470Y-39153217D01*
X147501472Y-39153220D01*
X147596780Y-39248528D01*
X147716874Y-39309719D01*
X147824945Y-39326835D01*
X147849999Y-39330804D01*
X147849999Y-39330803D01*
X147850000Y-39330804D01*
X147983126Y-39309719D01*
X147983126Y-39309718D01*
X147985013Y-39309420D01*
X148045445Y-39318991D01*
X148088710Y-39362256D01*
X148099500Y-39407201D01*
X148099500Y-40134835D01*
X148097280Y-40148513D01*
X148098494Y-40148683D01*
X148097226Y-40157766D01*
X148099447Y-40205783D01*
X148099500Y-40208069D01*
X148099500Y-40227842D01*
X148100152Y-40231332D01*
X148100943Y-40238149D01*
X148102414Y-40269987D01*
X148102415Y-40269994D01*
X148106384Y-40278982D01*
X148113133Y-40300773D01*
X148114939Y-40310433D01*
X148131717Y-40337533D01*
X148134915Y-40343600D01*
X148149945Y-40377635D01*
X148150634Y-40384394D01*
X148167294Y-40399723D01*
X148167900Y-40399172D01*
X148174079Y-40405950D01*
X148174080Y-40405951D01*
X148174081Y-40405952D01*
X148187632Y-40416185D01*
X148199511Y-40425156D01*
X148204690Y-40429662D01*
X148741436Y-40966407D01*
X148749537Y-40977647D01*
X148750516Y-40976909D01*
X148756044Y-40984230D01*
X148791569Y-41016616D01*
X148793223Y-41018195D01*
X148805833Y-41030804D01*
X148807203Y-41032174D01*
X148810128Y-41034178D01*
X148815505Y-41038437D01*
X148839064Y-41059914D01*
X148839065Y-41059914D01*
X148839067Y-41059916D01*
X148848230Y-41063466D01*
X148868416Y-41074105D01*
X148876519Y-41079656D01*
X148907553Y-41086955D01*
X148914090Y-41088979D01*
X148943827Y-41100500D01*
X148953652Y-41100500D01*
X148976316Y-41103129D01*
X148985881Y-41105379D01*
X149012118Y-41101719D01*
X149017453Y-41100975D01*
X149024299Y-41100500D01*
X150113499Y-41100500D01*
X150171690Y-41119407D01*
X150207654Y-41168907D01*
X150207654Y-41230093D01*
X150201709Y-41244444D01*
X150190281Y-41266872D01*
X150169196Y-41399999D01*
X150169196Y-41400000D01*
X150190281Y-41533127D01*
X150190282Y-41533129D01*
X150251470Y-41653217D01*
X150251472Y-41653220D01*
X150346780Y-41748528D01*
X150466874Y-41809719D01*
X150600000Y-41830804D01*
X150733126Y-41809719D01*
X150853220Y-41748528D01*
X150948528Y-41653220D01*
X151009719Y-41533126D01*
X151030804Y-41400000D01*
X151030669Y-41399150D01*
X151015873Y-41305730D01*
X151009719Y-41266874D01*
X150999481Y-41246780D01*
X150998291Y-41244444D01*
X150988720Y-41184012D01*
X151016498Y-41129496D01*
X151071015Y-41101719D01*
X151086501Y-41100500D01*
X152134521Y-41100500D01*
X152192712Y-41119407D01*
X152204525Y-41129496D01*
X152545352Y-41470323D01*
X152573129Y-41524839D01*
X152590281Y-41633127D01*
X152590282Y-41633129D01*
X152649377Y-41749109D01*
X152651472Y-41753220D01*
X152746780Y-41848528D01*
X152746782Y-41848529D01*
X152866216Y-41909384D01*
X152866874Y-41909719D01*
X153000000Y-41930804D01*
X153133126Y-41909719D01*
X153253220Y-41848528D01*
X153348528Y-41753220D01*
X153409719Y-41633126D01*
X153430804Y-41500000D01*
X153430006Y-41494964D01*
X153425004Y-41463380D01*
X153409719Y-41366874D01*
X153409718Y-41366872D01*
X153409717Y-41366870D01*
X153348529Y-41246782D01*
X153348528Y-41246780D01*
X153253220Y-41151472D01*
X153253217Y-41151470D01*
X153133129Y-41090282D01*
X153133127Y-41090281D01*
X153024839Y-41073129D01*
X152970324Y-41045352D01*
X152924778Y-40999806D01*
X152897002Y-40945291D01*
X152906573Y-40884859D01*
X152949838Y-40841594D01*
X152994783Y-40830804D01*
X153000000Y-40830804D01*
X153133126Y-40809719D01*
X153253220Y-40748528D01*
X153348528Y-40653220D01*
X153409719Y-40533126D01*
X153430804Y-40400000D01*
X153409719Y-40266874D01*
X153348528Y-40146780D01*
X153253220Y-40051472D01*
X153253217Y-40051470D01*
X153133129Y-39990282D01*
X153133127Y-39990281D01*
X153000000Y-39969196D01*
X152866872Y-39990281D01*
X152866870Y-39990282D01*
X152746782Y-40051470D01*
X152746780Y-40051471D01*
X152746780Y-40051472D01*
X152727746Y-40070505D01*
X152673232Y-40098281D01*
X152657745Y-40099500D01*
X150357201Y-40099500D01*
X150299010Y-40080593D01*
X150263046Y-40031093D01*
X150259420Y-39985014D01*
X150268841Y-39925529D01*
X150276869Y-39874839D01*
X150304646Y-39820324D01*
X150366405Y-39758564D01*
X150377664Y-39750493D01*
X150376905Y-39749487D01*
X150384221Y-39743961D01*
X150384228Y-39743958D01*
X150416632Y-39708411D01*
X150418186Y-39706783D01*
X150432174Y-39692797D01*
X150434181Y-39689865D01*
X150438440Y-39684490D01*
X150445890Y-39676318D01*
X150459916Y-39660933D01*
X150463466Y-39651767D01*
X150474107Y-39631581D01*
X150479657Y-39623480D01*
X150486956Y-39592443D01*
X150488980Y-39585908D01*
X150500500Y-39556173D01*
X150500500Y-39546348D01*
X150503129Y-39523683D01*
X150505379Y-39514119D01*
X150500975Y-39482546D01*
X150500500Y-39475699D01*
X150500500Y-38515477D01*
X150519407Y-38457286D01*
X150529490Y-38445480D01*
X150916403Y-38058566D01*
X150927664Y-38050493D01*
X150926905Y-38049487D01*
X150934221Y-38043961D01*
X150934228Y-38043958D01*
X150966632Y-38008411D01*
X150968186Y-38006783D01*
X150982174Y-37992797D01*
X150984181Y-37989865D01*
X150988440Y-37984490D01*
X151009916Y-37960933D01*
X151013465Y-37951770D01*
X151024106Y-37931582D01*
X151029656Y-37923481D01*
X151036955Y-37892443D01*
X151038977Y-37885914D01*
X151050500Y-37856173D01*
X151050500Y-37846348D01*
X151053129Y-37823683D01*
X151055379Y-37814119D01*
X151050975Y-37782547D01*
X151050500Y-37775701D01*
X151050500Y-30665479D01*
X151069407Y-30607288D01*
X151079496Y-30595475D01*
X151295475Y-30379496D01*
X151349992Y-30351719D01*
X151365479Y-30350500D01*
X151634836Y-30350500D01*
X151648511Y-30352732D01*
X151648683Y-30351506D01*
X151657764Y-30352772D01*
X151657765Y-30352773D01*
X151657765Y-30352772D01*
X151657766Y-30352773D01*
X151666507Y-30352368D01*
X151705793Y-30350552D01*
X151708070Y-30350500D01*
X151727841Y-30350500D01*
X151727844Y-30350500D01*
X151731337Y-30349846D01*
X151738141Y-30349056D01*
X151769992Y-30347585D01*
X151778976Y-30343617D01*
X151800777Y-30336865D01*
X151810433Y-30335061D01*
X151837543Y-30318274D01*
X151843589Y-30315088D01*
X151872765Y-30302206D01*
X151879709Y-30295260D01*
X151897601Y-30281089D01*
X151905952Y-30275919D01*
X151925165Y-30250474D01*
X151929662Y-30245308D01*
X152151694Y-30023276D01*
X152416405Y-29758564D01*
X152427664Y-29750493D01*
X152426905Y-29749487D01*
X152434221Y-29743961D01*
X152434228Y-29743958D01*
X152466632Y-29708411D01*
X152468186Y-29706783D01*
X152482174Y-29692797D01*
X152484181Y-29689865D01*
X152488440Y-29684490D01*
X152509916Y-29660933D01*
X152513465Y-29651770D01*
X152524106Y-29631582D01*
X152529656Y-29623481D01*
X152536955Y-29592443D01*
X152538977Y-29585914D01*
X152550500Y-29556173D01*
X152550500Y-29546348D01*
X152553129Y-29523683D01*
X152555379Y-29514119D01*
X152550975Y-29482547D01*
X152550500Y-29475701D01*
X152550500Y-26165169D01*
X152552731Y-26151496D01*
X152551505Y-26151325D01*
X152552773Y-26142233D01*
X152550553Y-26094216D01*
X152550500Y-26091929D01*
X152550500Y-26072160D01*
X152550500Y-26072156D01*
X152549846Y-26068664D01*
X152549056Y-26061859D01*
X152547585Y-26030009D01*
X152543613Y-26021014D01*
X152536865Y-25999220D01*
X152535061Y-25989567D01*
X152518278Y-25962462D01*
X152515085Y-25956406D01*
X152506090Y-25936031D01*
X152502207Y-25927236D01*
X152495257Y-25920286D01*
X152481088Y-25902396D01*
X152475920Y-25894049D01*
X152475919Y-25894048D01*
X152450483Y-25874839D01*
X152445306Y-25870334D01*
X151329646Y-24754675D01*
X151301869Y-24700158D01*
X151295855Y-24662187D01*
X151284719Y-24591874D01*
X151223528Y-24471780D01*
X151128220Y-24376472D01*
X151128217Y-24376470D01*
X151008129Y-24315282D01*
X151008127Y-24315281D01*
X150875000Y-24294196D01*
X150741872Y-24315281D01*
X150741870Y-24315282D01*
X150621782Y-24376470D01*
X150526470Y-24471782D01*
X150465282Y-24591870D01*
X150465281Y-24591872D01*
X150444196Y-24724999D01*
X150444196Y-24725000D01*
X150465281Y-24858127D01*
X150465282Y-24858129D01*
X150526470Y-24978217D01*
X150526472Y-24978220D01*
X150621780Y-25073528D01*
X150741874Y-25134719D01*
X150850159Y-25151869D01*
X150904674Y-25179646D01*
X150904675Y-25179646D01*
X150975221Y-25250192D01*
X151002998Y-25304709D01*
X150993427Y-25365141D01*
X150950162Y-25408406D01*
X150905217Y-25419196D01*
X150900000Y-25419196D01*
X150766872Y-25440281D01*
X150766870Y-25440282D01*
X150646782Y-25501470D01*
X150551470Y-25596782D01*
X150490282Y-25716870D01*
X150490281Y-25716872D01*
X150469196Y-25849999D01*
X150469196Y-25850000D01*
X150490281Y-25983127D01*
X150490282Y-25983129D01*
X150546298Y-26093066D01*
X150551472Y-26103220D01*
X150646780Y-26198528D01*
X150766874Y-26259719D01*
X150900000Y-26280804D01*
X151033126Y-26259719D01*
X151153220Y-26198528D01*
X151248528Y-26103220D01*
X151309719Y-25983126D01*
X151330804Y-25850000D01*
X151330804Y-25849999D01*
X151330804Y-25844783D01*
X151349711Y-25786592D01*
X151399211Y-25750628D01*
X151460397Y-25750628D01*
X151499808Y-25774779D01*
X151920504Y-26195475D01*
X151948281Y-26249992D01*
X151949500Y-26265479D01*
X151949500Y-29334521D01*
X151930593Y-29392712D01*
X151920504Y-29404524D01*
X151604526Y-29720503D01*
X151550009Y-29748281D01*
X151534522Y-29749500D01*
X151265164Y-29749500D01*
X151251488Y-29747267D01*
X151251317Y-29748494D01*
X151242233Y-29747226D01*
X151201886Y-29749092D01*
X151194206Y-29749447D01*
X151191930Y-29749500D01*
X151172153Y-29749500D01*
X151168658Y-29750153D01*
X151161845Y-29750943D01*
X151130010Y-29752414D01*
X151130006Y-29752415D01*
X151121015Y-29756385D01*
X151099227Y-29763132D01*
X151089570Y-29764937D01*
X151089564Y-29764939D01*
X151062466Y-29781717D01*
X151056399Y-29784915D01*
X151027237Y-29797792D01*
X151027233Y-29797795D01*
X151020284Y-29804744D01*
X151002409Y-29818903D01*
X150994048Y-29824080D01*
X150974839Y-29849515D01*
X150970335Y-29854692D01*
X150583590Y-30241437D01*
X150572361Y-30249550D01*
X150573090Y-30250515D01*
X150565771Y-30256041D01*
X150533372Y-30291580D01*
X150531796Y-30293231D01*
X150517830Y-30307198D01*
X150517817Y-30307213D01*
X150515813Y-30310138D01*
X150511561Y-30315504D01*
X150490084Y-30339065D01*
X150490083Y-30339067D01*
X150486529Y-30348240D01*
X150475896Y-30368412D01*
X150470346Y-30376515D01*
X150470342Y-30376524D01*
X150463045Y-30407545D01*
X150461016Y-30414098D01*
X150449500Y-30443824D01*
X150449500Y-30453651D01*
X150446871Y-30476316D01*
X150445871Y-30480568D01*
X150440504Y-30489416D01*
X150447551Y-30506884D01*
X150449025Y-30517452D01*
X150449500Y-30524298D01*
X150449500Y-35208744D01*
X150430593Y-35266935D01*
X150381093Y-35302899D01*
X150319907Y-35302899D01*
X150280496Y-35278748D01*
X150279496Y-35277748D01*
X150251719Y-35223231D01*
X150250500Y-35207744D01*
X150250500Y-30520561D01*
X150258356Y-30496379D01*
X150258212Y-30496212D01*
X150250500Y-30457903D01*
X150250500Y-29965168D01*
X150252731Y-29951495D01*
X150251505Y-29951324D01*
X150252773Y-29942232D01*
X150250997Y-29903811D01*
X150250552Y-29894207D01*
X150250500Y-29891928D01*
X150250500Y-29872160D01*
X150250500Y-29872156D01*
X150249846Y-29868664D01*
X150249056Y-29861859D01*
X150247585Y-29830008D01*
X150243615Y-29821017D01*
X150236864Y-29799215D01*
X150236598Y-29797794D01*
X150235061Y-29789567D01*
X150218276Y-29762458D01*
X150215084Y-29756401D01*
X150202206Y-29727235D01*
X150202205Y-29727233D01*
X150195256Y-29720284D01*
X150181090Y-29702399D01*
X150175919Y-29694048D01*
X150150483Y-29674839D01*
X150145306Y-29670334D01*
X149829496Y-29354525D01*
X149801719Y-29300008D01*
X149800500Y-29284521D01*
X149800500Y-24215477D01*
X149819407Y-24157286D01*
X149829491Y-24145478D01*
X149870324Y-24104645D01*
X149924834Y-24076870D01*
X150033126Y-24059719D01*
X150153220Y-23998528D01*
X150248528Y-23903220D01*
X150278218Y-23844949D01*
X150321481Y-23801687D01*
X150381913Y-23792116D01*
X150419098Y-23806072D01*
X150450474Y-23825787D01*
X150450475Y-23825787D01*
X150450478Y-23825789D01*
X150551145Y-23861014D01*
X150620738Y-23885366D01*
X150620742Y-23885367D01*
X150620745Y-23885368D01*
X150620746Y-23885368D01*
X150620750Y-23885369D01*
X150755029Y-23900499D01*
X150755045Y-23900499D01*
X150755046Y-23900500D01*
X150755047Y-23900500D01*
X150844953Y-23900500D01*
X150844954Y-23900500D01*
X150844955Y-23900499D01*
X150844970Y-23900499D01*
X150979249Y-23885369D01*
X150979251Y-23885368D01*
X150979255Y-23885368D01*
X151149522Y-23825789D01*
X151302262Y-23729816D01*
X151429816Y-23602262D01*
X151525789Y-23449522D01*
X151585368Y-23279255D01*
X151605565Y-23100000D01*
X151585368Y-22920745D01*
X151525789Y-22750478D01*
X151429816Y-22597738D01*
X151302262Y-22470184D01*
X151302259Y-22470182D01*
X151302258Y-22470181D01*
X151149523Y-22374211D01*
X150979261Y-22314633D01*
X150979249Y-22314630D01*
X150844970Y-22299500D01*
X150844954Y-22299500D01*
X150755046Y-22299500D01*
X150755029Y-22299500D01*
X150620750Y-22314630D01*
X150620738Y-22314633D01*
X150450477Y-22374211D01*
X150450476Y-22374211D01*
X150297741Y-22470181D01*
X150170181Y-22597741D01*
X150074211Y-22750476D01*
X150074211Y-22750477D01*
X150014633Y-22920738D01*
X150014632Y-22920742D01*
X149994435Y-23100000D01*
X149995462Y-23109113D01*
X149983188Y-23169054D01*
X149938025Y-23210334D01*
X149907529Y-23216934D01*
X149907695Y-23217977D01*
X149766872Y-23240281D01*
X149766870Y-23240282D01*
X149646782Y-23301470D01*
X149646780Y-23301471D01*
X149646780Y-23301472D01*
X149569501Y-23378750D01*
X149514987Y-23406526D01*
X149454555Y-23396955D01*
X149411290Y-23353690D01*
X149400500Y-23308745D01*
X149400500Y-21665479D01*
X149419407Y-21607288D01*
X149429496Y-21595475D01*
X149945475Y-21079496D01*
X149999992Y-21051719D01*
X150015479Y-21050500D01*
X151157745Y-21050500D01*
X151215936Y-21069407D01*
X151227742Y-21079490D01*
X151246780Y-21098528D01*
X151366874Y-21159719D01*
X151500000Y-21180804D01*
X151633126Y-21159719D01*
X151753220Y-21098528D01*
X151848528Y-21003220D01*
X151909719Y-20883126D01*
X151930804Y-20750000D01*
X151909719Y-20616874D01*
X151848528Y-20496780D01*
X151771249Y-20419501D01*
X151743474Y-20364987D01*
X151753045Y-20304555D01*
X151796310Y-20261290D01*
X151841255Y-20250500D01*
X155550500Y-20250500D01*
X155608691Y-20269407D01*
G37*
%TD.AperFunction*%
%TA.AperFunction,Conductor*%
G36*
X145239793Y-34166526D02*
G01*
X145280843Y-34211897D01*
X145289500Y-34252382D01*
X145289500Y-35174835D01*
X145287280Y-35188513D01*
X145288494Y-35188683D01*
X145287226Y-35197766D01*
X145289447Y-35245783D01*
X145289500Y-35248069D01*
X145289500Y-35267842D01*
X145290152Y-35271332D01*
X145290943Y-35278149D01*
X145292414Y-35309987D01*
X145292415Y-35309994D01*
X145296384Y-35318982D01*
X145303133Y-35340773D01*
X145304939Y-35350433D01*
X145321717Y-35377533D01*
X145324915Y-35383600D01*
X145330752Y-35396818D01*
X145337794Y-35412765D01*
X145344745Y-35419716D01*
X145358907Y-35437596D01*
X145364081Y-35445952D01*
X145389511Y-35465156D01*
X145394690Y-35469662D01*
X146020504Y-36095475D01*
X146048281Y-36149992D01*
X146049500Y-36165479D01*
X146049500Y-39084521D01*
X146030593Y-39142712D01*
X146020503Y-39154525D01*
X145733591Y-39441436D01*
X145722361Y-39449550D01*
X145723090Y-39450515D01*
X145715771Y-39456041D01*
X145683372Y-39491580D01*
X145681796Y-39493231D01*
X145667830Y-39507198D01*
X145667817Y-39507213D01*
X145665813Y-39510138D01*
X145661561Y-39515504D01*
X145640084Y-39539065D01*
X145640083Y-39539067D01*
X145636529Y-39548240D01*
X145625896Y-39568412D01*
X145620346Y-39576515D01*
X145620342Y-39576524D01*
X145613045Y-39607545D01*
X145611016Y-39614098D01*
X145599500Y-39643824D01*
X145599500Y-39653651D01*
X145596870Y-39676318D01*
X145594621Y-39685879D01*
X145599025Y-39717452D01*
X145599500Y-39724298D01*
X145599500Y-40542799D01*
X145580593Y-40600990D01*
X145531093Y-40636954D01*
X145485013Y-40640580D01*
X145483126Y-40640281D01*
X145350000Y-40619196D01*
X145216872Y-40640281D01*
X145216870Y-40640282D01*
X145096782Y-40701470D01*
X145001470Y-40796782D01*
X144940282Y-40916870D01*
X144940281Y-40916872D01*
X144920713Y-41040417D01*
X144892935Y-41094933D01*
X144838418Y-41122710D01*
X144777987Y-41113139D01*
X144762757Y-41105379D01*
X144733126Y-41090281D01*
X144600000Y-41069196D01*
X144466872Y-41090281D01*
X144466870Y-41090282D01*
X144346782Y-41151470D01*
X144251470Y-41246782D01*
X144190282Y-41366870D01*
X144190281Y-41366871D01*
X144185301Y-41398313D01*
X144157522Y-41452829D01*
X144103005Y-41480606D01*
X144072033Y-41480605D01*
X144000000Y-41469196D01*
X143866872Y-41490281D01*
X143844444Y-41501709D01*
X143784012Y-41511280D01*
X143729496Y-41483502D01*
X143701719Y-41428985D01*
X143700500Y-41413499D01*
X143700500Y-39365168D01*
X143702731Y-39351495D01*
X143701505Y-39351324D01*
X143702773Y-39342232D01*
X143701256Y-39309420D01*
X143700552Y-39294207D01*
X143700500Y-39291928D01*
X143700500Y-39272160D01*
X143700500Y-39272156D01*
X143699846Y-39268664D01*
X143699056Y-39261859D01*
X143697585Y-39230008D01*
X143693614Y-39221016D01*
X143686864Y-39199214D01*
X143685061Y-39189568D01*
X143685061Y-39189567D01*
X143668276Y-39162458D01*
X143665088Y-39156410D01*
X143652206Y-39127234D01*
X143652205Y-39127233D01*
X143652204Y-39127231D01*
X143645254Y-39120281D01*
X143631088Y-39102395D01*
X143625921Y-39094050D01*
X143625918Y-39094047D01*
X143613303Y-39084521D01*
X143600486Y-39074842D01*
X143595313Y-39070340D01*
X143329496Y-38804524D01*
X143301719Y-38750007D01*
X143300500Y-38734520D01*
X143300500Y-36558380D01*
X143319407Y-36500189D01*
X143368907Y-36464225D01*
X143403330Y-36459455D01*
X143450055Y-36461267D01*
X143518724Y-36448371D01*
X143574087Y-36429505D01*
X143625587Y-36403265D01*
X143670164Y-36372550D01*
X143718185Y-36329104D01*
X143732843Y-36314431D01*
X143777490Y-36234614D01*
X143797175Y-36167575D01*
X143805500Y-36109677D01*
X143805500Y-34637657D01*
X143804555Y-34623745D01*
X143804555Y-34623743D01*
X143804556Y-34623746D01*
X143799077Y-34583609D01*
X143788112Y-34553220D01*
X143785698Y-34546531D01*
X143783733Y-34485381D01*
X143808815Y-34442932D01*
X143835990Y-34415757D01*
X143890503Y-34387983D01*
X143950935Y-34397554D01*
X143994199Y-34440818D01*
X144041234Y-34533127D01*
X144051472Y-34553220D01*
X144146780Y-34648528D01*
X144266874Y-34709719D01*
X144400000Y-34730804D01*
X144533126Y-34709719D01*
X144653220Y-34648528D01*
X144748528Y-34553220D01*
X144809719Y-34433126D01*
X144830804Y-34300000D01*
X144826050Y-34269986D01*
X144835621Y-34209556D01*
X144878885Y-34166291D01*
X144923831Y-34155500D01*
X145165498Y-34155500D01*
X145165500Y-34155500D01*
X145179914Y-34153950D01*
X145239793Y-34166526D01*
G37*
%TD.AperFunction*%
%TA.AperFunction,Conductor*%
G36*
X149319504Y-36694475D02*
G01*
X149870504Y-37245475D01*
X149898281Y-37299992D01*
X149899500Y-37315479D01*
X149899500Y-37584520D01*
X149880593Y-37642711D01*
X149870504Y-37654524D01*
X149333590Y-38191437D01*
X149322358Y-38199552D01*
X149323087Y-38200517D01*
X149309160Y-38211034D01*
X149251329Y-38231013D01*
X149192799Y-38213184D01*
X149155927Y-38164357D01*
X149150500Y-38132030D01*
X149150500Y-36764479D01*
X149169407Y-36706288D01*
X149218907Y-36670324D01*
X149280093Y-36670324D01*
X149319504Y-36694475D01*
G37*
%TD.AperFunction*%
%TA.AperFunction,Conductor*%
G36*
X148895445Y-33526268D02*
G01*
X148938710Y-33569533D01*
X148949500Y-33614478D01*
X148949500Y-35435521D01*
X148930593Y-35493712D01*
X148881093Y-35529676D01*
X148819907Y-35529676D01*
X148780496Y-35505525D01*
X148229496Y-34954525D01*
X148201719Y-34900008D01*
X148200500Y-34884521D01*
X148200500Y-34742255D01*
X148219407Y-34684064D01*
X148229490Y-34672257D01*
X148248528Y-34653220D01*
X148309719Y-34533126D01*
X148330804Y-34400000D01*
X148309719Y-34266874D01*
X148263344Y-34175858D01*
X148257441Y-34164272D01*
X148247869Y-34103840D01*
X148275646Y-34049324D01*
X148780497Y-33544473D01*
X148835013Y-33516697D01*
X148895445Y-33526268D01*
G37*
%TD.AperFunction*%
%TA.AperFunction,Conductor*%
G36*
X148186288Y-32690922D02*
G01*
X148189744Y-32691596D01*
X148211809Y-32696728D01*
X148287600Y-32699976D01*
X148287607Y-32699975D01*
X148287608Y-32699975D01*
X148322179Y-32695004D01*
X148356750Y-32690033D01*
X148356750Y-32690034D01*
X148372373Y-32686801D01*
X148380444Y-32685132D01*
X148441259Y-32691859D01*
X148486505Y-32733046D01*
X148499500Y-32782079D01*
X148499500Y-32934520D01*
X148480593Y-32992711D01*
X148470503Y-33004524D01*
X148122617Y-33352409D01*
X148068101Y-33380186D01*
X148007669Y-33370615D01*
X147964404Y-33327350D01*
X147961565Y-33320495D01*
X147898529Y-33196782D01*
X147898528Y-33196780D01*
X147844448Y-33142700D01*
X147816673Y-33088186D01*
X147826244Y-33027754D01*
X147829309Y-33022314D01*
X147829632Y-33021631D01*
X147829636Y-33021627D01*
X147859565Y-32958492D01*
X147876843Y-32902611D01*
X147885704Y-32846659D01*
X147895275Y-32817201D01*
X147912679Y-32783042D01*
X147930881Y-32757988D01*
X147957988Y-32730881D01*
X147983041Y-32712680D01*
X148017201Y-32695274D01*
X148046653Y-32685704D01*
X148084517Y-32679708D01*
X148115480Y-32679708D01*
X148186288Y-32690922D01*
G37*
%TD.AperFunction*%
%TA.AperFunction,Conductor*%
G36*
X142853346Y-31585705D02*
G01*
X142882796Y-31595274D01*
X142899876Y-31603976D01*
X142916953Y-31612678D01*
X142942011Y-31630883D01*
X142969112Y-31657984D01*
X142987318Y-31683044D01*
X143004721Y-31717200D01*
X143014292Y-31746653D01*
X143020289Y-31784512D01*
X143020289Y-31815485D01*
X143014293Y-31853342D01*
X143004721Y-31882800D01*
X142987319Y-31916953D01*
X142969114Y-31942012D01*
X142942012Y-31969114D01*
X142916953Y-31987319D01*
X142882800Y-32004721D01*
X142853342Y-32014293D01*
X142815485Y-32020289D01*
X142784512Y-32020289D01*
X142746659Y-32014294D01*
X142717199Y-32004722D01*
X142683043Y-31987318D01*
X142657987Y-31969114D01*
X142630888Y-31942016D01*
X142612680Y-31916955D01*
X142610615Y-31912903D01*
X142604513Y-31900927D01*
X142595277Y-31882799D01*
X142585706Y-31853344D01*
X142584868Y-31848051D01*
X142579709Y-31815479D01*
X142579709Y-31784515D01*
X142585704Y-31746655D01*
X142595275Y-31717201D01*
X142602310Y-31703394D01*
X142612679Y-31683042D01*
X142630881Y-31657988D01*
X142657988Y-31630881D01*
X142683039Y-31612681D01*
X142717205Y-31595272D01*
X142746649Y-31585705D01*
X142784521Y-31579708D01*
X142815475Y-31579708D01*
X142853346Y-31585705D01*
G37*
%TD.AperFunction*%
%TA.AperFunction,Conductor*%
G36*
X146786939Y-27591025D02*
G01*
X146790343Y-27591689D01*
X146811306Y-27596565D01*
X146887100Y-27599814D01*
X146887112Y-27599812D01*
X146891698Y-27599584D01*
X146891760Y-27600844D01*
X146946681Y-27610336D01*
X146989333Y-27654204D01*
X146999500Y-27697905D01*
X146999500Y-28264110D01*
X146980593Y-28322301D01*
X146931093Y-28358265D01*
X146869907Y-28358265D01*
X146823972Y-28326915D01*
X146710887Y-28189121D01*
X146710878Y-28189112D01*
X146558537Y-28064089D01*
X146558531Y-28064085D01*
X146493420Y-28029283D01*
X146451013Y-27985178D01*
X146442630Y-27924570D01*
X146450632Y-27899565D01*
X146454278Y-27891874D01*
X146471556Y-27835993D01*
X146485704Y-27746657D01*
X146495275Y-27717201D01*
X146512679Y-27683042D01*
X146530881Y-27657988D01*
X146557988Y-27630881D01*
X146583039Y-27612681D01*
X146617205Y-27595272D01*
X146646649Y-27585705D01*
X146684521Y-27579708D01*
X146715475Y-27579708D01*
X146786939Y-27591025D01*
G37*
%TD.AperFunction*%
%TA.AperFunction,Conductor*%
G36*
X145166936Y-20269407D02*
G01*
X145202900Y-20318907D01*
X145202900Y-20380093D01*
X145178750Y-20419501D01*
X145137236Y-20461016D01*
X145101470Y-20496782D01*
X145040282Y-20616870D01*
X145040281Y-20616872D01*
X145019196Y-20749999D01*
X145019196Y-20750000D01*
X145040281Y-20883127D01*
X145040282Y-20883129D01*
X145085224Y-20971332D01*
X145101472Y-21003220D01*
X145196780Y-21098528D01*
X145213979Y-21107291D01*
X145257243Y-21150555D01*
X145266814Y-21210987D01*
X145239036Y-21265504D01*
X145184520Y-21293281D01*
X145169033Y-21294500D01*
X143886256Y-21294500D01*
X143844284Y-21298834D01*
X143844264Y-21298837D01*
X143794662Y-21309192D01*
X143786130Y-21311164D01*
X143704712Y-21352809D01*
X143704707Y-21352813D01*
X143651148Y-21397670D01*
X143651147Y-21397670D01*
X143632897Y-21414959D01*
X143632895Y-21414961D01*
X143586915Y-21494016D01*
X143566108Y-21560712D01*
X143560102Y-21585125D01*
X143560101Y-21585133D01*
X143564159Y-21676481D01*
X143564161Y-21676494D01*
X143571475Y-21703044D01*
X143571473Y-21703081D01*
X143582295Y-21742319D01*
X143582361Y-21742558D01*
X143582360Y-21742559D01*
X143582732Y-21743908D01*
X143582733Y-21743911D01*
X143587753Y-21762139D01*
X143587726Y-21763106D01*
X143589006Y-21764457D01*
X143595806Y-21778114D01*
X143614737Y-21816149D01*
X143614777Y-21816214D01*
X143680867Y-21948941D01*
X143687467Y-21965976D01*
X143730379Y-22116791D01*
X143733736Y-22134749D01*
X143744789Y-22254025D01*
X143745000Y-22258595D01*
X143745000Y-23941403D01*
X143744789Y-23945973D01*
X143733736Y-24065249D01*
X143730378Y-24083208D01*
X143687467Y-24234019D01*
X143680869Y-24251052D01*
X143610988Y-24391395D01*
X143601369Y-24406929D01*
X143506882Y-24532048D01*
X143494575Y-24545548D01*
X143378707Y-24651177D01*
X143364128Y-24662187D01*
X143230830Y-24744722D01*
X143214475Y-24752866D01*
X143068272Y-24809504D01*
X143050702Y-24814503D01*
X142896586Y-24843314D01*
X142878394Y-24845000D01*
X142721606Y-24845000D01*
X142703415Y-24843314D01*
X142676819Y-24838342D01*
X142531838Y-24811240D01*
X142527390Y-24810195D01*
X142513951Y-24806372D01*
X142513942Y-24806370D01*
X142469163Y-24797999D01*
X142431400Y-24794500D01*
X142431398Y-24794500D01*
X142129804Y-24794500D01*
X142071613Y-24775593D01*
X142035649Y-24726093D01*
X142032717Y-24707584D01*
X142032023Y-24707695D01*
X142023071Y-24651177D01*
X142009719Y-24566874D01*
X141948528Y-24446780D01*
X141853220Y-24351472D01*
X141853217Y-24351470D01*
X141733129Y-24290282D01*
X141733127Y-24290281D01*
X141600000Y-24269196D01*
X141466874Y-24290281D01*
X141466873Y-24290281D01*
X141464987Y-24290580D01*
X141404555Y-24281009D01*
X141361290Y-24237744D01*
X141350500Y-24192799D01*
X141350500Y-20349500D01*
X141369407Y-20291309D01*
X141418907Y-20255345D01*
X141449500Y-20250500D01*
X145108745Y-20250500D01*
X145166936Y-20269407D01*
G37*
%TD.AperFunction*%
%TD*%
%TA.AperFunction,Conductor*%
%TO.N,Board_0-Net-(U1-RUN)*%
G36*
X147892539Y-22019685D02*
G01*
X147938294Y-22072489D01*
X147949500Y-22124000D01*
X147949500Y-28974166D01*
X147929815Y-29041205D01*
X147913181Y-29061847D01*
X147812181Y-29162847D01*
X147750858Y-29196332D01*
X147681166Y-29191348D01*
X147625233Y-29149476D01*
X147600816Y-29084012D01*
X147600500Y-29075166D01*
X147600500Y-26662839D01*
X147601095Y-26654263D01*
X147602771Y-26642240D01*
X147602773Y-26642236D01*
X147600566Y-26594491D01*
X147600500Y-26591628D01*
X147600500Y-26572159D01*
X147600499Y-26572153D01*
X147600009Y-26569533D01*
X147599016Y-26560980D01*
X147597585Y-26530009D01*
X147594788Y-26523676D01*
X147586332Y-26496370D01*
X147585061Y-26489567D01*
X147568738Y-26463205D01*
X147564731Y-26455602D01*
X147552207Y-26427237D01*
X147552206Y-26427236D01*
X147552206Y-26427235D01*
X147547309Y-26422338D01*
X147529563Y-26399934D01*
X147525918Y-26394047D01*
X147501172Y-26375360D01*
X147494694Y-26369723D01*
X146460391Y-25335420D01*
X146426906Y-25274097D01*
X146425599Y-25267136D01*
X146409720Y-25166878D01*
X146409719Y-25166876D01*
X146409719Y-25166874D01*
X146348528Y-25046780D01*
X146348526Y-25046778D01*
X146348523Y-25046774D01*
X146253225Y-24951476D01*
X146253221Y-24951473D01*
X146253220Y-24951472D01*
X146133126Y-24890281D01*
X146133124Y-24890280D01*
X146133121Y-24890279D01*
X146000002Y-24869196D01*
X145999998Y-24869196D01*
X145866878Y-24890279D01*
X145746778Y-24951473D01*
X145746774Y-24951476D01*
X145651476Y-25046774D01*
X145651473Y-25046778D01*
X145590279Y-25166878D01*
X145569196Y-25299997D01*
X145569196Y-25300002D01*
X145590279Y-25433121D01*
X145590280Y-25433124D01*
X145590281Y-25433126D01*
X145651472Y-25553220D01*
X145651473Y-25553221D01*
X145651476Y-25553225D01*
X145746774Y-25648523D01*
X145746778Y-25648526D01*
X145746780Y-25648528D01*
X145866874Y-25709719D01*
X145866876Y-25709719D01*
X145866878Y-25709720D01*
X145967136Y-25725599D01*
X146030271Y-25755528D01*
X146035420Y-25760391D01*
X146963181Y-26688152D01*
X146996666Y-26749475D01*
X146999500Y-26775833D01*
X146999500Y-27273668D01*
X146979815Y-27340707D01*
X146927011Y-27386462D01*
X146857853Y-27396406D01*
X146837178Y-27391598D01*
X146833120Y-27390279D01*
X146700002Y-27369196D01*
X146699998Y-27369196D01*
X146566878Y-27390279D01*
X146446778Y-27451473D01*
X146446774Y-27451476D01*
X146351476Y-27546774D01*
X146351473Y-27546778D01*
X146290279Y-27666878D01*
X146268586Y-27803847D01*
X146238657Y-27866982D01*
X146179345Y-27903913D01*
X146133960Y-27907852D01*
X146000001Y-27894659D01*
X146000000Y-27894659D01*
X145803870Y-27913975D01*
X145615266Y-27971188D01*
X145441467Y-28064086D01*
X145441460Y-28064090D01*
X145289116Y-28189116D01*
X145164090Y-28341460D01*
X145164086Y-28341467D01*
X145071188Y-28515266D01*
X145013975Y-28703870D01*
X144994659Y-28900000D01*
X145013975Y-29096129D01*
X145071188Y-29284733D01*
X145164086Y-29458532D01*
X145164090Y-29458539D01*
X145289116Y-29610883D01*
X145441460Y-29735909D01*
X145441467Y-29735913D01*
X145615266Y-29828811D01*
X145615269Y-29828811D01*
X145615273Y-29828814D01*
X145803868Y-29886024D01*
X146000000Y-29905341D01*
X146196132Y-29886024D01*
X146384727Y-29828814D01*
X146558538Y-29735910D01*
X146710883Y-29610883D01*
X146779646Y-29527094D01*
X146837392Y-29487760D01*
X146907237Y-29485889D01*
X146967005Y-29522076D01*
X146997721Y-29584832D01*
X146999500Y-29605759D01*
X146999500Y-30024166D01*
X146979815Y-30091205D01*
X146963181Y-30111847D01*
X145831948Y-31243080D01*
X145825464Y-31248722D01*
X145815768Y-31256044D01*
X145783559Y-31291374D01*
X145781585Y-31293442D01*
X145767827Y-31307200D01*
X145767822Y-31307206D01*
X145766306Y-31309420D01*
X145760976Y-31316148D01*
X145740083Y-31339066D01*
X145740083Y-31339067D01*
X145737578Y-31345533D01*
X145724259Y-31370802D01*
X145720345Y-31376515D01*
X145720343Y-31376521D01*
X145713244Y-31406699D01*
X145710702Y-31414907D01*
X145699500Y-31443826D01*
X145699500Y-31450751D01*
X145696206Y-31479141D01*
X145694621Y-31485877D01*
X145694621Y-31485881D01*
X145698905Y-31516590D01*
X145699500Y-31525166D01*
X145699500Y-32824166D01*
X145679815Y-32891205D01*
X145663181Y-32911847D01*
X145421947Y-33153080D01*
X145415464Y-33158722D01*
X145405768Y-33166044D01*
X145373559Y-33201374D01*
X145371585Y-33203442D01*
X145357827Y-33217200D01*
X145357822Y-33217206D01*
X145356306Y-33219420D01*
X145350976Y-33226148D01*
X145330083Y-33249066D01*
X145330083Y-33249067D01*
X145327578Y-33255533D01*
X145314259Y-33280802D01*
X145310345Y-33286515D01*
X145310343Y-33286521D01*
X145303244Y-33316699D01*
X145300702Y-33324907D01*
X145289500Y-33353826D01*
X145289500Y-33360751D01*
X145286206Y-33389141D01*
X145284621Y-33395877D01*
X145284621Y-33395881D01*
X145288905Y-33426590D01*
X145289500Y-33435166D01*
X145289500Y-33826000D01*
X145269815Y-33893039D01*
X145217011Y-33938794D01*
X145165500Y-33950000D01*
X144724000Y-33950000D01*
X144656961Y-33930315D01*
X144611206Y-33877511D01*
X144600000Y-33826000D01*
X144600000Y-24917754D01*
X144619685Y-24850715D01*
X144636319Y-24830073D01*
X144705484Y-24760908D01*
X144728050Y-24738342D01*
X144738109Y-24718597D01*
X144748271Y-24702014D01*
X144761296Y-24684090D01*
X144768141Y-24663022D01*
X144775586Y-24645045D01*
X144785646Y-24625304D01*
X144789112Y-24603415D01*
X144793652Y-24584501D01*
X144800499Y-24563433D01*
X144800499Y-24534076D01*
X144800500Y-24534051D01*
X144800500Y-23100003D01*
X145394435Y-23100003D01*
X145414630Y-23279249D01*
X145414631Y-23279254D01*
X145474211Y-23449523D01*
X145570184Y-23602262D01*
X145697738Y-23729816D01*
X145850478Y-23825789D01*
X146020745Y-23885368D01*
X146020750Y-23885369D01*
X146111246Y-23895565D01*
X146155040Y-23900499D01*
X146155043Y-23900500D01*
X146155046Y-23900500D01*
X146244957Y-23900500D01*
X146244958Y-23900499D01*
X146312104Y-23892934D01*
X146379249Y-23885369D01*
X146379252Y-23885368D01*
X146379255Y-23885368D01*
X146549522Y-23825789D01*
X146702262Y-23729816D01*
X146829816Y-23602262D01*
X146925789Y-23449522D01*
X146985368Y-23279255D01*
X147005565Y-23100000D01*
X146985368Y-22920745D01*
X146925789Y-22750478D01*
X146829816Y-22597738D01*
X146702262Y-22470184D01*
X146652778Y-22439091D01*
X146549523Y-22374211D01*
X146379254Y-22314631D01*
X146379249Y-22314630D01*
X146244960Y-22299500D01*
X146244954Y-22299500D01*
X146155046Y-22299500D01*
X146155039Y-22299500D01*
X146020750Y-22314630D01*
X146020745Y-22314631D01*
X145850476Y-22374211D01*
X145697737Y-22470184D01*
X145570184Y-22597737D01*
X145474211Y-22750476D01*
X145414631Y-22920745D01*
X145414630Y-22920750D01*
X145394435Y-23099996D01*
X145394435Y-23100003D01*
X144800500Y-23100003D01*
X144800500Y-22917253D01*
X144820185Y-22850214D01*
X144836815Y-22829576D01*
X145467248Y-22199142D01*
X145498631Y-22176341D01*
X145553220Y-22148528D01*
X145648528Y-22053220D01*
X145648529Y-22053217D01*
X145650057Y-22051116D01*
X145652569Y-22049178D01*
X145655429Y-22046319D01*
X145655798Y-22046688D01*
X145705387Y-22008449D01*
X145750376Y-22000000D01*
X147825500Y-22000000D01*
X147892539Y-22019685D01*
G37*
%TD.AperFunction*%
%TD*%
%TA.AperFunction,Conductor*%
%TO.N,Board_0-VBUS*%
G36*
X141376189Y-38312216D02*
G01*
X141412359Y-38337330D01*
X142277421Y-39202392D01*
X142310906Y-39263715D01*
X142305922Y-39333407D01*
X142264050Y-39389340D01*
X142209138Y-39412546D01*
X142191878Y-39415279D01*
X142071778Y-39476473D01*
X142071774Y-39476476D01*
X141976476Y-39571774D01*
X141976473Y-39571778D01*
X141915279Y-39691878D01*
X141894196Y-39824997D01*
X141894196Y-39825002D01*
X141915279Y-39958121D01*
X141915280Y-39958124D01*
X141915281Y-39958126D01*
X141976472Y-40078220D01*
X141976473Y-40078221D01*
X141976476Y-40078225D01*
X142071774Y-40173523D01*
X142071778Y-40173526D01*
X142071780Y-40173528D01*
X142191874Y-40234719D01*
X142191876Y-40234719D01*
X142191878Y-40234720D01*
X142218066Y-40238868D01*
X142281201Y-40268797D01*
X142318133Y-40328108D01*
X142317135Y-40397970D01*
X142278526Y-40456203D01*
X142254964Y-40471826D01*
X142196779Y-40501472D01*
X142196774Y-40501476D01*
X142101476Y-40596774D01*
X142101473Y-40596778D01*
X142040279Y-40716878D01*
X142019196Y-40849997D01*
X142019196Y-40850002D01*
X142040279Y-40983121D01*
X142040280Y-40983124D01*
X142040281Y-40983126D01*
X142101472Y-41103220D01*
X142101473Y-41103221D01*
X142101476Y-41103225D01*
X142196774Y-41198523D01*
X142196778Y-41198526D01*
X142196780Y-41198528D01*
X142316874Y-41259719D01*
X142316876Y-41259719D01*
X142316878Y-41259720D01*
X142449998Y-41280804D01*
X142450000Y-41280804D01*
X142450002Y-41280804D01*
X142519988Y-41269718D01*
X142556102Y-41263999D01*
X142625395Y-41272953D01*
X142678847Y-41317949D01*
X142699487Y-41384701D01*
X142699500Y-41386472D01*
X142699500Y-41876000D01*
X142679815Y-41943039D01*
X142627011Y-41988794D01*
X142575500Y-42000000D01*
X141472224Y-42000000D01*
X141405185Y-41980315D01*
X141359430Y-41927511D01*
X141349156Y-41891177D01*
X141347868Y-41880733D01*
X141349551Y-41880525D01*
X141348894Y-41868521D01*
X141346969Y-41868569D01*
X141346819Y-41862483D01*
X141346820Y-41862473D01*
X141344733Y-41845558D01*
X141344441Y-41842578D01*
X141343190Y-41825617D01*
X141343190Y-41825612D01*
X141343187Y-41825603D01*
X141342148Y-41819609D01*
X141344727Y-41819161D01*
X141343471Y-41807302D01*
X141340656Y-41807510D01*
X141340207Y-41801423D01*
X141337298Y-41784662D01*
X141336852Y-41781649D01*
X141334772Y-41764786D01*
X141333436Y-41758836D01*
X141335013Y-41758481D01*
X141332980Y-41746612D01*
X141331351Y-41746814D01*
X141330605Y-41740776D01*
X141330605Y-41740765D01*
X141326876Y-41724163D01*
X141326284Y-41721186D01*
X141323379Y-41704437D01*
X141321755Y-41698568D01*
X141322709Y-41698303D01*
X141320129Y-41686479D01*
X141319080Y-41686661D01*
X141318038Y-41680662D01*
X141318038Y-41680653D01*
X141313496Y-41664241D01*
X141312763Y-41661315D01*
X141309038Y-41644726D01*
X141309036Y-41644722D01*
X141307129Y-41638948D01*
X141308514Y-41638490D01*
X141305377Y-41626844D01*
X141303873Y-41627182D01*
X141302538Y-41621238D01*
X141302537Y-41621236D01*
X141302537Y-41621233D01*
X141297200Y-41605080D01*
X141296320Y-41602178D01*
X141291785Y-41585788D01*
X141291783Y-41585784D01*
X141289594Y-41580108D01*
X141291432Y-41579398D01*
X141287962Y-41567909D01*
X141285764Y-41568518D01*
X141284139Y-41562648D01*
X141284138Y-41562642D01*
X141278015Y-41546769D01*
X141277000Y-41543933D01*
X141271661Y-41527771D01*
X141271656Y-41527763D01*
X141269190Y-41522196D01*
X141270372Y-41521671D01*
X141266182Y-41510363D01*
X141264801Y-41510820D01*
X141262888Y-41505030D01*
X141262887Y-41505029D01*
X141262887Y-41505026D01*
X141255991Y-41489469D01*
X141254840Y-41486689D01*
X141253826Y-41484062D01*
X141248713Y-41470806D01*
X141248711Y-41470803D01*
X141248710Y-41470800D01*
X141245974Y-41465363D01*
X141247801Y-41464443D01*
X141243029Y-41453446D01*
X141241032Y-41454217D01*
X141238837Y-41448529D01*
X141238836Y-41448524D01*
X141238833Y-41448518D01*
X141237466Y-41444975D01*
X141237020Y-41439594D01*
X141235676Y-41436496D01*
X141235672Y-41436478D01*
X141236742Y-41436240D01*
X141231698Y-41375343D01*
X141264491Y-41313647D01*
X141271931Y-41306642D01*
X141282143Y-41297794D01*
X141359953Y-41176719D01*
X141400500Y-41038627D01*
X141400500Y-40894705D01*
X141359953Y-40756613D01*
X141282143Y-40635538D01*
X141195403Y-40560378D01*
X141157629Y-40501602D01*
X141157629Y-40431732D01*
X141195403Y-40372954D01*
X141195404Y-40372953D01*
X141282143Y-40297794D01*
X141359953Y-40176719D01*
X141360892Y-40173523D01*
X141388874Y-40078221D01*
X141400500Y-40038627D01*
X141400500Y-39894705D01*
X141359953Y-39756613D01*
X141282143Y-39635538D01*
X141195403Y-39560378D01*
X141157629Y-39501602D01*
X141157629Y-39431732D01*
X141195403Y-39372954D01*
X141195404Y-39372953D01*
X141223029Y-39349016D01*
X141282143Y-39297794D01*
X141359953Y-39176719D01*
X141400500Y-39038627D01*
X141400500Y-38894705D01*
X141391417Y-38863773D01*
X141359954Y-38756615D01*
X141359953Y-38756613D01*
X141282143Y-38635538D01*
X141269981Y-38625000D01*
X141195404Y-38560379D01*
X141157629Y-38501602D01*
X141157629Y-38431732D01*
X141195403Y-38372954D01*
X141243479Y-38331296D01*
X141307030Y-38302273D01*
X141376189Y-38312216D01*
G37*
%TD.AperFunction*%
%TA.AperFunction,Conductor*%
G36*
X145543039Y-21519685D02*
G01*
X145588794Y-21572489D01*
X145600000Y-21624000D01*
X145600000Y-21769236D01*
X145580315Y-21836275D01*
X145551745Y-21867413D01*
X145532728Y-21882085D01*
X145526684Y-21884439D01*
X145519426Y-21891698D01*
X145513442Y-21896958D01*
X145508938Y-21900430D01*
X145508066Y-21902416D01*
X145500881Y-21910242D01*
X145471048Y-21940064D01*
X145470970Y-21940154D01*
X145444813Y-21966312D01*
X145413428Y-21989115D01*
X145405346Y-21993233D01*
X145405344Y-21993234D01*
X145405340Y-21993237D01*
X145393681Y-22000381D01*
X145377840Y-22010088D01*
X145377841Y-22010088D01*
X145346458Y-22032889D01*
X145346456Y-22032891D01*
X145346455Y-22032891D01*
X145332668Y-22044666D01*
X145321937Y-22053832D01*
X145321934Y-22053834D01*
X145321934Y-22053835D01*
X144687622Y-22688147D01*
X144687621Y-22688148D01*
X144687612Y-22688158D01*
X144680989Y-22695530D01*
X144680253Y-22696351D01*
X144660166Y-22721279D01*
X144623009Y-22792316D01*
X144603326Y-22859347D01*
X144595000Y-22917256D01*
X144595000Y-23100003D01*
X144594999Y-24516984D01*
X144591573Y-24545931D01*
X144590218Y-24551575D01*
X144584209Y-24570070D01*
X144579817Y-24580676D01*
X144570977Y-24598028D01*
X144567936Y-24602990D01*
X144549894Y-24625876D01*
X144487124Y-24688648D01*
X144487121Y-24688651D01*
X144479763Y-24696840D01*
X144479764Y-24696838D01*
X144459674Y-24721768D01*
X144422509Y-24792816D01*
X144402826Y-24859848D01*
X144394500Y-24917757D01*
X144394500Y-26421108D01*
X144374815Y-26488147D01*
X144322011Y-26533902D01*
X144252853Y-26543846D01*
X144214206Y-26531593D01*
X144133123Y-26490279D01*
X144000002Y-26469196D01*
X143999998Y-26469196D01*
X143866876Y-26490279D01*
X143765071Y-26542152D01*
X143696402Y-26555048D01*
X143631662Y-26528771D01*
X143621104Y-26519356D01*
X143553220Y-26451472D01*
X143433126Y-26390281D01*
X143433124Y-26390280D01*
X143433121Y-26390279D01*
X143300002Y-26369196D01*
X143299998Y-26369196D01*
X143166878Y-26390279D01*
X143046778Y-26451473D01*
X143046774Y-26451476D01*
X142951476Y-26546774D01*
X142951473Y-26546778D01*
X142890279Y-26666878D01*
X142869196Y-26799997D01*
X142869196Y-26800002D01*
X142890279Y-26933121D01*
X142890280Y-26933124D01*
X142890281Y-26933126D01*
X142951472Y-27053220D01*
X142963180Y-27064928D01*
X142996666Y-27126249D01*
X142999500Y-27152610D01*
X142999500Y-27237158D01*
X142998905Y-27245732D01*
X142997227Y-27257763D01*
X142999434Y-27305509D01*
X142999500Y-27308372D01*
X142999500Y-27327845D01*
X142999993Y-27330482D01*
X143000982Y-27339015D01*
X143002415Y-27369991D01*
X143002416Y-27369997D01*
X143005214Y-27376334D01*
X143013664Y-27403620D01*
X143014937Y-27410429D01*
X143014937Y-27410430D01*
X143031260Y-27436793D01*
X143035263Y-27444386D01*
X143047794Y-27472765D01*
X143047795Y-27472766D01*
X143047796Y-27472768D01*
X143052689Y-27477661D01*
X143070435Y-27500065D01*
X143074077Y-27505948D01*
X143074080Y-27505951D01*
X143098826Y-27524639D01*
X143105311Y-27530282D01*
X143663181Y-28088152D01*
X143696666Y-28149475D01*
X143699500Y-28175833D01*
X143699500Y-32524166D01*
X143679815Y-32591205D01*
X143663181Y-32611847D01*
X142831948Y-33443080D01*
X142825464Y-33448722D01*
X142815768Y-33456044D01*
X142783559Y-33491374D01*
X142781585Y-33493442D01*
X142767827Y-33507200D01*
X142767822Y-33507206D01*
X142766306Y-33509420D01*
X142760976Y-33516148D01*
X142740083Y-33539066D01*
X142740083Y-33539067D01*
X142737578Y-33545533D01*
X142724259Y-33570802D01*
X142720345Y-33576515D01*
X142720343Y-33576521D01*
X142713244Y-33606699D01*
X142710702Y-33614907D01*
X142699500Y-33643826D01*
X142699500Y-33650751D01*
X142696206Y-33679141D01*
X142694621Y-33685877D01*
X142694621Y-33685881D01*
X142698905Y-33716590D01*
X142699500Y-33725166D01*
X142699500Y-38475166D01*
X142679815Y-38542205D01*
X142627011Y-38587960D01*
X142557853Y-38597904D01*
X142494297Y-38568879D01*
X142487819Y-38562847D01*
X141836819Y-37911847D01*
X141803334Y-37850524D01*
X141800500Y-37824166D01*
X141800500Y-31800002D01*
X142369196Y-31800002D01*
X142390279Y-31933121D01*
X142390280Y-31933124D01*
X142390281Y-31933126D01*
X142432401Y-32015791D01*
X142451473Y-32053221D01*
X142451476Y-32053225D01*
X142546774Y-32148523D01*
X142546778Y-32148526D01*
X142546780Y-32148528D01*
X142666874Y-32209719D01*
X142666876Y-32209719D01*
X142666878Y-32209720D01*
X142799998Y-32230804D01*
X142800000Y-32230804D01*
X142800002Y-32230804D01*
X142933121Y-32209720D01*
X142933121Y-32209719D01*
X142933126Y-32209719D01*
X143053220Y-32148528D01*
X143148528Y-32053220D01*
X143209719Y-31933126D01*
X143230804Y-31800000D01*
X143228728Y-31786895D01*
X143209720Y-31666878D01*
X143209719Y-31666876D01*
X143209719Y-31666874D01*
X143148528Y-31546780D01*
X143148526Y-31546778D01*
X143148523Y-31546774D01*
X143053225Y-31451476D01*
X143053221Y-31451473D01*
X143053220Y-31451472D01*
X142933126Y-31390281D01*
X142933124Y-31390280D01*
X142933121Y-31390279D01*
X142800002Y-31369196D01*
X142799998Y-31369196D01*
X142666878Y-31390279D01*
X142546778Y-31451473D01*
X142546774Y-31451476D01*
X142451476Y-31546774D01*
X142451473Y-31546778D01*
X142390279Y-31666878D01*
X142369196Y-31799997D01*
X142369196Y-31800002D01*
X141800500Y-31800002D01*
X141800500Y-29931721D01*
X141820185Y-29864682D01*
X141872989Y-29818927D01*
X141942147Y-29808983D01*
X141943898Y-29809248D01*
X142079998Y-29830804D01*
X142080000Y-29830804D01*
X142080002Y-29830804D01*
X142213121Y-29809720D01*
X142213121Y-29809719D01*
X142213126Y-29809719D01*
X142333220Y-29748528D01*
X142428528Y-29653220D01*
X142489719Y-29533126D01*
X142510804Y-29400000D01*
X142505999Y-29369665D01*
X142489720Y-29266878D01*
X142489719Y-29266876D01*
X142489719Y-29266874D01*
X142428528Y-29146780D01*
X142428526Y-29146778D01*
X142428523Y-29146774D01*
X142333225Y-29051476D01*
X142333221Y-29051473D01*
X142333220Y-29051472D01*
X142213126Y-28990281D01*
X142213124Y-28990280D01*
X142213121Y-28990279D01*
X142080002Y-28969196D01*
X142079996Y-28969196D01*
X141943897Y-28990751D01*
X141874604Y-28981796D01*
X141821152Y-28936799D01*
X141800513Y-28870048D01*
X141800500Y-28868278D01*
X141800500Y-25150012D01*
X141820185Y-25082973D01*
X141851621Y-25049689D01*
X141853213Y-25048531D01*
X141853220Y-25048528D01*
X141853225Y-25048523D01*
X141865430Y-25036319D01*
X141926753Y-25002834D01*
X141953111Y-25000000D01*
X142431398Y-25000000D01*
X142476191Y-25008373D01*
X142483796Y-25011319D01*
X142483797Y-25011319D01*
X142483802Y-25011321D01*
X142693390Y-25050500D01*
X142693392Y-25050500D01*
X142906608Y-25050500D01*
X142906610Y-25050500D01*
X143116198Y-25011321D01*
X143315019Y-24934298D01*
X143496302Y-24822052D01*
X143653872Y-24678407D01*
X143782366Y-24508255D01*
X143877405Y-24317389D01*
X143935756Y-24112310D01*
X143950500Y-23953194D01*
X143950500Y-22246806D01*
X143935756Y-22087690D01*
X143877405Y-21882611D01*
X143877403Y-21882606D01*
X143877403Y-21882605D01*
X143782370Y-21691752D01*
X143780838Y-21689278D01*
X143780466Y-21687929D01*
X143779811Y-21686613D01*
X143780068Y-21686484D01*
X143762282Y-21621917D01*
X143783090Y-21555218D01*
X143836655Y-21510356D01*
X143886265Y-21500000D01*
X145476000Y-21500000D01*
X145543039Y-21519685D01*
G37*
%TD.AperFunction*%
%TD*%
M02*
