%TF.GenerationSoftware,KiCad,Pcbnew,7.0.9*%
%TF.CreationDate,2024-04-04T21:50:02+13:00*%
%TF.ProjectId,panel,70616e65-6c2e-46b6-9963-61645f706362,rev?*%
%TF.SameCoordinates,Original*%
%TF.FileFunction,Copper,L4,Bot*%
%TF.FilePolarity,Positive*%
%FSLAX46Y46*%
G04 Gerber Fmt 4.6, Leading zero omitted, Abs format (unit mm)*
G04 Created by KiCad (PCBNEW 7.0.9) date 2024-04-04 21:50:02*
%MOMM*%
%LPD*%
G01*
G04 APERTURE LIST*
G04 Aperture macros list*
%AMRoundRect*
0 Rectangle with rounded corners*
0 $1 Rounding radius*
0 $2 $3 $4 $5 $6 $7 $8 $9 X,Y pos of 4 corners*
0 Add a 4 corners polygon primitive as box body*
4,1,4,$2,$3,$4,$5,$6,$7,$8,$9,$2,$3,0*
0 Add four circle primitives for the rounded corners*
1,1,$1+$1,$2,$3*
1,1,$1+$1,$4,$5*
1,1,$1+$1,$6,$7*
1,1,$1+$1,$8,$9*
0 Add four rect primitives between the rounded corners*
20,1,$1+$1,$2,$3,$4,$5,0*
20,1,$1+$1,$4,$5,$6,$7,0*
20,1,$1+$1,$6,$7,$8,$9,0*
20,1,$1+$1,$8,$9,$2,$3,0*%
%AMOutline4P*
0 Free polygon, 4 corners , with rotation*
0 The origin of the aperture is its center*
0 number of corners: always 4*
0 $1 to $8 corner X, Y*
0 $9 Rotation angle, in degrees counterclockwise*
0 create outline with 4 corners*
4,1,4,$1,$2,$3,$4,$5,$6,$7,$8,$1,$2,$9*%
G04 Aperture macros list end*
%TA.AperFunction,SMDPad,CuDef*%
%ADD10RoundRect,0.140000X-0.140000X-0.170000X0.140000X-0.170000X0.140000X0.170000X-0.140000X0.170000X0*%
%TD*%
%TA.AperFunction,SMDPad,CuDef*%
%ADD11Outline4P,-0.175000X-0.325000X0.175000X-0.325000X0.175000X0.325000X-0.175000X0.325000X270.000000*%
%TD*%
%TA.AperFunction,SMDPad,CuDef*%
%ADD12R,1.600000X0.300000*%
%TD*%
%TA.AperFunction,SMDPad,CuDef*%
%ADD13R,1.600000X1.450000*%
%TD*%
%TA.AperFunction,SMDPad,CuDef*%
%ADD14Outline4P,-0.175000X-0.800000X0.175000X-0.800000X0.175000X0.800000X-0.175000X0.800000X270.000000*%
%TD*%
%TA.AperFunction,SMDPad,CuDef*%
%ADD15Outline4P,-0.325000X-0.325000X0.325000X-0.325000X0.325000X0.325000X-0.325000X0.325000X270.000000*%
%TD*%
%TA.AperFunction,SMDPad,CuDef*%
%ADD16RoundRect,0.135000X0.185000X-0.135000X0.185000X0.135000X-0.185000X0.135000X-0.185000X-0.135000X0*%
%TD*%
%TA.AperFunction,SMDPad,CuDef*%
%ADD17R,1.100000X2.500000*%
%TD*%
%TA.AperFunction,ComponentPad*%
%ADD18O,1.900000X3.500000*%
%TD*%
%TA.AperFunction,SMDPad,CuDef*%
%ADD19RoundRect,0.140000X-0.170000X0.140000X-0.170000X-0.140000X0.170000X-0.140000X0.170000X0.140000X0*%
%TD*%
%TA.AperFunction,SMDPad,CuDef*%
%ADD20R,0.500000X0.300000*%
%TD*%
%TA.AperFunction,SMDPad,CuDef*%
%ADD21RoundRect,0.135000X0.135000X0.185000X-0.135000X0.185000X-0.135000X-0.185000X0.135000X-0.185000X0*%
%TD*%
%TA.AperFunction,SMDPad,CuDef*%
%ADD22RoundRect,0.150000X0.200000X-0.150000X0.200000X0.150000X-0.200000X0.150000X-0.200000X-0.150000X0*%
%TD*%
%TA.AperFunction,SMDPad,CuDef*%
%ADD23R,1.000000X1.150000*%
%TD*%
%TA.AperFunction,SMDPad,CuDef*%
%ADD24RoundRect,0.135000X-0.185000X0.135000X-0.185000X-0.135000X0.185000X-0.135000X0.185000X0.135000X0*%
%TD*%
%TA.AperFunction,SMDPad,CuDef*%
%ADD25RoundRect,0.135000X-0.135000X-0.185000X0.135000X-0.185000X0.135000X0.185000X-0.135000X0.185000X0*%
%TD*%
%TA.AperFunction,SMDPad,CuDef*%
%ADD26RoundRect,0.062500X0.337500X0.062500X-0.337500X0.062500X-0.337500X-0.062500X0.337500X-0.062500X0*%
%TD*%
%TA.AperFunction,SMDPad,CuDef*%
%ADD27RoundRect,0.062500X0.062500X0.337500X-0.062500X0.337500X-0.062500X-0.337500X0.062500X-0.337500X0*%
%TD*%
%TA.AperFunction,SMDPad,CuDef*%
%ADD28R,3.700000X3.700000*%
%TD*%
%TA.AperFunction,SMDPad,CuDef*%
%ADD29RoundRect,0.147500X-0.147500X-0.172500X0.147500X-0.172500X0.147500X0.172500X-0.147500X0.172500X0*%
%TD*%
%TA.AperFunction,SMDPad,CuDef*%
%ADD30RoundRect,0.140000X0.170000X-0.140000X0.170000X0.140000X-0.170000X0.140000X-0.170000X-0.140000X0*%
%TD*%
%TA.AperFunction,SMDPad,CuDef*%
%ADD31R,0.500000X2.800000*%
%TD*%
%TA.AperFunction,SMDPad,CuDef*%
%ADD32R,0.600000X2.600000*%
%TD*%
%TA.AperFunction,ComponentPad*%
%ADD33C,1.600000*%
%TD*%
%TA.AperFunction,ViaPad*%
%ADD34C,0.450000*%
%TD*%
%TA.AperFunction,Conductor*%
%ADD35C,0.200000*%
%TD*%
%TA.AperFunction,Conductor*%
%ADD36C,0.400000*%
%TD*%
%TA.AperFunction,Conductor*%
%ADD37C,0.220000*%
%TD*%
%TA.AperFunction,Conductor*%
%ADD38C,0.300000*%
%TD*%
%TA.AperFunction,Conductor*%
%ADD39C,0.500000*%
%TD*%
G04 APERTURE END LIST*
D10*
%TO.P,C1,1*%
%TO.N,Board_0-Net-(U6-V+)*%
X141720000Y-25850000D03*
%TO.P,C1,2*%
%TO.N,Board_0-GND*%
X142680000Y-25850000D03*
%TD*%
D11*
%TO.P,AE1,1,FEED*%
%TO.N,Board_0-Net-(AE1-FEED)*%
X154375000Y-36125000D03*
D12*
%TO.P,AE1,2,PCB_Trace*%
%TO.N,Board_0-GND*%
X154850000Y-30800000D03*
D13*
X154850000Y-32275000D03*
D14*
X154850000Y-33175000D03*
D11*
X155325000Y-36125000D03*
D15*
X155325000Y-36625000D03*
%TD*%
D16*
%TO.P,R9,1*%
%TO.N,Board_0-Net-(U5-~{CS})*%
X146500000Y-42860000D03*
%TO.P,R9,2*%
%TO.N,Board_0-GND*%
X146500000Y-41840000D03*
%TD*%
D17*
%TO.P,J1,1,VBUS*%
%TO.N,Board_0-A_VBUS*%
X152000000Y-25850000D03*
%TO.P,J1,2,D-*%
%TO.N,Board_0-A_D-*%
X149500000Y-25850000D03*
%TO.P,J1,3,D+*%
%TO.N,Board_0-A_D+*%
X147500000Y-25850000D03*
%TO.P,J1,4,GND*%
%TO.N,Board_0-GND*%
X145000000Y-25850000D03*
D18*
%TO.P,J1,5,Shield*%
X142800000Y-23100000D03*
X154200000Y-23100000D03*
%TD*%
D19*
%TO.P,C14,1*%
%TO.N,Board_0-Net-(AE1-FEED)*%
X154400000Y-38020000D03*
%TO.P,C14,2*%
%TO.N,Board_0-GND*%
X154400000Y-38980000D03*
%TD*%
%TO.P,C7,1*%
%TO.N,Board_0-GND*%
X143350000Y-31420000D03*
%TO.P,C7,2*%
%TO.N,Board_0-Net-(U4-XTAL_N)*%
X143350000Y-32380000D03*
%TD*%
%TO.P,C12,1*%
%TO.N,Board_0-Net-(U4-LNA_IN)*%
X151600000Y-38020000D03*
%TO.P,C12,2*%
%TO.N,Board_0-GND*%
X151600000Y-38980000D03*
%TD*%
D20*
%TO.P,D7,1,A1*%
%TO.N,Board_0-GND*%
X149000000Y-28600000D03*
%TO.P,D7,2,A2*%
%TO.N,Board_0-A_D-*%
X149000000Y-27900000D03*
%TD*%
D21*
%TO.P,R23,1*%
%TO.N,Board_0-Net-(R23-Pad1)*%
X150710000Y-44300000D03*
%TO.P,R23,2*%
%TO.N,Board_0-CK+*%
X149690000Y-44300000D03*
%TD*%
%TO.P,R22,1*%
%TO.N,Board_0-Net-(U6-V+)*%
X150710000Y-45300000D03*
%TO.P,R22,2*%
%TO.N,Board_0-CK-*%
X149690000Y-45300000D03*
%TD*%
D22*
%TO.P,D8,1,K*%
%TO.N,Board_0-VBUS*%
X152550000Y-43950000D03*
%TO.P,D8,2,A*%
%TO.N,Board_0-Net-(D8-A)*%
X152550000Y-45350000D03*
%TD*%
D20*
%TO.P,D6,1,A1*%
%TO.N,Board_0-GND*%
X148000000Y-28600000D03*
%TO.P,D6,2,A2*%
%TO.N,Board_0-A_D+*%
X148000000Y-27900000D03*
%TD*%
D23*
%TO.P,Y1,1,1*%
%TO.N,Board_0-Net-(U4-XTAL_N)*%
X144650000Y-32775000D03*
%TO.P,Y1,2,2*%
%TO.N,Board_0-GND*%
X144650000Y-31025000D03*
%TO.P,Y1,3,3*%
%TO.N,Board_0-Net-(U4-XTAL_P)*%
X146050000Y-31025000D03*
%TO.P,Y1,4,4*%
%TO.N,Board_0-GND*%
X146050000Y-32775000D03*
%TD*%
D24*
%TO.P,R29,1*%
%TO.N,Board_0-Net-(U6--)*%
X141800000Y-27690000D03*
%TO.P,R29,2*%
%TO.N,Board_0-Net-(U1-VOUT)*%
X141800000Y-28710000D03*
%TD*%
D25*
%TO.P,R20,1*%
%TO.N,Board_0-VBUS*%
X141690000Y-45300000D03*
%TO.P,R20,2*%
%TO.N,Board_0-D1+*%
X142710000Y-45300000D03*
%TD*%
%TO.P,R21,1*%
%TO.N,Board_0-VBUS*%
X141690000Y-44300000D03*
%TO.P,R21,2*%
%TO.N,Board_0-D1-*%
X142710000Y-44300000D03*
%TD*%
D19*
%TO.P,C21,1*%
%TO.N,Board_0-Net-(U6--)*%
X142800000Y-27720000D03*
%TO.P,C21,2*%
%TO.N,Board_0-Net-(U1-VOUT)*%
X142800000Y-28680000D03*
%TD*%
D26*
%TO.P,U4,1,LNA_IN*%
%TO.N,Board_0-Net-(U4-LNA_IN)*%
X147125000Y-35875000D03*
%TO.P,U4,2,VDD3P3*%
%TO.N,Board_0-Net-(U4-VDD3P3)*%
X147125000Y-36375000D03*
%TO.P,U4,3,VDD3P3__1*%
X147125000Y-36875000D03*
%TO.P,U4,4,XTAL_32K_P*%
%TO.N,Board_0-Cap_V+*%
X147125000Y-37375000D03*
%TO.P,U4,5,XTAL_32K_N*%
%TO.N,Board_0-User_SW1*%
X147125000Y-37875000D03*
%TO.P,U4,6,GPIO2*%
%TO.N,Board_0-GPIO2*%
X147125000Y-38375000D03*
%TO.P,U4,7,CHIP_EN*%
%TO.N,Board_0-+3V3*%
X147125000Y-38875000D03*
%TO.P,U4,8,GPIO3*%
%TO.N,Board_0-User_LED3*%
X147125000Y-39375000D03*
D27*
%TO.P,U4,9,MTMS*%
%TO.N,Board_0-ACC_INT2*%
X146425000Y-40075000D03*
%TO.P,U4,10,MTDI*%
%TO.N,Board_0-ACC_INT1*%
X145925000Y-40075000D03*
%TO.P,U4,11,VDD3P3_RTC*%
%TO.N,Board_0-+3V3*%
X145425000Y-40075000D03*
%TO.P,U4,12,MTCK*%
%TO.N,Board_0-ACC_SCK*%
X144925000Y-40075000D03*
%TO.P,U4,13,MTDO*%
%TO.N,Board_0-ACC_MISO*%
X144425000Y-40075000D03*
%TO.P,U4,14,GPIO8*%
%TO.N,Board_0-GPIO8*%
X143925000Y-40075000D03*
%TO.P,U4,15,GPIO9*%
%TO.N,Board_0-GPIO9*%
X143425000Y-40075000D03*
%TO.P,U4,16,GPIO10*%
%TO.N,Board_0-ACC_MOSI*%
X142925000Y-40075000D03*
D26*
%TO.P,U4,17,VDD3P3_CPU*%
%TO.N,Board_0-+3V3*%
X142225000Y-39375000D03*
%TO.P,U4,18,VDD_SPI*%
X142225000Y-38875000D03*
%TO.P,U4,19,SPIHD*%
%TO.N,Board_0-unconnected-(U4-SPIHD-Pad19)*%
X142225000Y-38375000D03*
%TO.P,U4,20,SPIWP*%
%TO.N,Board_0-unconnected-(U4-SPIWP-Pad20)*%
X142225000Y-37875000D03*
%TO.P,U4,21,SPICS0*%
%TO.N,Board_0-unconnected-(U4-SPICS0-Pad21)*%
X142225000Y-37375000D03*
%TO.P,U4,22,SPICLK*%
%TO.N,Board_0-unconnected-(U4-SPICLK-Pad22)*%
X142225000Y-36875000D03*
%TO.P,U4,23,SPID*%
%TO.N,Board_0-unconnected-(U4-SPID-Pad23)*%
X142225000Y-36375000D03*
%TO.P,U4,24,SPIQ*%
%TO.N,Board_0-unconnected-(U4-SPIQ-Pad24)*%
X142225000Y-35875000D03*
D27*
%TO.P,U4,25,GPIO18*%
%TO.N,Board_0-A_D-*%
X142925000Y-35175000D03*
%TO.P,U4,26,GPIO19*%
%TO.N,Board_0-A_D+*%
X143425000Y-35175000D03*
%TO.P,U4,27,U0RXD*%
%TO.N,Board_0-RXD*%
X143925000Y-35175000D03*
%TO.P,U4,28,U0TXD*%
%TO.N,Board_0-TXD*%
X144425000Y-35175000D03*
%TO.P,U4,29,XTAL_N*%
%TO.N,Board_0-Net-(U4-XTAL_N)*%
X144925000Y-35175000D03*
%TO.P,U4,30,XTAL_P*%
%TO.N,Board_0-Net-(U4-XTAL_P)*%
X145425000Y-35175000D03*
%TO.P,U4,31,VDDA*%
%TO.N,Board_0-+3V3*%
X145925000Y-35175000D03*
%TO.P,U4,32,VDDA__1*%
X146425000Y-35175000D03*
D28*
%TO.P,U4,33,GND*%
%TO.N,Board_0-GND*%
X144675000Y-37625000D03*
%TD*%
D29*
%TO.P,L3,1*%
%TO.N,Board_0-Net-(U4-LNA_IN)*%
X152515000Y-38050000D03*
%TO.P,L3,2*%
%TO.N,Board_0-Net-(AE1-FEED)*%
X153485000Y-38050000D03*
%TD*%
D30*
%TO.P,C8,1*%
%TO.N,Board_0-Net-(U4-XTAL_P)*%
X147350000Y-32380000D03*
%TO.P,C8,2*%
%TO.N,Board_0-GND*%
X147350000Y-31420000D03*
%TD*%
D21*
%TO.P,R27,1*%
%TO.N,Board_0-D0-*%
X142710000Y-26800000D03*
%TO.P,R27,2*%
%TO.N,Board_0-Net-(U6--)*%
X141690000Y-26800000D03*
%TD*%
D31*
%TO.P,J2,2,D2S*%
%TO.N,Board_0-unconnected-(J2-D2S-Pad2)*%
X144500000Y-47550000D03*
%TO.P,J2,4,D1+*%
%TO.N,Board_0-D1+*%
X145500000Y-47550000D03*
%TO.P,J2,6,D1-*%
%TO.N,Board_0-D1-*%
X146500000Y-47550000D03*
%TO.P,J2,8,D0S*%
%TO.N,Board_0-unconnected-(J2-D0S-Pad8)*%
X147500000Y-47550000D03*
%TO.P,J2,10,CK+*%
%TO.N,Board_0-CK+*%
X148500000Y-47550000D03*
%TO.P,J2,12,CK-*%
%TO.N,Board_0-CK-*%
X149500000Y-47550000D03*
%TO.P,J2,14,UTILITY/HEAC+*%
%TO.N,Board_0-unconnected-(J2-UTILITY{slash}HEAC+-Pad14)*%
X150500000Y-47550000D03*
%TO.P,J2,16,SDA*%
%TO.N,Board_0-GPIO2*%
X151500000Y-47550000D03*
%TO.P,J2,18,+5V*%
%TO.N,Board_0-Net-(D8-A)*%
X152500000Y-47550000D03*
D32*
%TO.P,J2,SH,SH*%
%TO.N,Board_0-GND*%
X141725000Y-47650000D03*
X155275000Y-47650000D03*
%TD*%
D33*
%TO.P,C3,1*%
%TO.N,Board_0-Cap_V+*%
X146000000Y-28900000D03*
%TO.P,C3,2*%
%TO.N,Board_0-GND*%
X151000000Y-28900000D03*
%TD*%
D34*
%TO.N,Board_0-VBUS*%
X152650000Y-44500000D03*
X142100000Y-41400000D03*
X145300000Y-21800000D03*
X142150000Y-35100000D03*
%TO.N,Board_0-User_SW1*%
X149850000Y-39850000D03*
X150875000Y-24725000D03*
%TO.N,Board_0-User_LED3*%
X147650000Y-40750000D03*
X145450000Y-20750000D03*
%TO.N,Board_0-TXD*%
X153000000Y-40400000D03*
X147900000Y-34400000D03*
X151500000Y-20750000D03*
X144400000Y-34300000D03*
%TO.N,Board_0-RXD*%
X153000000Y-41500000D03*
X147550000Y-33450000D03*
X143550000Y-34100000D03*
X148650000Y-20750000D03*
%TO.N,Board_0-Net-(U6-V+)*%
X141600000Y-24700000D03*
X151250000Y-45300000D03*
%TO.N,Board_0-Net-(U6--)*%
X144000000Y-26900000D03*
%TO.N,Board_0-Net-(U5-~{CS})*%
X146490000Y-43720000D03*
%TO.N,Board_0-Net-(U4-VDD3P3)*%
X147775000Y-36625000D03*
%TO.N,Board_0-Net-(U1-VOUT)*%
X142080000Y-29400000D03*
%TO.N,Board_0-Net-(U1-RUN)*%
X145400000Y-24100000D03*
X144600000Y-30000000D03*
%TO.N,Board_0-Net-(R23-Pad1)*%
X146000000Y-25300000D03*
X151250000Y-44300000D03*
%TO.N,Board_0-GPIO9*%
X150650000Y-43300000D03*
%TO.N,Board_0-GPIO8*%
X148250000Y-44250000D03*
%TO.N,Board_0-GPIO2*%
X150600000Y-41400000D03*
%TO.N,Board_0-GND*%
X150874264Y-38800000D03*
X142600000Y-47000000D03*
X151400000Y-32400000D03*
X152500000Y-37200000D03*
X143675000Y-37625000D03*
X154200000Y-29600000D03*
X151400000Y-34000000D03*
X155100000Y-40500000D03*
X149600000Y-37600000D03*
X143675000Y-36625000D03*
X152300000Y-23450000D03*
X151400000Y-30700000D03*
X155400000Y-30400000D03*
X153500000Y-37200000D03*
X145675000Y-37625000D03*
X148575000Y-34825000D03*
X154000000Y-46700000D03*
X144675000Y-38625000D03*
X148100000Y-32900000D03*
X142800000Y-31800000D03*
X144675000Y-36625000D03*
X154500000Y-26000000D03*
X153950000Y-48300000D03*
X155100000Y-29000000D03*
X143675000Y-38625000D03*
X146700000Y-27800000D03*
X155100000Y-43500000D03*
X145675000Y-36625000D03*
X153600000Y-43000000D03*
X142600000Y-48000000D03*
X151400000Y-33200000D03*
X151550000Y-37200000D03*
X155100000Y-26500000D03*
X151400000Y-31550000D03*
X151400000Y-34700000D03*
X155200000Y-37200000D03*
X154100000Y-28700000D03*
X145675000Y-38625000D03*
X151400000Y-35350000D03*
X144675000Y-37625000D03*
X150500000Y-21900000D03*
X153250000Y-39000000D03*
X147150000Y-42100000D03*
X153100000Y-28500000D03*
X152300000Y-30400000D03*
X154200000Y-43450000D03*
X153800000Y-30400000D03*
X155000000Y-39000000D03*
X153600000Y-40000000D03*
X154100000Y-42000000D03*
%TO.N,Board_0-D0-*%
X143300000Y-26800000D03*
X147850000Y-45650000D03*
%TO.N,Board_0-Cap_V+*%
X149500000Y-38950000D03*
X149050000Y-30300000D03*
%TO.N,Board_0-A_VBUS*%
X150900000Y-25850000D03*
%TO.N,Board_0-ACC_SCK*%
X144600000Y-41500000D03*
%TO.N,Board_0-ACC_MOSI*%
X142450000Y-40850000D03*
%TO.N,Board_0-ACC_MISO*%
X144000000Y-41900000D03*
%TO.N,Board_0-ACC_INT2*%
X146600000Y-40600000D03*
%TO.N,Board_0-ACC_INT1*%
X145325000Y-41850000D03*
%TO.N,Board_0-+3V3*%
X149950000Y-35550000D03*
X145350000Y-41050000D03*
X142325000Y-39825000D03*
X146175000Y-34600000D03*
X149900000Y-23650000D03*
X147850000Y-38900000D03*
%TD*%
D35*
%TO.N,Board_0-VBUS*%
X141800000Y-35100000D02*
X141500000Y-35400000D01*
D36*
X141690000Y-45300000D02*
X141690000Y-41810000D01*
D35*
X141690000Y-45300000D02*
X141690000Y-44300000D01*
D36*
X141690000Y-41810000D02*
X142100000Y-41400000D01*
D35*
X152650000Y-44500000D02*
X152650000Y-43900000D01*
X141500000Y-40800000D02*
X142100000Y-41400000D01*
X142150000Y-35100000D02*
X141800000Y-35100000D01*
X141690000Y-44300000D02*
X141690000Y-41810000D01*
X141500000Y-35400000D02*
X141500000Y-40800000D01*
%TO.N,Board_0-User_SW1*%
X148907843Y-38592157D02*
X148975000Y-38659314D01*
X148975000Y-39300000D02*
X148975000Y-39425000D01*
X149400000Y-39850000D02*
X149850000Y-39850000D01*
X148190686Y-37875000D02*
X148907843Y-38592157D01*
X147125000Y-37875000D02*
X148190686Y-37875000D01*
X148975000Y-39425000D02*
X149400000Y-39850000D01*
X148975000Y-38659314D02*
X148975000Y-39300000D01*
%TO.N,Board_0-User_LED3*%
X147125000Y-40225000D02*
X147125000Y-39375000D01*
X147650000Y-40750000D02*
X147125000Y-40225000D01*
%TO.N,Board_0-TXD*%
X144425000Y-34325000D02*
X144425000Y-35175000D01*
X144400000Y-34300000D02*
X144425000Y-34325000D01*
%TO.N,Board_0-RXD*%
X143550000Y-34250000D02*
X143925000Y-34625000D01*
X143925000Y-34625000D02*
X143925000Y-35175000D01*
X143550000Y-34100000D02*
X143550000Y-34250000D01*
%TO.N,Board_0-Net-(U6-V+)*%
X141600000Y-25630000D02*
X141820000Y-25850000D01*
X150710000Y-45300000D02*
X151250000Y-45300000D01*
X141600000Y-24700000D02*
X141600000Y-25630000D01*
%TO.N,Board_0-Net-(U6--)*%
X144000000Y-27150000D02*
X143430000Y-27720000D01*
X142800000Y-27720000D02*
X141830000Y-27720000D01*
X141830000Y-27720000D02*
X141800000Y-27690000D01*
X143430000Y-27720000D02*
X142800000Y-27720000D01*
X141790000Y-27680000D02*
X141800000Y-27690000D01*
X141790000Y-26800000D02*
X141790000Y-27680000D01*
X144000000Y-26900000D02*
X144000000Y-27150000D01*
%TO.N,Board_0-Net-(U5-~{CS})*%
X146490000Y-43720000D02*
X146500000Y-43710000D01*
X146500000Y-43710000D02*
X146500000Y-42860000D01*
%TO.N,Board_0-Net-(U4-XTAL_P)*%
X147230000Y-32380000D02*
X147350000Y-32380000D01*
X145425000Y-34025000D02*
X145425000Y-35175000D01*
X146050000Y-31200000D02*
X147230000Y-32380000D01*
X146950000Y-32700000D02*
X146950000Y-33450000D01*
X145750000Y-33700000D02*
X145425000Y-34025000D01*
X146700000Y-33700000D02*
X145750000Y-33700000D01*
X146050000Y-31025000D02*
X146050000Y-31200000D01*
X146950000Y-33450000D02*
X146700000Y-33700000D01*
X147270000Y-32380000D02*
X146950000Y-32700000D01*
X147350000Y-32380000D02*
X147270000Y-32380000D01*
%TO.N,Board_0-Net-(U4-XTAL_N)*%
X144475000Y-32775000D02*
X144600000Y-32900000D01*
X143350000Y-32380000D02*
X144255000Y-32380000D01*
X144650000Y-32775000D02*
X144650000Y-33050000D01*
X144800000Y-33200000D02*
X144650000Y-33350000D01*
X144475000Y-32600000D02*
X144475000Y-32775000D01*
X144255000Y-32380000D02*
X144650000Y-32775000D01*
X144650000Y-33050000D02*
X144800000Y-33200000D01*
X144925000Y-33825000D02*
X144925000Y-35175000D01*
X144650000Y-33550000D02*
X144925000Y-33825000D01*
X144650000Y-33350000D02*
X144650000Y-33550000D01*
D37*
%TO.N,Board_0-Net-(U4-VDD3P3)*%
X147125000Y-36375000D02*
X147525000Y-36375000D01*
X147525000Y-36875000D02*
X147775000Y-36625000D01*
X147525000Y-36375000D02*
X147775000Y-36625000D01*
X147125000Y-36875000D02*
X147525000Y-36875000D01*
D38*
%TO.N,Board_0-Net-(U4-LNA_IN)*%
X149653699Y-36753659D02*
G75*
G03*
X147532359Y-35875000I-2121299J-2121341D01*
G01*
X150480650Y-37580670D02*
G75*
G03*
X151541320Y-38020000I1060650J1060670D01*
G01*
X147532359Y-35875000D02*
X147125000Y-35875000D01*
X151600000Y-38020000D02*
X151541320Y-38020000D01*
X151600000Y-38020000D02*
X152485000Y-38020000D01*
X152485000Y-38020000D02*
X152515000Y-38050000D01*
X150480660Y-37580660D02*
X149653679Y-36753679D01*
D35*
%TO.N,Board_0-Net-(U1-VOUT)*%
X141800000Y-28710000D02*
X141800000Y-29120000D01*
X142800000Y-28680000D02*
X141830000Y-28680000D01*
X141830000Y-28680000D02*
X141800000Y-28710000D01*
X141800000Y-29120000D02*
X142080000Y-29400000D01*
%TO.N,Board_0-Net-(R23-Pad1)*%
X150710000Y-44300000D02*
X151250000Y-44300000D01*
%TO.N,Board_0-Net-(D8-A)*%
X152500000Y-46000000D02*
X152500000Y-47550000D01*
X152650000Y-45850000D02*
X152500000Y-46000000D01*
X152650000Y-45300000D02*
X152650000Y-45850000D01*
D38*
%TO.N,Board_0-Net-(AE1-FEED)*%
X153485000Y-38050000D02*
X154370000Y-38050000D01*
X154370000Y-38050000D02*
X154400000Y-38020000D01*
X154400000Y-38020000D02*
X154400000Y-36150000D01*
X154400000Y-36150000D02*
X154375000Y-36125000D01*
D35*
%TO.N,Board_0-GPIO9*%
X143620000Y-42850000D02*
X143450000Y-42850000D01*
X143000000Y-41000000D02*
X143425000Y-40575000D01*
X143000000Y-42400000D02*
X143000000Y-41000000D01*
X149000000Y-43800000D02*
X149000000Y-44300000D01*
X149000000Y-44300000D02*
X148180000Y-45120000D01*
X143450000Y-42850000D02*
X143000000Y-42400000D01*
X148180000Y-45120000D02*
X145890000Y-45120000D01*
X145890000Y-45120000D02*
X143620000Y-42850000D01*
X150650000Y-43300000D02*
X149500000Y-43300000D01*
X143425000Y-40575000D02*
X143425000Y-40075000D01*
X149500000Y-43300000D02*
X149000000Y-43800000D01*
%TO.N,Board_0-GPIO8*%
X143400000Y-42200000D02*
X143400000Y-41200000D01*
X148250000Y-44250000D02*
X147800000Y-44700000D01*
X146060000Y-44700000D02*
X143810000Y-42450000D01*
X147800000Y-44700000D02*
X146060000Y-44700000D01*
X143400000Y-41200000D02*
X143925000Y-40675000D01*
X143925000Y-40675000D02*
X143925000Y-40075000D01*
X143810000Y-42450000D02*
X143650000Y-42450000D01*
X143650000Y-42450000D02*
X143400000Y-42200000D01*
%TO.N,Board_0-GPIO2*%
X151800000Y-45750000D02*
X151800000Y-43450000D01*
X148550000Y-40250000D02*
X148550000Y-38800000D01*
X148125000Y-38375000D02*
X147125000Y-38375000D01*
X151500000Y-46050000D02*
X151800000Y-45750000D01*
X150600000Y-41400000D02*
X149700000Y-41400000D01*
X151500000Y-47550000D02*
X151500000Y-46050000D01*
X149700000Y-41400000D02*
X148550000Y-40250000D01*
X150910000Y-41710000D02*
X150600000Y-41400000D01*
X150910000Y-42560000D02*
X150910000Y-41710000D01*
X151800000Y-43450000D02*
X150910000Y-42560000D01*
X148550000Y-38800000D02*
X148125000Y-38375000D01*
%TO.N,Board_0-GND*%
X155325000Y-36625000D02*
X155500000Y-36800000D01*
D36*
X150874264Y-38800000D02*
X151054264Y-38980000D01*
D35*
X150830000Y-39200000D02*
X151050000Y-38980000D01*
X150200000Y-39200000D02*
X150830000Y-39200000D01*
D37*
X155400000Y-30400000D02*
X155540000Y-30540000D01*
D35*
X155000000Y-39000000D02*
X154980000Y-38980000D01*
D36*
X151054264Y-38980000D02*
X151600000Y-38980000D01*
D35*
X143350000Y-31420000D02*
X143350000Y-31150000D01*
X143350000Y-31150000D02*
X143100000Y-30900000D01*
X155200000Y-37200000D02*
X155550000Y-37200000D01*
X151050000Y-38980000D02*
X153230000Y-38980000D01*
X155500000Y-36800000D02*
X155550000Y-36800000D01*
X155550000Y-37200000D02*
X155550000Y-36850000D01*
X154980000Y-38980000D02*
X153900000Y-38980000D01*
X153230000Y-38980000D02*
X153250000Y-39000000D01*
D37*
X155540000Y-30540000D02*
X155540000Y-30800000D01*
X155540000Y-30800000D02*
X154850000Y-30800000D01*
D35*
X155550000Y-36850000D02*
X155325000Y-36625000D01*
%TO.N,Board_0-D1-*%
X146500000Y-47550000D02*
X146500000Y-45720000D01*
X144500000Y-44300000D02*
X142710000Y-44300000D01*
X146500000Y-45720000D02*
X146300000Y-45520000D01*
X145720000Y-45520000D02*
X144500000Y-44300000D01*
X146300000Y-45520000D02*
X145720000Y-45520000D01*
%TO.N,Board_0-D1+*%
X144900000Y-45300000D02*
X142710000Y-45300000D01*
X145500000Y-45900000D02*
X144900000Y-45300000D01*
X145500000Y-47550000D02*
X145500000Y-45900000D01*
%TO.N,Board_0-D0-*%
X142810000Y-26790000D02*
X142810000Y-26800000D01*
X143300000Y-26800000D02*
X142810000Y-26800000D01*
%TO.N,Board_0-Cap_V+*%
X147125000Y-37375000D02*
X148375000Y-37375000D01*
X149450000Y-38450000D02*
X149500000Y-38500000D01*
X148375000Y-37375000D02*
X149450000Y-38450000D01*
X149500000Y-38500000D02*
X149500000Y-38950000D01*
%TO.N,Board_0-CK-*%
X149500000Y-47550000D02*
X149500000Y-45490000D01*
X149500000Y-45490000D02*
X149690000Y-45300000D01*
%TO.N,Board_0-CK+*%
X148500000Y-47550000D02*
X148500000Y-45490000D01*
X148500000Y-45490000D02*
X149690000Y-44300000D01*
D39*
%TO.N,Board_0-A_VBUS*%
X150900000Y-25850000D02*
X152000000Y-25850000D01*
D35*
%TO.N,Board_0-A_D-*%
X142925000Y-35175000D02*
X142950000Y-35150000D01*
X146800000Y-24250000D02*
X148600000Y-24250000D01*
X148600000Y-24250000D02*
X149500000Y-25150000D01*
X142950000Y-34850000D02*
X141650000Y-33550000D01*
X144900000Y-27400000D02*
X145700000Y-27400000D01*
X146600000Y-26500000D02*
X146600000Y-24450000D01*
X141650000Y-30950000D02*
X143600000Y-29000000D01*
X149500000Y-27400000D02*
X149500000Y-25850000D01*
X143600000Y-29000000D02*
X143600000Y-28700000D01*
X143600000Y-28700000D02*
X144900000Y-27400000D01*
X149500000Y-25150000D02*
X149500000Y-25850000D01*
X141650000Y-33550000D02*
X141650000Y-30950000D01*
X145700000Y-27400000D02*
X146600000Y-26500000D01*
X146600000Y-24450000D02*
X146800000Y-24250000D01*
X149000000Y-27900000D02*
X149500000Y-27400000D01*
X142950000Y-35150000D02*
X142950000Y-34850000D01*
%TO.N,Board_0-A_D+*%
X143400001Y-35150001D02*
X143400001Y-34700001D01*
X144000000Y-29200000D02*
X144000000Y-28900000D01*
X143425000Y-35175000D02*
X143400001Y-35150001D01*
X144000000Y-28900000D02*
X145100000Y-27800000D01*
X142050000Y-31150000D02*
X144000000Y-29200000D01*
X147500000Y-27400000D02*
X148000000Y-27900000D01*
X145100000Y-27800000D02*
X145865686Y-27800000D01*
X145865686Y-27800000D02*
X146665686Y-27000000D01*
X147500000Y-25850000D02*
X147500000Y-27400000D01*
X143400001Y-34700001D02*
X142050000Y-33350000D01*
X146665686Y-27000000D02*
X147100000Y-27000000D01*
X142050000Y-33350000D02*
X142050000Y-31150000D01*
%TO.N,Board_0-ACC_SCK*%
X144925000Y-40675000D02*
X144925000Y-40075000D01*
X144825000Y-41075000D02*
X144825000Y-40775000D01*
X144600000Y-41300000D02*
X144825000Y-41075000D01*
X144600000Y-41500000D02*
X144600000Y-41300000D01*
X144825000Y-40775000D02*
X144925000Y-40675000D01*
%TO.N,Board_0-ACC_MOSI*%
X142450000Y-40850000D02*
X142450000Y-40550000D01*
X142450000Y-40550000D02*
X142925000Y-40075000D01*
%TO.N,Board_0-ACC_MISO*%
X144425000Y-40775000D02*
X144425000Y-40075000D01*
X144000000Y-41200000D02*
X144425000Y-40775000D01*
X144000000Y-41900000D02*
X144000000Y-41200000D01*
%TO.N,Board_0-ACC_INT2*%
X146425000Y-40425000D02*
X146425000Y-40075000D01*
X146600000Y-40600000D02*
X146425000Y-40425000D01*
%TO.N,Board_0-ACC_INT1*%
X146000000Y-40650000D02*
X145925000Y-40575000D01*
X145925000Y-40575000D02*
X145925000Y-40075000D01*
X146000000Y-41175000D02*
X146000000Y-40650000D01*
X145325000Y-41850000D02*
X146000000Y-41175000D01*
%TO.N,Board_0-+3V3*%
X142225000Y-39725000D02*
X142225000Y-38875000D01*
D37*
X145925000Y-34850000D02*
X145925000Y-35175000D01*
D35*
X147575000Y-38875000D02*
X147825000Y-38875000D01*
X145425000Y-40975000D02*
X145425000Y-40075000D01*
X145350000Y-41050000D02*
X145425000Y-40975000D01*
X142225000Y-39725000D02*
X142225000Y-39375000D01*
D37*
X146425000Y-34850000D02*
X146425000Y-35175000D01*
D35*
X147575000Y-38875000D02*
X147125000Y-38875000D01*
X142325000Y-39825000D02*
X142225000Y-39725000D01*
D37*
X146175000Y-34600000D02*
X145925000Y-34850000D01*
D35*
X147825000Y-38875000D02*
X147850000Y-38900000D01*
D37*
X146175000Y-34600000D02*
X146425000Y-34850000D01*
%TD*%
%TA.AperFunction,Conductor*%
%TO.N,Board_0-GND*%
G36*
X144792712Y-45619407D02*
G01*
X144804525Y-45629496D01*
X145078049Y-45903020D01*
X145105826Y-45957537D01*
X145096255Y-46017969D01*
X145090364Y-46028020D01*
X145082319Y-46040062D01*
X145034272Y-46077945D01*
X144973134Y-46080351D01*
X144922258Y-46046362D01*
X144917685Y-46040068D01*
X144894554Y-46005451D01*
X144894552Y-46005448D01*
X144884196Y-45998528D01*
X144828233Y-45961134D01*
X144828231Y-45961133D01*
X144828228Y-45961132D01*
X144828227Y-45961132D01*
X144769758Y-45949501D01*
X144769748Y-45949500D01*
X144230252Y-45949500D01*
X144230251Y-45949500D01*
X144230241Y-45949501D01*
X144171772Y-45961132D01*
X144171766Y-45961134D01*
X144105451Y-46005445D01*
X144105445Y-46005451D01*
X144061134Y-46071766D01*
X144061132Y-46071772D01*
X144049501Y-46130241D01*
X144049500Y-46130253D01*
X144049500Y-48850500D01*
X144030593Y-48908691D01*
X143981093Y-48944655D01*
X143950500Y-48949500D01*
X141449500Y-48949500D01*
X141391309Y-48930593D01*
X141355345Y-48881093D01*
X141350500Y-48850500D01*
X141350500Y-45911640D01*
X141369407Y-45853449D01*
X141418907Y-45817485D01*
X141462424Y-45813487D01*
X141466823Y-45814066D01*
X141466827Y-45814068D01*
X141515684Y-45820500D01*
X141515686Y-45820500D01*
X141864314Y-45820500D01*
X141864316Y-45820500D01*
X141913173Y-45814068D01*
X142020404Y-45764065D01*
X142104065Y-45680404D01*
X142110275Y-45667085D01*
X142152003Y-45622337D01*
X142212064Y-45610662D01*
X142267517Y-45636519D01*
X142289724Y-45667084D01*
X142295935Y-45680404D01*
X142379596Y-45764065D01*
X142379597Y-45764065D01*
X142379598Y-45764066D01*
X142486824Y-45814067D01*
X142486825Y-45814067D01*
X142486827Y-45814068D01*
X142535684Y-45820500D01*
X142535685Y-45820500D01*
X142884314Y-45820500D01*
X142884316Y-45820500D01*
X142933173Y-45814068D01*
X143040404Y-45764065D01*
X143124065Y-45680404D01*
X143134671Y-45657660D01*
X143176399Y-45612912D01*
X143224395Y-45600500D01*
X144734521Y-45600500D01*
X144792712Y-45619407D01*
G37*
%TD.AperFunction*%
%TA.AperFunction,Conductor*%
G36*
X148295267Y-36341855D02*
G01*
X148365539Y-36362099D01*
X148404768Y-36373400D01*
X148410007Y-36375232D01*
X148679383Y-36486808D01*
X148684384Y-36489217D01*
X148939563Y-36630246D01*
X148944257Y-36633195D01*
X149182056Y-36801917D01*
X149186385Y-36805370D01*
X149404432Y-37000225D01*
X149406451Y-37002133D01*
X150193566Y-37789247D01*
X150193567Y-37789249D01*
X150203816Y-37799498D01*
X150203837Y-37799540D01*
X150318578Y-37914279D01*
X150367345Y-37951698D01*
X150511027Y-38061947D01*
X150511034Y-38061951D01*
X150511033Y-38061951D01*
X150592545Y-38109010D01*
X150721107Y-38183234D01*
X150945220Y-38276061D01*
X151087620Y-38314214D01*
X151138934Y-38347537D01*
X151143095Y-38353059D01*
X151146773Y-38358312D01*
X151146775Y-38358314D01*
X151146776Y-38358316D01*
X151231684Y-38443224D01*
X151340513Y-38493972D01*
X151390099Y-38500500D01*
X151809900Y-38500499D01*
X151859487Y-38493972D01*
X151859488Y-38493972D01*
X151925046Y-38463401D01*
X151968316Y-38443224D01*
X151968319Y-38443220D01*
X151975411Y-38438256D01*
X151977281Y-38440927D01*
X151986583Y-38431484D01*
X152046940Y-38421454D01*
X152101666Y-38448817D01*
X152102093Y-38449240D01*
X152162489Y-38509636D01*
X152266830Y-38560645D01*
X152334472Y-38570500D01*
X152334475Y-38570500D01*
X152695524Y-38570500D01*
X152695528Y-38570500D01*
X152763170Y-38560645D01*
X152867511Y-38509636D01*
X152929998Y-38447148D01*
X152984513Y-38419373D01*
X153044945Y-38428944D01*
X153070000Y-38447147D01*
X153132489Y-38509636D01*
X153236830Y-38560645D01*
X153304472Y-38570500D01*
X153304475Y-38570500D01*
X153665524Y-38570500D01*
X153665528Y-38570500D01*
X153733170Y-38560645D01*
X153837511Y-38509636D01*
X153897801Y-38449345D01*
X153952315Y-38421569D01*
X154012747Y-38431140D01*
X154023898Y-38439241D01*
X154024589Y-38438256D01*
X154031682Y-38443222D01*
X154031684Y-38443224D01*
X154140513Y-38493972D01*
X154190099Y-38500500D01*
X154609900Y-38500499D01*
X154659487Y-38493972D01*
X154659488Y-38493972D01*
X154725046Y-38463401D01*
X154768316Y-38443224D01*
X154853224Y-38358316D01*
X154903972Y-38249487D01*
X154910500Y-38199901D01*
X154910499Y-37840100D01*
X154903972Y-37790513D01*
X154903972Y-37790511D01*
X154853225Y-37681686D01*
X154853224Y-37681685D01*
X154853224Y-37681684D01*
X154779494Y-37607954D01*
X154751719Y-37553440D01*
X154750500Y-37537953D01*
X154750500Y-37049000D01*
X154769407Y-36990809D01*
X154818907Y-36954845D01*
X154849500Y-36950000D01*
X155552415Y-36950000D01*
X155610606Y-36968907D01*
X155646570Y-37018407D01*
X155650561Y-37041749D01*
X155650790Y-37041721D01*
X155651980Y-37051371D01*
X155651401Y-37051442D01*
X155652476Y-37066006D01*
X155653058Y-37065992D01*
X155653178Y-37070859D01*
X155655297Y-37088043D01*
X155655534Y-37090455D01*
X155656808Y-37107719D01*
X155657639Y-37112507D01*
X155657063Y-37112606D01*
X155658853Y-37127103D01*
X155659435Y-37127061D01*
X155659793Y-37131908D01*
X155659793Y-37131911D01*
X155660599Y-37136558D01*
X155662752Y-37148969D01*
X155663108Y-37151369D01*
X155665226Y-37168546D01*
X155666292Y-37173290D01*
X155665724Y-37173417D01*
X155668224Y-37187818D01*
X155668799Y-37187748D01*
X155669393Y-37192566D01*
X155673190Y-37209474D01*
X155673664Y-37211856D01*
X155676619Y-37228894D01*
X155677916Y-37233577D01*
X155677354Y-37233732D01*
X155680554Y-37247982D01*
X155681129Y-37247883D01*
X155681961Y-37252680D01*
X155686577Y-37269361D01*
X155687166Y-37271713D01*
X155690960Y-37288602D01*
X155692487Y-37293224D01*
X155691933Y-37293406D01*
X155695831Y-37307487D01*
X155696398Y-37307360D01*
X155697464Y-37312107D01*
X155702893Y-37328542D01*
X155703598Y-37330865D01*
X155708213Y-37347542D01*
X155709961Y-37352074D01*
X155709415Y-37352284D01*
X155714001Y-37366165D01*
X155714564Y-37366010D01*
X155715859Y-37370691D01*
X155722087Y-37386835D01*
X155722905Y-37389121D01*
X155728338Y-37405565D01*
X155730309Y-37410012D01*
X155729774Y-37410249D01*
X155735028Y-37423867D01*
X155735585Y-37423684D01*
X155737111Y-37428304D01*
X155743223Y-37442094D01*
X155744127Y-37444132D01*
X155745055Y-37446373D01*
X155751286Y-37462525D01*
X155753474Y-37466871D01*
X155752951Y-37467134D01*
X155758872Y-37480488D01*
X155759416Y-37480279D01*
X155761164Y-37484813D01*
X155766182Y-37494781D01*
X155775457Y-37555259D01*
X155747412Y-37609639D01*
X155742586Y-37614110D01*
X155717856Y-37635539D01*
X155717854Y-37635542D01*
X155640049Y-37756608D01*
X155640046Y-37756615D01*
X155599500Y-37894701D01*
X155599500Y-38038630D01*
X155640046Y-38176716D01*
X155640049Y-38176723D01*
X155717856Y-38297793D01*
X155717858Y-38297795D01*
X155826400Y-38391847D01*
X155857996Y-38444242D01*
X155852760Y-38505203D01*
X155826400Y-38541485D01*
X155717858Y-38635536D01*
X155717856Y-38635538D01*
X155640049Y-38756608D01*
X155640046Y-38756615D01*
X155599500Y-38894701D01*
X155599500Y-39038630D01*
X155640046Y-39176716D01*
X155640049Y-39176723D01*
X155717856Y-39297793D01*
X155717858Y-39297795D01*
X155826400Y-39391847D01*
X155857996Y-39444242D01*
X155852760Y-39505203D01*
X155826400Y-39541485D01*
X155717858Y-39635536D01*
X155717856Y-39635538D01*
X155640049Y-39756608D01*
X155640046Y-39756615D01*
X155599500Y-39894701D01*
X155599500Y-40038630D01*
X155640046Y-40176716D01*
X155640049Y-40176723D01*
X155717856Y-40297793D01*
X155717858Y-40297795D01*
X155826400Y-40391847D01*
X155857996Y-40444242D01*
X155852760Y-40505203D01*
X155826400Y-40541485D01*
X155717858Y-40635536D01*
X155717856Y-40635538D01*
X155640049Y-40756608D01*
X155640046Y-40756615D01*
X155599500Y-40894701D01*
X155599500Y-41038630D01*
X155640046Y-41176716D01*
X155640049Y-41176723D01*
X155717856Y-41297793D01*
X155742585Y-41319221D01*
X155774180Y-41371617D01*
X155768944Y-41432578D01*
X155766185Y-41438546D01*
X155761165Y-41448519D01*
X155759414Y-41453060D01*
X155758872Y-41452850D01*
X155752951Y-41466209D01*
X155753469Y-41466470D01*
X155751284Y-41470808D01*
X155745055Y-41486958D01*
X155744127Y-41489199D01*
X155737114Y-41505020D01*
X155735588Y-41509641D01*
X155735033Y-41509457D01*
X155729776Y-41523089D01*
X155730308Y-41523325D01*
X155728337Y-41527770D01*
X155722904Y-41544214D01*
X155722088Y-41546496D01*
X155715862Y-41562636D01*
X155714564Y-41567327D01*
X155714001Y-41567171D01*
X155709420Y-41581038D01*
X155709965Y-41581249D01*
X155708212Y-41585793D01*
X155703593Y-41602478D01*
X155702890Y-41604795D01*
X155697464Y-41621225D01*
X155696399Y-41625968D01*
X155695831Y-41625840D01*
X155691932Y-41639929D01*
X155692485Y-41640112D01*
X155690958Y-41644734D01*
X155687167Y-41661611D01*
X155686579Y-41663958D01*
X155681962Y-41680648D01*
X155681129Y-41685450D01*
X155680555Y-41685350D01*
X155677356Y-41699602D01*
X155677916Y-41699757D01*
X155676618Y-41704445D01*
X155673661Y-41721484D01*
X155673188Y-41723860D01*
X155669394Y-41740761D01*
X155668799Y-41745586D01*
X155668225Y-41745515D01*
X155665727Y-41759912D01*
X155666292Y-41760039D01*
X155665227Y-41764779D01*
X155663108Y-41781964D01*
X155662751Y-41784364D01*
X155659793Y-41801413D01*
X155659436Y-41806262D01*
X155658854Y-41806219D01*
X155657064Y-41820728D01*
X155657639Y-41820828D01*
X155656807Y-41825616D01*
X155655535Y-41842862D01*
X155655298Y-41845273D01*
X155653177Y-41862476D01*
X155653059Y-41867330D01*
X155652479Y-41867315D01*
X155651405Y-41881897D01*
X155651979Y-41881968D01*
X155651384Y-41886787D01*
X155650959Y-41904089D01*
X155650840Y-41906510D01*
X155649567Y-41923775D01*
X155649687Y-41928642D01*
X155649283Y-41928651D01*
X155649388Y-41937134D01*
X155649500Y-41937134D01*
X155649500Y-41963592D01*
X155648969Y-41985186D01*
X155649366Y-41990552D01*
X155649500Y-41994197D01*
X155649500Y-48850500D01*
X155630593Y-48908691D01*
X155581093Y-48944655D01*
X155550500Y-48949500D01*
X153049500Y-48949500D01*
X152991309Y-48930593D01*
X152955345Y-48881093D01*
X152950500Y-48850500D01*
X152950500Y-46130253D01*
X152950498Y-46130241D01*
X152940574Y-46080351D01*
X152938867Y-46071769D01*
X152937410Y-46069589D01*
X152936231Y-46065407D01*
X152935134Y-46062758D01*
X152935447Y-46062628D01*
X152920802Y-46010702D01*
X152929163Y-45974596D01*
X152929651Y-45973486D01*
X152929656Y-45973481D01*
X152936955Y-45942443D01*
X152938977Y-45935914D01*
X152950500Y-45906173D01*
X152950500Y-45896348D01*
X152953129Y-45873683D01*
X152955379Y-45864119D01*
X152953153Y-45848162D01*
X152963838Y-45787919D01*
X152981197Y-45764483D01*
X153039198Y-45706483D01*
X153090573Y-45601393D01*
X153100500Y-45533260D01*
X153100500Y-45166740D01*
X153090573Y-45098607D01*
X153039198Y-44993517D01*
X152968715Y-44923034D01*
X152940940Y-44868520D01*
X152950511Y-44808088D01*
X152968712Y-44783035D01*
X152998528Y-44753220D01*
X153059719Y-44633126D01*
X153080804Y-44500000D01*
X153059719Y-44366874D01*
X153059717Y-44366871D01*
X153059717Y-44366868D01*
X153056616Y-44360783D01*
X153047041Y-44300352D01*
X153055883Y-44272353D01*
X153064349Y-44255035D01*
X153090573Y-44201393D01*
X153100500Y-44133260D01*
X153100500Y-43766740D01*
X153090573Y-43698607D01*
X153086694Y-43690673D01*
X153051855Y-43619407D01*
X153039198Y-43593517D01*
X152956483Y-43510802D01*
X152956481Y-43510801D01*
X152851395Y-43459427D01*
X152824139Y-43455456D01*
X152783260Y-43449500D01*
X152316740Y-43449500D01*
X152287540Y-43453754D01*
X152248603Y-43459427D01*
X152239924Y-43463671D01*
X152179342Y-43472240D01*
X152125293Y-43443564D01*
X152098422Y-43388595D01*
X152097639Y-43380240D01*
X152097585Y-43380009D01*
X152093616Y-43371020D01*
X152086864Y-43349215D01*
X152085061Y-43339568D01*
X152085061Y-43339567D01*
X152068276Y-43312458D01*
X152065084Y-43306401D01*
X152052206Y-43277235D01*
X152052205Y-43277233D01*
X152045256Y-43270284D01*
X152031090Y-43252399D01*
X152025919Y-43244048D01*
X152000483Y-43224839D01*
X151995306Y-43220334D01*
X151239496Y-42464525D01*
X151211719Y-42410008D01*
X151210500Y-42394521D01*
X151210500Y-41775168D01*
X151212731Y-41761495D01*
X151211505Y-41761324D01*
X151212773Y-41752232D01*
X151210564Y-41704445D01*
X151210552Y-41704207D01*
X151210500Y-41701928D01*
X151210500Y-41682160D01*
X151210500Y-41682156D01*
X151209846Y-41678664D01*
X151209056Y-41671859D01*
X151207585Y-41640008D01*
X151203615Y-41631017D01*
X151196864Y-41609215D01*
X151195823Y-41603647D01*
X151195061Y-41599567D01*
X151178276Y-41572458D01*
X151175084Y-41566401D01*
X151162206Y-41537235D01*
X151162205Y-41537233D01*
X151155256Y-41530284D01*
X151141090Y-41512399D01*
X151135919Y-41504048D01*
X151130559Y-41500000D01*
X152569196Y-41500000D01*
X152590281Y-41633127D01*
X152590282Y-41633129D01*
X152650970Y-41752235D01*
X152651472Y-41753220D01*
X152746780Y-41848528D01*
X152746782Y-41848529D01*
X152866216Y-41909384D01*
X152866874Y-41909719D01*
X153000000Y-41930804D01*
X153133126Y-41909719D01*
X153253220Y-41848528D01*
X153348528Y-41753220D01*
X153409719Y-41633126D01*
X153430804Y-41500000D01*
X153428162Y-41483322D01*
X153421072Y-41438556D01*
X153409719Y-41366874D01*
X153348528Y-41246780D01*
X153253220Y-41151472D01*
X153253217Y-41151470D01*
X153133129Y-41090282D01*
X153133127Y-41090281D01*
X153000000Y-41069196D01*
X152866872Y-41090281D01*
X152866870Y-41090282D01*
X152746782Y-41151470D01*
X152651470Y-41246782D01*
X152590282Y-41366870D01*
X152590281Y-41366872D01*
X152569196Y-41499999D01*
X152569196Y-41500000D01*
X151130559Y-41500000D01*
X151110483Y-41484839D01*
X151105306Y-41480334D01*
X151054646Y-41429675D01*
X151026869Y-41375158D01*
X151026723Y-41374234D01*
X151009719Y-41266874D01*
X150975860Y-41200423D01*
X150948529Y-41146782D01*
X150948528Y-41146780D01*
X150853220Y-41051472D01*
X150853217Y-41051470D01*
X150733129Y-40990282D01*
X150733127Y-40990281D01*
X150600000Y-40969196D01*
X150466872Y-40990281D01*
X150466870Y-40990282D01*
X150346782Y-41051470D01*
X150346780Y-41051471D01*
X150346780Y-41051472D01*
X150327746Y-41070505D01*
X150273232Y-41098281D01*
X150257745Y-41099500D01*
X149865479Y-41099500D01*
X149807288Y-41080593D01*
X149795475Y-41070504D01*
X149124971Y-40400000D01*
X152569196Y-40400000D01*
X152590281Y-40533127D01*
X152590282Y-40533129D01*
X152649835Y-40650008D01*
X152651472Y-40653220D01*
X152746780Y-40748528D01*
X152866874Y-40809719D01*
X153000000Y-40830804D01*
X153133126Y-40809719D01*
X153253220Y-40748528D01*
X153348528Y-40653220D01*
X153409719Y-40533126D01*
X153430804Y-40400000D01*
X153428829Y-40387533D01*
X153423007Y-40350773D01*
X153409719Y-40266874D01*
X153348528Y-40146780D01*
X153253220Y-40051472D01*
X153253217Y-40051470D01*
X153133129Y-39990282D01*
X153133127Y-39990281D01*
X153000000Y-39969196D01*
X152866872Y-39990281D01*
X152866870Y-39990282D01*
X152746782Y-40051470D01*
X152651470Y-40146782D01*
X152590282Y-40266870D01*
X152590281Y-40266872D01*
X152569196Y-40399999D01*
X152569196Y-40400000D01*
X149124971Y-40400000D01*
X148879496Y-40154525D01*
X148851719Y-40100008D01*
X148850500Y-40084521D01*
X148850500Y-39964479D01*
X148869407Y-39906288D01*
X148918907Y-39870324D01*
X148980093Y-39870324D01*
X149019504Y-39894475D01*
X149141436Y-40016407D01*
X149149537Y-40027647D01*
X149150516Y-40026909D01*
X149156044Y-40034230D01*
X149191569Y-40066616D01*
X149193223Y-40068195D01*
X149203249Y-40078220D01*
X149207203Y-40082174D01*
X149210128Y-40084178D01*
X149215505Y-40088437D01*
X149239063Y-40109913D01*
X149239064Y-40109913D01*
X149239067Y-40109916D01*
X149248233Y-40113467D01*
X149268412Y-40124103D01*
X149276520Y-40129657D01*
X149307558Y-40136957D01*
X149314096Y-40138982D01*
X149343827Y-40150500D01*
X149353652Y-40150500D01*
X149376316Y-40153129D01*
X149385881Y-40155379D01*
X149410494Y-40151945D01*
X149417453Y-40150975D01*
X149424299Y-40150500D01*
X149507745Y-40150500D01*
X149565936Y-40169407D01*
X149577742Y-40179490D01*
X149596780Y-40198528D01*
X149716874Y-40259719D01*
X149850000Y-40280804D01*
X149983126Y-40259719D01*
X150103220Y-40198528D01*
X150198528Y-40103220D01*
X150259719Y-39983126D01*
X150280804Y-39850000D01*
X150259719Y-39716874D01*
X150198528Y-39596780D01*
X150103220Y-39501472D01*
X150103217Y-39501470D01*
X149983129Y-39440282D01*
X149983127Y-39440281D01*
X149854189Y-39419859D01*
X149799672Y-39392081D01*
X149771895Y-39337565D01*
X149781467Y-39277133D01*
X149799670Y-39252077D01*
X149848528Y-39203220D01*
X149909719Y-39083126D01*
X149930804Y-38950000D01*
X149909719Y-38816874D01*
X149848528Y-38696780D01*
X149848525Y-38696777D01*
X149829495Y-38677746D01*
X149801719Y-38623229D01*
X149800500Y-38607744D01*
X149800500Y-38565169D01*
X149802731Y-38551496D01*
X149801505Y-38551325D01*
X149802773Y-38542233D01*
X149800844Y-38500500D01*
X149800552Y-38494208D01*
X149800500Y-38491929D01*
X149800500Y-38472160D01*
X149800500Y-38472156D01*
X149799846Y-38468664D01*
X149799056Y-38461859D01*
X149797585Y-38430009D01*
X149793613Y-38421014D01*
X149786865Y-38399220D01*
X149785061Y-38389567D01*
X149768278Y-38362462D01*
X149765085Y-38356406D01*
X149756090Y-38336031D01*
X149752207Y-38327236D01*
X149745257Y-38320286D01*
X149731088Y-38302396D01*
X149725920Y-38294049D01*
X149725919Y-38294048D01*
X149700483Y-38274839D01*
X149695306Y-38270334D01*
X148633565Y-37208594D01*
X148625479Y-37197344D01*
X148624487Y-37198094D01*
X148618958Y-37190772D01*
X148583428Y-37158382D01*
X148581775Y-37156804D01*
X148567797Y-37142826D01*
X148564859Y-37140813D01*
X148559496Y-37136564D01*
X148535933Y-37115084D01*
X148526762Y-37111531D01*
X148506586Y-37100895D01*
X148498484Y-37095345D01*
X148498479Y-37095343D01*
X148467457Y-37088046D01*
X148460902Y-37086016D01*
X148431177Y-37074501D01*
X148431174Y-37074500D01*
X148431173Y-37074500D01*
X148431172Y-37074500D01*
X148421348Y-37074500D01*
X148398683Y-37071870D01*
X148389119Y-37069621D01*
X148389118Y-37069621D01*
X148357547Y-37074025D01*
X148350701Y-37074500D01*
X148166255Y-37074500D01*
X148108064Y-37055593D01*
X148072100Y-37006093D01*
X148072100Y-36944907D01*
X148096249Y-36905498D01*
X148123528Y-36878220D01*
X148184719Y-36758126D01*
X148205804Y-36625000D01*
X148184719Y-36491874D01*
X148179653Y-36481933D01*
X148170080Y-36421502D01*
X148197856Y-36366985D01*
X148252372Y-36339205D01*
X148295267Y-36341855D01*
G37*
%TD.AperFunction*%
%TA.AperFunction,Conductor*%
G36*
X148220503Y-39265543D02*
G01*
X148248281Y-39320059D01*
X148249500Y-39335547D01*
X148249500Y-40184835D01*
X148247280Y-40198513D01*
X148248494Y-40198683D01*
X148247226Y-40207766D01*
X148249447Y-40255783D01*
X148249500Y-40258069D01*
X148249500Y-40277842D01*
X148250152Y-40281332D01*
X148250943Y-40288149D01*
X148252414Y-40319987D01*
X148252415Y-40319994D01*
X148256384Y-40328982D01*
X148263133Y-40350773D01*
X148264939Y-40360433D01*
X148281717Y-40387533D01*
X148284915Y-40393600D01*
X148295872Y-40418412D01*
X148297794Y-40422765D01*
X148304745Y-40429716D01*
X148318907Y-40447596D01*
X148324081Y-40455952D01*
X148349511Y-40475156D01*
X148354690Y-40479662D01*
X149441437Y-41566409D01*
X149449537Y-41577648D01*
X149450516Y-41576909D01*
X149456041Y-41584226D01*
X149456042Y-41584228D01*
X149477343Y-41603647D01*
X149491559Y-41616606D01*
X149493211Y-41618184D01*
X149500868Y-41625840D01*
X149507203Y-41632175D01*
X149508593Y-41633127D01*
X149510130Y-41634180D01*
X149515512Y-41638443D01*
X149524072Y-41646246D01*
X149539067Y-41659916D01*
X149548228Y-41663464D01*
X149568416Y-41674105D01*
X149576520Y-41679657D01*
X149607558Y-41686957D01*
X149614096Y-41688982D01*
X149643827Y-41700500D01*
X149653652Y-41700500D01*
X149676316Y-41703129D01*
X149685881Y-41705379D01*
X149710619Y-41701928D01*
X149717453Y-41700975D01*
X149724299Y-41700500D01*
X150257745Y-41700500D01*
X150315936Y-41719407D01*
X150327742Y-41729490D01*
X150346780Y-41748528D01*
X150466874Y-41809719D01*
X150525987Y-41819081D01*
X150580503Y-41846858D01*
X150608281Y-41901374D01*
X150609500Y-41916862D01*
X150609500Y-42494835D01*
X150607280Y-42508513D01*
X150608494Y-42508683D01*
X150607226Y-42517766D01*
X150609447Y-42565783D01*
X150609500Y-42568069D01*
X150609500Y-42587842D01*
X150610152Y-42591332D01*
X150610943Y-42598149D01*
X150612414Y-42629987D01*
X150612415Y-42629994D01*
X150616384Y-42638982D01*
X150623133Y-42660773D01*
X150624939Y-42670433D01*
X150641717Y-42697533D01*
X150644915Y-42703600D01*
X150661499Y-42741154D01*
X150657896Y-42742744D01*
X150670107Y-42784179D01*
X150649604Y-42841827D01*
X150599131Y-42876413D01*
X150586633Y-42879232D01*
X150516872Y-42890281D01*
X150516870Y-42890282D01*
X150396782Y-42951470D01*
X150396780Y-42951471D01*
X150396780Y-42951472D01*
X150377746Y-42970505D01*
X150323232Y-42998281D01*
X150307745Y-42999500D01*
X149565165Y-42999500D01*
X149551489Y-42997267D01*
X149551318Y-42998494D01*
X149542234Y-42997226D01*
X149501887Y-42999092D01*
X149494207Y-42999447D01*
X149491931Y-42999500D01*
X149472153Y-42999500D01*
X149468658Y-43000153D01*
X149461845Y-43000943D01*
X149430011Y-43002414D01*
X149430007Y-43002415D01*
X149421013Y-43006386D01*
X149399228Y-43013132D01*
X149389571Y-43014937D01*
X149389565Y-43014940D01*
X149362465Y-43031718D01*
X149356396Y-43034917D01*
X149327238Y-43047792D01*
X149327231Y-43047796D01*
X149320286Y-43054742D01*
X149302406Y-43068905D01*
X149294048Y-43074080D01*
X149274839Y-43099515D01*
X149270335Y-43104692D01*
X148833590Y-43541437D01*
X148822361Y-43549550D01*
X148823090Y-43550515D01*
X148815771Y-43556041D01*
X148783372Y-43591580D01*
X148781796Y-43593231D01*
X148767830Y-43607198D01*
X148767817Y-43607213D01*
X148765813Y-43610138D01*
X148761561Y-43615504D01*
X148740084Y-43639065D01*
X148740083Y-43639067D01*
X148736529Y-43648240D01*
X148725896Y-43668412D01*
X148720346Y-43676515D01*
X148720342Y-43676524D01*
X148713045Y-43707545D01*
X148711016Y-43714098D01*
X148699500Y-43743824D01*
X148699500Y-43753651D01*
X148696870Y-43776318D01*
X148694621Y-43785881D01*
X148695539Y-43792462D01*
X148699025Y-43817452D01*
X148699500Y-43824298D01*
X148699500Y-43858745D01*
X148680593Y-43916936D01*
X148631093Y-43952900D01*
X148569907Y-43952900D01*
X148530498Y-43928750D01*
X148503220Y-43901472D01*
X148503217Y-43901470D01*
X148383129Y-43840282D01*
X148383127Y-43840281D01*
X148250000Y-43819196D01*
X148116872Y-43840281D01*
X148116870Y-43840282D01*
X147996782Y-43901470D01*
X147901470Y-43996782D01*
X147840282Y-44116870D01*
X147840281Y-44116872D01*
X147823129Y-44225160D01*
X147795352Y-44279675D01*
X147704526Y-44370503D01*
X147650010Y-44398281D01*
X147634522Y-44399500D01*
X146225479Y-44399500D01*
X146167288Y-44380593D01*
X146155475Y-44370504D01*
X144819287Y-43034316D01*
X145979500Y-43034316D01*
X145981275Y-43047796D01*
X145985932Y-43083174D01*
X145985932Y-43083175D01*
X146035933Y-43190401D01*
X146035934Y-43190402D01*
X146035935Y-43190404D01*
X146119596Y-43274065D01*
X146137803Y-43282555D01*
X146182550Y-43324281D01*
X146194226Y-43384342D01*
X146168369Y-43439796D01*
X146165970Y-43442280D01*
X146141474Y-43466777D01*
X146141470Y-43466782D01*
X146080282Y-43586870D01*
X146080281Y-43586872D01*
X146059196Y-43719999D01*
X146059196Y-43720000D01*
X146080281Y-43853127D01*
X146080282Y-43853129D01*
X146131118Y-43952900D01*
X146141472Y-43973220D01*
X146236780Y-44068528D01*
X146356874Y-44129719D01*
X146490000Y-44150804D01*
X146623126Y-44129719D01*
X146743220Y-44068528D01*
X146838528Y-43973220D01*
X146899719Y-43853126D01*
X146920804Y-43720000D01*
X146899719Y-43586874D01*
X146838528Y-43466780D01*
X146835419Y-43463671D01*
X146829494Y-43457745D01*
X146801718Y-43403228D01*
X146800500Y-43387744D01*
X146800500Y-43374394D01*
X146819407Y-43316203D01*
X146857662Y-43284669D01*
X146880404Y-43274065D01*
X146964065Y-43190404D01*
X147014068Y-43083173D01*
X147020500Y-43034316D01*
X147020500Y-42685684D01*
X147014068Y-42636827D01*
X147010878Y-42629987D01*
X146964066Y-42529598D01*
X146964065Y-42529597D01*
X146964065Y-42529596D01*
X146880404Y-42445935D01*
X146880402Y-42445934D01*
X146880401Y-42445933D01*
X146773175Y-42395932D01*
X146740601Y-42391644D01*
X146724316Y-42389500D01*
X146275684Y-42389500D01*
X146259398Y-42391644D01*
X146226825Y-42395932D01*
X146226824Y-42395932D01*
X146119598Y-42445933D01*
X146035933Y-42529598D01*
X145985932Y-42636824D01*
X145985932Y-42636825D01*
X145981644Y-42669398D01*
X145979500Y-42685684D01*
X145979500Y-43034316D01*
X144819287Y-43034316D01*
X144204015Y-42419044D01*
X144176238Y-42364527D01*
X144185809Y-42304095D01*
X144229071Y-42260832D01*
X144253220Y-42248528D01*
X144348528Y-42153220D01*
X144409719Y-42033126D01*
X144414698Y-42001688D01*
X144442475Y-41947172D01*
X144496991Y-41919394D01*
X144527960Y-41919394D01*
X144600000Y-41930804D01*
X144733126Y-41909719D01*
X144769512Y-41891179D01*
X144829940Y-41881607D01*
X144884457Y-41909384D01*
X144912236Y-41963900D01*
X144912236Y-41963901D01*
X144915281Y-41983127D01*
X144915282Y-41983129D01*
X144976470Y-42103217D01*
X144976472Y-42103220D01*
X145071780Y-42198528D01*
X145191874Y-42259719D01*
X145325000Y-42280804D01*
X145458126Y-42259719D01*
X145578220Y-42198528D01*
X145673528Y-42103220D01*
X145734719Y-41983126D01*
X145751869Y-41874839D01*
X145779646Y-41820324D01*
X146166405Y-41433564D01*
X146177664Y-41425493D01*
X146176905Y-41424487D01*
X146184221Y-41418961D01*
X146184228Y-41418958D01*
X146216632Y-41383411D01*
X146218186Y-41381783D01*
X146232174Y-41367797D01*
X146234181Y-41364865D01*
X146238440Y-41359490D01*
X146259916Y-41335933D01*
X146263465Y-41326770D01*
X146274106Y-41306582D01*
X146279656Y-41298481D01*
X146286955Y-41267443D01*
X146288977Y-41260914D01*
X146300500Y-41231173D01*
X146300500Y-41221348D01*
X146303129Y-41198683D01*
X146305379Y-41189119D01*
X146300975Y-41157546D01*
X146300500Y-41150699D01*
X146300500Y-41086500D01*
X146319407Y-41028309D01*
X146368907Y-40992345D01*
X146430093Y-40992345D01*
X146444437Y-40998287D01*
X146466874Y-41009719D01*
X146600000Y-41030804D01*
X146733126Y-41009719D01*
X146853220Y-40948528D01*
X146948528Y-40853220D01*
X146997752Y-40756613D01*
X147013257Y-40726184D01*
X147015494Y-40727324D01*
X147044404Y-40687514D01*
X147102591Y-40668593D01*
X147160786Y-40687487D01*
X147172618Y-40697589D01*
X147195352Y-40720323D01*
X147223129Y-40774839D01*
X147240281Y-40883127D01*
X147240282Y-40883129D01*
X147301470Y-41003217D01*
X147301472Y-41003220D01*
X147396780Y-41098528D01*
X147516874Y-41159719D01*
X147650000Y-41180804D01*
X147783126Y-41159719D01*
X147903220Y-41098528D01*
X147998528Y-41003220D01*
X148059719Y-40883126D01*
X148080804Y-40750000D01*
X148080006Y-40744964D01*
X148067910Y-40668593D01*
X148059719Y-40616874D01*
X147998528Y-40496780D01*
X147903220Y-40401472D01*
X147903217Y-40401470D01*
X147783129Y-40340282D01*
X147783127Y-40340281D01*
X147674839Y-40323129D01*
X147620323Y-40295352D01*
X147454496Y-40129525D01*
X147426719Y-40075008D01*
X147425500Y-40059521D01*
X147425500Y-39794258D01*
X147444407Y-39736067D01*
X147493907Y-39700103D01*
X147505187Y-39697160D01*
X147565117Y-39685240D01*
X147652112Y-39627112D01*
X147710240Y-39540117D01*
X147725500Y-39463401D01*
X147725499Y-39426998D01*
X147744405Y-39368810D01*
X147793904Y-39332845D01*
X147839986Y-39329218D01*
X147850000Y-39330804D01*
X147983126Y-39309719D01*
X148103220Y-39248528D01*
X148103221Y-39248526D01*
X148105554Y-39247338D01*
X148165986Y-39237766D01*
X148220503Y-39265543D01*
G37*
%TD.AperFunction*%
%TA.AperFunction,Conductor*%
G36*
X146230002Y-35740274D02*
G01*
X146259879Y-35760238D01*
X146259880Y-35760238D01*
X146259883Y-35760240D01*
X146336599Y-35775500D01*
X146425500Y-35775499D01*
X146483690Y-35794406D01*
X146519654Y-35843905D01*
X146524500Y-35874498D01*
X146524500Y-35963396D01*
X146524501Y-35963404D01*
X146539759Y-36040115D01*
X146539759Y-36040116D01*
X146539760Y-36040117D01*
X146559726Y-36069999D01*
X146576334Y-36128887D01*
X146559727Y-36179999D01*
X146539761Y-36209880D01*
X146539759Y-36209886D01*
X146524501Y-36286589D01*
X146524500Y-36286599D01*
X146524500Y-36463397D01*
X146524501Y-36463404D01*
X146539759Y-36540115D01*
X146539759Y-36540116D01*
X146539760Y-36540117D01*
X146559726Y-36569999D01*
X146576334Y-36628887D01*
X146559727Y-36679999D01*
X146539761Y-36709880D01*
X146539759Y-36709886D01*
X146524501Y-36786589D01*
X146524500Y-36786599D01*
X146524500Y-36963397D01*
X146524501Y-36963404D01*
X146539759Y-37040115D01*
X146539759Y-37040116D01*
X146539760Y-37040117D01*
X146559726Y-37069999D01*
X146576334Y-37128887D01*
X146559727Y-37179999D01*
X146539761Y-37209880D01*
X146539759Y-37209886D01*
X146524501Y-37286589D01*
X146524500Y-37286599D01*
X146524500Y-37463397D01*
X146524501Y-37463404D01*
X146539759Y-37540115D01*
X146539759Y-37540116D01*
X146539760Y-37540117D01*
X146559726Y-37569999D01*
X146576334Y-37628887D01*
X146559727Y-37679999D01*
X146539761Y-37709880D01*
X146539759Y-37709886D01*
X146524501Y-37786589D01*
X146524500Y-37786599D01*
X146524500Y-37963397D01*
X146524501Y-37963404D01*
X146539759Y-38040115D01*
X146539759Y-38040116D01*
X146539760Y-38040117D01*
X146559726Y-38069999D01*
X146576334Y-38128887D01*
X146559727Y-38179999D01*
X146539761Y-38209880D01*
X146539759Y-38209886D01*
X146524501Y-38286589D01*
X146524500Y-38286599D01*
X146524500Y-38463397D01*
X146524501Y-38463404D01*
X146539759Y-38540115D01*
X146539759Y-38540116D01*
X146539760Y-38540117D01*
X146559726Y-38569999D01*
X146576334Y-38628887D01*
X146559727Y-38679999D01*
X146539761Y-38709880D01*
X146539759Y-38709886D01*
X146524501Y-38786589D01*
X146524500Y-38786599D01*
X146524500Y-38963397D01*
X146524501Y-38963404D01*
X146539759Y-39040115D01*
X146539759Y-39040116D01*
X146539760Y-39040117D01*
X146559726Y-39069999D01*
X146576334Y-39128887D01*
X146559727Y-39179999D01*
X146539761Y-39209880D01*
X146539759Y-39209886D01*
X146524501Y-39286589D01*
X146524500Y-39286599D01*
X146524500Y-39375500D01*
X146505593Y-39433691D01*
X146456093Y-39469655D01*
X146425501Y-39474500D01*
X146336603Y-39474500D01*
X146336595Y-39474501D01*
X146259884Y-39489759D01*
X146230000Y-39509727D01*
X146171111Y-39526334D01*
X146119999Y-39509726D01*
X146090119Y-39489761D01*
X146090117Y-39489760D01*
X146090114Y-39489759D01*
X146090113Y-39489759D01*
X146013410Y-39474501D01*
X146013402Y-39474500D01*
X146013401Y-39474500D01*
X146013400Y-39474500D01*
X145836602Y-39474500D01*
X145836595Y-39474501D01*
X145759884Y-39489759D01*
X145730000Y-39509727D01*
X145671111Y-39526334D01*
X145619999Y-39509726D01*
X145590119Y-39489761D01*
X145590117Y-39489760D01*
X145590114Y-39489759D01*
X145590113Y-39489759D01*
X145513410Y-39474501D01*
X145513402Y-39474500D01*
X145513401Y-39474500D01*
X145513400Y-39474500D01*
X145336602Y-39474500D01*
X145336595Y-39474501D01*
X145259884Y-39489759D01*
X145230000Y-39509727D01*
X145171111Y-39526334D01*
X145119999Y-39509726D01*
X145090119Y-39489761D01*
X145090117Y-39489760D01*
X145090114Y-39489759D01*
X145090113Y-39489759D01*
X145013410Y-39474501D01*
X145013402Y-39474500D01*
X145013401Y-39474500D01*
X145013400Y-39474500D01*
X144836602Y-39474500D01*
X144836595Y-39474501D01*
X144759884Y-39489759D01*
X144730000Y-39509727D01*
X144671111Y-39526334D01*
X144619999Y-39509726D01*
X144590119Y-39489761D01*
X144590117Y-39489760D01*
X144590114Y-39489759D01*
X144590113Y-39489759D01*
X144513410Y-39474501D01*
X144513402Y-39474500D01*
X144513401Y-39474500D01*
X144513400Y-39474500D01*
X144336602Y-39474500D01*
X144336595Y-39474501D01*
X144259884Y-39489759D01*
X144230000Y-39509727D01*
X144171111Y-39526334D01*
X144119999Y-39509726D01*
X144090119Y-39489761D01*
X144090117Y-39489760D01*
X144090114Y-39489759D01*
X144090113Y-39489759D01*
X144013410Y-39474501D01*
X144013402Y-39474500D01*
X144013401Y-39474500D01*
X144013400Y-39474500D01*
X143836602Y-39474500D01*
X143836595Y-39474501D01*
X143759884Y-39489759D01*
X143730000Y-39509727D01*
X143671111Y-39526334D01*
X143619999Y-39509726D01*
X143590119Y-39489761D01*
X143590117Y-39489760D01*
X143590114Y-39489759D01*
X143590113Y-39489759D01*
X143513410Y-39474501D01*
X143513402Y-39474500D01*
X143513401Y-39474500D01*
X143513400Y-39474500D01*
X143336602Y-39474500D01*
X143336595Y-39474501D01*
X143259884Y-39489759D01*
X143230000Y-39509727D01*
X143171111Y-39526334D01*
X143119999Y-39509726D01*
X143090119Y-39489761D01*
X143090117Y-39489760D01*
X143090114Y-39489759D01*
X143090113Y-39489759D01*
X143013410Y-39474501D01*
X143013402Y-39474500D01*
X143013401Y-39474500D01*
X143013400Y-39474500D01*
X142924499Y-39474500D01*
X142866308Y-39455593D01*
X142830344Y-39406093D01*
X142825499Y-39375503D01*
X142825499Y-39286600D01*
X142810240Y-39209883D01*
X142790273Y-39180001D01*
X142773665Y-39121114D01*
X142790274Y-39069998D01*
X142810238Y-39040120D01*
X142810238Y-39040119D01*
X142810240Y-39040117D01*
X142825500Y-38963401D01*
X142825499Y-38786600D01*
X142810240Y-38709883D01*
X142790273Y-38680001D01*
X142773665Y-38621114D01*
X142790274Y-38569998D01*
X142810238Y-38540120D01*
X142810238Y-38540119D01*
X142810240Y-38540117D01*
X142825500Y-38463401D01*
X142825499Y-38286600D01*
X142810240Y-38209883D01*
X142790273Y-38180001D01*
X142773665Y-38121114D01*
X142790274Y-38069998D01*
X142810238Y-38040120D01*
X142810238Y-38040119D01*
X142810240Y-38040117D01*
X142825500Y-37963401D01*
X142825499Y-37786600D01*
X142810240Y-37709883D01*
X142790273Y-37680001D01*
X142773665Y-37621114D01*
X142790274Y-37569998D01*
X142791200Y-37568613D01*
X142810240Y-37540117D01*
X142825500Y-37463401D01*
X142825499Y-37286600D01*
X142810240Y-37209883D01*
X142790273Y-37180001D01*
X142773665Y-37121114D01*
X142790274Y-37069998D01*
X142792942Y-37066006D01*
X142810240Y-37040117D01*
X142825500Y-36963401D01*
X142825499Y-36786600D01*
X142810240Y-36709883D01*
X142790273Y-36680001D01*
X142773665Y-36621114D01*
X142790274Y-36569998D01*
X142810238Y-36540120D01*
X142810238Y-36540119D01*
X142810240Y-36540117D01*
X142825500Y-36463401D01*
X142825499Y-36286600D01*
X142810240Y-36209883D01*
X142790273Y-36180001D01*
X142773665Y-36121114D01*
X142790274Y-36069998D01*
X142810238Y-36040120D01*
X142810238Y-36040119D01*
X142810240Y-36040117D01*
X142825500Y-35963401D01*
X142825499Y-35874498D01*
X142844406Y-35816309D01*
X142893905Y-35780345D01*
X142924495Y-35775499D01*
X143013400Y-35775499D01*
X143090117Y-35760240D01*
X143119998Y-35740273D01*
X143178886Y-35723665D01*
X143230002Y-35740274D01*
X143259879Y-35760238D01*
X143259880Y-35760238D01*
X143259883Y-35760240D01*
X143336599Y-35775500D01*
X143513400Y-35775499D01*
X143590117Y-35760240D01*
X143619998Y-35740273D01*
X143678886Y-35723665D01*
X143730002Y-35740274D01*
X143759879Y-35760238D01*
X143759880Y-35760238D01*
X143759883Y-35760240D01*
X143836599Y-35775500D01*
X144013400Y-35775499D01*
X144090117Y-35760240D01*
X144119998Y-35740273D01*
X144178886Y-35723665D01*
X144230002Y-35740274D01*
X144259879Y-35760238D01*
X144259880Y-35760238D01*
X144259883Y-35760240D01*
X144336599Y-35775500D01*
X144513400Y-35775499D01*
X144590117Y-35760240D01*
X144619998Y-35740273D01*
X144678886Y-35723665D01*
X144730002Y-35740274D01*
X144759879Y-35760238D01*
X144759880Y-35760238D01*
X144759883Y-35760240D01*
X144836599Y-35775500D01*
X145013400Y-35775499D01*
X145090117Y-35760240D01*
X145119998Y-35740273D01*
X145178886Y-35723665D01*
X145230002Y-35740274D01*
X145259879Y-35760238D01*
X145259880Y-35760238D01*
X145259883Y-35760240D01*
X145336599Y-35775500D01*
X145513400Y-35775499D01*
X145590117Y-35760240D01*
X145619998Y-35740273D01*
X145678886Y-35723665D01*
X145730002Y-35740274D01*
X145759879Y-35760238D01*
X145759880Y-35760238D01*
X145759883Y-35760240D01*
X145836599Y-35775500D01*
X146013400Y-35775499D01*
X146090117Y-35760240D01*
X146119998Y-35740273D01*
X146178886Y-35723665D01*
X146230002Y-35740274D01*
G37*
%TD.AperFunction*%
%TA.AperFunction,Conductor*%
G36*
X145166936Y-20269407D02*
G01*
X145202900Y-20318907D01*
X145202900Y-20380093D01*
X145178750Y-20419501D01*
X145101472Y-20496780D01*
X145101470Y-20496782D01*
X145040282Y-20616870D01*
X145040281Y-20616872D01*
X145019196Y-20749999D01*
X145019196Y-20750000D01*
X145040281Y-20883127D01*
X145040282Y-20883129D01*
X145101470Y-21003217D01*
X145101472Y-21003220D01*
X145196780Y-21098528D01*
X145316874Y-21159719D01*
X145450000Y-21180804D01*
X145583126Y-21159719D01*
X145703220Y-21098528D01*
X145798528Y-21003220D01*
X145859719Y-20883126D01*
X145880804Y-20750000D01*
X145859719Y-20616874D01*
X145798528Y-20496780D01*
X145721249Y-20419501D01*
X145693474Y-20364987D01*
X145703045Y-20304555D01*
X145746310Y-20261290D01*
X145791255Y-20250500D01*
X148308745Y-20250500D01*
X148366936Y-20269407D01*
X148402900Y-20318907D01*
X148402900Y-20380093D01*
X148378750Y-20419501D01*
X148301472Y-20496780D01*
X148301470Y-20496782D01*
X148240282Y-20616870D01*
X148240281Y-20616872D01*
X148219196Y-20749999D01*
X148219196Y-20750000D01*
X148240281Y-20883127D01*
X148240282Y-20883129D01*
X148301470Y-21003217D01*
X148301472Y-21003220D01*
X148396780Y-21098528D01*
X148516874Y-21159719D01*
X148650000Y-21180804D01*
X148783126Y-21159719D01*
X148903220Y-21098528D01*
X148998528Y-21003220D01*
X149059719Y-20883126D01*
X149080804Y-20750000D01*
X149059719Y-20616874D01*
X148998528Y-20496780D01*
X148921249Y-20419501D01*
X148893474Y-20364987D01*
X148903045Y-20304555D01*
X148946310Y-20261290D01*
X148991255Y-20250500D01*
X151158745Y-20250500D01*
X151216936Y-20269407D01*
X151252900Y-20318907D01*
X151252900Y-20380093D01*
X151228750Y-20419501D01*
X151151472Y-20496780D01*
X151151470Y-20496782D01*
X151090282Y-20616870D01*
X151090281Y-20616872D01*
X151069196Y-20749999D01*
X151069196Y-20750000D01*
X151090281Y-20883127D01*
X151090282Y-20883129D01*
X151151470Y-21003217D01*
X151151472Y-21003220D01*
X151246780Y-21098528D01*
X151366874Y-21159719D01*
X151500000Y-21180804D01*
X151633126Y-21159719D01*
X151753220Y-21098528D01*
X151848528Y-21003220D01*
X151909719Y-20883126D01*
X151930804Y-20750000D01*
X151909719Y-20616874D01*
X151848528Y-20496780D01*
X151771249Y-20419501D01*
X151743474Y-20364987D01*
X151753045Y-20304555D01*
X151796310Y-20261290D01*
X151841255Y-20250500D01*
X155550500Y-20250500D01*
X155608691Y-20269407D01*
X155644655Y-20318907D01*
X155649500Y-20349500D01*
X155649500Y-27205805D01*
X155649366Y-27209450D01*
X155648969Y-27214815D01*
X155649500Y-27236406D01*
X155649500Y-27262866D01*
X155649388Y-27262866D01*
X155649284Y-27271350D01*
X155649687Y-27271360D01*
X155649567Y-27276223D01*
X155650840Y-27293488D01*
X155650959Y-27295909D01*
X155651384Y-27313207D01*
X155651980Y-27318037D01*
X155651402Y-27318108D01*
X155652478Y-27332684D01*
X155653059Y-27332670D01*
X155653177Y-27337530D01*
X155655298Y-27354726D01*
X155655535Y-27357138D01*
X155656807Y-27374378D01*
X155657639Y-27379168D01*
X155657063Y-27379267D01*
X155658853Y-27393770D01*
X155659435Y-27393728D01*
X155659793Y-27398575D01*
X155659793Y-27398578D01*
X155660900Y-27404957D01*
X155662752Y-27415636D01*
X155663108Y-27418036D01*
X155665226Y-27435213D01*
X155666292Y-27439957D01*
X155665724Y-27440084D01*
X155668224Y-27454485D01*
X155668799Y-27454415D01*
X155669393Y-27459233D01*
X155673190Y-27476141D01*
X155673661Y-27478508D01*
X155674385Y-27482685D01*
X155676619Y-27495561D01*
X155677916Y-27500244D01*
X155677354Y-27500399D01*
X155680556Y-27514654D01*
X155681129Y-27514555D01*
X155681960Y-27519344D01*
X155686578Y-27536032D01*
X155687168Y-27538386D01*
X155690960Y-27555270D01*
X155692484Y-27559882D01*
X155691930Y-27560064D01*
X155695829Y-27574150D01*
X155696397Y-27574023D01*
X155697461Y-27578762D01*
X155697462Y-27578766D01*
X155697774Y-27579712D01*
X155702892Y-27595204D01*
X155703595Y-27597524D01*
X155708213Y-27614208D01*
X155709964Y-27618747D01*
X155709417Y-27618957D01*
X155714000Y-27632824D01*
X155714563Y-27632669D01*
X155715859Y-27637350D01*
X155715860Y-27637353D01*
X155715861Y-27637357D01*
X155722083Y-27653486D01*
X155722901Y-27655773D01*
X155728337Y-27672229D01*
X155730309Y-27676677D01*
X155729775Y-27676913D01*
X155735032Y-27690539D01*
X155735587Y-27690356D01*
X155737112Y-27694973D01*
X155744123Y-27710790D01*
X155745053Y-27713036D01*
X155751286Y-27729194D01*
X155753473Y-27733539D01*
X155752951Y-27733801D01*
X155758869Y-27747147D01*
X155759413Y-27746938D01*
X155761162Y-27751474D01*
X155766182Y-27761445D01*
X155775458Y-27821923D01*
X155747415Y-27876304D01*
X155742586Y-27880778D01*
X155717855Y-27902207D01*
X155640049Y-28023276D01*
X155640046Y-28023283D01*
X155599500Y-28161369D01*
X155599500Y-28305298D01*
X155640046Y-28443384D01*
X155640049Y-28443391D01*
X155717856Y-28564461D01*
X155717858Y-28564463D01*
X155826400Y-28658515D01*
X155857996Y-28710910D01*
X155852760Y-28771871D01*
X155826400Y-28808153D01*
X155717858Y-28902204D01*
X155717856Y-28902206D01*
X155640049Y-29023276D01*
X155640046Y-29023283D01*
X155599500Y-29161369D01*
X155599500Y-29305298D01*
X155640046Y-29443384D01*
X155640049Y-29443391D01*
X155717856Y-29564461D01*
X155717858Y-29564463D01*
X155826400Y-29658515D01*
X155857996Y-29710910D01*
X155852760Y-29771871D01*
X155826400Y-29808153D01*
X155717858Y-29902204D01*
X155717856Y-29902206D01*
X155640049Y-30023276D01*
X155640046Y-30023283D01*
X155599500Y-30161369D01*
X155599500Y-30305298D01*
X155640046Y-30443384D01*
X155640049Y-30443391D01*
X155674808Y-30497477D01*
X155690363Y-30556652D01*
X155668164Y-30613668D01*
X155616691Y-30646748D01*
X155591524Y-30650000D01*
X151650000Y-30650000D01*
X151650000Y-36950000D01*
X153950500Y-36950000D01*
X154008691Y-36968907D01*
X154044655Y-37018407D01*
X154049500Y-37049000D01*
X154049500Y-37537953D01*
X154030593Y-37596144D01*
X154020501Y-37607959D01*
X154007804Y-37620655D01*
X153953286Y-37648431D01*
X153892854Y-37638857D01*
X153867802Y-37620655D01*
X153837511Y-37590364D01*
X153733170Y-37539355D01*
X153733171Y-37539355D01*
X153716259Y-37536891D01*
X153665528Y-37529500D01*
X153304472Y-37529500D01*
X153263886Y-37535413D01*
X153236828Y-37539355D01*
X153174148Y-37569998D01*
X153132489Y-37590364D01*
X153070001Y-37652851D01*
X153015487Y-37680627D01*
X152955055Y-37671056D01*
X152929999Y-37652852D01*
X152867511Y-37590364D01*
X152763170Y-37539355D01*
X152763171Y-37539355D01*
X152746259Y-37536891D01*
X152695528Y-37529500D01*
X152334472Y-37529500D01*
X152293886Y-37535413D01*
X152266828Y-37539355D01*
X152162489Y-37590364D01*
X152132199Y-37620654D01*
X152077682Y-37648430D01*
X152017250Y-37638858D01*
X151992195Y-37620655D01*
X151968316Y-37596776D01*
X151968314Y-37596775D01*
X151968313Y-37596774D01*
X151859489Y-37546029D01*
X151859488Y-37546028D01*
X151842958Y-37543852D01*
X151809901Y-37539500D01*
X151809899Y-37539500D01*
X151390103Y-37539500D01*
X151390092Y-37539501D01*
X151340515Y-37546027D01*
X151231016Y-37597087D01*
X151170287Y-37604543D01*
X151151292Y-37598826D01*
X151026645Y-37547197D01*
X151012803Y-37540145D01*
X150872293Y-37454042D01*
X150859726Y-37444911D01*
X150730106Y-37334208D01*
X150727251Y-37331569D01*
X150689244Y-37293563D01*
X149940773Y-36545091D01*
X149940772Y-36545089D01*
X149931033Y-36535350D01*
X149930990Y-36535266D01*
X149785149Y-36389428D01*
X149785147Y-36389426D01*
X149530669Y-36180586D01*
X149530664Y-36180582D01*
X149256944Y-35997693D01*
X148966626Y-35842519D01*
X148966621Y-35842516D01*
X148966616Y-35842514D01*
X148966607Y-35842510D01*
X148966600Y-35842507D01*
X148662480Y-35716540D01*
X148662468Y-35716535D01*
X148347450Y-35620980D01*
X148024566Y-35556759D01*
X147955932Y-35550000D01*
X149519196Y-35550000D01*
X149540281Y-35683127D01*
X149540282Y-35683129D01*
X149596981Y-35794406D01*
X149601472Y-35803220D01*
X149696780Y-35898528D01*
X149816874Y-35959719D01*
X149950000Y-35980804D01*
X150083126Y-35959719D01*
X150203220Y-35898528D01*
X150298528Y-35803220D01*
X150359719Y-35683126D01*
X150380804Y-35550000D01*
X150359719Y-35416874D01*
X150298528Y-35296780D01*
X150203220Y-35201472D01*
X150203217Y-35201470D01*
X150083129Y-35140282D01*
X150083127Y-35140281D01*
X149950000Y-35119196D01*
X149816872Y-35140281D01*
X149816870Y-35140282D01*
X149696782Y-35201470D01*
X149601470Y-35296782D01*
X149540282Y-35416870D01*
X149540281Y-35416872D01*
X149519196Y-35549999D01*
X149519196Y-35550000D01*
X147955932Y-35550000D01*
X147696963Y-35524497D01*
X147696955Y-35524497D01*
X147532354Y-35524500D01*
X147095960Y-35524500D01*
X147009617Y-35538908D01*
X147001864Y-35541570D01*
X147001418Y-35540273D01*
X146964976Y-35549500D01*
X146849499Y-35549500D01*
X146791308Y-35530593D01*
X146755344Y-35481093D01*
X146750499Y-35450505D01*
X146750499Y-34811600D01*
X146735240Y-34734883D01*
X146677112Y-34647888D01*
X146641852Y-34624328D01*
X146603972Y-34576278D01*
X146599072Y-34557499D01*
X146584719Y-34466874D01*
X146584716Y-34466869D01*
X146584716Y-34466867D01*
X146523529Y-34346782D01*
X146523528Y-34346780D01*
X146428220Y-34251472D01*
X146308515Y-34190479D01*
X146303079Y-34187709D01*
X146259815Y-34144445D01*
X146250244Y-34084012D01*
X146278022Y-34029496D01*
X146332538Y-34001719D01*
X146348025Y-34000500D01*
X146634836Y-34000500D01*
X146648511Y-34002732D01*
X146648683Y-34001506D01*
X146657764Y-34002772D01*
X146657765Y-34002773D01*
X146657765Y-34002772D01*
X146657766Y-34002773D01*
X146666507Y-34002368D01*
X146705793Y-34000552D01*
X146708070Y-34000500D01*
X146727841Y-34000500D01*
X146727844Y-34000500D01*
X146731337Y-33999846D01*
X146738141Y-33999056D01*
X146769992Y-33997585D01*
X146778976Y-33993617D01*
X146800777Y-33986865D01*
X146810433Y-33985061D01*
X146837543Y-33968274D01*
X146843589Y-33965088D01*
X146872765Y-33952206D01*
X146879709Y-33945260D01*
X146897601Y-33931089D01*
X146905952Y-33925919D01*
X146925165Y-33900474D01*
X146929662Y-33895308D01*
X147004646Y-33820324D01*
X147091609Y-33733360D01*
X147146124Y-33705585D01*
X147206556Y-33715156D01*
X147231611Y-33733359D01*
X147296780Y-33798528D01*
X147416874Y-33859719D01*
X147550000Y-33880804D01*
X147566860Y-33878133D01*
X147627288Y-33887703D01*
X147670554Y-33930966D01*
X147680128Y-33991398D01*
X147652352Y-34045915D01*
X147652246Y-34046006D01*
X147551470Y-34146782D01*
X147490282Y-34266870D01*
X147490281Y-34266872D01*
X147469196Y-34399999D01*
X147469196Y-34400000D01*
X147490281Y-34533127D01*
X147490282Y-34533129D01*
X147548755Y-34647888D01*
X147551472Y-34653220D01*
X147646780Y-34748528D01*
X147766874Y-34809719D01*
X147900000Y-34830804D01*
X148033126Y-34809719D01*
X148153220Y-34748528D01*
X148248528Y-34653220D01*
X148309719Y-34533126D01*
X148330804Y-34400000D01*
X148309719Y-34266874D01*
X148248528Y-34146780D01*
X148153220Y-34051472D01*
X148153217Y-34051470D01*
X148033129Y-33990282D01*
X148033127Y-33990281D01*
X147900000Y-33969196D01*
X147899998Y-33969196D01*
X147883139Y-33971866D01*
X147822707Y-33962294D01*
X147779443Y-33919029D01*
X147769872Y-33858597D01*
X147797650Y-33804081D01*
X147797757Y-33803989D01*
X147803215Y-33798530D01*
X147803220Y-33798528D01*
X147898528Y-33703220D01*
X147959719Y-33583126D01*
X147980804Y-33450000D01*
X147980454Y-33447793D01*
X147972909Y-33400153D01*
X147959719Y-33316874D01*
X147898528Y-33196780D01*
X147803220Y-33101472D01*
X147803217Y-33101470D01*
X147683129Y-33040282D01*
X147683128Y-33040281D01*
X147649741Y-33034993D01*
X147595225Y-33007214D01*
X147567449Y-32952697D01*
X147577021Y-32892265D01*
X147620286Y-32849002D01*
X147623324Y-32847519D01*
X147718316Y-32803224D01*
X147803224Y-32718316D01*
X147853972Y-32609487D01*
X147860500Y-32559901D01*
X147860499Y-32200100D01*
X147853972Y-32150513D01*
X147853972Y-32150511D01*
X147803225Y-32041686D01*
X147803224Y-32041685D01*
X147803224Y-32041684D01*
X147718316Y-31956776D01*
X147718314Y-31956775D01*
X147718313Y-31956774D01*
X147609489Y-31906029D01*
X147609488Y-31906028D01*
X147584694Y-31902764D01*
X147559901Y-31899500D01*
X147559900Y-31899500D01*
X147215479Y-31899500D01*
X147157288Y-31880593D01*
X147145475Y-31870504D01*
X146779496Y-31504525D01*
X146751719Y-31450008D01*
X146750500Y-31434521D01*
X146750500Y-30430253D01*
X146750498Y-30430241D01*
X146746416Y-30409719D01*
X146738867Y-30371769D01*
X146694552Y-30305448D01*
X146694328Y-30305298D01*
X146686399Y-30300000D01*
X148619196Y-30300000D01*
X148640281Y-30433127D01*
X148640282Y-30433129D01*
X148645509Y-30443387D01*
X148701472Y-30553220D01*
X148796780Y-30648528D01*
X148796782Y-30648529D01*
X148909655Y-30706041D01*
X148916874Y-30709719D01*
X149050000Y-30730804D01*
X149183126Y-30709719D01*
X149303220Y-30648528D01*
X149398528Y-30553220D01*
X149459719Y-30433126D01*
X149480804Y-30300000D01*
X149459719Y-30166874D01*
X149398528Y-30046780D01*
X149303220Y-29951472D01*
X149303217Y-29951470D01*
X149183129Y-29890282D01*
X149183127Y-29890281D01*
X149050000Y-29869196D01*
X148916872Y-29890281D01*
X148916870Y-29890282D01*
X148796782Y-29951470D01*
X148701470Y-30046782D01*
X148640282Y-30166870D01*
X148640281Y-30166872D01*
X148619196Y-30299999D01*
X148619196Y-30300000D01*
X146686399Y-30300000D01*
X146628233Y-30261134D01*
X146628231Y-30261133D01*
X146628228Y-30261132D01*
X146628227Y-30261132D01*
X146569758Y-30249501D01*
X146569748Y-30249500D01*
X145530252Y-30249500D01*
X145530251Y-30249500D01*
X145530241Y-30249501D01*
X145471772Y-30261132D01*
X145471766Y-30261134D01*
X145405451Y-30305445D01*
X145405445Y-30305451D01*
X145361134Y-30371766D01*
X145361132Y-30371772D01*
X145349501Y-30430241D01*
X145349500Y-30430253D01*
X145349500Y-31619746D01*
X145349501Y-31619758D01*
X145361132Y-31678227D01*
X145361134Y-31678233D01*
X145397223Y-31732243D01*
X145405448Y-31744552D01*
X145471769Y-31788867D01*
X145516231Y-31797711D01*
X145530241Y-31800498D01*
X145530246Y-31800498D01*
X145530252Y-31800500D01*
X146184521Y-31800500D01*
X146242712Y-31819407D01*
X146254525Y-31829496D01*
X146753914Y-32328885D01*
X146781691Y-32383402D01*
X146772120Y-32443834D01*
X146757069Y-32465588D01*
X146733372Y-32491581D01*
X146731796Y-32493231D01*
X146717830Y-32507198D01*
X146717817Y-32507213D01*
X146715813Y-32510138D01*
X146711561Y-32515504D01*
X146690084Y-32539065D01*
X146690083Y-32539067D01*
X146686529Y-32548240D01*
X146675896Y-32568412D01*
X146670346Y-32576515D01*
X146670342Y-32576524D01*
X146663045Y-32607545D01*
X146661016Y-32614098D01*
X146649500Y-32643824D01*
X146649500Y-32653651D01*
X146646870Y-32676318D01*
X146644621Y-32685879D01*
X146649025Y-32717452D01*
X146649500Y-32724298D01*
X146649500Y-33284521D01*
X146630593Y-33342712D01*
X146620506Y-33354522D01*
X146604528Y-33370501D01*
X146550012Y-33398281D01*
X146534522Y-33399500D01*
X145815164Y-33399500D01*
X145801488Y-33397267D01*
X145801317Y-33398494D01*
X145792233Y-33397226D01*
X145751886Y-33399092D01*
X145744206Y-33399447D01*
X145741930Y-33399500D01*
X145722153Y-33399500D01*
X145718658Y-33400153D01*
X145711845Y-33400943D01*
X145680009Y-33402414D01*
X145671005Y-33406389D01*
X145649226Y-33413132D01*
X145639568Y-33414937D01*
X145639566Y-33414938D01*
X145612471Y-33431714D01*
X145606403Y-33434913D01*
X145577234Y-33447793D01*
X145570280Y-33454747D01*
X145552403Y-33468907D01*
X145544048Y-33474080D01*
X145524839Y-33499515D01*
X145520335Y-33504692D01*
X145505593Y-33519434D01*
X145451076Y-33547211D01*
X145390644Y-33537640D01*
X145347379Y-33494375D01*
X145337808Y-33433943D01*
X145338492Y-33430114D01*
X145338868Y-33428227D01*
X145344582Y-33399500D01*
X145350499Y-33369756D01*
X145350500Y-33369746D01*
X145350500Y-32180253D01*
X145350498Y-32180241D01*
X145347711Y-32166231D01*
X145338867Y-32121769D01*
X145294552Y-32055448D01*
X145288244Y-32051233D01*
X145228233Y-32011134D01*
X145228231Y-32011133D01*
X145228228Y-32011132D01*
X145228227Y-32011132D01*
X145169758Y-31999501D01*
X145169748Y-31999500D01*
X144130252Y-31999500D01*
X144130251Y-31999500D01*
X144130241Y-31999501D01*
X144071772Y-32011132D01*
X144071766Y-32011134D01*
X143997341Y-32060865D01*
X143995491Y-32058096D01*
X143955876Y-32078281D01*
X143940389Y-32079500D01*
X143881239Y-32079500D01*
X143823048Y-32060593D01*
X143809921Y-32047235D01*
X143809348Y-32047809D01*
X143803224Y-32041685D01*
X143803224Y-32041684D01*
X143718316Y-31956776D01*
X143718314Y-31956775D01*
X143718313Y-31956774D01*
X143609489Y-31906029D01*
X143609488Y-31906028D01*
X143592958Y-31903852D01*
X143559901Y-31899500D01*
X143559899Y-31899500D01*
X143140103Y-31899500D01*
X143140092Y-31899501D01*
X143090513Y-31906027D01*
X143090511Y-31906027D01*
X142981686Y-31956774D01*
X142896774Y-32041686D01*
X142846029Y-32150510D01*
X142846028Y-32150511D01*
X142839500Y-32200100D01*
X142839500Y-32559895D01*
X142839501Y-32559907D01*
X142846027Y-32609486D01*
X142846027Y-32609488D01*
X142896774Y-32718313D01*
X142896775Y-32718314D01*
X142896776Y-32718316D01*
X142981684Y-32803224D01*
X143090513Y-32853972D01*
X143140099Y-32860500D01*
X143559900Y-32860499D01*
X143609487Y-32853972D01*
X143609488Y-32853972D01*
X143668137Y-32826622D01*
X143718316Y-32803224D01*
X143780498Y-32741041D01*
X143835013Y-32713266D01*
X143895445Y-32722837D01*
X143938710Y-32766102D01*
X143949500Y-32811047D01*
X143949500Y-33369746D01*
X143949501Y-33369758D01*
X143961132Y-33428227D01*
X143961134Y-33428233D01*
X144005445Y-33494548D01*
X144005448Y-33494552D01*
X144071769Y-33538867D01*
X144113717Y-33547211D01*
X144130241Y-33550498D01*
X144130246Y-33550498D01*
X144130252Y-33550500D01*
X144257654Y-33550500D01*
X144315845Y-33569407D01*
X144347037Y-33612339D01*
X144348710Y-33611601D01*
X144356384Y-33628982D01*
X144363133Y-33650773D01*
X144364939Y-33660433D01*
X144381717Y-33687533D01*
X144384915Y-33693600D01*
X144390208Y-33705585D01*
X144397794Y-33722765D01*
X144397796Y-33722767D01*
X144399979Y-33725954D01*
X144417265Y-33784647D01*
X144396751Y-33842291D01*
X144346272Y-33876868D01*
X144333791Y-33879682D01*
X144266872Y-33890281D01*
X144266870Y-33890282D01*
X144146782Y-33951470D01*
X144146777Y-33951473D01*
X144114012Y-33984239D01*
X144059495Y-34012016D01*
X143999063Y-34002444D01*
X143955800Y-33959181D01*
X143915864Y-33880804D01*
X143898528Y-33846780D01*
X143803220Y-33751472D01*
X143803217Y-33751470D01*
X143683129Y-33690282D01*
X143683127Y-33690281D01*
X143550000Y-33669196D01*
X143416872Y-33690281D01*
X143416870Y-33690282D01*
X143296782Y-33751470D01*
X143296780Y-33751472D01*
X143201472Y-33846780D01*
X143186142Y-33876868D01*
X143185793Y-33877552D01*
X143142528Y-33920815D01*
X143082095Y-33930386D01*
X143027580Y-33902609D01*
X142379496Y-33254525D01*
X142351719Y-33200008D01*
X142350500Y-33184521D01*
X142350500Y-31315478D01*
X142369407Y-31257287D01*
X142379490Y-31245480D01*
X143624969Y-30000000D01*
X144169196Y-30000000D01*
X144190281Y-30133127D01*
X144190282Y-30133129D01*
X144249577Y-30249501D01*
X144251472Y-30253220D01*
X144346780Y-30348528D01*
X144466874Y-30409719D01*
X144600000Y-30430804D01*
X144733126Y-30409719D01*
X144853220Y-30348528D01*
X144948528Y-30253220D01*
X145009719Y-30133126D01*
X145030804Y-30000000D01*
X145030253Y-29996524D01*
X145023118Y-29951472D01*
X145009719Y-29866874D01*
X144948528Y-29746780D01*
X144853220Y-29651472D01*
X144853217Y-29651470D01*
X144733129Y-29590282D01*
X144733127Y-29590281D01*
X144600000Y-29569196D01*
X144466872Y-29590281D01*
X144466870Y-29590282D01*
X144346782Y-29651470D01*
X144251470Y-29746782D01*
X144190282Y-29866870D01*
X144190281Y-29866872D01*
X144169196Y-29999999D01*
X144169196Y-30000000D01*
X143624969Y-30000000D01*
X144166405Y-29458564D01*
X144177664Y-29450493D01*
X144176905Y-29449487D01*
X144184221Y-29443961D01*
X144184228Y-29443958D01*
X144216632Y-29408411D01*
X144218186Y-29406783D01*
X144232174Y-29392797D01*
X144234181Y-29389865D01*
X144238440Y-29384490D01*
X144259916Y-29360933D01*
X144263465Y-29351770D01*
X144274106Y-29331582D01*
X144279656Y-29323481D01*
X144286955Y-29292443D01*
X144288977Y-29285914D01*
X144300500Y-29256173D01*
X144300500Y-29246348D01*
X144303129Y-29223683D01*
X144305379Y-29214119D01*
X144300975Y-29182547D01*
X144300500Y-29175701D01*
X144300500Y-29065479D01*
X144319407Y-29007288D01*
X144329496Y-28995475D01*
X144614061Y-28710910D01*
X144905578Y-28419392D01*
X144960093Y-28391617D01*
X145020525Y-28401188D01*
X145063790Y-28444453D01*
X145073361Y-28504885D01*
X145070317Y-28518136D01*
X145013975Y-28703867D01*
X145013974Y-28703873D01*
X144994659Y-28899996D01*
X144994659Y-28900003D01*
X145013974Y-29096126D01*
X145013975Y-29096129D01*
X145071187Y-29284730D01*
X145071188Y-29284732D01*
X145107023Y-29351773D01*
X145164090Y-29458538D01*
X145164092Y-29458540D01*
X145164093Y-29458542D01*
X145289112Y-29610878D01*
X145289121Y-29610887D01*
X145420247Y-29718499D01*
X145441462Y-29735910D01*
X145615273Y-29828814D01*
X145803868Y-29886024D01*
X145803870Y-29886024D01*
X145803873Y-29886025D01*
X145999997Y-29905341D01*
X146000000Y-29905341D01*
X146000003Y-29905341D01*
X146196126Y-29886025D01*
X146196127Y-29886024D01*
X146196132Y-29886024D01*
X146384727Y-29828814D01*
X146558538Y-29735910D01*
X146710883Y-29610883D01*
X146835910Y-29458538D01*
X146928814Y-29284727D01*
X146986024Y-29096132D01*
X146994775Y-29007288D01*
X147005341Y-28900003D01*
X147005341Y-28899996D01*
X146986025Y-28703873D01*
X146986024Y-28703870D01*
X146986024Y-28703868D01*
X146928814Y-28515273D01*
X146924500Y-28507203D01*
X146884702Y-28432745D01*
X146835910Y-28341462D01*
X146806231Y-28305298D01*
X146710887Y-28189121D01*
X146710878Y-28189112D01*
X146558542Y-28064093D01*
X146558540Y-28064092D01*
X146558538Y-28064090D01*
X146513899Y-28040230D01*
X146384732Y-27971188D01*
X146384729Y-27971187D01*
X146384727Y-27971186D01*
X146351250Y-27961030D01*
X146339265Y-27957395D01*
X146289069Y-27922408D01*
X146269024Y-27864600D01*
X146286786Y-27806049D01*
X146298002Y-27792654D01*
X146761162Y-27329496D01*
X146815678Y-27301719D01*
X146831165Y-27300500D01*
X146930252Y-27300500D01*
X147100051Y-27300500D01*
X147158242Y-27319407D01*
X147194206Y-27368907D01*
X147198945Y-27394928D01*
X147199447Y-27405784D01*
X147199500Y-27408070D01*
X147199500Y-27427844D01*
X147200150Y-27431326D01*
X147200152Y-27431332D01*
X147200942Y-27438146D01*
X147201032Y-27440084D01*
X147202414Y-27469987D01*
X147202415Y-27469994D01*
X147206384Y-27478982D01*
X147213133Y-27500773D01*
X147214939Y-27510433D01*
X147231717Y-27537533D01*
X147234915Y-27543600D01*
X147247793Y-27572763D01*
X147247794Y-27572765D01*
X147254745Y-27579716D01*
X147268907Y-27597596D01*
X147273767Y-27605445D01*
X147274081Y-27605952D01*
X147299511Y-27625156D01*
X147304690Y-27629662D01*
X147520504Y-27845475D01*
X147548281Y-27899992D01*
X147549500Y-27915479D01*
X147549500Y-28069746D01*
X147549501Y-28069758D01*
X147561132Y-28128227D01*
X147561134Y-28128233D01*
X147583275Y-28161369D01*
X147605448Y-28194552D01*
X147671769Y-28238867D01*
X147716231Y-28247711D01*
X147730241Y-28250498D01*
X147730246Y-28250498D01*
X147730252Y-28250500D01*
X147730253Y-28250500D01*
X148269747Y-28250500D01*
X148269748Y-28250500D01*
X148328231Y-28238867D01*
X148394552Y-28194552D01*
X148417685Y-28159930D01*
X148465735Y-28122052D01*
X148526873Y-28119650D01*
X148577746Y-28153643D01*
X148582310Y-28159924D01*
X148605448Y-28194552D01*
X148671769Y-28238867D01*
X148716231Y-28247711D01*
X148730241Y-28250498D01*
X148730246Y-28250498D01*
X148730252Y-28250500D01*
X148730253Y-28250500D01*
X149269747Y-28250500D01*
X149269748Y-28250500D01*
X149328231Y-28238867D01*
X149394552Y-28194552D01*
X149438867Y-28128231D01*
X149450500Y-28069748D01*
X149450500Y-27915477D01*
X149469407Y-27857286D01*
X149479490Y-27845479D01*
X149666403Y-27658566D01*
X149677664Y-27650493D01*
X149676905Y-27649487D01*
X149684221Y-27643961D01*
X149684228Y-27643958D01*
X149716632Y-27608411D01*
X149718186Y-27606783D01*
X149732174Y-27592797D01*
X149734181Y-27589865D01*
X149738440Y-27584490D01*
X149742796Y-27579712D01*
X149759916Y-27560933D01*
X149763466Y-27551767D01*
X149774107Y-27531581D01*
X149779657Y-27523480D01*
X149786956Y-27492443D01*
X149788980Y-27485908D01*
X149800500Y-27456173D01*
X149800500Y-27446348D01*
X149803129Y-27423683D01*
X149805379Y-27414119D01*
X149805248Y-27413179D01*
X149805484Y-27411845D01*
X149805803Y-27404957D01*
X149806699Y-27404998D01*
X149815933Y-27352935D01*
X149859988Y-27310476D01*
X149903298Y-27300500D01*
X150069747Y-27300500D01*
X150069748Y-27300500D01*
X150128231Y-27288867D01*
X150194552Y-27244552D01*
X150238867Y-27178231D01*
X150250500Y-27119748D01*
X150250500Y-25857225D01*
X150258782Y-25831734D01*
X150258467Y-25831374D01*
X150250500Y-25792465D01*
X150250500Y-24759965D01*
X150260154Y-24730250D01*
X150258411Y-24722989D01*
X150438380Y-24722989D01*
X150447281Y-24744478D01*
X150465281Y-24858127D01*
X150465282Y-24858129D01*
X150526470Y-24978217D01*
X150526472Y-24978220D01*
X150621780Y-25073528D01*
X150621782Y-25073529D01*
X150680173Y-25103281D01*
X150741874Y-25134719D01*
X150875000Y-25155804D01*
X151008126Y-25134719D01*
X151105556Y-25085075D01*
X151165986Y-25075504D01*
X151220503Y-25103281D01*
X151248281Y-25157797D01*
X151249500Y-25173285D01*
X151249500Y-25300500D01*
X151230593Y-25358691D01*
X151181093Y-25394655D01*
X151150500Y-25399500D01*
X150866234Y-25399500D01*
X150765712Y-25414652D01*
X150643357Y-25473574D01*
X150543808Y-25565942D01*
X150543805Y-25565947D01*
X150475904Y-25683555D01*
X150446018Y-25814495D01*
X150439354Y-25825647D01*
X150448223Y-25849826D01*
X150455833Y-25951375D01*
X150505449Y-26077796D01*
X150590117Y-26183967D01*
X150590121Y-26183970D01*
X150702325Y-26260471D01*
X150702327Y-26260472D01*
X150832098Y-26300500D01*
X151150500Y-26300500D01*
X151208691Y-26319407D01*
X151244655Y-26368907D01*
X151249500Y-26399500D01*
X151249500Y-27119746D01*
X151249501Y-27119758D01*
X151261132Y-27178227D01*
X151261134Y-27178233D01*
X151301808Y-27239105D01*
X151305448Y-27244552D01*
X151371769Y-27288867D01*
X151416231Y-27297711D01*
X151430241Y-27300498D01*
X151430246Y-27300498D01*
X151430252Y-27300500D01*
X151430253Y-27300500D01*
X152569747Y-27300500D01*
X152569748Y-27300500D01*
X152628231Y-27288867D01*
X152694552Y-27244552D01*
X152738867Y-27178231D01*
X152750500Y-27119748D01*
X152750500Y-24580252D01*
X152738867Y-24521769D01*
X152694552Y-24455448D01*
X152694548Y-24455445D01*
X152628233Y-24411134D01*
X152628231Y-24411133D01*
X152628228Y-24411132D01*
X152628227Y-24411132D01*
X152569758Y-24399501D01*
X152569748Y-24399500D01*
X151430252Y-24399500D01*
X151430251Y-24399500D01*
X151430241Y-24399501D01*
X151371772Y-24411132D01*
X151371766Y-24411134D01*
X151314105Y-24449663D01*
X151255217Y-24466272D01*
X151197813Y-24445095D01*
X151189107Y-24437359D01*
X151128220Y-24376472D01*
X151128217Y-24376470D01*
X151008129Y-24315282D01*
X151008127Y-24315281D01*
X150875000Y-24294196D01*
X150741872Y-24315281D01*
X150741870Y-24315282D01*
X150621782Y-24376470D01*
X150526470Y-24471782D01*
X150465282Y-24591870D01*
X150465281Y-24591872D01*
X150447281Y-24705521D01*
X150438380Y-24722989D01*
X150258411Y-24722989D01*
X150250500Y-24690034D01*
X150250500Y-24580253D01*
X150250498Y-24580241D01*
X150240664Y-24530804D01*
X150238867Y-24521769D01*
X150194552Y-24455448D01*
X150194548Y-24455445D01*
X150128233Y-24411134D01*
X150128231Y-24411133D01*
X150128228Y-24411132D01*
X150128227Y-24411132D01*
X150069758Y-24399501D01*
X150069748Y-24399500D01*
X150069747Y-24399500D01*
X149215479Y-24399500D01*
X149157288Y-24380593D01*
X149145475Y-24370504D01*
X148858565Y-24083594D01*
X148850479Y-24072344D01*
X148849487Y-24073094D01*
X148843958Y-24065772D01*
X148808428Y-24033382D01*
X148806775Y-24031804D01*
X148792797Y-24017826D01*
X148789859Y-24015813D01*
X148784496Y-24011564D01*
X148760933Y-23990084D01*
X148751762Y-23986531D01*
X148731586Y-23975895D01*
X148723484Y-23970345D01*
X148723479Y-23970343D01*
X148692457Y-23963046D01*
X148685902Y-23961016D01*
X148656177Y-23949501D01*
X148656174Y-23949500D01*
X148656173Y-23949500D01*
X148656172Y-23949500D01*
X148646348Y-23949500D01*
X148623683Y-23946870D01*
X148614119Y-23944621D01*
X148614118Y-23944621D01*
X148582547Y-23949025D01*
X148575701Y-23949500D01*
X146865165Y-23949500D01*
X146851489Y-23947267D01*
X146851318Y-23948494D01*
X146842234Y-23947226D01*
X146801887Y-23949092D01*
X146794207Y-23949447D01*
X146791931Y-23949500D01*
X146772153Y-23949500D01*
X146768658Y-23950153D01*
X146761845Y-23950943D01*
X146730011Y-23952414D01*
X146730007Y-23952415D01*
X146721013Y-23956386D01*
X146699224Y-23963133D01*
X146686216Y-23965565D01*
X146645582Y-23960280D01*
X146638323Y-23984455D01*
X146626948Y-23998081D01*
X146620289Y-24004740D01*
X146602406Y-24018905D01*
X146594048Y-24024080D01*
X146574839Y-24049515D01*
X146570335Y-24054692D01*
X146433590Y-24191437D01*
X146422361Y-24199550D01*
X146423090Y-24200515D01*
X146415771Y-24206041D01*
X146383372Y-24241580D01*
X146381796Y-24243231D01*
X146367830Y-24257198D01*
X146367817Y-24257213D01*
X146365813Y-24260138D01*
X146361561Y-24265504D01*
X146340084Y-24289065D01*
X146340083Y-24289067D01*
X146336529Y-24298240D01*
X146325896Y-24318412D01*
X146320346Y-24326515D01*
X146320342Y-24326524D01*
X146313045Y-24357545D01*
X146311016Y-24364098D01*
X146299500Y-24393824D01*
X146299500Y-24403651D01*
X146296870Y-24426318D01*
X146294621Y-24435881D01*
X146296544Y-24449663D01*
X146299025Y-24467452D01*
X146299500Y-24474298D01*
X146299500Y-24813499D01*
X146280593Y-24871690D01*
X146231093Y-24907654D01*
X146169907Y-24907654D01*
X146155556Y-24901709D01*
X146133127Y-24890281D01*
X146000000Y-24869196D01*
X145866872Y-24890281D01*
X145866870Y-24890282D01*
X145746782Y-24951470D01*
X145651470Y-25046782D01*
X145590282Y-25166870D01*
X145590281Y-25166872D01*
X145569196Y-25299999D01*
X145569196Y-25300000D01*
X145590281Y-25433127D01*
X145590282Y-25433129D01*
X145651470Y-25553217D01*
X145651472Y-25553220D01*
X145746780Y-25648528D01*
X145866874Y-25709719D01*
X146000000Y-25730804D01*
X146133126Y-25709719D01*
X146155555Y-25698290D01*
X146215985Y-25688719D01*
X146270502Y-25716495D01*
X146298281Y-25771011D01*
X146299500Y-25786500D01*
X146299500Y-26334521D01*
X146280593Y-26392712D01*
X146270504Y-26404525D01*
X145604525Y-27070504D01*
X145550008Y-27098281D01*
X145534521Y-27099500D01*
X144965165Y-27099500D01*
X144951489Y-27097267D01*
X144951318Y-27098494D01*
X144942234Y-27097226D01*
X144901887Y-27099092D01*
X144894207Y-27099447D01*
X144891931Y-27099500D01*
X144872153Y-27099500D01*
X144868658Y-27100153D01*
X144861845Y-27100943D01*
X144830011Y-27102414D01*
X144830007Y-27102415D01*
X144821013Y-27106386D01*
X144799228Y-27113132D01*
X144789571Y-27114937D01*
X144789565Y-27114940D01*
X144762465Y-27131718D01*
X144756396Y-27134917D01*
X144727238Y-27147792D01*
X144727231Y-27147796D01*
X144720286Y-27154742D01*
X144702406Y-27168905D01*
X144694048Y-27174080D01*
X144674839Y-27199515D01*
X144670335Y-27204692D01*
X143442282Y-28432745D01*
X143387765Y-28460522D01*
X143327333Y-28450951D01*
X143284068Y-28407686D01*
X143282554Y-28404581D01*
X143253225Y-28341686D01*
X143253224Y-28341685D01*
X143253224Y-28341684D01*
X143181541Y-28270001D01*
X143153766Y-28215487D01*
X143163337Y-28155055D01*
X143181540Y-28129999D01*
X143253224Y-28058316D01*
X143253224Y-28058314D01*
X143259348Y-28052191D01*
X143261394Y-28054237D01*
X143299006Y-28025894D01*
X143331239Y-28020500D01*
X143364836Y-28020500D01*
X143378511Y-28022732D01*
X143378683Y-28021506D01*
X143387764Y-28022772D01*
X143387765Y-28022773D01*
X143387765Y-28022772D01*
X143387766Y-28022773D01*
X143396507Y-28022368D01*
X143435793Y-28020552D01*
X143438070Y-28020500D01*
X143457841Y-28020500D01*
X143457844Y-28020500D01*
X143461337Y-28019846D01*
X143468141Y-28019056D01*
X143499992Y-28017585D01*
X143508976Y-28013617D01*
X143530777Y-28006865D01*
X143540433Y-28005061D01*
X143567543Y-27988274D01*
X143573589Y-27985088D01*
X143602765Y-27972206D01*
X143609709Y-27965260D01*
X143627601Y-27951089D01*
X143635952Y-27945919D01*
X143655165Y-27920474D01*
X143659662Y-27915308D01*
X143903201Y-27671769D01*
X144166405Y-27408564D01*
X144177664Y-27400493D01*
X144176905Y-27399487D01*
X144184221Y-27393961D01*
X144184228Y-27393958D01*
X144216632Y-27358411D01*
X144218186Y-27356783D01*
X144232174Y-27342797D01*
X144234181Y-27339865D01*
X144238440Y-27334490D01*
X144259916Y-27310933D01*
X144263466Y-27301767D01*
X144274107Y-27281581D01*
X144279657Y-27273480D01*
X144286956Y-27242443D01*
X144288980Y-27235908D01*
X144296072Y-27217601D01*
X144318379Y-27183368D01*
X144348528Y-27153220D01*
X144409719Y-27033126D01*
X144430804Y-26900000D01*
X144409719Y-26766874D01*
X144348528Y-26646780D01*
X144253220Y-26551472D01*
X144253217Y-26551470D01*
X144133129Y-26490282D01*
X144133127Y-26490281D01*
X144000000Y-26469196D01*
X143866874Y-26490281D01*
X143795149Y-26526827D01*
X143748888Y-26550398D01*
X143688456Y-26559969D01*
X143633941Y-26532193D01*
X143553220Y-26451472D01*
X143553217Y-26451470D01*
X143433129Y-26390282D01*
X143433127Y-26390281D01*
X143300000Y-26369196D01*
X143166874Y-26390281D01*
X143166873Y-26390281D01*
X143159179Y-26391500D01*
X143158818Y-26389225D01*
X143108928Y-26389213D01*
X143069540Y-26365071D01*
X143058491Y-26354022D01*
X143040404Y-26335935D01*
X143040402Y-26335934D01*
X143040401Y-26335933D01*
X142933175Y-26285932D01*
X142900601Y-26281644D01*
X142884316Y-26279500D01*
X142535684Y-26279500D01*
X142519398Y-26281644D01*
X142486825Y-26285932D01*
X142486824Y-26285932D01*
X142379598Y-26335933D01*
X142295933Y-26419598D01*
X142289724Y-26432915D01*
X142247995Y-26477663D01*
X142187934Y-26489337D01*
X142132482Y-26463478D01*
X142110276Y-26432915D01*
X142104066Y-26419598D01*
X142104065Y-26419597D01*
X142104065Y-26419596D01*
X142093005Y-26408536D01*
X142065230Y-26354022D01*
X142074801Y-26293590D01*
X142093005Y-26268534D01*
X142143224Y-26218316D01*
X142193972Y-26109487D01*
X142200500Y-26059901D01*
X142200499Y-25640100D01*
X142193972Y-25590513D01*
X142193972Y-25590511D01*
X142143225Y-25481686D01*
X142143224Y-25481685D01*
X142143224Y-25481684D01*
X142058316Y-25396776D01*
X142058314Y-25396775D01*
X142058313Y-25396774D01*
X141957661Y-25349839D01*
X141912913Y-25308111D01*
X141900500Y-25260115D01*
X141900500Y-25042255D01*
X141919407Y-24984064D01*
X141929490Y-24972257D01*
X141948528Y-24953220D01*
X142009719Y-24833126D01*
X142030804Y-24700000D01*
X142009719Y-24566874D01*
X141948528Y-24446780D01*
X141853220Y-24351472D01*
X141853217Y-24351470D01*
X141733129Y-24290282D01*
X141733127Y-24290281D01*
X141600000Y-24269196D01*
X141466874Y-24290281D01*
X141466873Y-24290281D01*
X141464987Y-24290580D01*
X141404555Y-24281009D01*
X141361290Y-24237744D01*
X141350500Y-24192799D01*
X141350500Y-24100000D01*
X144969196Y-24100000D01*
X144990281Y-24233127D01*
X144990282Y-24233129D01*
X145049615Y-24349576D01*
X145051472Y-24353220D01*
X145146780Y-24448528D01*
X145266874Y-24509719D01*
X145400000Y-24530804D01*
X145533126Y-24509719D01*
X145653220Y-24448528D01*
X145748528Y-24353220D01*
X145809719Y-24233126D01*
X145830804Y-24100000D01*
X145809719Y-23966874D01*
X145809718Y-23966872D01*
X145809591Y-23966070D01*
X145819162Y-23905638D01*
X145862427Y-23862374D01*
X145922859Y-23852802D01*
X145940070Y-23857139D01*
X146020738Y-23885366D01*
X146020742Y-23885367D01*
X146020745Y-23885368D01*
X146020746Y-23885368D01*
X146020750Y-23885369D01*
X146155029Y-23900499D01*
X146155045Y-23900499D01*
X146155046Y-23900500D01*
X146155047Y-23900500D01*
X146244953Y-23900500D01*
X146244954Y-23900500D01*
X146244955Y-23900499D01*
X146244970Y-23900499D01*
X146379249Y-23885369D01*
X146379251Y-23885368D01*
X146379255Y-23885368D01*
X146524247Y-23834632D01*
X146580352Y-23833372D01*
X146596103Y-23800217D01*
X146615352Y-23784425D01*
X146617418Y-23783127D01*
X146702262Y-23729816D01*
X146782078Y-23650000D01*
X149469196Y-23650000D01*
X149490281Y-23783127D01*
X149490282Y-23783129D01*
X149550086Y-23900500D01*
X149551472Y-23903220D01*
X149646780Y-23998528D01*
X149646782Y-23998529D01*
X149746847Y-24049515D01*
X149766874Y-24059719D01*
X149900000Y-24080804D01*
X150033126Y-24059719D01*
X150153220Y-23998528D01*
X150248528Y-23903220D01*
X150278218Y-23844949D01*
X150321481Y-23801687D01*
X150381913Y-23792116D01*
X150419098Y-23806072D01*
X150450474Y-23825787D01*
X150450475Y-23825787D01*
X150450478Y-23825789D01*
X150510473Y-23846782D01*
X150620738Y-23885366D01*
X150620742Y-23885367D01*
X150620745Y-23885368D01*
X150620746Y-23885368D01*
X150620750Y-23885369D01*
X150755029Y-23900499D01*
X150755045Y-23900499D01*
X150755046Y-23900500D01*
X150755047Y-23900500D01*
X150844953Y-23900500D01*
X150844954Y-23900500D01*
X150844955Y-23900499D01*
X150844970Y-23900499D01*
X150979249Y-23885369D01*
X150979251Y-23885368D01*
X150979255Y-23885368D01*
X151149522Y-23825789D01*
X151302262Y-23729816D01*
X151429816Y-23602262D01*
X151525789Y-23449522D01*
X151585368Y-23279255D01*
X151605565Y-23100000D01*
X151585368Y-22920745D01*
X151525789Y-22750478D01*
X151429816Y-22597738D01*
X151302262Y-22470184D01*
X151302259Y-22470182D01*
X151302258Y-22470181D01*
X151149523Y-22374211D01*
X150979261Y-22314633D01*
X150979249Y-22314630D01*
X150844970Y-22299500D01*
X150844954Y-22299500D01*
X150755046Y-22299500D01*
X150755029Y-22299500D01*
X150620750Y-22314630D01*
X150620738Y-22314633D01*
X150450477Y-22374211D01*
X150450476Y-22374211D01*
X150297741Y-22470181D01*
X150170181Y-22597741D01*
X150074211Y-22750476D01*
X150074211Y-22750477D01*
X150014633Y-22920738D01*
X150014632Y-22920742D01*
X149994435Y-23100000D01*
X149995462Y-23109113D01*
X149983188Y-23169054D01*
X149938025Y-23210334D01*
X149907529Y-23216934D01*
X149907695Y-23217977D01*
X149766872Y-23240281D01*
X149766870Y-23240282D01*
X149646782Y-23301470D01*
X149551470Y-23396782D01*
X149490282Y-23516870D01*
X149490281Y-23516872D01*
X149469196Y-23649999D01*
X149469196Y-23650000D01*
X146782078Y-23650000D01*
X146829816Y-23602262D01*
X146925789Y-23449522D01*
X146985368Y-23279255D01*
X147005565Y-23100000D01*
X146985368Y-22920745D01*
X146925789Y-22750478D01*
X146829816Y-22597738D01*
X146702262Y-22470184D01*
X146702259Y-22470182D01*
X146702258Y-22470181D01*
X146549523Y-22374211D01*
X146379261Y-22314633D01*
X146379249Y-22314630D01*
X146244970Y-22299500D01*
X146244954Y-22299500D01*
X146155046Y-22299500D01*
X146155029Y-22299500D01*
X146020750Y-22314630D01*
X146020738Y-22314633D01*
X145850477Y-22374211D01*
X145850476Y-22374211D01*
X145697741Y-22470181D01*
X145570181Y-22597741D01*
X145474211Y-22750476D01*
X145474211Y-22750477D01*
X145414633Y-22920738D01*
X145414632Y-22920742D01*
X145394435Y-23100000D01*
X145414632Y-23279257D01*
X145414633Y-23279261D01*
X145474211Y-23449522D01*
X145474211Y-23449523D01*
X145519738Y-23521979D01*
X145534688Y-23581310D01*
X145511909Y-23638097D01*
X145460101Y-23670649D01*
X145420425Y-23672431D01*
X145400000Y-23669196D01*
X145266872Y-23690281D01*
X145266870Y-23690282D01*
X145146782Y-23751470D01*
X145051470Y-23846782D01*
X144990282Y-23966870D01*
X144990281Y-23966872D01*
X144969196Y-24099999D01*
X144969196Y-24100000D01*
X141350500Y-24100000D01*
X141350500Y-21800000D01*
X144869196Y-21800000D01*
X144890281Y-21933127D01*
X144890282Y-21933129D01*
X144951470Y-22053217D01*
X144951472Y-22053220D01*
X145046780Y-22148528D01*
X145166874Y-22209719D01*
X145300000Y-22230804D01*
X145433126Y-22209719D01*
X145553220Y-22148528D01*
X145648528Y-22053220D01*
X145709719Y-21933126D01*
X145730804Y-21800000D01*
X145709719Y-21666874D01*
X145648528Y-21546780D01*
X145553220Y-21451472D01*
X145553217Y-21451470D01*
X145433129Y-21390282D01*
X145433127Y-21390281D01*
X145300000Y-21369196D01*
X145166872Y-21390281D01*
X145166870Y-21390282D01*
X145046782Y-21451470D01*
X144951470Y-21546782D01*
X144890282Y-21666870D01*
X144890281Y-21666872D01*
X144869196Y-21799999D01*
X144869196Y-21800000D01*
X141350500Y-21800000D01*
X141350500Y-20349500D01*
X141369407Y-20291309D01*
X141418907Y-20255345D01*
X141449500Y-20250500D01*
X145108745Y-20250500D01*
X145166936Y-20269407D01*
G37*
%TD.AperFunction*%
%TD*%
M02*
