%TF.GenerationSoftware,KiCad,Pcbnew,7.0.9*%
%TF.CreationDate,2024-04-04T21:50:02+13:00*%
%TF.ProjectId,panel,70616e65-6c2e-46b6-9963-61645f706362,rev?*%
%TF.SameCoordinates,Original*%
%TF.FileFunction,Soldermask,Top*%
%TF.FilePolarity,Negative*%
%FSLAX46Y46*%
G04 Gerber Fmt 4.6, Leading zero omitted, Abs format (unit mm)*
G04 Created by KiCad (PCBNEW 7.0.9) date 2024-04-04 21:50:02*
%MOMM*%
%LPD*%
G01*
G04 APERTURE LIST*
G04 Aperture macros list*
%AMRoundRect*
0 Rectangle with rounded corners*
0 $1 Rounding radius*
0 $2 $3 $4 $5 $6 $7 $8 $9 X,Y pos of 4 corners*
0 Add a 4 corners polygon primitive as box body*
4,1,4,$2,$3,$4,$5,$6,$7,$8,$9,$2,$3,0*
0 Add four circle primitives for the rounded corners*
1,1,$1+$1,$2,$3*
1,1,$1+$1,$4,$5*
1,1,$1+$1,$6,$7*
1,1,$1+$1,$8,$9*
0 Add four rect primitives between the rounded corners*
20,1,$1+$1,$2,$3,$4,$5,0*
20,1,$1+$1,$4,$5,$6,$7,0*
20,1,$1+$1,$6,$7,$8,$9,0*
20,1,$1+$1,$8,$9,$2,$3,0*%
G04 Aperture macros list end*
%ADD10C,1.100000*%
%ADD11O,1.900000X3.500000*%
%ADD12RoundRect,0.218750X-0.218750X-0.256250X0.218750X-0.256250X0.218750X0.256250X-0.218750X0.256250X0*%
%ADD13RoundRect,0.135000X-0.135000X-0.185000X0.135000X-0.185000X0.135000X0.185000X-0.135000X0.185000X0*%
%ADD14RoundRect,0.218750X0.256250X-0.218750X0.256250X0.218750X-0.256250X0.218750X-0.256250X-0.218750X0*%
%ADD15C,0.500000*%
%ADD16RoundRect,0.140000X0.140000X0.170000X-0.140000X0.170000X-0.140000X-0.170000X0.140000X-0.170000X0*%
%ADD17RoundRect,0.150000X-0.625000X0.150000X-0.625000X-0.150000X0.625000X-0.150000X0.625000X0.150000X0*%
%ADD18RoundRect,0.250000X-0.650000X0.350000X-0.650000X-0.350000X0.650000X-0.350000X0.650000X0.350000X0*%
%ADD19R,0.500000X2.800000*%
%ADD20R,0.600000X2.600000*%
%ADD21RoundRect,0.140000X-0.140000X-0.170000X0.140000X-0.170000X0.140000X0.170000X-0.140000X0.170000X0*%
%ADD22C,2.000000*%
%ADD23RoundRect,0.135000X0.135000X0.185000X-0.135000X0.185000X-0.135000X-0.185000X0.135000X-0.185000X0*%
%ADD24RoundRect,0.135000X-0.185000X0.135000X-0.185000X-0.135000X0.185000X-0.135000X0.185000X0.135000X0*%
%ADD25RoundRect,0.218750X-0.256250X0.218750X-0.256250X-0.218750X0.256250X-0.218750X0.256250X0.218750X0*%
%ADD26C,1.600000*%
%ADD27RoundRect,0.150000X0.150000X-0.512500X0.150000X0.512500X-0.150000X0.512500X-0.150000X-0.512500X0*%
%ADD28RoundRect,0.225000X-0.250000X0.225000X-0.250000X-0.225000X0.250000X-0.225000X0.250000X0.225000X0*%
%ADD29RoundRect,0.150000X0.150000X0.200000X-0.150000X0.200000X-0.150000X-0.200000X0.150000X-0.200000X0*%
%ADD30RoundRect,0.218750X0.218750X0.256250X-0.218750X0.256250X-0.218750X-0.256250X0.218750X-0.256250X0*%
%ADD31RoundRect,0.147500X0.172500X-0.147500X0.172500X0.147500X-0.172500X0.147500X-0.172500X-0.147500X0*%
%ADD32RoundRect,0.140000X0.170000X-0.140000X0.170000X0.140000X-0.170000X0.140000X-0.170000X-0.140000X0*%
%ADD33RoundRect,0.140000X-0.170000X0.140000X-0.170000X-0.140000X0.170000X-0.140000X0.170000X0.140000X0*%
%ADD34C,0.300000*%
%ADD35R,0.650000X1.050000*%
%ADD36R,0.350000X0.375000*%
%ADD37R,0.375000X0.350000*%
G04 APERTURE END LIST*
D10*
%TO.C,J1*%
X146200000Y-23100000D03*
X150800000Y-23100000D03*
D11*
X142800000Y-23100000D03*
X154200000Y-23100000D03*
%TD*%
D12*
%TO.C,D3*%
X147712500Y-20750000D03*
X149287500Y-20750000D03*
%TD*%
D13*
%TO.C,R18*%
X141690000Y-42300000D03*
X142710000Y-42300000D03*
%TD*%
D14*
%TO.C,L4*%
X145400000Y-32587500D03*
X145400000Y-31012500D03*
%TD*%
D15*
%TO.C,KiKit_MB_1_3*%
X140900000Y-29233334D03*
%TD*%
D16*
%TO.C,C9*%
X147180000Y-39800000D03*
X146220000Y-39800000D03*
%TD*%
D17*
%TO.C,J3*%
X152000000Y-39450000D03*
X152000000Y-40450000D03*
X152000000Y-41450000D03*
X152000000Y-42450000D03*
X152000000Y-43450000D03*
D18*
X154525000Y-38150000D03*
X154525000Y-44750000D03*
%TD*%
D15*
%TO.C,KiKit_MB_1_4*%
X140900000Y-28233334D03*
%TD*%
%TO.C,KiKit_MB_1_1*%
X140900000Y-31233334D03*
%TD*%
D19*
%TO.C,J2*%
X144000000Y-47550000D03*
X145000000Y-47550000D03*
X146000000Y-47550000D03*
X147000000Y-47550000D03*
X148000000Y-47550000D03*
X149000000Y-47550000D03*
X150000000Y-47550000D03*
X151000000Y-47550000D03*
X152000000Y-47550000D03*
X153000000Y-47550000D03*
D20*
X141725000Y-47650000D03*
X155275000Y-47650000D03*
%TD*%
D15*
%TO.C,KiKit_MB_3_2*%
X156100000Y-29233334D03*
%TD*%
D21*
%TO.C,C10*%
X148070000Y-39800000D03*
X149030000Y-39800000D03*
%TD*%
D13*
%TO.C,R26*%
X145090000Y-26100000D03*
X146110000Y-26100000D03*
%TD*%
D15*
%TO.C,KiKit_MB_3_3*%
X156100000Y-30233334D03*
%TD*%
%TO.C,KiKit_MB_3_4*%
X156100000Y-31233334D03*
%TD*%
%TO.C,KiKit_MB_1_2*%
X140900000Y-30233334D03*
%TD*%
D22*
%TO.C,KiKit_TO_3*%
X136599000Y-46700000D03*
%TD*%
D23*
%TO.C,R14*%
X149010000Y-22950000D03*
X147990000Y-22950000D03*
%TD*%
D15*
%TO.C,KiKit_MB_4_4*%
X156100000Y-40966666D03*
%TD*%
D24*
%TO.C,R5*%
X149020000Y-42370000D03*
X149020000Y-43390000D03*
%TD*%
D21*
%TO.C,C20*%
X141720000Y-34300000D03*
X142680000Y-34300000D03*
%TD*%
D13*
%TO.C,R6*%
X148990000Y-41470000D03*
X150010000Y-41470000D03*
%TD*%
D14*
%TO.C,F1*%
X144700000Y-23887500D03*
X144700000Y-22312500D03*
%TD*%
D21*
%TO.C,C15*%
X142170000Y-37250000D03*
X143130000Y-37250000D03*
%TD*%
D15*
%TO.C,KiKit_MB_4_1*%
X156100000Y-37966666D03*
%TD*%
D22*
%TO.C,KiKit_TO_1*%
X136599000Y-22500000D03*
%TD*%
D25*
%TO.C,L1*%
X149600000Y-31012500D03*
X149600000Y-32587500D03*
%TD*%
D23*
%TO.C,R13*%
X143410000Y-20750000D03*
X142390000Y-20750000D03*
%TD*%
D26*
%TO.C,C3*%
X146000000Y-28900000D03*
X151000000Y-28900000D03*
%TD*%
D13*
%TO.C,R28*%
X145090000Y-27100000D03*
X146110000Y-27100000D03*
%TD*%
D24*
%TO.C,R7*%
X150250000Y-36090000D03*
X150250000Y-37110000D03*
%TD*%
D15*
%TO.C,KiKit_MB_2_2*%
X140900000Y-39966666D03*
%TD*%
D24*
%TO.C,R8*%
X150250000Y-38090000D03*
X150250000Y-39110000D03*
%TD*%
D13*
%TO.C,R19*%
X141690000Y-43300000D03*
X142710000Y-43300000D03*
%TD*%
%TO.C,R11*%
X147990000Y-21950000D03*
X149010000Y-21950000D03*
%TD*%
D27*
%TO.C,U6*%
X141950000Y-28037500D03*
X142900000Y-28037500D03*
X143850000Y-28037500D03*
X143850000Y-25762500D03*
X141950000Y-25762500D03*
%TD*%
D12*
%TO.C,D9*%
X144562500Y-20750000D03*
X146137500Y-20750000D03*
%TD*%
D24*
%TO.C,R10*%
X149990000Y-42370000D03*
X149990000Y-43390000D03*
%TD*%
D22*
%TO.C,KiKit_TO_4*%
X160401000Y-46700000D03*
%TD*%
D13*
%TO.C,R16*%
X141690000Y-45300000D03*
X142710000Y-45300000D03*
%TD*%
D28*
%TO.C,C6*%
X148900000Y-36375000D03*
X148900000Y-37925000D03*
%TD*%
D29*
%TO.C,D5*%
X147950000Y-26250000D03*
X149350000Y-26250000D03*
%TD*%
D15*
%TO.C,KiKit_MB_2_4*%
X140900000Y-37966666D03*
%TD*%
D28*
%TO.C,C22*%
X146900000Y-31025000D03*
X146900000Y-32575000D03*
%TD*%
D15*
%TO.C,KiKit_MB_4_2*%
X156100000Y-38966666D03*
%TD*%
%TO.C,KiKit_MB_4_3*%
X156100000Y-39966666D03*
%TD*%
D21*
%TO.C,C18*%
X142170000Y-39150000D03*
X143130000Y-39150000D03*
%TD*%
D30*
%TO.C,D4*%
X152437500Y-20750000D03*
X150862500Y-20750000D03*
%TD*%
D31*
%TO.C,L2*%
X147150000Y-36085000D03*
X147150000Y-35115000D03*
%TD*%
D15*
%TO.C,KiKit_MB_2_3*%
X140900000Y-38966666D03*
%TD*%
D32*
%TO.C,C16*%
X145300000Y-40130000D03*
X145300000Y-39170000D03*
%TD*%
D33*
%TO.C,C5*%
X148100000Y-31220000D03*
X148100000Y-32180000D03*
%TD*%
D15*
%TO.C,KiKit_MB_2_1*%
X140900000Y-40966666D03*
%TD*%
D34*
%TO.C,U2*%
X149150000Y-34350000D03*
X149150000Y-34750000D03*
X149550000Y-34350000D03*
X149550000Y-34750000D03*
X149950000Y-34350000D03*
X149950000Y-34750000D03*
%TD*%
D15*
%TO.C,KiKit_MB_3_1*%
X156100000Y-28233334D03*
%TD*%
D13*
%TO.C,R17*%
X141690000Y-44300000D03*
X142710000Y-44300000D03*
%TD*%
D33*
%TO.C,C13*%
X146200000Y-35120000D03*
X146200000Y-36080000D03*
%TD*%
D16*
%TO.C,C17*%
X147180000Y-38850000D03*
X146220000Y-38850000D03*
%TD*%
%TO.C,C11*%
X147180000Y-37000000D03*
X146220000Y-37000000D03*
%TD*%
D35*
%TO.C,SW1*%
X155275000Y-25325000D03*
X155275000Y-29475000D03*
X153125000Y-25325000D03*
X153125000Y-29475000D03*
%TD*%
D27*
%TO.C,U1*%
X141950000Y-32737500D03*
X142900000Y-32737500D03*
X143850000Y-32737500D03*
X143850000Y-30462500D03*
X141950000Y-30462500D03*
%TD*%
D13*
%TO.C,R12*%
X153590000Y-20750000D03*
X154610000Y-20750000D03*
%TD*%
D21*
%TO.C,C19*%
X142170000Y-38200000D03*
X143130000Y-38200000D03*
%TD*%
D22*
%TO.C,KiKit_TO_2*%
X160401000Y-22500000D03*
%TD*%
D36*
%TO.C,U5*%
X146400000Y-42962500D03*
X146900000Y-42962500D03*
X147400000Y-42962500D03*
X147900000Y-42962500D03*
D37*
X147912500Y-42450000D03*
X147912500Y-41950000D03*
D36*
X147900000Y-41437500D03*
X147400000Y-41437500D03*
X146900000Y-41437500D03*
X146400000Y-41437500D03*
D37*
X146387500Y-41950000D03*
X146387500Y-42450000D03*
%TD*%
M02*
