M48
; DRILL file {KiCad 7.0.9} date Thu Apr  4 21:50:08 2024
; FORMAT={-:-/ absolute / inch / decimal}
; #@! TF.CreationDate,2024-04-04T21:50:08+13:00
; #@! TF.GenerationSoftware,Kicad,Pcbnew,7.0.9
; #@! TF.FileFunction,NonPlated,1,4,NPTH
FMAT,2
INCH
; #@! TA.AperFunction,NonPlated,NPTH,ComponentDrill
T1C0.0197
; #@! TA.AperFunction,NonPlated,NPTH,ComponentDrill
T2C0.0433
; #@! TA.AperFunction,NonPlated,NPTH,ComponentDrill
T3C0.0787
%
G90
G05
T1
X5.5472Y-1.1115
X5.5472Y-1.1509
X5.5472Y-1.1903
X5.5472Y-1.2297
X5.5472Y-1.4948
X5.5472Y-1.5341
X5.5472Y-1.5735
X5.5472Y-1.6129
X6.1457Y-1.1115
X6.1457Y-1.1509
X6.1457Y-1.1903
X6.1457Y-1.2297
X6.1457Y-1.4948
X6.1457Y-1.5341
X6.1457Y-1.5735
X6.1457Y-1.6129
T2
X5.7559Y-0.9094
X5.937Y-0.9094
T3
X5.3779Y-0.8858
X5.3779Y-1.8386
X6.315Y-0.8858
X6.315Y-1.8386
T0
M30
