%TF.GenerationSoftware,KiCad,Pcbnew,7.0.9*%
%TF.CreationDate,2024-04-04T21:50:02+13:00*%
%TF.ProjectId,panel,70616e65-6c2e-46b6-9963-61645f706362,rev?*%
%TF.SameCoordinates,Original*%
%TF.FileFunction,Copper,L1,Top*%
%TF.FilePolarity,Positive*%
%FSLAX46Y46*%
G04 Gerber Fmt 4.6, Leading zero omitted, Abs format (unit mm)*
G04 Created by KiCad (PCBNEW 7.0.9) date 2024-04-04 21:50:02*
%MOMM*%
%LPD*%
G01*
G04 APERTURE LIST*
G04 Aperture macros list*
%AMRoundRect*
0 Rectangle with rounded corners*
0 $1 Rounding radius*
0 $2 $3 $4 $5 $6 $7 $8 $9 X,Y pos of 4 corners*
0 Add a 4 corners polygon primitive as box body*
4,1,4,$2,$3,$4,$5,$6,$7,$8,$9,$2,$3,0*
0 Add four circle primitives for the rounded corners*
1,1,$1+$1,$2,$3*
1,1,$1+$1,$4,$5*
1,1,$1+$1,$6,$7*
1,1,$1+$1,$8,$9*
0 Add four rect primitives between the rounded corners*
20,1,$1+$1,$2,$3,$4,$5,0*
20,1,$1+$1,$4,$5,$6,$7,0*
20,1,$1+$1,$6,$7,$8,$9,0*
20,1,$1+$1,$8,$9,$2,$3,0*%
G04 Aperture macros list end*
%TA.AperFunction,ComponentPad*%
%ADD10O,1.900000X3.500000*%
%TD*%
%TA.AperFunction,SMDPad,CuDef*%
%ADD11RoundRect,0.218750X-0.218750X-0.256250X0.218750X-0.256250X0.218750X0.256250X-0.218750X0.256250X0*%
%TD*%
%TA.AperFunction,SMDPad,CuDef*%
%ADD12RoundRect,0.135000X-0.135000X-0.185000X0.135000X-0.185000X0.135000X0.185000X-0.135000X0.185000X0*%
%TD*%
%TA.AperFunction,SMDPad,CuDef*%
%ADD13RoundRect,0.218750X0.256250X-0.218750X0.256250X0.218750X-0.256250X0.218750X-0.256250X-0.218750X0*%
%TD*%
%TA.AperFunction,SMDPad,CuDef*%
%ADD14RoundRect,0.140000X0.140000X0.170000X-0.140000X0.170000X-0.140000X-0.170000X0.140000X-0.170000X0*%
%TD*%
%TA.AperFunction,SMDPad,CuDef*%
%ADD15RoundRect,0.150000X-0.625000X0.150000X-0.625000X-0.150000X0.625000X-0.150000X0.625000X0.150000X0*%
%TD*%
%TA.AperFunction,SMDPad,CuDef*%
%ADD16RoundRect,0.250000X-0.650000X0.350000X-0.650000X-0.350000X0.650000X-0.350000X0.650000X0.350000X0*%
%TD*%
%TA.AperFunction,SMDPad,CuDef*%
%ADD17R,0.500000X2.800000*%
%TD*%
%TA.AperFunction,SMDPad,CuDef*%
%ADD18R,0.600000X2.600000*%
%TD*%
%TA.AperFunction,SMDPad,CuDef*%
%ADD19RoundRect,0.140000X-0.140000X-0.170000X0.140000X-0.170000X0.140000X0.170000X-0.140000X0.170000X0*%
%TD*%
%TA.AperFunction,SMDPad,CuDef*%
%ADD20RoundRect,0.135000X0.135000X0.185000X-0.135000X0.185000X-0.135000X-0.185000X0.135000X-0.185000X0*%
%TD*%
%TA.AperFunction,SMDPad,CuDef*%
%ADD21RoundRect,0.135000X-0.185000X0.135000X-0.185000X-0.135000X0.185000X-0.135000X0.185000X0.135000X0*%
%TD*%
%TA.AperFunction,SMDPad,CuDef*%
%ADD22RoundRect,0.218750X-0.256250X0.218750X-0.256250X-0.218750X0.256250X-0.218750X0.256250X0.218750X0*%
%TD*%
%TA.AperFunction,ComponentPad*%
%ADD23C,1.600000*%
%TD*%
%TA.AperFunction,SMDPad,CuDef*%
%ADD24RoundRect,0.150000X0.150000X-0.512500X0.150000X0.512500X-0.150000X0.512500X-0.150000X-0.512500X0*%
%TD*%
%TA.AperFunction,SMDPad,CuDef*%
%ADD25RoundRect,0.225000X-0.250000X0.225000X-0.250000X-0.225000X0.250000X-0.225000X0.250000X0.225000X0*%
%TD*%
%TA.AperFunction,SMDPad,CuDef*%
%ADD26RoundRect,0.150000X0.150000X0.200000X-0.150000X0.200000X-0.150000X-0.200000X0.150000X-0.200000X0*%
%TD*%
%TA.AperFunction,SMDPad,CuDef*%
%ADD27RoundRect,0.218750X0.218750X0.256250X-0.218750X0.256250X-0.218750X-0.256250X0.218750X-0.256250X0*%
%TD*%
%TA.AperFunction,SMDPad,CuDef*%
%ADD28RoundRect,0.147500X0.172500X-0.147500X0.172500X0.147500X-0.172500X0.147500X-0.172500X-0.147500X0*%
%TD*%
%TA.AperFunction,SMDPad,CuDef*%
%ADD29RoundRect,0.140000X0.170000X-0.140000X0.170000X0.140000X-0.170000X0.140000X-0.170000X-0.140000X0*%
%TD*%
%TA.AperFunction,SMDPad,CuDef*%
%ADD30RoundRect,0.140000X-0.170000X0.140000X-0.170000X-0.140000X0.170000X-0.140000X0.170000X0.140000X0*%
%TD*%
%TA.AperFunction,SMDPad,CuDef*%
%ADD31C,0.250000*%
%TD*%
%TA.AperFunction,SMDPad,CuDef*%
%ADD32R,0.650000X1.050000*%
%TD*%
%TA.AperFunction,SMDPad,CuDef*%
%ADD33R,0.350000X0.375000*%
%TD*%
%TA.AperFunction,SMDPad,CuDef*%
%ADD34R,0.375000X0.350000*%
%TD*%
%TA.AperFunction,ViaPad*%
%ADD35C,0.450000*%
%TD*%
%TA.AperFunction,Conductor*%
%ADD36C,0.400000*%
%TD*%
%TA.AperFunction,Conductor*%
%ADD37C,0.200000*%
%TD*%
%TA.AperFunction,Conductor*%
%ADD38C,0.500000*%
%TD*%
G04 APERTURE END LIST*
D10*
%TO.P,J1,5,Shield*%
%TO.N,Board_0-GND*%
X142800000Y-23100000D03*
X154200000Y-23100000D03*
%TD*%
D11*
%TO.P,D3,1,K*%
%TO.N,Board_0-Net-(D3-K)*%
X147712500Y-20750000D03*
%TO.P,D3,2,A*%
%TO.N,Board_0-RXD*%
X149287500Y-20750000D03*
%TD*%
D12*
%TO.P,R18,1*%
%TO.N,Board_0-VBUS*%
X141690000Y-42300000D03*
%TO.P,R18,2*%
%TO.N,Board_0-D0-*%
X142710000Y-42300000D03*
%TD*%
D13*
%TO.P,L4,1,1*%
%TO.N,Board_0-Net-(U1-SW)*%
X145400000Y-32587500D03*
%TO.P,L4,2,2*%
%TO.N,Board_0-Cap_V+*%
X145400000Y-31012500D03*
%TD*%
D14*
%TO.P,C9,1*%
%TO.N,Board_0-+3V3*%
X147180000Y-39800000D03*
%TO.P,C9,2*%
%TO.N,Board_0-GND*%
X146220000Y-39800000D03*
%TD*%
D15*
%TO.P,J3,1,Pin_1*%
%TO.N,Board_0-+3V3*%
X152000000Y-39450000D03*
%TO.P,J3,2,Pin_2*%
%TO.N,Board_0-TXD*%
X152000000Y-40450000D03*
%TO.P,J3,3,Pin_3*%
%TO.N,Board_0-RXD*%
X152000000Y-41450000D03*
%TO.P,J3,4,Pin_4*%
%TO.N,Board_0-GPIO9*%
X152000000Y-42450000D03*
%TO.P,J3,5,Pin_5*%
%TO.N,Board_0-GND*%
X152000000Y-43450000D03*
D16*
%TO.P,J3,MP,MountPin*%
X154525000Y-38150000D03*
X154525000Y-44750000D03*
%TD*%
D17*
%TO.P,J2,1,D2+*%
%TO.N,Board_0-D2+*%
X144000000Y-47550000D03*
%TO.P,J2,3,D2-*%
%TO.N,Board_0-D2-*%
X145000000Y-47550000D03*
%TO.P,J2,5,D1S*%
%TO.N,Board_0-unconnected-(J2-D1S-Pad5)*%
X146000000Y-47550000D03*
%TO.P,J2,7,D0+*%
%TO.N,Board_0-D0+*%
X147000000Y-47550000D03*
%TO.P,J2,9,D0-*%
%TO.N,Board_0-D0-*%
X148000000Y-47550000D03*
%TO.P,J2,11,CKS*%
%TO.N,Board_0-unconnected-(J2-CKS-Pad11)*%
X149000000Y-47550000D03*
%TO.P,J2,13,CEC*%
%TO.N,Board_0-GPIO8*%
X150000000Y-47550000D03*
%TO.P,J2,15,SCL*%
%TO.N,Board_0-GPIO9*%
X151000000Y-47550000D03*
%TO.P,J2,17,GND*%
%TO.N,Board_0-GND*%
X152000000Y-47550000D03*
%TO.P,J2,19,HPD/HEAC-*%
%TO.N,Board_0-unconnected-(J2-HPD{slash}HEAC--Pad19)*%
X153000000Y-47550000D03*
D18*
%TO.P,J2,SH,SH*%
%TO.N,Board_0-GND*%
X141725000Y-47650000D03*
X155275000Y-47650000D03*
%TD*%
D19*
%TO.P,C10,1*%
%TO.N,Board_0-+3V3*%
X148070000Y-39800000D03*
%TO.P,C10,2*%
%TO.N,Board_0-GND*%
X149030000Y-39800000D03*
%TD*%
D12*
%TO.P,R26,1*%
%TO.N,Board_0-Net-(U6-+)*%
X145090000Y-26100000D03*
%TO.P,R26,2*%
%TO.N,Board_0-Net-(R23-Pad1)*%
X146110000Y-26100000D03*
%TD*%
D20*
%TO.P,R14,1*%
%TO.N,Board_0-+3V3*%
X149010000Y-22950000D03*
%TO.P,R14,2*%
%TO.N,Board_0-User_SW1*%
X147990000Y-22950000D03*
%TD*%
D21*
%TO.P,R5,1*%
%TO.N,Board_0-+3V3*%
X149020000Y-42370000D03*
%TO.P,R5,2*%
%TO.N,Board_0-GPIO8*%
X149020000Y-43390000D03*
%TD*%
D19*
%TO.P,C20,1*%
%TO.N,Board_0-Net-(U1-RUN)*%
X141720000Y-34300000D03*
%TO.P,C20,2*%
%TO.N,Board_0-GND*%
X142680000Y-34300000D03*
%TD*%
D12*
%TO.P,R6,1*%
%TO.N,Board_0-+3V3*%
X148990000Y-41470000D03*
%TO.P,R6,2*%
%TO.N,Board_0-GPIO2*%
X150010000Y-41470000D03*
%TD*%
D13*
%TO.P,F1,1*%
%TO.N,Board_0-Net-(U1-RUN)*%
X144700000Y-23887500D03*
%TO.P,F1,2*%
%TO.N,Board_0-VBUS*%
X144700000Y-22312500D03*
%TD*%
D19*
%TO.P,C15,1*%
%TO.N,Board_0-+3V3*%
X142170000Y-37250000D03*
%TO.P,C15,2*%
%TO.N,Board_0-GND*%
X143130000Y-37250000D03*
%TD*%
D22*
%TO.P,L1,1*%
%TO.N,Board_0-Cap_V+*%
X149600000Y-31012500D03*
%TO.P,L1,2*%
%TO.N,Board_0-Net-(U2-SW)*%
X149600000Y-32587500D03*
%TD*%
D20*
%TO.P,R13,1*%
%TO.N,Board_0-Net-(D9-K)*%
X143410000Y-20750000D03*
%TO.P,R13,2*%
%TO.N,Board_0-GND*%
X142390000Y-20750000D03*
%TD*%
D23*
%TO.P,C3,1*%
%TO.N,Board_0-Cap_V+*%
X146000000Y-28900000D03*
%TO.P,C3,2*%
%TO.N,Board_0-GND*%
X151000000Y-28900000D03*
%TD*%
D12*
%TO.P,R28,1*%
%TO.N,Board_0-Net-(U6-+)*%
X145090000Y-27100000D03*
%TO.P,R28,2*%
%TO.N,Board_0-GND*%
X146110000Y-27100000D03*
%TD*%
D21*
%TO.P,R7,1*%
%TO.N,Board_0-+3V3*%
X150250000Y-36090000D03*
%TO.P,R7,2*%
%TO.N,Board_0-Net-(U2-VSEL)*%
X150250000Y-37110000D03*
%TD*%
%TO.P,R8,1*%
%TO.N,Board_0-Net-(U2-VSEL)*%
X150250000Y-38090000D03*
%TO.P,R8,2*%
%TO.N,Board_0-GND*%
X150250000Y-39110000D03*
%TD*%
D12*
%TO.P,R19,1*%
%TO.N,Board_0-VBUS*%
X141690000Y-43300000D03*
%TO.P,R19,2*%
%TO.N,Board_0-D0+*%
X142710000Y-43300000D03*
%TD*%
%TO.P,R11,1*%
%TO.N,Board_0-Net-(D3-K)*%
X147990000Y-21950000D03*
%TO.P,R11,2*%
%TO.N,Board_0-GND*%
X149010000Y-21950000D03*
%TD*%
D24*
%TO.P,U6,1*%
%TO.N,Board_0-Net-(U1-VOUT)*%
X141950000Y-28037500D03*
%TO.P,U6,2,V-*%
%TO.N,Board_0-GND*%
X142900000Y-28037500D03*
%TO.P,U6,3,+*%
%TO.N,Board_0-Net-(U6-+)*%
X143850000Y-28037500D03*
%TO.P,U6,4,-*%
%TO.N,Board_0-Net-(U6--)*%
X143850000Y-25762500D03*
%TO.P,U6,5,V+*%
%TO.N,Board_0-Net-(U6-V+)*%
X141950000Y-25762500D03*
%TD*%
D11*
%TO.P,D9,1,K*%
%TO.N,Board_0-Net-(D9-K)*%
X144562500Y-20750000D03*
%TO.P,D9,2,A*%
%TO.N,Board_0-User_LED3*%
X146137500Y-20750000D03*
%TD*%
D21*
%TO.P,R10,1*%
%TO.N,Board_0-+3V3*%
X149990000Y-42370000D03*
%TO.P,R10,2*%
%TO.N,Board_0-GPIO9*%
X149990000Y-43390000D03*
%TD*%
D12*
%TO.P,R16,1*%
%TO.N,Board_0-VBUS*%
X141690000Y-45300000D03*
%TO.P,R16,2*%
%TO.N,Board_0-D2+*%
X142710000Y-45300000D03*
%TD*%
D25*
%TO.P,C6,1*%
%TO.N,Board_0-+3V3*%
X148900000Y-36375000D03*
%TO.P,C6,2*%
%TO.N,Board_0-GND*%
X148900000Y-37925000D03*
%TD*%
D26*
%TO.P,D5,1,K*%
%TO.N,Board_0-VBUS*%
X147950000Y-26250000D03*
%TO.P,D5,2,A*%
%TO.N,Board_0-A_VBUS*%
X149350000Y-26250000D03*
%TD*%
D25*
%TO.P,C22,1*%
%TO.N,Board_0-Cap_V+*%
X146900000Y-31025000D03*
%TO.P,C22,2*%
%TO.N,Board_0-GND*%
X146900000Y-32575000D03*
%TD*%
D19*
%TO.P,C18,1*%
%TO.N,Board_0-+3V3*%
X142170000Y-39150000D03*
%TO.P,C18,2*%
%TO.N,Board_0-GND*%
X143130000Y-39150000D03*
%TD*%
D27*
%TO.P,D4,1,K*%
%TO.N,Board_0-Net-(D4-K)*%
X152437500Y-20750000D03*
%TO.P,D4,2,A*%
%TO.N,Board_0-TXD*%
X150862500Y-20750000D03*
%TD*%
D28*
%TO.P,L2,1*%
%TO.N,Board_0-Net-(U4-VDD3P3)*%
X147150000Y-36085000D03*
%TO.P,L2,2*%
%TO.N,Board_0-+3V3*%
X147150000Y-35115000D03*
%TD*%
D29*
%TO.P,C16,1*%
%TO.N,Board_0-+3V3*%
X145300000Y-40130000D03*
%TO.P,C16,2*%
%TO.N,Board_0-GND*%
X145300000Y-39170000D03*
%TD*%
D30*
%TO.P,C5,1*%
%TO.N,Board_0-Cap_V+*%
X148100000Y-31220000D03*
%TO.P,C5,2*%
%TO.N,Board_0-GND*%
X148100000Y-32180000D03*
%TD*%
D31*
%TO.P,U2,A1,VIN*%
%TO.N,Board_0-Cap_V+*%
X149150000Y-34350000D03*
%TO.P,U2,A2,GND*%
%TO.N,Board_0-GND*%
X149150000Y-34750000D03*
%TO.P,U2,B1,SW*%
%TO.N,Board_0-Net-(U2-SW)*%
X149550000Y-34350000D03*
%TO.P,U2,B2,VOUT*%
%TO.N,Board_0-+3V3*%
X149550000Y-34750000D03*
%TO.P,U2,C1,EN*%
%TO.N,Board_0-Cap_V+*%
X149950000Y-34350000D03*
%TO.P,U2,C2,VSEL*%
%TO.N,Board_0-Net-(U2-VSEL)*%
X149950000Y-34750000D03*
%TD*%
D12*
%TO.P,R17,1*%
%TO.N,Board_0-VBUS*%
X141690000Y-44300000D03*
%TO.P,R17,2*%
%TO.N,Board_0-D2-*%
X142710000Y-44300000D03*
%TD*%
D30*
%TO.P,C13,1*%
%TO.N,Board_0-+3V3*%
X146200000Y-35120000D03*
%TO.P,C13,2*%
%TO.N,Board_0-GND*%
X146200000Y-36080000D03*
%TD*%
D14*
%TO.P,C17,1*%
%TO.N,Board_0-+3V3*%
X147180000Y-38850000D03*
%TO.P,C17,2*%
%TO.N,Board_0-GND*%
X146220000Y-38850000D03*
%TD*%
%TO.P,C11,1*%
%TO.N,Board_0-Net-(U4-VDD3P3)*%
X147180000Y-37000000D03*
%TO.P,C11,2*%
%TO.N,Board_0-GND*%
X146220000Y-37000000D03*
%TD*%
D32*
%TO.P,SW1,1,A*%
%TO.N,Board_0-GND*%
X155275000Y-25325000D03*
X155275000Y-29475000D03*
%TO.P,SW1,2,B*%
%TO.N,Board_0-User_SW1*%
X153125000Y-25325000D03*
X153125000Y-29475000D03*
%TD*%
D24*
%TO.P,U1,1,RUN*%
%TO.N,Board_0-Net-(U1-RUN)*%
X141950000Y-32737500D03*
%TO.P,U1,2,GND*%
%TO.N,Board_0-GND*%
X142900000Y-32737500D03*
%TO.P,U1,3,SW*%
%TO.N,Board_0-Net-(U1-SW)*%
X143850000Y-32737500D03*
%TO.P,U1,4,VIN*%
%TO.N,Board_0-Net-(U1-RUN)*%
X143850000Y-30462500D03*
%TO.P,U1,5,VOUT*%
%TO.N,Board_0-Net-(U1-VOUT)*%
X141950000Y-30462500D03*
%TD*%
D12*
%TO.P,R12,1*%
%TO.N,Board_0-Net-(D4-K)*%
X153590000Y-20750000D03*
%TO.P,R12,2*%
%TO.N,Board_0-GND*%
X154610000Y-20750000D03*
%TD*%
D19*
%TO.P,C19,1*%
%TO.N,Board_0-+3V3*%
X142170000Y-38200000D03*
%TO.P,C19,2*%
%TO.N,Board_0-GND*%
X143130000Y-38200000D03*
%TD*%
D33*
%TO.P,U5,1,SCL/SPC*%
%TO.N,Board_0-ACC_SCK*%
X146400000Y-42962500D03*
%TO.P,U5,2,~{CS}*%
%TO.N,Board_0-Net-(U5-~{CS})*%
X146900000Y-42962500D03*
%TO.P,U5,3,SA0/SDO*%
%TO.N,Board_0-ACC_MISO*%
X147400000Y-42962500D03*
%TO.P,U5,4,SDA/SDI*%
%TO.N,Board_0-ACC_MOSI*%
X147900000Y-42962500D03*
D34*
%TO.P,U5,5,RES*%
%TO.N,Board_0-GND*%
X147912500Y-42450000D03*
%TO.P,U5,6,GND*%
X147912500Y-41950000D03*
D33*
%TO.P,U5,7,GND*%
X147900000Y-41437500D03*
%TO.P,U5,8,GND*%
X147400000Y-41437500D03*
%TO.P,U5,9,Vdd*%
%TO.N,Board_0-+3V3*%
X146900000Y-41437500D03*
%TO.P,U5,10,Vdd_IO*%
X146400000Y-41437500D03*
D34*
%TO.P,U5,11,INT2*%
%TO.N,Board_0-ACC_INT2*%
X146387500Y-41950000D03*
%TO.P,U5,12,INT1*%
%TO.N,Board_0-ACC_INT1*%
X146387500Y-42450000D03*
%TD*%
D35*
%TO.N,Board_0-VBUS*%
X152650000Y-44500000D03*
X142100000Y-41400000D03*
X145300000Y-21800000D03*
X142150000Y-35100000D03*
%TO.N,Board_0-User_SW1*%
X149850000Y-39850000D03*
X150875000Y-24725000D03*
%TO.N,Board_0-User_LED3*%
X147650000Y-40750000D03*
X145450000Y-20750000D03*
%TO.N,Board_0-TXD*%
X153000000Y-40400000D03*
X147900000Y-34400000D03*
X151500000Y-20750000D03*
X144400000Y-34300000D03*
%TO.N,Board_0-RXD*%
X153000000Y-41500000D03*
X147550000Y-33450000D03*
X143550000Y-34100000D03*
X148650000Y-20750000D03*
%TO.N,Board_0-Net-(U6-V+)*%
X141600000Y-24700000D03*
X151250000Y-45300000D03*
%TO.N,Board_0-Net-(U6--)*%
X144000000Y-26900000D03*
%TO.N,Board_0-Net-(U5-~{CS})*%
X146490000Y-43720000D03*
%TO.N,Board_0-Net-(U4-VDD3P3)*%
X147775000Y-36625000D03*
%TO.N,Board_0-Net-(U1-VOUT)*%
X142080000Y-29400000D03*
%TO.N,Board_0-Net-(U1-RUN)*%
X145400000Y-24100000D03*
X144600000Y-30000000D03*
%TO.N,Board_0-Net-(R23-Pad1)*%
X146000000Y-25300000D03*
X151250000Y-44300000D03*
%TO.N,Board_0-GPIO9*%
X150650000Y-43300000D03*
%TO.N,Board_0-GPIO8*%
X148250000Y-44250000D03*
%TO.N,Board_0-GPIO2*%
X150600000Y-41400000D03*
%TO.N,Board_0-GND*%
X150874264Y-38800000D03*
X142600000Y-47000000D03*
X151400000Y-32400000D03*
X152500000Y-37200000D03*
X143675000Y-37625000D03*
X154200000Y-29600000D03*
X151400000Y-34000000D03*
X155100000Y-40500000D03*
X149600000Y-37600000D03*
X143675000Y-36625000D03*
X152300000Y-23450000D03*
X151400000Y-30700000D03*
X155400000Y-30400000D03*
X153500000Y-37200000D03*
X145675000Y-37625000D03*
X148575000Y-34825000D03*
X154000000Y-46700000D03*
X144675000Y-38625000D03*
X148100000Y-32900000D03*
X142800000Y-31800000D03*
X144675000Y-36625000D03*
X154500000Y-26000000D03*
X153950000Y-48300000D03*
X155100000Y-29000000D03*
X143675000Y-38625000D03*
X146700000Y-27800000D03*
X155100000Y-43500000D03*
X145675000Y-36625000D03*
X153600000Y-43000000D03*
X142600000Y-48000000D03*
X151400000Y-33200000D03*
X151550000Y-37200000D03*
X155100000Y-26500000D03*
X151400000Y-31550000D03*
X151400000Y-34700000D03*
X155200000Y-37200000D03*
X154100000Y-28700000D03*
X145675000Y-38625000D03*
X151400000Y-35350000D03*
X144675000Y-37625000D03*
X150500000Y-21900000D03*
X153250000Y-39000000D03*
X147150000Y-42100000D03*
X153100000Y-28500000D03*
X152300000Y-30400000D03*
X154200000Y-43450000D03*
X153800000Y-30400000D03*
X155000000Y-39000000D03*
X153600000Y-40000000D03*
X154100000Y-42000000D03*
%TO.N,Board_0-D0-*%
X143300000Y-26800000D03*
X147850000Y-45650000D03*
%TO.N,Board_0-Cap_V+*%
X149500000Y-38950000D03*
X149050000Y-30300000D03*
%TO.N,Board_0-A_VBUS*%
X150900000Y-25850000D03*
%TO.N,Board_0-ACC_SCK*%
X144600000Y-41500000D03*
%TO.N,Board_0-ACC_MOSI*%
X142450000Y-40850000D03*
%TO.N,Board_0-ACC_MISO*%
X144000000Y-41900000D03*
%TO.N,Board_0-ACC_INT2*%
X146600000Y-40600000D03*
%TO.N,Board_0-ACC_INT1*%
X145325000Y-41850000D03*
%TO.N,Board_0-+3V3*%
X149950000Y-35550000D03*
X145350000Y-41050000D03*
X142325000Y-39825000D03*
X146175000Y-34600000D03*
X149900000Y-23650000D03*
X147850000Y-38900000D03*
%TD*%
D36*
%TO.N,Board_0-VBUS*%
X141690000Y-41810000D02*
X142100000Y-41400000D01*
X145300000Y-21800000D02*
X146700000Y-21800000D01*
D37*
X141500000Y-35750000D02*
X141500000Y-40800000D01*
D36*
X146700000Y-21800000D02*
X147300000Y-22400000D01*
X147300000Y-25600000D02*
X147950000Y-26250000D01*
X147300000Y-22400000D02*
X147300000Y-25600000D01*
X144700000Y-22312500D02*
X144787500Y-22312500D01*
X141690000Y-42300000D02*
X141690000Y-41810000D01*
X144787500Y-22312500D02*
X145300000Y-21800000D01*
D37*
X141500000Y-40800000D02*
X142100000Y-41400000D01*
X142150000Y-35100000D02*
X141500000Y-35750000D01*
X144700000Y-22312500D02*
X144700000Y-22150000D01*
D38*
X141690000Y-45300000D02*
X141690000Y-42300000D01*
D37*
%TO.N,Board_0-User_SW1*%
X151475000Y-25325000D02*
X153125000Y-25325000D01*
X150650000Y-24500000D02*
X149000000Y-24500000D01*
X149000000Y-24500000D02*
X147990000Y-23490000D01*
X150875000Y-24725000D02*
X150650000Y-24500000D01*
X147990000Y-23490000D02*
X147990000Y-22950000D01*
X150875000Y-24725000D02*
X151475000Y-25325000D01*
%TO.N,Board_0-User_LED3*%
X146137500Y-20750000D02*
X145450000Y-20750000D01*
%TO.N,Board_0-TXD*%
X147450000Y-34400000D02*
X147100000Y-34050000D01*
X147100000Y-34050000D02*
X144650000Y-34050000D01*
X152050000Y-40400000D02*
X152000000Y-40450000D01*
X144650000Y-34050000D02*
X144400000Y-34300000D01*
X147900000Y-34400000D02*
X147450000Y-34400000D01*
X153000000Y-40400000D02*
X152050000Y-40400000D01*
%TO.N,Board_0-RXD*%
X144350000Y-33550000D02*
X144200000Y-33700000D01*
X143550000Y-34100000D02*
X143800000Y-34100000D01*
X143800000Y-34100000D02*
X144150000Y-33750000D01*
X152950000Y-41450000D02*
X152000000Y-41450000D01*
X144150000Y-33750000D02*
X144200000Y-33700000D01*
X153000000Y-41500000D02*
X152950000Y-41450000D01*
X147450000Y-33550000D02*
X144350000Y-33550000D01*
X147550000Y-33450000D02*
X147450000Y-33550000D01*
%TO.N,Board_0-Net-(U6-V+)*%
X141600000Y-24700000D02*
X141600000Y-25050000D01*
X141950000Y-25400000D02*
X141950000Y-25762500D01*
X141600000Y-25050000D02*
X141950000Y-25400000D01*
%TO.N,Board_0-Net-(U6--)*%
X143850000Y-26750000D02*
X143850000Y-25762500D01*
X144000000Y-26900000D02*
X143850000Y-26750000D01*
%TO.N,Board_0-Net-(U6-+)*%
X144677500Y-27210000D02*
X143850000Y-28037500D01*
X145090000Y-26100000D02*
X145090000Y-27100000D01*
X145100000Y-27210000D02*
X144677500Y-27210000D01*
%TO.N,Board_0-Net-(U5-~{CS})*%
X146490000Y-43720000D02*
X146550000Y-43720000D01*
X146550000Y-43720000D02*
X146900000Y-43370000D01*
X146900000Y-43370000D02*
X146900000Y-42962500D01*
D38*
%TO.N,Board_0-Net-(U4-VDD3P3)*%
X147400000Y-37000000D02*
X147180000Y-37000000D01*
X147235000Y-36085000D02*
X147775000Y-36625000D01*
X147150000Y-36085000D02*
X147235000Y-36085000D01*
X147775000Y-36625000D02*
X147400000Y-37000000D01*
D37*
%TO.N,Board_0-Net-(U2-VSEL)*%
X150900000Y-35700000D02*
X149950000Y-34750000D01*
X150340000Y-37110000D02*
X150900000Y-36550000D01*
X150900000Y-36550000D02*
X150900000Y-35700000D01*
X150250000Y-38090000D02*
X150250000Y-37110000D01*
X150100000Y-37110000D02*
X150340000Y-37110000D01*
%TO.N,Board_0-Net-(U2-SW)*%
X149550000Y-34350000D02*
X149550000Y-33087500D01*
%TO.N,Board_0-Net-(U1-VOUT)*%
X141950000Y-29270000D02*
X142080000Y-29400000D01*
X141950000Y-29530000D02*
X141950000Y-30462500D01*
X141950000Y-28037500D02*
X141950000Y-29270000D01*
X142080000Y-29400000D02*
X141950000Y-29530000D01*
D36*
X141950000Y-28037500D02*
X141950000Y-30462500D01*
D37*
%TO.N,Board_0-Net-(U1-SW)*%
X144337500Y-33000000D02*
X144250000Y-33087500D01*
D36*
X145250000Y-32737500D02*
X145400000Y-32587500D01*
D37*
X145100000Y-33000000D02*
X144337500Y-33000000D01*
X145187500Y-33087500D02*
X145100000Y-33000000D01*
X145550000Y-33087500D02*
X145187500Y-33087500D01*
D36*
X143850000Y-32737500D02*
X145250000Y-32737500D01*
%TO.N,Board_0-Net-(U1-RUN)*%
X144600000Y-30000000D02*
X144137500Y-30462500D01*
X144137500Y-30462500D02*
X143850000Y-30462500D01*
X141700000Y-34280000D02*
X141700000Y-33800000D01*
D37*
X144912500Y-24100000D02*
X145400000Y-24100000D01*
X144700000Y-23887500D02*
X144912500Y-24100000D01*
X141950000Y-31765552D02*
X143253052Y-30462500D01*
D36*
X141950000Y-33550000D02*
X141950000Y-32737500D01*
X141700000Y-33800000D02*
X141950000Y-33550000D01*
X141720000Y-34300000D02*
X141700000Y-34280000D01*
D37*
X143253052Y-30462500D02*
X143850000Y-30462500D01*
X141950000Y-32737500D02*
X141950000Y-31765552D01*
%TO.N,Board_0-Net-(R23-Pad1)*%
X146110000Y-26100000D02*
X146110000Y-25410000D01*
X146110000Y-25410000D02*
X146000000Y-25300000D01*
%TO.N,Board_0-Net-(D9-K)*%
X144562500Y-20750000D02*
X143410000Y-20750000D01*
%TO.N,Board_0-Net-(D4-K)*%
X152437500Y-20750000D02*
X153590000Y-20750000D01*
%TO.N,Board_0-Net-(D3-K)*%
X147712500Y-20750000D02*
X147712500Y-21672500D01*
X147712500Y-21672500D02*
X147990000Y-21950000D01*
%TO.N,Board_0-GPIO9*%
X150590000Y-43360000D02*
X150010000Y-43360000D01*
X150650000Y-43300000D02*
X151350000Y-42600000D01*
X151000000Y-46000000D02*
X151000000Y-47550000D01*
X150650000Y-43300000D02*
X150650000Y-45650000D01*
X150650000Y-43300000D02*
X150590000Y-43360000D01*
X150650000Y-45650000D02*
X151000000Y-46000000D01*
%TO.N,Board_0-GPIO8*%
X148250000Y-44250000D02*
X148250000Y-44160000D01*
X148250000Y-44160000D02*
X149020000Y-43390000D01*
X149070000Y-43360000D02*
X148990000Y-43360000D01*
X148250000Y-44250000D02*
X150000000Y-46000000D01*
X150000000Y-46000000D02*
X150000000Y-47550000D01*
%TO.N,Board_0-GPIO2*%
X150010000Y-41470000D02*
X150530000Y-41470000D01*
X150530000Y-41470000D02*
X150600000Y-41400000D01*
%TO.N,Board_0-GND*%
X148650000Y-34900000D02*
X149000000Y-34900000D01*
X147912500Y-42450000D02*
X147500000Y-42450000D01*
D36*
X146425000Y-26875000D02*
X146700000Y-27150000D01*
D37*
X147500000Y-42450000D02*
X147150000Y-42100000D01*
X149000000Y-34900000D02*
X149150000Y-34750000D01*
D36*
X146700000Y-27150000D02*
X146700000Y-27800000D01*
D37*
X149600000Y-37600000D02*
X149375000Y-37600000D01*
X149375000Y-37600000D02*
X148750000Y-38225000D01*
X142900000Y-31900000D02*
X142900000Y-32737500D01*
X148100000Y-32180000D02*
X148100000Y-32900000D01*
X147912500Y-41350000D02*
X147912500Y-41950000D01*
X142800000Y-31800000D02*
X142900000Y-31900000D01*
X148575000Y-34825000D02*
X148650000Y-34900000D01*
%TO.N,Board_0-D2-*%
X145000000Y-45600000D02*
X145000000Y-47550000D01*
X142710000Y-44300000D02*
X143700000Y-44300000D01*
X143700000Y-44300000D02*
X145000000Y-45600000D01*
%TO.N,Board_0-D2+*%
X144000000Y-45900000D02*
X143400000Y-45300000D01*
X144000000Y-47550000D02*
X144000000Y-45900000D01*
X143400000Y-45300000D02*
X142710000Y-45300000D01*
%TO.N,Board_0-D0-*%
X147260000Y-45060000D02*
X147850000Y-45650000D01*
X145660000Y-45060000D02*
X147260000Y-45060000D01*
X142710000Y-42300000D02*
X142900000Y-42300000D01*
X148000000Y-47550000D02*
X148000000Y-45800000D01*
X142900000Y-42300000D02*
X145660000Y-45060000D01*
X148000000Y-45800000D02*
X147850000Y-45650000D01*
%TO.N,Board_0-D0+*%
X143300000Y-43300000D02*
X142710000Y-43300000D01*
X145470000Y-45470000D02*
X143300000Y-43300000D01*
X147000000Y-45700000D02*
X146770000Y-45470000D01*
X147000000Y-47550000D02*
X147000000Y-45700000D01*
X146770000Y-45470000D02*
X145470000Y-45470000D01*
%TO.N,Board_0-Cap_V+*%
X148750000Y-31200000D02*
X149512500Y-31200000D01*
X150400000Y-33900000D02*
X149975000Y-34325000D01*
X145550000Y-31312500D02*
X145550000Y-30550000D01*
X146000000Y-30100000D02*
X146000000Y-28900000D01*
X148750000Y-31700000D02*
X148750000Y-31200000D01*
X149700000Y-31012500D02*
X149050000Y-30362500D01*
X145550000Y-30550000D02*
X146000000Y-30100000D01*
D38*
X145400000Y-29500000D02*
X146000000Y-28900000D01*
X145400000Y-31012500D02*
X145400000Y-29500000D01*
D37*
X149050000Y-30362500D02*
X149050000Y-30300000D01*
X149512500Y-31200000D02*
X149700000Y-31012500D01*
X149150000Y-34350000D02*
X148750000Y-33950000D01*
X149600000Y-31012500D02*
X149712500Y-31012500D01*
X149712500Y-31012500D02*
X150400000Y-31700000D01*
X148750000Y-33950000D02*
X148750000Y-31700000D01*
X148750000Y-31700000D02*
X148750000Y-31650000D01*
X150000000Y-31012500D02*
X150400000Y-31412500D01*
X149700000Y-31012500D02*
X150000000Y-31012500D01*
X148750000Y-31650000D02*
X149100000Y-31300000D01*
X150400000Y-31412500D02*
X150400000Y-33900000D01*
X148400000Y-31300000D02*
X148100000Y-31300000D01*
X148750000Y-31650000D02*
X148400000Y-31300000D01*
D38*
%TO.N,Board_0-A_VBUS*%
X149350000Y-26250000D02*
X150500000Y-26250000D01*
X150500000Y-26250000D02*
X150900000Y-25850000D01*
D37*
%TO.N,Board_0-ACC_SCK*%
X144600000Y-41500000D02*
X144600000Y-41875000D01*
X144600000Y-41875000D02*
X145687500Y-42962500D01*
X145687500Y-42962500D02*
X146400000Y-42962500D01*
%TO.N,Board_0-ACC_MOSI*%
X145860000Y-44660000D02*
X147090000Y-44660000D01*
X143400000Y-41800000D02*
X143400000Y-42200000D01*
X147900000Y-43850000D02*
X147900000Y-42962500D01*
X143400000Y-42200000D02*
X145860000Y-44660000D01*
X147090000Y-44660000D02*
X147900000Y-43850000D01*
X142450000Y-40850000D02*
X143400000Y-41800000D01*
%TO.N,Board_0-ACC_MISO*%
X144000000Y-41900000D02*
X144000000Y-42100000D01*
X144000000Y-42100000D02*
X146160000Y-44260000D01*
X146890000Y-44260000D02*
X147425000Y-43725000D01*
X146160000Y-44260000D02*
X146890000Y-44260000D01*
X147425000Y-43725000D02*
X147425000Y-42987500D01*
X147425000Y-42987500D02*
X147400000Y-42962500D01*
%TO.N,Board_0-ACC_INT2*%
X146050000Y-40600000D02*
X145900000Y-40750000D01*
X145900000Y-40750000D02*
X145900000Y-41725000D01*
X146600000Y-40600000D02*
X146050000Y-40600000D01*
X145900000Y-41725000D02*
X146125000Y-41950000D01*
X146125000Y-41950000D02*
X146387500Y-41950000D01*
%TO.N,Board_0-ACC_INT1*%
X145325000Y-41850000D02*
X145925000Y-42450000D01*
X145925000Y-42450000D02*
X146387500Y-42450000D01*
D38*
%TO.N,Board_0-+3V3*%
X147150000Y-35115000D02*
X146205000Y-35115000D01*
X149000000Y-40700000D02*
X150000000Y-40700000D01*
D37*
X148990000Y-41470000D02*
X148990000Y-40710000D01*
D38*
X148070000Y-39800000D02*
X148070000Y-40045000D01*
X149175000Y-36250000D02*
X148750000Y-36675000D01*
D37*
X145300000Y-41000000D02*
X145300000Y-40130000D01*
D38*
X146175000Y-35095000D02*
X146200000Y-35120000D01*
X147180000Y-38850000D02*
X147800000Y-38850000D01*
X143930000Y-35120000D02*
X142170000Y-36880000D01*
D37*
X146900000Y-41437500D02*
X146400000Y-41437500D01*
X149010000Y-23150000D02*
X149010000Y-22950000D01*
D38*
X147180000Y-39800000D02*
X148070000Y-39800000D01*
X142170000Y-36880000D02*
X142170000Y-37250000D01*
X147180000Y-38850000D02*
X147180000Y-39800000D01*
X142630000Y-40130000D02*
X142170000Y-39670000D01*
X148725000Y-36675000D02*
X148750000Y-36675000D01*
X148070000Y-40045000D02*
X148725000Y-40700000D01*
X146205000Y-35115000D02*
X146200000Y-35120000D01*
D37*
X145350000Y-41050000D02*
X145300000Y-41000000D01*
D38*
X142170000Y-39670000D02*
X142170000Y-39150000D01*
X142325000Y-39825000D02*
X142170000Y-39670000D01*
X142170000Y-39150000D02*
X142170000Y-37250000D01*
X147815000Y-35115000D02*
X147150000Y-35115000D01*
D37*
X149900000Y-23650000D02*
X149510000Y-23650000D01*
X147125000Y-39855000D02*
X147180000Y-39800000D01*
D38*
X148725000Y-40700000D02*
X149000000Y-40700000D01*
X145300000Y-40130000D02*
X142630000Y-40130000D01*
X146175000Y-34600000D02*
X146175000Y-35095000D01*
D37*
X149550000Y-35150000D02*
X149950000Y-35550000D01*
X148990000Y-42340000D02*
X149020000Y-42370000D01*
X147125000Y-40875000D02*
X147125000Y-39855000D01*
D38*
X151250000Y-39450000D02*
X152000000Y-39450000D01*
D37*
X148990000Y-41470000D02*
X148990000Y-42340000D01*
D38*
X148750000Y-36050000D02*
X147815000Y-35115000D01*
D37*
X149550000Y-34750000D02*
X149550000Y-35150000D01*
X148990000Y-40710000D02*
X149000000Y-40700000D01*
D38*
X149940000Y-36250000D02*
X149175000Y-36250000D01*
D37*
X149510000Y-23650000D02*
X149010000Y-23150000D01*
D38*
X147800000Y-38850000D02*
X147850000Y-38900000D01*
D37*
X149990000Y-42370000D02*
X149020000Y-42370000D01*
D38*
X147180000Y-38850000D02*
X147180000Y-38220000D01*
X150000000Y-40700000D02*
X151250000Y-39450000D01*
D37*
X146900000Y-41100000D02*
X147125000Y-40875000D01*
D38*
X146200000Y-35120000D02*
X143930000Y-35120000D01*
D37*
X146900000Y-41437500D02*
X146900000Y-41100000D01*
D38*
X148750000Y-36675000D02*
X148750000Y-36050000D01*
%TD*%
%TA.AperFunction,Conductor*%
%TO.N,Board_0-Net-(U1-SW)*%
G36*
X144479494Y-31705499D02*
G01*
X144479500Y-31705500D01*
X144479506Y-31705500D01*
X145876000Y-31705500D01*
X145943039Y-31725185D01*
X145988794Y-31777989D01*
X146000000Y-31829500D01*
X146000000Y-33125500D01*
X145980315Y-33192539D01*
X145927511Y-33238294D01*
X145876000Y-33249500D01*
X144412841Y-33249500D01*
X144404267Y-33248905D01*
X144392238Y-33247227D01*
X144392235Y-33247227D01*
X144367219Y-33248383D01*
X144344490Y-33249434D01*
X144341627Y-33249500D01*
X144322155Y-33249500D01*
X144321207Y-33249677D01*
X144319515Y-33249993D01*
X144310987Y-33250982D01*
X144281797Y-33252332D01*
X144280008Y-33252415D01*
X144273663Y-33255215D01*
X144246380Y-33263665D01*
X144239568Y-33264938D01*
X144239567Y-33264939D01*
X144221702Y-33276000D01*
X144213206Y-33281260D01*
X144205607Y-33285265D01*
X144177235Y-33297793D01*
X144172336Y-33302693D01*
X144149942Y-33320431D01*
X144144048Y-33324080D01*
X144125361Y-33348825D01*
X144119724Y-33355303D01*
X144111355Y-33363673D01*
X144050035Y-33397164D01*
X144023666Y-33400000D01*
X143674000Y-33400000D01*
X143606961Y-33380315D01*
X143561206Y-33327511D01*
X143550000Y-33276000D01*
X143550000Y-32217428D01*
X143569685Y-32150389D01*
X143599688Y-32118162D01*
X143607994Y-32111945D01*
X143607995Y-32111943D01*
X143611543Y-32109288D01*
X143612137Y-32110081D01*
X143631434Y-32097120D01*
X143640687Y-32092597D01*
X143695142Y-32080000D01*
X144025991Y-32080000D01*
X144026000Y-32080000D01*
X144069684Y-32075303D01*
X144095439Y-32069700D01*
X144121193Y-32064098D01*
X144125374Y-32063075D01*
X144131373Y-32061610D01*
X144212085Y-32018600D01*
X144264889Y-31972845D01*
X144282843Y-31955254D01*
X144327490Y-31875437D01*
X144347175Y-31808398D01*
X144347176Y-31808390D01*
X144348114Y-31804082D01*
X144348422Y-31804149D01*
X144348423Y-31804148D01*
X144348438Y-31804152D01*
X144349928Y-31804476D01*
X144375738Y-31747922D01*
X144434506Y-31710131D01*
X144475071Y-31705766D01*
X144475071Y-31705500D01*
X144477552Y-31705500D01*
X144478333Y-31705416D01*
X144479494Y-31705499D01*
G37*
%TD.AperFunction*%
%TD*%
%TA.AperFunction,Conductor*%
%TO.N,Board_0-+3V3*%
G36*
X148184141Y-35018907D02*
G01*
X148214159Y-35054055D01*
X148220724Y-35066940D01*
X148226472Y-35078220D01*
X148321780Y-35173528D01*
X148321782Y-35173529D01*
X148374819Y-35200553D01*
X148441874Y-35234719D01*
X148549945Y-35251835D01*
X148574999Y-35255804D01*
X148574999Y-35255803D01*
X148575000Y-35255804D01*
X148708126Y-35234719D01*
X148754108Y-35211289D01*
X148799053Y-35200500D01*
X148934836Y-35200500D01*
X148948511Y-35202732D01*
X148948683Y-35201506D01*
X148957764Y-35202772D01*
X148957765Y-35202773D01*
X148957765Y-35202772D01*
X148957766Y-35202773D01*
X148966507Y-35202368D01*
X149005793Y-35200552D01*
X149008070Y-35200500D01*
X149027841Y-35200500D01*
X149027844Y-35200500D01*
X149031337Y-35199846D01*
X149038141Y-35199056D01*
X149069992Y-35197585D01*
X149078976Y-35193617D01*
X149100777Y-35186865D01*
X149110433Y-35185061D01*
X149137543Y-35168274D01*
X149143589Y-35165088D01*
X149172765Y-35152206D01*
X149179709Y-35145260D01*
X149197601Y-35131089D01*
X149205952Y-35125919D01*
X149225165Y-35100474D01*
X149229662Y-35095308D01*
X149258031Y-35066938D01*
X149294175Y-35043914D01*
X149315261Y-35036240D01*
X149330847Y-35023161D01*
X149387576Y-35000241D01*
X149394483Y-35000000D01*
X149705517Y-35000000D01*
X149763708Y-35018907D01*
X149769153Y-35023162D01*
X149792405Y-35042672D01*
X149795590Y-35045591D01*
X150421004Y-35671004D01*
X150448781Y-35725521D01*
X150450000Y-35741008D01*
X150450000Y-36534021D01*
X150431093Y-36592212D01*
X150421004Y-36604025D01*
X150414525Y-36610504D01*
X150360008Y-36638281D01*
X150344521Y-36639500D01*
X150025684Y-36639500D01*
X150009398Y-36641644D01*
X149976825Y-36645932D01*
X149976824Y-36645932D01*
X149869598Y-36695933D01*
X149785933Y-36779598D01*
X149735932Y-36886824D01*
X149735932Y-36886825D01*
X149729500Y-36935685D01*
X149729500Y-37051000D01*
X149710593Y-37109191D01*
X149661093Y-37145155D01*
X149630500Y-37150000D01*
X148849999Y-37150000D01*
X148754495Y-37245504D01*
X148699979Y-37273281D01*
X148684492Y-37274500D01*
X148616510Y-37274500D01*
X148516874Y-37290281D01*
X148516867Y-37290283D01*
X148396782Y-37351470D01*
X148301470Y-37446782D01*
X148240283Y-37566867D01*
X148240281Y-37566874D01*
X148224500Y-37666510D01*
X148224500Y-37734492D01*
X148205593Y-37792683D01*
X148195504Y-37804495D01*
X147800000Y-38199999D01*
X147800000Y-38801000D01*
X147781093Y-38859191D01*
X147731593Y-38895155D01*
X147701000Y-38900000D01*
X146999000Y-38900000D01*
X146940809Y-38881093D01*
X146904845Y-38831593D01*
X146900000Y-38801000D01*
X146900000Y-37609499D01*
X146918907Y-37551308D01*
X146968407Y-37515344D01*
X146999000Y-37510499D01*
X147000091Y-37510499D01*
X147000099Y-37510500D01*
X147359900Y-37510499D01*
X147409487Y-37503972D01*
X147409488Y-37503972D01*
X147518312Y-37453226D01*
X147518312Y-37453225D01*
X147518316Y-37453224D01*
X147520926Y-37450613D01*
X147544671Y-37433089D01*
X147603072Y-37402223D01*
X147629857Y-37389323D01*
X147656642Y-37376425D01*
X147656646Y-37376421D01*
X147662778Y-37372242D01*
X147663028Y-37372609D01*
X147664832Y-37371329D01*
X147664568Y-37370971D01*
X147670529Y-37366570D01*
X147670538Y-37366566D01*
X147712598Y-37324505D01*
X147756194Y-37284055D01*
X147756198Y-37284047D01*
X147760820Y-37278253D01*
X147761166Y-37278529D01*
X147769704Y-37267398D01*
X148049774Y-36987327D01*
X148067106Y-36973507D01*
X148072175Y-36970323D01*
X148104275Y-36933019D01*
X148106767Y-36930334D01*
X148117425Y-36919678D01*
X148126371Y-36907554D01*
X148128666Y-36904678D01*
X148144028Y-36886827D01*
X148160758Y-36867387D01*
X148163150Y-36861901D01*
X148174239Y-36842696D01*
X148177793Y-36837882D01*
X148194052Y-36791412D01*
X148195375Y-36788041D01*
X148215065Y-36742915D01*
X148215735Y-36736957D01*
X148220669Y-36715346D01*
X148222646Y-36709699D01*
X148224486Y-36660506D01*
X148224758Y-36656878D01*
X148230270Y-36607965D01*
X148229156Y-36602080D01*
X148227499Y-36579977D01*
X148227724Y-36573990D01*
X148214985Y-36526450D01*
X148214168Y-36522867D01*
X148213557Y-36519636D01*
X148205023Y-36474528D01*
X148202222Y-36469228D01*
X148194123Y-36448592D01*
X148192575Y-36442813D01*
X148192573Y-36442810D01*
X148192573Y-36442809D01*
X148182959Y-36427509D01*
X148166391Y-36401143D01*
X148164563Y-36397977D01*
X148141565Y-36354462D01*
X148137330Y-36350227D01*
X148123507Y-36332893D01*
X148120322Y-36327824D01*
X148083037Y-36295737D01*
X148080323Y-36293219D01*
X147690131Y-35903028D01*
X147662354Y-35848511D01*
X147662185Y-35847406D01*
X147660645Y-35836830D01*
X147609636Y-35732489D01*
X147527511Y-35650364D01*
X147423170Y-35599355D01*
X147423171Y-35599355D01*
X147406259Y-35596891D01*
X147355528Y-35589500D01*
X146999000Y-35589500D01*
X146940809Y-35570593D01*
X146904845Y-35521093D01*
X146900000Y-35490500D01*
X146900000Y-35099000D01*
X146918907Y-35040809D01*
X146968407Y-35004845D01*
X146999000Y-35000000D01*
X148125950Y-35000000D01*
X148184141Y-35018907D01*
G37*
%TD.AperFunction*%
%TD*%
%TA.AperFunction,Conductor*%
%TO.N,Board_0-Cap_V+*%
G36*
X144861574Y-27611619D02*
G01*
X144866821Y-27614066D01*
X144866824Y-27614066D01*
X144866827Y-27614068D01*
X144900500Y-27618501D01*
X144915683Y-27620500D01*
X144915684Y-27620500D01*
X145264317Y-27620500D01*
X145279500Y-27618501D01*
X145313173Y-27614068D01*
X145313176Y-27614066D01*
X145313178Y-27614066D01*
X145318426Y-27611619D01*
X145370832Y-27600000D01*
X145829168Y-27600000D01*
X145881574Y-27611619D01*
X145886821Y-27614066D01*
X145886824Y-27614066D01*
X145886827Y-27614068D01*
X145920500Y-27618501D01*
X145935683Y-27620500D01*
X146152441Y-27620500D01*
X146219480Y-27640185D01*
X146265235Y-27692989D01*
X146275179Y-27762147D01*
X146274914Y-27763899D01*
X146269196Y-27799999D01*
X146269196Y-27800002D01*
X146290279Y-27933121D01*
X146290280Y-27933124D01*
X146290281Y-27933126D01*
X146309674Y-27971186D01*
X146351473Y-28053221D01*
X146351476Y-28053225D01*
X146446774Y-28148523D01*
X146446778Y-28148526D01*
X146446780Y-28148528D01*
X146566874Y-28209719D01*
X146566876Y-28209719D01*
X146566878Y-28209720D01*
X146699998Y-28230804D01*
X146700000Y-28230804D01*
X146700002Y-28230804D01*
X146833121Y-28209720D01*
X146833121Y-28209719D01*
X146833126Y-28209719D01*
X146953220Y-28148528D01*
X147048528Y-28053220D01*
X147109719Y-27933126D01*
X147130804Y-27800000D01*
X147121839Y-27743396D01*
X147130795Y-27674104D01*
X147175792Y-27620652D01*
X147242543Y-27600013D01*
X147244313Y-27600000D01*
X147976000Y-27600000D01*
X148043039Y-27619685D01*
X148088794Y-27672489D01*
X148100000Y-27724000D01*
X148100000Y-29000000D01*
X148800000Y-29700000D01*
X150353338Y-29700000D01*
X150420377Y-29719685D01*
X150432005Y-29728149D01*
X150441460Y-29735909D01*
X150444886Y-29738198D01*
X150489694Y-29791808D01*
X150500000Y-29841303D01*
X150500000Y-31376000D01*
X150480315Y-31443039D01*
X150427511Y-31488794D01*
X150376000Y-31500000D01*
X144479500Y-31500000D01*
X144412461Y-31480315D01*
X144366706Y-31427511D01*
X144355500Y-31376000D01*
X144355500Y-30862254D01*
X144375185Y-30795215D01*
X144391819Y-30774573D01*
X144398406Y-30767985D01*
X144398409Y-30767984D01*
X144767250Y-30399141D01*
X144798633Y-30376340D01*
X144853220Y-30348528D01*
X144948528Y-30253220D01*
X145009719Y-30133126D01*
X145030804Y-30000000D01*
X145009719Y-29866874D01*
X144948528Y-29746780D01*
X144948526Y-29746778D01*
X144948523Y-29746774D01*
X144853225Y-29651476D01*
X144853221Y-29651473D01*
X144853220Y-29651472D01*
X144733126Y-29590281D01*
X144733124Y-29590280D01*
X144733121Y-29590279D01*
X144600002Y-29569196D01*
X144599998Y-29569196D01*
X144466876Y-29590279D01*
X144380294Y-29634395D01*
X144311625Y-29647291D01*
X144246884Y-29621014D01*
X144206628Y-29563907D01*
X144200000Y-29523910D01*
X144200000Y-28897044D01*
X144219685Y-28830005D01*
X144236319Y-28809363D01*
X144289196Y-28756485D01*
X144289198Y-28756483D01*
X144340573Y-28651393D01*
X144350500Y-28583260D01*
X144350500Y-28013333D01*
X144370185Y-27946294D01*
X144386819Y-27925652D01*
X144676152Y-27636319D01*
X144737475Y-27602834D01*
X144763833Y-27600000D01*
X144809168Y-27600000D01*
X144861574Y-27611619D01*
G37*
%TD.AperFunction*%
%TD*%
%TA.AperFunction,Conductor*%
%TO.N,Board_0-Net-(U1-RUN)*%
G36*
X144093039Y-29819685D02*
G01*
X144138794Y-29872489D01*
X144150000Y-29924000D01*
X144150000Y-31750500D01*
X144130315Y-31817539D01*
X144077511Y-31863294D01*
X144026000Y-31874500D01*
X143666739Y-31874500D01*
X143598608Y-31884426D01*
X143493514Y-31935803D01*
X143462681Y-31966637D01*
X143401358Y-32000122D01*
X143331666Y-31995138D01*
X143287319Y-31966637D01*
X143260422Y-31939740D01*
X143226937Y-31878417D01*
X143225630Y-31832665D01*
X143230804Y-31800000D01*
X143209719Y-31666874D01*
X143148528Y-31546780D01*
X143148526Y-31546778D01*
X143148523Y-31546774D01*
X143053225Y-31451476D01*
X143053221Y-31451473D01*
X143053220Y-31451472D01*
X142933126Y-31390281D01*
X142933124Y-31390280D01*
X142933121Y-31390279D01*
X142800002Y-31369196D01*
X142799998Y-31369196D01*
X142666878Y-31390279D01*
X142546778Y-31451473D01*
X142546774Y-31451476D01*
X142451476Y-31546774D01*
X142451473Y-31546778D01*
X142390279Y-31666878D01*
X142369196Y-31799997D01*
X142369196Y-31800002D01*
X142390279Y-31933122D01*
X142390280Y-31933125D01*
X142390281Y-31933126D01*
X142391645Y-31935803D01*
X142419476Y-31990425D01*
X142432371Y-32059094D01*
X142420393Y-32101174D01*
X142409427Y-32123606D01*
X142409425Y-32123611D01*
X142399500Y-32191739D01*
X142399500Y-33276000D01*
X142379815Y-33343039D01*
X142327011Y-33388794D01*
X142275500Y-33400000D01*
X141774000Y-33400000D01*
X141706961Y-33380315D01*
X141661206Y-33327511D01*
X141650000Y-33276000D01*
X141650000Y-31449500D01*
X141669685Y-31382461D01*
X141722489Y-31336706D01*
X141774000Y-31325500D01*
X142133261Y-31325500D01*
X142155971Y-31322191D01*
X142201393Y-31315573D01*
X142306483Y-31264198D01*
X142389198Y-31181483D01*
X142440573Y-31076393D01*
X142450500Y-31008260D01*
X142450500Y-29924000D01*
X142470185Y-29856961D01*
X142522989Y-29811206D01*
X142574500Y-29800000D01*
X144026000Y-29800000D01*
X144093039Y-29819685D01*
G37*
%TD.AperFunction*%
%TD*%
%TA.AperFunction,Conductor*%
%TO.N,Board_0-Net-(U2-SW)*%
G36*
X149997712Y-31724407D02*
G01*
X150009525Y-31734496D01*
X150070504Y-31795475D01*
X150098281Y-31849992D01*
X150099500Y-31865479D01*
X150099500Y-33545775D01*
X150082873Y-33600690D01*
X149779390Y-34055915D01*
X149731380Y-34093845D01*
X149697017Y-34100000D01*
X149396369Y-34100000D01*
X149338178Y-34081093D01*
X149320315Y-34064378D01*
X149073446Y-33768135D01*
X149050718Y-33711328D01*
X149050500Y-33704757D01*
X149050500Y-31815479D01*
X149069407Y-31757288D01*
X149079496Y-31745475D01*
X149090475Y-31734496D01*
X149144992Y-31706719D01*
X149160479Y-31705500D01*
X149939521Y-31705500D01*
X149997712Y-31724407D01*
G37*
%TD.AperFunction*%
%TD*%
%TA.AperFunction,Conductor*%
%TO.N,Board_0-GND*%
G36*
X143292712Y-45619407D02*
G01*
X143304525Y-45629496D01*
X143578049Y-45903020D01*
X143605826Y-45957537D01*
X143596255Y-46017969D01*
X143590361Y-46028024D01*
X143561135Y-46071764D01*
X143561132Y-46071772D01*
X143549501Y-46130241D01*
X143549500Y-46130253D01*
X143549500Y-48850500D01*
X143530593Y-48908691D01*
X143481093Y-48944655D01*
X143450500Y-48949500D01*
X141449500Y-48949500D01*
X141391309Y-48930593D01*
X141355345Y-48881093D01*
X141350500Y-48850500D01*
X141350500Y-45911640D01*
X141369407Y-45853449D01*
X141418907Y-45817485D01*
X141462424Y-45813487D01*
X141466823Y-45814066D01*
X141466827Y-45814068D01*
X141515684Y-45820500D01*
X141515686Y-45820500D01*
X141864314Y-45820500D01*
X141864316Y-45820500D01*
X141913173Y-45814068D01*
X142020404Y-45764065D01*
X142104065Y-45680404D01*
X142110275Y-45667085D01*
X142152003Y-45622337D01*
X142212064Y-45610662D01*
X142267517Y-45636519D01*
X142289724Y-45667084D01*
X142295935Y-45680404D01*
X142379596Y-45764065D01*
X142379597Y-45764065D01*
X142379598Y-45764066D01*
X142486824Y-45814067D01*
X142486825Y-45814067D01*
X142486827Y-45814068D01*
X142535684Y-45820500D01*
X142535685Y-45820500D01*
X142884314Y-45820500D01*
X142884316Y-45820500D01*
X142933173Y-45814068D01*
X143040404Y-45764065D01*
X143124065Y-45680404D01*
X143134480Y-45658069D01*
X143134671Y-45657660D01*
X143176399Y-45612912D01*
X143224395Y-45600500D01*
X143234521Y-45600500D01*
X143292712Y-45619407D01*
G37*
%TD.AperFunction*%
%TA.AperFunction,Conductor*%
G36*
X142954263Y-20269407D02*
G01*
X142990227Y-20318907D01*
X142990227Y-20380093D01*
X142985796Y-20391340D01*
X142945932Y-20476826D01*
X142939500Y-20525685D01*
X142939500Y-20974314D01*
X142945932Y-21023174D01*
X142945932Y-21023175D01*
X142995933Y-21130401D01*
X142995934Y-21130402D01*
X142995935Y-21130404D01*
X143079596Y-21214065D01*
X143079597Y-21214065D01*
X143079598Y-21214066D01*
X143186824Y-21264067D01*
X143186825Y-21264067D01*
X143186827Y-21264068D01*
X143235684Y-21270500D01*
X143235685Y-21270500D01*
X143584314Y-21270500D01*
X143584316Y-21270500D01*
X143633173Y-21264068D01*
X143740404Y-21214065D01*
X143802181Y-21152287D01*
X143856695Y-21124511D01*
X143917127Y-21134082D01*
X143960392Y-21177346D01*
X143966272Y-21188886D01*
X144000342Y-21255751D01*
X144094249Y-21349658D01*
X144212580Y-21409951D01*
X144279130Y-21420491D01*
X144310751Y-21425500D01*
X144310754Y-21425500D01*
X144814247Y-21425500D01*
X144820215Y-21424554D01*
X144838830Y-21421606D01*
X144899261Y-21431176D01*
X144942527Y-21474440D01*
X144952099Y-21534872D01*
X144942528Y-21564332D01*
X144921861Y-21604893D01*
X144903657Y-21629949D01*
X144888106Y-21645501D01*
X144833590Y-21673281D01*
X144818100Y-21674500D01*
X144410751Y-21674500D01*
X144312580Y-21690049D01*
X144312576Y-21690050D01*
X144194250Y-21750341D01*
X144100341Y-21844250D01*
X144040050Y-21962576D01*
X144040049Y-21962580D01*
X144024500Y-22060751D01*
X144024500Y-22564248D01*
X144040049Y-22662419D01*
X144040050Y-22662423D01*
X144084917Y-22750478D01*
X144100342Y-22780751D01*
X144194249Y-22874658D01*
X144312580Y-22934951D01*
X144379130Y-22945491D01*
X144410751Y-22950500D01*
X144410754Y-22950500D01*
X144989249Y-22950500D01*
X145017803Y-22945976D01*
X145087420Y-22934951D01*
X145205751Y-22874658D01*
X145247051Y-22833357D01*
X145301565Y-22805581D01*
X145361997Y-22815152D01*
X145405262Y-22858416D01*
X145414241Y-22915105D01*
X145415255Y-22915220D01*
X145414633Y-22920742D01*
X145414632Y-22920745D01*
X145394435Y-23100000D01*
X145413699Y-23270977D01*
X145415255Y-23284780D01*
X145412639Y-23285074D01*
X145408066Y-23335595D01*
X145367785Y-23381650D01*
X145308126Y-23395234D01*
X145251877Y-23371156D01*
X145247064Y-23366655D01*
X145205751Y-23325342D01*
X145158904Y-23301472D01*
X145087423Y-23265050D01*
X145087420Y-23265049D01*
X145059721Y-23260662D01*
X144989249Y-23249500D01*
X144989246Y-23249500D01*
X144410754Y-23249500D01*
X144410751Y-23249500D01*
X144312580Y-23265049D01*
X144312576Y-23265050D01*
X144194250Y-23325341D01*
X144100341Y-23419250D01*
X144040050Y-23537576D01*
X144040049Y-23537580D01*
X144029805Y-23602262D01*
X144024500Y-23635754D01*
X144024500Y-24139246D01*
X144039369Y-24233129D01*
X144040049Y-24237419D01*
X144040050Y-24237423D01*
X144070982Y-24298130D01*
X144100342Y-24355751D01*
X144194249Y-24449658D01*
X144312580Y-24509951D01*
X144379130Y-24520491D01*
X144410751Y-24525500D01*
X144410754Y-24525500D01*
X144989249Y-24525500D01*
X145062876Y-24513838D01*
X145087420Y-24509951D01*
X145132430Y-24487016D01*
X145192859Y-24477444D01*
X145222318Y-24487016D01*
X145266874Y-24509719D01*
X145400000Y-24530804D01*
X145533126Y-24509719D01*
X145653220Y-24448528D01*
X145748528Y-24353220D01*
X145809719Y-24233126D01*
X145830804Y-24100000D01*
X145809719Y-23966874D01*
X145809718Y-23966872D01*
X145809591Y-23966070D01*
X145819162Y-23905638D01*
X145862427Y-23862374D01*
X145922859Y-23852802D01*
X145940070Y-23857139D01*
X146020738Y-23885366D01*
X146020742Y-23885367D01*
X146020745Y-23885368D01*
X146020746Y-23885368D01*
X146020750Y-23885369D01*
X146155029Y-23900499D01*
X146155045Y-23900499D01*
X146155046Y-23900500D01*
X146155047Y-23900500D01*
X146244953Y-23900500D01*
X146244954Y-23900500D01*
X146244955Y-23900499D01*
X146244970Y-23900499D01*
X146379249Y-23885369D01*
X146379251Y-23885368D01*
X146379255Y-23885368D01*
X146549522Y-23825789D01*
X146702262Y-23729816D01*
X146730498Y-23701579D01*
X146785013Y-23673804D01*
X146845445Y-23683375D01*
X146888710Y-23726640D01*
X146899500Y-23771585D01*
X146899500Y-25663437D01*
X146906953Y-25686374D01*
X146910579Y-25701474D01*
X146914354Y-25725306D01*
X146925301Y-25746788D01*
X146931247Y-25761142D01*
X146938703Y-25784088D01*
X146938702Y-25784088D01*
X146952884Y-25803608D01*
X146960997Y-25816847D01*
X146971950Y-25838342D01*
X146971951Y-25838343D01*
X146992031Y-25858424D01*
X146994515Y-25860908D01*
X146994516Y-25860909D01*
X147420505Y-26286898D01*
X147448281Y-26341413D01*
X147449500Y-26356900D01*
X147449500Y-26483260D01*
X147450509Y-26490184D01*
X147459427Y-26551395D01*
X147508719Y-26652222D01*
X147510802Y-26656483D01*
X147593517Y-26739198D01*
X147647285Y-26765483D01*
X147698604Y-26790572D01*
X147698605Y-26790572D01*
X147698607Y-26790573D01*
X147766740Y-26800500D01*
X147766743Y-26800500D01*
X148133257Y-26800500D01*
X148133260Y-26800500D01*
X148201393Y-26790573D01*
X148306483Y-26739198D01*
X148389198Y-26656483D01*
X148440573Y-26551393D01*
X148450500Y-26483260D01*
X148450500Y-26016740D01*
X148440573Y-25948607D01*
X148433774Y-25934700D01*
X148397698Y-25860905D01*
X148389198Y-25843517D01*
X148306483Y-25760802D01*
X148306481Y-25760801D01*
X148201395Y-25709427D01*
X148174139Y-25705456D01*
X148133260Y-25699500D01*
X148133257Y-25699500D01*
X148006901Y-25699500D01*
X147948710Y-25680593D01*
X147936897Y-25670504D01*
X147729496Y-25463103D01*
X147701719Y-25408586D01*
X147700500Y-25393099D01*
X147700500Y-23864479D01*
X147719407Y-23806288D01*
X147768907Y-23770324D01*
X147830093Y-23770324D01*
X147869504Y-23794475D01*
X148741436Y-24666407D01*
X148749537Y-24677647D01*
X148750516Y-24676909D01*
X148756044Y-24684230D01*
X148791569Y-24716616D01*
X148793223Y-24718195D01*
X148805064Y-24730035D01*
X148807203Y-24732174D01*
X148810128Y-24734178D01*
X148815505Y-24738437D01*
X148839063Y-24759913D01*
X148839064Y-24759913D01*
X148839067Y-24759916D01*
X148848233Y-24763467D01*
X148868412Y-24774103D01*
X148876520Y-24779657D01*
X148907558Y-24786957D01*
X148914096Y-24788982D01*
X148943827Y-24800500D01*
X148953652Y-24800500D01*
X148976316Y-24803129D01*
X148985881Y-24805379D01*
X149010494Y-24801945D01*
X149017453Y-24800975D01*
X149024299Y-24800500D01*
X150375252Y-24800500D01*
X150433443Y-24819407D01*
X150463462Y-24854555D01*
X150465280Y-24858124D01*
X150465281Y-24858126D01*
X150526472Y-24978220D01*
X150621780Y-25073528D01*
X150741874Y-25134719D01*
X150850159Y-25151869D01*
X150904674Y-25179646D01*
X150904675Y-25179646D01*
X150950768Y-25225739D01*
X150978545Y-25280256D01*
X150968974Y-25340688D01*
X150925709Y-25383953D01*
X150890221Y-25393179D01*
X150890254Y-25393351D01*
X150887704Y-25393833D01*
X150884471Y-25394674D01*
X150882962Y-25394730D01*
X150749529Y-25419976D01*
X150629460Y-25483436D01*
X150342392Y-25770504D01*
X150287876Y-25798281D01*
X150272389Y-25799500D01*
X149786188Y-25799500D01*
X149727997Y-25780593D01*
X149716190Y-25770509D01*
X149706483Y-25760802D01*
X149706481Y-25760801D01*
X149601395Y-25709427D01*
X149574139Y-25705456D01*
X149533260Y-25699500D01*
X149166740Y-25699500D01*
X149132673Y-25704463D01*
X149098604Y-25709427D01*
X148993518Y-25760801D01*
X148910801Y-25843518D01*
X148859427Y-25948604D01*
X148859427Y-25948607D01*
X148849500Y-26016740D01*
X148849500Y-26483260D01*
X148850509Y-26490184D01*
X148859427Y-26551395D01*
X148908719Y-26652222D01*
X148910802Y-26656483D01*
X148993517Y-26739198D01*
X149047285Y-26765483D01*
X149098604Y-26790572D01*
X149098605Y-26790572D01*
X149098607Y-26790573D01*
X149166740Y-26800500D01*
X149166743Y-26800500D01*
X149533257Y-26800500D01*
X149533260Y-26800500D01*
X149601393Y-26790573D01*
X149706483Y-26739198D01*
X149716186Y-26729494D01*
X149770701Y-26701719D01*
X149786188Y-26700500D01*
X150471913Y-26700500D01*
X150477459Y-26700811D01*
X150517035Y-26705270D01*
X150575479Y-26694211D01*
X150634287Y-26685348D01*
X150634294Y-26685344D01*
X150641381Y-26683159D01*
X150641512Y-26683584D01*
X150643613Y-26682892D01*
X150643467Y-26682473D01*
X150650464Y-26680024D01*
X150650472Y-26680023D01*
X150669428Y-26670004D01*
X150703072Y-26652223D01*
X150729857Y-26639323D01*
X150756642Y-26626425D01*
X150756646Y-26626421D01*
X150762778Y-26622242D01*
X150763028Y-26622609D01*
X150764832Y-26621329D01*
X150764568Y-26620971D01*
X150770529Y-26616570D01*
X150770538Y-26616566D01*
X150812600Y-26574503D01*
X150856194Y-26534055D01*
X150856195Y-26534052D01*
X150856197Y-26534051D01*
X150860823Y-26528251D01*
X150861168Y-26528526D01*
X150869706Y-26517396D01*
X151242425Y-26144679D01*
X151302792Y-26062883D01*
X151347646Y-25934700D01*
X151352724Y-25798990D01*
X151340074Y-25751780D01*
X151343275Y-25690682D01*
X151381779Y-25643131D01*
X151440879Y-25627294D01*
X151458367Y-25629787D01*
X151460881Y-25630379D01*
X151486176Y-25626850D01*
X151492453Y-25625975D01*
X151499299Y-25625500D01*
X152500500Y-25625500D01*
X152558691Y-25644407D01*
X152594655Y-25693907D01*
X152599500Y-25724500D01*
X152599500Y-25869746D01*
X152599501Y-25869758D01*
X152611132Y-25928227D01*
X152611134Y-25928233D01*
X152615456Y-25934701D01*
X152655448Y-25994552D01*
X152721769Y-26038867D01*
X152766231Y-26047711D01*
X152780241Y-26050498D01*
X152780246Y-26050498D01*
X152780252Y-26050500D01*
X152780253Y-26050500D01*
X153469747Y-26050500D01*
X153469748Y-26050500D01*
X153528231Y-26038867D01*
X153594552Y-25994552D01*
X153638867Y-25928231D01*
X153650500Y-25869748D01*
X153650500Y-24780252D01*
X153650381Y-24779656D01*
X153641334Y-24734173D01*
X153638867Y-24721769D01*
X153594552Y-24655448D01*
X153594548Y-24655445D01*
X153528233Y-24611134D01*
X153528231Y-24611133D01*
X153528228Y-24611132D01*
X153528227Y-24611132D01*
X153469758Y-24599501D01*
X153469748Y-24599500D01*
X152780252Y-24599500D01*
X152780251Y-24599500D01*
X152780241Y-24599501D01*
X152721772Y-24611132D01*
X152721766Y-24611134D01*
X152655451Y-24655445D01*
X152655445Y-24655451D01*
X152611134Y-24721766D01*
X152611132Y-24721772D01*
X152599501Y-24780241D01*
X152599500Y-24780253D01*
X152599500Y-24925500D01*
X152580593Y-24983691D01*
X152531093Y-25019655D01*
X152500500Y-25024500D01*
X151640479Y-25024500D01*
X151582288Y-25005593D01*
X151570475Y-24995504D01*
X151329646Y-24754675D01*
X151301869Y-24700158D01*
X151301844Y-24699999D01*
X151284719Y-24591874D01*
X151223528Y-24471780D01*
X151128220Y-24376472D01*
X151128217Y-24376470D01*
X151008129Y-24315282D01*
X151008127Y-24315281D01*
X150899840Y-24298130D01*
X150845325Y-24270354D01*
X150842797Y-24267826D01*
X150839859Y-24265813D01*
X150834496Y-24261564D01*
X150810933Y-24240084D01*
X150801762Y-24236531D01*
X150781586Y-24225895D01*
X150773484Y-24220345D01*
X150773479Y-24220343D01*
X150742457Y-24213046D01*
X150735902Y-24211016D01*
X150706177Y-24199501D01*
X150706174Y-24199500D01*
X150706173Y-24199500D01*
X150706172Y-24199500D01*
X150696348Y-24199500D01*
X150673683Y-24196870D01*
X150664119Y-24194621D01*
X150664118Y-24194621D01*
X150632547Y-24199025D01*
X150625701Y-24199500D01*
X150171154Y-24199500D01*
X150112963Y-24180593D01*
X150076999Y-24131093D01*
X150076999Y-24069907D01*
X150112963Y-24020407D01*
X150126201Y-24012294D01*
X150153220Y-23998528D01*
X150248528Y-23903220D01*
X150278218Y-23844949D01*
X150321481Y-23801687D01*
X150381913Y-23792116D01*
X150419098Y-23806072D01*
X150450474Y-23825787D01*
X150450475Y-23825787D01*
X150450478Y-23825789D01*
X150527677Y-23852802D01*
X150620738Y-23885366D01*
X150620742Y-23885367D01*
X150620745Y-23885368D01*
X150620746Y-23885368D01*
X150620750Y-23885369D01*
X150755029Y-23900499D01*
X150755045Y-23900499D01*
X150755046Y-23900500D01*
X150755047Y-23900500D01*
X150844953Y-23900500D01*
X150844954Y-23900500D01*
X150844955Y-23900499D01*
X150844970Y-23900499D01*
X150979249Y-23885369D01*
X150979251Y-23885368D01*
X150979255Y-23885368D01*
X151149522Y-23825789D01*
X151302262Y-23729816D01*
X151429816Y-23602262D01*
X151525789Y-23449522D01*
X151585368Y-23279255D01*
X151605565Y-23100000D01*
X151585368Y-22920745D01*
X151583394Y-22915105D01*
X151536381Y-22780749D01*
X151525789Y-22750478D01*
X151470458Y-22662420D01*
X151429818Y-22597741D01*
X151429817Y-22597740D01*
X151429816Y-22597738D01*
X151302262Y-22470184D01*
X151302259Y-22470182D01*
X151302258Y-22470181D01*
X151149523Y-22374211D01*
X150979261Y-22314633D01*
X150979249Y-22314630D01*
X150844970Y-22299500D01*
X150844954Y-22299500D01*
X150755046Y-22299500D01*
X150755029Y-22299500D01*
X150620750Y-22314630D01*
X150620738Y-22314633D01*
X150450477Y-22374211D01*
X150450476Y-22374211D01*
X150297741Y-22470181D01*
X150170181Y-22597741D01*
X150074211Y-22750476D01*
X150074211Y-22750477D01*
X150014633Y-22920738D01*
X150014632Y-22920742D01*
X149994435Y-23100000D01*
X149995462Y-23109113D01*
X149983188Y-23169054D01*
X149938025Y-23210334D01*
X149907529Y-23216934D01*
X149907695Y-23217977D01*
X149766872Y-23240281D01*
X149670896Y-23289183D01*
X149610464Y-23298754D01*
X149555948Y-23270977D01*
X149509496Y-23224525D01*
X149481719Y-23170008D01*
X149480500Y-23154521D01*
X149480500Y-22725685D01*
X149478256Y-22708639D01*
X149474068Y-22676827D01*
X149467351Y-22662423D01*
X149424066Y-22569598D01*
X149424065Y-22569597D01*
X149424065Y-22569596D01*
X149340404Y-22485935D01*
X149340402Y-22485934D01*
X149340401Y-22485933D01*
X149233175Y-22435932D01*
X149200601Y-22431644D01*
X149184316Y-22429500D01*
X148835684Y-22429500D01*
X148819398Y-22431644D01*
X148786825Y-22435932D01*
X148786824Y-22435932D01*
X148679598Y-22485933D01*
X148595933Y-22569598D01*
X148589724Y-22582915D01*
X148547995Y-22627663D01*
X148487934Y-22639337D01*
X148432482Y-22613478D01*
X148410276Y-22582915D01*
X148404066Y-22569598D01*
X148404065Y-22569597D01*
X148404065Y-22569596D01*
X148354470Y-22520001D01*
X148326695Y-22465487D01*
X148336266Y-22405055D01*
X148354469Y-22379999D01*
X148404065Y-22330404D01*
X148454068Y-22223173D01*
X148460500Y-22174316D01*
X148460500Y-21725684D01*
X148454068Y-21676827D01*
X148452414Y-21673281D01*
X148404066Y-21569598D01*
X148404065Y-21569597D01*
X148404065Y-21569596D01*
X148320404Y-21485935D01*
X148260361Y-21457936D01*
X148215615Y-21416209D01*
X148203940Y-21356148D01*
X148229798Y-21300695D01*
X148232170Y-21298238D01*
X148274658Y-21255751D01*
X148318482Y-21169741D01*
X148361746Y-21126478D01*
X148422179Y-21116907D01*
X148451636Y-21126479D01*
X148502290Y-21152288D01*
X148516874Y-21159719D01*
X148640594Y-21179314D01*
X148695110Y-21207091D01*
X148713315Y-21232147D01*
X148725342Y-21255751D01*
X148819249Y-21349658D01*
X148937580Y-21409951D01*
X149004130Y-21420491D01*
X149035751Y-21425500D01*
X149035754Y-21425500D01*
X149539249Y-21425500D01*
X149567803Y-21420976D01*
X149637420Y-21409951D01*
X149755751Y-21349658D01*
X149849658Y-21255751D01*
X149909951Y-21137420D01*
X149925500Y-21039246D01*
X149925500Y-20460754D01*
X149923722Y-20449529D01*
X149910332Y-20364987D01*
X149919903Y-20304555D01*
X149963168Y-20261291D01*
X150008113Y-20250500D01*
X150141887Y-20250500D01*
X150200078Y-20269407D01*
X150236042Y-20318907D01*
X150239668Y-20364987D01*
X150224500Y-20460751D01*
X150224500Y-21039248D01*
X150226282Y-21050500D01*
X150240003Y-21137132D01*
X150240049Y-21137419D01*
X150240050Y-21137423D01*
X150266272Y-21188886D01*
X150300342Y-21255751D01*
X150394249Y-21349658D01*
X150512580Y-21409951D01*
X150579130Y-21420491D01*
X150610751Y-21425500D01*
X150610754Y-21425500D01*
X151114249Y-21425500D01*
X151142803Y-21420976D01*
X151212420Y-21409951D01*
X151330751Y-21349658D01*
X151424658Y-21255751D01*
X151436683Y-21232151D01*
X151479947Y-21188886D01*
X151509404Y-21179314D01*
X151633126Y-21159719D01*
X151698363Y-21126478D01*
X151758794Y-21116907D01*
X151813311Y-21144684D01*
X151831517Y-21169742D01*
X151874501Y-21254101D01*
X151875342Y-21255751D01*
X151969249Y-21349658D01*
X152087580Y-21409951D01*
X152154130Y-21420491D01*
X152185751Y-21425500D01*
X152185754Y-21425500D01*
X152689249Y-21425500D01*
X152717803Y-21420976D01*
X152787420Y-21409951D01*
X152905751Y-21349658D01*
X152999658Y-21255751D01*
X153039608Y-21177344D01*
X153082871Y-21134082D01*
X153143303Y-21124511D01*
X153197817Y-21152286D01*
X153259596Y-21214065D01*
X153259597Y-21214065D01*
X153259598Y-21214066D01*
X153366824Y-21264067D01*
X153366825Y-21264067D01*
X153366827Y-21264068D01*
X153415684Y-21270500D01*
X153415685Y-21270500D01*
X153764314Y-21270500D01*
X153764316Y-21270500D01*
X153813173Y-21264068D01*
X153920404Y-21214065D01*
X154004065Y-21130404D01*
X154054068Y-21023173D01*
X154060500Y-20974316D01*
X154060500Y-20525684D01*
X154054068Y-20476827D01*
X154014203Y-20391338D01*
X154006747Y-20330610D01*
X154036410Y-20277096D01*
X154091862Y-20251238D01*
X154103928Y-20250500D01*
X155550500Y-20250500D01*
X155608691Y-20269407D01*
X155644655Y-20318907D01*
X155649500Y-20349500D01*
X155649500Y-27205805D01*
X155649366Y-27209450D01*
X155648969Y-27214815D01*
X155649500Y-27236406D01*
X155649500Y-27262866D01*
X155649388Y-27262866D01*
X155649284Y-27271350D01*
X155649687Y-27271360D01*
X155649567Y-27276223D01*
X155650840Y-27293488D01*
X155650959Y-27295909D01*
X155651384Y-27313207D01*
X155651980Y-27318037D01*
X155651402Y-27318108D01*
X155652478Y-27332684D01*
X155653059Y-27332670D01*
X155653177Y-27337530D01*
X155655298Y-27354726D01*
X155655535Y-27357138D01*
X155656807Y-27374378D01*
X155657639Y-27379168D01*
X155657063Y-27379267D01*
X155658853Y-27393770D01*
X155659435Y-27393728D01*
X155659793Y-27398575D01*
X155659793Y-27398578D01*
X155659931Y-27399372D01*
X155662752Y-27415636D01*
X155663108Y-27418036D01*
X155665226Y-27435213D01*
X155666292Y-27439957D01*
X155665724Y-27440084D01*
X155668224Y-27454485D01*
X155668799Y-27454415D01*
X155669393Y-27459233D01*
X155673190Y-27476141D01*
X155673664Y-27478523D01*
X155676619Y-27495561D01*
X155677916Y-27500244D01*
X155677354Y-27500399D01*
X155680556Y-27514654D01*
X155681129Y-27514555D01*
X155681960Y-27519344D01*
X155686578Y-27536032D01*
X155687168Y-27538386D01*
X155690960Y-27555270D01*
X155692484Y-27559882D01*
X155691930Y-27560064D01*
X155695829Y-27574150D01*
X155696397Y-27574023D01*
X155697463Y-27578769D01*
X155702892Y-27595204D01*
X155703595Y-27597524D01*
X155708213Y-27614208D01*
X155709964Y-27618747D01*
X155709417Y-27618957D01*
X155714000Y-27632824D01*
X155714563Y-27632669D01*
X155715859Y-27637350D01*
X155715860Y-27637353D01*
X155715861Y-27637357D01*
X155720619Y-27649691D01*
X155722083Y-27653486D01*
X155722901Y-27655773D01*
X155728337Y-27672229D01*
X155730309Y-27676677D01*
X155729775Y-27676913D01*
X155735032Y-27690539D01*
X155735587Y-27690356D01*
X155737112Y-27694973D01*
X155744123Y-27710790D01*
X155745053Y-27713036D01*
X155751286Y-27729194D01*
X155753473Y-27733539D01*
X155752951Y-27733801D01*
X155758869Y-27747147D01*
X155759413Y-27746938D01*
X155761162Y-27751474D01*
X155766182Y-27761445D01*
X155775458Y-27821923D01*
X155747415Y-27876304D01*
X155742586Y-27880778D01*
X155717855Y-27902207D01*
X155640049Y-28023276D01*
X155640046Y-28023283D01*
X155599500Y-28161369D01*
X155599500Y-28305298D01*
X155640046Y-28443384D01*
X155640049Y-28443391D01*
X155717856Y-28564461D01*
X155717858Y-28564463D01*
X155826400Y-28658515D01*
X155857996Y-28710910D01*
X155852760Y-28771871D01*
X155826400Y-28808153D01*
X155717858Y-28902204D01*
X155717856Y-28902206D01*
X155640049Y-29023276D01*
X155640046Y-29023283D01*
X155599500Y-29161369D01*
X155599500Y-29305298D01*
X155640046Y-29443384D01*
X155640049Y-29443391D01*
X155717856Y-29564461D01*
X155717858Y-29564463D01*
X155826400Y-29658515D01*
X155857996Y-29710910D01*
X155852760Y-29771871D01*
X155826400Y-29808153D01*
X155717858Y-29902204D01*
X155717856Y-29902206D01*
X155640049Y-30023276D01*
X155640046Y-30023283D01*
X155599500Y-30161369D01*
X155599500Y-30305298D01*
X155640046Y-30443384D01*
X155640049Y-30443391D01*
X155674808Y-30497477D01*
X155690363Y-30556652D01*
X155668164Y-30613668D01*
X155616691Y-30646748D01*
X155591524Y-30650000D01*
X151650000Y-30650000D01*
X151650000Y-36950000D01*
X155552415Y-36950000D01*
X155610606Y-36968907D01*
X155646570Y-37018407D01*
X155650561Y-37041749D01*
X155650790Y-37041721D01*
X155651980Y-37051371D01*
X155651401Y-37051442D01*
X155652476Y-37066006D01*
X155653058Y-37065992D01*
X155653178Y-37070859D01*
X155655297Y-37088043D01*
X155655534Y-37090455D01*
X155656808Y-37107719D01*
X155657639Y-37112507D01*
X155657063Y-37112606D01*
X155658853Y-37127103D01*
X155659435Y-37127061D01*
X155659793Y-37131908D01*
X155659793Y-37131911D01*
X155661198Y-37140012D01*
X155662752Y-37148969D01*
X155663108Y-37151369D01*
X155665226Y-37168546D01*
X155666292Y-37173290D01*
X155665724Y-37173417D01*
X155668224Y-37187818D01*
X155668799Y-37187748D01*
X155669393Y-37192566D01*
X155673190Y-37209474D01*
X155673664Y-37211856D01*
X155676619Y-37228894D01*
X155677916Y-37233577D01*
X155677354Y-37233732D01*
X155680554Y-37247982D01*
X155681129Y-37247883D01*
X155681961Y-37252680D01*
X155686577Y-37269361D01*
X155687166Y-37271713D01*
X155690960Y-37288602D01*
X155692487Y-37293224D01*
X155691933Y-37293406D01*
X155695831Y-37307487D01*
X155696398Y-37307360D01*
X155697464Y-37312107D01*
X155702893Y-37328542D01*
X155703598Y-37330865D01*
X155708213Y-37347542D01*
X155709961Y-37352074D01*
X155709415Y-37352284D01*
X155714001Y-37366165D01*
X155714564Y-37366010D01*
X155715859Y-37370691D01*
X155722087Y-37386835D01*
X155722905Y-37389121D01*
X155728338Y-37405565D01*
X155730309Y-37410012D01*
X155729774Y-37410249D01*
X155735028Y-37423867D01*
X155735585Y-37423684D01*
X155737111Y-37428304D01*
X155743223Y-37442094D01*
X155744127Y-37444132D01*
X155745055Y-37446373D01*
X155751286Y-37462525D01*
X155753474Y-37466871D01*
X155752951Y-37467134D01*
X155758872Y-37480488D01*
X155759416Y-37480279D01*
X155761164Y-37484813D01*
X155766182Y-37494781D01*
X155775457Y-37555259D01*
X155747412Y-37609639D01*
X155742586Y-37614110D01*
X155717856Y-37635539D01*
X155717854Y-37635542D01*
X155640049Y-37756608D01*
X155640046Y-37756615D01*
X155599500Y-37894701D01*
X155599500Y-38038630D01*
X155640046Y-38176716D01*
X155640049Y-38176723D01*
X155717856Y-38297793D01*
X155717858Y-38297795D01*
X155826400Y-38391847D01*
X155857996Y-38444242D01*
X155852760Y-38505203D01*
X155826400Y-38541485D01*
X155717858Y-38635536D01*
X155717856Y-38635538D01*
X155640049Y-38756608D01*
X155640046Y-38756615D01*
X155599500Y-38894701D01*
X155599500Y-39038630D01*
X155640046Y-39176716D01*
X155640049Y-39176723D01*
X155717856Y-39297793D01*
X155717858Y-39297795D01*
X155826400Y-39391847D01*
X155857996Y-39444242D01*
X155852760Y-39505203D01*
X155826400Y-39541485D01*
X155717858Y-39635536D01*
X155717856Y-39635538D01*
X155640049Y-39756608D01*
X155640046Y-39756615D01*
X155599500Y-39894701D01*
X155599500Y-40038630D01*
X155640046Y-40176716D01*
X155640049Y-40176723D01*
X155717856Y-40297793D01*
X155717858Y-40297795D01*
X155826400Y-40391847D01*
X155857996Y-40444242D01*
X155852760Y-40505203D01*
X155826400Y-40541485D01*
X155717858Y-40635536D01*
X155717856Y-40635538D01*
X155640049Y-40756608D01*
X155640046Y-40756615D01*
X155599500Y-40894701D01*
X155599500Y-41038630D01*
X155640046Y-41176716D01*
X155640049Y-41176723D01*
X155717856Y-41297793D01*
X155742585Y-41319221D01*
X155774180Y-41371617D01*
X155768944Y-41432578D01*
X155766185Y-41438546D01*
X155761165Y-41448519D01*
X155759414Y-41453060D01*
X155758872Y-41452850D01*
X155752951Y-41466209D01*
X155753469Y-41466470D01*
X155751284Y-41470808D01*
X155745055Y-41486958D01*
X155744127Y-41489199D01*
X155737114Y-41505020D01*
X155735588Y-41509641D01*
X155735033Y-41509457D01*
X155729776Y-41523089D01*
X155730308Y-41523325D01*
X155728337Y-41527770D01*
X155722904Y-41544214D01*
X155722088Y-41546496D01*
X155715862Y-41562636D01*
X155714564Y-41567327D01*
X155714001Y-41567171D01*
X155709420Y-41581038D01*
X155709965Y-41581249D01*
X155708212Y-41585793D01*
X155703593Y-41602478D01*
X155702890Y-41604795D01*
X155697464Y-41621225D01*
X155696399Y-41625968D01*
X155695831Y-41625840D01*
X155691932Y-41639929D01*
X155692485Y-41640112D01*
X155690958Y-41644734D01*
X155687167Y-41661611D01*
X155686579Y-41663958D01*
X155681962Y-41680648D01*
X155681129Y-41685450D01*
X155680555Y-41685350D01*
X155677356Y-41699602D01*
X155677916Y-41699757D01*
X155676618Y-41704445D01*
X155673661Y-41721484D01*
X155673188Y-41723860D01*
X155669394Y-41740761D01*
X155668799Y-41745586D01*
X155668225Y-41745515D01*
X155665727Y-41759912D01*
X155666292Y-41760039D01*
X155665227Y-41764779D01*
X155663108Y-41781964D01*
X155662751Y-41784364D01*
X155659793Y-41801413D01*
X155659436Y-41806262D01*
X155658854Y-41806219D01*
X155657064Y-41820728D01*
X155657639Y-41820828D01*
X155656807Y-41825616D01*
X155655535Y-41842862D01*
X155655298Y-41845273D01*
X155653177Y-41862476D01*
X155653059Y-41867330D01*
X155652479Y-41867315D01*
X155651405Y-41881897D01*
X155651979Y-41881968D01*
X155651384Y-41886787D01*
X155650959Y-41904089D01*
X155650840Y-41906510D01*
X155649567Y-41923775D01*
X155649687Y-41928642D01*
X155649283Y-41928651D01*
X155649388Y-41937134D01*
X155649500Y-41937134D01*
X155649500Y-41963592D01*
X155648969Y-41985186D01*
X155649366Y-41990552D01*
X155649500Y-41994197D01*
X155649500Y-48850500D01*
X155630593Y-48908691D01*
X155581093Y-48944655D01*
X155550500Y-48949500D01*
X153549500Y-48949500D01*
X153491309Y-48930593D01*
X153455345Y-48881093D01*
X153450500Y-48850500D01*
X153450500Y-46130253D01*
X153450498Y-46130241D01*
X153447711Y-46116231D01*
X153438867Y-46071769D01*
X153394552Y-46005448D01*
X153394548Y-46005445D01*
X153328233Y-45961134D01*
X153328231Y-45961133D01*
X153328228Y-45961132D01*
X153328227Y-45961132D01*
X153269758Y-45949501D01*
X153269748Y-45949500D01*
X152730252Y-45949500D01*
X152730251Y-45949500D01*
X152730241Y-45949501D01*
X152671772Y-45961132D01*
X152671766Y-45961134D01*
X152605451Y-46005445D01*
X152605445Y-46005451D01*
X152561134Y-46071766D01*
X152561132Y-46071772D01*
X152549501Y-46130241D01*
X152549500Y-46130253D01*
X152549500Y-48850500D01*
X152530593Y-48908691D01*
X152481093Y-48944655D01*
X152450500Y-48949500D01*
X151549500Y-48949500D01*
X151491309Y-48930593D01*
X151455345Y-48881093D01*
X151450500Y-48850500D01*
X151450500Y-46130253D01*
X151450498Y-46130241D01*
X151447711Y-46116231D01*
X151438867Y-46071769D01*
X151394552Y-46005448D01*
X151392425Y-46004027D01*
X151328840Y-45961540D01*
X151290961Y-45913490D01*
X151286527Y-45897412D01*
X151285061Y-45889567D01*
X151274283Y-45872160D01*
X151270795Y-45866527D01*
X151256238Y-45807100D01*
X151279392Y-45750465D01*
X151331413Y-45718255D01*
X151339470Y-45716633D01*
X151383126Y-45709719D01*
X151503220Y-45648528D01*
X151598528Y-45553220D01*
X151659719Y-45433126D01*
X151680804Y-45300000D01*
X151659719Y-45166874D01*
X151598528Y-45046780D01*
X151503220Y-44951472D01*
X151503217Y-44951470D01*
X151379061Y-44888209D01*
X151335796Y-44844945D01*
X151326225Y-44784513D01*
X151354003Y-44729996D01*
X151379061Y-44711791D01*
X151485297Y-44657660D01*
X151503220Y-44648528D01*
X151598528Y-44553220D01*
X151625645Y-44500000D01*
X152219196Y-44500000D01*
X152240281Y-44633127D01*
X152240282Y-44633129D01*
X152290050Y-44730804D01*
X152301472Y-44753220D01*
X152396780Y-44848528D01*
X152516874Y-44909719D01*
X152650000Y-44930804D01*
X152783126Y-44909719D01*
X152903220Y-44848528D01*
X152998528Y-44753220D01*
X153059719Y-44633126D01*
X153080804Y-44500000D01*
X153059719Y-44366874D01*
X153046694Y-44341312D01*
X152998529Y-44246782D01*
X152998528Y-44246780D01*
X152903220Y-44151472D01*
X152903217Y-44151470D01*
X152783129Y-44090282D01*
X152783127Y-44090281D01*
X152650000Y-44069196D01*
X152516872Y-44090281D01*
X152516870Y-44090282D01*
X152396782Y-44151470D01*
X152301470Y-44246782D01*
X152240282Y-44366870D01*
X152240281Y-44366872D01*
X152219196Y-44499999D01*
X152219196Y-44500000D01*
X151625645Y-44500000D01*
X151659719Y-44433126D01*
X151680804Y-44300000D01*
X151659719Y-44166874D01*
X151598528Y-44046780D01*
X151503220Y-43951472D01*
X151503217Y-43951470D01*
X151383129Y-43890282D01*
X151383127Y-43890281D01*
X151250000Y-43869196D01*
X151116872Y-43890281D01*
X151094444Y-43901709D01*
X151034012Y-43911280D01*
X150979496Y-43883502D01*
X150951719Y-43828985D01*
X150950500Y-43813499D01*
X150950500Y-43642255D01*
X150969407Y-43584064D01*
X150979490Y-43572257D01*
X150998528Y-43553220D01*
X151059719Y-43433126D01*
X151076870Y-43324837D01*
X151104644Y-43270325D01*
X151395475Y-42979496D01*
X151449991Y-42951719D01*
X151465478Y-42950500D01*
X152658257Y-42950500D01*
X152658260Y-42950500D01*
X152726393Y-42940573D01*
X152831483Y-42889198D01*
X152914198Y-42806483D01*
X152965573Y-42701393D01*
X152975500Y-42633260D01*
X152975500Y-42266740D01*
X152965573Y-42198607D01*
X152914198Y-42093517D01*
X152914196Y-42093515D01*
X152914196Y-42093514D01*
X152909544Y-42086998D01*
X152891118Y-42028653D01*
X152910506Y-41970621D01*
X152960302Y-41935068D01*
X152992209Y-41932691D01*
X152992209Y-41930804D01*
X153000000Y-41930804D01*
X153133126Y-41909719D01*
X153253220Y-41848528D01*
X153348528Y-41753220D01*
X153409719Y-41633126D01*
X153430804Y-41500000D01*
X153428162Y-41483322D01*
X153425004Y-41463380D01*
X153409719Y-41366874D01*
X153409718Y-41366872D01*
X153409717Y-41366870D01*
X153348529Y-41246782D01*
X153348528Y-41246780D01*
X153253220Y-41151472D01*
X153253217Y-41151470D01*
X153133129Y-41090282D01*
X153133127Y-41090281D01*
X153000001Y-41069196D01*
X152999997Y-41069196D01*
X152954753Y-41076361D01*
X152894321Y-41066789D01*
X152869263Y-41048582D01*
X152840683Y-41020001D01*
X152812907Y-40965484D01*
X152822479Y-40905052D01*
X152840679Y-40880001D01*
X152869267Y-40851413D01*
X152923781Y-40823638D01*
X152954755Y-40823638D01*
X152999999Y-40830804D01*
X152999999Y-40830803D01*
X153000000Y-40830804D01*
X153133126Y-40809719D01*
X153253220Y-40748528D01*
X153348528Y-40653220D01*
X153409719Y-40533126D01*
X153430804Y-40400000D01*
X153409719Y-40266874D01*
X153400866Y-40249500D01*
X153348529Y-40146782D01*
X153348528Y-40146780D01*
X153253220Y-40051472D01*
X153253217Y-40051470D01*
X153133129Y-39990282D01*
X153133127Y-39990281D01*
X153000000Y-39969196D01*
X152992209Y-39969196D01*
X152992209Y-39966192D01*
X152945143Y-39958723D01*
X152901892Y-39915445D01*
X152892339Y-39855010D01*
X152909546Y-39812998D01*
X152914195Y-39806485D01*
X152914198Y-39806483D01*
X152965573Y-39701393D01*
X152975500Y-39633260D01*
X152975500Y-39266740D01*
X152965573Y-39198607D01*
X152957746Y-39182597D01*
X152922005Y-39109487D01*
X152914198Y-39093517D01*
X152831483Y-39010802D01*
X152805656Y-38998176D01*
X152726395Y-38959427D01*
X152699139Y-38955456D01*
X152658260Y-38949500D01*
X151341740Y-38949500D01*
X151273607Y-38959427D01*
X151273606Y-38959427D01*
X151273602Y-38959428D01*
X151194340Y-38998176D01*
X151165617Y-39007129D01*
X151115713Y-39014651D01*
X151108628Y-39016837D01*
X151108498Y-39016416D01*
X151106389Y-39017110D01*
X151106534Y-39017525D01*
X151099528Y-39019976D01*
X151046927Y-39047777D01*
X150993358Y-39073574D01*
X150987229Y-39077753D01*
X150986984Y-39077393D01*
X150985168Y-39078681D01*
X150985427Y-39079032D01*
X150979458Y-39083437D01*
X150937400Y-39125495D01*
X150893805Y-39165945D01*
X150889179Y-39171746D01*
X150888835Y-39171472D01*
X150880297Y-39182597D01*
X150385201Y-39677694D01*
X150330684Y-39705471D01*
X150270252Y-39695900D01*
X150226988Y-39652635D01*
X150198529Y-39596782D01*
X150198528Y-39596780D01*
X150103220Y-39501472D01*
X150103217Y-39501470D01*
X149983129Y-39440282D01*
X149983127Y-39440281D01*
X149854189Y-39419859D01*
X149799672Y-39392081D01*
X149771895Y-39337565D01*
X149781467Y-39277133D01*
X149799670Y-39252077D01*
X149848528Y-39203220D01*
X149909719Y-39083126D01*
X149930804Y-38950000D01*
X149929236Y-38940103D01*
X149922046Y-38894705D01*
X149909719Y-38816874D01*
X149901629Y-38800996D01*
X149844991Y-38689838D01*
X149847254Y-38688684D01*
X149832074Y-38641970D01*
X149850980Y-38583779D01*
X149900478Y-38547813D01*
X149961664Y-38547811D01*
X149972909Y-38552241D01*
X149976827Y-38554068D01*
X150025684Y-38560500D01*
X150025685Y-38560500D01*
X150474314Y-38560500D01*
X150474316Y-38560500D01*
X150523173Y-38554068D01*
X150630404Y-38504065D01*
X150714065Y-38420404D01*
X150764068Y-38313173D01*
X150770500Y-38264316D01*
X150770500Y-37915684D01*
X150764068Y-37866827D01*
X150731970Y-37797994D01*
X150714066Y-37759598D01*
X150714065Y-37759597D01*
X150714065Y-37759596D01*
X150630404Y-37675935D01*
X150630402Y-37675934D01*
X150624472Y-37670004D01*
X150596695Y-37615487D01*
X150606266Y-37555055D01*
X150624472Y-37529996D01*
X150630402Y-37524065D01*
X150630404Y-37524065D01*
X150714065Y-37440404D01*
X150764068Y-37333173D01*
X150770500Y-37284316D01*
X150770500Y-37145479D01*
X150789407Y-37087288D01*
X150799496Y-37075476D01*
X151066404Y-36808567D01*
X151077665Y-36800494D01*
X151076905Y-36799487D01*
X151084221Y-36793961D01*
X151084228Y-36793958D01*
X151116643Y-36758398D01*
X151118155Y-36756815D01*
X151132175Y-36742797D01*
X151134188Y-36739857D01*
X151138437Y-36734492D01*
X151159916Y-36710933D01*
X151163465Y-36701769D01*
X151174111Y-36681575D01*
X151179657Y-36673480D01*
X151186956Y-36642443D01*
X151188980Y-36635908D01*
X151200500Y-36606173D01*
X151200500Y-36596348D01*
X151203129Y-36573683D01*
X151205379Y-36564119D01*
X151200975Y-36532546D01*
X151200500Y-36525699D01*
X151200500Y-35765169D01*
X151202731Y-35751496D01*
X151201505Y-35751325D01*
X151202773Y-35742233D01*
X151200553Y-35694216D01*
X151200500Y-35691929D01*
X151200500Y-35672160D01*
X151200500Y-35672156D01*
X151199846Y-35668664D01*
X151199056Y-35661859D01*
X151197585Y-35630009D01*
X151193613Y-35621014D01*
X151186865Y-35599220D01*
X151185884Y-35593972D01*
X151185061Y-35589567D01*
X151168278Y-35562462D01*
X151165085Y-35556406D01*
X151153782Y-35530804D01*
X151152207Y-35527236D01*
X151145257Y-35520286D01*
X151131088Y-35502396D01*
X151125920Y-35494049D01*
X151125919Y-35494048D01*
X151100483Y-35474839D01*
X151095306Y-35470334D01*
X150267973Y-34643002D01*
X150252241Y-34622498D01*
X150244280Y-34608710D01*
X150238962Y-34599499D01*
X150226241Y-34539652D01*
X150238962Y-34500501D01*
X150252242Y-34477499D01*
X150267971Y-34456998D01*
X150566405Y-34158564D01*
X150577664Y-34150493D01*
X150576905Y-34149487D01*
X150584221Y-34143961D01*
X150584228Y-34143958D01*
X150616632Y-34108411D01*
X150618186Y-34106783D01*
X150632174Y-34092797D01*
X150634181Y-34089865D01*
X150638440Y-34084490D01*
X150659916Y-34060933D01*
X150663466Y-34051767D01*
X150674107Y-34031581D01*
X150679657Y-34023480D01*
X150686956Y-33992443D01*
X150688980Y-33985908D01*
X150700500Y-33956173D01*
X150700500Y-33946348D01*
X150703129Y-33923683D01*
X150705379Y-33914119D01*
X150700975Y-33882546D01*
X150700500Y-33875699D01*
X150700500Y-31765169D01*
X150702731Y-31751496D01*
X150701505Y-31751325D01*
X150702773Y-31742233D01*
X150700553Y-31694216D01*
X150700500Y-31691929D01*
X150700500Y-31477668D01*
X150702731Y-31463995D01*
X150701505Y-31463824D01*
X150702773Y-31454733D01*
X150702248Y-31443387D01*
X150701115Y-31418877D01*
X150702016Y-31400224D01*
X150705500Y-31376000D01*
X150705500Y-30019746D01*
X152599500Y-30019746D01*
X152599501Y-30019758D01*
X152611132Y-30078227D01*
X152611133Y-30078231D01*
X152655448Y-30144552D01*
X152721769Y-30188867D01*
X152766231Y-30197711D01*
X152780241Y-30200498D01*
X152780246Y-30200498D01*
X152780252Y-30200500D01*
X152780253Y-30200500D01*
X153469747Y-30200500D01*
X153469748Y-30200500D01*
X153528231Y-30188867D01*
X153594552Y-30144552D01*
X153638867Y-30078231D01*
X153650500Y-30019748D01*
X153650500Y-28930252D01*
X153638867Y-28871769D01*
X153594552Y-28805448D01*
X153579187Y-28795181D01*
X153528233Y-28761134D01*
X153528231Y-28761133D01*
X153528228Y-28761132D01*
X153528227Y-28761132D01*
X153469758Y-28749501D01*
X153469748Y-28749500D01*
X152780252Y-28749500D01*
X152780251Y-28749500D01*
X152780241Y-28749501D01*
X152721772Y-28761132D01*
X152721766Y-28761134D01*
X152655451Y-28805445D01*
X152655445Y-28805451D01*
X152611134Y-28871766D01*
X152611132Y-28871772D01*
X152599501Y-28930241D01*
X152599500Y-28930253D01*
X152599500Y-30019746D01*
X150705500Y-30019746D01*
X150705500Y-29841303D01*
X150704744Y-29833965D01*
X150701186Y-29799417D01*
X150701185Y-29799415D01*
X150701185Y-29799412D01*
X150690879Y-29749917D01*
X150688937Y-29741484D01*
X150647371Y-29660019D01*
X150607980Y-29612890D01*
X150602567Y-29606413D01*
X150602563Y-29606409D01*
X150600626Y-29604669D01*
X150600239Y-29604001D01*
X150600108Y-29603865D01*
X150600141Y-29603832D01*
X150596236Y-29597086D01*
X150560072Y-29567407D01*
X150555355Y-29563758D01*
X150546764Y-29557506D01*
X150541314Y-29553539D01*
X150478275Y-29522510D01*
X150478272Y-29522509D01*
X150478268Y-29522507D01*
X150411242Y-29502826D01*
X150411233Y-29502824D01*
X150365022Y-29496180D01*
X150353338Y-29494500D01*
X150353337Y-29494500D01*
X148926128Y-29494500D01*
X148867937Y-29475593D01*
X148856124Y-29465504D01*
X148334496Y-28943876D01*
X148306719Y-28889359D01*
X148305500Y-28873872D01*
X148305500Y-27724005D01*
X148305500Y-27724000D01*
X148300803Y-27680316D01*
X148294140Y-27649687D01*
X148289598Y-27628806D01*
X148287382Y-27619742D01*
X148287110Y-27618627D01*
X148244100Y-27537915D01*
X148198345Y-27485111D01*
X148180754Y-27467157D01*
X148180753Y-27467156D01*
X148180752Y-27467155D01*
X148180750Y-27467153D01*
X148100941Y-27422511D01*
X148100937Y-27422509D01*
X148033904Y-27402826D01*
X148033895Y-27402824D01*
X147987684Y-27396180D01*
X147976000Y-27394500D01*
X147243558Y-27394500D01*
X147243557Y-27394500D01*
X147241033Y-27394518D01*
X147241029Y-27394519D01*
X147181844Y-27403682D01*
X147181829Y-27403685D01*
X147115099Y-27424318D01*
X147091573Y-27433202D01*
X147091570Y-27433203D01*
X147019446Y-27487655D01*
X147018581Y-27488308D01*
X146976425Y-27538386D01*
X146973576Y-27541770D01*
X146973577Y-27541769D01*
X146958604Y-27561940D01*
X146958603Y-27561942D01*
X146958603Y-27561943D01*
X146930826Y-27637350D01*
X146926988Y-27647768D01*
X146918034Y-27717045D01*
X146918034Y-27717053D01*
X146918034Y-27717054D01*
X146918269Y-27733539D01*
X146918869Y-27775542D01*
X146918869Y-27775544D01*
X146920290Y-27784515D01*
X146920289Y-27815484D01*
X146914293Y-27853342D01*
X146904721Y-27882800D01*
X146887319Y-27916953D01*
X146869114Y-27942012D01*
X146842012Y-27969114D01*
X146816953Y-27987319D01*
X146782800Y-28004721D01*
X146753342Y-28014293D01*
X146715485Y-28020289D01*
X146684512Y-28020289D01*
X146646659Y-28014294D01*
X146617199Y-28004722D01*
X146583043Y-27987318D01*
X146557987Y-27969114D01*
X146530888Y-27942016D01*
X146512680Y-27916955D01*
X146495277Y-27882799D01*
X146485706Y-27853344D01*
X146482845Y-27835280D01*
X146479454Y-27813875D01*
X146478760Y-27796508D01*
X146478355Y-27796507D01*
X146478587Y-27732913D01*
X146478586Y-27732912D01*
X146478587Y-27732900D01*
X146468643Y-27663742D01*
X146463551Y-27639127D01*
X146420541Y-27558415D01*
X146374786Y-27505611D01*
X146357195Y-27487657D01*
X146357194Y-27487656D01*
X146357193Y-27487655D01*
X146357191Y-27487653D01*
X146277382Y-27443011D01*
X146277378Y-27443009D01*
X146210345Y-27423326D01*
X146210336Y-27423324D01*
X146156864Y-27415636D01*
X146152441Y-27415000D01*
X146152440Y-27415000D01*
X145952402Y-27415000D01*
X145945926Y-27414575D01*
X145945022Y-27414456D01*
X145936077Y-27413277D01*
X145929225Y-27411875D01*
X145926076Y-27410996D01*
X145926060Y-27410992D01*
X145926056Y-27410991D01*
X145873650Y-27399372D01*
X145873654Y-27399372D01*
X145829174Y-27394500D01*
X145829168Y-27394500D01*
X145659500Y-27394500D01*
X145601309Y-27375593D01*
X145565345Y-27326093D01*
X145560500Y-27295500D01*
X145560500Y-26875685D01*
X145560500Y-26875684D01*
X145554068Y-26826827D01*
X145541791Y-26800500D01*
X145504066Y-26719598D01*
X145504065Y-26719597D01*
X145504065Y-26719596D01*
X145454470Y-26670001D01*
X145426695Y-26615487D01*
X145436266Y-26555055D01*
X145454469Y-26529999D01*
X145504065Y-26480404D01*
X145510275Y-26467085D01*
X145552003Y-26422337D01*
X145612064Y-26410662D01*
X145667517Y-26436519D01*
X145689724Y-26467084D01*
X145695935Y-26480404D01*
X145779596Y-26564065D01*
X145779597Y-26564065D01*
X145779598Y-26564066D01*
X145886824Y-26614067D01*
X145886825Y-26614067D01*
X145886827Y-26614068D01*
X145935684Y-26620500D01*
X145935685Y-26620500D01*
X146284314Y-26620500D01*
X146284316Y-26620500D01*
X146333173Y-26614068D01*
X146440404Y-26564065D01*
X146524065Y-26480404D01*
X146574068Y-26373173D01*
X146580500Y-26324316D01*
X146580500Y-25875684D01*
X146574068Y-25826827D01*
X146561087Y-25798990D01*
X146524066Y-25719598D01*
X146524065Y-25719597D01*
X146524065Y-25719596D01*
X146440404Y-25635935D01*
X146440402Y-25635934D01*
X146439496Y-25635028D01*
X146411719Y-25580511D01*
X146410500Y-25565024D01*
X146410500Y-25475167D01*
X146412731Y-25461494D01*
X146411505Y-25461323D01*
X146412770Y-25452241D01*
X146412773Y-25452235D01*
X146411865Y-25432600D01*
X146412977Y-25412550D01*
X146430804Y-25300000D01*
X146409719Y-25166874D01*
X146400411Y-25148607D01*
X146348529Y-25046782D01*
X146348528Y-25046780D01*
X146253220Y-24951472D01*
X146253217Y-24951470D01*
X146133129Y-24890282D01*
X146133127Y-24890281D01*
X146000000Y-24869196D01*
X145866872Y-24890281D01*
X145866870Y-24890282D01*
X145746782Y-24951470D01*
X145651470Y-25046782D01*
X145590282Y-25166870D01*
X145590281Y-25166872D01*
X145569196Y-25299999D01*
X145569196Y-25300000D01*
X145590281Y-25433127D01*
X145590282Y-25433129D01*
X145651470Y-25553217D01*
X145651473Y-25553221D01*
X145687403Y-25589152D01*
X145715180Y-25643669D01*
X145705608Y-25704101D01*
X145698497Y-25715936D01*
X145695935Y-25719594D01*
X145689724Y-25732915D01*
X145647995Y-25777663D01*
X145587934Y-25789337D01*
X145532482Y-25763478D01*
X145510276Y-25732915D01*
X145504066Y-25719598D01*
X145504065Y-25719597D01*
X145504065Y-25719596D01*
X145420404Y-25635935D01*
X145420402Y-25635934D01*
X145420401Y-25635933D01*
X145313175Y-25585932D01*
X145271995Y-25580511D01*
X145264316Y-25579500D01*
X144915684Y-25579500D01*
X144908005Y-25580511D01*
X144866825Y-25585932D01*
X144866824Y-25585932D01*
X144759598Y-25635933D01*
X144675933Y-25719598D01*
X144625932Y-25826824D01*
X144625932Y-25826825D01*
X144625932Y-25826827D01*
X144620282Y-25869748D01*
X144619500Y-25875685D01*
X144619500Y-26324314D01*
X144625932Y-26373174D01*
X144625932Y-26373175D01*
X144675933Y-26480401D01*
X144675934Y-26480402D01*
X144675935Y-26480404D01*
X144725529Y-26529998D01*
X144753305Y-26584513D01*
X144743734Y-26644945D01*
X144725530Y-26670000D01*
X144695031Y-26700500D01*
X144675933Y-26719598D01*
X144625933Y-26826824D01*
X144625932Y-26826827D01*
X144623944Y-26841924D01*
X144623145Y-26847995D01*
X144596801Y-26903219D01*
X144573882Y-26918588D01*
X144574836Y-26920129D01*
X144573142Y-26921177D01*
X144568232Y-26922377D01*
X144560785Y-26927372D01*
X144558544Y-26928241D01*
X144557306Y-26925049D01*
X144513709Y-26935713D01*
X144457082Y-26912538D01*
X144424891Y-26860505D01*
X144423276Y-26852473D01*
X144422567Y-26847995D01*
X144409719Y-26766874D01*
X144348528Y-26646780D01*
X144304343Y-26602595D01*
X144276568Y-26548081D01*
X144285922Y-26489013D01*
X144285595Y-26488853D01*
X144286117Y-26487783D01*
X144286139Y-26487649D01*
X144286366Y-26487275D01*
X144289727Y-26480401D01*
X144340573Y-26376393D01*
X144350500Y-26308260D01*
X144350500Y-25216740D01*
X144340573Y-25148607D01*
X144289198Y-25043517D01*
X144206483Y-24960802D01*
X144187394Y-24951470D01*
X144101395Y-24909427D01*
X144074139Y-24905456D01*
X144033260Y-24899500D01*
X143666740Y-24899500D01*
X143632673Y-24904463D01*
X143598604Y-24909427D01*
X143493518Y-24960801D01*
X143410801Y-25043518D01*
X143359427Y-25148604D01*
X143349500Y-25216743D01*
X143349500Y-26276802D01*
X143330593Y-26334993D01*
X143281093Y-26370957D01*
X143265987Y-26374583D01*
X143166872Y-26390281D01*
X143166870Y-26390282D01*
X143046782Y-26451470D01*
X142951470Y-26546782D01*
X142890282Y-26666870D01*
X142890281Y-26666872D01*
X142869196Y-26799999D01*
X142869196Y-26800000D01*
X142890281Y-26933127D01*
X142890282Y-26933129D01*
X142951470Y-27053217D01*
X142951472Y-27053220D01*
X143046780Y-27148528D01*
X143166874Y-27209719D01*
X143300000Y-27230804D01*
X143307696Y-27232023D01*
X143307262Y-27234759D01*
X143353278Y-27249711D01*
X143389242Y-27299211D01*
X143389242Y-27360397D01*
X143384028Y-27373284D01*
X143359427Y-27423604D01*
X143356600Y-27443009D01*
X143349500Y-27491740D01*
X143349500Y-28583260D01*
X143354243Y-28615810D01*
X143359427Y-28651395D01*
X143407388Y-28749500D01*
X143410802Y-28756483D01*
X143493517Y-28839198D01*
X143547285Y-28865483D01*
X143598604Y-28890572D01*
X143598605Y-28890572D01*
X143598607Y-28890573D01*
X143666740Y-28900500D01*
X143895500Y-28900500D01*
X143953691Y-28919407D01*
X143989655Y-28968907D01*
X143994500Y-28999500D01*
X143994500Y-29495500D01*
X143975593Y-29553691D01*
X143926093Y-29589655D01*
X143895500Y-29594500D01*
X142595912Y-29594500D01*
X142537721Y-29575593D01*
X142501757Y-29526093D01*
X142498131Y-29480013D01*
X142503932Y-29443391D01*
X142510804Y-29400000D01*
X142508440Y-29385077D01*
X142506835Y-29374945D01*
X142489719Y-29266874D01*
X142428528Y-29146780D01*
X142428526Y-29146778D01*
X142379496Y-29097747D01*
X142351719Y-29043230D01*
X142350500Y-29027744D01*
X142350500Y-28836188D01*
X142369407Y-28777997D01*
X142379490Y-28766190D01*
X142389198Y-28756483D01*
X142440573Y-28651393D01*
X142450500Y-28583260D01*
X142450500Y-27491740D01*
X142440573Y-27423607D01*
X142440435Y-27423325D01*
X142409672Y-27360397D01*
X142389198Y-27318517D01*
X142306483Y-27235802D01*
X142306481Y-27235801D01*
X142201395Y-27184427D01*
X142174139Y-27180456D01*
X142133260Y-27174500D01*
X141766740Y-27174500D01*
X141732673Y-27179463D01*
X141698604Y-27184427D01*
X141593518Y-27235801D01*
X141593517Y-27235801D01*
X141593517Y-27235802D01*
X141519501Y-27309817D01*
X141464987Y-27337593D01*
X141404555Y-27328022D01*
X141361290Y-27284757D01*
X141350500Y-27239812D01*
X141350500Y-27236402D01*
X141351030Y-27214819D01*
X141350634Y-27209455D01*
X141350500Y-27205810D01*
X141350500Y-26560188D01*
X141369407Y-26501997D01*
X141418907Y-26466033D01*
X141480093Y-26466033D01*
X141519501Y-26490182D01*
X141593517Y-26564198D01*
X141647285Y-26590483D01*
X141698604Y-26615572D01*
X141698605Y-26615572D01*
X141698607Y-26615573D01*
X141766740Y-26625500D01*
X141766743Y-26625500D01*
X142133257Y-26625500D01*
X142133260Y-26625500D01*
X142201393Y-26615573D01*
X142306483Y-26564198D01*
X142389198Y-26481483D01*
X142440573Y-26376393D01*
X142450500Y-26308260D01*
X142450500Y-25216740D01*
X142440573Y-25148607D01*
X142389198Y-25043517D01*
X142306483Y-24960802D01*
X142287394Y-24951470D01*
X142201395Y-24909427D01*
X142174139Y-24905456D01*
X142133260Y-24899500D01*
X142133257Y-24899500D01*
X142115120Y-24899500D01*
X142056929Y-24880593D01*
X142020965Y-24831093D01*
X142017339Y-24785013D01*
X142018188Y-24779657D01*
X142030804Y-24700000D01*
X142009719Y-24566874D01*
X141948528Y-24446780D01*
X141853220Y-24351472D01*
X141853217Y-24351470D01*
X141733129Y-24290282D01*
X141733127Y-24290281D01*
X141600000Y-24269196D01*
X141466874Y-24290281D01*
X141466873Y-24290281D01*
X141464987Y-24290580D01*
X141404555Y-24281009D01*
X141361290Y-24237744D01*
X141350500Y-24192799D01*
X141350500Y-20349500D01*
X141369407Y-20291309D01*
X141418907Y-20255345D01*
X141449500Y-20250500D01*
X142896072Y-20250500D01*
X142954263Y-20269407D01*
G37*
%TD.AperFunction*%
%TA.AperFunction,Conductor*%
G36*
X148213956Y-40827784D02*
G01*
X148225758Y-40837862D01*
X148322410Y-40934513D01*
X148386588Y-40998691D01*
X148390290Y-41002833D01*
X148411984Y-41030037D01*
X148415121Y-41033970D01*
X148464271Y-41067480D01*
X148490452Y-41086802D01*
X148526044Y-41136568D01*
X148526654Y-41189283D01*
X148526921Y-41189319D01*
X148526676Y-41191175D01*
X148526711Y-41194152D01*
X148525933Y-41196821D01*
X148525932Y-41196826D01*
X148525932Y-41196827D01*
X148519500Y-41245684D01*
X148519500Y-41694316D01*
X148521709Y-41711093D01*
X148525932Y-41743174D01*
X148525932Y-41743175D01*
X148575933Y-41850401D01*
X148575934Y-41850402D01*
X148575935Y-41850404D01*
X148590529Y-41864998D01*
X148618305Y-41919513D01*
X148608734Y-41979945D01*
X148590530Y-42005000D01*
X148568704Y-42026827D01*
X148555933Y-42039598D01*
X148505932Y-42146824D01*
X148505932Y-42146825D01*
X148499500Y-42195685D01*
X148499500Y-42544314D01*
X148505932Y-42593174D01*
X148505932Y-42593175D01*
X148555933Y-42700401D01*
X148555934Y-42700402D01*
X148555935Y-42700404D01*
X148639596Y-42784065D01*
X148639597Y-42784065D01*
X148639598Y-42784066D01*
X148652915Y-42790276D01*
X148697663Y-42832005D01*
X148709337Y-42892066D01*
X148683478Y-42947518D01*
X148652915Y-42969724D01*
X148639598Y-42975933D01*
X148555933Y-43059598D01*
X148505932Y-43166824D01*
X148505932Y-43166825D01*
X148499500Y-43215685D01*
X148499500Y-43444520D01*
X148480593Y-43502711D01*
X148470504Y-43514524D01*
X148369504Y-43615524D01*
X148314987Y-43643301D01*
X148254555Y-43633730D01*
X148211290Y-43590465D01*
X148200500Y-43545520D01*
X148200500Y-43353096D01*
X148217185Y-43298094D01*
X148233425Y-43273790D01*
X148263867Y-43228231D01*
X148275500Y-43169748D01*
X148275500Y-42755252D01*
X148263867Y-42696769D01*
X148219552Y-42630448D01*
X148163770Y-42593175D01*
X148153233Y-42586134D01*
X148153231Y-42586133D01*
X148153228Y-42586132D01*
X148153227Y-42586132D01*
X148094758Y-42574501D01*
X148094748Y-42574500D01*
X147705252Y-42574500D01*
X147705247Y-42574500D01*
X147669313Y-42581648D01*
X147630687Y-42581648D01*
X147594752Y-42574500D01*
X147594748Y-42574500D01*
X147205252Y-42574500D01*
X147205247Y-42574500D01*
X147169313Y-42581648D01*
X147130687Y-42581648D01*
X147094752Y-42574500D01*
X147094748Y-42574500D01*
X146874500Y-42574500D01*
X146816309Y-42555593D01*
X146780345Y-42506093D01*
X146775500Y-42475500D01*
X146775500Y-42255256D01*
X146775499Y-42255248D01*
X146768351Y-42219316D01*
X146768351Y-42180684D01*
X146775087Y-42146825D01*
X146775500Y-42144748D01*
X146775500Y-41924500D01*
X146794407Y-41866309D01*
X146843907Y-41830345D01*
X146874500Y-41825500D01*
X147094747Y-41825500D01*
X147094748Y-41825500D01*
X147153231Y-41813867D01*
X147219552Y-41769552D01*
X147263867Y-41703231D01*
X147275500Y-41644748D01*
X147275500Y-41230252D01*
X147272772Y-41216537D01*
X147279962Y-41155775D01*
X147310272Y-41118168D01*
X147311296Y-41117396D01*
X147369143Y-41097463D01*
X147415838Y-41108239D01*
X147500684Y-41151470D01*
X147516874Y-41159719D01*
X147650000Y-41180804D01*
X147783126Y-41159719D01*
X147903220Y-41098528D01*
X147998528Y-41003220D01*
X148059719Y-40883126D01*
X148059719Y-40883119D01*
X148061614Y-40877293D01*
X148097575Y-40827791D01*
X148155764Y-40808880D01*
X148213956Y-40827784D01*
G37*
%TD.AperFunction*%
%TA.AperFunction,Conductor*%
G36*
X146676537Y-35584407D02*
G01*
X146712501Y-35633907D01*
X146712501Y-35695093D01*
X146694118Y-35725090D01*
X146695130Y-35725813D01*
X146690366Y-35732484D01*
X146639355Y-35836828D01*
X146636375Y-35857286D01*
X146629500Y-35904472D01*
X146629500Y-36265528D01*
X146639355Y-36333170D01*
X146690364Y-36437511D01*
X146750654Y-36497801D01*
X146778430Y-36552316D01*
X146769197Y-36612077D01*
X146769196Y-36612079D01*
X146761744Y-36624589D01*
X146756774Y-36631686D01*
X146706029Y-36740510D01*
X146706028Y-36740511D01*
X146699500Y-36790100D01*
X146699500Y-37209896D01*
X146699501Y-37209907D01*
X146706027Y-37259486D01*
X146706027Y-37259488D01*
X146751288Y-37356549D01*
X146758745Y-37417278D01*
X146746551Y-37449164D01*
X146723465Y-37487804D01*
X146723462Y-37487809D01*
X146704556Y-37545998D01*
X146694500Y-37609495D01*
X146694500Y-37609499D01*
X146694500Y-38801000D01*
X146695749Y-38816874D01*
X146697031Y-38833152D01*
X146698282Y-38841050D01*
X146699500Y-38856534D01*
X146699500Y-39059895D01*
X146699501Y-39059907D01*
X146706027Y-39109484D01*
X146706027Y-39109486D01*
X146720224Y-39139929D01*
X146729500Y-39181770D01*
X146729500Y-39468228D01*
X146720224Y-39510067D01*
X146706029Y-39540506D01*
X146706028Y-39540509D01*
X146699500Y-39590100D01*
X146699500Y-40009896D01*
X146699501Y-40009904D01*
X146705737Y-40057276D01*
X146694586Y-40117437D01*
X146650203Y-40159553D01*
X146607584Y-40169196D01*
X146600000Y-40169196D01*
X146466872Y-40190281D01*
X146466870Y-40190282D01*
X146346782Y-40251470D01*
X146346780Y-40251471D01*
X146346780Y-40251472D01*
X146327746Y-40270505D01*
X146273232Y-40298281D01*
X146257745Y-40299500D01*
X146115164Y-40299500D01*
X146101488Y-40297267D01*
X146101317Y-40298494D01*
X146092233Y-40297226D01*
X146051886Y-40299092D01*
X146044206Y-40299447D01*
X146041930Y-40299500D01*
X146022153Y-40299500D01*
X146018658Y-40300153D01*
X146011845Y-40300943D01*
X145980010Y-40302414D01*
X145980006Y-40302415D01*
X145971015Y-40306385D01*
X145949227Y-40313132D01*
X145930553Y-40316624D01*
X145929984Y-40313583D01*
X145884147Y-40316116D01*
X145832738Y-40282938D01*
X145810650Y-40225878D01*
X145810499Y-40220444D01*
X145810499Y-39950100D01*
X145803972Y-39900513D01*
X145803972Y-39900511D01*
X145753225Y-39791686D01*
X145753224Y-39791685D01*
X145753224Y-39791684D01*
X145668316Y-39706776D01*
X145668314Y-39706775D01*
X145668313Y-39706774D01*
X145559489Y-39656029D01*
X145559488Y-39656028D01*
X145533714Y-39652635D01*
X145509901Y-39649500D01*
X145509899Y-39649500D01*
X145090103Y-39649500D01*
X145090092Y-39649501D01*
X145040513Y-39656027D01*
X145010066Y-39670225D01*
X144968228Y-39679500D01*
X142857611Y-39679500D01*
X142799420Y-39660593D01*
X142787607Y-39650504D01*
X142662019Y-39524916D01*
X142634242Y-39470399D01*
X142642301Y-39413069D01*
X142643972Y-39409487D01*
X142650500Y-39359901D01*
X142650499Y-38940100D01*
X142643972Y-38890513D01*
X142640452Y-38882964D01*
X142629775Y-38860066D01*
X142620500Y-38818228D01*
X142620500Y-38531769D01*
X142629776Y-38489929D01*
X142643972Y-38459487D01*
X142650500Y-38409901D01*
X142650499Y-37990100D01*
X142643972Y-37940513D01*
X142637274Y-37926149D01*
X142629775Y-37910066D01*
X142620500Y-37868228D01*
X142620500Y-37581769D01*
X142629776Y-37539929D01*
X142632456Y-37534182D01*
X142643972Y-37509487D01*
X142650500Y-37459901D01*
X142650499Y-37077610D01*
X142669406Y-37019420D01*
X142679489Y-37007613D01*
X144087607Y-35599496D01*
X144142124Y-35571719D01*
X144157611Y-35570500D01*
X145868228Y-35570500D01*
X145910067Y-35579776D01*
X145940506Y-35593970D01*
X145940509Y-35593971D01*
X145940511Y-35593971D01*
X145940513Y-35593972D01*
X145990099Y-35600500D01*
X146409900Y-35600499D01*
X146459487Y-35593972D01*
X146500653Y-35574775D01*
X146542492Y-35565500D01*
X146618346Y-35565500D01*
X146676537Y-35584407D01*
G37*
%TD.AperFunction*%
%TA.AperFunction,Conductor*%
G36*
X149726232Y-37362038D02*
G01*
X149769499Y-37405301D01*
X149771015Y-37408409D01*
X149780433Y-37428606D01*
X149785935Y-37440404D01*
X149869596Y-37524065D01*
X149869597Y-37524065D01*
X149875528Y-37529996D01*
X149903305Y-37584513D01*
X149893734Y-37644945D01*
X149875528Y-37670004D01*
X149869597Y-37675934D01*
X149869596Y-37675935D01*
X149811039Y-37734492D01*
X149785933Y-37759598D01*
X149735932Y-37866824D01*
X149735932Y-37866825D01*
X149732954Y-37889444D01*
X149729500Y-37915684D01*
X149729500Y-38264316D01*
X149732239Y-38285119D01*
X149735932Y-38313174D01*
X149735932Y-38313175D01*
X149785366Y-38419185D01*
X149792823Y-38479914D01*
X149763160Y-38533428D01*
X149707707Y-38559286D01*
X149650697Y-38549234D01*
X149646617Y-38547155D01*
X149633126Y-38540281D01*
X149500000Y-38519196D01*
X149366872Y-38540281D01*
X149366870Y-38540282D01*
X149246782Y-38601470D01*
X149151470Y-38696782D01*
X149090282Y-38816870D01*
X149090281Y-38816872D01*
X149069196Y-38949999D01*
X149069196Y-38950000D01*
X149090281Y-39083127D01*
X149090282Y-39083129D01*
X149151470Y-39203217D01*
X149151472Y-39203220D01*
X149246780Y-39298528D01*
X149366874Y-39359719D01*
X149495811Y-39380140D01*
X149550326Y-39407917D01*
X149578104Y-39462434D01*
X149568533Y-39522866D01*
X149550327Y-39547924D01*
X149501473Y-39596778D01*
X149501470Y-39596782D01*
X149440282Y-39716870D01*
X149440281Y-39716872D01*
X149419196Y-39849999D01*
X149419196Y-39850000D01*
X149440281Y-39983127D01*
X149453921Y-40009896D01*
X149501472Y-40103220D01*
X149501473Y-40103221D01*
X149502662Y-40105554D01*
X149512234Y-40165986D01*
X149484457Y-40220503D01*
X149429941Y-40248281D01*
X149414453Y-40249500D01*
X148952611Y-40249500D01*
X148894420Y-40230593D01*
X148882613Y-40220509D01*
X148579494Y-39917391D01*
X148551718Y-39862875D01*
X148550499Y-39847388D01*
X148550499Y-39590103D01*
X148550498Y-39590092D01*
X148543972Y-39540513D01*
X148543972Y-39540511D01*
X148493225Y-39431686D01*
X148493224Y-39431685D01*
X148493224Y-39431684D01*
X148408316Y-39346776D01*
X148408314Y-39346775D01*
X148408313Y-39346774D01*
X148299489Y-39296029D01*
X148299487Y-39296028D01*
X148299484Y-39296027D01*
X148292216Y-39293909D01*
X148293001Y-39291215D01*
X148249236Y-39270327D01*
X148220054Y-39216549D01*
X148228056Y-39155889D01*
X148233577Y-39145858D01*
X148235753Y-39142393D01*
X148235758Y-39142388D01*
X148290065Y-39017916D01*
X148305270Y-38882965D01*
X148280024Y-38749529D01*
X148216566Y-38629463D01*
X148216565Y-38629462D01*
X148216564Y-38629460D01*
X148138402Y-38551298D01*
X148134711Y-38547168D01*
X148109879Y-38516030D01*
X148060728Y-38482519D01*
X148051470Y-38475686D01*
X148045709Y-38471434D01*
X148010118Y-38421666D01*
X148005500Y-38391781D01*
X148005500Y-38326126D01*
X148024407Y-38267935D01*
X148034497Y-38256122D01*
X148343668Y-37946952D01*
X148349145Y-37941028D01*
X148350959Y-37938903D01*
X148361853Y-37926149D01*
X148401036Y-37856185D01*
X148419943Y-37797994D01*
X148426024Y-37759596D01*
X148430000Y-37734495D01*
X148430000Y-37690472D01*
X148431217Y-37674996D01*
X148435706Y-37646648D01*
X148445274Y-37617201D01*
X148462678Y-37583042D01*
X148480879Y-37557991D01*
X148507992Y-37530878D01*
X148533045Y-37512677D01*
X148567193Y-37495277D01*
X148596643Y-37485708D01*
X148624999Y-37481217D01*
X148640477Y-37480000D01*
X148688527Y-37480000D01*
X148688528Y-37480000D01*
X148696594Y-37479683D01*
X148716104Y-37478147D01*
X148793273Y-37456383D01*
X148847789Y-37428606D01*
X148899805Y-37390814D01*
X148906124Y-37384494D01*
X148960639Y-37356719D01*
X148976126Y-37355500D01*
X149630496Y-37355500D01*
X149630500Y-37355500D01*
X149662644Y-37352970D01*
X149665800Y-37352470D01*
X149726232Y-37362038D01*
G37*
%TD.AperFunction*%
%TA.AperFunction,Conductor*%
G36*
X142853346Y-31585705D02*
G01*
X142882796Y-31595274D01*
X142899876Y-31603976D01*
X142916953Y-31612678D01*
X142942011Y-31630883D01*
X142969112Y-31657984D01*
X142987318Y-31683044D01*
X143004721Y-31717200D01*
X143014292Y-31746655D01*
X143020986Y-31788913D01*
X143022001Y-31810757D01*
X143020214Y-31838530D01*
X143021521Y-31884284D01*
X143021704Y-31888894D01*
X143021704Y-31888897D01*
X143039960Y-31953499D01*
X143046574Y-31976903D01*
X143080059Y-32038226D01*
X143115112Y-32085050D01*
X143115116Y-32085055D01*
X143140824Y-32110762D01*
X143142009Y-32111947D01*
X143176215Y-32139513D01*
X143220562Y-32168014D01*
X143229523Y-32173455D01*
X143274360Y-32187118D01*
X143324510Y-32222166D01*
X143344483Y-32279999D01*
X143344500Y-32281818D01*
X143344500Y-33276000D01*
X143348526Y-33313443D01*
X143349197Y-33319685D01*
X143360402Y-33371194D01*
X143362889Y-33381370D01*
X143362890Y-33381373D01*
X143393949Y-33439658D01*
X143405900Y-33462085D01*
X143451657Y-33514891D01*
X143451657Y-33514892D01*
X143461827Y-33525272D01*
X143489046Y-33580069D01*
X143478858Y-33640400D01*
X143435153Y-33683220D01*
X143421709Y-33688709D01*
X143416873Y-33690280D01*
X143296782Y-33751470D01*
X143201470Y-33846782D01*
X143140282Y-33966870D01*
X143140281Y-33966872D01*
X143119196Y-34099999D01*
X143119196Y-34100000D01*
X143140281Y-34233127D01*
X143140282Y-34233129D01*
X143200955Y-34352206D01*
X143201472Y-34353220D01*
X143296780Y-34448528D01*
X143416874Y-34509719D01*
X143550000Y-34530804D01*
X143683126Y-34509719D01*
X143803220Y-34448528D01*
X143829376Y-34422371D01*
X143862701Y-34403817D01*
X143861588Y-34401296D01*
X143867714Y-34398590D01*
X143873075Y-34398042D01*
X143876755Y-34395994D01*
X143878966Y-34395475D01*
X143879416Y-34397394D01*
X143928583Y-34392373D01*
X143981481Y-34423121D01*
X143995925Y-34444204D01*
X144036663Y-34524156D01*
X144046235Y-34584588D01*
X144018458Y-34639104D01*
X143963941Y-34666882D01*
X143937373Y-34667479D01*
X143912964Y-34664729D01*
X143912961Y-34664729D01*
X143854508Y-34675789D01*
X143795715Y-34684651D01*
X143788629Y-34686837D01*
X143788500Y-34686419D01*
X143786385Y-34687115D01*
X143786529Y-34687526D01*
X143779528Y-34689975D01*
X143726915Y-34717783D01*
X143673356Y-34743576D01*
X143667229Y-34747753D01*
X143666984Y-34747393D01*
X143665168Y-34748681D01*
X143665427Y-34749032D01*
X143659458Y-34753437D01*
X143617400Y-34795495D01*
X143573805Y-34835945D01*
X143569179Y-34841746D01*
X143568835Y-34841472D01*
X143560297Y-34852597D01*
X141969504Y-36443391D01*
X141914987Y-36471168D01*
X141854555Y-36461597D01*
X141811290Y-36418332D01*
X141800500Y-36373387D01*
X141800500Y-35915477D01*
X141819407Y-35857286D01*
X141829490Y-35845480D01*
X142120324Y-35554645D01*
X142174836Y-35526870D01*
X142283126Y-35509719D01*
X142403220Y-35448528D01*
X142498528Y-35353220D01*
X142559719Y-35233126D01*
X142580804Y-35100000D01*
X142559719Y-34966874D01*
X142498528Y-34846780D01*
X142403220Y-34751472D01*
X142403217Y-34751470D01*
X142283129Y-34690282D01*
X142283123Y-34690279D01*
X142272469Y-34688592D01*
X142217953Y-34660813D01*
X142190178Y-34606295D01*
X142192917Y-34563103D01*
X142193967Y-34559496D01*
X142193972Y-34559487D01*
X142200500Y-34509901D01*
X142200499Y-34090100D01*
X142193972Y-34040513D01*
X142169811Y-33988701D01*
X142162355Y-33927974D01*
X142189533Y-33876859D01*
X142255484Y-33810909D01*
X142267864Y-33798528D01*
X142278050Y-33788342D01*
X142289002Y-33766843D01*
X142297115Y-33753605D01*
X142311296Y-33734090D01*
X142318751Y-33711144D01*
X142324695Y-33696795D01*
X142328014Y-33690281D01*
X142335646Y-33675304D01*
X142339019Y-33654001D01*
X142366795Y-33599484D01*
X142390241Y-33582117D01*
X142461585Y-33544100D01*
X142514389Y-33498345D01*
X142532343Y-33480754D01*
X142532344Y-33480751D01*
X142532346Y-33480750D01*
X142576988Y-33400941D01*
X142576990Y-33400937D01*
X142582735Y-33381373D01*
X142596675Y-33333898D01*
X142605000Y-33276000D01*
X142605000Y-32213797D01*
X142606032Y-32199539D01*
X142606978Y-32193046D01*
X142612501Y-32171890D01*
X142618045Y-32157426D01*
X142618044Y-32157427D01*
X142630020Y-32115354D01*
X142630794Y-32112557D01*
X142630793Y-32112557D01*
X142630795Y-32112554D01*
X142634341Y-32021167D01*
X142621446Y-31952498D01*
X142613595Y-31929461D01*
X142602581Y-31897139D01*
X142602580Y-31897137D01*
X142602578Y-31897131D01*
X142595275Y-31882799D01*
X142585706Y-31853346D01*
X142585565Y-31852456D01*
X142579709Y-31815479D01*
X142579709Y-31784515D01*
X142585704Y-31746655D01*
X142595275Y-31717201D01*
X142604725Y-31698654D01*
X142612679Y-31683042D01*
X142630881Y-31657988D01*
X142657988Y-31630881D01*
X142683039Y-31612681D01*
X142717205Y-31595272D01*
X142746649Y-31585705D01*
X142784521Y-31579708D01*
X142815475Y-31579708D01*
X142853346Y-31585705D01*
G37*
%TD.AperFunction*%
%TA.AperFunction,Conductor*%
G36*
X148397712Y-31724407D02*
G01*
X148409525Y-31734496D01*
X148420504Y-31745475D01*
X148448281Y-31799992D01*
X148449500Y-31815479D01*
X148449500Y-33884835D01*
X148447280Y-33898513D01*
X148448494Y-33898683D01*
X148447226Y-33907766D01*
X148449447Y-33955783D01*
X148449500Y-33958069D01*
X148449500Y-33977842D01*
X148450152Y-33981332D01*
X148450942Y-33988146D01*
X148451142Y-33992459D01*
X148452414Y-34019987D01*
X148452415Y-34019994D01*
X148456384Y-34028982D01*
X148463133Y-34050773D01*
X148464939Y-34060433D01*
X148481717Y-34087533D01*
X148484915Y-34093600D01*
X148491087Y-34107577D01*
X148497794Y-34122765D01*
X148504745Y-34129716D01*
X148518907Y-34147596D01*
X148520701Y-34150493D01*
X148524081Y-34155952D01*
X148549511Y-34175156D01*
X148554690Y-34179662D01*
X148832023Y-34456994D01*
X148847755Y-34477497D01*
X148848439Y-34478681D01*
X148879873Y-34533127D01*
X148886736Y-34545013D01*
X148900000Y-34594514D01*
X148900000Y-34896000D01*
X148881093Y-34954191D01*
X148831593Y-34990155D01*
X148801000Y-34995000D01*
X148799049Y-34995000D01*
X148751083Y-35000677D01*
X148751081Y-35000677D01*
X148706141Y-35011466D01*
X148706133Y-35011468D01*
X148660814Y-35028187D01*
X148660801Y-35028192D01*
X148657790Y-35029727D01*
X148628344Y-35039292D01*
X148590486Y-35045288D01*
X148559514Y-35045288D01*
X148521658Y-35039293D01*
X148492197Y-35029721D01*
X148458048Y-35012321D01*
X148432990Y-34994116D01*
X148399378Y-34960504D01*
X148387067Y-34945503D01*
X148383451Y-34940091D01*
X148370425Y-34920597D01*
X148370421Y-34920592D01*
X148340412Y-34885454D01*
X148340411Y-34885454D01*
X148340407Y-34885449D01*
X148326153Y-34870372D01*
X148326152Y-34870371D01*
X148326151Y-34870370D01*
X148250683Y-34825280D01*
X148210427Y-34779203D01*
X148204942Y-34718264D01*
X148231456Y-34670291D01*
X148248528Y-34653220D01*
X148309719Y-34533126D01*
X148330804Y-34400000D01*
X148327556Y-34379496D01*
X148322591Y-34348148D01*
X148309719Y-34266874D01*
X148248528Y-34146780D01*
X148153220Y-34051472D01*
X148153217Y-34051470D01*
X148033129Y-33990282D01*
X148033127Y-33990281D01*
X147900000Y-33969196D01*
X147899998Y-33969196D01*
X147883139Y-33971866D01*
X147822707Y-33962294D01*
X147779443Y-33919029D01*
X147769872Y-33858597D01*
X147797650Y-33804081D01*
X147797757Y-33803989D01*
X147803215Y-33798530D01*
X147803220Y-33798528D01*
X147898528Y-33703220D01*
X147959719Y-33583126D01*
X147980804Y-33450000D01*
X147959719Y-33316874D01*
X147898528Y-33196780D01*
X147803220Y-33101472D01*
X147803217Y-33101470D01*
X147683129Y-33040282D01*
X147683127Y-33040281D01*
X147550000Y-33019196D01*
X147416872Y-33040281D01*
X147416870Y-33040282D01*
X147296782Y-33101470D01*
X147201468Y-33196784D01*
X147196890Y-33203086D01*
X147195512Y-33202084D01*
X147158886Y-33238710D01*
X147113942Y-33249500D01*
X146301923Y-33249500D01*
X146243732Y-33230593D01*
X146207768Y-33181093D01*
X146203931Y-33136410D01*
X146205500Y-33125498D01*
X146205500Y-31829502D01*
X146205499Y-31829494D01*
X146204153Y-31816978D01*
X146203950Y-31815085D01*
X146216526Y-31755207D01*
X146261897Y-31714157D01*
X146302382Y-31705500D01*
X148339521Y-31705500D01*
X148397712Y-31724407D01*
G37*
%TD.AperFunction*%
%TD*%
M02*
