%TF.GenerationSoftware,KiCad,Pcbnew,7.0.9*%
%TF.CreationDate,2024-04-04T21:50:02+13:00*%
%TF.ProjectId,panel,70616e65-6c2e-46b6-9963-61645f706362,rev?*%
%TF.SameCoordinates,Original*%
%TF.FileFunction,Paste,Bot*%
%TF.FilePolarity,Positive*%
%FSLAX46Y46*%
G04 Gerber Fmt 4.6, Leading zero omitted, Abs format (unit mm)*
G04 Created by KiCad (PCBNEW 7.0.9) date 2024-04-04 21:50:02*
%MOMM*%
%LPD*%
G01*
G04 APERTURE LIST*
G04 Aperture macros list*
%AMRoundRect*
0 Rectangle with rounded corners*
0 $1 Rounding radius*
0 $2 $3 $4 $5 $6 $7 $8 $9 X,Y pos of 4 corners*
0 Add a 4 corners polygon primitive as box body*
4,1,4,$2,$3,$4,$5,$6,$7,$8,$9,$2,$3,0*
0 Add four circle primitives for the rounded corners*
1,1,$1+$1,$2,$3*
1,1,$1+$1,$4,$5*
1,1,$1+$1,$6,$7*
1,1,$1+$1,$8,$9*
0 Add four rect primitives between the rounded corners*
20,1,$1+$1,$2,$3,$4,$5,0*
20,1,$1+$1,$4,$5,$6,$7,0*
20,1,$1+$1,$6,$7,$8,$9,0*
20,1,$1+$1,$8,$9,$2,$3,0*%
%AMOutline4P*
0 Free polygon, 4 corners , with rotation*
0 The origin of the aperture is its center*
0 number of corners: always 4*
0 $1 to $8 corner X, Y*
0 $9 Rotation angle, in degrees counterclockwise*
0 create outline with 4 corners*
4,1,4,$1,$2,$3,$4,$5,$6,$7,$8,$1,$2,$9*%
G04 Aperture macros list end*
%ADD10C,0.200000*%
%ADD11RoundRect,0.140000X-0.140000X-0.170000X0.140000X-0.170000X0.140000X0.170000X-0.140000X0.170000X0*%
%ADD12Outline4P,-0.175000X-0.325000X0.175000X-0.325000X0.175000X0.325000X-0.175000X0.325000X270.000000*%
%ADD13Outline4P,-0.175000X-0.800000X0.175000X-0.800000X0.175000X0.800000X-0.175000X0.800000X270.000000*%
%ADD14RoundRect,0.135000X0.185000X-0.135000X0.185000X0.135000X-0.185000X0.135000X-0.185000X-0.135000X0*%
%ADD15R,1.100000X2.500000*%
%ADD16RoundRect,0.140000X-0.170000X0.140000X-0.170000X-0.140000X0.170000X-0.140000X0.170000X0.140000X0*%
%ADD17R,0.500000X0.300000*%
%ADD18RoundRect,0.135000X0.135000X0.185000X-0.135000X0.185000X-0.135000X-0.185000X0.135000X-0.185000X0*%
%ADD19RoundRect,0.150000X0.200000X-0.150000X0.200000X0.150000X-0.200000X0.150000X-0.200000X-0.150000X0*%
%ADD20R,1.000000X1.150000*%
%ADD21RoundRect,0.135000X-0.185000X0.135000X-0.185000X-0.135000X0.185000X-0.135000X0.185000X0.135000X0*%
%ADD22RoundRect,0.135000X-0.135000X-0.185000X0.135000X-0.185000X0.135000X0.185000X-0.135000X0.185000X0*%
%ADD23RoundRect,0.250000X0.495000X0.495000X-0.495000X0.495000X-0.495000X-0.495000X0.495000X-0.495000X0*%
%ADD24RoundRect,0.062500X0.337500X0.062500X-0.337500X0.062500X-0.337500X-0.062500X0.337500X-0.062500X0*%
%ADD25RoundRect,0.062500X0.062500X0.337500X-0.062500X0.337500X-0.062500X-0.337500X0.062500X-0.337500X0*%
%ADD26RoundRect,0.147500X-0.147500X-0.172500X0.147500X-0.172500X0.147500X0.172500X-0.147500X0.172500X0*%
%ADD27RoundRect,0.140000X0.170000X-0.140000X0.170000X0.140000X-0.170000X0.140000X-0.170000X-0.140000X0*%
%ADD28R,0.500000X2.800000*%
%ADD29R,0.600000X2.600000*%
%ADD30C,2.000000*%
G04 APERTURE END LIST*
D10*
%TO.C,AE1*%
X154600000Y-30550000D02*
X155100000Y-30550000D01*
X155100000Y-30550000D02*
X155100000Y-30850000D01*
X155100000Y-30850000D02*
X154600000Y-30850000D01*
X154600000Y-30850000D02*
X154600000Y-30550000D01*
G36*
X154600000Y-30550000D02*
G01*
X155100000Y-30550000D01*
X155100000Y-30850000D01*
X154600000Y-30850000D01*
X154600000Y-30550000D01*
G37*
X154600000Y-31650000D02*
X155100000Y-31650000D01*
X155100000Y-31650000D02*
X155100000Y-31950000D01*
X155100000Y-31950000D02*
X154600000Y-31950000D01*
X154600000Y-31950000D02*
X154600000Y-31650000D01*
G36*
X154600000Y-31650000D02*
G01*
X155100000Y-31650000D01*
X155100000Y-31950000D01*
X154600000Y-31950000D01*
X154600000Y-31650000D01*
G37*
%TD*%
D11*
%TO.C,C1*%
X141720000Y-25850000D03*
X142680000Y-25850000D03*
%TD*%
D12*
%TO.C,AE1*%
X154375000Y-36125000D03*
D13*
X154850000Y-33175000D03*
D12*
X155325000Y-36125000D03*
%TD*%
D14*
%TO.C,R9*%
X146500000Y-42860000D03*
X146500000Y-41840000D03*
%TD*%
D15*
%TO.C,J1*%
X152000000Y-25850000D03*
X149500000Y-25850000D03*
X147500000Y-25850000D03*
X145000000Y-25850000D03*
%TD*%
D16*
%TO.C,C14*%
X154400000Y-38020000D03*
X154400000Y-38980000D03*
%TD*%
%TO.C,C7*%
X143350000Y-31420000D03*
X143350000Y-32380000D03*
%TD*%
%TO.C,C12*%
X151600000Y-38020000D03*
X151600000Y-38980000D03*
%TD*%
D17*
%TO.C,D7*%
X149000000Y-28600000D03*
X149000000Y-27900000D03*
%TD*%
D18*
%TO.C,R23*%
X150710000Y-44300000D03*
X149690000Y-44300000D03*
%TD*%
%TO.C,R22*%
X150710000Y-45300000D03*
X149690000Y-45300000D03*
%TD*%
D19*
%TO.C,D8*%
X152550000Y-43950000D03*
X152550000Y-45350000D03*
%TD*%
D17*
%TO.C,D6*%
X148000000Y-28600000D03*
X148000000Y-27900000D03*
%TD*%
D20*
%TO.C,Y1*%
X144650000Y-32775000D03*
X144650000Y-31025000D03*
X146050000Y-31025000D03*
X146050000Y-32775000D03*
%TD*%
D21*
%TO.C,R29*%
X141800000Y-27690000D03*
X141800000Y-28710000D03*
%TD*%
D22*
%TO.C,R20*%
X141690000Y-45300000D03*
X142710000Y-45300000D03*
%TD*%
%TO.C,R21*%
X141690000Y-44300000D03*
X142710000Y-44300000D03*
%TD*%
D16*
%TO.C,C21*%
X142800000Y-27720000D03*
X142800000Y-28680000D03*
%TD*%
D23*
%TO.C,U4*%
X145600000Y-38550000D03*
X145600000Y-36700000D03*
X143750000Y-38550000D03*
X143750000Y-36700000D03*
D24*
X147125000Y-35875000D03*
X147125000Y-36375000D03*
X147125000Y-36875000D03*
X147125000Y-37375000D03*
X147125000Y-37875000D03*
X147125000Y-38375000D03*
X147125000Y-38875000D03*
X147125000Y-39375000D03*
D25*
X146425000Y-40075000D03*
X145925000Y-40075000D03*
X145425000Y-40075000D03*
X144925000Y-40075000D03*
X144425000Y-40075000D03*
X143925000Y-40075000D03*
X143425000Y-40075000D03*
X142925000Y-40075000D03*
D24*
X142225000Y-39375000D03*
X142225000Y-38875000D03*
X142225000Y-38375000D03*
X142225000Y-37875000D03*
X142225000Y-37375000D03*
X142225000Y-36875000D03*
X142225000Y-36375000D03*
X142225000Y-35875000D03*
D25*
X142925000Y-35175000D03*
X143425000Y-35175000D03*
X143925000Y-35175000D03*
X144425000Y-35175000D03*
X144925000Y-35175000D03*
X145425000Y-35175000D03*
X145925000Y-35175000D03*
X146425000Y-35175000D03*
%TD*%
D26*
%TO.C,L3*%
X152515000Y-38050000D03*
X153485000Y-38050000D03*
%TD*%
D27*
%TO.C,C8*%
X147350000Y-32380000D03*
X147350000Y-31420000D03*
%TD*%
D18*
%TO.C,R27*%
X142710000Y-26800000D03*
X141690000Y-26800000D03*
%TD*%
D28*
%TO.C,J2*%
X144500000Y-47550000D03*
X145500000Y-47550000D03*
X146500000Y-47550000D03*
X147500000Y-47550000D03*
X148500000Y-47550000D03*
X149500000Y-47550000D03*
X150500000Y-47550000D03*
X151500000Y-47550000D03*
X152500000Y-47550000D03*
D29*
X141725000Y-47650000D03*
X155275000Y-47650000D03*
%TD*%
D30*
%TO.C,KiKit_TO_3*%
X136599000Y-46700000D03*
%TD*%
%TO.C,KiKit_TO_1*%
X136599000Y-22500000D03*
%TD*%
%TO.C,KiKit_TO_4*%
X160401000Y-46700000D03*
%TD*%
%TO.C,KiKit_TO_2*%
X160401000Y-22500000D03*
%TD*%
M02*
