%TF.GenerationSoftware,KiCad,Pcbnew,7.0.9*%
%TF.CreationDate,2024-04-04T21:50:02+13:00*%
%TF.ProjectId,panel,70616e65-6c2e-46b6-9963-61645f706362,rev?*%
%TF.SameCoordinates,Original*%
%TF.FileFunction,Profile,NP*%
%FSLAX46Y46*%
G04 Gerber Fmt 4.6, Leading zero omitted, Abs format (unit mm)*
G04 Created by KiCad (PCBNEW 7.0.9) date 2024-04-04 21:50:02*
%MOMM*%
%LPD*%
G01*
G04 APERTURE LIST*
%TA.AperFunction,Profile*%
%ADD10C,0.100000*%
%TD*%
G04 APERTURE END LIST*
D10*
X140981921Y-37438063D02*
X140957728Y-37480769D01*
X141098795Y-37015735D02*
X141095184Y-37064684D01*
X156192892Y-27940440D02*
X156159048Y-27904892D01*
X156704908Y-40985881D02*
X156753268Y-40977490D01*
X156228440Y-37707618D02*
X156192892Y-37673773D01*
X157913272Y-49200000D02*
X162888727Y-49200000D01*
X157415103Y-41108937D02*
X157456570Y-41135196D01*
X140342980Y-31263302D02*
X140390285Y-31276392D01*
X156704908Y-37947451D02*
X156657019Y-37936697D01*
X155958455Y-27570223D02*
X155943059Y-27523618D01*
X156563109Y-41025122D02*
X156609714Y-41009726D01*
X139391892Y-31526226D02*
X139427440Y-31492381D01*
X139128968Y-37209647D02*
X139118214Y-37161757D01*
X157496699Y-37769874D02*
X157456570Y-37798136D01*
X139195010Y-27660888D02*
X139175120Y-27616017D01*
X156704908Y-28214118D02*
X156657019Y-28203364D01*
X139099000Y-49187727D02*
X139099000Y-41966665D01*
X139295792Y-27829033D02*
X139267530Y-27788904D01*
X141098795Y-41917598D02*
X141100000Y-41966665D01*
X139100204Y-37015735D02*
X139099000Y-36966667D01*
X157047731Y-40977490D02*
X157096091Y-40985881D01*
X141100000Y-32233332D02*
X141100000Y-36966667D01*
X156428602Y-28115254D02*
X156385896Y-28091062D01*
X157608107Y-27940440D02*
X157572559Y-27974284D01*
X156159048Y-27904892D02*
X156126989Y-27867726D01*
X157857940Y-27523618D02*
X157842544Y-27570223D01*
X139098999Y-20012272D02*
X139098705Y-20000295D01*
X156265606Y-41193655D02*
X156304300Y-41163458D01*
X140098999Y-31233333D02*
X140100000Y-31233333D01*
X139109823Y-27380064D02*
X139103815Y-27331351D01*
X139325989Y-31598939D02*
X139358048Y-31561774D01*
X139195010Y-41539111D02*
X139217078Y-41495269D01*
X156096792Y-41370966D02*
X156126989Y-41332273D01*
X141070031Y-37209647D02*
X141056940Y-37256952D01*
X140571397Y-41084745D02*
X140614103Y-41108937D01*
X156126989Y-27867726D02*
X156096792Y-27829033D01*
X157372397Y-37848588D02*
X157328555Y-37870656D01*
X157758728Y-37480769D02*
X157732469Y-37522237D01*
X140771559Y-37707618D02*
X140734393Y-37739677D01*
X156801981Y-28228518D02*
X156753268Y-28222509D01*
X162901000Y-49187727D02*
X162901000Y-20012272D01*
X140000981Y-37961851D02*
X139952268Y-37955843D01*
X139241271Y-31719230D02*
X139267530Y-31677762D01*
X140482684Y-31309453D02*
X140527555Y-31329343D01*
X140931469Y-31677762D02*
X140957728Y-31719230D01*
X156192892Y-31526226D02*
X156228440Y-31492381D01*
X141003989Y-41539111D02*
X141023879Y-41583982D01*
X155943059Y-41676381D02*
X155958455Y-41629776D01*
X139086727Y-49199999D02*
X139098704Y-49199705D01*
X156704908Y-31252548D02*
X156753268Y-31244156D01*
X140295091Y-40985881D02*
X140342980Y-40996635D01*
X140342980Y-40996635D02*
X140390285Y-41009726D01*
X141098795Y-32184264D02*
X141100000Y-32233332D01*
X156753268Y-28222509D02*
X156704908Y-28214118D01*
X156018078Y-41495269D02*
X156042271Y-41452563D01*
X139099000Y-32233332D02*
X139100204Y-32184264D01*
X156950068Y-28232128D02*
X156901000Y-28233333D01*
X157881785Y-37161757D02*
X157871031Y-37209647D01*
X139241271Y-27747436D02*
X139217078Y-27704730D01*
X156068530Y-37522237D02*
X156042271Y-37480769D01*
X156265606Y-31460322D02*
X156304300Y-31430125D01*
X156609714Y-37923607D02*
X156563109Y-37908210D01*
X157191285Y-31276392D02*
X157237890Y-31291789D01*
X157857940Y-37256952D02*
X157842544Y-37303557D01*
X156950068Y-31234537D02*
X156999018Y-31238148D01*
X157782921Y-27704730D02*
X157758728Y-27747436D01*
X139503300Y-37769874D02*
X139464606Y-37739677D01*
X139358048Y-41295107D02*
X139391892Y-41259559D01*
X157674010Y-27867726D02*
X157641951Y-27904892D01*
X140957728Y-37480769D02*
X140931469Y-37522237D01*
X157372397Y-28115254D02*
X157328555Y-28137322D01*
X157890176Y-37113397D02*
X157881785Y-37161757D01*
X141112272Y-49200000D02*
X155887727Y-49200000D01*
X155900000Y-36966667D02*
X155900000Y-32233332D01*
X157842544Y-37303557D02*
X157824879Y-37349350D01*
X140390285Y-28190273D02*
X140342980Y-28203364D01*
X156801981Y-40971481D02*
X156850931Y-40967871D01*
X155899704Y-20000294D02*
X155887727Y-20000000D01*
X139503300Y-28036541D02*
X139464606Y-28006344D01*
X156159048Y-37638225D02*
X156126989Y-37601060D01*
X157899795Y-37015735D02*
X157896184Y-37064684D01*
X140098999Y-28233333D02*
X140049931Y-28232128D01*
X156096792Y-37562366D02*
X156068530Y-37522237D01*
X156096792Y-27829033D02*
X156068530Y-27788904D01*
X156068530Y-31677762D02*
X156096792Y-31637633D01*
X139100204Y-32184264D02*
X139103815Y-32135315D01*
X139103815Y-32135315D02*
X139109823Y-32086602D01*
X140695699Y-41163458D02*
X140734393Y-41193655D01*
X139808714Y-28190273D02*
X139762109Y-28174877D01*
X140903207Y-37562366D02*
X140873010Y-37601060D01*
X140436890Y-28174877D02*
X140390285Y-28190273D01*
X156901000Y-31233333D02*
X156950068Y-31234537D01*
X157572559Y-31492381D02*
X157608107Y-31526226D01*
X139100204Y-41917598D02*
X139103815Y-41868648D01*
X157732469Y-37522237D02*
X157704207Y-37562366D01*
X156344429Y-31401863D02*
X156385896Y-31375604D01*
X157899795Y-27282401D02*
X157896184Y-27331351D01*
X140049931Y-31234537D02*
X140098999Y-31233333D01*
X139267530Y-31677762D02*
X139295792Y-31637633D01*
X155976120Y-31850649D02*
X155996010Y-31805777D01*
X139267530Y-37522237D02*
X139241271Y-37480769D01*
X140198018Y-28228518D02*
X140149068Y-28232128D01*
X141098795Y-27282401D02*
X141095184Y-27331351D01*
X155958455Y-31896442D02*
X155976120Y-31850649D01*
X134099000Y-20012272D02*
X134099000Y-49187727D01*
X156901000Y-37966666D02*
X156899999Y-37966666D01*
X156385896Y-37824395D02*
X156344429Y-37798136D01*
X140903207Y-27829033D02*
X140873010Y-27867726D01*
X139128968Y-31990352D02*
X139142059Y-31943047D01*
X140771559Y-27974284D02*
X140734393Y-28006344D01*
X157191285Y-28190273D02*
X157143980Y-28203364D01*
X157704207Y-37562366D02*
X157674010Y-37601060D01*
X139142059Y-31943047D02*
X139157455Y-31896442D01*
X139103815Y-37064684D02*
X139100204Y-37015735D01*
X155958455Y-41629776D02*
X155976120Y-41583982D01*
X155929968Y-41723685D02*
X155943059Y-41676381D01*
X139217078Y-41495269D02*
X139241271Y-41452563D01*
X155900000Y-41966665D02*
X155901204Y-41917598D01*
X134099294Y-20000295D02*
X134099000Y-20012272D01*
X139716315Y-28157212D02*
X139671444Y-28137322D01*
X141003989Y-37394222D02*
X140981921Y-37438063D01*
X157704207Y-27829033D02*
X157674010Y-27867726D01*
X139584896Y-28091062D02*
X139543429Y-28064803D01*
X141100000Y-36966667D02*
X141098795Y-37015735D01*
X157804989Y-41539111D02*
X157824879Y-41583982D01*
X157804989Y-37394222D02*
X157782921Y-37438063D01*
X155929968Y-37209647D02*
X155919214Y-37161757D01*
X157096091Y-28214118D02*
X157047731Y-28222509D01*
X155910823Y-37113397D02*
X155904815Y-37064684D01*
X157674010Y-31598939D02*
X157704207Y-31637633D01*
X140734393Y-31460322D02*
X140771559Y-31492381D01*
X156517315Y-31309453D02*
X156563109Y-31291789D01*
X140100000Y-31233333D02*
X140149068Y-31234537D01*
X155976120Y-37349350D02*
X155958455Y-37303557D01*
X140000981Y-28228518D02*
X139952268Y-28222509D01*
X155929968Y-27476314D02*
X155919214Y-27428424D01*
X141089176Y-41819935D02*
X141095184Y-41868648D01*
X157047731Y-28222509D02*
X156999018Y-28228518D01*
X141095184Y-41868648D02*
X141098795Y-41917598D01*
X140807107Y-27940440D02*
X140771559Y-27974284D01*
X157328555Y-41062677D02*
X157372397Y-41084745D01*
X157842544Y-27570223D02*
X157824879Y-27616017D01*
X156018078Y-31761936D02*
X156042271Y-31719230D01*
X156344429Y-28064803D02*
X156304300Y-28036541D01*
X157283684Y-37890546D02*
X157237890Y-37908210D01*
X157901000Y-32233332D02*
X157901000Y-36966667D01*
X157328555Y-28137322D02*
X157283684Y-28157212D01*
X140149068Y-40967871D02*
X140198018Y-40971481D01*
X155919214Y-37161757D02*
X155910823Y-37113397D01*
X157896184Y-41868648D02*
X157899795Y-41917598D01*
X157881785Y-32038242D02*
X157890176Y-32086602D01*
X156801981Y-31238148D02*
X156850931Y-31234537D01*
X157456570Y-28064803D02*
X157415103Y-28091062D01*
X140390285Y-37923607D02*
X140342980Y-37936697D01*
X139217078Y-31761936D02*
X139241271Y-31719230D01*
X157047731Y-31244156D02*
X157096091Y-31252548D01*
X139358048Y-37638225D02*
X139325989Y-37601060D01*
X157782921Y-41495269D02*
X157804989Y-41539111D01*
X139856019Y-31263302D02*
X139903908Y-31252548D01*
X139543429Y-28064803D02*
X139503300Y-28036541D01*
X139157455Y-41629776D02*
X139175120Y-41583982D01*
X140390285Y-31276392D02*
X140436890Y-31291789D01*
X139118214Y-41771575D02*
X139128968Y-41723685D01*
X155919214Y-32038242D02*
X155929968Y-31990352D01*
X156304300Y-28036541D02*
X156265606Y-28006344D01*
X156753268Y-31244156D02*
X156801981Y-31238148D01*
X156192892Y-41259559D02*
X156228440Y-41225715D01*
X139543429Y-37798136D02*
X139503300Y-37769874D01*
X140614103Y-31375604D02*
X140655570Y-31401863D01*
X156068530Y-41411095D02*
X156096792Y-41370966D01*
X139175120Y-37349350D02*
X139157455Y-37303557D01*
X140100000Y-37966666D02*
X140098999Y-37966666D01*
X139391892Y-41259559D02*
X139427440Y-41225715D01*
X156950068Y-40967871D02*
X156999018Y-40971481D01*
X139627602Y-28115254D02*
X139584896Y-28091062D01*
X139098704Y-20000294D02*
X139086727Y-20000000D01*
X155887727Y-49199999D02*
X155899704Y-49199705D01*
X139267530Y-27788904D02*
X139241271Y-27747436D01*
X141089176Y-27380064D02*
X141080785Y-27428424D01*
X156999018Y-28228518D02*
X156950068Y-28232128D01*
X155996010Y-37394222D02*
X155976120Y-37349350D01*
X140931469Y-41411095D02*
X140957728Y-41452563D01*
X155910823Y-27380064D02*
X155904815Y-27331351D01*
X156126989Y-41332273D02*
X156159048Y-41295107D01*
X139856019Y-37936697D02*
X139808714Y-37923607D01*
X141041544Y-41629776D02*
X141056940Y-41676381D01*
X155976120Y-41583982D02*
X155996010Y-41539111D01*
X140695699Y-28036541D02*
X140655570Y-28064803D01*
X140840951Y-27904892D02*
X140807107Y-27940440D01*
X139762109Y-37908210D02*
X139716315Y-37890546D01*
X157496699Y-31430125D02*
X157535393Y-31460322D01*
X139543429Y-41135196D02*
X139584896Y-41108937D01*
X139762109Y-31291789D02*
X139808714Y-31276392D01*
X141112272Y-20000000D02*
X141100295Y-20000294D01*
X140482684Y-41042787D02*
X140527555Y-41062677D01*
X157758728Y-31719230D02*
X157782921Y-31761936D01*
X140246731Y-28222509D02*
X140198018Y-28228518D01*
X140807107Y-31526226D02*
X140840951Y-31561774D01*
X139762109Y-28174877D02*
X139716315Y-28157212D01*
X157283684Y-31309453D02*
X157328555Y-31329343D01*
X141041544Y-27570223D02*
X141023879Y-27616017D01*
X155901204Y-37015735D02*
X155900000Y-36966667D01*
X157674010Y-41332273D02*
X157704207Y-41370966D01*
X141056940Y-27523618D02*
X141041544Y-27570223D01*
X156517315Y-28157212D02*
X156472444Y-28137322D01*
X156304300Y-31430125D02*
X156344429Y-31401863D01*
X156428602Y-31351411D02*
X156472444Y-31329343D01*
X156609714Y-28190273D02*
X156563109Y-28174877D01*
X140873010Y-37601060D02*
X140840951Y-37638225D01*
X157871031Y-41723685D02*
X157881785Y-41771575D01*
X139175120Y-31850649D02*
X139195010Y-31805777D01*
X156472444Y-41062677D02*
X156517315Y-41042787D01*
X139903908Y-40985881D02*
X139952268Y-40977490D01*
X156950068Y-37965462D02*
X156901000Y-37966666D01*
X157901000Y-49187727D02*
X157901294Y-49199704D01*
X141070031Y-31990352D02*
X141080785Y-32038242D01*
X139427440Y-41225715D02*
X139464606Y-41193655D01*
X156657019Y-28203364D02*
X156609714Y-28190273D01*
X141056940Y-41676381D02*
X141070031Y-41723685D01*
X139142059Y-37256952D02*
X139128968Y-37209647D01*
X156228440Y-27974284D02*
X156192892Y-27940440D01*
X157901295Y-49199705D02*
X157913272Y-49199999D01*
X155910823Y-32086602D02*
X155919214Y-32038242D01*
X140390285Y-41009726D02*
X140436890Y-41025122D01*
X140957728Y-31719230D02*
X140981921Y-31761936D01*
X156304300Y-41163458D02*
X156344429Y-41135196D01*
X157143980Y-37936697D02*
X157096091Y-37947451D01*
X140100000Y-28233333D02*
X140098999Y-28233333D01*
X139217078Y-37438063D02*
X139195010Y-37394222D01*
X141023879Y-31850649D02*
X141041544Y-31896442D01*
X156304300Y-37769874D02*
X156265606Y-37739677D01*
X141100000Y-27233334D02*
X141098795Y-27282401D01*
X140527555Y-31329343D02*
X140571397Y-31351411D01*
X157890176Y-27380064D02*
X157881785Y-27428424D01*
X140198018Y-40971481D02*
X140246731Y-40977490D01*
X139267530Y-41411095D02*
X139295792Y-41370966D01*
X140655570Y-31401863D02*
X140695699Y-31430125D01*
X156563109Y-37908210D02*
X156517315Y-37890546D01*
X156228440Y-31492381D02*
X156265606Y-31460322D01*
X139716315Y-41042787D02*
X139762109Y-41025122D01*
X155976120Y-27616017D02*
X155958455Y-27570223D01*
X139716315Y-31309453D02*
X139762109Y-31291789D01*
X157824879Y-31850649D02*
X157842544Y-31896442D01*
X140100000Y-40966666D02*
X140149068Y-40967871D01*
X141041544Y-31896442D02*
X141056940Y-31943047D01*
X139109823Y-37113397D02*
X139103815Y-37064684D01*
X157842544Y-31896442D02*
X157857940Y-31943047D01*
X156657019Y-31263302D02*
X156704908Y-31252548D01*
X157782921Y-37438063D02*
X157758728Y-37480769D01*
X157804989Y-27660888D02*
X157782921Y-27704730D01*
X157641951Y-37638225D02*
X157608107Y-37673773D01*
X139427440Y-37707618D02*
X139391892Y-37673773D01*
X156517315Y-37890546D02*
X156472444Y-37870656D01*
X140807107Y-41259559D02*
X140840951Y-41295107D01*
X140342980Y-37936697D02*
X140295091Y-37947451D01*
X139952268Y-37955843D02*
X139903908Y-37947451D01*
X156042271Y-31719230D02*
X156068530Y-31677762D01*
X157896184Y-32135315D02*
X157899795Y-32184264D01*
X155958455Y-37303557D02*
X155943059Y-37256952D01*
X140000981Y-40971481D02*
X140049931Y-40967871D01*
X134099295Y-49199705D02*
X134111272Y-49199999D01*
X139100204Y-27282401D02*
X139099000Y-27233334D01*
X140931469Y-27788904D02*
X140903207Y-27829033D01*
X139464606Y-37739677D02*
X139427440Y-37707618D01*
X157328555Y-31329343D02*
X157372397Y-31351411D01*
X155910823Y-41819935D02*
X155919214Y-41771575D01*
X157901000Y-20012272D02*
X157901000Y-27233334D01*
X139195010Y-31805777D02*
X139217078Y-31761936D01*
X155900000Y-32233332D02*
X155901204Y-32184264D01*
X157758728Y-27747436D02*
X157732469Y-27788904D01*
X139295792Y-31637633D02*
X139325989Y-31598939D01*
X156999018Y-37961851D02*
X156950068Y-37965462D01*
X139086727Y-20000000D02*
X134111272Y-20000000D01*
X139584896Y-37824395D02*
X139543429Y-37798136D01*
X157732469Y-27788904D02*
X157704207Y-27829033D01*
X157899795Y-32184264D02*
X157901000Y-32233332D01*
X156042271Y-41452563D02*
X156068530Y-41411095D01*
X157372397Y-31351411D02*
X157415103Y-31375604D01*
X156563109Y-28174877D02*
X156517315Y-28157212D01*
X157871031Y-37209647D02*
X157857940Y-37256952D01*
X139358048Y-31561774D02*
X139391892Y-31526226D01*
X140734393Y-37739677D02*
X140695699Y-37769874D01*
X141095184Y-37064684D02*
X141089176Y-37113397D01*
X155899705Y-49199704D02*
X155899999Y-49187727D01*
X162888727Y-49199999D02*
X162900704Y-49199705D01*
X157143980Y-40996635D02*
X157191285Y-41009726D01*
X156850931Y-28232128D02*
X156801981Y-28228518D01*
X140873010Y-41332273D02*
X140903207Y-41370966D01*
X140295091Y-31252548D02*
X140342980Y-31263302D01*
X156517315Y-41042787D02*
X156563109Y-41025122D01*
X139325989Y-27867726D02*
X139295792Y-27829033D01*
X157535393Y-28006344D02*
X157496699Y-28036541D01*
X140614103Y-37824395D02*
X140571397Y-37848588D01*
X140655570Y-37798136D02*
X140614103Y-37824395D01*
X139716315Y-37890546D02*
X139671444Y-37870656D01*
X141023879Y-37349350D02*
X141003989Y-37394222D01*
X139157455Y-27570223D02*
X139142059Y-27523618D01*
X156228440Y-41225715D02*
X156265606Y-41193655D01*
X156657019Y-37936697D02*
X156609714Y-37923607D01*
X139217078Y-27704730D02*
X139195010Y-27660888D01*
X140246731Y-37955843D02*
X140198018Y-37961851D01*
X139099000Y-41966665D02*
X139100204Y-41917598D01*
X155887727Y-20000000D02*
X141112272Y-20000000D01*
X156385896Y-31375604D02*
X156428602Y-31351411D01*
X139099000Y-27233334D02*
X139099000Y-20012272D01*
X157890176Y-41819935D02*
X157896184Y-41868648D01*
X140695699Y-37769874D02*
X140655570Y-37798136D01*
X157842544Y-41629776D02*
X157857940Y-41676381D01*
X139808714Y-31276392D02*
X139856019Y-31263302D01*
X157608107Y-37673773D02*
X157572559Y-37707618D01*
X156657019Y-40996635D02*
X156704908Y-40985881D01*
X156428602Y-41084745D02*
X156472444Y-41062677D01*
X139464606Y-31460322D02*
X139503300Y-31430125D01*
X140049931Y-37965462D02*
X140000981Y-37961851D01*
X140571397Y-31351411D02*
X140614103Y-31375604D01*
X156042271Y-37480769D02*
X156018078Y-37438063D01*
X140840951Y-37638225D02*
X140807107Y-37673773D01*
X140436890Y-37908210D02*
X140390285Y-37923607D01*
X156609714Y-41009726D02*
X156657019Y-40996635D01*
X141080785Y-32038242D02*
X141089176Y-32086602D01*
X156563109Y-31291789D02*
X156609714Y-31276392D01*
X139671444Y-41062677D02*
X139716315Y-41042787D01*
X157804989Y-31805777D02*
X157824879Y-31850649D01*
X156899999Y-37966666D02*
X156850931Y-37965462D01*
X157901294Y-20000295D02*
X157901000Y-20012272D01*
X139903908Y-28214118D02*
X139856019Y-28203364D01*
X139175120Y-41583982D02*
X139195010Y-41539111D01*
X156753268Y-40977490D02*
X156801981Y-40971481D01*
X157237890Y-41025122D02*
X157283684Y-41042787D01*
X155901204Y-27282401D02*
X155900000Y-27233334D01*
X162900705Y-49199704D02*
X162900999Y-49187727D01*
X139325989Y-37601060D02*
X139295792Y-37562366D01*
X139325989Y-41332273D02*
X139358048Y-41295107D01*
X141056940Y-37256952D02*
X141041544Y-37303557D01*
X139109823Y-41819935D02*
X139118214Y-41771575D01*
X157899795Y-41917598D02*
X157901000Y-41966665D01*
X141100000Y-20012272D02*
X141100000Y-27233334D01*
X156126989Y-37601060D02*
X156096792Y-37562366D01*
X139543429Y-31401863D02*
X139584896Y-31375604D01*
X157901000Y-36966667D02*
X157899795Y-37015735D01*
X139295792Y-41370966D02*
X139325989Y-41332273D01*
X141100000Y-41966665D02*
X141100000Y-49187727D01*
X157415103Y-37824395D02*
X157372397Y-37848588D01*
X157572559Y-37707618D02*
X157535393Y-37739677D01*
X156385896Y-28091062D02*
X156344429Y-28064803D01*
X140198018Y-31238148D02*
X140246731Y-31244156D01*
X139808714Y-37923607D02*
X139762109Y-37908210D01*
X156126989Y-31598939D02*
X156159048Y-31561774D01*
X155996010Y-27660888D02*
X155976120Y-27616017D01*
X140614103Y-28091062D02*
X140571397Y-28115254D01*
X156850931Y-37965462D02*
X156801981Y-37961851D01*
X156428602Y-37848588D02*
X156385896Y-37824395D01*
X140527555Y-28137322D02*
X140482684Y-28157212D01*
X140246731Y-40977490D02*
X140295091Y-40985881D01*
X155900000Y-49187727D02*
X155900000Y-41966665D01*
X134099000Y-49187727D02*
X134099294Y-49199704D01*
X156018078Y-37438063D02*
X155996010Y-37394222D01*
X141100294Y-20000295D02*
X141100000Y-20012272D01*
X155904815Y-27331351D02*
X155901204Y-27282401D01*
X139671444Y-31329343D02*
X139716315Y-31309453D01*
X156899999Y-28233333D02*
X156850931Y-28232128D01*
X155943059Y-37256952D02*
X155929968Y-37209647D01*
X140149068Y-31234537D02*
X140198018Y-31238148D01*
X155929968Y-31990352D02*
X155943059Y-31943047D01*
X157641951Y-31561774D02*
X157674010Y-31598939D01*
X156850931Y-31234537D02*
X156899999Y-31233333D01*
X139903908Y-31252548D02*
X139952268Y-31244156D01*
X141080785Y-41771575D02*
X141089176Y-41819935D01*
X157704207Y-31637633D02*
X157732469Y-31677762D01*
X157782921Y-31761936D02*
X157804989Y-31805777D01*
X141003989Y-27660888D02*
X140981921Y-27704730D01*
X155919214Y-27428424D02*
X155910823Y-27380064D01*
X139671444Y-28137322D02*
X139627602Y-28115254D01*
X139856019Y-28203364D02*
X139808714Y-28190273D01*
X157496699Y-41163458D02*
X157535393Y-41193655D01*
X140295091Y-28214118D02*
X140246731Y-28222509D01*
X157824879Y-37349350D02*
X157804989Y-37394222D01*
X157857940Y-41676381D02*
X157871031Y-41723685D01*
X139903908Y-37947451D02*
X139856019Y-37936697D01*
X140695699Y-31430125D02*
X140734393Y-31460322D01*
X157283684Y-41042787D02*
X157328555Y-41062677D01*
X156801981Y-37961851D02*
X156753268Y-37955843D01*
X140873010Y-27867726D02*
X140840951Y-27904892D01*
X157881785Y-27428424D02*
X157871031Y-27476314D01*
X156192892Y-37673773D02*
X156159048Y-37638225D01*
X141100000Y-49187727D02*
X141100294Y-49199704D01*
X139671444Y-37870656D02*
X139627602Y-37848588D01*
X157824879Y-27616017D02*
X157804989Y-27660888D01*
X140049931Y-28232128D02*
X140000981Y-28228518D01*
X157913272Y-20000000D02*
X157901295Y-20000294D01*
X139952268Y-40977490D02*
X140000981Y-40971481D01*
X157237890Y-37908210D02*
X157191285Y-37923607D01*
X140840951Y-31561774D02*
X140873010Y-31598939D01*
X157535393Y-41193655D02*
X157572559Y-41225715D01*
X139391892Y-27940440D02*
X139358048Y-27904892D01*
X156999018Y-31238148D02*
X157047731Y-31244156D01*
X157096091Y-31252548D02*
X157143980Y-31263302D01*
X157456570Y-37798136D02*
X157415103Y-37824395D01*
X157372397Y-41084745D02*
X157415103Y-41108937D01*
X156999018Y-40971481D02*
X157047731Y-40977490D01*
X139098705Y-49199704D02*
X139098999Y-49187727D01*
X140903207Y-41370966D02*
X140931469Y-41411095D01*
X139627602Y-41084745D02*
X139671444Y-41062677D01*
X157572559Y-41225715D02*
X157608107Y-41259559D01*
X157608107Y-41259559D02*
X157641951Y-41295107D01*
X140436890Y-41025122D02*
X140482684Y-41042787D01*
X156385896Y-41108937D02*
X156428602Y-41084745D01*
X139503300Y-31430125D02*
X139543429Y-31401863D01*
X156159048Y-41295107D02*
X156192892Y-41259559D01*
X139118214Y-32038242D02*
X139128968Y-31990352D01*
X140734393Y-28006344D02*
X140695699Y-28036541D01*
X157674010Y-37601060D02*
X157641951Y-37638225D01*
X156344429Y-37798136D02*
X156304300Y-37769874D01*
X139241271Y-37480769D02*
X139217078Y-37438063D01*
X140957728Y-41452563D02*
X140981921Y-41495269D01*
X155904815Y-37064684D02*
X155901204Y-37015735D01*
X156472444Y-37870656D02*
X156428602Y-37848588D01*
X157608107Y-31526226D02*
X157641951Y-31561774D01*
X162900704Y-20000294D02*
X162888727Y-20000000D01*
X139157455Y-31896442D02*
X139175120Y-31850649D01*
X140771559Y-41225715D02*
X140807107Y-41259559D01*
X157824879Y-41583982D02*
X157842544Y-41629776D01*
X134111272Y-49200000D02*
X139086727Y-49200000D01*
X141023879Y-27616017D02*
X141003989Y-27660888D01*
X139157455Y-37303557D02*
X139142059Y-37256952D01*
X140098999Y-37966666D02*
X140049931Y-37965462D01*
X139109823Y-32086602D02*
X139118214Y-32038242D01*
X141089176Y-32086602D02*
X141095184Y-32135315D01*
X139427440Y-27974284D02*
X139391892Y-27940440D01*
X157415103Y-28091062D02*
X157372397Y-28115254D01*
X139808714Y-41009726D02*
X139856019Y-40996635D01*
X140342980Y-28203364D02*
X140295091Y-28214118D01*
X157143980Y-31263302D02*
X157191285Y-31276392D01*
X155899999Y-20012272D02*
X155899705Y-20000295D01*
X139762109Y-41025122D02*
X139808714Y-41009726D01*
X140149068Y-28232128D02*
X140100000Y-28233333D01*
X157871031Y-31990352D02*
X157881785Y-32038242D01*
X156472444Y-28137322D02*
X156428602Y-28115254D01*
X140246731Y-31244156D02*
X140295091Y-31252548D01*
X156850931Y-40967871D02*
X156899999Y-40966666D01*
X157901000Y-27233334D02*
X157899795Y-27282401D01*
X140840951Y-41295107D02*
X140873010Y-41332273D01*
X157456570Y-41135196D02*
X157496699Y-41163458D01*
X157191285Y-37923607D02*
X157143980Y-37936697D01*
X140571397Y-37848588D02*
X140527555Y-37870656D01*
X156042271Y-27747436D02*
X156018078Y-27704730D01*
X156472444Y-31329343D02*
X156517315Y-31309453D01*
X139241271Y-41452563D02*
X139267530Y-41411095D01*
X155904815Y-41868648D02*
X155910823Y-41819935D01*
X139195010Y-37394222D02*
X139175120Y-37349350D01*
X140655570Y-28064803D02*
X140614103Y-28091062D01*
X140771559Y-31492381D02*
X140807107Y-31526226D01*
X139128968Y-41723685D02*
X139142059Y-41676381D01*
X140436890Y-31291789D02*
X140482684Y-31309453D01*
X156159048Y-31561774D02*
X156192892Y-31526226D01*
X157143980Y-28203364D02*
X157096091Y-28214118D01*
X140734393Y-41193655D02*
X140771559Y-41225715D01*
X155919214Y-41771575D02*
X155929968Y-41723685D01*
X157237890Y-31291789D02*
X157283684Y-31309453D01*
X139627602Y-37848588D02*
X139584896Y-37824395D01*
X157871031Y-27476314D02*
X157857940Y-27523618D01*
X140614103Y-41108937D02*
X140655570Y-41135196D01*
X141056940Y-31943047D02*
X141070031Y-31990352D01*
X155943059Y-27523618D02*
X155929968Y-27476314D01*
X139464606Y-41193655D02*
X139503300Y-41163458D01*
X139856019Y-40996635D02*
X139903908Y-40985881D01*
X141003989Y-31805777D02*
X141023879Y-31850649D01*
X134111272Y-20000000D02*
X134099295Y-20000294D01*
X156018078Y-27704730D02*
X155996010Y-27660888D01*
X140149068Y-37965462D02*
X140100000Y-37966666D01*
X156344429Y-41135196D02*
X156385896Y-41108937D01*
X139118214Y-27428424D02*
X139109823Y-27380064D01*
X139584896Y-41108937D02*
X139627602Y-41084745D01*
X155904815Y-32135315D02*
X155910823Y-32086602D01*
X155996010Y-41539111D02*
X156018078Y-41495269D01*
X157328555Y-37870656D02*
X157283684Y-37890546D01*
X155943059Y-31943047D02*
X155958455Y-31896442D01*
X157881785Y-41771575D02*
X157890176Y-41819935D01*
X139584896Y-31375604D02*
X139627602Y-31351411D01*
X141041544Y-37303557D02*
X141023879Y-37349350D01*
X140981921Y-31761936D02*
X141003989Y-31805777D01*
X139952268Y-28222509D02*
X139903908Y-28214118D01*
X157732469Y-31677762D02*
X157758728Y-31719230D01*
X156609714Y-31276392D02*
X156657019Y-31263302D01*
X140655570Y-41135196D02*
X140695699Y-41163458D01*
X139627602Y-31351411D02*
X139671444Y-31329343D01*
X157096091Y-40985881D02*
X157143980Y-40996635D01*
X162900999Y-20012272D02*
X162900705Y-20000295D01*
X162888727Y-20000000D02*
X157913272Y-20000000D01*
X139391892Y-37673773D02*
X139358048Y-37638225D01*
X141100295Y-49199705D02*
X141112272Y-49199999D01*
X157641951Y-41295107D02*
X157674010Y-41332273D01*
X157572559Y-27974284D02*
X157535393Y-28006344D01*
X141023879Y-41583982D02*
X141041544Y-41629776D01*
X140098999Y-40966666D02*
X140100000Y-40966666D01*
X140295091Y-37947451D02*
X140246731Y-37955843D01*
X157191285Y-41009726D02*
X157237890Y-41025122D01*
X140981921Y-41495269D02*
X141003989Y-41539111D01*
X157496699Y-28036541D02*
X157456570Y-28064803D01*
X141095184Y-32135315D02*
X141098795Y-32184264D01*
X157704207Y-41370966D02*
X157732469Y-41411095D01*
X155996010Y-31805777D02*
X156018078Y-31761936D01*
X157096091Y-37947451D02*
X157047731Y-37955843D01*
X140981921Y-27704730D02*
X140957728Y-27747436D01*
X157732469Y-41411095D02*
X157758728Y-41452563D01*
X139142059Y-27523618D02*
X139128968Y-27476314D01*
X139952268Y-31244156D02*
X140000981Y-31238148D01*
X157641951Y-27904892D02*
X157608107Y-27940440D01*
X139464606Y-28006344D02*
X139427440Y-27974284D01*
X141070031Y-27476314D02*
X141056940Y-27523618D01*
X139175120Y-27616017D02*
X139157455Y-27570223D01*
X139427440Y-31492381D02*
X139464606Y-31460322D01*
X140807107Y-37673773D02*
X140771559Y-37707618D01*
X139099000Y-36966667D02*
X139099000Y-32233332D01*
X139118214Y-37161757D02*
X139109823Y-37113397D01*
X156265606Y-37739677D02*
X156228440Y-37707618D01*
X139128968Y-27476314D02*
X139118214Y-27428424D01*
X140903207Y-31637633D02*
X140931469Y-31677762D01*
X155901204Y-41917598D02*
X155904815Y-41868648D01*
X140873010Y-31598939D02*
X140903207Y-31637633D01*
X157456570Y-31401863D02*
X157496699Y-31430125D01*
X140000981Y-31238148D02*
X140049931Y-31234537D01*
X157047731Y-37955843D02*
X156999018Y-37961851D01*
X157896184Y-37064684D02*
X157890176Y-37113397D01*
X156901000Y-40966666D02*
X156950068Y-40967871D01*
X140931469Y-37522237D02*
X140903207Y-37562366D01*
X140957728Y-27747436D02*
X140931469Y-27788904D01*
X140482684Y-28157212D02*
X140436890Y-28174877D01*
X157283684Y-28157212D02*
X157237890Y-28174877D01*
X157896184Y-27331351D02*
X157890176Y-27380064D01*
X157890176Y-32086602D02*
X157896184Y-32135315D01*
X156899999Y-40966666D02*
X156901000Y-40966666D01*
X140482684Y-37890546D02*
X140436890Y-37908210D01*
X141089176Y-37113397D02*
X141080785Y-37161757D01*
X157415103Y-31375604D02*
X157456570Y-31401863D01*
X156096792Y-31637633D02*
X156126989Y-31598939D01*
X156753268Y-37955843D02*
X156704908Y-37947451D01*
X139503300Y-41163458D02*
X139543429Y-41135196D01*
X139358048Y-27904892D02*
X139325989Y-27867726D01*
X139103815Y-41868648D02*
X139109823Y-41819935D01*
X139142059Y-41676381D02*
X139157455Y-41629776D01*
X140571397Y-28115254D02*
X140527555Y-28137322D01*
X157901000Y-41966665D02*
X157901000Y-49187727D01*
X156901000Y-28233333D02*
X156899999Y-28233333D01*
X157237890Y-28174877D02*
X157191285Y-28190273D01*
X157857940Y-31943047D02*
X157871031Y-31990352D01*
X139295792Y-37562366D02*
X139267530Y-37522237D01*
X140527555Y-41062677D02*
X140571397Y-41084745D01*
X157535393Y-31460322D02*
X157572559Y-31492381D01*
X141095184Y-27331351D02*
X141089176Y-27380064D01*
X157758728Y-41452563D02*
X157782921Y-41495269D01*
X140049931Y-40967871D02*
X140098999Y-40966666D01*
X140527555Y-37870656D02*
X140482684Y-37890546D01*
X140198018Y-37961851D02*
X140149068Y-37965462D01*
X141070031Y-41723685D02*
X141080785Y-41771575D01*
X157535393Y-37739677D02*
X157496699Y-37769874D01*
X155901204Y-32184264D02*
X155904815Y-32135315D01*
X156265606Y-28006344D02*
X156228440Y-27974284D01*
X155900000Y-27233334D02*
X155900000Y-20012272D01*
X139103815Y-27331351D02*
X139100204Y-27282401D01*
X156068530Y-27788904D02*
X156042271Y-27747436D01*
X156899999Y-31233333D02*
X156901000Y-31233333D01*
X141080785Y-27428424D02*
X141070031Y-27476314D01*
X141080785Y-37161757D02*
X141070031Y-37209647D01*
M02*
