M48
; DRILL file {KiCad 7.0.9} date Thu Apr  4 21:50:08 2024
; FORMAT={-:-/ absolute / inch / decimal}
; #@! TF.CreationDate,2024-04-04T21:50:08+13:00
; #@! TF.GenerationSoftware,Kicad,Pcbnew,7.0.9
; #@! TF.FileFunction,Plated,1,4,PTH
FMAT,2
INCH
; #@! TA.AperFunction,Plated,PTH,ViaDrill
T1C0.0118
; #@! TA.AperFunction,Plated,PTH,ComponentDrill
T2C0.0315
; #@! TA.AperFunction,Plated,PTH,ComponentDrill
T3C0.0354
%
G90
G05
T1
X5.5748Y-0.9724
X5.5937Y-1.1575
X5.5945Y-1.6299
X5.5965Y-1.3819
X5.6033Y-1.5679
X5.6083Y-1.6083
X5.6142Y-1.8504
X5.6142Y-1.8898
X5.622Y-1.252
X5.6417Y-1.0551
X5.6516Y-1.3425
X5.6565Y-1.4419
X5.6565Y-1.4813
X5.6565Y-1.5207
X5.6693Y-1.0591
X5.6693Y-1.6496
X5.685Y-1.3504
X5.6929Y-1.1811
X5.6929Y-1.6339
X5.6959Y-1.4419
X5.6959Y-1.4813
X5.6959Y-1.5207
X5.7205Y-0.8583
X5.7215Y-1.6476
X5.7224Y-1.6161
X5.7244Y-0.9488
X5.7264Y-0.8169
X5.7352Y-1.4419
X5.7352Y-1.4813
X5.7352Y-1.5207
X5.748Y-0.9961
X5.7549Y-1.3622
X5.7673Y-1.7213
X5.7717Y-1.5984
X5.7756Y-1.0945
X5.7933Y-1.6575
X5.8091Y-1.3169
X5.813Y-1.6043
X5.8179Y-1.4419
X5.8209Y-1.5315
X5.8209Y-1.7972
X5.8228Y-1.3543
X5.8307Y-1.2953
X5.8366Y-1.7421
X5.8494Y-1.3711
X5.8524Y-0.8169
X5.8681Y-1.1929
X5.8858Y-1.5335
X5.8898Y-1.4803
X5.8996Y-1.5689
X5.9016Y-0.9311
X5.9035Y-1.3996
X5.9252Y-0.8622
X5.9291Y-1.6299
X5.9311Y-1.7047
X5.9399Y-1.5276
X5.94Y-0.9734
X5.9409Y-1.0177
X5.9547Y-1.7441
X5.9547Y-1.7835
X5.9606Y-1.2087
X5.9606Y-1.2421
X5.9606Y-1.2756
X5.9606Y-1.3071
X5.9606Y-1.3386
X5.9606Y-1.3661
X5.9606Y-1.3917
X5.9646Y-0.8169
X5.9665Y-1.4646
X5.9961Y-0.9232
X5.9961Y-1.1969
X6.0039Y-1.4646
X6.0098Y-1.752
X6.0236Y-1.5906
X6.0236Y-1.6339
X6.0276Y-1.122
X6.0335Y-1.5354
X6.0433Y-1.4646
X6.0472Y-1.5748
X6.0472Y-1.6929
X6.0551Y-1.1969
X6.061Y-1.9016
X6.063Y-1.8386
X6.0669Y-1.1299
X6.0669Y-1.6535
X6.0709Y-1.1654
X6.0709Y-1.7106
X6.0827Y-1.0236
X6.1024Y-1.5354
X6.1063Y-1.0433
X6.1063Y-1.1417
X6.1063Y-1.5945
X6.1063Y-1.7126
X6.1102Y-1.4646
X6.1181Y-1.1969
T2
X5.748Y-1.1378
X5.9449Y-1.1378
T3
G00X5.622Y-0.9409
M15
G01X5.622Y-0.878
M16
G05
G00X6.0709Y-0.9409
M15
G01X6.0709Y-0.878
M16
G05
T0
M30
