%TF.GenerationSoftware,KiCad,Pcbnew,7.0.9*%
%TF.CreationDate,2024-04-04T21:50:02+13:00*%
%TF.ProjectId,panel,70616e65-6c2e-46b6-9963-61645f706362,rev?*%
%TF.SameCoordinates,Original*%
%TF.FileFunction,Soldermask,Bot*%
%TF.FilePolarity,Negative*%
%FSLAX46Y46*%
G04 Gerber Fmt 4.6, Leading zero omitted, Abs format (unit mm)*
G04 Created by KiCad (PCBNEW 7.0.9) date 2024-04-04 21:50:02*
%MOMM*%
%LPD*%
G01*
G04 APERTURE LIST*
G04 Aperture macros list*
%AMRoundRect*
0 Rectangle with rounded corners*
0 $1 Rounding radius*
0 $2 $3 $4 $5 $6 $7 $8 $9 X,Y pos of 4 corners*
0 Add a 4 corners polygon primitive as box body*
4,1,4,$2,$3,$4,$5,$6,$7,$8,$9,$2,$3,0*
0 Add four circle primitives for the rounded corners*
1,1,$1+$1,$2,$3*
1,1,$1+$1,$4,$5*
1,1,$1+$1,$6,$7*
1,1,$1+$1,$8,$9*
0 Add four rect primitives between the rounded corners*
20,1,$1+$1,$2,$3,$4,$5,0*
20,1,$1+$1,$4,$5,$6,$7,0*
20,1,$1+$1,$6,$7,$8,$9,0*
20,1,$1+$1,$8,$9,$2,$3,0*%
%AMOutline4P*
0 Free polygon, 4 corners , with rotation*
0 The origin of the aperture is its center*
0 number of corners: always 4*
0 $1 to $8 corner X, Y*
0 $9 Rotation angle, in degrees counterclockwise*
0 create outline with 4 corners*
4,1,4,$1,$2,$3,$4,$5,$6,$7,$8,$1,$2,$9*%
G04 Aperture macros list end*
%ADD10C,0.200000*%
%ADD11RoundRect,0.140000X-0.140000X-0.170000X0.140000X-0.170000X0.140000X0.170000X-0.140000X0.170000X0*%
%ADD12Outline4P,-0.175000X-0.325000X0.175000X-0.325000X0.175000X0.325000X-0.175000X0.325000X270.000000*%
%ADD13Outline4P,-0.175000X-0.800000X0.175000X-0.800000X0.175000X0.800000X-0.175000X0.800000X270.000000*%
%ADD14RoundRect,0.135000X0.185000X-0.135000X0.185000X0.135000X-0.185000X0.135000X-0.185000X-0.135000X0*%
%ADD15C,1.100000*%
%ADD16R,1.100000X2.500000*%
%ADD17O,1.900000X3.500000*%
%ADD18RoundRect,0.140000X-0.170000X0.140000X-0.170000X-0.140000X0.170000X-0.140000X0.170000X0.140000X0*%
%ADD19R,0.500000X0.300000*%
%ADD20RoundRect,0.135000X0.135000X0.185000X-0.135000X0.185000X-0.135000X-0.185000X0.135000X-0.185000X0*%
%ADD21RoundRect,0.150000X0.200000X-0.150000X0.200000X0.150000X-0.200000X0.150000X-0.200000X-0.150000X0*%
%ADD22R,1.000000X1.150000*%
%ADD23RoundRect,0.135000X-0.185000X0.135000X-0.185000X-0.135000X0.185000X-0.135000X0.185000X0.135000X0*%
%ADD24RoundRect,0.135000X-0.135000X-0.185000X0.135000X-0.185000X0.135000X0.185000X-0.135000X0.185000X0*%
%ADD25RoundRect,0.062500X0.337500X0.062500X-0.337500X0.062500X-0.337500X-0.062500X0.337500X-0.062500X0*%
%ADD26RoundRect,0.062500X0.062500X0.337500X-0.062500X0.337500X-0.062500X-0.337500X0.062500X-0.337500X0*%
%ADD27R,3.700000X3.700000*%
%ADD28RoundRect,0.147500X-0.147500X-0.172500X0.147500X-0.172500X0.147500X0.172500X-0.147500X0.172500X0*%
%ADD29RoundRect,0.140000X0.170000X-0.140000X0.170000X0.140000X-0.170000X0.140000X-0.170000X-0.140000X0*%
%ADD30C,0.500000*%
%ADD31R,0.500000X2.800000*%
%ADD32R,0.600000X2.600000*%
%ADD33C,2.000000*%
%ADD34C,1.600000*%
G04 APERTURE END LIST*
D10*
%TO.C,AE1*%
X154600000Y-30550000D02*
X155100000Y-30550000D01*
X155100000Y-30550000D02*
X155100000Y-30850000D01*
X155100000Y-30850000D02*
X154600000Y-30850000D01*
X154600000Y-30850000D02*
X154600000Y-30550000D01*
G36*
X154600000Y-30550000D02*
G01*
X155100000Y-30550000D01*
X155100000Y-30850000D01*
X154600000Y-30850000D01*
X154600000Y-30550000D01*
G37*
X154600000Y-31650000D02*
X155100000Y-31650000D01*
X155100000Y-31650000D02*
X155100000Y-31950000D01*
X155100000Y-31950000D02*
X154600000Y-31950000D01*
X154600000Y-31950000D02*
X154600000Y-31650000D01*
G36*
X154600000Y-31650000D02*
G01*
X155100000Y-31650000D01*
X155100000Y-31950000D01*
X154600000Y-31950000D01*
X154600000Y-31650000D01*
G37*
%TO.C,REF\u002A\u002A*%
G36*
X149758773Y-32022344D02*
G01*
X149786989Y-32026599D01*
X149812604Y-32034315D01*
X149836573Y-32045871D01*
X149859851Y-32061644D01*
X149883392Y-32082014D01*
X149901610Y-32100337D01*
X149916907Y-32118360D01*
X149928731Y-32135899D01*
X149937700Y-32153879D01*
X149944433Y-32173226D01*
X149944633Y-32173944D01*
X149946865Y-32185809D01*
X149948400Y-32201287D01*
X149949226Y-32218940D01*
X149949334Y-32237327D01*
X149948712Y-32255009D01*
X149947350Y-32270547D01*
X149945237Y-32282501D01*
X149938508Y-32302952D01*
X149926938Y-32325960D01*
X149912295Y-32345541D01*
X149898812Y-32360293D01*
X149893055Y-32343226D01*
X149884641Y-32321532D01*
X149873214Y-32299511D01*
X149859152Y-32279251D01*
X149841958Y-32260210D01*
X149821135Y-32241843D01*
X149796186Y-32223609D01*
X149766614Y-32204962D01*
X149750332Y-32195216D01*
X149729021Y-32182113D01*
X149711394Y-32170724D01*
X149696889Y-32160630D01*
X149684941Y-32151412D01*
X149674986Y-32142652D01*
X149666462Y-32133930D01*
X149658805Y-32124829D01*
X149647861Y-32109083D01*
X149637318Y-32087601D01*
X149630053Y-32063220D01*
X149629224Y-32059462D01*
X149627553Y-32050007D01*
X149627969Y-32043720D01*
X149631189Y-32039411D01*
X149637933Y-32035892D01*
X149648918Y-32031971D01*
X149650122Y-32031567D01*
X149667244Y-32026748D01*
X149685300Y-32023532D01*
X149705679Y-32021732D01*
X149729770Y-32021162D01*
X149758773Y-32022344D01*
G37*
G36*
X149752728Y-31329142D02*
G01*
X149764810Y-31329660D01*
X149783910Y-31331094D01*
X149799788Y-31333376D01*
X149813720Y-31336780D01*
X149826987Y-31341581D01*
X149840867Y-31348052D01*
X149863517Y-31361573D01*
X149886046Y-31379693D01*
X149908024Y-31402424D01*
X149920945Y-31418706D01*
X149935821Y-31443192D01*
X149945516Y-31468004D01*
X149946181Y-31470677D01*
X149947479Y-31479207D01*
X149948265Y-31490865D01*
X149948573Y-31506340D01*
X149948437Y-31526320D01*
X149948393Y-31529145D01*
X149948044Y-31545648D01*
X149947535Y-31558136D01*
X149946754Y-31567648D01*
X149945586Y-31575223D01*
X149943920Y-31581903D01*
X149941640Y-31588727D01*
X149941450Y-31589249D01*
X149936869Y-31600184D01*
X149931019Y-31611979D01*
X149924476Y-31623704D01*
X149917818Y-31634427D01*
X149911619Y-31643218D01*
X149906458Y-31649144D01*
X149902909Y-31651276D01*
X149901339Y-31649887D01*
X149897805Y-31645055D01*
X149893362Y-31637964D01*
X149892865Y-31637130D01*
X149885966Y-31627030D01*
X149877175Y-31616730D01*
X149866100Y-31605916D01*
X149852352Y-31594276D01*
X149835540Y-31581496D01*
X149815273Y-31567261D01*
X149791162Y-31551260D01*
X149762814Y-31533178D01*
X149746328Y-31522660D01*
X149720701Y-31505458D01*
X149698954Y-31489542D01*
X149680511Y-31474426D01*
X149664792Y-31459622D01*
X149651218Y-31444643D01*
X149639213Y-31429001D01*
X149637405Y-31426332D01*
X149631685Y-31416770D01*
X149625707Y-31405470D01*
X149620050Y-31393678D01*
X149615293Y-31382640D01*
X149612014Y-31373603D01*
X149610793Y-31367812D01*
X149611097Y-31366917D01*
X149614807Y-31363298D01*
X149621919Y-31358476D01*
X149631407Y-31353056D01*
X149642242Y-31347638D01*
X149653399Y-31342825D01*
X149667597Y-31337773D01*
X149685960Y-31332992D01*
X149705386Y-31330081D01*
X149727201Y-31328859D01*
X149752728Y-31329142D01*
G37*
G36*
X150080537Y-31741601D02*
G01*
X150089064Y-31742141D01*
X150095438Y-31743179D01*
X150100780Y-31744847D01*
X150106208Y-31747280D01*
X150113133Y-31751437D01*
X150123192Y-31759572D01*
X150132660Y-31769242D01*
X150140229Y-31779072D01*
X150144591Y-31787683D01*
X150144898Y-31788872D01*
X150145900Y-31796323D01*
X150146440Y-31806653D01*
X150146407Y-31818005D01*
X150146190Y-31823279D01*
X150145024Y-31835413D01*
X150142674Y-31845389D01*
X150138681Y-31855431D01*
X150136334Y-31860697D01*
X150132933Y-31870300D01*
X150132184Y-31878328D01*
X150134085Y-31886796D01*
X150138634Y-31897722D01*
X150139759Y-31900341D01*
X150144223Y-31915291D01*
X150146728Y-31932048D01*
X150147066Y-31948503D01*
X150145028Y-31962545D01*
X150143076Y-31967728D01*
X150136543Y-31978515D01*
X150127363Y-31989443D01*
X150116838Y-31999056D01*
X150106268Y-32005899D01*
X150101998Y-32007870D01*
X150096786Y-32009698D01*
X150090842Y-32010856D01*
X150083049Y-32011476D01*
X150072285Y-32011689D01*
X150057435Y-32011626D01*
X150034523Y-32010710D01*
X149998458Y-32006431D01*
X149963575Y-31998904D01*
X149930597Y-31988376D01*
X149900249Y-31975092D01*
X149873254Y-31959299D01*
X149850337Y-31941243D01*
X149845496Y-31936642D01*
X149834248Y-31924335D01*
X149826709Y-31912676D01*
X149822178Y-31900398D01*
X149819955Y-31886232D01*
X149819089Y-31873963D01*
X149819233Y-31863579D01*
X149821198Y-31856108D01*
X149825607Y-31850339D01*
X149833082Y-31845065D01*
X149844246Y-31839076D01*
X149860274Y-31829674D01*
X149877795Y-31816212D01*
X149892221Y-31801390D01*
X149902510Y-31786157D01*
X149903148Y-31784954D01*
X149906704Y-31779303D01*
X149911076Y-31774700D01*
X149917107Y-31770668D01*
X149925641Y-31766728D01*
X149937520Y-31762402D01*
X149953590Y-31757213D01*
X149971752Y-31751960D01*
X149999149Y-31746010D01*
X150026971Y-31742618D01*
X150057435Y-31741447D01*
X150068738Y-31741424D01*
X150080537Y-31741601D01*
G37*
G36*
X150022461Y-31097245D02*
G01*
X150048888Y-31099152D01*
X150072249Y-31102554D01*
X150093543Y-31107637D01*
X150113765Y-31114591D01*
X150133915Y-31123603D01*
X150145639Y-31129674D01*
X150159152Y-31137714D01*
X150171874Y-31146792D01*
X150185172Y-31157902D01*
X150200411Y-31172040D01*
X150210780Y-31182292D01*
X150223163Y-31195665D01*
X150234672Y-31209697D01*
X150246077Y-31225401D01*
X150258149Y-31243793D01*
X150271658Y-31265888D01*
X150279830Y-31279491D01*
X150291566Y-31298351D01*
X150301820Y-31313413D01*
X150311215Y-31325160D01*
X150320377Y-31334074D01*
X150329931Y-31340637D01*
X150340501Y-31345332D01*
X150352712Y-31348641D01*
X150367190Y-31351046D01*
X150384559Y-31353030D01*
X150387857Y-31353375D01*
X150402717Y-31355169D01*
X150416717Y-31357205D01*
X150428414Y-31359257D01*
X150436364Y-31361100D01*
X150440585Y-31362430D01*
X150464875Y-31372772D01*
X150489120Y-31387293D01*
X150512464Y-31405195D01*
X150534054Y-31425682D01*
X150553034Y-31447957D01*
X150568550Y-31471225D01*
X150579746Y-31494689D01*
X150583598Y-31506408D01*
X150588300Y-31525788D01*
X150591465Y-31545564D01*
X150592624Y-31563246D01*
X150592624Y-31578879D01*
X150611165Y-31598826D01*
X150628431Y-31618949D01*
X150644769Y-31642672D01*
X150656729Y-31666728D01*
X150664697Y-31691918D01*
X150669057Y-31719040D01*
X150670475Y-31745484D01*
X150669240Y-31776942D01*
X150664830Y-31806393D01*
X150657373Y-31833039D01*
X150646998Y-31856085D01*
X150642049Y-31866138D01*
X150639936Y-31875223D01*
X150641289Y-31883969D01*
X150646064Y-31894199D01*
X150649755Y-31901254D01*
X150659740Y-31926696D01*
X150666503Y-31955286D01*
X150669883Y-31986181D01*
X150669721Y-32018538D01*
X150668651Y-32032106D01*
X150664491Y-32059583D01*
X150657542Y-32083823D01*
X150647367Y-32105867D01*
X150633530Y-32126753D01*
X150615595Y-32147521D01*
X150592624Y-32171549D01*
X150592533Y-32188148D01*
X150591967Y-32200381D01*
X150589403Y-32220696D01*
X150585191Y-32240919D01*
X150579788Y-32258516D01*
X150577520Y-32264095D01*
X150566221Y-32285528D01*
X150551103Y-32307268D01*
X150533073Y-32328328D01*
X150513037Y-32347720D01*
X150491903Y-32364455D01*
X150470576Y-32377544D01*
X150461402Y-32382120D01*
X150448601Y-32387663D01*
X150435874Y-32391883D01*
X150421900Y-32395126D01*
X150405359Y-32397740D01*
X150384931Y-32400071D01*
X150375149Y-32401120D01*
X150357990Y-32403515D01*
X150343900Y-32406710D01*
X150332097Y-32411251D01*
X150321798Y-32417683D01*
X150312220Y-32426552D01*
X150302583Y-32438403D01*
X150292102Y-32453782D01*
X150279997Y-32473234D01*
X150267450Y-32493720D01*
X150256558Y-32511086D01*
X150247206Y-32525372D01*
X150238862Y-32537309D01*
X150230993Y-32547628D01*
X150223066Y-32557059D01*
X150214548Y-32566332D01*
X150204906Y-32576179D01*
X150188769Y-32591531D01*
X150167588Y-32608962D01*
X150146701Y-32622761D01*
X150125147Y-32633620D01*
X150120303Y-32635682D01*
X150101454Y-32642868D01*
X150083035Y-32648319D01*
X150063930Y-32652225D01*
X150043023Y-32654779D01*
X150019197Y-32656171D01*
X149991338Y-32656595D01*
X149988346Y-32656593D01*
X149970831Y-32656483D01*
X149957038Y-32656113D01*
X149945673Y-32655373D01*
X149935442Y-32654148D01*
X149925052Y-32652328D01*
X149913208Y-32649798D01*
X149909918Y-32649065D01*
X149899163Y-32646826D01*
X149889645Y-32645276D01*
X149880453Y-32644423D01*
X149870674Y-32644279D01*
X149859394Y-32644855D01*
X149845700Y-32646159D01*
X149828680Y-32648203D01*
X149807419Y-32650997D01*
X149805947Y-32651193D01*
X149773962Y-32654960D01*
X149738624Y-32658209D01*
X149699320Y-32660991D01*
X149655434Y-32663356D01*
X149618039Y-32665108D01*
X149619888Y-32656295D01*
X149623079Y-32644807D01*
X149632740Y-32624884D01*
X149647190Y-32606720D01*
X149666295Y-32590509D01*
X149667654Y-32589551D01*
X149677907Y-32582776D01*
X149689241Y-32576135D01*
X149702421Y-32569247D01*
X149718208Y-32561728D01*
X149737367Y-32553197D01*
X149760659Y-32543273D01*
X149768860Y-32539797D01*
X149784925Y-32532812D01*
X149800489Y-32525845D01*
X149814110Y-32519545D01*
X149824347Y-32514562D01*
X149830000Y-32511794D01*
X149853942Y-32502669D01*
X149876685Y-32498278D01*
X149897972Y-32498650D01*
X149917547Y-32503815D01*
X149940573Y-32511561D01*
X149970843Y-32517252D01*
X150001322Y-32518224D01*
X150031325Y-32514517D01*
X150060164Y-32506176D01*
X150087152Y-32493243D01*
X150093468Y-32489237D01*
X150102723Y-32481985D01*
X150111571Y-32472986D01*
X150120645Y-32461487D01*
X150130577Y-32446737D01*
X150142000Y-32427983D01*
X150158958Y-32400194D01*
X150179898Y-32368874D01*
X150200080Y-32342240D01*
X150219693Y-32320064D01*
X150238925Y-32302117D01*
X150257968Y-32288171D01*
X150263945Y-32284558D01*
X150277197Y-32277852D01*
X150291398Y-32272664D01*
X150307610Y-32268709D01*
X150326894Y-32265700D01*
X150350311Y-32263354D01*
X150357751Y-32262678D01*
X150377461Y-32259935D01*
X150393830Y-32255846D01*
X150408216Y-32250006D01*
X150421977Y-32242011D01*
X150426774Y-32238512D01*
X150434252Y-32231830D01*
X150439273Y-32225780D01*
X150442140Y-32219589D01*
X150444002Y-32210010D01*
X150443168Y-32201264D01*
X150439620Y-32195150D01*
X150438133Y-32194320D01*
X150431561Y-32192221D01*
X150420814Y-32189717D01*
X150406566Y-32186957D01*
X150389486Y-32184088D01*
X150377384Y-32182104D01*
X150362694Y-32179477D01*
X150349997Y-32176966D01*
X150340346Y-32174781D01*
X150334795Y-32173134D01*
X150328474Y-32169636D01*
X150319054Y-32162430D01*
X150309626Y-32153537D01*
X150301688Y-32144402D01*
X150296740Y-32136467D01*
X150295705Y-32133463D01*
X150293956Y-32123729D01*
X150293206Y-32111823D01*
X150293452Y-32099566D01*
X150294686Y-32088782D01*
X150296903Y-32081292D01*
X150297051Y-32081016D01*
X150301063Y-32075475D01*
X150307607Y-32068163D01*
X150315343Y-32060587D01*
X150330006Y-32047186D01*
X150358037Y-32047186D01*
X150366223Y-32047349D01*
X150386288Y-32048667D01*
X150410219Y-32051242D01*
X150437239Y-32054999D01*
X150438636Y-32055211D01*
X150454874Y-32057615D01*
X150469791Y-32059701D01*
X150482432Y-32061346D01*
X150491839Y-32062424D01*
X150497059Y-32062812D01*
X150505334Y-32060698D01*
X150513933Y-32053952D01*
X150521676Y-32043163D01*
X150528136Y-32028938D01*
X150532885Y-32011887D01*
X150533439Y-32009096D01*
X150534562Y-32001322D01*
X150534528Y-31994219D01*
X150533216Y-31985903D01*
X150530506Y-31974489D01*
X150530236Y-31973416D01*
X150528284Y-31965266D01*
X150526554Y-31958710D01*
X150524504Y-31953576D01*
X150521590Y-31949692D01*
X150517269Y-31946885D01*
X150510999Y-31944982D01*
X150502236Y-31943812D01*
X150490438Y-31943200D01*
X150475062Y-31942976D01*
X150455564Y-31942966D01*
X150431403Y-31942998D01*
X150420347Y-31942975D01*
X150399806Y-31942820D01*
X150381035Y-31942533D01*
X150364721Y-31942134D01*
X150351552Y-31941641D01*
X150342215Y-31941072D01*
X150337400Y-31940447D01*
X150332441Y-31938616D01*
X150321020Y-31931623D01*
X150309916Y-31921498D01*
X150300567Y-31909452D01*
X150299316Y-31907444D01*
X150296026Y-31901271D01*
X150294157Y-31895130D01*
X150293319Y-31887275D01*
X150293126Y-31875963D01*
X150293378Y-31866236D01*
X150294630Y-31854592D01*
X150296828Y-31847174D01*
X150301333Y-31840601D01*
X150309068Y-31832108D01*
X150318167Y-31823809D01*
X150327149Y-31817039D01*
X150334533Y-31813135D01*
X150336790Y-31812626D01*
X150345180Y-31811753D01*
X150358719Y-31811072D01*
X150377367Y-31810584D01*
X150401086Y-31810290D01*
X150429838Y-31810192D01*
X150430957Y-31810192D01*
X150455107Y-31810213D01*
X150474605Y-31810180D01*
X150489982Y-31809962D01*
X150501773Y-31809425D01*
X150510511Y-31808437D01*
X150516729Y-31806866D01*
X150520959Y-31804578D01*
X150523734Y-31801441D01*
X150525589Y-31797323D01*
X150527055Y-31792091D01*
X150528666Y-31785612D01*
X150528881Y-31784786D01*
X150532456Y-31769723D01*
X150534269Y-31757960D01*
X150534337Y-31747975D01*
X150532677Y-31738246D01*
X150529306Y-31727248D01*
X150529235Y-31727044D01*
X150525000Y-31716376D01*
X150520209Y-31706450D01*
X150515884Y-31699392D01*
X150513718Y-31696685D01*
X150510812Y-31693891D01*
X150507259Y-31691969D01*
X150502417Y-31690909D01*
X150495642Y-31690702D01*
X150486292Y-31691337D01*
X150473725Y-31692806D01*
X150457296Y-31695099D01*
X150436364Y-31698206D01*
X150413127Y-31701429D01*
X150387903Y-31704201D01*
X150366400Y-31705689D01*
X150348947Y-31705879D01*
X150335872Y-31704761D01*
X150327504Y-31702321D01*
X150323015Y-31699431D01*
X150314896Y-31692544D01*
X150306711Y-31684118D01*
X150299895Y-31675674D01*
X150295882Y-31668738D01*
X150295214Y-31666581D01*
X150293759Y-31657261D01*
X150293214Y-31645445D01*
X150293548Y-31633044D01*
X150294732Y-31621970D01*
X150296735Y-31614133D01*
X150298067Y-31611494D01*
X150304522Y-31602591D01*
X150313438Y-31593351D01*
X150323200Y-31585328D01*
X150332191Y-31580073D01*
X150336105Y-31578848D01*
X150344930Y-31576766D01*
X150357037Y-31574310D01*
X150371373Y-31571692D01*
X150386882Y-31569123D01*
X150392729Y-31568195D01*
X150410102Y-31565236D01*
X150423099Y-31562508D01*
X150432342Y-31559718D01*
X150438451Y-31556574D01*
X150442046Y-31552782D01*
X150443748Y-31548050D01*
X150444177Y-31542086D01*
X150442353Y-31533169D01*
X150435925Y-31522681D01*
X150425448Y-31512681D01*
X150411531Y-31503734D01*
X150394783Y-31496402D01*
X150388033Y-31494678D01*
X150377325Y-31492795D01*
X150364347Y-31491051D01*
X150350595Y-31489673D01*
X150337101Y-31488408D01*
X150312572Y-31484947D01*
X150291702Y-31479998D01*
X150273493Y-31473142D01*
X150256952Y-31463961D01*
X150241081Y-31452039D01*
X150224885Y-31436957D01*
X150212076Y-31423577D01*
X150198866Y-31408442D01*
X150186171Y-31392236D01*
X150173317Y-31374044D01*
X150159627Y-31352952D01*
X150144427Y-31328047D01*
X150137588Y-31316747D01*
X150125837Y-31298480D01*
X150115150Y-31283929D01*
X150104802Y-31272428D01*
X150094063Y-31263308D01*
X150082206Y-31255905D01*
X150068503Y-31249550D01*
X150052226Y-31243577D01*
X150042893Y-31240695D01*
X150030927Y-31237999D01*
X150017626Y-31236288D01*
X150001059Y-31235247D01*
X149980887Y-31235072D01*
X149959622Y-31237031D01*
X149939220Y-31241682D01*
X149917547Y-31249389D01*
X149913901Y-31250811D01*
X149905807Y-31253355D01*
X149897597Y-31254765D01*
X149888277Y-31255035D01*
X149876857Y-31254160D01*
X149862344Y-31252134D01*
X149843745Y-31248951D01*
X149829234Y-31246463D01*
X149793597Y-31241142D01*
X149755236Y-31236371D01*
X149715866Y-31232355D01*
X149677203Y-31229294D01*
X149665633Y-31228491D01*
X149652447Y-31227487D01*
X149641853Y-31226578D01*
X149634718Y-31225841D01*
X149631913Y-31225350D01*
X149631905Y-31224534D01*
X149634197Y-31220363D01*
X149639109Y-31213493D01*
X149646026Y-31204690D01*
X149654335Y-31194720D01*
X149663424Y-31184352D01*
X149672679Y-31174352D01*
X149682526Y-31164531D01*
X149698719Y-31149658D01*
X149716792Y-31134183D01*
X149735283Y-31119349D01*
X149752728Y-31106398D01*
X149758963Y-31102315D01*
X149766876Y-31098710D01*
X149773563Y-31098151D01*
X149776183Y-31098475D01*
X149784001Y-31099467D01*
X149795252Y-31100911D01*
X149808859Y-31102667D01*
X149823747Y-31104597D01*
X149832763Y-31105742D01*
X149850326Y-31107687D01*
X149864729Y-31108664D01*
X149877339Y-31108638D01*
X149889526Y-31107575D01*
X149902658Y-31105440D01*
X149918103Y-31102197D01*
X149923598Y-31101025D01*
X149933874Y-31099215D01*
X149944555Y-31097963D01*
X149956840Y-31097179D01*
X149971930Y-31096769D01*
X149991024Y-31096644D01*
X149991972Y-31096644D01*
X150022461Y-31097245D01*
G37*
%TD*%
D11*
%TO.C,C1*%
X141720000Y-25850000D03*
X142680000Y-25850000D03*
%TD*%
D12*
%TO.C,AE1*%
X154375000Y-36125000D03*
D13*
X154850000Y-33175000D03*
D12*
X155325000Y-36125000D03*
%TD*%
D14*
%TO.C,R9*%
X146500000Y-42860000D03*
X146500000Y-41840000D03*
%TD*%
D15*
%TO.C,J1*%
X146200000Y-23100000D03*
X150800000Y-23100000D03*
D16*
X152000000Y-25850000D03*
X149500000Y-25850000D03*
X147500000Y-25850000D03*
X145000000Y-25850000D03*
D17*
X142800000Y-23100000D03*
X154200000Y-23100000D03*
%TD*%
D18*
%TO.C,C14*%
X154400000Y-38020000D03*
X154400000Y-38980000D03*
%TD*%
%TO.C,C7*%
X143350000Y-31420000D03*
X143350000Y-32380000D03*
%TD*%
%TO.C,C12*%
X151600000Y-38020000D03*
X151600000Y-38980000D03*
%TD*%
D19*
%TO.C,D7*%
X149000000Y-28600000D03*
X149000000Y-27900000D03*
%TD*%
D20*
%TO.C,R23*%
X150710000Y-44300000D03*
X149690000Y-44300000D03*
%TD*%
%TO.C,R22*%
X150710000Y-45300000D03*
X149690000Y-45300000D03*
%TD*%
D21*
%TO.C,D8*%
X152550000Y-43950000D03*
X152550000Y-45350000D03*
%TD*%
D19*
%TO.C,D6*%
X148000000Y-28600000D03*
X148000000Y-27900000D03*
%TD*%
D22*
%TO.C,Y1*%
X144650000Y-32775000D03*
X144650000Y-31025000D03*
X146050000Y-31025000D03*
X146050000Y-32775000D03*
%TD*%
D23*
%TO.C,R29*%
X141800000Y-27690000D03*
X141800000Y-28710000D03*
%TD*%
D24*
%TO.C,R20*%
X141690000Y-45300000D03*
X142710000Y-45300000D03*
%TD*%
%TO.C,R21*%
X141690000Y-44300000D03*
X142710000Y-44300000D03*
%TD*%
D18*
%TO.C,C21*%
X142800000Y-27720000D03*
X142800000Y-28680000D03*
%TD*%
D25*
%TO.C,U4*%
X147125000Y-35875000D03*
X147125000Y-36375000D03*
X147125000Y-36875000D03*
X147125000Y-37375000D03*
X147125000Y-37875000D03*
X147125000Y-38375000D03*
X147125000Y-38875000D03*
X147125000Y-39375000D03*
D26*
X146425000Y-40075000D03*
X145925000Y-40075000D03*
X145425000Y-40075000D03*
X144925000Y-40075000D03*
X144425000Y-40075000D03*
X143925000Y-40075000D03*
X143425000Y-40075000D03*
X142925000Y-40075000D03*
D25*
X142225000Y-39375000D03*
X142225000Y-38875000D03*
X142225000Y-38375000D03*
X142225000Y-37875000D03*
X142225000Y-37375000D03*
X142225000Y-36875000D03*
X142225000Y-36375000D03*
X142225000Y-35875000D03*
D26*
X142925000Y-35175000D03*
X143425000Y-35175000D03*
X143925000Y-35175000D03*
X144425000Y-35175000D03*
X144925000Y-35175000D03*
X145425000Y-35175000D03*
X145925000Y-35175000D03*
X146425000Y-35175000D03*
D27*
X144675000Y-37625000D03*
%TD*%
D28*
%TO.C,L3*%
X152515000Y-38050000D03*
X153485000Y-38050000D03*
%TD*%
D29*
%TO.C,C8*%
X147350000Y-32380000D03*
X147350000Y-31420000D03*
%TD*%
D20*
%TO.C,R27*%
X142710000Y-26800000D03*
X141690000Y-26800000D03*
%TD*%
D30*
%TO.C,KiKit_MB_1_3*%
X140900000Y-29233334D03*
%TD*%
%TO.C,KiKit_MB_1_4*%
X140900000Y-28233334D03*
%TD*%
%TO.C,KiKit_MB_1_1*%
X140900000Y-31233334D03*
%TD*%
D31*
%TO.C,J2*%
X144500000Y-47550000D03*
X145500000Y-47550000D03*
X146500000Y-47550000D03*
X147500000Y-47550000D03*
X148500000Y-47550000D03*
X149500000Y-47550000D03*
X150500000Y-47550000D03*
X151500000Y-47550000D03*
X152500000Y-47550000D03*
D32*
X141725000Y-47650000D03*
X155275000Y-47650000D03*
%TD*%
D30*
%TO.C,KiKit_MB_3_2*%
X156100000Y-29233334D03*
%TD*%
%TO.C,KiKit_MB_3_3*%
X156100000Y-30233334D03*
%TD*%
%TO.C,KiKit_MB_3_4*%
X156100000Y-31233334D03*
%TD*%
%TO.C,KiKit_MB_1_2*%
X140900000Y-30233334D03*
%TD*%
D33*
%TO.C,KiKit_TO_3*%
X136599000Y-46700000D03*
%TD*%
D30*
%TO.C,KiKit_MB_4_4*%
X156100000Y-40966666D03*
%TD*%
%TO.C,KiKit_MB_4_1*%
X156100000Y-37966666D03*
%TD*%
D33*
%TO.C,KiKit_TO_1*%
X136599000Y-22500000D03*
%TD*%
D34*
%TO.C,C3*%
X146000000Y-28900000D03*
X151000000Y-28900000D03*
%TD*%
D30*
%TO.C,KiKit_MB_2_2*%
X140900000Y-39966666D03*
%TD*%
D33*
%TO.C,KiKit_TO_4*%
X160401000Y-46700000D03*
%TD*%
D30*
%TO.C,KiKit_MB_2_4*%
X140900000Y-37966666D03*
%TD*%
%TO.C,KiKit_MB_4_2*%
X156100000Y-38966666D03*
%TD*%
%TO.C,KiKit_MB_4_3*%
X156100000Y-39966666D03*
%TD*%
%TO.C,KiKit_MB_2_3*%
X140900000Y-38966666D03*
%TD*%
%TO.C,KiKit_MB_2_1*%
X140900000Y-40966666D03*
%TD*%
%TO.C,KiKit_MB_3_1*%
X156100000Y-28233334D03*
%TD*%
D33*
%TO.C,KiKit_TO_2*%
X160401000Y-22500000D03*
%TD*%
M02*
