%TF.GenerationSoftware,KiCad,Pcbnew,(6.0.8)*%
%TF.CreationDate,2022-10-21T01:17:33+13:00*%
%TF.ProjectId,Seedling,53656564-6c69-46e6-972e-6b696361645f,rev?*%
%TF.SameCoordinates,Original*%
%TF.FileFunction,Copper,L1,Top*%
%TF.FilePolarity,Positive*%
%FSLAX46Y46*%
G04 Gerber Fmt 4.6, Leading zero omitted, Abs format (unit mm)*
G04 Created by KiCad (PCBNEW (6.0.8)) date 2022-10-21 01:17:33*
%MOMM*%
%LPD*%
G01*
G04 APERTURE LIST*
G04 Aperture macros list*
%AMRoundRect*
0 Rectangle with rounded corners*
0 $1 Rounding radius*
0 $2 $3 $4 $5 $6 $7 $8 $9 X,Y pos of 4 corners*
0 Add a 4 corners polygon primitive as box body*
4,1,4,$2,$3,$4,$5,$6,$7,$8,$9,$2,$3,0*
0 Add four circle primitives for the rounded corners*
1,1,$1+$1,$2,$3*
1,1,$1+$1,$4,$5*
1,1,$1+$1,$6,$7*
1,1,$1+$1,$8,$9*
0 Add four rect primitives between the rounded corners*
20,1,$1+$1,$2,$3,$4,$5,0*
20,1,$1+$1,$4,$5,$6,$7,0*
20,1,$1+$1,$6,$7,$8,$9,0*
20,1,$1+$1,$8,$9,$2,$3,0*%
%AMFreePoly0*
4,1,21,1.792426,0.604926,1.810000,0.562500,1.810000,0.012500,1.792426,-0.029926,1.750000,-0.047500,1.460000,-0.047500,1.460000,-0.687500,1.442426,-0.729926,1.400000,-0.747499,-1.400000,-0.747500,-1.442426,-0.729926,-1.460000,-0.687500,-1.460000,-0.047500,-1.750000,-0.047500,-1.792426,-0.029926,-1.810000,0.012500,-1.810000,0.562501,-1.792426,0.604926,-1.750000,0.622500,1.750000,0.622500,
1.792426,0.604926,1.792426,0.604926,$1*%
G04 Aperture macros list end*
%TA.AperFunction,SMDPad,CuDef*%
%ADD10RoundRect,0.250000X0.450000X-0.262500X0.450000X0.262500X-0.450000X0.262500X-0.450000X-0.262500X0*%
%TD*%
%TA.AperFunction,SMDPad,CuDef*%
%ADD11RoundRect,0.250000X0.325000X0.650000X-0.325000X0.650000X-0.325000X-0.650000X0.325000X-0.650000X0*%
%TD*%
%TA.AperFunction,SMDPad,CuDef*%
%ADD12FreePoly0,70.000000*%
%TD*%
%TA.AperFunction,SMDPad,CuDef*%
%ADD13FreePoly0,250.000000*%
%TD*%
%TA.AperFunction,SMDPad,CuDef*%
%ADD14FreePoly0,225.000000*%
%TD*%
%TA.AperFunction,SMDPad,CuDef*%
%ADD15FreePoly0,45.000000*%
%TD*%
%TA.AperFunction,SMDPad,CuDef*%
%ADD16FreePoly0,155.000000*%
%TD*%
%TA.AperFunction,SMDPad,CuDef*%
%ADD17FreePoly0,335.000000*%
%TD*%
%TA.AperFunction,SMDPad,CuDef*%
%ADD18FreePoly0,270.000000*%
%TD*%
%TA.AperFunction,SMDPad,CuDef*%
%ADD19FreePoly0,90.000000*%
%TD*%
%TA.AperFunction,SMDPad,CuDef*%
%ADD20RoundRect,0.055000X-0.495000X-0.845000X0.495000X-0.845000X0.495000X0.845000X-0.495000X0.845000X0*%
%TD*%
%TA.AperFunction,SMDPad,CuDef*%
%ADD21RoundRect,0.090000X-1.010000X-0.810000X1.010000X-0.810000X1.010000X0.810000X-1.010000X0.810000X0*%
%TD*%
%TA.AperFunction,SMDPad,CuDef*%
%ADD22FreePoly0,245.000000*%
%TD*%
%TA.AperFunction,SMDPad,CuDef*%
%ADD23FreePoly0,65.000000*%
%TD*%
%TA.AperFunction,SMDPad,CuDef*%
%ADD24R,8.200000X2.600000*%
%TD*%
%TA.AperFunction,SMDPad,CuDef*%
%ADD25FreePoly0,110.000000*%
%TD*%
%TA.AperFunction,SMDPad,CuDef*%
%ADD26FreePoly0,290.000000*%
%TD*%
%TA.AperFunction,SMDPad,CuDef*%
%ADD27FreePoly0,205.000000*%
%TD*%
%TA.AperFunction,SMDPad,CuDef*%
%ADD28FreePoly0,25.000000*%
%TD*%
%TA.AperFunction,SMDPad,CuDef*%
%ADD29RoundRect,0.250000X0.625000X-0.312500X0.625000X0.312500X-0.625000X0.312500X-0.625000X-0.312500X0*%
%TD*%
%TA.AperFunction,SMDPad,CuDef*%
%ADD30FreePoly0,295.000000*%
%TD*%
%TA.AperFunction,SMDPad,CuDef*%
%ADD31FreePoly0,115.000000*%
%TD*%
%TA.AperFunction,SMDPad,CuDef*%
%ADD32RoundRect,0.140000X-0.170000X0.140000X-0.170000X-0.140000X0.170000X-0.140000X0.170000X0.140000X0*%
%TD*%
%TA.AperFunction,SMDPad,CuDef*%
%ADD33RoundRect,0.090000X1.010000X0.810000X-1.010000X0.810000X-1.010000X-0.810000X1.010000X-0.810000X0*%
%TD*%
%TA.AperFunction,SMDPad,CuDef*%
%ADD34RoundRect,0.055000X0.495000X0.845000X-0.495000X0.845000X-0.495000X-0.845000X0.495000X-0.845000X0*%
%TD*%
%TA.AperFunction,SMDPad,CuDef*%
%ADD35RoundRect,0.135000X-0.135000X-0.185000X0.135000X-0.185000X0.135000X0.185000X-0.135000X0.185000X0*%
%TD*%
%TA.AperFunction,SMDPad,CuDef*%
%ADD36FreePoly0,180.000000*%
%TD*%
%TA.AperFunction,SMDPad,CuDef*%
%ADD37FreePoly0,0.000000*%
%TD*%
%TA.AperFunction,SMDPad,CuDef*%
%ADD38FreePoly0,340.000000*%
%TD*%
%TA.AperFunction,SMDPad,CuDef*%
%ADD39FreePoly0,160.000000*%
%TD*%
%TA.AperFunction,SMDPad,CuDef*%
%ADD40RoundRect,0.090000X-0.810000X1.010000X-0.810000X-1.010000X0.810000X-1.010000X0.810000X1.010000X0*%
%TD*%
%TA.AperFunction,SMDPad,CuDef*%
%ADD41RoundRect,0.055000X-0.845000X0.495000X-0.845000X-0.495000X0.845000X-0.495000X0.845000X0.495000X0*%
%TD*%
%TA.AperFunction,SMDPad,CuDef*%
%ADD42FreePoly0,315.000000*%
%TD*%
%TA.AperFunction,SMDPad,CuDef*%
%ADD43FreePoly0,135.000000*%
%TD*%
%TA.AperFunction,SMDPad,CuDef*%
%ADD44FreePoly0,200.000000*%
%TD*%
%TA.AperFunction,SMDPad,CuDef*%
%ADD45FreePoly0,20.000000*%
%TD*%
%TA.AperFunction,SMDPad,CuDef*%
%ADD46R,1.525000X0.650000*%
%TD*%
%TA.AperFunction,SMDPad,CuDef*%
%ADD47R,2.710000X3.402000*%
%TD*%
%TA.AperFunction,SMDPad,CuDef*%
%ADD48RoundRect,0.135000X-0.185000X0.135000X-0.185000X-0.135000X0.185000X-0.135000X0.185000X0.135000X0*%
%TD*%
%TA.AperFunction,SMDPad,CuDef*%
%ADD49RoundRect,0.250000X-0.450000X0.262500X-0.450000X-0.262500X0.450000X-0.262500X0.450000X0.262500X0*%
%TD*%
%TA.AperFunction,SMDPad,CuDef*%
%ADD50R,1.800000X2.500000*%
%TD*%
%TA.AperFunction,SMDPad,CuDef*%
%ADD51R,0.700000X0.700000*%
%TD*%
%TA.AperFunction,SMDPad,CuDef*%
%ADD52R,4.350000X4.510000*%
%TD*%
%TA.AperFunction,Conductor*%
%ADD53C,0.400000*%
%TD*%
%TA.AperFunction,Conductor*%
%ADD54C,0.250000*%
%TD*%
%TA.AperFunction,Conductor*%
%ADD55C,0.700000*%
%TD*%
%TA.AperFunction,Conductor*%
%ADD56C,1.500000*%
%TD*%
G04 APERTURE END LIST*
D10*
%TO.P,R3,1*%
%TO.N,Net-(J3-Pad1)*%
X2400000Y6287500D03*
%TO.P,R3,2*%
%TO.N,DIM*%
X2400000Y8112500D03*
%TD*%
D11*
%TO.P,C1,1*%
%TO.N,+12V*%
X-2125000Y2400000D03*
%TO.P,C1,2*%
%TO.N,GND*%
X-5075000Y2400000D03*
%TD*%
D12*
%TO.P,D3,1,K*%
%TO.N,Net-(D2-Pad2)*%
X7197743Y-21441451D03*
D13*
%TO.P,D3,2,A*%
%TO.N,Net-(D3-Pad2)*%
X8889189Y-22057087D03*
%TD*%
D14*
%TO.P,D22,1,K*%
%TO.N,LED_OUT*%
X-9970205Y9970205D03*
D15*
%TO.P,D22,2,A*%
%TO.N,Net-(D22-Pad2)*%
X-11242997Y11242997D03*
%TD*%
D16*
%TO.P,D8,1,K*%
%TO.N,Net-(D7-Pad2)*%
X28110911Y-3082522D03*
D17*
%TO.P,D8,2,A*%
%TO.N,Net-(D8-Pad2)*%
X28871623Y-1451168D03*
%TD*%
D18*
%TO.P,D17,1,K*%
%TO.N,Net-(D16-Pad2)*%
X-6699927Y32082478D03*
D19*
%TO.P,D17,2,A*%
%TO.N,LED_IN*%
X-8499927Y32082478D03*
%TD*%
D20*
%TO.P,J2,1,Pin_1*%
%TO.N,GND*%
X-10050000Y0D03*
D21*
X-4500000Y0D03*
%TD*%
D22*
%TO.P,D16,1,K*%
%TO.N,Net-(D15-Pad2)*%
X3082522Y28110911D03*
D23*
%TO.P,D16,2,A*%
%TO.N,Net-(D16-Pad2)*%
X1451168Y28871623D03*
%TD*%
D14*
%TO.P,D13,1,K*%
%TO.N,Net-(D12-Pad2)*%
X17948174Y27423302D03*
D15*
%TO.P,D13,2,A*%
%TO.N,LED_IN*%
X16675382Y28696094D03*
%TD*%
D24*
%TO.P,L1,1,1*%
%TO.N,LED_OUT*%
X0Y-9200000D03*
%TO.P,L1,2,2*%
%TO.N,Net-(D1-Pad2)*%
X0Y-3600000D03*
%TD*%
D25*
%TO.P,D4,1,K*%
%TO.N,Net-(D3-Pad2)*%
X17697743Y-22057087D03*
D26*
%TO.P,D4,2,A*%
%TO.N,Net-(D4-Pad2)*%
X19389189Y-21441451D03*
%TD*%
D13*
%TO.P,D19,1,K*%
%TO.N,Net-(D18-Pad2)*%
X-7197743Y21441451D03*
D12*
%TO.P,D19,2,A*%
%TO.N,Net-(D19-Pad2)*%
X-8889189Y22057087D03*
%TD*%
D27*
%TO.P,D15,1,K*%
%TO.N,Net-(D14-Pad2)*%
X10071822Y20250969D03*
D28*
%TO.P,D15,2,A*%
%TO.N,Net-(D15-Pad2)*%
X9311110Y21882323D03*
%TD*%
D29*
%TO.P,R2,1*%
%TO.N,+12V*%
X4600000Y2337500D03*
%TO.P,R2,2*%
%TO.N,LED_IN*%
X4600000Y5262500D03*
%TD*%
D18*
%TO.P,D26,1,K*%
%TO.N,LED_OUT*%
X-14100000Y0D03*
D19*
%TO.P,D26,2,A*%
%TO.N,Net-(D26-Pad2)*%
X-15900000Y0D03*
%TD*%
%TO.P,D33,1,K*%
%TO.N,Net-(D32-Pad2)*%
X6699927Y-32082478D03*
D18*
%TO.P,D33,2,A*%
%TO.N,LED_IN*%
X8499927Y-32082478D03*
%TD*%
D30*
%TO.P,D23,1,K*%
%TO.N,Net-(D22-Pad2)*%
X-20250969Y10071822D03*
D31*
%TO.P,D23,2,A*%
%TO.N,Net-(D23-Pad2)*%
X-21882323Y9311110D03*
%TD*%
D32*
%TO.P,C2,1*%
%TO.N,DIM*%
X-9900000Y6980000D03*
%TO.P,C2,2*%
%TO.N,GND*%
X-9900000Y6020000D03*
%TD*%
D33*
%TO.P,J1,1,Pin_1*%
%TO.N,+12V*%
X4500000Y0D03*
D34*
X10050000Y0D03*
%TD*%
D26*
%TO.P,D20,1,K*%
%TO.N,Net-(D19-Pad2)*%
X-17697743Y22057087D03*
D25*
%TO.P,D20,2,A*%
%TO.N,Net-(D20-Pad2)*%
X-19389189Y21441451D03*
%TD*%
D35*
%TO.P,R6,1*%
%TO.N,Net-(Q1-Pad2)*%
X-3510000Y-1500000D03*
%TO.P,R6,2*%
%TO.N,Net-(U1-Pad5)*%
X-2490000Y-1500000D03*
%TD*%
D36*
%TO.P,D9,1,K*%
%TO.N,Net-(D8-Pad2)*%
X32082478Y6699927D03*
D37*
%TO.P,D9,2,A*%
%TO.N,LED_IN*%
X32082478Y8499927D03*
%TD*%
D38*
%TO.P,D27,1,K*%
%TO.N,Net-(D26-Pad2)*%
X-21441451Y-7197743D03*
D39*
%TO.P,D27,2,A*%
%TO.N,Net-(D27-Pad2)*%
X-22057087Y-8889189D03*
%TD*%
D40*
%TO.P,J3,1,Pin_1*%
%TO.N,Net-(J3-Pad1)*%
X0Y4500000D03*
D41*
X0Y10050000D03*
%TD*%
D42*
%TO.P,D21,1,K*%
%TO.N,Net-(D20-Pad2)*%
X-27423302Y17948174D03*
D43*
%TO.P,D21,2,A*%
%TO.N,LED_IN*%
X-28696094Y16675382D03*
%TD*%
D31*
%TO.P,D7,1,K*%
%TO.N,Net-(D6-Pad2)*%
X20250969Y-10071822D03*
D30*
%TO.P,D7,2,A*%
%TO.N,Net-(D7-Pad2)*%
X21882323Y-9311110D03*
%TD*%
D44*
%TO.P,D12,1,K*%
%TO.N,Net-(D11-Pad2)*%
X22057087Y17697743D03*
D45*
%TO.P,D12,2,A*%
%TO.N,Net-(D12-Pad2)*%
X21441451Y19389189D03*
%TD*%
%TO.P,D28,1,K*%
%TO.N,Net-(D27-Pad2)*%
X-22057087Y-17697743D03*
D44*
%TO.P,D28,2,A*%
%TO.N,Net-(D28-Pad2)*%
X-21441451Y-19389189D03*
%TD*%
D46*
%TO.P,U1,1,OSP*%
%TO.N,Net-(U1-Pad1)*%
X-8212000Y8305000D03*
%TO.P,U1,2,DIM*%
%TO.N,DIM*%
X-8212000Y7035000D03*
%TO.P,U1,3,NTC*%
%TO.N,unconnected-(U1-Pad3)*%
X-8212000Y5765000D03*
%TO.P,U1,4,GND*%
%TO.N,GND*%
X-8212000Y4495000D03*
%TO.P,U1,5,DRV*%
%TO.N,Net-(U1-Pad5)*%
X-2788000Y4495000D03*
%TO.P,U1,6,VIN*%
%TO.N,+12V*%
X-2788000Y5765000D03*
%TO.P,U1,7,FAULT*%
%TO.N,unconnected-(U1-Pad7)*%
X-2788000Y7035000D03*
%TO.P,U1,8,CSN*%
%TO.N,LED_IN*%
X-2788000Y8305000D03*
D47*
%TO.P,U1,9,EP*%
%TO.N,GND*%
X-5500000Y6400000D03*
%TD*%
D28*
%TO.P,D31,1,K*%
%TO.N,Net-(D30-Pad2)*%
X-10071822Y-20250969D03*
D27*
%TO.P,D31,2,A*%
%TO.N,Net-(D31-Pad2)*%
X-9311110Y-21882323D03*
%TD*%
D37*
%TO.P,D25,1,K*%
%TO.N,Net-(D24-Pad2)*%
X-32082478Y-6699927D03*
D36*
%TO.P,D25,2,A*%
%TO.N,LED_IN*%
X-32082478Y-8499927D03*
%TD*%
D19*
%TO.P,D10,1,K*%
%TO.N,LED_OUT*%
X14100000Y0D03*
D18*
%TO.P,D10,2,A*%
%TO.N,Net-(D10-Pad2)*%
X15900000Y0D03*
%TD*%
D42*
%TO.P,D30,1,K*%
%TO.N,LED_OUT*%
X-9970205Y-9970205D03*
D43*
%TO.P,D30,2,A*%
%TO.N,Net-(D30-Pad2)*%
X-11242997Y-11242997D03*
%TD*%
D36*
%TO.P,D18,1,K*%
%TO.N,LED_OUT*%
X0Y14100000D03*
D37*
%TO.P,D18,2,A*%
%TO.N,Net-(D18-Pad2)*%
X0Y15900000D03*
%TD*%
D23*
%TO.P,D32,1,K*%
%TO.N,Net-(D31-Pad2)*%
X-3082522Y-28110911D03*
D22*
%TO.P,D32,2,A*%
%TO.N,Net-(D32-Pad2)*%
X-1451168Y-28871623D03*
%TD*%
D15*
%TO.P,D29,1,K*%
%TO.N,Net-(D28-Pad2)*%
X-17948174Y-27423302D03*
D14*
%TO.P,D29,2,A*%
%TO.N,LED_IN*%
X-16675382Y-28696094D03*
%TD*%
D43*
%TO.P,D5,1,K*%
%TO.N,Net-(D4-Pad2)*%
X27423302Y-17948174D03*
D42*
%TO.P,D5,2,A*%
%TO.N,LED_IN*%
X28696094Y-16675382D03*
%TD*%
D17*
%TO.P,D24,1,K*%
%TO.N,Net-(D23-Pad2)*%
X-28110911Y3082522D03*
D16*
%TO.P,D24,2,A*%
%TO.N,Net-(D24-Pad2)*%
X-28871623Y1451168D03*
%TD*%
D39*
%TO.P,D11,1,K*%
%TO.N,Net-(D10-Pad2)*%
X21441451Y7197743D03*
D38*
%TO.P,D11,2,A*%
%TO.N,Net-(D11-Pad2)*%
X22057087Y8889189D03*
%TD*%
D48*
%TO.P,R1,1*%
%TO.N,Net-(U1-Pad1)*%
X-2600000Y11010000D03*
%TO.P,R1,2*%
%TO.N,LED_IN*%
X-2600000Y9990000D03*
%TD*%
D49*
%TO.P,R5,1*%
%TO.N,LED_OUT*%
X-4900000Y11912500D03*
%TO.P,R5,2*%
%TO.N,Net-(U1-Pad1)*%
X-4900000Y10087500D03*
%TD*%
D11*
%TO.P,C3,1*%
%TO.N,LED_OUT*%
X11975000Y4900000D03*
%TO.P,C3,2*%
%TO.N,LED_IN*%
X9025000Y4900000D03*
%TD*%
D29*
%TO.P,R4,1*%
%TO.N,+12V*%
X7000000Y2337501D03*
%TO.P,R4,2*%
%TO.N,LED_IN*%
X7000000Y5262501D03*
%TD*%
D50*
%TO.P,D1,1,K*%
%TO.N,+12V*%
X6300000Y-2600000D03*
%TO.P,D1,2,A*%
%TO.N,Net-(D1-Pad2)*%
X6300000Y-6600000D03*
%TD*%
D43*
%TO.P,D14,1,K*%
%TO.N,LED_OUT*%
X9970205Y9970205D03*
D42*
%TO.P,D14,2,A*%
%TO.N,Net-(D14-Pad2)*%
X11242997Y11242997D03*
%TD*%
D51*
%TO.P,Q1,1,D*%
%TO.N,Net-(D1-Pad2)*%
X-5200000Y-4635000D03*
X-5200000Y-3365000D03*
X-5200000Y-5905000D03*
%TO.P,Q1,2,G*%
%TO.N,Net-(Q1-Pad2)*%
X-5200000Y-2095000D03*
D52*
%TO.P,Q1,3,S*%
%TO.N,GND*%
X-8330000Y-4000000D03*
D51*
X-10800000Y-3365000D03*
X-10800000Y-5905000D03*
X-10800000Y-2095000D03*
X-10800000Y-4635000D03*
%TD*%
D15*
%TO.P,D6,1,K*%
%TO.N,LED_OUT*%
X9970205Y-9970205D03*
D14*
%TO.P,D6,2,A*%
%TO.N,Net-(D6-Pad2)*%
X11242997Y-11242997D03*
%TD*%
D37*
%TO.P,D2,1,K*%
%TO.N,LED_OUT*%
X0Y-14100000D03*
D36*
%TO.P,D2,2,A*%
%TO.N,Net-(D2-Pad2)*%
X0Y-15900000D03*
%TD*%
D53*
%TO.N,Net-(Q1-Pad2)*%
X-5200000Y-1600000D02*
X-5200000Y-2095000D01*
X-3510000Y-1500000D02*
X-5100000Y-1500000D01*
X-5100000Y-1500000D02*
X-5200000Y-1600000D01*
%TO.N,Net-(U1-Pad5)*%
X-2490000Y690000D02*
X-2490000Y-1500000D01*
X-2788000Y4495000D02*
X-3600000Y3683000D01*
X-3600000Y3683000D02*
X-3600000Y1800000D01*
X-3600000Y1800000D02*
X-2490000Y690000D01*
D54*
%TO.N,+12V*%
X4600000Y2337500D02*
X4537500Y2400000D01*
X5800000Y1137501D02*
X7000000Y2337501D01*
X-1400000Y3125000D02*
X-1400000Y5400000D01*
X-1400000Y5400000D02*
X-1765000Y5765000D01*
X-2125000Y2400000D02*
X-1400000Y3125000D01*
X-1765000Y5765000D02*
X-2788000Y5765000D01*
X5800000Y-2400000D02*
X5800000Y1137501D01*
X4537500Y2400000D02*
X-2050000Y2400000D01*
X4600000Y2337500D02*
X7000000Y2337501D01*
D55*
%TO.N,GND*%
X-10800000Y-2095000D02*
X-10800000Y-5905000D01*
%TO.N,Net-(D1-Pad2)*%
X-5200000Y-5905000D02*
X-5200000Y-4635000D01*
D54*
X2750000Y-5800000D02*
X3350000Y-6400000D01*
X3350000Y-6400000D02*
X5800000Y-6400000D01*
%TO.N,LED_IN*%
X3400000Y7200000D02*
X1700000Y7200000D01*
X-2600000Y8493000D02*
X-2600000Y9990000D01*
X4600000Y5262500D02*
X4600000Y6000000D01*
X1300000Y10900000D02*
X1000000Y11200000D01*
X1700000Y7200000D02*
X1300000Y7600000D01*
X-900000Y11200000D02*
X-2110000Y9990000D01*
X1000000Y11200000D02*
X-900000Y11200000D01*
X4600000Y6000000D02*
X3400000Y7200000D01*
X-2788000Y8305000D02*
X-2600000Y8493000D01*
X-2110000Y9990000D02*
X-2600000Y9990000D01*
X1300000Y7600000D02*
X1300000Y10900000D01*
%TO.N,Net-(J3-Pad1)*%
X1412500Y6287500D02*
X2400000Y6287500D01*
D56*
X0Y9500000D02*
X0Y4500000D01*
D54*
X0Y7700000D02*
X1412500Y6287500D01*
X0Y4000000D02*
X0Y9550000D01*
X0Y10050000D02*
X0Y7700000D01*
%TO.N,DIM*%
X-7275000Y10925000D02*
X-4175000Y10925000D01*
X2400000Y10800000D02*
X2400000Y8312500D01*
X-3400000Y11700000D02*
X1500000Y11700000D01*
X-9900000Y6980000D02*
X-9900000Y8300000D01*
X-9900000Y8300000D02*
X-7275000Y10925000D01*
X-7767000Y6980000D02*
X-9900000Y6980000D01*
X-4175000Y10925000D02*
X-3400000Y11700000D01*
X1500000Y11700000D02*
X2400000Y10800000D01*
%TO.N,Net-(U1-Pad1)*%
X-7712000Y9588000D02*
X-7712000Y8305000D01*
X-4900000Y10087500D02*
X-7212500Y10087500D01*
X-4112500Y10087500D02*
X-4900000Y10087500D01*
X-3190000Y11010000D02*
X-4112500Y10087500D01*
X-2600000Y11010000D02*
X-3190000Y11010000D01*
X-7212500Y10087500D02*
X-7712000Y9588000D01*
%TD*%
%TA.AperFunction,Conductor*%
%TO.N,LED_IN*%
G36*
X-7599927Y30082478D02*
G01*
X543386Y27010005D01*
X552711Y27004484D01*
X563139Y26996838D01*
X575189Y26993889D01*
X575191Y26993888D01*
X606243Y26986288D01*
X1421608Y26678651D01*
X7878850Y20221409D01*
X9100000Y12100000D01*
X7000000Y10000000D01*
X10000000Y7000000D01*
X10000000Y4000001D01*
X3600000Y4000000D01*
X2319579Y5520500D01*
X2897756Y5520500D01*
X2901153Y5520869D01*
X2951597Y5526349D01*
X2951598Y5526349D01*
X2959448Y5527202D01*
X2966841Y5529974D01*
X2966843Y5529974D01*
X3038575Y5556865D01*
X3094764Y5577929D01*
X3101943Y5583309D01*
X3101946Y5583311D01*
X3203224Y5659215D01*
X3210404Y5664596D01*
X3279337Y5756573D01*
X3291689Y5773054D01*
X3291691Y5773057D01*
X3297071Y5780236D01*
X3330704Y5869954D01*
X3345026Y5908157D01*
X3345026Y5908159D01*
X3347798Y5915552D01*
X3354500Y5977244D01*
X3354500Y6597756D01*
X3347798Y6659448D01*
X3297071Y6794764D01*
X3291691Y6801943D01*
X3291689Y6801946D01*
X3215785Y6903224D01*
X3210404Y6910404D01*
X3189977Y6925713D01*
X3101946Y6991689D01*
X3101943Y6991691D01*
X3094764Y6997071D01*
X3005046Y7030704D01*
X2966843Y7045026D01*
X2966841Y7045026D01*
X2959448Y7047798D01*
X2951598Y7048651D01*
X2951597Y7048651D01*
X2901153Y7054131D01*
X2901152Y7054131D01*
X2897756Y7054500D01*
X2000000Y7054500D01*
X2000000Y7345500D01*
X2897756Y7345500D01*
X2901153Y7345869D01*
X2951597Y7351349D01*
X2951598Y7351349D01*
X2959448Y7352202D01*
X2966841Y7354974D01*
X2966843Y7354974D01*
X3019873Y7374854D01*
X3094764Y7402929D01*
X3101943Y7408309D01*
X3101946Y7408311D01*
X3203224Y7484215D01*
X3210404Y7489596D01*
X3250791Y7543484D01*
X3291689Y7598054D01*
X3291691Y7598057D01*
X3297071Y7605236D01*
X3330704Y7694954D01*
X3345026Y7733157D01*
X3345026Y7733159D01*
X3347798Y7740552D01*
X3354500Y7802244D01*
X3354500Y8422756D01*
X3347798Y8484448D01*
X3344022Y8494522D01*
X3307989Y8590639D01*
X3297071Y8619764D01*
X3291691Y8626943D01*
X3291689Y8626946D01*
X3215785Y8728224D01*
X3210404Y8735404D01*
X3174542Y8762281D01*
X3101946Y8816689D01*
X3101943Y8816691D01*
X3094764Y8822071D01*
X2991941Y8860617D01*
X2966843Y8870026D01*
X2966841Y8870026D01*
X2959448Y8872798D01*
X2951598Y8873651D01*
X2951597Y8873651D01*
X2943286Y8874554D01*
X2897756Y8879500D01*
X2897766Y8879588D01*
X2831739Y8902927D01*
X2788220Y8959022D01*
X2779500Y9005081D01*
X2779500Y10746080D01*
X2782049Y10770028D01*
X2782128Y10771693D01*
X2784320Y10781876D01*
X2780373Y10815223D01*
X2780023Y10821154D01*
X2779928Y10821146D01*
X2779500Y10826324D01*
X2779500Y10831524D01*
X2778646Y10836656D01*
X2776331Y10850565D01*
X2775494Y10856443D01*
X2770694Y10897001D01*
X2770694Y10897002D01*
X2769470Y10907341D01*
X2765507Y10915593D01*
X2764004Y10924626D01*
X2739644Y10969773D01*
X2736960Y10975042D01*
X2718212Y11014085D01*
X2714780Y11021232D01*
X2711186Y11025508D01*
X2709246Y11027448D01*
X2707493Y11029359D01*
X2707444Y11029449D01*
X2707567Y11029561D01*
X2707095Y11030096D01*
X2704010Y11035814D01*
X2664413Y11072417D01*
X2660848Y11075846D01*
X2000000Y11736694D01*
X2000000Y13338914D01*
X2032213Y13387124D01*
X2035655Y13392275D01*
X2054677Y13438197D01*
X2074430Y13537499D01*
X2071907Y13550184D01*
X2069486Y13574765D01*
X2069486Y14050233D01*
X2071907Y14074814D01*
X2072009Y14075327D01*
X2072009Y14075328D01*
X2074430Y14087499D01*
X2054678Y14186800D01*
X2049734Y14198736D01*
X2049732Y14198740D01*
X2035654Y14232726D01*
X2000000Y14286087D01*
X2000000Y15000000D01*
X1719486Y15258612D01*
X1719486Y15478595D01*
X1739488Y15546716D01*
X1793144Y15593209D01*
X1820903Y15602174D01*
X1849303Y15607823D01*
X1859048Y15611859D01*
X1889502Y15624474D01*
X1889505Y15624476D01*
X1895225Y15626845D01*
X1979404Y15683091D01*
X1988004Y15695961D01*
X2032218Y15762131D01*
X2032220Y15762135D01*
X2035654Y15767274D01*
X2049732Y15801260D01*
X2049734Y15801264D01*
X2054678Y15813200D01*
X2074430Y15912499D01*
X2071907Y15925184D01*
X2069486Y15949765D01*
X2069486Y16425237D01*
X2071907Y16449818D01*
X2072009Y16450331D01*
X2074430Y16462502D01*
X2054677Y16561803D01*
X2035655Y16607725D01*
X1979409Y16691904D01*
X1920562Y16731225D01*
X1900369Y16744718D01*
X1900365Y16744720D01*
X1895226Y16748154D01*
X1861240Y16762232D01*
X1861236Y16762234D01*
X1849300Y16767178D01*
X1750001Y16786930D01*
X1737830Y16784509D01*
X1737829Y16784509D01*
X1737316Y16784407D01*
X1712735Y16781986D01*
X67095Y16781986D01*
X-5939525Y22319618D01*
X-5783154Y22749245D01*
X-5772478Y22771505D01*
X-5772200Y22771963D01*
X-5772198Y22771967D01*
X-5765763Y22782574D01*
X-5750364Y22882643D01*
X-5750928Y22895550D01*
X-5752533Y22932295D01*
X-5776596Y23030633D01*
X-5783933Y23040639D01*
X-5783934Y23040642D01*
X-5832803Y23107291D01*
X-5836463Y23112283D01*
X-5873109Y23145864D01*
X-5959658Y23198387D01*
X-5972308Y23200334D01*
X-5972447Y23200356D01*
X-5996370Y23206487D01*
X-6443163Y23369107D01*
X-6465435Y23379790D01*
X-6465880Y23380060D01*
X-6476489Y23386498D01*
X-6527444Y23394343D01*
X-6570436Y23400963D01*
X-6570439Y23400963D01*
X-6576556Y23401905D01*
X-6589464Y23401342D01*
X-6589479Y23401341D01*
X-6598111Y23400964D01*
X-6626230Y23399736D01*
X-6680329Y23386498D01*
X-6712516Y23378622D01*
X-6712517Y23378622D01*
X-6724571Y23375672D01*
X-6806221Y23315804D01*
X-6810402Y23311241D01*
X-6835474Y23283880D01*
X-6839802Y23279157D01*
X-6843012Y23273868D01*
X-6843013Y23273866D01*
X-6854822Y23254405D01*
X-6904399Y23209156D01*
X-7359425Y23628654D01*
X-7984358Y23628654D01*
X-7987608Y23637162D01*
X-7986538Y23666313D01*
X-7983076Y23688810D01*
X-7982134Y23694930D01*
X-7984302Y23744589D01*
X-7985774Y23750604D01*
X-8005416Y23830879D01*
X-8005417Y23830881D01*
X-8008366Y23842933D01*
X-8068234Y23924583D01*
X-8095356Y23949436D01*
X-8095357Y23949438D01*
X-8104882Y23958166D01*
X-8110169Y23961374D01*
X-8110173Y23961377D01*
X-8180839Y24004255D01*
X-8180838Y24004255D01*
X-8191447Y24010692D01*
X-8204224Y24012658D01*
X-8228154Y24018791D01*
X-8413235Y24086155D01*
X-8674950Y24181412D01*
X-8697209Y24192088D01*
X-8708274Y24198802D01*
X-8808342Y24214202D01*
X-8814526Y24213932D01*
X-8814528Y24213932D01*
X-8835498Y24213016D01*
X-8858000Y24212033D01*
X-8956335Y24187971D01*
X-8966340Y24180636D01*
X-8966341Y24180635D01*
X-9032987Y24131770D01*
X-9037986Y24128105D01*
X-9042164Y24123546D01*
X-9042167Y24123543D01*
X-9062839Y24100984D01*
X-9062844Y24100979D01*
X-9071572Y24091454D01*
X-9124091Y24004908D01*
X-9126038Y23992258D01*
X-9126060Y23992119D01*
X-9132191Y23968196D01*
X-9255775Y23628654D01*
X-17331157Y23628654D01*
X-17454738Y23968191D01*
X-17460868Y23992105D01*
X-17462837Y24004897D01*
X-17469280Y24015516D01*
X-17512145Y24086155D01*
X-17515360Y24091454D01*
X-17524088Y24100979D01*
X-17524093Y24100984D01*
X-17548946Y24128105D01*
X-17630587Y24187966D01*
X-17642640Y24190916D01*
X-17642641Y24190916D01*
X-17722911Y24210560D01*
X-17722916Y24210561D01*
X-17728932Y24212033D01*
X-17757753Y24213292D01*
X-17772403Y24213932D01*
X-17772405Y24213932D01*
X-17778590Y24214202D01*
X-17784712Y24213260D01*
X-17866382Y24200693D01*
X-17866384Y24200692D01*
X-17878649Y24198805D01*
X-17889717Y24192090D01*
X-17911978Y24181413D01*
X-17914117Y24180635D01*
X-18358783Y24018790D01*
X-18382706Y24012658D01*
X-18383227Y24012578D01*
X-18383232Y24012576D01*
X-18395493Y24010689D01*
X-18482050Y23958166D01*
X-18491575Y23949438D01*
X-18491576Y23949436D01*
X-18518698Y23924583D01*
X-18578566Y23842934D01*
X-18602630Y23744589D01*
X-18604798Y23694930D01*
X-18603856Y23688810D01*
X-18600394Y23666313D01*
X-18605428Y23628654D01*
X-19227506Y23628654D01*
X-19820452Y23344943D01*
X-19852352Y23368333D01*
X-19862358Y23375670D01*
X-19920340Y23389859D01*
X-19954693Y23398266D01*
X-19954698Y23398267D01*
X-19960702Y23399736D01*
X-19988820Y23400964D01*
X-19997453Y23401341D01*
X-19997468Y23401342D01*
X-20010376Y23401905D01*
X-20016488Y23400964D01*
X-20016490Y23400964D01*
X-20052111Y23395480D01*
X-20110432Y23386502D01*
X-20121494Y23379790D01*
X-20143761Y23369110D01*
X-20590552Y23206492D01*
X-20614471Y23200361D01*
X-20614997Y23200280D01*
X-20615001Y23200278D01*
X-20627268Y23198390D01*
X-20637878Y23191951D01*
X-20637879Y23191951D01*
X-20686846Y23162235D01*
X-20713823Y23145864D01*
X-20750469Y23112283D01*
X-20810333Y23030639D01*
X-20823919Y22975119D01*
X-20832927Y22938309D01*
X-20834399Y22932295D01*
X-20836004Y22895550D01*
X-20836568Y22882643D01*
X-20833144Y22860394D01*
X-27769381Y19541569D01*
X-28010726Y19782914D01*
X-28026397Y19802009D01*
X-28026691Y19802449D01*
X-28026692Y19802450D01*
X-28033585Y19812766D01*
X-28117769Y19869015D01*
X-28129705Y19873959D01*
X-28129707Y19873960D01*
X-28163693Y19888037D01*
X-28169760Y19889244D01*
X-28169764Y19889245D01*
X-28250816Y19905367D01*
X-28262987Y19907788D01*
X-28362288Y19888038D01*
X-28368002Y19885671D01*
X-28368003Y19885671D01*
X-28381177Y19880214D01*
X-28408211Y19869017D01*
X-28492399Y19812765D01*
X-28499292Y19802449D01*
X-28499293Y19802448D01*
X-28499585Y19802011D01*
X-28515254Y19782918D01*
X-28851460Y19446711D01*
X-28870556Y19431040D01*
X-28870990Y19430750D01*
X-28870991Y19430749D01*
X-28881307Y19423856D01*
X-28937556Y19339672D01*
X-28942498Y19327740D01*
X-28956576Y19293754D01*
X-28957782Y19287691D01*
X-28957783Y19287688D01*
X-28970444Y19224041D01*
X-28976330Y19194450D01*
X-28956578Y19095149D01*
X-28937556Y19049226D01*
X-28934114Y19044075D01*
X-28921471Y19025153D01*
X-28911985Y18994859D01*
X-29473911Y18725991D01*
X-36726023Y15182720D01*
X-36703392Y15237356D01*
X-36615546Y15449434D01*
X-12664172Y37669382D01*
X-12428593Y37750039D01*
X-12283888Y37799583D01*
X-12280144Y37800799D01*
X-12066111Y37866644D01*
X-7599927Y30082478D01*
G37*
%TD.AperFunction*%
%TD*%
%TA.AperFunction,Conductor*%
%TO.N,Net-(D32-Pad2)*%
G36*
X613943Y-22653969D02*
G01*
X627450Y-22664159D01*
X5983895Y-27301422D01*
X7556398Y-28662793D01*
X7594807Y-28722503D01*
X7599927Y-28758054D01*
X7599927Y-30389548D01*
X7578692Y-30459550D01*
X7526772Y-30537253D01*
X7507750Y-30583175D01*
X7487997Y-30682477D01*
X7490418Y-30694648D01*
X7490418Y-30694649D01*
X7490520Y-30695162D01*
X7492941Y-30719743D01*
X7492941Y-33445215D01*
X7490520Y-33469795D01*
X7487997Y-33482480D01*
X7507750Y-33581781D01*
X7526772Y-33627703D01*
X7530214Y-33632855D01*
X7530216Y-33632858D01*
X7578692Y-33705409D01*
X7599927Y-33775410D01*
X7599927Y-34048997D01*
X7579925Y-34117118D01*
X7526269Y-34163611D01*
X7476472Y-34174971D01*
X-551903Y-34337067D01*
X-4832779Y-34423500D01*
X-4901289Y-34404877D01*
X-4948856Y-34352171D01*
X-4960376Y-34282116D01*
X-4949517Y-34244276D01*
X-4917199Y-34174971D01*
X-3282947Y-30670306D01*
X-2982308Y-30025583D01*
X-2933478Y-29971114D01*
X-2932816Y-29970712D01*
X-2853582Y-29922632D01*
X-2840261Y-29910426D01*
X-2821498Y-29893232D01*
X-2816935Y-29889051D01*
X-2757072Y-29807410D01*
X-2753996Y-29794843D01*
X-2745806Y-29771553D01*
X-1593964Y-27301420D01*
X-1581383Y-27280170D01*
X-1573736Y-27269740D01*
X-1549672Y-27171395D01*
X-1547504Y-27121736D01*
X-1561721Y-27029366D01*
X-1551382Y-26956950D01*
X430788Y-22706173D01*
X477705Y-22652888D01*
X545983Y-22633427D01*
X613943Y-22653969D01*
G37*
%TD.AperFunction*%
%TD*%
%TA.AperFunction,Conductor*%
%TO.N,Net-(D16-Pad2)*%
G36*
X4901289Y34404877D02*
G01*
X4948856Y34352171D01*
X4960376Y34282116D01*
X4949518Y34244278D01*
X3812897Y31806786D01*
X2982308Y30025583D01*
X2933478Y29971114D01*
X2853582Y29922632D01*
X2849020Y29918452D01*
X2849019Y29918451D01*
X2835259Y29905842D01*
X2816935Y29889051D01*
X2757072Y29807410D01*
X2753996Y29794843D01*
X2745806Y29771553D01*
X1593965Y27301422D01*
X1581383Y27280170D01*
X1573736Y27269740D01*
X1549672Y27171395D01*
X1547504Y27121736D01*
X1548446Y27115616D01*
X1549531Y27108564D01*
X1540123Y27038193D01*
X1494164Y26984080D01*
X1426245Y26963404D01*
X1380518Y26971510D01*
X1347203Y26984080D01*
X697849Y27229081D01*
X696031Y27229644D01*
X696020Y27229648D01*
X668778Y27238087D01*
X651519Y27244862D01*
X637469Y27251609D01*
X637461Y27251612D01*
X634992Y27252798D01*
X632431Y27253764D01*
X632427Y27253766D01*
X-7378883Y30276434D01*
X-7435557Y30319195D01*
X-7443693Y30331617D01*
X-7510589Y30448211D01*
X-7527141Y30517252D01*
X-7517708Y30559135D01*
X-7510119Y30577456D01*
X-7507750Y30583175D01*
X-7487997Y30682477D01*
X-7490520Y30695162D01*
X-7492941Y30719743D01*
X-7492941Y33445215D01*
X-7490520Y33469796D01*
X-7490418Y33470309D01*
X-7487997Y33482480D01*
X-7507750Y33581781D01*
X-7526772Y33627703D01*
X-7530216Y33632858D01*
X-7578692Y33705409D01*
X-7599927Y33775410D01*
X-7599927Y34048997D01*
X-7579925Y34117118D01*
X-7526269Y34163611D01*
X-7476472Y34174971D01*
X551903Y34337067D01*
X4832779Y34423500D01*
X4901289Y34404877D01*
G37*
%TD.AperFunction*%
%TD*%
%TA.AperFunction,Conductor*%
%TO.N,Net-(D8-Pad2)*%
G36*
X30459550Y7578692D02*
G01*
X30537253Y7526772D01*
X30583175Y7507750D01*
X30682477Y7487997D01*
X30694648Y7490418D01*
X30694649Y7490418D01*
X30695162Y7490520D01*
X30719743Y7492941D01*
X33445215Y7492941D01*
X33469795Y7490520D01*
X33482480Y7487997D01*
X33495164Y7490520D01*
X33510609Y7493592D01*
X33581781Y7507750D01*
X33591526Y7511786D01*
X33621980Y7524401D01*
X33621983Y7524403D01*
X33627703Y7526772D01*
X33632855Y7530214D01*
X33632858Y7530216D01*
X33705409Y7578692D01*
X33775410Y7599927D01*
X34048997Y7599927D01*
X34117118Y7579925D01*
X34163611Y7526269D01*
X34174971Y7476470D01*
X34423500Y-4832779D01*
X34404877Y-4901289D01*
X34352171Y-4948856D01*
X34282116Y-4960376D01*
X34244278Y-4949518D01*
X31806786Y-3812897D01*
X30025583Y-2982308D01*
X29971114Y-2933478D01*
X29922632Y-2853582D01*
X29889051Y-2816935D01*
X29807410Y-2757072D01*
X29794843Y-2753996D01*
X29771553Y-2745806D01*
X27301420Y-1593964D01*
X27280170Y-1581383D01*
X27269740Y-1573736D01*
X27171395Y-1549672D01*
X27155613Y-1548983D01*
X27127922Y-1547774D01*
X27127921Y-1547774D01*
X27121736Y-1547504D01*
X27115623Y-1548445D01*
X27115621Y-1548445D01*
X27098086Y-1551144D01*
X27029366Y-1561721D01*
X26956951Y-1551382D01*
X25137029Y-702739D01*
X22706173Y430788D01*
X22652888Y477705D01*
X22633427Y545983D01*
X22653969Y613943D01*
X22664162Y627454D01*
X28605761Y7490520D01*
X28662794Y7556399D01*
X28722503Y7594807D01*
X28758054Y7599927D01*
X30389548Y7599927D01*
X30459550Y7578692D01*
G37*
%TD.AperFunction*%
%TD*%
%TA.AperFunction,Conductor*%
%TO.N,Net-(D12-Pad2)*%
G36*
X18835443Y29479197D02*
G01*
X18878690Y29452017D01*
X27758380Y20923798D01*
X27793656Y20862185D01*
X27790021Y20791282D01*
X27748631Y20733599D01*
X27714197Y20714522D01*
X23340103Y19122482D01*
X23267062Y19118494D01*
X23176282Y19140708D01*
X23170101Y19140978D01*
X23170100Y19140978D01*
X23132811Y19142606D01*
X23132810Y19142606D01*
X23126624Y19142876D01*
X23026570Y19127479D01*
X23015962Y19121043D01*
X23015960Y19121042D01*
X23015503Y19120765D01*
X22993240Y19110087D01*
X20432124Y18177917D01*
X20408198Y18171785D01*
X20395412Y18169817D01*
X20308857Y18117291D01*
X20272211Y18083710D01*
X20268554Y18078722D01*
X20268550Y18078718D01*
X20216952Y18008346D01*
X20158435Y17964450D01*
X15751075Y16360302D01*
X15680221Y16355799D01*
X15618181Y16390317D01*
X15584651Y16452897D01*
X15582305Y16469659D01*
X15460420Y18163377D01*
X14924475Y25610836D01*
X14939536Y25680217D01*
X14961055Y25708975D01*
X16114696Y26862616D01*
X16179212Y26897100D01*
X16195961Y26900431D01*
X16270865Y26915329D01*
X16316788Y26934350D01*
X16400976Y26990602D01*
X16407870Y27000919D01*
X16408164Y27001359D01*
X16423835Y27020454D01*
X18351028Y28947647D01*
X18370121Y28963317D01*
X18370561Y28963611D01*
X18380877Y28970504D01*
X18437126Y29054688D01*
X18456147Y29100611D01*
X18474378Y29192268D01*
X18508862Y29256782D01*
X18702316Y29450236D01*
X18764628Y29484262D01*
X18835443Y29479197D01*
G37*
%TD.AperFunction*%
%TD*%
%TA.AperFunction,Conductor*%
%TO.N,Net-(D28-Pad2)*%
G36*
X-15618181Y-16390317D02*
G01*
X-15584651Y-16452897D01*
X-15582306Y-16469652D01*
X-15271852Y-20783697D01*
X-14924475Y-25610836D01*
X-14939536Y-25680217D01*
X-14961055Y-25708975D01*
X-16114696Y-26862616D01*
X-16179212Y-26897100D01*
X-16195961Y-26900431D01*
X-16270865Y-26915329D01*
X-16316788Y-26934350D01*
X-16400976Y-26990602D01*
X-16407869Y-27000918D01*
X-16407870Y-27000919D01*
X-16408164Y-27001359D01*
X-16423835Y-27020454D01*
X-18351028Y-28947647D01*
X-18370121Y-28963317D01*
X-18380877Y-28970504D01*
X-18437126Y-29054688D01*
X-18456147Y-29100611D01*
X-18457355Y-29106683D01*
X-18457355Y-29106684D01*
X-18474378Y-29192268D01*
X-18508862Y-29256782D01*
X-18702316Y-29450236D01*
X-18764628Y-29484262D01*
X-18835443Y-29479197D01*
X-18878690Y-29452017D01*
X-27758380Y-20923798D01*
X-27793656Y-20862185D01*
X-27790021Y-20791282D01*
X-27748631Y-20733599D01*
X-27714197Y-20714522D01*
X-23340103Y-19122482D01*
X-23267062Y-19118494D01*
X-23176282Y-19140708D01*
X-23170101Y-19140978D01*
X-23170100Y-19140978D01*
X-23132811Y-19142606D01*
X-23132810Y-19142606D01*
X-23126624Y-19142876D01*
X-23026570Y-19127479D01*
X-23015962Y-19121043D01*
X-23015960Y-19121042D01*
X-23015503Y-19120765D01*
X-22993240Y-19110087D01*
X-20432124Y-18177917D01*
X-20408198Y-18171785D01*
X-20395412Y-18169817D01*
X-20308857Y-18117291D01*
X-20272211Y-18083710D01*
X-20268554Y-18078722D01*
X-20268550Y-18078718D01*
X-20216952Y-18008346D01*
X-20158435Y-17964450D01*
X-15751075Y-16360302D01*
X-15680221Y-16355799D01*
X-15618181Y-16390317D01*
G37*
%TD.AperFunction*%
%TD*%
%TA.AperFunction,Conductor*%
%TO.N,Net-(D24-Pad2)*%
G36*
X-34244278Y4949518D02*
G01*
X-33993931Y4832779D01*
X-30025583Y2982308D01*
X-29971114Y2933478D01*
X-29922632Y2853582D01*
X-29889051Y2816935D01*
X-29807410Y2757072D01*
X-29794843Y2753996D01*
X-29771553Y2745806D01*
X-27301420Y1593964D01*
X-27280170Y1581383D01*
X-27269740Y1573736D01*
X-27171395Y1549672D01*
X-27155613Y1548983D01*
X-27127922Y1547774D01*
X-27127921Y1547774D01*
X-27121736Y1547504D01*
X-27115623Y1548445D01*
X-27115621Y1548445D01*
X-27093944Y1551781D01*
X-27029366Y1561721D01*
X-26956951Y1551382D01*
X-26950652Y1548445D01*
X-22706173Y-430788D01*
X-22652888Y-477705D01*
X-22633427Y-545983D01*
X-22653969Y-613943D01*
X-22664159Y-627450D01*
X-28662793Y-7556398D01*
X-28722503Y-7594807D01*
X-28758054Y-7599927D01*
X-30389548Y-7599927D01*
X-30459550Y-7578692D01*
X-30532102Y-7530214D01*
X-30537253Y-7526772D01*
X-30583175Y-7507750D01*
X-30682477Y-7487997D01*
X-30694648Y-7490418D01*
X-30694649Y-7490418D01*
X-30695162Y-7490520D01*
X-30719743Y-7492941D01*
X-33445215Y-7492941D01*
X-33469796Y-7490520D01*
X-33482480Y-7487997D01*
X-33494651Y-7490418D01*
X-33507334Y-7492941D01*
X-33581781Y-7507750D01*
X-33587500Y-7510119D01*
X-33621980Y-7524401D01*
X-33621983Y-7524403D01*
X-33627703Y-7526772D01*
X-33632855Y-7530214D01*
X-33632858Y-7530216D01*
X-33705409Y-7578692D01*
X-33775410Y-7599927D01*
X-34048997Y-7599927D01*
X-34117118Y-7579925D01*
X-34163611Y-7526269D01*
X-34174971Y-7476470D01*
X-34423500Y4832779D01*
X-34404877Y4901289D01*
X-34352171Y4948856D01*
X-34282116Y4960376D01*
X-34244278Y4949518D01*
G37*
%TD.AperFunction*%
%TD*%
%TA.AperFunction,Conductor*%
%TO.N,Net-(D4-Pad2)*%
G36*
X25680217Y-14939536D02*
G01*
X25708975Y-14961055D01*
X26862616Y-16114696D01*
X26897100Y-16179212D01*
X26915329Y-16270865D01*
X26934350Y-16316788D01*
X26990602Y-16400976D01*
X27000918Y-16407869D01*
X27000919Y-16407870D01*
X27001359Y-16408164D01*
X27020454Y-16423835D01*
X28947647Y-18351028D01*
X28963317Y-18370121D01*
X28970504Y-18380877D01*
X29054688Y-18437126D01*
X29100611Y-18456147D01*
X29106683Y-18457355D01*
X29106684Y-18457355D01*
X29192268Y-18474378D01*
X29256782Y-18508862D01*
X29450236Y-18702316D01*
X29484262Y-18764628D01*
X29479197Y-18835443D01*
X29452017Y-18878690D01*
X20923798Y-27758380D01*
X20862185Y-27793656D01*
X20791282Y-27790021D01*
X20733599Y-27748631D01*
X20714521Y-27714196D01*
X19122482Y-23340103D01*
X19118494Y-23267061D01*
X19139237Y-23182292D01*
X19140708Y-23176282D01*
X19142876Y-23126624D01*
X19127479Y-23026570D01*
X19121042Y-23015960D01*
X19120765Y-23015503D01*
X19110087Y-22993240D01*
X18177917Y-20432124D01*
X18171785Y-20408198D01*
X18171705Y-20407681D01*
X18169817Y-20395412D01*
X18117291Y-20308857D01*
X18109311Y-20300148D01*
X18087891Y-20276774D01*
X18083710Y-20272211D01*
X18078722Y-20268554D01*
X18078718Y-20268550D01*
X18008346Y-20216952D01*
X17964450Y-20158435D01*
X16360302Y-15751075D01*
X16355799Y-15680221D01*
X16390317Y-15618181D01*
X16452897Y-15584651D01*
X16469652Y-15582306D01*
X21306963Y-15234196D01*
X25610836Y-14924475D01*
X25680217Y-14939536D01*
G37*
%TD.AperFunction*%
%TD*%
%TA.AperFunction,Conductor*%
%TO.N,Net-(D20-Pad2)*%
G36*
X-19185665Y23279344D02*
G01*
X-19146220Y23220313D01*
X-19142665Y23176367D01*
X-19140708Y23176282D01*
X-19142876Y23126624D01*
X-19127479Y23026570D01*
X-19121043Y23015962D01*
X-19121042Y23015960D01*
X-19120765Y23015503D01*
X-19110087Y22993240D01*
X-18177917Y20432124D01*
X-18171785Y20408198D01*
X-18169817Y20395412D01*
X-18117291Y20308857D01*
X-18113113Y20304298D01*
X-18113111Y20304295D01*
X-18105776Y20296291D01*
X-18083710Y20272211D01*
X-18078722Y20268554D01*
X-18078718Y20268550D01*
X-18008346Y20216952D01*
X-17964450Y20158435D01*
X-16360302Y15751075D01*
X-16355799Y15680221D01*
X-16390317Y15618181D01*
X-16452897Y15584651D01*
X-16469652Y15582306D01*
X-21306963Y15234196D01*
X-25610836Y14924475D01*
X-25680217Y14939536D01*
X-25708975Y14961055D01*
X-26862616Y16114696D01*
X-26897100Y16179212D01*
X-26914122Y16264794D01*
X-26915329Y16270865D01*
X-26934350Y16316788D01*
X-26990602Y16400976D01*
X-27000918Y16407869D01*
X-27000919Y16407870D01*
X-27001359Y16408164D01*
X-27020454Y16423835D01*
X-28947647Y18351028D01*
X-28963317Y18370121D01*
X-28963611Y18370561D01*
X-28970504Y18380877D01*
X-29046687Y18431780D01*
X-29092215Y18486257D01*
X-29101064Y18556700D01*
X-29070423Y18620744D01*
X-29031069Y18650205D01*
X-28803538Y18759073D01*
X-28803537Y18759073D01*
X-28799981Y18760775D01*
X-28745574Y18795742D01*
X-28682043Y18874581D01*
X-28653518Y18971732D01*
X-28664342Y19072404D01*
X-28673828Y19102698D01*
X-28675772Y19106762D01*
X-28685396Y19126878D01*
X-28696753Y19196960D01*
X-28668417Y19262057D01*
X-28660830Y19270352D01*
X-28352086Y19579096D01*
X-28289774Y19613122D01*
X-28218959Y19608057D01*
X-28173896Y19579096D01*
X-27952875Y19358075D01*
X-27942785Y19348511D01*
X-27936736Y19344922D01*
X-27936733Y19344920D01*
X-27878141Y19310159D01*
X-27855705Y19296848D01*
X-27843422Y19295082D01*
X-27843421Y19295082D01*
X-27817107Y19291299D01*
X-27755483Y19282441D01*
X-27743461Y19285510D01*
X-27743459Y19285510D01*
X-27663377Y19305953D01*
X-27663374Y19305954D01*
X-27657377Y19307485D01*
X-20721140Y22626310D01*
X-20698527Y22638542D01*
X-20623875Y22706945D01*
X-20581082Y22798710D01*
X-20579365Y22837999D01*
X-20578760Y22851860D01*
X-20555804Y22919043D01*
X-20495975Y22964762D01*
X-20055007Y23125260D01*
X-20053575Y23125862D01*
X-20052134Y23126427D01*
X-20051949Y23125955D01*
X-19983324Y23133725D01*
X-19946160Y23121022D01*
X-19906776Y23100222D01*
X-19896051Y23098680D01*
X-19896050Y23098680D01*
X-19873366Y23095419D01*
X-19806554Y23085815D01*
X-19794532Y23088884D01*
X-19794530Y23088884D01*
X-19714448Y23109327D01*
X-19714445Y23109328D01*
X-19708448Y23110859D01*
X-19366179Y23274627D01*
X-19320845Y23296318D01*
X-19250763Y23307677D01*
X-19185665Y23279344D01*
G37*
%TD.AperFunction*%
%TD*%
%TA.AperFunction,Conductor*%
%TO.N,LED_OUT*%
G36*
X-11175067Y-6509500D02*
G01*
X-10847878Y-6509500D01*
X-10831433Y-6510578D01*
X-10800000Y-6514716D01*
X-10791813Y-6513638D01*
X-10768564Y-6510577D01*
X-10752116Y-6509499D01*
X-10530070Y-6509499D01*
X-10530067Y-6509500D01*
X-10524386Y-6509500D01*
X-6129934Y-6509499D01*
X-6095747Y-6502699D01*
X-6082174Y-6500000D01*
X-5622827Y-6500000D01*
X-5575067Y-6509500D01*
X-5247878Y-6509500D01*
X-5231433Y-6510578D01*
X-5200000Y-6514716D01*
X-5191813Y-6513638D01*
X-5168564Y-6510577D01*
X-5152116Y-6509499D01*
X-4824934Y-6509499D01*
X-4790747Y-6502699D01*
X-4777174Y-6500000D01*
X-2400000Y-6500000D01*
X-2400000Y-8400000D01*
X-5000000Y-11000000D01*
X-12100000Y-6500000D01*
X-11222827Y-6500000D01*
X-11175067Y-6509500D01*
G37*
%TD.AperFunction*%
%TD*%
%TA.AperFunction,Conductor*%
%TO.N,+12V*%
G36*
X-1173052Y9479998D02*
G01*
X-1126023Y9425151D01*
X-1104485Y9376661D01*
X-1096252Y9368442D01*
X-1096251Y9368441D01*
X-1041482Y9313768D01*
X-1007403Y9251486D01*
X-1004500Y9224595D01*
X-1004500Y5854886D01*
X-1024502Y5786765D01*
X-1041405Y5765791D01*
X-1096551Y5710645D01*
X-1147894Y5600539D01*
X-1149152Y5590986D01*
X-1149152Y5590985D01*
X-1152756Y5563611D01*
X-1154500Y5550363D01*
X-1154499Y3449638D01*
X-1153962Y3445555D01*
X-1153961Y3445547D01*
X-1150883Y3422170D01*
X-1147894Y3399461D01*
X-1096551Y3289355D01*
X-1010645Y3203449D01*
X-1000653Y3198790D01*
X-1000652Y3198789D01*
X-909272Y3156178D01*
X-909271Y3156178D01*
X-900539Y3152106D01*
X-890986Y3150848D01*
X-890985Y3150848D01*
X-863611Y3147244D01*
X-850363Y3145500D01*
X-104Y3145500D01*
X850362Y3145501D01*
X854445Y3146038D01*
X854453Y3146039D01*
X877830Y3149117D01*
X900539Y3152106D01*
X1010645Y3203449D01*
X1096551Y3289355D01*
X1147894Y3399461D01*
X1154500Y3449637D01*
X1154499Y5550362D01*
X1153961Y5554449D01*
X1153961Y5554453D01*
X1149152Y5590980D01*
X1147894Y5600539D01*
X1096551Y5710645D01*
X1041405Y5765791D01*
X1007379Y5828103D01*
X1004500Y5854886D01*
X1004500Y5866090D01*
X1024502Y5934211D01*
X1078158Y5980704D01*
X1148432Y5990808D01*
X1208505Y5965040D01*
X1227147Y5950344D01*
X1235781Y5947312D01*
X1243234Y5941986D01*
X1292350Y5927297D01*
X1297992Y5925464D01*
X1338867Y5911110D01*
X1346351Y5908482D01*
X1351916Y5908000D01*
X1354624Y5908000D01*
X1357258Y5907886D01*
X1357356Y5907857D01*
X1357349Y5907693D01*
X1358052Y5907649D01*
X1364278Y5905787D01*
X1374685Y5906196D01*
X1384259Y5904986D01*
X1449334Y5876601D01*
X1486444Y5824210D01*
X1502929Y5780236D01*
X1508309Y5773057D01*
X1508311Y5773054D01*
X1549240Y5718443D01*
X1589596Y5664596D01*
X1596776Y5659215D01*
X1698054Y5583311D01*
X1698057Y5583309D01*
X1705236Y5577929D01*
X1767859Y5554453D01*
X1833157Y5529974D01*
X1833159Y5529974D01*
X1840552Y5527202D01*
X1848402Y5526349D01*
X1848403Y5526349D01*
X1898847Y5520869D01*
X1902244Y5520500D01*
X1957657Y5520500D01*
X2025778Y5500498D01*
X2071606Y5447609D01*
X2072227Y5442031D01*
X2121085Y5353347D01*
X2125067Y5348618D01*
X2125070Y5348614D01*
X2570379Y4819810D01*
X2598958Y4754820D01*
X2600000Y4738649D01*
X2600000Y4700000D01*
X2613547Y4700000D01*
X2626783Y4697121D01*
X2626523Y4695927D01*
X2680773Y4679998D01*
X2709031Y4655161D01*
X3401506Y3832847D01*
X3416506Y3816506D01*
X3422777Y3812316D01*
X3422778Y3812315D01*
X3483207Y3771938D01*
X3500694Y3760253D01*
X3600000Y3740500D01*
X3615846Y3740500D01*
X7507310Y3740501D01*
X7575430Y3720499D01*
X7596404Y3703596D01*
X9563095Y1736905D01*
X9597121Y1674593D01*
X9600000Y1647810D01*
X9600000Y-2347810D01*
X9579998Y-2415931D01*
X9563095Y-2436905D01*
X7536905Y-4463095D01*
X7474593Y-4497121D01*
X7447810Y-4500000D01*
X4952190Y-4500000D01*
X4884069Y-4479998D01*
X4863095Y-4463095D01*
X4436905Y-4036905D01*
X4402879Y-3974593D01*
X4400000Y-3947810D01*
X4400000Y-900000D01*
X2251175Y-900000D01*
X2183054Y-879998D01*
X2136561Y-826342D01*
X2126457Y-756068D01*
X2131862Y-733499D01*
X2181026Y-588666D01*
X2181027Y-588663D01*
X2182352Y-584759D01*
X2240008Y-294903D01*
X2259337Y0D01*
X2240008Y294903D01*
X2182352Y584759D01*
X2142303Y702741D01*
X2088681Y860705D01*
X2088680Y860706D01*
X2087355Y864611D01*
X1991968Y1058037D01*
X1958470Y1125964D01*
X1958467Y1125969D01*
X1956643Y1129668D01*
X1792453Y1375397D01*
X1597593Y1597593D01*
X1375397Y1792453D01*
X1129669Y1956643D01*
X1125970Y1958467D01*
X1125965Y1958470D01*
X989991Y2025525D01*
X864611Y2087355D01*
X860705Y2088681D01*
X588666Y2181026D01*
X588663Y2181027D01*
X584759Y2182352D01*
X580720Y2183155D01*
X580714Y2183157D01*
X298946Y2239204D01*
X298943Y2239204D01*
X294903Y2240008D01*
X290792Y2240277D01*
X290788Y2240278D01*
X4119Y2259067D01*
X0Y2259337D01*
X-4119Y2259067D01*
X-290788Y2240278D01*
X-290792Y2240277D01*
X-294903Y2240008D01*
X-298943Y2239204D01*
X-298946Y2239204D01*
X-580714Y2183157D01*
X-580720Y2183155D01*
X-584759Y2182352D01*
X-588663Y2181027D01*
X-588666Y2181026D01*
X-860705Y2088681D01*
X-864611Y2087355D01*
X-989857Y2025590D01*
X-1125964Y1958470D01*
X-1125969Y1958467D01*
X-1129668Y1956643D01*
X-1375397Y1792453D01*
X-1597593Y1597593D01*
X-1792453Y1375397D01*
X-1956643Y1129668D01*
X-1987163Y1067779D01*
X-2035231Y1015530D01*
X-2103916Y997563D01*
X-2171412Y1019582D01*
X-2192691Y1037975D01*
X-2196224Y1041796D01*
X-2202617Y1048712D01*
X-2209017Y1052430D01*
X-2215277Y1058037D01*
X-2863095Y1705855D01*
X-2897121Y1768167D01*
X-2900000Y1794950D01*
X-2900000Y3688050D01*
X-2879998Y3756171D01*
X-2863095Y3777145D01*
X-2777145Y3863095D01*
X-2714833Y3897121D01*
X-2688050Y3900000D01*
X-1530573Y3900000D01*
X-1530573Y5000000D01*
X-1798580Y5000000D01*
X-1868581Y5021234D01*
X-1926199Y5059734D01*
X-2000433Y5074500D01*
X-2090875Y5074500D01*
X-3474000Y5074499D01*
X-3542121Y5094501D01*
X-3588614Y5148157D01*
X-3600000Y5200499D01*
X-3600000Y6329500D01*
X-3579998Y6397621D01*
X-3526342Y6444114D01*
X-3474000Y6455500D01*
X-2090902Y6455501D01*
X-2000434Y6455501D01*
X-1964682Y6462612D01*
X-1938374Y6467844D01*
X-1938372Y6467845D01*
X-1926199Y6470266D01*
X-1915879Y6477161D01*
X-1915878Y6477162D01*
X-1852332Y6519623D01*
X-1842016Y6526516D01*
X-1785766Y6610699D01*
X-1771000Y6684933D01*
X-1771001Y7385066D01*
X-1785766Y7459301D01*
X-1842016Y7543484D01*
X-1874570Y7565236D01*
X-1920096Y7619713D01*
X-1928943Y7690156D01*
X-1898302Y7754200D01*
X-1874572Y7774763D01*
X-1842016Y7796516D01*
X-1785766Y7880699D01*
X-1771000Y7954933D01*
X-1771001Y8655066D01*
X-1785766Y8729301D01*
X-1842016Y8813484D01*
X-1926199Y8869734D01*
X-1965446Y8877541D01*
X-1998582Y8884132D01*
X-2061491Y8917040D01*
X-2096623Y8978735D01*
X-2100000Y9007711D01*
X-2100000Y9374000D01*
X-2079998Y9442121D01*
X-2026342Y9488614D01*
X-1974000Y9500000D01*
X-1241173Y9500000D01*
X-1173052Y9479998D01*
G37*
%TD.AperFunction*%
%TD*%
%TA.AperFunction,Conductor*%
%TO.N,Net-(D1-Pad2)*%
G36*
X4810960Y-4728987D02*
G01*
X4816901Y-4730731D01*
X4816900Y-4730731D01*
X4874758Y-4747720D01*
X4874762Y-4747721D01*
X4879081Y-4748989D01*
X4883529Y-4749629D01*
X4883536Y-4749630D01*
X4947742Y-4758861D01*
X4947749Y-4758861D01*
X4952190Y-4759500D01*
X7074000Y-4759500D01*
X7142121Y-4779502D01*
X7188614Y-4833158D01*
X7200000Y-4885500D01*
X7200000Y-8174000D01*
X7179998Y-8242121D01*
X7126342Y-8288614D01*
X7074000Y-8300000D01*
X4480499Y-8300000D01*
X4412378Y-8279998D01*
X4365885Y-8226342D01*
X4354499Y-8174000D01*
X4354499Y-7874934D01*
X4339734Y-7800699D01*
X4283484Y-7716516D01*
X4199301Y-7660266D01*
X4125067Y-7645500D01*
X2400000Y-7645500D01*
X2400000Y-4700000D01*
X4755548Y-4700000D01*
X4810960Y-4728987D01*
G37*
%TD.AperFunction*%
%TD*%
%TA.AperFunction,Conductor*%
%TO.N,Net-(D1-Pad2)*%
G36*
X2096972Y-1122201D02*
G01*
X2109945Y-1128987D01*
X2115881Y-1130730D01*
X2173743Y-1147720D01*
X2173747Y-1147721D01*
X2178066Y-1148989D01*
X2182514Y-1149629D01*
X2182521Y-1149630D01*
X2246727Y-1158861D01*
X2246734Y-1158861D01*
X2251175Y-1159500D01*
X4014500Y-1159500D01*
X4082621Y-1179502D01*
X4129114Y-1233158D01*
X4140500Y-1285500D01*
X4140500Y-3947810D01*
X4141986Y-3975545D01*
X4144865Y-4002328D01*
X4175123Y-4098961D01*
X4178085Y-4104385D01*
X4178087Y-4104390D01*
X4206993Y-4157325D01*
X4209149Y-4161273D01*
X4211844Y-4164873D01*
X4250714Y-4216797D01*
X4250718Y-4216801D01*
X4253411Y-4220399D01*
X4679601Y-4646589D01*
X4700260Y-4665147D01*
X4721234Y-4682050D01*
X4810960Y-4728987D01*
X4816901Y-4730731D01*
X4816900Y-4730731D01*
X4874758Y-4747720D01*
X4874762Y-4747721D01*
X4879081Y-4748989D01*
X4883529Y-4749629D01*
X4883536Y-4749630D01*
X4947742Y-4758861D01*
X4947749Y-4758861D01*
X4952190Y-4759500D01*
X5300000Y-4759500D01*
X5300000Y-8300000D01*
X4480499Y-8300000D01*
X4412378Y-8279998D01*
X4365885Y-8226342D01*
X4354499Y-8174000D01*
X4354499Y-7874934D01*
X4339734Y-7800699D01*
X4283484Y-7716516D01*
X4199301Y-7660266D01*
X4125067Y-7645500D01*
X3831808Y-7645500D01*
X-2014500Y-7645501D01*
X-2082621Y-7625499D01*
X-2129114Y-7571843D01*
X-2140500Y-7519501D01*
X-2140500Y-6500000D01*
X-2160253Y-6400694D01*
X-2216506Y-6316506D01*
X-2300694Y-6260253D01*
X-2400000Y-6240500D01*
X-4777174Y-6240500D01*
X-4801924Y-6242937D01*
X-4824701Y-6245180D01*
X-4824707Y-6245181D01*
X-4827795Y-6245485D01*
X-4838320Y-6247578D01*
X-4862897Y-6249999D01*
X-5152116Y-6249999D01*
X-5161153Y-6250295D01*
X-5168059Y-6250521D01*
X-5168078Y-6250522D01*
X-5169087Y-6250555D01*
X-5185535Y-6251633D01*
X-5187669Y-6251843D01*
X-5212337Y-6251842D01*
X-5213386Y-6251739D01*
X-5213425Y-6251736D01*
X-5214459Y-6251634D01*
X-5230904Y-6250556D01*
X-5247878Y-6250000D01*
X-5537098Y-6250000D01*
X-5561677Y-6247579D01*
X-5572201Y-6245486D01*
X-5590422Y-6243691D01*
X-5619746Y-6240803D01*
X-5619755Y-6240803D01*
X-5622827Y-6240500D01*
X-5674000Y-6240500D01*
X-5742121Y-6220498D01*
X-5788614Y-6166842D01*
X-5800000Y-6114500D01*
X-5800000Y-2808264D01*
X-5779998Y-2740143D01*
X-5726342Y-2693650D01*
X-5656068Y-2683546D01*
X-5649428Y-2685371D01*
X-5649301Y-2684734D01*
X-5575067Y-2699500D01*
X-5200061Y-2699500D01*
X-4824934Y-2699499D01*
X-4789182Y-2692388D01*
X-4762874Y-2687156D01*
X-4762872Y-2687155D01*
X-4750699Y-2684734D01*
X-4740379Y-2677839D01*
X-4740378Y-2677838D01*
X-4676832Y-2635377D01*
X-4666516Y-2628484D01*
X-4610266Y-2544301D01*
X-4595500Y-2470067D01*
X-4595501Y-2080499D01*
X-4575499Y-2012380D01*
X-4521844Y-1965887D01*
X-4469501Y-1954500D01*
X-3978526Y-1954500D01*
X-3910405Y-1974502D01*
X-3889431Y-1991405D01*
X-3876796Y-2004040D01*
X-3766862Y-2060054D01*
X-3757073Y-2061604D01*
X-3757071Y-2061605D01*
X-3730579Y-2065801D01*
X-3675653Y-2074500D01*
X-3510034Y-2074500D01*
X-3344348Y-2074499D01*
X-3339454Y-2073724D01*
X-3262936Y-2061606D01*
X-3262934Y-2061605D01*
X-3253138Y-2060054D01*
X-3143204Y-2004040D01*
X-3089095Y-1949931D01*
X-3026783Y-1915905D01*
X-2955968Y-1920970D01*
X-2910905Y-1949931D01*
X-2856796Y-2004040D01*
X-2746862Y-2060054D01*
X-2737073Y-2061604D01*
X-2737071Y-2061605D01*
X-2710579Y-2065801D01*
X-2655653Y-2074500D01*
X-2490034Y-2074500D01*
X-2324348Y-2074499D01*
X-2319454Y-2073724D01*
X-2242936Y-2061606D01*
X-2242934Y-2061605D01*
X-2233138Y-2060054D01*
X-2123204Y-2004040D01*
X-2035960Y-1916796D01*
X-1979946Y-1806862D01*
X-1965500Y-1715653D01*
X-1965500Y-1512848D01*
X-1945498Y-1444727D01*
X-1891842Y-1398234D01*
X-1821568Y-1388130D01*
X-1756988Y-1417624D01*
X-1744771Y-1429768D01*
X-1597593Y-1597593D01*
X-1375397Y-1792453D01*
X-1129669Y-1956643D01*
X-1125970Y-1958467D01*
X-1125965Y-1958470D01*
X-989991Y-2025525D01*
X-864611Y-2087355D01*
X-860706Y-2088680D01*
X-860705Y-2088681D01*
X-588666Y-2181026D01*
X-588663Y-2181027D01*
X-584759Y-2182352D01*
X-580720Y-2183155D01*
X-580714Y-2183157D01*
X-298946Y-2239204D01*
X-298943Y-2239204D01*
X-294903Y-2240008D01*
X-290792Y-2240277D01*
X-290788Y-2240278D01*
X-4119Y-2259067D01*
X0Y-2259337D01*
X4119Y-2259067D01*
X290788Y-2240278D01*
X290792Y-2240277D01*
X294903Y-2240008D01*
X298943Y-2239204D01*
X298946Y-2239204D01*
X580714Y-2183157D01*
X580720Y-2183155D01*
X584759Y-2182352D01*
X588663Y-2181027D01*
X588666Y-2181026D01*
X860705Y-2088681D01*
X860706Y-2088680D01*
X864611Y-2087355D01*
X989991Y-2025525D01*
X1125965Y-1958470D01*
X1125970Y-1958467D01*
X1129669Y-1956643D01*
X1375397Y-1792453D01*
X1597593Y-1597593D01*
X1792453Y-1375397D01*
X1818977Y-1335702D01*
X1933805Y-1163848D01*
X1988281Y-1118320D01*
X2058724Y-1109471D01*
X2096972Y-1122201D01*
G37*
%TD.AperFunction*%
%TD*%
%TA.AperFunction,Conductor*%
%TO.N,GND*%
G36*
X-3252884Y10306256D02*
G01*
X-3196048Y10263709D01*
X-3171237Y10197189D01*
X-3172467Y10168489D01*
X-3174500Y10155653D01*
X-3174499Y9824348D01*
X-3173724Y9819455D01*
X-3173724Y9819454D01*
X-3161843Y9744437D01*
X-3160054Y9733138D01*
X-3155551Y9724301D01*
X-3155551Y9724300D01*
X-3147246Y9708000D01*
X-3104040Y9623204D01*
X-3016796Y9535960D01*
X-3019598Y9533158D01*
X-2988091Y9492310D01*
X-2979500Y9446581D01*
X-2979500Y9010499D01*
X-2999502Y8942378D01*
X-3053158Y8895885D01*
X-3105500Y8884499D01*
X-3575566Y8884499D01*
X-3611318Y8877388D01*
X-3637626Y8872156D01*
X-3637628Y8872155D01*
X-3649801Y8869734D01*
X-3660121Y8862839D01*
X-3660122Y8862838D01*
X-3667500Y8857908D01*
X-3733984Y8813484D01*
X-3790234Y8729301D01*
X-3805000Y8655067D01*
X-3804999Y7954934D01*
X-3790234Y7880699D01*
X-3733984Y7796516D01*
X-3701430Y7774764D01*
X-3655904Y7720287D01*
X-3647057Y7649844D01*
X-3677698Y7585800D01*
X-3701428Y7565237D01*
X-3733984Y7543484D01*
X-3790234Y7459301D01*
X-3805000Y7385067D01*
X-3804999Y6684934D01*
X-3801805Y6668875D01*
X-3790234Y6610699D01*
X-3793807Y6609988D01*
X-3788498Y6560543D01*
X-3800845Y6524531D01*
X-3826119Y6476214D01*
X-3826121Y6476209D01*
X-3828987Y6470730D01*
X-3848989Y6402609D01*
X-3849629Y6398161D01*
X-3849630Y6398154D01*
X-3858861Y6333948D01*
X-3859500Y6329500D01*
X-3859500Y5200499D01*
X-3859140Y5197153D01*
X-3859140Y5197148D01*
X-3857887Y5185500D01*
X-3853570Y5145340D01*
X-3842184Y5092998D01*
X-3834834Y5066208D01*
X-3802787Y5009930D01*
X-3786461Y4940839D01*
X-3791300Y4919513D01*
X-3790234Y4919301D01*
X-3805000Y4845067D01*
X-3805000Y4838880D01*
X-3804999Y4172951D01*
X-3825001Y4104830D01*
X-3841904Y4083856D01*
X-3897011Y4028749D01*
X-3908100Y4018894D01*
X-3935059Y3997641D01*
X-3940413Y3989894D01*
X-3968742Y3948906D01*
X-3971024Y3945713D01*
X-4006209Y3898076D01*
X-4008623Y3891203D01*
X-4012764Y3885211D01*
X-4015604Y3876230D01*
X-4030626Y3828730D01*
X-4031871Y3825001D01*
X-4051493Y3769126D01*
X-4051776Y3761922D01*
X-4051809Y3761751D01*
X-4053975Y3754903D01*
X-4054500Y3748232D01*
X-4054500Y3695062D01*
X-4054597Y3690116D01*
X-4056858Y3632563D01*
X-4054961Y3625408D01*
X-4054500Y3617033D01*
X-4054500Y1834456D01*
X-4055373Y1819647D01*
X-4059407Y1785562D01*
X-4057715Y1776298D01*
X-4057715Y1776295D01*
X-4048771Y1727320D01*
X-4048122Y1723418D01*
X-4040716Y1674164D01*
X-4039315Y1664849D01*
X-4036162Y1658282D01*
X-4034853Y1651117D01*
X-4007538Y1598533D01*
X-4005795Y1595043D01*
X-3980154Y1541647D01*
X-3975259Y1536352D01*
X-3975166Y1536213D01*
X-3971852Y1529834D01*
X-3967506Y1524746D01*
X-3929924Y1487164D01*
X-3926494Y1483599D01*
X-3887383Y1441288D01*
X-3880983Y1437570D01*
X-3874723Y1431963D01*
X-2981405Y538645D01*
X-2947379Y476333D01*
X-2944500Y449550D01*
X-2944500Y-894956D01*
X-2964502Y-963077D01*
X-3018158Y-1009570D01*
X-3088432Y-1019674D01*
X-3140710Y-998454D01*
X-3143204Y-995960D01*
X-3152037Y-991459D01*
X-3152039Y-991458D01*
X-3207741Y-963077D01*
X-3253138Y-939946D01*
X-3262927Y-938396D01*
X-3262929Y-938395D01*
X-3289421Y-934199D01*
X-3344347Y-925500D01*
X-3509966Y-925500D01*
X-3675652Y-925501D01*
X-3680545Y-926276D01*
X-3680546Y-926276D01*
X-3757064Y-938394D01*
X-3757066Y-938395D01*
X-3766862Y-939946D01*
X-3775699Y-944449D01*
X-3775700Y-944449D01*
X-3831009Y-972631D01*
X-3876796Y-995960D01*
X-3889431Y-1008595D01*
X-3951743Y-1042621D01*
X-3978526Y-1045500D01*
X-5065544Y-1045500D01*
X-5080353Y-1044627D01*
X-5105085Y-1041700D01*
X-5114438Y-1040593D01*
X-5123702Y-1042285D01*
X-5123703Y-1042285D01*
X-5172690Y-1051232D01*
X-5176594Y-1051882D01*
X-5235151Y-1060685D01*
X-5241717Y-1063838D01*
X-5248884Y-1065147D01*
X-5285384Y-1084107D01*
X-5301426Y-1092440D01*
X-5304963Y-1094208D01*
X-5358353Y-1119846D01*
X-5363649Y-1124742D01*
X-5363785Y-1124834D01*
X-5370166Y-1128148D01*
X-5375254Y-1132494D01*
X-5412836Y-1170076D01*
X-5416401Y-1173506D01*
X-5458712Y-1212617D01*
X-5462430Y-1219017D01*
X-5468037Y-1225277D01*
X-5497011Y-1254251D01*
X-5508100Y-1264106D01*
X-5535059Y-1285359D01*
X-5540413Y-1293106D01*
X-5568742Y-1334094D01*
X-5571024Y-1337287D01*
X-5606209Y-1384924D01*
X-5608623Y-1391797D01*
X-5612764Y-1397789D01*
X-5615606Y-1406774D01*
X-5615606Y-1406775D01*
X-5630624Y-1454260D01*
X-5631874Y-1458007D01*
X-5634284Y-1464871D01*
X-5675724Y-1522519D01*
X-5683164Y-1527893D01*
X-5733484Y-1561516D01*
X-5789734Y-1645699D01*
X-5804500Y-1719933D01*
X-5804500Y-1726120D01*
X-5804499Y-2372024D01*
X-5824501Y-2440145D01*
X-5868147Y-2481514D01*
X-5896278Y-2497533D01*
X-5949934Y-2544026D01*
X-5982056Y-2577315D01*
X-6028987Y-2667034D01*
X-6048989Y-2735155D01*
X-6059500Y-2808264D01*
X-6059500Y-4300058D01*
X-8500000Y-4300000D01*
X-8770031Y-4045254D01*
X-8770031Y-4045253D01*
X-11110464Y-1837298D01*
X-11146289Y-1776002D01*
X-11150000Y-1745646D01*
X-11150000Y6247810D01*
X-11129998Y6315931D01*
X-11113095Y6336905D01*
X-10663498Y6786502D01*
X-10601186Y6820528D01*
X-10530371Y6815463D01*
X-10473535Y6772916D01*
X-10457443Y6734837D01*
X-10454483Y6735799D01*
X-10451420Y6726370D01*
X-10449868Y6716573D01*
X-10445365Y6707736D01*
X-10445365Y6707735D01*
X-10436899Y6691120D01*
X-10393135Y6605229D01*
X-10304771Y6516865D01*
X-10193427Y6460132D01*
X-10183637Y6458581D01*
X-10183636Y6458581D01*
X-10164182Y6455500D01*
X-10101045Y6445500D01*
X-9900041Y6445500D01*
X-9698956Y6445501D01*
X-9668736Y6450287D01*
X-9616371Y6458580D01*
X-9616369Y6458581D01*
X-9606573Y6460132D01*
X-9495229Y6516865D01*
X-9448499Y6563595D01*
X-9386187Y6597621D01*
X-9359404Y6600500D01*
X-9274767Y6600500D01*
X-9206646Y6580498D01*
X-9170002Y6544502D01*
X-9157984Y6526516D01*
X-9125430Y6504764D01*
X-9079904Y6450287D01*
X-9071057Y6379844D01*
X-9101698Y6315800D01*
X-9125428Y6295237D01*
X-9157984Y6273484D01*
X-9214234Y6189301D01*
X-9229000Y6115067D01*
X-9228999Y5414934D01*
X-9214234Y5340699D01*
X-9157984Y5256516D01*
X-9073801Y5200266D01*
X-8999567Y5185500D01*
X-8212128Y5185500D01*
X-7424434Y5185501D01*
X-7388682Y5192612D01*
X-7362374Y5197844D01*
X-7362372Y5197845D01*
X-7350199Y5200266D01*
X-7339879Y5207161D01*
X-7339878Y5207162D01*
X-7276332Y5249623D01*
X-7266016Y5256516D01*
X-7209766Y5340699D01*
X-7195000Y5414933D01*
X-7195001Y6115066D01*
X-7205988Y6170306D01*
X-7207344Y6177126D01*
X-7207345Y6177128D01*
X-7209766Y6189301D01*
X-7266016Y6273484D01*
X-7298570Y6295236D01*
X-7344096Y6349713D01*
X-7352943Y6420156D01*
X-7322302Y6484200D01*
X-7298572Y6504763D01*
X-7266016Y6526516D01*
X-7209766Y6610699D01*
X-7195000Y6684933D01*
X-7195001Y7385066D01*
X-7205386Y7437281D01*
X-7207344Y7447126D01*
X-7207345Y7447128D01*
X-7209766Y7459301D01*
X-7250722Y7520596D01*
X-7259123Y7533168D01*
X-7266016Y7543484D01*
X-7298570Y7565236D01*
X-7344096Y7619713D01*
X-7352943Y7690156D01*
X-7322302Y7754200D01*
X-7298572Y7774763D01*
X-7266016Y7796516D01*
X-7209766Y7880699D01*
X-7195000Y7954933D01*
X-7195001Y8655066D01*
X-7204816Y8704413D01*
X-7207344Y8717126D01*
X-7207345Y8717128D01*
X-7209766Y8729301D01*
X-7217541Y8740937D01*
X-7259121Y8803166D01*
X-7259123Y8803168D01*
X-7266016Y8813484D01*
X-7276501Y8820490D01*
X-7276785Y8820829D01*
X-7285110Y8829155D01*
X-7284365Y8829900D01*
X-7322029Y8874966D01*
X-7332500Y8925256D01*
X-7332500Y9378616D01*
X-7312498Y9446737D01*
X-7295595Y9467711D01*
X-7092211Y9671095D01*
X-7029899Y9705121D01*
X-7003116Y9708000D01*
X-5932295Y9708000D01*
X-5864174Y9687998D01*
X-5817681Y9634342D01*
X-5814313Y9626229D01*
X-5797071Y9580236D01*
X-5791691Y9573057D01*
X-5791689Y9573054D01*
X-5763888Y9535960D01*
X-5710404Y9464596D01*
X-5703224Y9459215D01*
X-5601946Y9383311D01*
X-5601943Y9383309D01*
X-5594764Y9377929D01*
X-5505046Y9344296D01*
X-5466843Y9329974D01*
X-5466841Y9329974D01*
X-5459448Y9327202D01*
X-5451598Y9326349D01*
X-5451597Y9326349D01*
X-5401153Y9320869D01*
X-5397756Y9320500D01*
X-4402244Y9320500D01*
X-4398847Y9320869D01*
X-4348403Y9326349D01*
X-4348402Y9326349D01*
X-4340552Y9327202D01*
X-4333159Y9329974D01*
X-4333157Y9329974D01*
X-4294954Y9344296D01*
X-4205236Y9377929D01*
X-4198057Y9383309D01*
X-4198054Y9383311D01*
X-4096776Y9459215D01*
X-4089596Y9464596D01*
X-4036112Y9535960D01*
X-4008311Y9573054D01*
X-4008309Y9573057D01*
X-4002929Y9580236D01*
X-3957224Y9702156D01*
X-3914583Y9758921D01*
X-3904935Y9764761D01*
X-3905079Y9764984D01*
X-3898416Y9769287D01*
X-3891268Y9772719D01*
X-3886992Y9776314D01*
X-3885069Y9778237D01*
X-3883137Y9780009D01*
X-3883058Y9780052D01*
X-3882945Y9779928D01*
X-3882405Y9780404D01*
X-3876686Y9783490D01*
X-3840083Y9823087D01*
X-3836654Y9826652D01*
X-3386011Y10277295D01*
X-3323699Y10311321D01*
X-3252884Y10306256D01*
G37*
%TD.AperFunction*%
%TD*%
%TA.AperFunction,Conductor*%
%TO.N,GND*%
G36*
X-3174500Y10155653D02*
G01*
X-3174499Y9824348D01*
X-3173724Y9819455D01*
X-3173724Y9819454D01*
X-3161843Y9744437D01*
X-3160054Y9733138D01*
X-3104040Y9623204D01*
X-3016796Y9535960D01*
X-3019598Y9533158D01*
X-2988091Y9492310D01*
X-2979500Y9446581D01*
X-2979500Y9010499D01*
X-2999502Y8942378D01*
X-3053158Y8895885D01*
X-3105500Y8884499D01*
X-3575566Y8884499D01*
X-3611318Y8877388D01*
X-3637626Y8872156D01*
X-3637628Y8872155D01*
X-3649801Y8869734D01*
X-3660121Y8862839D01*
X-3660122Y8862838D01*
X-3719398Y8823230D01*
X-3733984Y8813484D01*
X-3790234Y8729301D01*
X-3805000Y8655067D01*
X-3804999Y7954934D01*
X-3790234Y7880699D01*
X-3733984Y7796516D01*
X-3701430Y7774764D01*
X-3655904Y7720287D01*
X-3647057Y7649844D01*
X-3677698Y7585800D01*
X-3701428Y7565237D01*
X-3733984Y7543484D01*
X-3790234Y7459301D01*
X-3805000Y7385067D01*
X-3804999Y6684934D01*
X-3796627Y6642844D01*
X-3790234Y6610699D01*
X-3793807Y6609988D01*
X-3788498Y6560543D01*
X-3800845Y6524531D01*
X-3826119Y6476214D01*
X-3826121Y6476209D01*
X-3828987Y6470730D01*
X-3848989Y6402609D01*
X-3849629Y6398161D01*
X-3849630Y6398154D01*
X-3857344Y6344499D01*
X-3859500Y6329500D01*
X-3859500Y5200499D01*
X-3859140Y5197153D01*
X-3859140Y5197148D01*
X-3857887Y5185500D01*
X-3853570Y5145340D01*
X-3842184Y5092998D01*
X-3834834Y5066208D01*
X-3802787Y5009930D01*
X-3786461Y4940839D01*
X-3791300Y4919513D01*
X-3790234Y4919301D01*
X-3805000Y4845067D01*
X-3805000Y4838880D01*
X-3804999Y4172951D01*
X-3825001Y4104830D01*
X-3841904Y4083856D01*
X-3897011Y4028749D01*
X-3908100Y4018894D01*
X-3935059Y3997641D01*
X-3940413Y3989894D01*
X-3968742Y3948906D01*
X-3971024Y3945713D01*
X-4006209Y3898076D01*
X-4008623Y3891203D01*
X-4012764Y3885211D01*
X-4015604Y3876230D01*
X-4030626Y3828730D01*
X-4031871Y3825001D01*
X-4051493Y3769126D01*
X-4051776Y3761922D01*
X-4051809Y3761751D01*
X-4053975Y3754903D01*
X-4054500Y3748232D01*
X-4054500Y3695062D01*
X-4054597Y3690116D01*
X-4056858Y3632563D01*
X-4054961Y3625408D01*
X-4054500Y3617033D01*
X-4054500Y1834456D01*
X-4055373Y1819647D01*
X-4059407Y1785562D01*
X-4057715Y1776298D01*
X-4057715Y1776295D01*
X-4048771Y1727320D01*
X-4048122Y1723418D01*
X-4040716Y1674164D01*
X-4039315Y1664849D01*
X-4036162Y1658282D01*
X-4034853Y1651117D01*
X-4007538Y1598533D01*
X-4005795Y1595043D01*
X-3980154Y1541647D01*
X-3975259Y1536352D01*
X-3975166Y1536213D01*
X-3971852Y1529834D01*
X-3967506Y1524746D01*
X-3929924Y1487164D01*
X-3926494Y1483599D01*
X-3887383Y1441288D01*
X-3880983Y1437570D01*
X-3874723Y1431963D01*
X-2981405Y538645D01*
X-2947379Y476333D01*
X-2944500Y449550D01*
X-2944500Y-894956D01*
X-2964502Y-963077D01*
X-3018158Y-1009570D01*
X-3088432Y-1019674D01*
X-3140710Y-998454D01*
X-3143204Y-995960D01*
X-3152037Y-991459D01*
X-3152039Y-991458D01*
X-3207741Y-963077D01*
X-3253138Y-939946D01*
X-3262927Y-938396D01*
X-3262929Y-938395D01*
X-3289421Y-934199D01*
X-3344347Y-925500D01*
X-3509966Y-925500D01*
X-3675652Y-925501D01*
X-3680545Y-926276D01*
X-3680546Y-926276D01*
X-3757064Y-938394D01*
X-3757066Y-938395D01*
X-3766862Y-939946D01*
X-3876796Y-995960D01*
X-3889431Y-1008595D01*
X-3951743Y-1042621D01*
X-3978526Y-1045500D01*
X-5065544Y-1045500D01*
X-5080353Y-1044627D01*
X-5105085Y-1041700D01*
X-5114438Y-1040593D01*
X-5123702Y-1042285D01*
X-5123703Y-1042285D01*
X-5172690Y-1051232D01*
X-5176594Y-1051882D01*
X-5235151Y-1060685D01*
X-5241717Y-1063838D01*
X-5248884Y-1065147D01*
X-5285384Y-1084107D01*
X-5301426Y-1092440D01*
X-5304963Y-1094208D01*
X-5358353Y-1119846D01*
X-5363649Y-1124742D01*
X-5363785Y-1124834D01*
X-5370166Y-1128148D01*
X-5375254Y-1132494D01*
X-5412836Y-1170076D01*
X-5416401Y-1173506D01*
X-5458712Y-1212617D01*
X-5462430Y-1219017D01*
X-5468037Y-1225277D01*
X-5497011Y-1254251D01*
X-5508100Y-1264106D01*
X-5535059Y-1285359D01*
X-5540413Y-1293106D01*
X-5568742Y-1334094D01*
X-5571024Y-1337287D01*
X-5606209Y-1384924D01*
X-5608623Y-1391797D01*
X-5612764Y-1397789D01*
X-5615606Y-1406774D01*
X-5615606Y-1406775D01*
X-5630624Y-1454260D01*
X-5631874Y-1458007D01*
X-5634284Y-1464871D01*
X-5675724Y-1522519D01*
X-5683164Y-1527893D01*
X-5733484Y-1561516D01*
X-5789734Y-1645699D01*
X-5804500Y-1719933D01*
X-5804500Y-1726120D01*
X-5804499Y-2372024D01*
X-5824501Y-2440145D01*
X-5868147Y-2481514D01*
X-5896278Y-2497533D01*
X-5949934Y-2544026D01*
X-5982056Y-2577315D01*
X-6028987Y-2667034D01*
X-6048989Y-2735155D01*
X-6059500Y-2808264D01*
X-6059500Y-6114500D01*
X-6060898Y-6114500D01*
X-6075943Y-6178146D01*
X-6127037Y-6227441D01*
X-6196670Y-6241287D01*
X-6264280Y-6214067D01*
X-8715525Y-4247346D01*
X-8756141Y-4189115D01*
X-8762674Y-4149069D01*
X-8762674Y-4070309D01*
X-8762675Y4209518D01*
X-8016214Y5185500D01*
X-7434286Y5185501D01*
X-7424434Y5185501D01*
X-7388682Y5192612D01*
X-7362374Y5197844D01*
X-7362372Y5197845D01*
X-7350199Y5200266D01*
X-7339879Y5207161D01*
X-7339878Y5207162D01*
X-7276332Y5249623D01*
X-7266016Y5256516D01*
X-7209766Y5340699D01*
X-7195000Y5414933D01*
X-7195001Y6115066D01*
X-7209766Y6189301D01*
X-7216662Y6199622D01*
X-7227815Y6216314D01*
X-4853638Y9320500D01*
X-4402244Y9320500D01*
X-4398847Y9320869D01*
X-4348403Y9326349D01*
X-4348402Y9326349D01*
X-4340552Y9327202D01*
X-4333159Y9329974D01*
X-4333157Y9329974D01*
X-4294954Y9344296D01*
X-4205236Y9377929D01*
X-4198057Y9383309D01*
X-4198054Y9383311D01*
X-4096776Y9459215D01*
X-4089596Y9464596D01*
X-4013832Y9565688D01*
X-4008311Y9573054D01*
X-4008309Y9573057D01*
X-4002929Y9580236D01*
X-3957224Y9702156D01*
X-3914583Y9758921D01*
X-3904935Y9764761D01*
X-3905079Y9764984D01*
X-3898416Y9769287D01*
X-3891268Y9772719D01*
X-3886992Y9776314D01*
X-3885069Y9778237D01*
X-3883137Y9780009D01*
X-3883058Y9780052D01*
X-3882945Y9779928D01*
X-3882405Y9780404D01*
X-3876686Y9783490D01*
X-3840083Y9823087D01*
X-3836654Y9826652D01*
X-3500632Y10162674D01*
X-3173388Y10162674D01*
X-3174500Y10155653D01*
G37*
%TD.AperFunction*%
%TD*%
%TA.AperFunction,Conductor*%
%TO.N,Net-(D30-Pad2)*%
G36*
X-13884967Y-7328234D02*
G01*
X-11803683Y-9409518D01*
X-11769199Y-9474034D01*
X-11750970Y-9565688D01*
X-11731949Y-9611611D01*
X-11675697Y-9695799D01*
X-11665381Y-9702692D01*
X-11665380Y-9702693D01*
X-11664940Y-9702987D01*
X-11645845Y-9718658D01*
X-9718652Y-11645851D01*
X-9702982Y-11664944D01*
X-9695795Y-11675700D01*
X-9611611Y-11731949D01*
X-9565688Y-11750970D01*
X-9481298Y-11767756D01*
X-9474031Y-11769201D01*
X-9409516Y-11803685D01*
X-6158899Y-15054302D01*
X-6148718Y-15054046D01*
X-5823466Y-15045865D01*
X-4091855Y-15002310D01*
X-4023254Y-15020593D01*
X-3975427Y-15073062D01*
X-3969727Y-15086747D01*
X-3493990Y-16449963D01*
X-3013263Y-17827480D01*
X-3009703Y-17898387D01*
X-3045043Y-17959963D01*
X-3078977Y-17983191D01*
X-8156638Y-20350944D01*
X-8157151Y-20351183D01*
X-8229569Y-20361521D01*
X-8315809Y-20348247D01*
X-8315818Y-20348247D01*
X-8321935Y-20347305D01*
X-8328120Y-20347575D01*
X-8328121Y-20347575D01*
X-8365411Y-20349203D01*
X-8365412Y-20349203D01*
X-8371594Y-20349473D01*
X-8377605Y-20350944D01*
X-8377606Y-20350944D01*
X-8457886Y-20370588D01*
X-8457888Y-20370589D01*
X-8469940Y-20373538D01*
X-8480369Y-20381185D01*
X-8501623Y-20393767D01*
X-10971737Y-21545600D01*
X-10995035Y-21553793D01*
X-10995440Y-21553893D01*
X-11007600Y-21556868D01*
X-11089250Y-21616736D01*
X-11122831Y-21653383D01*
X-11169169Y-21729744D01*
X-11171315Y-21733281D01*
X-11225782Y-21782109D01*
X-14427955Y-23275307D01*
X-14653452Y-23380458D01*
X-14723644Y-23391119D01*
X-14788456Y-23362139D01*
X-14827313Y-23302719D01*
X-14832376Y-23275313D01*
X-15323475Y-16451026D01*
X-15325311Y-16433683D01*
X-15325457Y-16432638D01*
X-15326885Y-16422433D01*
X-15326886Y-16422427D01*
X-15327656Y-16416928D01*
X-15329087Y-16412543D01*
X-15331134Y-16367459D01*
X-15153263Y-15073062D01*
X-14098889Y-7400176D01*
X-14069799Y-7335412D01*
X-14010314Y-7296657D01*
X-13939319Y-7296214D01*
X-13884967Y-7328234D01*
G37*
%TD.AperFunction*%
%TD*%
%TA.AperFunction,Conductor*%
%TO.N,Net-(D26-Pad2)*%
G36*
X-15066306Y4747272D02*
G01*
X-15015791Y4697384D01*
X-15000000Y4636310D01*
X-15000000Y1692930D01*
X-15021235Y1622928D01*
X-15073155Y1545225D01*
X-15092177Y1499303D01*
X-15111930Y1400001D01*
X-15109509Y1387830D01*
X-15109509Y1387829D01*
X-15109407Y1387316D01*
X-15106986Y1362735D01*
X-15106986Y-1362737D01*
X-15109407Y-1387317D01*
X-15111930Y-1400002D01*
X-15092177Y-1499303D01*
X-15073155Y-1545225D01*
X-15069713Y-1550377D01*
X-15069711Y-1550380D01*
X-15021235Y-1622931D01*
X-15000000Y-1692932D01*
X-15000000Y-6289999D01*
X-14267034Y-6986996D01*
X-14231453Y-7048433D01*
X-14234735Y-7119354D01*
X-14251203Y-7151361D01*
X-14302930Y-7224046D01*
X-14302933Y-7224052D01*
X-14306516Y-7229086D01*
X-14335606Y-7293850D01*
X-14355973Y-7364849D01*
X-14557711Y-8832932D01*
X-14759359Y-10300365D01*
X-14788449Y-10365129D01*
X-14847934Y-10403884D01*
X-14918929Y-10404327D01*
X-14978894Y-10366317D01*
X-15003571Y-10322844D01*
X-15003958Y-10321262D01*
X-15104994Y-10071817D01*
X-15240980Y-9839570D01*
X-15409069Y-9629385D01*
X-15605738Y-9445667D01*
X-15826868Y-9292264D01*
X-16067827Y-9172389D01*
X-16072161Y-9170968D01*
X-16072164Y-9170967D01*
X-16319234Y-9089973D01*
X-16319240Y-9089972D01*
X-16323567Y-9088553D01*
X-16328059Y-9087773D01*
X-16584949Y-9043169D01*
X-16584957Y-9043168D01*
X-16588730Y-9042513D01*
X-16598693Y-9042017D01*
X-16672188Y-9038358D01*
X-16672196Y-9038358D01*
X-16673759Y-9038280D01*
X-16841785Y-9038280D01*
X-16844053Y-9038445D01*
X-16844065Y-9038445D01*
X-16974868Y-9047936D01*
X-17041836Y-9052795D01*
X-17046291Y-9053779D01*
X-17046294Y-9053779D01*
X-17300181Y-9109833D01*
X-17300183Y-9109834D01*
X-17304637Y-9110817D01*
X-17556311Y-9206167D01*
X-17560297Y-9208381D01*
X-17560299Y-9208382D01*
X-17690516Y-9280711D01*
X-17791583Y-9336849D01*
X-17795213Y-9339620D01*
X-17795217Y-9339622D01*
X-17811053Y-9351708D01*
X-17867305Y-9394639D01*
X-17933591Y-9420066D01*
X-17986842Y-9412877D01*
X-20158436Y-8622481D01*
X-20216953Y-8578584D01*
X-20268545Y-8508220D01*
X-20268553Y-8508211D01*
X-20272211Y-8503222D01*
X-20308857Y-8469641D01*
X-20395425Y-8417111D01*
X-20407690Y-8415224D01*
X-20407692Y-8415223D01*
X-20408201Y-8415145D01*
X-20432134Y-8409012D01*
X-22993226Y-7476850D01*
X-23015489Y-7466172D01*
X-23015943Y-7465897D01*
X-23015947Y-7465896D01*
X-23026556Y-7459458D01*
X-23070069Y-7452761D01*
X-23120507Y-7444997D01*
X-23120512Y-7444997D01*
X-23126624Y-7444056D01*
X-23132809Y-7444326D01*
X-23132810Y-7444326D01*
X-23170099Y-7445954D01*
X-23170100Y-7445954D01*
X-23176282Y-7446224D01*
X-23267061Y-7468437D01*
X-23340103Y-7464449D01*
X-26894036Y-6170923D01*
X-26951206Y-6128830D01*
X-26976544Y-6062508D01*
X-26962003Y-5993017D01*
X-26946204Y-5970056D01*
X-24623475Y-3287101D01*
X-22468646Y-798085D01*
X-22468629Y-798065D01*
X-22467967Y-797300D01*
X-22457000Y-783736D01*
X-22446810Y-770229D01*
X-22444722Y-766117D01*
X-22414291Y-732792D01*
X-19418015Y1539500D01*
X-15202137Y4736705D01*
X-15135773Y4761930D01*
X-15066306Y4747272D01*
G37*
%TD.AperFunction*%
%TD*%
%TA.AperFunction,Conductor*%
%TO.N,Net-(D22-Pad2)*%
G36*
X-12813371Y14842747D02*
G01*
X-7400176Y14098889D01*
X-7335412Y14069799D01*
X-7296657Y14010314D01*
X-7296214Y13939319D01*
X-7328234Y13884967D01*
X-9409518Y11803683D01*
X-9474034Y11769199D01*
X-9565688Y11750970D01*
X-9611611Y11731949D01*
X-9695799Y11675697D01*
X-9702692Y11665381D01*
X-9702693Y11665380D01*
X-9702987Y11664940D01*
X-9718658Y11645845D01*
X-11645851Y9718652D01*
X-11664944Y9702982D01*
X-11675700Y9695795D01*
X-11731949Y9611611D01*
X-11750970Y9565688D01*
X-11752178Y9559613D01*
X-11769201Y9474031D01*
X-11803685Y9409516D01*
X-15054302Y6158899D01*
X-15054046Y6148718D01*
X-15028869Y5147762D01*
X-15047152Y5079160D01*
X-15099621Y5031333D01*
X-15133899Y5020345D01*
X-15160648Y5015839D01*
X-15227973Y5004498D01*
X-15294337Y4979273D01*
X-15298273Y4977092D01*
X-15298279Y4977089D01*
X-15326678Y4961351D01*
X-15358943Y4943471D01*
X-15362527Y4940753D01*
X-15362530Y4940751D01*
X-17815535Y3080460D01*
X-17881899Y3055235D01*
X-17951366Y3069893D01*
X-18001881Y3119781D01*
X-18005867Y3127605D01*
X-18412671Y4000000D01*
X-20351183Y8157152D01*
X-20361521Y8229569D01*
X-20348247Y8315809D01*
X-20348247Y8315818D01*
X-20347305Y8321935D01*
X-20349473Y8371594D01*
X-20364818Y8434306D01*
X-20370588Y8457886D01*
X-20370589Y8457888D01*
X-20373538Y8469940D01*
X-20381186Y8480370D01*
X-20393767Y8501623D01*
X-21545600Y10971737D01*
X-21553793Y10995035D01*
X-21553918Y10995544D01*
X-21556868Y11007600D01*
X-21616736Y11089250D01*
X-21653383Y11122831D01*
X-21733281Y11171315D01*
X-21782110Y11225783D01*
X-21995122Y11682590D01*
X-23380458Y14653452D01*
X-23391119Y14723644D01*
X-23362139Y14788456D01*
X-23302719Y14827313D01*
X-23275313Y14832376D01*
X-16451026Y15323475D01*
X-16433683Y15325311D01*
X-16432653Y15325455D01*
X-16432638Y15325457D01*
X-16422433Y15326885D01*
X-16422427Y15326886D01*
X-16416928Y15327656D01*
X-16412543Y15329087D01*
X-16367460Y15331134D01*
X-12813371Y14842747D01*
G37*
%TD.AperFunction*%
%TD*%
%TA.AperFunction,Conductor*%
%TO.N,Net-(D18-Pad2)*%
G36*
X-7288206Y23193037D02*
G01*
X-7239497Y23165138D01*
X-7080294Y23018365D01*
X-7014533Y22974186D01*
X-7003819Y22971542D01*
X-7003817Y22971541D01*
X-6928279Y22952899D01*
X-6928277Y22952899D01*
X-6916231Y22949926D01*
X-6866179Y22957528D01*
X-6828396Y22963267D01*
X-6828394Y22963268D01*
X-6816127Y22965131D01*
X-6801138Y22974186D01*
X-6734762Y23014284D01*
X-6734760Y23014285D01*
X-6729462Y23017486D01*
X-6724894Y23021655D01*
X-6724889Y23021659D01*
X-6703343Y23041325D01*
X-6679885Y23062735D01*
X-6662860Y23083438D01*
X-6604144Y23123349D01*
X-6533171Y23125179D01*
X-6522445Y23121809D01*
X-6492360Y23110859D01*
X-6112144Y22972471D01*
X-6054974Y22930378D01*
X-6029636Y22864056D01*
X-6036839Y22810978D01*
X-6183375Y22408372D01*
X-6198811Y22309084D01*
X-6175043Y22210662D01*
X-6167737Y22200634D01*
X-6167736Y22200632D01*
X-6119066Y22133831D01*
X-6115420Y22128827D01*
X-108800Y16591195D01*
X-104135Y16588213D01*
X-104131Y16588210D01*
X-59078Y16559412D01*
X-32211Y16542239D01*
X67095Y16522486D01*
X1683986Y16522486D01*
X1752107Y16502484D01*
X1798600Y16448828D01*
X1809986Y16396486D01*
X1809986Y15963061D01*
X1789984Y15894940D01*
X1736328Y15848447D01*
X1722709Y15843159D01*
X1719417Y15842096D01*
X1719415Y15842095D01*
X1713392Y15840150D01*
X1623208Y15789326D01*
X1569552Y15742833D01*
X1537430Y15709544D01*
X1490499Y15619825D01*
X1488756Y15613889D01*
X1479391Y15581993D01*
X1470497Y15551704D01*
X1459986Y15478595D01*
X1459986Y15258612D01*
X1460200Y15248078D01*
X1460464Y15246986D01*
X1449707Y15179024D01*
X1402458Y15126033D01*
X1335847Y15106986D01*
X-1362737Y15106986D01*
X-1387318Y15109407D01*
X-1400002Y15111930D01*
X-1412173Y15109509D01*
X-1424856Y15106986D01*
X-1499303Y15092177D01*
X-1505022Y15089808D01*
X-1539502Y15075526D01*
X-1539505Y15075524D01*
X-1545225Y15073155D01*
X-1550377Y15069713D01*
X-1550380Y15069711D01*
X-1622931Y15021235D01*
X-1692932Y15000000D01*
X-6289999Y15000000D01*
X-6986996Y14267034D01*
X-7048433Y14231453D01*
X-7119354Y14234735D01*
X-7151361Y14251203D01*
X-7224046Y14302930D01*
X-7224052Y14302933D01*
X-7229086Y14306516D01*
X-7293850Y14335606D01*
X-7364849Y14355973D01*
X-10304636Y14759946D01*
X-10369398Y14789035D01*
X-10408153Y14848520D01*
X-10408596Y14919515D01*
X-10370586Y14979480D01*
X-10332121Y15002599D01*
X-10282932Y15021235D01*
X-10109880Y15086798D01*
X-10039243Y15126033D01*
X-9878601Y15215262D01*
X-9878600Y15215263D01*
X-9874608Y15217480D01*
X-9732022Y15326298D01*
X-9664289Y15377990D01*
X-9664285Y15377994D01*
X-9660664Y15380757D01*
X-9472531Y15573208D01*
X-9442920Y15613889D01*
X-9316838Y15787107D01*
X-9316833Y15787114D01*
X-9314150Y15790801D01*
X-9188839Y16028978D01*
X-9099223Y16282749D01*
X-9065487Y16453911D01*
X-9048060Y16542328D01*
X-9048059Y16542334D01*
X-9047179Y16546800D01*
X-9046952Y16551356D01*
X-9034025Y16811028D01*
X-9034025Y16811034D01*
X-9033798Y16815597D01*
X-9059359Y17083511D01*
X-9073584Y17141647D01*
X-9122241Y17340491D01*
X-9123327Y17344929D01*
X-9224363Y17594374D01*
X-9360349Y17826621D01*
X-9392317Y17866595D01*
X-9419241Y17932288D01*
X-9412315Y17988385D01*
X-8622481Y20158436D01*
X-8578584Y20216953D01*
X-8508220Y20268545D01*
X-8508211Y20268553D01*
X-8503222Y20272211D01*
X-8469641Y20308857D01*
X-8417111Y20395425D01*
X-8415145Y20408201D01*
X-8409012Y20432134D01*
X-7476850Y22993226D01*
X-7466172Y23015489D01*
X-7465897Y23015943D01*
X-7465896Y23015947D01*
X-7459458Y23026556D01*
X-7457571Y23038819D01*
X-7457569Y23038823D01*
X-7449435Y23091667D01*
X-7419303Y23155952D01*
X-7359199Y23193741D01*
X-7288206Y23193037D01*
G37*
%TD.AperFunction*%
%TD*%
%TA.AperFunction,Conductor*%
%TO.N,Net-(D14-Pad2)*%
G36*
X14788456Y23362139D02*
G01*
X14827313Y23302719D01*
X14832376Y23275314D01*
X15323474Y16451033D01*
X15325310Y16433690D01*
X15325454Y16432660D01*
X15325456Y16432645D01*
X15326885Y16422433D01*
X15326886Y16422427D01*
X15327656Y16416928D01*
X15329087Y16412543D01*
X15331134Y16367459D01*
X14098889Y7400176D01*
X14069799Y7335412D01*
X14010314Y7296657D01*
X13939319Y7296214D01*
X13884967Y7328234D01*
X11803683Y9409518D01*
X11769199Y9474034D01*
X11764547Y9497422D01*
X11750970Y9565688D01*
X11731949Y9611611D01*
X11675697Y9695799D01*
X11665381Y9702692D01*
X11665380Y9702693D01*
X11664940Y9702987D01*
X11645845Y9718658D01*
X9718652Y11645851D01*
X9702982Y11664944D01*
X9702688Y11665384D01*
X9695795Y11675700D01*
X9611611Y11731949D01*
X9565688Y11750970D01*
X9474031Y11769201D01*
X9409516Y11803685D01*
X9358118Y11855083D01*
X9324092Y11917395D01*
X9329157Y11988210D01*
X9333200Y11997815D01*
X9351848Y12037446D01*
X9356615Y12138585D01*
X9355694Y12144713D01*
X8143067Y20209439D01*
X8152717Y20279777D01*
X8198864Y20333731D01*
X8266854Y20354171D01*
X8286835Y20352707D01*
X8315811Y20348247D01*
X8315817Y20348247D01*
X8321935Y20347305D01*
X8328120Y20347575D01*
X8328121Y20347575D01*
X8365411Y20349203D01*
X8365412Y20349203D01*
X8371594Y20349473D01*
X8377606Y20350944D01*
X8457886Y20370588D01*
X8457888Y20370589D01*
X8469940Y20373538D01*
X8480370Y20381186D01*
X8501623Y20393767D01*
X10971737Y21545600D01*
X10995035Y21553793D01*
X10995544Y21553918D01*
X11007600Y21556868D01*
X11089250Y21616736D01*
X11122831Y21653383D01*
X11171315Y21733281D01*
X11225782Y21782109D01*
X14653452Y23380458D01*
X14723644Y23391119D01*
X14788456Y23362139D01*
G37*
%TD.AperFunction*%
%TD*%
%TA.AperFunction,Conductor*%
%TO.N,Net-(D10-Pad2)*%
G36*
X14978894Y10366317D02*
G01*
X15003571Y10322844D01*
X15003958Y10321262D01*
X15104994Y10071817D01*
X15240980Y9839570D01*
X15409069Y9629385D01*
X15605738Y9445667D01*
X15826868Y9292264D01*
X16067827Y9172389D01*
X16072161Y9170968D01*
X16072164Y9170967D01*
X16319234Y9089973D01*
X16319240Y9089972D01*
X16323567Y9088553D01*
X16328058Y9087773D01*
X16328059Y9087773D01*
X16584949Y9043169D01*
X16584957Y9043168D01*
X16588730Y9042513D01*
X16592567Y9042322D01*
X16672188Y9038358D01*
X16672196Y9038358D01*
X16673759Y9038280D01*
X16841785Y9038280D01*
X16844053Y9038445D01*
X16844065Y9038445D01*
X16974868Y9047936D01*
X17041836Y9052795D01*
X17046291Y9053779D01*
X17046294Y9053779D01*
X17300181Y9109833D01*
X17300183Y9109834D01*
X17304637Y9110817D01*
X17556311Y9206167D01*
X17592061Y9226024D01*
X17787590Y9334631D01*
X17787591Y9334632D01*
X17791583Y9336849D01*
X17795213Y9339620D01*
X17795217Y9339622D01*
X17825651Y9362849D01*
X17867305Y9394639D01*
X17933591Y9420066D01*
X17986842Y9412877D01*
X20158436Y8622481D01*
X20216953Y8578584D01*
X20268545Y8508220D01*
X20268553Y8508211D01*
X20272211Y8503222D01*
X20308857Y8469641D01*
X20395425Y8417111D01*
X20407690Y8415224D01*
X20407692Y8415223D01*
X20408201Y8415145D01*
X20432134Y8409012D01*
X22993226Y7476850D01*
X23015489Y7466172D01*
X23015943Y7465897D01*
X23015947Y7465896D01*
X23026556Y7459458D01*
X23070069Y7452761D01*
X23120507Y7444997D01*
X23120512Y7444997D01*
X23126624Y7444056D01*
X23132809Y7444326D01*
X23132810Y7444326D01*
X23170099Y7445954D01*
X23170100Y7445954D01*
X23176282Y7446224D01*
X23267061Y7468437D01*
X23340103Y7464449D01*
X26894034Y6170924D01*
X26951205Y6128830D01*
X26976543Y6062508D01*
X26962002Y5993017D01*
X26946200Y5970052D01*
X22468649Y798089D01*
X22468632Y798069D01*
X22467970Y797304D01*
X22457003Y783740D01*
X22446810Y770229D01*
X22444722Y766117D01*
X22414291Y732792D01*
X15334519Y-4636310D01*
X15202137Y-4736705D01*
X15135773Y-4761930D01*
X15066306Y-4747272D01*
X15015791Y-4697384D01*
X15000000Y-4636310D01*
X15000000Y-1692930D01*
X15021235Y-1622928D01*
X15069713Y-1550376D01*
X15073155Y-1545225D01*
X15092177Y-1499303D01*
X15111930Y-1400001D01*
X15109407Y-1387316D01*
X15106986Y-1362735D01*
X15106986Y1362737D01*
X15109407Y1387318D01*
X15109509Y1387831D01*
X15111930Y1400002D01*
X15092177Y1499303D01*
X15073155Y1545225D01*
X15069711Y1550380D01*
X15021235Y1622931D01*
X15000000Y1692932D01*
X15000000Y6289999D01*
X14267034Y6986996D01*
X14231453Y7048433D01*
X14234735Y7119354D01*
X14251203Y7151361D01*
X14302930Y7224046D01*
X14302933Y7224052D01*
X14306516Y7229086D01*
X14335606Y7293850D01*
X14355973Y7364849D01*
X14649028Y9497468D01*
X14759359Y10300365D01*
X14788449Y10365129D01*
X14847934Y10403884D01*
X14918929Y10404327D01*
X14978894Y10366317D01*
G37*
%TD.AperFunction*%
%TD*%
%TA.AperFunction,Conductor*%
%TO.N,Net-(D6-Pad2)*%
G36*
X17951366Y-3069893D02*
G01*
X18001881Y-3119781D01*
X18005865Y-3127601D01*
X18870060Y-4980873D01*
X20351183Y-8157151D01*
X20361521Y-8229569D01*
X20348247Y-8315809D01*
X20348247Y-8315818D01*
X20347305Y-8321935D01*
X20349473Y-8371594D01*
X20350944Y-8377605D01*
X20350944Y-8377606D01*
X20368643Y-8449934D01*
X20373538Y-8469940D01*
X20381185Y-8480369D01*
X20393767Y-8501623D01*
X21545600Y-10971737D01*
X21553793Y-10995035D01*
X21556868Y-11007600D01*
X21616736Y-11089250D01*
X21653383Y-11122831D01*
X21697401Y-11149542D01*
X21733281Y-11171315D01*
X21782109Y-11225782D01*
X22035509Y-11769199D01*
X23380458Y-14653452D01*
X23391119Y-14723644D01*
X23362139Y-14788456D01*
X23302719Y-14827313D01*
X23275313Y-14832376D01*
X16451026Y-15323475D01*
X16433683Y-15325311D01*
X16432653Y-15325455D01*
X16432638Y-15325457D01*
X16422433Y-15326885D01*
X16422427Y-15326886D01*
X16416928Y-15327656D01*
X16412543Y-15329087D01*
X16367460Y-15331134D01*
X12418287Y-14788456D01*
X7400176Y-14098889D01*
X7335412Y-14069799D01*
X7296657Y-14010314D01*
X7296214Y-13939319D01*
X7328234Y-13884967D01*
X9409518Y-11803683D01*
X9474034Y-11769199D01*
X9565688Y-11750970D01*
X9611611Y-11731949D01*
X9695799Y-11675697D01*
X9702693Y-11665380D01*
X9702987Y-11664940D01*
X9718658Y-11645845D01*
X11645851Y-9718652D01*
X11664944Y-9702982D01*
X11665384Y-9702688D01*
X11675700Y-9695795D01*
X11731949Y-9611611D01*
X11750970Y-9565688D01*
X11769201Y-9474031D01*
X11803685Y-9409516D01*
X15054302Y-6158899D01*
X15028869Y-5147761D01*
X15047152Y-5079160D01*
X15099621Y-5031333D01*
X15133899Y-5020345D01*
X15165324Y-5015051D01*
X15227973Y-5004498D01*
X15294337Y-4979273D01*
X15298273Y-4977092D01*
X15298279Y-4977089D01*
X15355004Y-4945654D01*
X15355006Y-4945653D01*
X15358943Y-4943471D01*
X15435385Y-4885500D01*
X17815535Y-3080460D01*
X17881899Y-3055235D01*
X17951366Y-3069893D01*
G37*
%TD.AperFunction*%
%TD*%
%TA.AperFunction,Conductor*%
%TO.N,Net-(D2-Pad2)*%
G36*
X7119354Y-14234735D02*
G01*
X7151361Y-14251203D01*
X7224046Y-14302930D01*
X7224052Y-14302933D01*
X7229086Y-14306516D01*
X7293850Y-14335606D01*
X7364849Y-14355973D01*
X10304635Y-14759946D01*
X10369398Y-14789035D01*
X10408153Y-14848520D01*
X10408596Y-14919515D01*
X10370586Y-14979480D01*
X10332121Y-15002599D01*
X10294361Y-15016905D01*
X10109880Y-15086798D01*
X9874608Y-15217480D01*
X9870976Y-15220252D01*
X9664289Y-15377990D01*
X9664285Y-15377994D01*
X9660664Y-15380757D01*
X9472531Y-15573208D01*
X9465298Y-15583145D01*
X9316838Y-15787107D01*
X9316833Y-15787114D01*
X9314150Y-15790801D01*
X9188839Y-16028978D01*
X9099223Y-16282749D01*
X9098340Y-16287231D01*
X9061529Y-16473996D01*
X9047179Y-16546800D01*
X9033798Y-16815597D01*
X9059359Y-17083511D01*
X9060444Y-17087945D01*
X9060445Y-17087951D01*
X9103542Y-17264073D01*
X9123327Y-17344929D01*
X9224363Y-17594374D01*
X9360349Y-17826621D01*
X9392317Y-17866595D01*
X9419241Y-17932288D01*
X9412315Y-17988385D01*
X8622481Y-20158436D01*
X8578584Y-20216953D01*
X8508220Y-20268545D01*
X8508211Y-20268553D01*
X8503222Y-20272211D01*
X8469641Y-20308857D01*
X8417111Y-20395425D01*
X8415224Y-20407690D01*
X8415223Y-20407692D01*
X8415145Y-20408201D01*
X8409012Y-20432134D01*
X7476850Y-22993226D01*
X7466172Y-23015489D01*
X7465897Y-23015943D01*
X7465896Y-23015947D01*
X7459458Y-23026556D01*
X7457571Y-23038818D01*
X7444997Y-23120507D01*
X7444997Y-23120512D01*
X7444056Y-23126624D01*
X7446224Y-23176282D01*
X7447695Y-23182293D01*
X7447695Y-23182294D01*
X7468437Y-23267061D01*
X7464449Y-23340104D01*
X6170924Y-26894035D01*
X6128830Y-26951206D01*
X6062508Y-26976544D01*
X5993017Y-26962003D01*
X5970056Y-26946204D01*
X2983107Y-24360297D01*
X798085Y-22468646D01*
X798065Y-22468629D01*
X797300Y-22467967D01*
X783736Y-22457000D01*
X770229Y-22446810D01*
X766117Y-22444722D01*
X732792Y-22414291D01*
X-2735908Y-17840415D01*
X-2759174Y-17788443D01*
X-2767391Y-17746393D01*
X-2768254Y-17741976D01*
X-3666692Y-15167516D01*
X-3670252Y-15096609D01*
X-3634912Y-15035033D01*
X-3571891Y-15002339D01*
X-3547728Y-15000000D01*
X-1692930Y-15000000D01*
X-1622928Y-15021235D01*
X-1545225Y-15073155D01*
X-1499303Y-15092177D01*
X-1400001Y-15111930D01*
X-1387830Y-15109509D01*
X-1387829Y-15109509D01*
X-1387316Y-15109407D01*
X-1362735Y-15106986D01*
X1362737Y-15106986D01*
X1387317Y-15109407D01*
X1400002Y-15111930D01*
X1412686Y-15109407D01*
X1428131Y-15106335D01*
X1499303Y-15092177D01*
X1512289Y-15086798D01*
X1539502Y-15075526D01*
X1539505Y-15075524D01*
X1545225Y-15073155D01*
X1550377Y-15069713D01*
X1550380Y-15069711D01*
X1622931Y-15021235D01*
X1692932Y-15000000D01*
X6289999Y-15000000D01*
X6986996Y-14267034D01*
X7048433Y-14231453D01*
X7119354Y-14234735D01*
G37*
%TD.AperFunction*%
%TD*%
%TA.AperFunction,Conductor*%
%TO.N,LED_OUT*%
G36*
X1682621Y14900651D02*
G01*
X1729114Y14846995D01*
X1740500Y14794653D01*
X1740500Y14286087D01*
X1745486Y14235463D01*
X1784232Y14141918D01*
X1789293Y14134344D01*
X1789751Y14132880D01*
X1790589Y14131313D01*
X1790292Y14131154D01*
X1810507Y14066591D01*
X1810375Y14058166D01*
X1810063Y14051803D01*
X1809986Y14050233D01*
X1809986Y13574765D01*
X1810063Y13573200D01*
X1810375Y13566836D01*
X1793738Y13497816D01*
X1789296Y13490661D01*
X1784234Y13483085D01*
X1760253Y13438220D01*
X1740500Y13338914D01*
X1740500Y12195582D01*
X1720498Y12127461D01*
X1666842Y12080968D01*
X1596568Y12070864D01*
X1576783Y12075712D01*
X1573630Y12076391D01*
X1566149Y12079018D01*
X1560584Y12079500D01*
X1557876Y12079500D01*
X1555242Y12079614D01*
X1555144Y12079643D01*
X1555151Y12079807D01*
X1554447Y12079851D01*
X1548222Y12081713D01*
X1494365Y12079597D01*
X1489418Y12079500D01*
X-3346075Y12079500D01*
X-3370033Y12082050D01*
X-3371692Y12082128D01*
X-3381876Y12084321D01*
X-3392218Y12083097D01*
X-3392221Y12083097D01*
X-3415221Y12080374D01*
X-3421152Y12080024D01*
X-3421144Y12079928D01*
X-3426320Y12079500D01*
X-3431524Y12079500D01*
X-3450588Y12076327D01*
X-3456434Y12075496D01*
X-3467883Y12074141D01*
X-3507341Y12069470D01*
X-3515593Y12065507D01*
X-3524626Y12064004D01*
X-3533795Y12059057D01*
X-3533797Y12059056D01*
X-3569745Y12039659D01*
X-3574998Y12036982D01*
X-3621231Y12014781D01*
X-3625507Y12011187D01*
X-3627447Y12009247D01*
X-3629359Y12007493D01*
X-3629448Y12007445D01*
X-3629560Y12007568D01*
X-3630096Y12007095D01*
X-3635814Y12004010D01*
X-3642881Y11996365D01*
X-3672416Y11964414D01*
X-3675846Y11960848D01*
X-4295289Y11341405D01*
X-4357601Y11307379D01*
X-4384384Y11304500D01*
X-7221075Y11304500D01*
X-7245033Y11307050D01*
X-7246692Y11307128D01*
X-7256876Y11309321D01*
X-7267218Y11308097D01*
X-7267221Y11308097D01*
X-7290221Y11305374D01*
X-7296152Y11305024D01*
X-7296144Y11304928D01*
X-7301320Y11304500D01*
X-7306524Y11304500D01*
X-7325588Y11301327D01*
X-7331434Y11300496D01*
X-7342883Y11299141D01*
X-7382341Y11294470D01*
X-7390593Y11290507D01*
X-7399626Y11289004D01*
X-7408795Y11284057D01*
X-7408797Y11284056D01*
X-7444732Y11264666D01*
X-7450025Y11261969D01*
X-7481527Y11246842D01*
X-7496232Y11239781D01*
X-7500507Y11236187D01*
X-7502432Y11234262D01*
X-7504362Y11232491D01*
X-7504447Y11232445D01*
X-7504559Y11232568D01*
X-7505094Y11232096D01*
X-7510814Y11229010D01*
X-7517881Y11221365D01*
X-7547416Y11189414D01*
X-7550846Y11185848D01*
X-10130216Y8606478D01*
X-10148964Y8591336D01*
X-10150189Y8590221D01*
X-10158940Y8584571D01*
X-10165387Y8576393D01*
X-10165389Y8576391D01*
X-10179729Y8558200D01*
X-10183675Y8553759D01*
X-10183602Y8553697D01*
X-10186961Y8549733D01*
X-10190638Y8546056D01*
X-10201892Y8530308D01*
X-10205398Y8525638D01*
X-10237156Y8485353D01*
X-10240188Y8476719D01*
X-10245514Y8469266D01*
X-10248499Y8459285D01*
X-10260201Y8420156D01*
X-10262036Y8414508D01*
X-10279018Y8366149D01*
X-10279500Y8360584D01*
X-10279500Y8357876D01*
X-10279614Y8355242D01*
X-10279643Y8355144D01*
X-10279807Y8355151D01*
X-10279851Y8354447D01*
X-10281713Y8348222D01*
X-10281304Y8337817D01*
X-10279597Y8294365D01*
X-10279500Y8289418D01*
X-10279500Y7520596D01*
X-10299502Y7452475D01*
X-10316405Y7431501D01*
X-10393135Y7354771D01*
X-10449868Y7243427D01*
X-10451419Y7233636D01*
X-10451419Y7233635D01*
X-10459027Y7185598D01*
X-10489439Y7121445D01*
X-10549707Y7083918D01*
X-10582682Y7079868D01*
X-10582673Y7079367D01*
X-10619917Y7078702D01*
X-10628929Y7078541D01*
X-10637528Y7075848D01*
X-10637530Y7075848D01*
X-10673188Y7064682D01*
X-10725554Y7048284D01*
X-10787866Y7014258D01*
X-10791466Y7011563D01*
X-10843390Y6972693D01*
X-10843394Y6972689D01*
X-10846992Y6969996D01*
X-11296589Y6520399D01*
X-11315147Y6499740D01*
X-11332050Y6478766D01*
X-11378987Y6389040D01*
X-11380731Y6383100D01*
X-11392065Y6344499D01*
X-11398989Y6320919D01*
X-11399629Y6316471D01*
X-11399630Y6316464D01*
X-11408861Y6252258D01*
X-11409500Y6247810D01*
X-11409500Y-1745646D01*
X-11407582Y-1777135D01*
X-11407349Y-1779037D01*
X-11405431Y-1794731D01*
X-11404500Y-1810020D01*
X-11404500Y-5944619D01*
X-11404499Y-5944623D01*
X-11404499Y-6280066D01*
X-11400938Y-6297968D01*
X-11393016Y-6337798D01*
X-11389734Y-6354301D01*
X-11333484Y-6438484D01*
X-11249301Y-6494734D01*
X-11222827Y-6500000D01*
X-12100000Y-6500000D01*
X-5000000Y-11000000D01*
X-2400000Y-8400000D01*
X-2400000Y-7519501D01*
X-2394070Y-7574660D01*
X-2382684Y-7627002D01*
X-2375334Y-7653792D01*
X-2371433Y-7660643D01*
X-2371432Y-7660645D01*
X-2337234Y-7720700D01*
X-2325231Y-7741779D01*
X-2278738Y-7795435D01*
X-2245449Y-7827557D01*
X-2155730Y-7874488D01*
X-2149794Y-7876231D01*
X-2091932Y-7893221D01*
X-2091928Y-7893222D01*
X-2087609Y-7894490D01*
X-2083161Y-7895130D01*
X-2083154Y-7895131D01*
X-2018948Y-7904362D01*
X-2018941Y-7904362D01*
X-2014500Y-7905001D01*
X-1804008Y-7905001D01*
X3968999Y-7905000D01*
X4037120Y-7925002D01*
X4083613Y-7978658D01*
X4094999Y-8031000D01*
X4094999Y-8174000D01*
X4100929Y-8229159D01*
X4112315Y-8281501D01*
X4119665Y-8308291D01*
X4123566Y-8315142D01*
X4123567Y-8315144D01*
X4152885Y-8366629D01*
X4169768Y-8396278D01*
X4182901Y-8411434D01*
X4207721Y-8440078D01*
X4216261Y-8449934D01*
X4249550Y-8482056D01*
X4339269Y-8528987D01*
X4345205Y-8530730D01*
X4403067Y-8547720D01*
X4403071Y-8547721D01*
X4407390Y-8548989D01*
X4411838Y-8549629D01*
X4411845Y-8549630D01*
X4476051Y-8558861D01*
X4476058Y-8558861D01*
X4480499Y-8559500D01*
X7074000Y-8559500D01*
X7077346Y-8559140D01*
X7077351Y-8559140D01*
X7125795Y-8553932D01*
X7125801Y-8553931D01*
X7129159Y-8553570D01*
X7181501Y-8542184D01*
X7208291Y-8534834D01*
X7215142Y-8530933D01*
X7215144Y-8530932D01*
X7290899Y-8487794D01*
X7296278Y-8484731D01*
X7349934Y-8438238D01*
X7382056Y-8404949D01*
X7428987Y-8315230D01*
X7430730Y-8309294D01*
X7447720Y-8251432D01*
X7447721Y-8251428D01*
X7448989Y-8247109D01*
X7451096Y-8232460D01*
X7458861Y-8178448D01*
X7458861Y-8178441D01*
X7459500Y-8174000D01*
X7459500Y-4885500D01*
X7458389Y-4875167D01*
X7470995Y-4805298D01*
X7519373Y-4753336D01*
X7546017Y-4741455D01*
X7593054Y-4726727D01*
X7593057Y-4726726D01*
X7598961Y-4724877D01*
X7604385Y-4721915D01*
X7604390Y-4721913D01*
X7657325Y-4693007D01*
X7657327Y-4693006D01*
X7661273Y-4690851D01*
X7667064Y-4686516D01*
X7716797Y-4649286D01*
X7716801Y-4649282D01*
X7720399Y-4646589D01*
X9746589Y-2620399D01*
X9765147Y-2599740D01*
X9782050Y-2578766D01*
X9828987Y-2489040D01*
X9848989Y-2420919D01*
X9859500Y-2347810D01*
X9859500Y-1280500D01*
X9879502Y-1212379D01*
X9933158Y-1165886D01*
X9985500Y-1154500D01*
X10590982Y-1154500D01*
X10602408Y-1153140D01*
X10608575Y-1152407D01*
X10608577Y-1152406D01*
X10617968Y-1151289D01*
X10723339Y-1104485D01*
X10743682Y-1084107D01*
X10796579Y-1031118D01*
X10796580Y-1031116D01*
X10804796Y-1022886D01*
X10828282Y-969762D01*
X10847584Y-926103D01*
X10847585Y-926100D01*
X10851416Y-917434D01*
X10854500Y-890982D01*
X10854500Y890982D01*
X10851289Y917968D01*
X10804485Y1023339D01*
X10796251Y1031559D01*
X10731118Y1096579D01*
X10731116Y1096580D01*
X10722886Y1104796D01*
X10712246Y1109500D01*
X10626103Y1147584D01*
X10626100Y1147585D01*
X10617434Y1151416D01*
X10608023Y1152513D01*
X10608020Y1152514D01*
X10601791Y1153240D01*
X10590982Y1154500D01*
X9985500Y1154500D01*
X9917379Y1174502D01*
X9870886Y1228158D01*
X9859500Y1280500D01*
X9859500Y1647810D01*
X9858014Y1675545D01*
X9855135Y1702328D01*
X9824877Y1798961D01*
X9821915Y1804385D01*
X9821913Y1804390D01*
X9793007Y1857325D01*
X9793006Y1857327D01*
X9790851Y1861273D01*
X9786516Y1867064D01*
X9749286Y1916797D01*
X9749282Y1916801D01*
X9746589Y1920399D01*
X8141582Y3525406D01*
X8107556Y3587718D01*
X8112621Y3658533D01*
X8155168Y3715369D01*
X8221688Y3740180D01*
X8230677Y3740501D01*
X10000000Y3740501D01*
X10099306Y3760254D01*
X10183494Y3816507D01*
X10239747Y3900695D01*
X10259500Y4000001D01*
X10259500Y7000000D01*
X10239747Y7099306D01*
X10209389Y7144740D01*
X10186933Y7178348D01*
X10186930Y7178351D01*
X10183494Y7183494D01*
X7456083Y9910905D01*
X7422057Y9973217D01*
X7427122Y10044032D01*
X7456083Y10089095D01*
X9017506Y11650518D01*
X9079818Y11684544D01*
X9150633Y11679479D01*
X9195692Y11650521D01*
X9226022Y11620191D01*
X9287189Y11574826D01*
X9351704Y11540342D01*
X9356070Y11538780D01*
X9356072Y11538779D01*
X9419032Y11516252D01*
X9419036Y11516251D01*
X9423407Y11514687D01*
X9427963Y11513781D01*
X9427966Y11513780D01*
X9446665Y11510061D01*
X9461049Y11507200D01*
X9523959Y11474294D01*
X9529820Y11468246D01*
X9535158Y11462357D01*
X11462351Y9535164D01*
X11463493Y9534129D01*
X11463494Y9534128D01*
X11468239Y9529827D01*
X11505279Y9469258D01*
X11507198Y9461051D01*
X11514684Y9423414D01*
X11516246Y9419048D01*
X11516247Y9419045D01*
X11528188Y9385672D01*
X11540340Y9351708D01*
X11574824Y9287192D01*
X11620189Y9226024D01*
X13701473Y7144740D01*
X13753248Y7104649D01*
X13807600Y7072629D01*
X13809652Y7071614D01*
X13833896Y7059619D01*
X13833899Y7059618D01*
X13841511Y7055852D01*
X13849853Y7054247D01*
X13849855Y7054246D01*
X13871230Y7050133D01*
X13896504Y7045270D01*
X13959617Y7012756D01*
X13991953Y6962202D01*
X13999162Y6941060D01*
X14006894Y6918381D01*
X14042475Y6856944D01*
X14088212Y6798946D01*
X14663113Y6252258D01*
X14701327Y6215919D01*
X14736908Y6154482D01*
X14740500Y6124611D01*
X14740500Y1692932D01*
X14741180Y1688350D01*
X14741180Y1688345D01*
X14746946Y1649477D01*
X14751674Y1617602D01*
X14772909Y1547601D01*
X14805467Y1478763D01*
X14815256Y1464112D01*
X14826794Y1446844D01*
X14848007Y1379090D01*
X14847875Y1370664D01*
X14847562Y1364300D01*
X14847561Y1364267D01*
X14847486Y1362737D01*
X14847486Y-1362735D01*
X14847563Y-1364300D01*
X14847875Y-1370664D01*
X14831238Y-1439684D01*
X14826792Y-1446845D01*
X14808051Y-1474892D01*
X14808048Y-1474897D01*
X14805469Y-1478757D01*
X14772909Y-1547599D01*
X14751674Y-1617601D01*
X14740500Y-1692930D01*
X14740500Y-4636310D01*
X14748762Y-4701269D01*
X14764553Y-4762343D01*
X14776669Y-4798186D01*
X14781432Y-4805219D01*
X14781434Y-4805223D01*
X14808070Y-4844553D01*
X14829707Y-4912172D01*
X14816825Y-4970783D01*
X14796404Y-5012333D01*
X14778121Y-5080934D01*
X14769451Y-5154286D01*
X14789331Y-5944619D01*
X14790726Y-6000089D01*
X14772443Y-6068691D01*
X14753861Y-6092352D01*
X11620191Y-9226022D01*
X11574826Y-9287189D01*
X11540342Y-9351704D01*
X11514687Y-9423407D01*
X11513781Y-9427963D01*
X11513780Y-9427966D01*
X11507200Y-9461049D01*
X11474294Y-9523959D01*
X11468246Y-9529820D01*
X11462357Y-9535158D01*
X9535164Y-11462351D01*
X9534129Y-11463493D01*
X9534128Y-11463494D01*
X9529827Y-11468239D01*
X9469258Y-11505279D01*
X9461051Y-11507198D01*
X9451581Y-11509082D01*
X9427968Y-11513778D01*
X9427965Y-11513779D01*
X9423414Y-11514684D01*
X9419048Y-11516246D01*
X9419045Y-11516247D01*
X9356076Y-11538777D01*
X9351708Y-11540340D01*
X9287192Y-11574824D01*
X9226024Y-11620189D01*
X7144740Y-13701473D01*
X7104649Y-13753248D01*
X7072629Y-13807600D01*
X7055852Y-13841511D01*
X7054247Y-13849853D01*
X7054246Y-13849855D01*
X7045270Y-13896503D01*
X7012756Y-13959617D01*
X6962202Y-13991953D01*
X6918381Y-14006894D01*
X6856944Y-14042475D01*
X6798946Y-14088212D01*
X6365732Y-14543783D01*
X6215919Y-14701327D01*
X6154482Y-14736908D01*
X6124611Y-14740500D01*
X1692932Y-14740500D01*
X1688350Y-14741180D01*
X1688345Y-14741180D01*
X1622190Y-14750993D01*
X1622184Y-14750994D01*
X1617602Y-14751674D01*
X1613168Y-14753019D01*
X1613164Y-14753020D01*
X1593346Y-14759032D01*
X1547601Y-14772909D01*
X1478763Y-14805467D01*
X1474911Y-14808041D01*
X1446844Y-14826794D01*
X1379090Y-14848007D01*
X1370664Y-14847875D01*
X1364300Y-14847562D01*
X1364267Y-14847561D01*
X1362737Y-14847486D01*
X-1362735Y-14847486D01*
X-1365041Y-14847599D01*
X-1370664Y-14847875D01*
X-1439684Y-14831238D01*
X-1446845Y-14826792D01*
X-1474892Y-14808051D01*
X-1474897Y-14808048D01*
X-1478757Y-14805469D01*
X-1547599Y-14772909D01*
X-1617601Y-14751674D01*
X-1640430Y-14748288D01*
X-1688343Y-14741180D01*
X-1688349Y-14741180D01*
X-1692930Y-14740500D01*
X-3547728Y-14740500D01*
X-3572731Y-14741707D01*
X-3574217Y-14741851D01*
X-3574233Y-14741852D01*
X-3583422Y-14742742D01*
X-3596894Y-14744046D01*
X-3691391Y-14771991D01*
X-3754412Y-14804685D01*
X-3756440Y-14805979D01*
X-3825375Y-14822680D01*
X-3874918Y-14809905D01*
X-3956427Y-14769845D01*
X-4025028Y-14751562D01*
X-4029502Y-14751033D01*
X-4029503Y-14751033D01*
X-4043230Y-14749411D01*
X-4098380Y-14742892D01*
X-4102874Y-14743005D01*
X-4102875Y-14743005D01*
X-4422039Y-14751033D01*
X-6000090Y-14790726D01*
X-6068691Y-14772443D01*
X-6092352Y-14753861D01*
X-9226022Y-11620191D01*
X-9287189Y-11574826D01*
X-9351704Y-11540342D01*
X-9356078Y-11538777D01*
X-9419032Y-11516252D01*
X-9419036Y-11516251D01*
X-9423407Y-11514687D01*
X-9427963Y-11513781D01*
X-9427966Y-11513780D01*
X-9446665Y-11510061D01*
X-9461049Y-11507200D01*
X-9523959Y-11474294D01*
X-9529827Y-11468239D01*
X-9535158Y-11462357D01*
X-11462351Y-9535164D01*
X-11468239Y-9529827D01*
X-11505279Y-9469258D01*
X-11507199Y-9461048D01*
X-11513778Y-9427968D01*
X-11513779Y-9427965D01*
X-11514684Y-9423414D01*
X-11540340Y-9351708D01*
X-11574824Y-9287192D01*
X-11620189Y-9226024D01*
X-13701473Y-7144740D01*
X-13753248Y-7104649D01*
X-13807600Y-7072629D01*
X-13817485Y-7067738D01*
X-13833896Y-7059619D01*
X-13833899Y-7059618D01*
X-13841511Y-7055852D01*
X-13849853Y-7054247D01*
X-13849855Y-7054246D01*
X-13876549Y-7049109D01*
X-13896504Y-7045270D01*
X-13959617Y-7012756D01*
X-13991953Y-6962202D01*
X-14004899Y-6924232D01*
X-14004899Y-6924231D01*
X-14006894Y-6918381D01*
X-14042475Y-6856944D01*
X-14088212Y-6798946D01*
X-14701327Y-6215918D01*
X-14736908Y-6154482D01*
X-14740500Y-6124611D01*
X-14740500Y-1692932D01*
X-14741180Y-1688345D01*
X-14750993Y-1622190D01*
X-14750994Y-1622184D01*
X-14751674Y-1617602D01*
X-14772909Y-1547601D01*
X-14805467Y-1478763D01*
X-14815256Y-1464112D01*
X-14826794Y-1446844D01*
X-14848007Y-1379090D01*
X-14847875Y-1370664D01*
X-14847562Y-1364300D01*
X-14847561Y-1364267D01*
X-14847486Y-1362737D01*
X-14847486Y1362735D01*
X-14847599Y1365041D01*
X-14847875Y1370664D01*
X-14831238Y1439684D01*
X-14826792Y1446845D01*
X-14808051Y1474892D01*
X-14808048Y1474897D01*
X-14805469Y1478757D01*
X-14772909Y1547599D01*
X-14751674Y1617601D01*
X-14743079Y1675545D01*
X-14741180Y1688343D01*
X-14741180Y1688349D01*
X-14740500Y1692930D01*
X-14740500Y4636310D01*
X-14748762Y4701269D01*
X-14764553Y4762343D01*
X-14776669Y4798186D01*
X-14781432Y4805219D01*
X-14781434Y4805223D01*
X-14808070Y4844553D01*
X-14829707Y4912172D01*
X-14816825Y4970784D01*
X-14799131Y5006785D01*
X-14799130Y5006787D01*
X-14796404Y5012334D01*
X-14778121Y5080936D01*
X-14769451Y5154287D01*
X-14790726Y6000090D01*
X-14772443Y6068691D01*
X-14753861Y6092352D01*
X-11620191Y9226022D01*
X-11574826Y9287189D01*
X-11560379Y9314218D01*
X-11542529Y9347612D01*
X-11542528Y9347614D01*
X-11540342Y9351704D01*
X-11538778Y9356076D01*
X-11516252Y9419032D01*
X-11516248Y9419045D01*
X-11514687Y9423407D01*
X-11507200Y9461049D01*
X-11474294Y9523959D01*
X-11468239Y9529827D01*
X-11462357Y9535158D01*
X-9535164Y11462351D01*
X-9529827Y11468239D01*
X-9469258Y11505279D01*
X-9461048Y11507199D01*
X-9461042Y11507200D01*
X-9451581Y11509082D01*
X-9427968Y11513778D01*
X-9427965Y11513779D01*
X-9423414Y11514684D01*
X-9419048Y11516246D01*
X-9419045Y11516247D01*
X-9356076Y11538777D01*
X-9356071Y11538779D01*
X-9351708Y11540340D01*
X-9287192Y11574824D01*
X-9226024Y11620189D01*
X-7144740Y13701473D01*
X-7104649Y13753248D01*
X-7072629Y13807600D01*
X-7055852Y13841511D01*
X-7045270Y13896504D01*
X-7012756Y13959617D01*
X-6962202Y13991953D01*
X-6924232Y14004899D01*
X-6924231Y14004899D01*
X-6918381Y14006894D01*
X-6856944Y14042475D01*
X-6798946Y14088212D01*
X-6215918Y14701327D01*
X-6154482Y14736908D01*
X-6124611Y14740500D01*
X-1692932Y14740500D01*
X-1688350Y14741180D01*
X-1688345Y14741180D01*
X-1622190Y14750993D01*
X-1622184Y14750994D01*
X-1617602Y14751674D01*
X-1613168Y14753019D01*
X-1613164Y14753020D01*
X-1593346Y14759032D01*
X-1547601Y14772909D01*
X-1478763Y14805467D01*
X-1446845Y14826794D01*
X-1379090Y14848007D01*
X-1370664Y14847875D01*
X-1364300Y14847562D01*
X-1364267Y14847561D01*
X-1362737Y14847486D01*
X1335847Y14847486D01*
X1340197Y14848096D01*
X1340201Y14848096D01*
X1379768Y14853642D01*
X1407190Y14857486D01*
X1411402Y14858690D01*
X1411405Y14858691D01*
X1471211Y14875792D01*
X1471220Y14875795D01*
X1473801Y14876533D01*
X1515313Y14892358D01*
X1522422Y14897721D01*
X1530206Y14902026D01*
X1531399Y14899869D01*
X1585574Y14920299D01*
X1595017Y14920653D01*
X1614500Y14920653D01*
X1682621Y14900651D01*
G37*
%TD.AperFunction*%
%TD*%
%TA.AperFunction,Conductor*%
%TO.N,Net-(D15-Pad2)*%
G36*
X5347941Y34144096D02*
G01*
X5363245Y34132320D01*
X14633601Y25793609D01*
X14670871Y25733182D01*
X14672429Y25674740D01*
X14672474Y25674734D01*
X14672436Y25674471D01*
X14672470Y25673207D01*
X14670881Y25665885D01*
X14665644Y25592210D01*
X14665967Y25587722D01*
X14795946Y23781530D01*
X14780885Y23712149D01*
X14730705Y23661925D01*
X14684504Y23648817D01*
X14684677Y23647677D01*
X14614485Y23637016D01*
X14543783Y23615645D01*
X14539712Y23613747D01*
X14539705Y23613744D01*
X11120313Y22019255D01*
X11120308Y22019252D01*
X11116113Y22017296D01*
X11052563Y21975333D01*
X10998096Y21926505D01*
X10949466Y21867904D01*
X10947062Y21863942D01*
X10929552Y21835087D01*
X10877112Y21787227D01*
X10869417Y21783784D01*
X10862068Y21780787D01*
X8391954Y20628954D01*
X8383872Y20624691D01*
X8310873Y20610937D01*
X8305798Y20611513D01*
X8302860Y20611728D01*
X8291556Y20612557D01*
X8291551Y20612557D01*
X8285817Y20612977D01*
X8217497Y20605470D01*
X8197866Y20603313D01*
X8197864Y20603313D01*
X8192143Y20602684D01*
X8186634Y20601028D01*
X8186630Y20601027D01*
X8147524Y20589270D01*
X8124153Y20582244D01*
X8081217Y20565030D01*
X8074136Y20559456D01*
X8068976Y20555394D01*
X8003078Y20528974D01*
X7933358Y20542376D01*
X7901944Y20565303D01*
X1754670Y26712577D01*
X1720644Y26774889D01*
X1725709Y26845704D01*
X1740838Y26874349D01*
X1764596Y26907993D01*
X1797335Y27003806D01*
X1806743Y27074177D01*
X1806458Y27102973D01*
X1807381Y27110394D01*
X1806757Y27110421D01*
X1807269Y27122144D01*
X1810756Y27146580D01*
X1811759Y27150681D01*
X1822709Y27179539D01*
X1828436Y27190395D01*
X1828442Y27190408D01*
X1829152Y27191753D01*
X1829788Y27193116D01*
X1829797Y27193135D01*
X2886411Y29459053D01*
X2980993Y29661884D01*
X2983984Y29669219D01*
X3028229Y29724741D01*
X3035273Y29729345D01*
X3068099Y29749264D01*
X3126701Y29797894D01*
X3175531Y29852363D01*
X3217495Y29915914D01*
X3508330Y30539611D01*
X5164786Y34091892D01*
X5211703Y34145177D01*
X5279981Y34164638D01*
X5347941Y34144096D01*
G37*
%TD.AperFunction*%
%TD*%
%TA.AperFunction,Conductor*%
%TO.N,Net-(D7-Pad2)*%
G36*
X22438249Y321285D02*
G01*
X22472751Y291765D01*
X22473419Y292388D01*
X22477642Y287861D01*
X22481401Y282942D01*
X22486047Y278852D01*
X22486049Y278849D01*
X22516931Y251659D01*
X22534686Y236025D01*
X22596504Y195601D01*
X26847282Y-1786569D01*
X26851722Y-1787889D01*
X26851726Y-1787891D01*
X26915823Y-1806954D01*
X26915829Y-1806955D01*
X26920273Y-1808277D01*
X26992688Y-1818616D01*
X26997323Y-1818591D01*
X26997327Y-1818591D01*
X27029212Y-1818417D01*
X27068842Y-1818201D01*
X27106782Y-1812361D01*
X27177150Y-1821768D01*
X27184728Y-1825446D01*
X27191751Y-1829151D01*
X29661884Y-2980993D01*
X29669219Y-2983984D01*
X29724741Y-3028229D01*
X29729345Y-3035273D01*
X29749264Y-3068099D01*
X29797894Y-3126701D01*
X29852363Y-3175531D01*
X29915914Y-3217495D01*
X29920116Y-3219454D01*
X29920117Y-3219455D01*
X34091892Y-5164786D01*
X34145177Y-5211703D01*
X34164638Y-5279981D01*
X34144096Y-5347941D01*
X34132320Y-5363245D01*
X25793609Y-14633601D01*
X25733182Y-14670871D01*
X25674740Y-14672429D01*
X25674734Y-14672474D01*
X25674471Y-14672436D01*
X25673207Y-14672470D01*
X25670290Y-14671837D01*
X25670287Y-14671837D01*
X25665885Y-14670881D01*
X25592210Y-14665644D01*
X25480716Y-14673667D01*
X23781530Y-14795946D01*
X23712149Y-14780885D01*
X23661925Y-14730705D01*
X23648817Y-14684504D01*
X23647677Y-14684677D01*
X23637693Y-14618943D01*
X23637016Y-14614485D01*
X23615645Y-14543783D01*
X23613747Y-14539712D01*
X23613744Y-14539705D01*
X22019255Y-11120313D01*
X22019252Y-11120308D01*
X22017296Y-11116113D01*
X21975333Y-11052563D01*
X21926505Y-10998096D01*
X21867904Y-10949466D01*
X21835087Y-10929552D01*
X21787227Y-10877112D01*
X21783781Y-10869410D01*
X21781368Y-10863493D01*
X21780787Y-10862068D01*
X20628954Y-8391954D01*
X20625254Y-8384940D01*
X20611159Y-8315358D01*
X20612162Y-8306979D01*
X20617297Y-8273619D01*
X20617297Y-8273617D01*
X20618001Y-8269044D01*
X20618417Y-8192896D01*
X20608079Y-8120478D01*
X20586370Y-8047482D01*
X19264657Y-5213059D01*
X18241267Y-3018392D01*
X18241246Y-3018349D01*
X18241052Y-3017932D01*
X18237087Y-3009802D01*
X18233103Y-3001982D01*
X18230130Y-2997916D01*
X18230126Y-2997910D01*
X18194147Y-2948711D01*
X18170082Y-2881917D01*
X18185949Y-2812716D01*
X18219717Y-2773940D01*
X20386089Y-1131024D01*
X20386457Y-1130746D01*
X22302380Y311215D01*
X22368836Y336197D01*
X22438249Y321285D01*
G37*
%TD.AperFunction*%
%TD*%
%TA.AperFunction,Conductor*%
%TO.N,Net-(D19-Pad2)*%
G36*
X-8736680Y23927726D02*
G01*
X-8329393Y23779485D01*
X-8272223Y23737392D01*
X-8246885Y23671070D01*
X-8246574Y23656464D01*
X-8246933Y23646681D01*
X-8245899Y23640436D01*
X-8239271Y23600410D01*
X-8230024Y23544561D01*
X-8226774Y23536053D01*
X-8167852Y23445160D01*
X-8083664Y23388907D01*
X-7984358Y23369154D01*
X-7803153Y23369154D01*
X-7735032Y23349152D01*
X-7688539Y23295496D01*
X-7678435Y23225222D01*
X-7684528Y23201841D01*
X-7684404Y23201803D01*
X-7705914Y23131149D01*
X-7706599Y23126699D01*
X-7706954Y23124395D01*
X-7715339Y23094726D01*
X-7720700Y23081980D01*
X-8652862Y20520888D01*
X-8653322Y20519402D01*
X-8653322Y20519401D01*
X-8655211Y20513294D01*
X-8694452Y20454128D01*
X-8701078Y20448920D01*
X-8728286Y20428970D01*
X-8728290Y20428967D01*
X-8732029Y20426225D01*
X-8786168Y20372674D01*
X-8830065Y20314157D01*
X-8832272Y20310082D01*
X-8832273Y20310080D01*
X-8864122Y20251270D01*
X-8864125Y20251264D01*
X-8866331Y20247190D01*
X-8867918Y20242831D01*
X-8867918Y20242830D01*
X-9572488Y18307041D01*
X-9614582Y18249870D01*
X-9680904Y18224532D01*
X-9750395Y18239073D01*
X-9762704Y18246606D01*
X-9946237Y18373927D01*
X-10187196Y18493802D01*
X-10191530Y18495223D01*
X-10191533Y18495224D01*
X-10438603Y18576218D01*
X-10438609Y18576219D01*
X-10442936Y18577638D01*
X-10447428Y18578418D01*
X-10704318Y18623022D01*
X-10704326Y18623023D01*
X-10708099Y18623678D01*
X-10718062Y18624174D01*
X-10791557Y18627833D01*
X-10791565Y18627833D01*
X-10793128Y18627911D01*
X-10961154Y18627911D01*
X-10963422Y18627746D01*
X-10963434Y18627746D01*
X-11094237Y18618255D01*
X-11161205Y18613396D01*
X-11165660Y18612412D01*
X-11165663Y18612412D01*
X-11419550Y18556358D01*
X-11419552Y18556357D01*
X-11424006Y18555374D01*
X-11675680Y18460024D01*
X-11679666Y18457810D01*
X-11679668Y18457809D01*
X-11906959Y18331560D01*
X-11910952Y18329342D01*
X-11914584Y18326570D01*
X-12121271Y18168832D01*
X-12121275Y18168828D01*
X-12124896Y18166065D01*
X-12313029Y17973614D01*
X-12315714Y17969925D01*
X-12468722Y17759715D01*
X-12468727Y17759708D01*
X-12471410Y17756021D01*
X-12596721Y17517844D01*
X-12686337Y17264073D01*
X-12738381Y17000022D01*
X-12751762Y16731225D01*
X-12726201Y16463311D01*
X-12662233Y16201893D01*
X-12561197Y15952448D01*
X-12425211Y15720201D01*
X-12257122Y15510016D01*
X-12060453Y15326298D01*
X-11908568Y15220932D01*
X-11863998Y15165670D01*
X-11856381Y15095083D01*
X-11888135Y15031583D01*
X-11949179Y14995331D01*
X-11997541Y14992578D01*
X-12778044Y15099831D01*
X-13615534Y15214915D01*
X-13615597Y15214924D01*
X-15990228Y15550101D01*
X-16054884Y15579427D01*
X-16093421Y15639054D01*
X-16096942Y15684326D01*
X-16097856Y15684358D01*
X-16097641Y15690543D01*
X-16096821Y15696680D01*
X-16101324Y15767534D01*
X-16104945Y15784841D01*
X-16115531Y15835427D01*
X-16116452Y15839829D01*
X-17720600Y20247189D01*
X-17756864Y20314154D01*
X-17759642Y20317857D01*
X-17759645Y20317862D01*
X-17797978Y20368962D01*
X-17800760Y20372671D01*
X-17854901Y20426225D01*
X-17885856Y20448922D01*
X-17928963Y20505329D01*
X-17931721Y20513294D01*
X-17934067Y20520878D01*
X-18216444Y21296704D01*
X-18865701Y23080521D01*
X-18866237Y23081994D01*
X-18871592Y23094726D01*
X-18879981Y23124412D01*
X-18880621Y23128571D01*
X-18881967Y23153228D01*
X-18881725Y23158774D01*
X-18881725Y23158775D01*
X-18881455Y23164963D01*
X-18883926Y23181004D01*
X-18884084Y23197285D01*
X-18884010Y23197291D01*
X-18886898Y23232995D01*
X-18872453Y23302507D01*
X-18822721Y23353174D01*
X-18761308Y23369154D01*
X-18605428Y23369154D01*
X-18538762Y23377863D01*
X-18529519Y23382398D01*
X-18529517Y23382399D01*
X-18488019Y23402762D01*
X-18447864Y23422466D01*
X-18380953Y23498458D01*
X-18348216Y23594272D01*
X-18347396Y23600405D01*
X-18347395Y23600410D01*
X-18343779Y23627465D01*
X-18343182Y23631931D01*
X-18343227Y23636427D01*
X-18343226Y23636435D01*
X-18343447Y23658745D01*
X-18324119Y23727060D01*
X-18270925Y23774081D01*
X-18260547Y23778391D01*
X-17982914Y23879441D01*
X-17850248Y23927727D01*
X-17779396Y23932230D01*
X-17717355Y23897712D01*
X-17688756Y23852422D01*
X-17575007Y23539900D01*
X-17570904Y23529348D01*
X-17514651Y23445160D01*
X-17430463Y23388907D01*
X-17331157Y23369154D01*
X-9255775Y23369154D01*
X-9244456Y23369401D01*
X-9237776Y23371036D01*
X-9237773Y23371036D01*
X-9158160Y23390517D01*
X-9158158Y23390518D01*
X-9146106Y23393467D01*
X-9093853Y23431780D01*
X-9074458Y23446001D01*
X-9074457Y23446002D01*
X-9064452Y23453338D01*
X-9011925Y23539899D01*
X-9007955Y23550805D01*
X-8898176Y23852420D01*
X-8856082Y23909591D01*
X-8789760Y23934929D01*
X-8736680Y23927726D01*
G37*
%TD.AperFunction*%
%TD*%
%TA.AperFunction,Conductor*%
%TO.N,Net-(D23-Pad2)*%
G36*
X-23712149Y14780885D02*
G01*
X-23661925Y14730705D01*
X-23648817Y14684504D01*
X-23647677Y14684677D01*
X-23637016Y14614485D01*
X-23615645Y14543783D01*
X-23613747Y14539712D01*
X-23613744Y14539705D01*
X-22390526Y11916506D01*
X-22017297Y11116114D01*
X-21975333Y11052564D01*
X-21972231Y11049104D01*
X-21929602Y11001551D01*
X-21929597Y11001546D01*
X-21926504Y10998096D01*
X-21922943Y10995141D01*
X-21922938Y10995136D01*
X-21893683Y10970859D01*
X-21867904Y10949466D01*
X-21863951Y10947067D01*
X-21863945Y10947063D01*
X-21835087Y10929552D01*
X-21787227Y10877112D01*
X-21783784Y10869417D01*
X-21780787Y10862068D01*
X-20628954Y8391954D01*
X-20628243Y8390607D01*
X-20628235Y8390590D01*
X-20625254Y8384940D01*
X-20611159Y8315357D01*
X-20612160Y8306992D01*
X-20618001Y8269044D01*
X-20618417Y8192895D01*
X-20608079Y8120478D01*
X-20586370Y8047483D01*
X-18241054Y3017936D01*
X-18240839Y3017496D01*
X-18240827Y3017470D01*
X-18237340Y3010321D01*
X-18237089Y3009807D01*
X-18233103Y3001983D01*
X-18194146Y2948710D01*
X-18170081Y2881917D01*
X-18185948Y2812716D01*
X-18219716Y2773940D01*
X-20386089Y1131024D01*
X-20386457Y1130746D01*
X-22302380Y-311215D01*
X-22368836Y-336197D01*
X-22438249Y-321285D01*
X-22472751Y-291765D01*
X-22473419Y-292388D01*
X-22477642Y-287861D01*
X-22481401Y-282942D01*
X-22486047Y-278852D01*
X-22486049Y-278849D01*
X-22531312Y-238996D01*
X-22534686Y-236025D01*
X-22596504Y-195601D01*
X-26847282Y1786569D01*
X-26851722Y1787889D01*
X-26851726Y1787891D01*
X-26915823Y1806954D01*
X-26915829Y1806955D01*
X-26920273Y1808277D01*
X-26992688Y1818616D01*
X-26997323Y1818591D01*
X-26997327Y1818591D01*
X-27029212Y1818417D01*
X-27068842Y1818201D01*
X-27106782Y1812361D01*
X-27177150Y1821768D01*
X-27184728Y1825446D01*
X-27191751Y1829151D01*
X-29661884Y2980993D01*
X-29669219Y2983984D01*
X-29724741Y3028229D01*
X-29729345Y3035273D01*
X-29749264Y3068099D01*
X-29797894Y3126701D01*
X-29852363Y3175531D01*
X-29915914Y3217495D01*
X-29920117Y3219455D01*
X-34091892Y5164786D01*
X-34145177Y5211703D01*
X-34164638Y5279981D01*
X-34144096Y5347941D01*
X-34132320Y5363245D01*
X-25793609Y14633601D01*
X-25733182Y14670871D01*
X-25674740Y14672429D01*
X-25674734Y14672474D01*
X-25674471Y14672436D01*
X-25673207Y14672470D01*
X-25670290Y14671837D01*
X-25670287Y14671837D01*
X-25665885Y14670881D01*
X-25592210Y14665644D01*
X-25480716Y14673667D01*
X-23781530Y14795946D01*
X-23712149Y14780885D01*
G37*
%TD.AperFunction*%
%TD*%
%TA.AperFunction,Conductor*%
%TO.N,Net-(D3-Pad2)*%
G36*
X13615508Y-15214911D02*
G01*
X15990228Y-15550101D01*
X16054884Y-15579427D01*
X16093421Y-15639054D01*
X16096942Y-15684326D01*
X16097856Y-15684358D01*
X16097641Y-15690543D01*
X16096821Y-15696680D01*
X16101324Y-15767534D01*
X16102244Y-15771932D01*
X16102245Y-15771937D01*
X16111788Y-15817542D01*
X16116452Y-15839829D01*
X17720600Y-20247189D01*
X17756864Y-20314154D01*
X17759642Y-20317857D01*
X17759645Y-20317862D01*
X17759650Y-20317868D01*
X17800760Y-20372671D01*
X17854901Y-20426225D01*
X17885856Y-20448922D01*
X17928963Y-20505329D01*
X17931719Y-20513286D01*
X17934067Y-20520878D01*
X17934601Y-20522346D01*
X17934604Y-20522354D01*
X18316681Y-21572101D01*
X18866237Y-23081994D01*
X18866840Y-23083427D01*
X18866846Y-23083443D01*
X18869309Y-23089298D01*
X18877283Y-23159846D01*
X18875556Y-23168089D01*
X18866431Y-23205380D01*
X18859380Y-23281208D01*
X18863368Y-23354250D01*
X18864298Y-23358794D01*
X18877700Y-23424304D01*
X18877702Y-23424310D01*
X18878632Y-23428857D01*
X20454552Y-27758664D01*
X20459055Y-27829516D01*
X20424537Y-27891556D01*
X20361957Y-27925086D01*
X20342808Y-27927581D01*
X17464845Y-28079846D01*
X7891316Y-28586354D01*
X7822236Y-28569980D01*
X7779814Y-28529760D01*
X7779776Y-28529789D01*
X7779607Y-28529564D01*
X7778692Y-28528696D01*
X7777083Y-28526195D01*
X7777080Y-28526191D01*
X7774644Y-28522404D01*
X7726248Y-28466601D01*
X7246259Y-28051057D01*
X6353765Y-27278394D01*
X6315356Y-27218684D01*
X6315324Y-27147688D01*
X6338728Y-27105750D01*
X6337798Y-27105065D01*
X6377221Y-27051522D01*
X6377222Y-27051520D01*
X6379892Y-27047894D01*
X6409470Y-26992689D01*
X6412648Y-26986758D01*
X6412651Y-26986752D01*
X6414774Y-26982789D01*
X6895375Y-25662350D01*
X7706709Y-23433226D01*
X7708299Y-23428858D01*
X7723563Y-23354251D01*
X7727551Y-23281208D01*
X7720501Y-23205383D01*
X7711377Y-23168095D01*
X7714614Y-23097174D01*
X7717625Y-23089290D01*
X7720085Y-23083443D01*
X7720700Y-23081980D01*
X8652862Y-20520888D01*
X8655211Y-20513294D01*
X8694452Y-20454128D01*
X8701078Y-20448920D01*
X8728286Y-20428970D01*
X8728290Y-20428967D01*
X8732029Y-20426225D01*
X8786168Y-20372674D01*
X8830065Y-20314157D01*
X8832273Y-20310080D01*
X8864122Y-20251270D01*
X8864125Y-20251264D01*
X8866331Y-20247190D01*
X8867918Y-20242830D01*
X9572488Y-18307041D01*
X9614582Y-18249870D01*
X9680904Y-18224532D01*
X9750395Y-18239073D01*
X9762704Y-18246606D01*
X9946237Y-18373927D01*
X10187196Y-18493802D01*
X10191530Y-18495223D01*
X10191533Y-18495224D01*
X10438603Y-18576218D01*
X10438609Y-18576219D01*
X10442936Y-18577638D01*
X10447427Y-18578418D01*
X10447428Y-18578418D01*
X10704318Y-18623022D01*
X10704326Y-18623023D01*
X10708099Y-18623678D01*
X10711936Y-18623869D01*
X10791557Y-18627833D01*
X10791565Y-18627833D01*
X10793128Y-18627911D01*
X10961154Y-18627911D01*
X10963422Y-18627746D01*
X10963434Y-18627746D01*
X11094237Y-18618255D01*
X11161205Y-18613396D01*
X11165660Y-18612412D01*
X11165663Y-18612412D01*
X11419550Y-18556358D01*
X11419552Y-18556357D01*
X11424006Y-18555374D01*
X11675680Y-18460024D01*
X11835369Y-18371325D01*
X11906959Y-18331560D01*
X11906960Y-18331559D01*
X11910952Y-18329342D01*
X12053538Y-18220524D01*
X12121271Y-18168832D01*
X12121275Y-18168828D01*
X12124896Y-18166065D01*
X12313029Y-17973614D01*
X12370635Y-17894472D01*
X12468722Y-17759715D01*
X12468727Y-17759708D01*
X12471410Y-17756021D01*
X12596721Y-17517844D01*
X12686337Y-17264073D01*
X12738381Y-17000022D01*
X12751762Y-16731225D01*
X12726201Y-16463311D01*
X12662233Y-16201893D01*
X12561197Y-15952448D01*
X12425211Y-15720201D01*
X12257122Y-15510016D01*
X12060453Y-15326298D01*
X12056707Y-15323700D01*
X12056698Y-15323692D01*
X11908568Y-15220931D01*
X11863998Y-15165668D01*
X11856381Y-15095081D01*
X11888135Y-15031582D01*
X11949179Y-14995330D01*
X11997538Y-14992577D01*
X13615508Y-15214911D01*
G37*
%TD.AperFunction*%
%TD*%
%TA.AperFunction,Conductor*%
%TO.N,Net-(D27-Pad2)*%
G36*
X-27105750Y-6338728D02*
G01*
X-27105065Y-6337798D01*
X-27095981Y-6344486D01*
X-27047895Y-6379891D01*
X-27013479Y-6398330D01*
X-26986759Y-6412647D01*
X-26986753Y-6412650D01*
X-26982790Y-6414773D01*
X-26978565Y-6416311D01*
X-26978560Y-6416313D01*
X-24606275Y-7279754D01*
X-23428857Y-7708299D01*
X-23424310Y-7709229D01*
X-23424304Y-7709231D01*
X-23397991Y-7714614D01*
X-23354250Y-7723563D01*
X-23349625Y-7723816D01*
X-23349621Y-7723816D01*
X-23317729Y-7725557D01*
X-23281208Y-7727551D01*
X-23276595Y-7727122D01*
X-23276590Y-7727122D01*
X-23238316Y-7723563D01*
X-23205383Y-7720501D01*
X-23168095Y-7711377D01*
X-23097174Y-7714614D01*
X-23089301Y-7717621D01*
X-23081980Y-7720700D01*
X-20520888Y-8652862D01*
X-20519402Y-8653322D01*
X-20519401Y-8653322D01*
X-20513294Y-8655211D01*
X-20454128Y-8694452D01*
X-20448920Y-8701078D01*
X-20428970Y-8728286D01*
X-20426225Y-8732029D01*
X-20372674Y-8786168D01*
X-20314157Y-8830065D01*
X-20310081Y-8832272D01*
X-20310080Y-8832273D01*
X-20251270Y-8864122D01*
X-20251264Y-8864125D01*
X-20247190Y-8866331D01*
X-18305568Y-9573024D01*
X-18248398Y-9615117D01*
X-18223060Y-9681438D01*
X-18237601Y-9750930D01*
X-18246793Y-9765574D01*
X-18349353Y-9906476D01*
X-18349358Y-9906483D01*
X-18352041Y-9910170D01*
X-18477352Y-10148347D01*
X-18566968Y-10402118D01*
X-18567851Y-10406600D01*
X-18617972Y-10660894D01*
X-18619012Y-10666169D01*
X-18632393Y-10934966D01*
X-18606832Y-11202880D01*
X-18605747Y-11207314D01*
X-18605746Y-11207320D01*
X-18562649Y-11383442D01*
X-18542864Y-11464298D01*
X-18441828Y-11713743D01*
X-18305842Y-11945990D01*
X-18137753Y-12156175D01*
X-17941084Y-12339893D01*
X-17719954Y-12493296D01*
X-17478995Y-12613171D01*
X-17474661Y-12614592D01*
X-17474658Y-12614593D01*
X-17227588Y-12695587D01*
X-17227582Y-12695588D01*
X-17223255Y-12697007D01*
X-17218764Y-12697787D01*
X-17218763Y-12697787D01*
X-16961873Y-12742391D01*
X-16961865Y-12742392D01*
X-16958092Y-12743047D01*
X-16954255Y-12743238D01*
X-16874634Y-12747202D01*
X-16874626Y-12747202D01*
X-16873063Y-12747280D01*
X-16705037Y-12747280D01*
X-16702769Y-12747115D01*
X-16702757Y-12747115D01*
X-16571954Y-12737624D01*
X-16504986Y-12732765D01*
X-16500531Y-12731781D01*
X-16500528Y-12731781D01*
X-16246641Y-12675727D01*
X-16246639Y-12675726D01*
X-16242185Y-12674743D01*
X-15990511Y-12579393D01*
X-15755239Y-12448711D01*
X-15608569Y-12336776D01*
X-15544920Y-12288201D01*
X-15544916Y-12288197D01*
X-15541295Y-12285434D01*
X-15353162Y-12092983D01*
X-15219750Y-11909694D01*
X-15163490Y-11866389D01*
X-15092749Y-11860375D01*
X-15029986Y-11893562D01*
X-14995129Y-11955413D01*
X-14993052Y-12000996D01*
X-15193996Y-13463308D01*
X-15214888Y-13615340D01*
X-15214952Y-13615797D01*
X-15550101Y-15990227D01*
X-15579427Y-16054884D01*
X-15639054Y-16093421D01*
X-15684326Y-16096942D01*
X-15684358Y-16097856D01*
X-15690543Y-16097641D01*
X-15696680Y-16096821D01*
X-15726982Y-16098747D01*
X-15763041Y-16101038D01*
X-15763047Y-16101039D01*
X-15767534Y-16101324D01*
X-15771932Y-16102244D01*
X-15771937Y-16102245D01*
X-15817542Y-16111788D01*
X-15839829Y-16116452D01*
X-20247189Y-17720600D01*
X-20314154Y-17756864D01*
X-20317857Y-17759642D01*
X-20317862Y-17759645D01*
X-20351435Y-17784830D01*
X-20372671Y-17800760D01*
X-20426225Y-17854901D01*
X-20448922Y-17885856D01*
X-20505329Y-17928963D01*
X-20513286Y-17931719D01*
X-20520878Y-17934067D01*
X-20522346Y-17934601D01*
X-20522354Y-17934604D01*
X-21302016Y-18218378D01*
X-23081994Y-18866237D01*
X-23083427Y-18866840D01*
X-23083443Y-18866846D01*
X-23089298Y-18869309D01*
X-23159846Y-18877283D01*
X-23168098Y-18875554D01*
X-23200877Y-18867533D01*
X-23200882Y-18867532D01*
X-23205382Y-18866431D01*
X-23213232Y-18865701D01*
X-23276592Y-18859809D01*
X-23276596Y-18859809D01*
X-23281209Y-18859380D01*
X-23317729Y-18861374D01*
X-23349621Y-18863115D01*
X-23349624Y-18863115D01*
X-23354250Y-18863368D01*
X-23383288Y-18869309D01*
X-23424304Y-18877700D01*
X-23424310Y-18877702D01*
X-23428857Y-18878632D01*
X-25995791Y-19812920D01*
X-27758662Y-20454552D01*
X-27829516Y-20459055D01*
X-27891556Y-20424537D01*
X-27925086Y-20361957D01*
X-27927581Y-20342808D01*
X-28151104Y-16117991D01*
X-28586354Y-7891316D01*
X-28569980Y-7822236D01*
X-28529760Y-7779814D01*
X-28529789Y-7779776D01*
X-28529564Y-7779607D01*
X-28528696Y-7778692D01*
X-28526195Y-7777083D01*
X-28526191Y-7777080D01*
X-28522404Y-7774644D01*
X-28466601Y-7726248D01*
X-28461625Y-7720501D01*
X-27448823Y-6550626D01*
X-27278394Y-6353765D01*
X-27218684Y-6315356D01*
X-27147688Y-6315324D01*
X-27105750Y-6338728D01*
G37*
%TD.AperFunction*%
%TD*%
%TA.AperFunction,Conductor*%
%TO.N,Net-(D31-Pad2)*%
G36*
X-2797940Y-18199929D02*
G01*
X-2766918Y-18228975D01*
X-1131068Y-20386031D01*
X-1130790Y-20386399D01*
X311215Y-22302380D01*
X336197Y-22368836D01*
X321285Y-22438249D01*
X291765Y-22472751D01*
X292388Y-22473419D01*
X287861Y-22477642D01*
X282942Y-22481401D01*
X236025Y-22534686D01*
X195601Y-22596504D01*
X-1786569Y-26847281D01*
X-1808277Y-26920273D01*
X-1818616Y-26992689D01*
X-1818201Y-27068842D01*
X-1812361Y-27106782D01*
X-1821768Y-27177150D01*
X-1825446Y-27184728D01*
X-1829151Y-27191751D01*
X-2980993Y-29661884D01*
X-2983984Y-29669219D01*
X-3028229Y-29724741D01*
X-3035273Y-29729345D01*
X-3068099Y-29749264D01*
X-3126701Y-29797894D01*
X-3175531Y-29852363D01*
X-3217495Y-29915914D01*
X-3219454Y-29920116D01*
X-3219455Y-29920117D01*
X-5164786Y-34091892D01*
X-5211703Y-34145177D01*
X-5279981Y-34164638D01*
X-5347941Y-34144096D01*
X-5363245Y-34132320D01*
X-14633601Y-25793609D01*
X-14670871Y-25733182D01*
X-14672429Y-25674740D01*
X-14672474Y-25674734D01*
X-14672436Y-25674471D01*
X-14672470Y-25673207D01*
X-14671837Y-25670290D01*
X-14671837Y-25670287D01*
X-14670881Y-25665885D01*
X-14665644Y-25592210D01*
X-14795946Y-23781530D01*
X-14780885Y-23712149D01*
X-14730705Y-23661925D01*
X-14684504Y-23648817D01*
X-14684677Y-23647677D01*
X-14614485Y-23637016D01*
X-14543783Y-23615645D01*
X-14539712Y-23613747D01*
X-14539705Y-23613744D01*
X-11120313Y-22019255D01*
X-11120308Y-22019252D01*
X-11116113Y-22017296D01*
X-11052563Y-21975333D01*
X-10998096Y-21926505D01*
X-10949466Y-21867904D01*
X-10929552Y-21835087D01*
X-10877112Y-21787227D01*
X-10869417Y-21783784D01*
X-10862068Y-21780787D01*
X-8391954Y-20628954D01*
X-8384940Y-20625254D01*
X-8315358Y-20611159D01*
X-8306992Y-20612160D01*
X-8281725Y-20616049D01*
X-8273619Y-20617297D01*
X-8273617Y-20617297D01*
X-8269044Y-20618001D01*
X-8232336Y-20618202D01*
X-8197536Y-20618392D01*
X-8197531Y-20618392D01*
X-8192896Y-20618417D01*
X-8120478Y-20608079D01*
X-8116025Y-20606755D01*
X-8116022Y-20606754D01*
X-8091613Y-20599494D01*
X-8047482Y-20586370D01*
X-7907055Y-20520888D01*
X-2971643Y-18219467D01*
X-2971640Y-18219465D01*
X-2969308Y-18218378D01*
X-2948430Y-18206471D01*
X-2934641Y-18198608D01*
X-2934634Y-18198604D01*
X-2932399Y-18197329D01*
X-2932160Y-18197749D01*
X-2865819Y-18179121D01*
X-2797940Y-18199929D01*
G37*
%TD.AperFunction*%
%TD*%
%TA.AperFunction,Conductor*%
%TO.N,Net-(D11-Pad2)*%
G36*
X27891556Y20424537D02*
G01*
X27925086Y20361957D01*
X27927581Y20342808D01*
X28006042Y18859809D01*
X28586355Y7891315D01*
X28569980Y7822235D01*
X28529763Y7779816D01*
X28529792Y7779777D01*
X28529563Y7779605D01*
X28528696Y7778691D01*
X28522406Y7774645D01*
X28466602Y7726249D01*
X28463668Y7722860D01*
X28463665Y7722857D01*
X27278393Y6353765D01*
X27218683Y6315355D01*
X27147687Y6315324D01*
X27105749Y6338728D01*
X27105064Y6337798D01*
X27051521Y6377221D01*
X27051519Y6377222D01*
X27047893Y6379892D01*
X27013477Y6398331D01*
X26986757Y6412648D01*
X26986751Y6412651D01*
X26982788Y6414774D01*
X26978563Y6416312D01*
X26978558Y6416314D01*
X24145432Y7447487D01*
X23428857Y7708299D01*
X23424310Y7709229D01*
X23424304Y7709231D01*
X23385257Y7717219D01*
X23354250Y7723563D01*
X23349625Y7723816D01*
X23349621Y7723816D01*
X23317729Y7725557D01*
X23281208Y7727551D01*
X23276595Y7727122D01*
X23276590Y7727122D01*
X23243296Y7724026D01*
X23205383Y7720501D01*
X23168095Y7711377D01*
X23097174Y7714614D01*
X23089301Y7717621D01*
X23081980Y7720700D01*
X20520888Y8652862D01*
X20513294Y8655211D01*
X20454128Y8694452D01*
X20448920Y8701078D01*
X20428970Y8728286D01*
X20428967Y8728290D01*
X20426225Y8732029D01*
X20372674Y8786168D01*
X20314157Y8830065D01*
X20310080Y8832273D01*
X20251270Y8864122D01*
X20251264Y8864125D01*
X20247190Y8866331D01*
X18305568Y9573024D01*
X18248398Y9615117D01*
X18223060Y9681438D01*
X18237601Y9750930D01*
X18246793Y9765574D01*
X18349353Y9906476D01*
X18349358Y9906483D01*
X18352041Y9910170D01*
X18477352Y10148347D01*
X18566968Y10402118D01*
X18593011Y10534250D01*
X18618131Y10661697D01*
X18618132Y10661703D01*
X18619012Y10666169D01*
X18623145Y10749188D01*
X18632166Y10930397D01*
X18632166Y10930403D01*
X18632393Y10934966D01*
X18606832Y11202880D01*
X18599699Y11232033D01*
X18543950Y11459860D01*
X18542864Y11464298D01*
X18441828Y11713743D01*
X18305842Y11945990D01*
X18137753Y12156175D01*
X17941084Y12339893D01*
X17719954Y12493296D01*
X17478995Y12613171D01*
X17474661Y12614592D01*
X17474658Y12614593D01*
X17227588Y12695587D01*
X17227582Y12695588D01*
X17223255Y12697007D01*
X17218763Y12697787D01*
X16961873Y12742391D01*
X16961865Y12742392D01*
X16958092Y12743047D01*
X16948129Y12743543D01*
X16874634Y12747202D01*
X16874626Y12747202D01*
X16873063Y12747280D01*
X16705037Y12747280D01*
X16702769Y12747115D01*
X16702757Y12747115D01*
X16571954Y12737624D01*
X16504986Y12732765D01*
X16500531Y12731781D01*
X16500528Y12731781D01*
X16246641Y12675727D01*
X16246639Y12675726D01*
X16242185Y12674743D01*
X15990511Y12579393D01*
X15755239Y12448711D01*
X15704468Y12409964D01*
X15544920Y12288201D01*
X15544916Y12288197D01*
X15541295Y12285434D01*
X15353162Y12092983D01*
X15275035Y11985647D01*
X15219750Y11909694D01*
X15163490Y11866389D01*
X15092749Y11860375D01*
X15029986Y11893562D01*
X14995129Y11955413D01*
X14993052Y12000997D01*
X15005129Y12088885D01*
X15214897Y13615407D01*
X15214952Y13615797D01*
X15550101Y15990227D01*
X15579427Y16054884D01*
X15639054Y16093421D01*
X15684326Y16096942D01*
X15684358Y16097856D01*
X15690543Y16097641D01*
X15696680Y16096821D01*
X15726982Y16098747D01*
X15763041Y16101038D01*
X15763047Y16101039D01*
X15767534Y16101324D01*
X15771932Y16102244D01*
X15771937Y16102245D01*
X15817542Y16111788D01*
X15839829Y16116452D01*
X20247189Y17720600D01*
X20314154Y17756864D01*
X20317857Y17759642D01*
X20317862Y17759645D01*
X20368962Y17797978D01*
X20372671Y17800760D01*
X20426225Y17854901D01*
X20448922Y17885856D01*
X20505329Y17928963D01*
X20513286Y17931719D01*
X20520878Y17934067D01*
X20522346Y17934601D01*
X20522354Y17934604D01*
X22139033Y18523027D01*
X23081994Y18866237D01*
X23083427Y18866840D01*
X23083443Y18866846D01*
X23089298Y18869309D01*
X23159846Y18877283D01*
X23168098Y18875554D01*
X23200877Y18867533D01*
X23200882Y18867532D01*
X23205382Y18866431D01*
X23209994Y18866002D01*
X23209995Y18866002D01*
X23276592Y18859809D01*
X23276596Y18859809D01*
X23281209Y18859380D01*
X23317729Y18861374D01*
X23349621Y18863115D01*
X23349624Y18863115D01*
X23354250Y18863368D01*
X23385257Y18869712D01*
X23424304Y18877700D01*
X23424310Y18877702D01*
X23428857Y18878632D01*
X26979208Y20170854D01*
X27758662Y20454552D01*
X27829516Y20459055D01*
X27891556Y20424537D01*
G37*
%TD.AperFunction*%
%TD*%
%TA.AperFunction,Conductor*%
%TO.N,LED_IN*%
G36*
X331838Y39740287D02*
G01*
X1246447Y39725919D01*
X1250403Y39725795D01*
X2493645Y39667165D01*
X2497596Y39666917D01*
X3738423Y39569262D01*
X3742363Y39568889D01*
X4268446Y39510809D01*
X4979486Y39432310D01*
X4983356Y39431821D01*
X5699618Y39329882D01*
X6215603Y39256446D01*
X6219512Y39255827D01*
X6795707Y39155265D01*
X7445649Y39041832D01*
X7449487Y39041100D01*
X8033695Y38920116D01*
X8668259Y38788704D01*
X8672122Y38787841D01*
X9551007Y38576840D01*
X9882407Y38497277D01*
X9886221Y38496298D01*
X11086740Y38167873D01*
X11090507Y38166779D01*
X12280144Y37800799D01*
X12283888Y37799583D01*
X12593319Y37693641D01*
X13461443Y37396415D01*
X13465167Y37395074D01*
X14629442Y36955131D01*
X14633122Y36953674D01*
X15783008Y36477375D01*
X15786641Y36475803D01*
X16323747Y36233291D01*
X16921047Y35963601D01*
X16924596Y35961929D01*
X17109292Y35871448D01*
X18042299Y35414372D01*
X18045827Y35412575D01*
X19145798Y34830170D01*
X19149202Y34828300D01*
X19590396Y34576647D01*
X20230389Y34211601D01*
X20233796Y34209586D01*
X20721899Y33910477D01*
X21295039Y33559256D01*
X21298341Y33557161D01*
X21468762Y33445215D01*
X22338630Y32873818D01*
X22341904Y32871593D01*
X23360212Y32155914D01*
X23363414Y32153587D01*
X24358707Y31406299D01*
X24361835Y31403873D01*
X25333203Y30625661D01*
X25336252Y30623138D01*
X26282640Y29814847D01*
X26285610Y29812230D01*
X26749422Y29390194D01*
X27206237Y28974524D01*
X27209081Y28971852D01*
X28102923Y28105660D01*
X28105660Y28102923D01*
X28971852Y27209081D01*
X28974524Y27206237D01*
X29177182Y26983519D01*
X29812230Y26285610D01*
X29814847Y26282640D01*
X30623138Y25336252D01*
X30625661Y25333203D01*
X31403873Y24361835D01*
X31406299Y24358707D01*
X32153587Y23363414D01*
X32155914Y23360212D01*
X32871593Y22341904D01*
X32873818Y22338630D01*
X33557148Y21298361D01*
X33559256Y21295039D01*
X33710135Y21048827D01*
X34209586Y20233796D01*
X34211601Y20230389D01*
X34408225Y19885671D01*
X34828300Y19149202D01*
X34830170Y19145798D01*
X35332043Y18197924D01*
X35412575Y18045826D01*
X35414372Y18042299D01*
X35961922Y16924612D01*
X35963601Y16921047D01*
X36123223Y16567522D01*
X36475803Y15786641D01*
X36477375Y15783008D01*
X36698252Y15249765D01*
X36886766Y14794653D01*
X36953674Y14633122D01*
X36955131Y14629442D01*
X37395074Y13465167D01*
X37396415Y13461443D01*
X37693641Y12593319D01*
X37745840Y12440859D01*
X37799579Y12283899D01*
X37800799Y12280144D01*
X38162661Y11103895D01*
X38166774Y11090524D01*
X38167873Y11086740D01*
X38480088Y9945474D01*
X38496295Y9886231D01*
X38497277Y9882407D01*
X38528381Y9752852D01*
X38787841Y8672122D01*
X38788704Y8668259D01*
X38840253Y8419339D01*
X39035095Y7478487D01*
X39041095Y7449512D01*
X39041832Y7445649D01*
X39116456Y7018073D01*
X39255827Y6219512D01*
X39256446Y6215603D01*
X39299150Y5915552D01*
X39431821Y4983356D01*
X39432310Y4979486D01*
X39449085Y4827541D01*
X39568889Y3742363D01*
X39569262Y3738423D01*
X39666917Y2497596D01*
X39667165Y2493645D01*
X39725795Y1250403D01*
X39725919Y1246447D01*
X39745469Y1979D01*
X39745469Y-1979D01*
X39725919Y-1246447D01*
X39725795Y-1250403D01*
X39667165Y-2493645D01*
X39666917Y-2497596D01*
X39569262Y-3738423D01*
X39568889Y-3742363D01*
X39440992Y-4900849D01*
X39432313Y-4979461D01*
X39431821Y-4983356D01*
X39355103Y-5522406D01*
X39256446Y-6215603D01*
X39255827Y-6219512D01*
X39041837Y-7445624D01*
X39041100Y-7449487D01*
X38958382Y-7848916D01*
X38788704Y-8668259D01*
X38787841Y-8672122D01*
X38497280Y-9882397D01*
X38496298Y-9886221D01*
X38283692Y-10663379D01*
X38167878Y-11086723D01*
X38166779Y-11090507D01*
X37996076Y-11645386D01*
X37800802Y-12280134D01*
X37799583Y-12283888D01*
X37693641Y-12593319D01*
X37396415Y-13461443D01*
X37395074Y-13465167D01*
X36955131Y-14629442D01*
X36953678Y-14633112D01*
X36835717Y-14917896D01*
X36477375Y-15783008D01*
X36475803Y-15786641D01*
X35963608Y-16921031D01*
X35961922Y-16924612D01*
X35414372Y-18042299D01*
X35412575Y-18045826D01*
X34830170Y-19145798D01*
X34828300Y-19149202D01*
X34688016Y-19395146D01*
X34211601Y-20230389D01*
X34209586Y-20233796D01*
X33990326Y-20591596D01*
X33670153Y-21114073D01*
X33559269Y-21295019D01*
X33557148Y-21298361D01*
X32873818Y-22338630D01*
X32871593Y-22341904D01*
X32155914Y-23360212D01*
X32153587Y-23363414D01*
X31406299Y-24358707D01*
X31403873Y-24361835D01*
X30625661Y-25333203D01*
X30623138Y-25336252D01*
X29814847Y-26282640D01*
X29812230Y-26285610D01*
X29504262Y-26624063D01*
X28974524Y-27206237D01*
X28971852Y-27209081D01*
X28105660Y-28102923D01*
X28102923Y-28105660D01*
X27209081Y-28971852D01*
X27206237Y-28974524D01*
X26952673Y-29205250D01*
X26285610Y-29812230D01*
X26282640Y-29814847D01*
X25336252Y-30623138D01*
X25333203Y-30625661D01*
X24361835Y-31403873D01*
X24358707Y-31406299D01*
X23363414Y-32153587D01*
X23360212Y-32155914D01*
X22341904Y-32871593D01*
X22338630Y-32873818D01*
X21298341Y-33557161D01*
X21295039Y-33559256D01*
X20721899Y-33910477D01*
X20233796Y-34209586D01*
X20230389Y-34211601D01*
X19864107Y-34420525D01*
X19149202Y-34828300D01*
X19145798Y-34830170D01*
X18296897Y-35279640D01*
X18045826Y-35412575D01*
X18042298Y-35414372D01*
X16924596Y-35961929D01*
X16921047Y-35963601D01*
X16323747Y-36233291D01*
X15786641Y-36475803D01*
X15783008Y-36477375D01*
X14633122Y-36953674D01*
X14629442Y-36955131D01*
X13465167Y-37395074D01*
X13461443Y-37396415D01*
X12593319Y-37693641D01*
X12283888Y-37799583D01*
X12280144Y-37800799D01*
X11090507Y-38166779D01*
X11086740Y-38167873D01*
X9886221Y-38496298D01*
X9882407Y-38497277D01*
X9551007Y-38576840D01*
X8672122Y-38787841D01*
X8668259Y-38788704D01*
X8033695Y-38920116D01*
X7449487Y-39041100D01*
X7445649Y-39041832D01*
X6795707Y-39155265D01*
X6219512Y-39255827D01*
X6215603Y-39256446D01*
X5699618Y-39329882D01*
X4983356Y-39431821D01*
X4979486Y-39432310D01*
X4268446Y-39510809D01*
X3742363Y-39568889D01*
X3738423Y-39569262D01*
X2497596Y-39666917D01*
X2493645Y-39667165D01*
X1250403Y-39725795D01*
X1246447Y-39725919D01*
X331838Y-39740287D01*
X1973Y-39745469D01*
X-1973Y-39745469D01*
X-331838Y-39740287D01*
X-1246447Y-39725919D01*
X-1250403Y-39725795D01*
X-2493645Y-39667165D01*
X-2497596Y-39666917D01*
X-3738423Y-39569262D01*
X-3742363Y-39568889D01*
X-4268446Y-39510809D01*
X-4979486Y-39432310D01*
X-4983356Y-39431821D01*
X-5699618Y-39329882D01*
X-6215603Y-39256446D01*
X-6219512Y-39255827D01*
X-6795707Y-39155265D01*
X-7445649Y-39041832D01*
X-7449487Y-39041100D01*
X-8033695Y-38920116D01*
X-8668259Y-38788704D01*
X-8672122Y-38787841D01*
X-9551007Y-38576840D01*
X-9882407Y-38497277D01*
X-9886221Y-38496298D01*
X-11086740Y-38167873D01*
X-11090507Y-38166779D01*
X-12280144Y-37800799D01*
X-12283888Y-37799583D01*
X-12593319Y-37693641D01*
X-13461443Y-37396415D01*
X-13465167Y-37395074D01*
X-14629442Y-36955131D01*
X-14633122Y-36953674D01*
X-15783008Y-36477375D01*
X-15786641Y-36475803D01*
X-16323747Y-36233291D01*
X-16921047Y-35963601D01*
X-16924596Y-35961929D01*
X-18042298Y-35414372D01*
X-18045826Y-35412575D01*
X-18296897Y-35279640D01*
X-19145798Y-34830170D01*
X-19149202Y-34828300D01*
X-19864107Y-34420525D01*
X-20230389Y-34211601D01*
X-20233796Y-34209586D01*
X-20721899Y-33910477D01*
X-21295039Y-33559256D01*
X-21298341Y-33557161D01*
X-22338630Y-32873818D01*
X-22341904Y-32871593D01*
X-23360212Y-32155914D01*
X-23363414Y-32153587D01*
X-24358707Y-31406299D01*
X-24361835Y-31403873D01*
X-25333203Y-30625661D01*
X-25336252Y-30623138D01*
X-26282640Y-29814847D01*
X-26285610Y-29812230D01*
X-26952673Y-29205250D01*
X-27206237Y-28974524D01*
X-27209081Y-28971852D01*
X-28102923Y-28105660D01*
X-28105660Y-28102923D01*
X-28971852Y-27209081D01*
X-28974524Y-27206237D01*
X-29504262Y-26624063D01*
X-29812230Y-26285610D01*
X-29814847Y-26282640D01*
X-30623138Y-25336252D01*
X-30625661Y-25333203D01*
X-31403873Y-24361835D01*
X-31406299Y-24358707D01*
X-32153587Y-23363414D01*
X-32155914Y-23360212D01*
X-32871593Y-22341904D01*
X-32873818Y-22338630D01*
X-33557148Y-21298361D01*
X-33559269Y-21295019D01*
X-33670152Y-21114073D01*
X-33990326Y-20591596D01*
X-34209586Y-20233796D01*
X-34211601Y-20230389D01*
X-34688016Y-19395146D01*
X-34828300Y-19149202D01*
X-34830170Y-19145798D01*
X-35412575Y-18045826D01*
X-35414372Y-18042299D01*
X-35961922Y-16924612D01*
X-35963608Y-16921031D01*
X-36475803Y-15786641D01*
X-36477375Y-15783008D01*
X-36835717Y-14917896D01*
X-36953678Y-14633112D01*
X-36955131Y-14629442D01*
X-37395074Y-13465167D01*
X-37396415Y-13461443D01*
X-37693641Y-12593319D01*
X-37799583Y-12283888D01*
X-37800802Y-12280134D01*
X-37996076Y-11645386D01*
X-38166779Y-11090507D01*
X-38167878Y-11086723D01*
X-38283691Y-10663379D01*
X-38496298Y-9886221D01*
X-38497280Y-9882397D01*
X-38787841Y-8672122D01*
X-38788704Y-8668259D01*
X-38958382Y-7848916D01*
X-39041100Y-7449487D01*
X-39041837Y-7445624D01*
X-39255827Y-6219512D01*
X-39256446Y-6215603D01*
X-39355103Y-5522406D01*
X-39431821Y-4983356D01*
X-39432313Y-4979461D01*
X-39440991Y-4900849D01*
X-39568889Y-3742363D01*
X-39569262Y-3738423D01*
X-39666917Y-2497596D01*
X-39667165Y-2493645D01*
X-39725795Y-1250403D01*
X-39725919Y-1246447D01*
X-39745469Y-1979D01*
X-39745469Y1979D01*
X-39725919Y1246447D01*
X-39725795Y1250403D01*
X-39667165Y2493645D01*
X-39666917Y2497596D01*
X-39569262Y3738423D01*
X-39568889Y3742363D01*
X-39449085Y4827541D01*
X-39432310Y4979486D01*
X-39431821Y4983356D01*
X-39299150Y5915552D01*
X-39256446Y6215603D01*
X-39255827Y6219512D01*
X-39116456Y7018073D01*
X-39041832Y7445649D01*
X-39041095Y7449512D01*
X-39035094Y7478487D01*
X-38840253Y8419339D01*
X-38788704Y8668259D01*
X-38787841Y8672122D01*
X-38528381Y9752852D01*
X-38497277Y9882407D01*
X-38496295Y9886231D01*
X-38480088Y9945474D01*
X-38167873Y11086740D01*
X-38166774Y11090524D01*
X-38162660Y11103895D01*
X-37800799Y12280144D01*
X-37799579Y12283899D01*
X-37745839Y12440859D01*
X-37693641Y12593319D01*
X-37396415Y13461443D01*
X-37395074Y13465167D01*
X-36955131Y14629442D01*
X-36953674Y14633122D01*
X-36886765Y14794653D01*
X-36726023Y15182719D01*
X-29473911Y18725991D01*
X-29113871Y18898262D01*
X-29143073Y18884289D01*
X-29186585Y18857943D01*
X-29189053Y18856095D01*
X-29189061Y18856090D01*
X-29224833Y18829310D01*
X-29225939Y18828482D01*
X-29243833Y18813797D01*
X-29304511Y18732740D01*
X-29335152Y18668696D01*
X-29351319Y18625350D01*
X-29358540Y18524356D01*
X-29349691Y18453913D01*
X-29339859Y18408714D01*
X-29291334Y18319848D01*
X-29287365Y18315099D01*
X-29248694Y18268826D01*
X-29248690Y18268822D01*
X-29245806Y18265371D01*
X-29242455Y18262361D01*
X-29242454Y18262360D01*
X-29194212Y18219027D01*
X-29194208Y18219024D01*
X-29190856Y18216013D01*
X-29163779Y18197921D01*
X-29140424Y18177775D01*
X-29131141Y18167534D01*
X-27203948Y16240341D01*
X-27202806Y16239306D01*
X-27202805Y16239305D01*
X-27198060Y16235004D01*
X-27161020Y16174435D01*
X-27159101Y16166228D01*
X-27151615Y16128591D01*
X-27125959Y16056886D01*
X-27091475Y15992370D01*
X-27046110Y15931202D01*
X-26040509Y14925601D01*
X-26006483Y14863289D01*
X-26011548Y14792474D01*
X-26035925Y14752244D01*
X-34325253Y5536788D01*
X-34337982Y5521496D01*
X-34349758Y5506192D01*
X-34392496Y5423024D01*
X-34413038Y5355064D01*
X-34422423Y5309767D01*
X-34421691Y5300785D01*
X-34420525Y5286473D01*
X-34434929Y5216953D01*
X-34481560Y5168030D01*
X-34520719Y5144671D01*
X-34526033Y5141501D01*
X-34578739Y5093934D01*
X-34580650Y5091872D01*
X-34580659Y5091863D01*
X-34595636Y5075701D01*
X-34610180Y5060006D01*
X-34655290Y4969359D01*
X-34656914Y4963384D01*
X-34672733Y4905192D01*
X-34672734Y4905185D01*
X-34673913Y4900849D01*
X-34682947Y4827541D01*
X-34434418Y-7481708D01*
X-34434026Y-7484895D01*
X-34434026Y-7484902D01*
X-34428364Y-7530997D01*
X-34428362Y-7531007D01*
X-34427972Y-7534184D01*
X-34416612Y-7583983D01*
X-34409831Y-7608218D01*
X-34359728Y-7696205D01*
X-34313235Y-7749861D01*
X-34279946Y-7781983D01*
X-34190227Y-7828914D01*
X-34184291Y-7830657D01*
X-34126429Y-7847647D01*
X-34126425Y-7847648D01*
X-34122106Y-7848916D01*
X-34117658Y-7849556D01*
X-34117651Y-7849557D01*
X-34053445Y-7858788D01*
X-34053438Y-7858788D01*
X-34048997Y-7859427D01*
X-33775410Y-7859427D01*
X-33770828Y-7858747D01*
X-33770823Y-7858747D01*
X-33704668Y-7848934D01*
X-33704662Y-7848933D01*
X-33700080Y-7848253D01*
X-33695646Y-7846908D01*
X-33695642Y-7846907D01*
X-33675824Y-7840895D01*
X-33630079Y-7827018D01*
X-33561241Y-7794460D01*
X-33542568Y-7781983D01*
X-33529322Y-7773133D01*
X-33461568Y-7751920D01*
X-33453142Y-7752052D01*
X-33446778Y-7752365D01*
X-33446745Y-7752366D01*
X-33445215Y-7752441D01*
X-30719743Y-7752441D01*
X-30717437Y-7752328D01*
X-30711814Y-7752052D01*
X-30642794Y-7768689D01*
X-30635633Y-7773135D01*
X-30607586Y-7791876D01*
X-30607581Y-7791879D01*
X-30603721Y-7794458D01*
X-30534879Y-7827018D01*
X-30464877Y-7848253D01*
X-30442048Y-7851639D01*
X-30394135Y-7858747D01*
X-30394129Y-7858747D01*
X-30389548Y-7859427D01*
X-28967414Y-7859427D01*
X-28899293Y-7879429D01*
X-28852800Y-7933085D01*
X-28841591Y-7978768D01*
X-28648363Y-11630971D01*
X-28193301Y-20232106D01*
X-28186719Y-20356518D01*
X-28184906Y-20376336D01*
X-28182411Y-20395485D01*
X-28153822Y-20484513D01*
X-28120292Y-20547093D01*
X-28094899Y-20585757D01*
X-28088024Y-20591595D01*
X-28088024Y-20591596D01*
X-28077089Y-20600883D01*
X-28038114Y-20660224D01*
X-28036493Y-20727798D01*
X-28049181Y-20777996D01*
X-28052816Y-20848899D01*
X-28051057Y-20895126D01*
X-28018857Y-20991122D01*
X-27983581Y-21052735D01*
X-27938133Y-21110959D01*
X-24226884Y-24675311D01*
X-19060752Y-29636961D01*
X-19060746Y-29636967D01*
X-19058443Y-29639178D01*
X-19016775Y-29671728D01*
X-18973528Y-29698908D01*
X-18951600Y-29711248D01*
X-18944156Y-29713290D01*
X-18944154Y-29713291D01*
X-18942054Y-29713867D01*
X-18853956Y-29738036D01*
X-18783141Y-29743101D01*
X-18780333Y-29743051D01*
X-18780327Y-29743051D01*
X-18745897Y-29742436D01*
X-18736885Y-29742275D01*
X-18728286Y-29739582D01*
X-18728284Y-29739582D01*
X-18692626Y-29728416D01*
X-18640260Y-29712018D01*
X-18577948Y-29677992D01*
X-18566950Y-29669759D01*
X-18522424Y-29636427D01*
X-18522420Y-29636423D01*
X-18518822Y-29633730D01*
X-18325368Y-29440276D01*
X-18280004Y-29379111D01*
X-18245520Y-29314597D01*
X-18219864Y-29242892D01*
X-18212377Y-29205250D01*
X-18179471Y-29142340D01*
X-18173423Y-29136479D01*
X-18167534Y-29131141D01*
X-16240341Y-27203948D01*
X-16235004Y-27198060D01*
X-16174435Y-27161020D01*
X-16166225Y-27159100D01*
X-16133145Y-27152521D01*
X-16133142Y-27152520D01*
X-16128591Y-27151615D01*
X-16124225Y-27150053D01*
X-16124222Y-27150052D01*
X-16061254Y-27127522D01*
X-16061252Y-27127521D01*
X-16056886Y-27125959D01*
X-15992370Y-27091475D01*
X-15931202Y-27046110D01*
X-14925601Y-26040509D01*
X-14863289Y-26006483D01*
X-14792474Y-26011548D01*
X-14752244Y-26035925D01*
X-5536788Y-34325253D01*
X-5521496Y-34337982D01*
X-5506192Y-34349758D01*
X-5423024Y-34392496D01*
X-5417564Y-34394146D01*
X-5417560Y-34394148D01*
X-5378920Y-34405827D01*
X-5355064Y-34413038D01*
X-5309767Y-34422423D01*
X-5300785Y-34421691D01*
X-5286473Y-34420525D01*
X-5216953Y-34434929D01*
X-5168030Y-34481560D01*
X-5144671Y-34520719D01*
X-5141501Y-34526033D01*
X-5093934Y-34578739D01*
X-5091872Y-34580650D01*
X-5091863Y-34580659D01*
X-5075701Y-34595636D01*
X-5060006Y-34610180D01*
X-4969359Y-34655290D01*
X-4949224Y-34660763D01*
X-4905192Y-34672733D01*
X-4905185Y-34672734D01*
X-4900849Y-34673913D01*
X-4827541Y-34682947D01*
X7481710Y-34434418D01*
X7499379Y-34432247D01*
X7530999Y-34428363D01*
X7531003Y-34428362D01*
X7534188Y-34427971D01*
X7537320Y-34427257D01*
X7537323Y-34427256D01*
X7582481Y-34416954D01*
X7583985Y-34416611D01*
X7585470Y-34416196D01*
X7585476Y-34416194D01*
X7600781Y-34411912D01*
X7600783Y-34411911D01*
X7608218Y-34409831D01*
X7696205Y-34359728D01*
X7735103Y-34326023D01*
X7747738Y-34315075D01*
X7747743Y-34315070D01*
X7749861Y-34313235D01*
X7781983Y-34279946D01*
X7828914Y-34190227D01*
X7848916Y-34122106D01*
X7859427Y-34048997D01*
X7859427Y-33775410D01*
X7848253Y-33700080D01*
X7827018Y-33630079D01*
X7794460Y-33561241D01*
X7773133Y-33529322D01*
X7751920Y-33461568D01*
X7752052Y-33453142D01*
X7752365Y-33446778D01*
X7752366Y-33446745D01*
X7752441Y-33445215D01*
X7752441Y-30719743D01*
X7752328Y-30717437D01*
X7752052Y-30711814D01*
X7768689Y-30642794D01*
X7773135Y-30635633D01*
X7791876Y-30607586D01*
X7791879Y-30607581D01*
X7794458Y-30603721D01*
X7827018Y-30534879D01*
X7848253Y-30464877D01*
X7859427Y-30389548D01*
X7859427Y-28967414D01*
X7879429Y-28899293D01*
X7933085Y-28852800D01*
X7978768Y-28841591D01*
X14236903Y-28510490D01*
X20355316Y-28186783D01*
X20355337Y-28186781D01*
X20356518Y-28186719D01*
X20376336Y-28184906D01*
X20395485Y-28182411D01*
X20400924Y-28180665D01*
X20400926Y-28180664D01*
X20479074Y-28155569D01*
X20479078Y-28155567D01*
X20484513Y-28153822D01*
X20547093Y-28120292D01*
X20573587Y-28102892D01*
X20578219Y-28099850D01*
X20578220Y-28099849D01*
X20585757Y-28094899D01*
X20600883Y-28077089D01*
X20660224Y-28038114D01*
X20727798Y-28036493D01*
X20777996Y-28049181D01*
X20784176Y-28049498D01*
X20784177Y-28049498D01*
X20846102Y-28052673D01*
X20846111Y-28052673D01*
X20848899Y-28052816D01*
X20874469Y-28051843D01*
X20886118Y-28051400D01*
X20886120Y-28051400D01*
X20895126Y-28051057D01*
X20991122Y-28018857D01*
X21052735Y-27983581D01*
X21056279Y-27980815D01*
X21056283Y-27980812D01*
X21107413Y-27940901D01*
X21107414Y-27940900D01*
X21110959Y-27938133D01*
X27667904Y-21110959D01*
X29636961Y-19060752D01*
X29636967Y-19060746D01*
X29639178Y-19058443D01*
X29671728Y-19016775D01*
X29698908Y-18973528D01*
X29711248Y-18951600D01*
X29738036Y-18853956D01*
X29743101Y-18783141D01*
X29742275Y-18736885D01*
X29712018Y-18640260D01*
X29677992Y-18577948D01*
X29673657Y-18572157D01*
X29636427Y-18522424D01*
X29636423Y-18522420D01*
X29633730Y-18518822D01*
X29440276Y-18325368D01*
X29436542Y-18322599D01*
X29436539Y-18322596D01*
X29382839Y-18282769D01*
X29382840Y-18282769D01*
X29379111Y-18280004D01*
X29314597Y-18245520D01*
X29299272Y-18240037D01*
X29247267Y-18221429D01*
X29247262Y-18221428D01*
X29242892Y-18219864D01*
X29238336Y-18218958D01*
X29238333Y-18218957D01*
X29219634Y-18215238D01*
X29205250Y-18212377D01*
X29142340Y-18179471D01*
X29136479Y-18173423D01*
X29131141Y-18167534D01*
X27203948Y-16240341D01*
X27198060Y-16235004D01*
X27161020Y-16174435D01*
X27159100Y-16166225D01*
X27152521Y-16133145D01*
X27152520Y-16133142D01*
X27151615Y-16128591D01*
X27125959Y-16056886D01*
X27091475Y-15992370D01*
X27046110Y-15931202D01*
X26040509Y-14925601D01*
X26006483Y-14863289D01*
X26011548Y-14792474D01*
X26035925Y-14752244D01*
X34325253Y-5536788D01*
X34337982Y-5521496D01*
X34349758Y-5506192D01*
X34392496Y-5423024D01*
X34413038Y-5355064D01*
X34422423Y-5309767D01*
X34420525Y-5286473D01*
X34434929Y-5216953D01*
X34481560Y-5168030D01*
X34520719Y-5144671D01*
X34520720Y-5144670D01*
X34526033Y-5141501D01*
X34578739Y-5093934D01*
X34580650Y-5091872D01*
X34580659Y-5091863D01*
X34604055Y-5066615D01*
X34610180Y-5060006D01*
X34655290Y-4969359D01*
X34660763Y-4949224D01*
X34672733Y-4905192D01*
X34672734Y-4905185D01*
X34673913Y-4900849D01*
X34682947Y-4827541D01*
X34434418Y7481708D01*
X34432567Y7496776D01*
X34428364Y7530997D01*
X34428362Y7531007D01*
X34427972Y7534184D01*
X34416612Y7583983D01*
X34409831Y7608218D01*
X34359728Y7696205D01*
X34327709Y7733157D01*
X34315075Y7747738D01*
X34315070Y7747743D01*
X34313235Y7749861D01*
X34279946Y7781983D01*
X34190227Y7828914D01*
X34184291Y7830657D01*
X34126429Y7847647D01*
X34126425Y7847648D01*
X34122106Y7848916D01*
X34117658Y7849556D01*
X34117651Y7849557D01*
X34053445Y7858788D01*
X34053438Y7858788D01*
X34048997Y7859427D01*
X33775410Y7859427D01*
X33770828Y7858747D01*
X33770823Y7858747D01*
X33704668Y7848934D01*
X33704662Y7848933D01*
X33700080Y7848253D01*
X33695646Y7846908D01*
X33695642Y7846907D01*
X33675824Y7840895D01*
X33630079Y7827018D01*
X33561241Y7794460D01*
X33548819Y7786160D01*
X33529322Y7773133D01*
X33461568Y7751920D01*
X33453142Y7752052D01*
X33446778Y7752365D01*
X33446745Y7752366D01*
X33445215Y7752441D01*
X30719743Y7752441D01*
X30717437Y7752328D01*
X30711814Y7752052D01*
X30642794Y7768689D01*
X30635633Y7773135D01*
X30607586Y7791876D01*
X30607581Y7791879D01*
X30603721Y7794458D01*
X30534879Y7827018D01*
X30464877Y7848253D01*
X30442048Y7851639D01*
X30394135Y7858747D01*
X30394129Y7858747D01*
X30389548Y7859427D01*
X28967415Y7859427D01*
X28899294Y7879429D01*
X28852801Y7933085D01*
X28841591Y7978770D01*
X28841444Y7981563D01*
X28518395Y14087499D01*
X28186783Y20355316D01*
X28186781Y20355337D01*
X28186719Y20356518D01*
X28184906Y20376336D01*
X28182411Y20395485D01*
X28153822Y20484513D01*
X28120292Y20547093D01*
X28094899Y20585757D01*
X28077089Y20600883D01*
X28038114Y20660224D01*
X28036493Y20727799D01*
X28047664Y20771996D01*
X28049181Y20777996D01*
X28052816Y20848899D01*
X28051057Y20895126D01*
X28018857Y20991122D01*
X27983581Y21052735D01*
X27938133Y21110959D01*
X22840851Y26006483D01*
X19060752Y29636961D01*
X19060746Y29636967D01*
X19058443Y29639178D01*
X19016775Y29671728D01*
X18973528Y29698908D01*
X18951600Y29711248D01*
X18944156Y29713290D01*
X18944154Y29713291D01*
X18859923Y29736399D01*
X18853956Y29738036D01*
X18783141Y29743101D01*
X18780333Y29743051D01*
X18780327Y29743051D01*
X18745897Y29742436D01*
X18736885Y29742275D01*
X18728286Y29739582D01*
X18728284Y29739582D01*
X18692626Y29728416D01*
X18640260Y29712018D01*
X18577948Y29677992D01*
X18574348Y29675297D01*
X18522424Y29636427D01*
X18522420Y29636423D01*
X18518822Y29633730D01*
X18325368Y29440276D01*
X18280004Y29379111D01*
X18245520Y29314597D01*
X18219864Y29242892D01*
X18218958Y29238336D01*
X18218957Y29238333D01*
X18212377Y29205250D01*
X18179471Y29142340D01*
X18173423Y29136479D01*
X18167534Y29131141D01*
X16240341Y27203948D01*
X16239306Y27202806D01*
X16239305Y27202805D01*
X16235004Y27198060D01*
X16174435Y27161020D01*
X16166225Y27159100D01*
X16133145Y27152521D01*
X16133142Y27152520D01*
X16128591Y27151615D01*
X16124225Y27150053D01*
X16124222Y27150052D01*
X16061254Y27127522D01*
X16056886Y27125959D01*
X15992370Y27091475D01*
X15931202Y27046110D01*
X14925601Y26040509D01*
X14863289Y26006483D01*
X14792474Y26011548D01*
X14752244Y26035925D01*
X5536788Y34325253D01*
X5521496Y34337982D01*
X5506192Y34349758D01*
X5423024Y34392496D01*
X5417564Y34394146D01*
X5417560Y34394148D01*
X5378318Y34406009D01*
X5355064Y34413038D01*
X5309767Y34422423D01*
X5300785Y34421691D01*
X5286473Y34420525D01*
X5216953Y34434929D01*
X5168030Y34481560D01*
X5144671Y34520719D01*
X5144670Y34520720D01*
X5141501Y34526033D01*
X5093934Y34578739D01*
X5091872Y34580650D01*
X5091863Y34580659D01*
X5066615Y34604055D01*
X5060006Y34610180D01*
X4969359Y34655290D01*
X4949224Y34660763D01*
X4905192Y34672733D01*
X4905185Y34672734D01*
X4900849Y34673913D01*
X4827541Y34682947D01*
X-7481710Y34434418D01*
X-7499379Y34432247D01*
X-7530999Y34428363D01*
X-7531003Y34428362D01*
X-7534188Y34427971D01*
X-7537320Y34427257D01*
X-7537323Y34427256D01*
X-7558508Y34422423D01*
X-7583985Y34416611D01*
X-7585470Y34416196D01*
X-7585476Y34416194D01*
X-7600781Y34411912D01*
X-7600783Y34411911D01*
X-7608218Y34409831D01*
X-7696205Y34359728D01*
X-7700881Y34355676D01*
X-7735991Y34325253D01*
X-7749861Y34313235D01*
X-7781983Y34279946D01*
X-7828914Y34190227D01*
X-7848916Y34122106D01*
X-7859427Y34048997D01*
X-7859427Y33775410D01*
X-7848253Y33700080D01*
X-7827018Y33630079D01*
X-7794460Y33561241D01*
X-7791886Y33557389D01*
X-7773133Y33529322D01*
X-7751920Y33461568D01*
X-7752052Y33453142D01*
X-7752365Y33446778D01*
X-7752366Y33446745D01*
X-7752441Y33445215D01*
X-7752441Y30719743D01*
X-7752365Y30718202D01*
X-7752365Y30718191D01*
X-7751763Y30705945D01*
X-7754033Y30675176D01*
X-7755844Y30666073D01*
X-7759318Y30652567D01*
X-7768651Y30623138D01*
X-7770867Y30616152D01*
X-7780300Y30574269D01*
X-7783433Y30557928D01*
X-7779490Y30456753D01*
X-7762938Y30387712D01*
X-7735676Y30319077D01*
X-12066111Y37866644D01*
X-11090507Y38166779D01*
X-11086740Y38167873D01*
X-9886221Y38496298D01*
X-9882407Y38497277D01*
X-9551007Y38576840D01*
X-8672122Y38787841D01*
X-8668259Y38788704D01*
X-8033695Y38920116D01*
X-7449487Y39041100D01*
X-7445649Y39041832D01*
X-6795707Y39155265D01*
X-6219512Y39255827D01*
X-6215603Y39256446D01*
X-5699618Y39329882D01*
X-4983356Y39431821D01*
X-4979486Y39432310D01*
X-4268446Y39510809D01*
X-3742363Y39568889D01*
X-3738423Y39569262D01*
X-2497596Y39666917D01*
X-2493645Y39667165D01*
X-1250403Y39725795D01*
X-1246447Y39725919D01*
X-331838Y39740287D01*
X-1973Y39745469D01*
X1973Y39745469D01*
X331838Y39740287D01*
G37*
%TD.AperFunction*%
%TA.AperFunction,Conductor*%
G36*
X1358737Y11300498D02*
G01*
X1379711Y11283595D01*
X1983595Y10679711D01*
X2000000Y10649668D01*
X2000000Y8936528D01*
X1946842Y8890467D01*
X1902274Y8879500D01*
X1902244Y8879500D01*
X1856714Y8874554D01*
X1848403Y8873651D01*
X1848402Y8873651D01*
X1840552Y8872798D01*
X1833159Y8870026D01*
X1833157Y8870026D01*
X1831138Y8869269D01*
X1705236Y8822071D01*
X1698057Y8816691D01*
X1698054Y8816689D01*
X1648500Y8779550D01*
X1589596Y8735404D01*
X1584215Y8728224D01*
X1508311Y8626946D01*
X1508309Y8626943D01*
X1502929Y8619764D01*
X1452202Y8484448D01*
X1445500Y8422756D01*
X1445500Y7802244D01*
X1445869Y7798848D01*
X1445869Y7798847D01*
X1450891Y7752624D01*
X1452202Y7740552D01*
X1454974Y7733159D01*
X1454974Y7733157D01*
X1458108Y7724797D01*
X1502929Y7605236D01*
X1508309Y7598057D01*
X1508311Y7598054D01*
X1553831Y7537317D01*
X1589596Y7489596D01*
X1596776Y7484215D01*
X1698054Y7408311D01*
X1698057Y7408309D01*
X1705236Y7402929D01*
X1794954Y7369296D01*
X1833157Y7354974D01*
X1833159Y7354974D01*
X1840552Y7352202D01*
X1848402Y7351349D01*
X1848403Y7351349D01*
X1898847Y7345869D01*
X1902244Y7345500D01*
X2000000Y7345500D01*
X2000000Y7054500D01*
X1902244Y7054500D01*
X1898848Y7054131D01*
X1898847Y7054131D01*
X1848403Y7048651D01*
X1848402Y7048651D01*
X1840552Y7047798D01*
X1833159Y7045026D01*
X1833157Y7045026D01*
X1794954Y7030704D01*
X1705236Y6997071D01*
X1698057Y6991691D01*
X1698054Y6991689D01*
X1639507Y6947810D01*
X1589596Y6910404D01*
X1563954Y6876190D01*
X1507098Y6833676D01*
X1436280Y6828649D01*
X1374034Y6862660D01*
X1041405Y7195289D01*
X1007379Y7257601D01*
X1004500Y7284384D01*
X1004500Y9224516D01*
X1024502Y9292637D01*
X1041327Y9313534D01*
X1096579Y9368882D01*
X1096580Y9368884D01*
X1104796Y9377114D01*
X1133771Y9442654D01*
X1147584Y9473897D01*
X1147585Y9473900D01*
X1151416Y9482566D01*
X1154500Y9509018D01*
X1154500Y10590982D01*
X1151289Y10617968D01*
X1104485Y10723339D01*
X1096251Y10731559D01*
X1031118Y10796579D01*
X1031116Y10796580D01*
X1022886Y10804796D01*
X999301Y10815223D01*
X926103Y10847584D01*
X926100Y10847585D01*
X917434Y10851416D01*
X908023Y10852513D01*
X908020Y10852514D01*
X901791Y10853240D01*
X890982Y10854500D01*
X-890982Y10854500D01*
X-902408Y10853140D01*
X-908575Y10852407D01*
X-908577Y10852406D01*
X-917968Y10851289D01*
X-1023339Y10804485D01*
X-1031558Y10796252D01*
X-1031559Y10796251D01*
X-1096579Y10731118D01*
X-1096580Y10731116D01*
X-1104796Y10722886D01*
X-1109500Y10712246D01*
X-1147584Y10626103D01*
X-1147585Y10626100D01*
X-1151416Y10617434D01*
X-1154500Y10590982D01*
X-1154500Y10548174D01*
X-1174502Y10480053D01*
X-1228158Y10433560D01*
X-1280500Y10422174D01*
X-1348442Y10422174D01*
X-1350097Y10422085D01*
X-1350109Y10422085D01*
X-1373610Y10420826D01*
X-1376177Y10420688D01*
X-1377854Y10420508D01*
X-1377863Y10420507D01*
X-1396802Y10418471D01*
X-1396803Y10418471D01*
X-1402960Y10417809D01*
X-1457987Y10400579D01*
X-1493689Y10389400D01*
X-1493692Y10389399D01*
X-1499593Y10387551D01*
X-1505017Y10384589D01*
X-1505022Y10384587D01*
X-1557957Y10355681D01*
X-1561905Y10353525D01*
X-1565505Y10350830D01*
X-1617429Y10311960D01*
X-1617433Y10311956D01*
X-1621031Y10309263D01*
X-1772205Y10158089D01*
X-1778637Y10151423D01*
X-1784766Y10144840D01*
X-1830888Y10075816D01*
X-1860382Y10011236D01*
X-1861315Y10008590D01*
X-1872776Y9976105D01*
X-1872777Y9976101D01*
X-1875773Y9967608D01*
X-1878213Y9922089D01*
X-1880685Y9875987D01*
X-1904305Y9809034D01*
X-1960373Y9765481D01*
X-1993034Y9757454D01*
X-2008458Y9755795D01*
X-2029159Y9753570D01*
X-2081501Y9742184D01*
X-2108291Y9734834D01*
X-2115142Y9730933D01*
X-2115144Y9730932D01*
X-2184131Y9691648D01*
X-2196278Y9684731D01*
X-2249934Y9638238D01*
X-2282056Y9604949D01*
X-2328987Y9515230D01*
X-2330730Y9509294D01*
X-2341123Y9473897D01*
X-2348989Y9447109D01*
X-2359500Y9374000D01*
X-2359500Y9007711D01*
X-2357755Y8977671D01*
X-2354378Y8948695D01*
X-2352406Y8942681D01*
X-2352405Y8942676D01*
X-2349254Y8933067D01*
X-2322124Y8850324D01*
X-2286992Y8788629D01*
X-2260612Y8750633D01*
X-2181774Y8687100D01*
X-2118865Y8654192D01*
X-2114617Y8652693D01*
X-2114607Y8652689D01*
X-2114582Y8652680D01*
X-2114575Y8652675D01*
X-2110491Y8650897D01*
X-2110878Y8650009D01*
X-2056996Y8611154D01*
X-2031002Y8545087D01*
X-2030501Y8533858D01*
X-2030500Y8039422D01*
X-2050502Y7971301D01*
X-2064037Y7953958D01*
X-2068242Y7950314D01*
X-2072167Y7945167D01*
X-2072168Y7945166D01*
X-2128467Y7871341D01*
X-2128469Y7871337D01*
X-2132390Y7866196D01*
X-2135181Y7860363D01*
X-2135182Y7860361D01*
X-2161319Y7805731D01*
X-2163031Y7802152D01*
X-2164019Y7799503D01*
X-2175512Y7768689D01*
X-2179196Y7758813D01*
X-2179839Y7749824D01*
X-2181149Y7731510D01*
X-2205960Y7664990D01*
X-2262797Y7622444D01*
X-2306828Y7614500D01*
X-2790950Y7614499D01*
X-3269914Y7614499D01*
X-3338035Y7634501D01*
X-3384528Y7688157D01*
X-3394932Y7724797D01*
X-3398078Y7749845D01*
X-3398427Y7752624D01*
X-3408259Y7797824D01*
X-3425234Y7828914D01*
X-3453814Y7881256D01*
X-3456782Y7886692D01*
X-3502308Y7941169D01*
X-3505662Y7944182D01*
X-3508777Y7947410D01*
X-3507532Y7948612D01*
X-3541017Y8002845D01*
X-3545499Y8036154D01*
X-3545499Y8176152D01*
X-3545500Y8499000D01*
X-3525498Y8567120D01*
X-3471843Y8613613D01*
X-3419500Y8624999D01*
X-3105500Y8624999D01*
X-3102154Y8625359D01*
X-3102149Y8625359D01*
X-3053705Y8630567D01*
X-3053699Y8630568D01*
X-3050341Y8630929D01*
X-2997999Y8642315D01*
X-2971209Y8649665D01*
X-2964358Y8653566D01*
X-2964356Y8653567D01*
X-2888601Y8696705D01*
X-2883222Y8699768D01*
X-2850382Y8728224D01*
X-2831689Y8744421D01*
X-2831684Y8744426D01*
X-2829566Y8746261D01*
X-2797444Y8779550D01*
X-2750513Y8869269D01*
X-2730511Y8937390D01*
X-2728885Y8948695D01*
X-2720639Y9006051D01*
X-2720639Y9006058D01*
X-2720000Y9010499D01*
X-2720000Y9446581D01*
X-2720451Y9451432D01*
X-2724190Y9491572D01*
X-2724462Y9494494D01*
X-2733053Y9540223D01*
X-2737603Y9560103D01*
X-2782613Y9650800D01*
X-2814120Y9691648D01*
X-2813234Y9692331D01*
X-2819608Y9698959D01*
X-2833302Y9719454D01*
X-2877371Y9763523D01*
X-2900550Y9795429D01*
X-2901126Y9796560D01*
X-2913288Y9833970D01*
X-2913438Y9834914D01*
X-2914999Y9854687D01*
X-2914999Y10056375D01*
X-2915000Y10133180D01*
X-2914371Y10145754D01*
X-2913386Y10155570D01*
X-2913385Y10155582D01*
X-2913205Y10157378D01*
X-2911975Y10186078D01*
X-2919252Y10232023D01*
X-2927113Y10281654D01*
X-2927114Y10281659D01*
X-2928099Y10287876D01*
X-2938532Y10315848D01*
X-2943598Y10386662D01*
X-2909573Y10448974D01*
X-2847262Y10483000D01*
X-2815653Y10485147D01*
X-2815653Y10485500D01*
X-2384348Y10485501D01*
X-2379454Y10486276D01*
X-2302936Y10498394D01*
X-2302934Y10498395D01*
X-2293138Y10499946D01*
X-2183204Y10555960D01*
X-2182777Y10556387D01*
X-2120781Y10578510D01*
X-2064982Y10568547D01*
X-2059689Y10565277D01*
X-2050997Y10562892D01*
X-2050996Y10562892D01*
X-1987601Y10545500D01*
X-1962045Y10538489D01*
X-1891230Y10533424D01*
X-1888422Y10533474D01*
X-1888416Y10533474D01*
X-1853986Y10534089D01*
X-1844974Y10534250D01*
X-1836375Y10536943D01*
X-1836373Y10536943D01*
X-1790021Y10551458D01*
X-1748349Y10564507D01*
X-1686037Y10598533D01*
X-1660835Y10617399D01*
X-1630513Y10640098D01*
X-1630509Y10640102D01*
X-1626911Y10642795D01*
X-1347795Y10921911D01*
X-1341363Y10928577D01*
X-1335234Y10935160D01*
X-1289112Y11004184D01*
X-1259618Y11068764D01*
X-1252606Y11088641D01*
X-1247224Y11103895D01*
X-1247223Y11103899D01*
X-1244227Y11112392D01*
X-1239464Y11201245D01*
X-1215845Y11268197D01*
X-1159777Y11311751D01*
X-1113645Y11320500D01*
X1290616Y11320500D01*
X1358737Y11300498D01*
G37*
%TD.AperFunction*%
%TA.AperFunction,Conductor*%
G36*
X-36615547Y15449432D02*
G01*
X-36477375Y15783008D01*
X-36475803Y15786641D01*
X-36123223Y16567522D01*
X-35963601Y16921047D01*
X-35961922Y16924612D01*
X-35414372Y18042299D01*
X-35412575Y18045826D01*
X-35332043Y18197924D01*
X-34830170Y19145798D01*
X-34828300Y19149202D01*
X-34408225Y19885671D01*
X-34211601Y20230389D01*
X-34209586Y20233796D01*
X-33710135Y21048827D01*
X-33559256Y21295039D01*
X-33557148Y21298361D01*
X-32873818Y22338630D01*
X-32871593Y22341904D01*
X-32155914Y23360212D01*
X-32153587Y23363414D01*
X-31406299Y24358707D01*
X-31403873Y24361835D01*
X-30625661Y25333203D01*
X-30623138Y25336252D01*
X-29814847Y26282640D01*
X-29812230Y26285610D01*
X-29177182Y26983519D01*
X-28974524Y27206237D01*
X-28971852Y27209081D01*
X-28105660Y28102923D01*
X-28102923Y28105660D01*
X-27209081Y28971852D01*
X-27206237Y28974524D01*
X-26749422Y29390194D01*
X-26285610Y29812230D01*
X-26282640Y29814847D01*
X-25336252Y30623138D01*
X-25333203Y30625661D01*
X-24361835Y31403873D01*
X-24358707Y31406299D01*
X-23363414Y32153587D01*
X-23360212Y32155914D01*
X-22341904Y32871593D01*
X-22338630Y32873818D01*
X-21468762Y33445215D01*
X-21298341Y33557161D01*
X-21295039Y33559256D01*
X-20721899Y33910477D01*
X-20233796Y34209586D01*
X-20230389Y34211601D01*
X-19590396Y34576647D01*
X-19149202Y34828300D01*
X-19145798Y34830170D01*
X-18045827Y35412575D01*
X-18042299Y35414372D01*
X-17109292Y35871448D01*
X-16924596Y35961929D01*
X-16921047Y35963601D01*
X-16323747Y36233291D01*
X-15786641Y36475803D01*
X-15783008Y36477375D01*
X-14633122Y36953674D01*
X-14629442Y36955131D01*
X-13465167Y37395074D01*
X-13461443Y37396415D01*
X-12664172Y37669382D01*
X-36615547Y15449432D01*
G37*
%TD.AperFunction*%
%TD*%
M02*
