%TF.GenerationSoftware,KiCad,Pcbnew,(6.0.8)*%
%TF.CreationDate,2022-10-21T01:17:33+13:00*%
%TF.ProjectId,Seedling,53656564-6c69-46e6-972e-6b696361645f,rev?*%
%TF.SameCoordinates,Original*%
%TF.FileFunction,Legend,Top*%
%TF.FilePolarity,Positive*%
%FSLAX46Y46*%
G04 Gerber Fmt 4.6, Leading zero omitted, Abs format (unit mm)*
G04 Created by KiCad (PCBNEW (6.0.8)) date 2022-10-21 01:17:33*
%MOMM*%
%LPD*%
G01*
G04 APERTURE LIST*
%ADD10C,0.150000*%
%ADD11C,0.120000*%
%ADD12C,0.200000*%
G04 APERTURE END LIST*
D10*
X-11780952Y28571D02*
X-11019047Y28571D01*
X11019047Y28571D02*
X11780952Y28571D01*
X11400000Y-352380D02*
X11400000Y409523D01*
%TO.C,R3*%
X2233333Y9147619D02*
X1900000Y9623809D01*
X1661904Y9147619D02*
X1661904Y10147619D01*
X2042857Y10147619D01*
X2138095Y10100000D01*
X2185714Y10052380D01*
X2233333Y9957142D01*
X2233333Y9814285D01*
X2185714Y9719047D01*
X2138095Y9671428D01*
X2042857Y9623809D01*
X1661904Y9623809D01*
X2566666Y10147619D02*
X3185714Y10147619D01*
X2852380Y9766666D01*
X2995238Y9766666D01*
X3090476Y9719047D01*
X3138095Y9671428D01*
X3185714Y9576190D01*
X3185714Y9338095D01*
X3138095Y9242857D01*
X3090476Y9195238D01*
X2995238Y9147619D01*
X2709523Y9147619D01*
X2614285Y9195238D01*
X2566666Y9242857D01*
%TO.C,C1*%
X-6966666Y2042857D02*
X-7014285Y1995238D01*
X-7157142Y1947619D01*
X-7252380Y1947619D01*
X-7395238Y1995238D01*
X-7490476Y2090476D01*
X-7538095Y2185714D01*
X-7585714Y2376190D01*
X-7585714Y2519047D01*
X-7538095Y2709523D01*
X-7490476Y2804761D01*
X-7395238Y2900000D01*
X-7252380Y2947619D01*
X-7157142Y2947619D01*
X-7014285Y2900000D01*
X-6966666Y2852380D01*
X-6014285Y1947619D02*
X-6585714Y1947619D01*
X-6300000Y1947619D02*
X-6300000Y2947619D01*
X-6395238Y2804761D01*
X-6490476Y2709523D01*
X-6585714Y2661904D01*
%TO.C,J2*%
X-7833333Y547619D02*
X-7833333Y-166666D01*
X-7880952Y-309523D01*
X-7976190Y-404761D01*
X-8119047Y-452380D01*
X-8214285Y-452380D01*
X-7404761Y452380D02*
X-7357142Y500000D01*
X-7261904Y547619D01*
X-7023809Y547619D01*
X-6928571Y500000D01*
X-6880952Y452380D01*
X-6833333Y357142D01*
X-6833333Y261904D01*
X-6880952Y119047D01*
X-7452380Y-452380D01*
X-6833333Y-452380D01*
%TO.C,L1*%
X-166666Y-6852380D02*
X-642857Y-6852380D01*
X-642857Y-5852380D01*
X690476Y-6852380D02*
X119047Y-6852380D01*
X404761Y-6852380D02*
X404761Y-5852380D01*
X309523Y-5995238D01*
X214285Y-6090476D01*
X119047Y-6138095D01*
%TO.C,R2*%
X4433333Y6547619D02*
X4100000Y7023809D01*
X3861904Y6547619D02*
X3861904Y7547619D01*
X4242857Y7547619D01*
X4338095Y7500000D01*
X4385714Y7452380D01*
X4433333Y7357142D01*
X4433333Y7214285D01*
X4385714Y7119047D01*
X4338095Y7071428D01*
X4242857Y7023809D01*
X3861904Y7023809D01*
X4814285Y7452380D02*
X4861904Y7500000D01*
X4957142Y7547619D01*
X5195238Y7547619D01*
X5290476Y7500000D01*
X5338095Y7452380D01*
X5385714Y7357142D01*
X5385714Y7261904D01*
X5338095Y7119047D01*
X4766666Y6547619D01*
X5385714Y6547619D01*
%TO.C,C2*%
X-10566666Y4442857D02*
X-10614285Y4395238D01*
X-10757142Y4347619D01*
X-10852380Y4347619D01*
X-10995238Y4395238D01*
X-11090476Y4490476D01*
X-11138095Y4585714D01*
X-11185714Y4776190D01*
X-11185714Y4919047D01*
X-11138095Y5109523D01*
X-11090476Y5204761D01*
X-10995238Y5300000D01*
X-10852380Y5347619D01*
X-10757142Y5347619D01*
X-10614285Y5300000D01*
X-10566666Y5252380D01*
X-10185714Y5252380D02*
X-10138095Y5300000D01*
X-10042857Y5347619D01*
X-9804761Y5347619D01*
X-9709523Y5300000D01*
X-9661904Y5252380D01*
X-9614285Y5157142D01*
X-9614285Y5061904D01*
X-9661904Y4919047D01*
X-10233333Y4347619D01*
X-9614285Y4347619D01*
%TO.C,J1*%
X7166666Y547619D02*
X7166666Y-166666D01*
X7119047Y-309523D01*
X7023809Y-404761D01*
X6880952Y-452380D01*
X6785714Y-452380D01*
X8166666Y-452380D02*
X7595238Y-452380D01*
X7880952Y-452380D02*
X7880952Y547619D01*
X7785714Y404761D01*
X7690476Y309523D01*
X7595238Y261904D01*
%TO.C,J3*%
X-333333Y7947619D02*
X-333333Y7233333D01*
X-380952Y7090476D01*
X-476190Y6995238D01*
X-619047Y6947619D01*
X-714285Y6947619D01*
X47619Y7947619D02*
X666666Y7947619D01*
X333333Y7566666D01*
X476190Y7566666D01*
X571428Y7519047D01*
X619047Y7471428D01*
X666666Y7376190D01*
X666666Y7138095D01*
X619047Y7042857D01*
X571428Y6995238D01*
X476190Y6947619D01*
X190476Y6947619D01*
X95238Y6995238D01*
X47619Y7042857D01*
%TO.C,U1*%
X-9861904Y3347619D02*
X-9861904Y2538095D01*
X-9814285Y2442857D01*
X-9766666Y2395238D01*
X-9671428Y2347619D01*
X-9480952Y2347619D01*
X-9385714Y2395238D01*
X-9338095Y2442857D01*
X-9290476Y2538095D01*
X-9290476Y3347619D01*
X-8290476Y2347619D02*
X-8861904Y2347619D01*
X-8576190Y2347619D02*
X-8576190Y3347619D01*
X-8671428Y3204761D01*
X-8766666Y3109523D01*
X-8861904Y3061904D01*
%TO.C,R1*%
X-1266666Y11247619D02*
X-1600000Y11723809D01*
X-1838095Y11247619D02*
X-1838095Y12247619D01*
X-1457142Y12247619D01*
X-1361904Y12200000D01*
X-1314285Y12152380D01*
X-1266666Y12057142D01*
X-1266666Y11914285D01*
X-1314285Y11819047D01*
X-1361904Y11771428D01*
X-1457142Y11723809D01*
X-1838095Y11723809D01*
X-314285Y11247619D02*
X-885714Y11247619D01*
X-600000Y11247619D02*
X-600000Y12247619D01*
X-695238Y12104761D01*
X-790476Y12009523D01*
X-885714Y11961904D01*
%TO.C,R5*%
X-5066666Y12947619D02*
X-5400000Y13423809D01*
X-5638095Y12947619D02*
X-5638095Y13947619D01*
X-5257142Y13947619D01*
X-5161904Y13900000D01*
X-5114285Y13852380D01*
X-5066666Y13757142D01*
X-5066666Y13614285D01*
X-5114285Y13519047D01*
X-5161904Y13471428D01*
X-5257142Y13423809D01*
X-5638095Y13423809D01*
X-4161904Y13947619D02*
X-4638095Y13947619D01*
X-4685714Y13471428D01*
X-4638095Y13519047D01*
X-4542857Y13566666D01*
X-4304761Y13566666D01*
X-4209523Y13519047D01*
X-4161904Y13471428D01*
X-4114285Y13376190D01*
X-4114285Y13138095D01*
X-4161904Y13042857D01*
X-4209523Y12995238D01*
X-4304761Y12947619D01*
X-4542857Y12947619D01*
X-4638095Y12995238D01*
X-4685714Y13042857D01*
%TO.C,C3*%
X10333333Y2692857D02*
X10285714Y2645238D01*
X10142857Y2597619D01*
X10047619Y2597619D01*
X9904761Y2645238D01*
X9809523Y2740476D01*
X9761904Y2835714D01*
X9714285Y3026190D01*
X9714285Y3169047D01*
X9761904Y3359523D01*
X9809523Y3454761D01*
X9904761Y3550000D01*
X10047619Y3597619D01*
X10142857Y3597619D01*
X10285714Y3550000D01*
X10333333Y3502380D01*
X10666666Y3597619D02*
X11285714Y3597619D01*
X10952380Y3216666D01*
X11095238Y3216666D01*
X11190476Y3169047D01*
X11238095Y3121428D01*
X11285714Y3026190D01*
X11285714Y2788095D01*
X11238095Y2692857D01*
X11190476Y2645238D01*
X11095238Y2597619D01*
X10809523Y2597619D01*
X10714285Y2645238D01*
X10666666Y2692857D01*
%TO.C,R4*%
X6833333Y6547619D02*
X6500000Y7023809D01*
X6261904Y6547619D02*
X6261904Y7547619D01*
X6642857Y7547619D01*
X6738095Y7500000D01*
X6785714Y7452380D01*
X6833333Y7357142D01*
X6833333Y7214285D01*
X6785714Y7119047D01*
X6738095Y7071428D01*
X6642857Y7023809D01*
X6261904Y7023809D01*
X7690476Y7214285D02*
X7690476Y6547619D01*
X7452380Y7595238D02*
X7214285Y6880952D01*
X7833333Y6880952D01*
%TO.C,D1*%
X8361904Y-5052380D02*
X8361904Y-4052380D01*
X8600000Y-4052380D01*
X8742857Y-4100000D01*
X8838095Y-4195238D01*
X8885714Y-4290476D01*
X8933333Y-4480952D01*
X8933333Y-4623809D01*
X8885714Y-4814285D01*
X8838095Y-4909523D01*
X8742857Y-5004761D01*
X8600000Y-5052380D01*
X8361904Y-5052380D01*
X9885714Y-5052380D02*
X9314285Y-5052380D01*
X9600000Y-5052380D02*
X9600000Y-4052380D01*
X9504761Y-4195238D01*
X9409523Y-4290476D01*
X9314285Y-4338095D01*
%TO.C,Q1*%
X-8095238Y-7947619D02*
X-8190476Y-7900000D01*
X-8285714Y-7804761D01*
X-8428571Y-7661904D01*
X-8523809Y-7614285D01*
X-8619047Y-7614285D01*
X-8571428Y-7852380D02*
X-8666666Y-7804761D01*
X-8761904Y-7709523D01*
X-8809523Y-7519047D01*
X-8809523Y-7185714D01*
X-8761904Y-6995238D01*
X-8666666Y-6900000D01*
X-8571428Y-6852380D01*
X-8380952Y-6852380D01*
X-8285714Y-6900000D01*
X-8190476Y-6995238D01*
X-8142857Y-7185714D01*
X-8142857Y-7519047D01*
X-8190476Y-7709523D01*
X-8285714Y-7804761D01*
X-8380952Y-7852380D01*
X-8571428Y-7852380D01*
X-7190476Y-7852380D02*
X-7761904Y-7852380D01*
X-7476190Y-7852380D02*
X-7476190Y-6852380D01*
X-7571428Y-6995238D01*
X-7666666Y-7090476D01*
X-7761904Y-7138095D01*
D11*
%TO.C,R3*%
X1665000Y6972936D02*
X1665000Y7427064D01*
X3135000Y6972936D02*
X3135000Y7427064D01*
%TO.C,C1*%
X-2888748Y1490000D02*
X-4311252Y1490000D01*
X-2888748Y3310000D02*
X-4311252Y3310000D01*
%TO.C,D3*%
X5505606Y-23166754D02*
X5693544Y-23235159D01*
X5642414Y-22790877D02*
X5505606Y-23166754D01*
X5642414Y-22790877D02*
X7010494Y-19032107D01*
X7010494Y-19032107D02*
X7950187Y-19374127D01*
X5693544Y-23235159D02*
X6445298Y-23508775D01*
%TO.C,D22*%
X-10818733Y7707463D02*
X-11525840Y8414570D01*
X-7707463Y10818733D02*
X-7848885Y10960154D01*
X-7848885Y10960154D02*
X-8414570Y11525840D01*
X-7990306Y10535890D02*
X-10818733Y7707463D01*
X-7990306Y10535890D02*
X-7707463Y10818733D01*
%TO.C,D8*%
X29319646Y-4749543D02*
X25694415Y-3059070D01*
X29682169Y-4918590D02*
X29766693Y-4737328D01*
X29766693Y-4737328D02*
X30104788Y-4012282D01*
X29319646Y-4749543D02*
X29682169Y-4918590D01*
X25694415Y-3059070D02*
X26117033Y-2152762D01*
%TO.C,D17*%
X-5699927Y33882478D02*
X-5699927Y29882478D01*
X-5899927Y34282478D02*
X-6699927Y34282478D01*
X-5699927Y34282478D02*
X-5899927Y34282478D01*
X-5699927Y29882478D02*
X-6699927Y29882478D01*
X-5699927Y33882478D02*
X-5699927Y34282478D01*
%TO.C,D16*%
X4737328Y29766693D02*
X4012282Y30104788D01*
X4749543Y29319646D02*
X4918590Y29682169D01*
X4918590Y29682169D02*
X4737328Y29766693D01*
X3059070Y25694415D02*
X2152762Y26117033D01*
X4749543Y29319646D02*
X3059070Y25694415D01*
%TO.C,D13*%
X20210916Y28271830D02*
X20069494Y28413251D01*
X19928073Y27988987D02*
X20210916Y28271830D01*
X19928073Y27988987D02*
X17099646Y25160560D01*
X20069494Y28413251D02*
X19503809Y28978937D01*
X17099646Y25160560D02*
X16392539Y25867667D01*
%TO.C,L1*%
X-4200000Y-5150000D02*
X-4200000Y-7650000D01*
X4200000Y-7650000D02*
X4200000Y-5150000D01*
%TO.C,D4*%
X17510494Y-24466431D02*
X17698433Y-24398027D01*
X17698433Y-24398027D02*
X18450187Y-24124411D01*
X16005606Y-20331784D02*
X16945298Y-19989763D01*
X17373686Y-24090554D02*
X17510494Y-24466431D01*
X17373686Y-24090554D02*
X16005606Y-20331784D01*
%TO.C,D19*%
X-7010494Y19032107D02*
X-7950187Y19374127D01*
X-5693544Y23235159D02*
X-6445298Y23508775D01*
X-5642414Y22790877D02*
X-7010494Y19032107D01*
X-5505606Y23166754D02*
X-5693544Y23235159D01*
X-5642414Y22790877D02*
X-5505606Y23166754D01*
%TO.C,D15*%
X8500564Y18414901D02*
X8077945Y19321209D01*
X12125795Y20105374D02*
X8500564Y18414901D01*
X12488318Y20274421D02*
X12403794Y20455683D01*
X12125795Y20105374D02*
X12488318Y20274421D01*
X12403794Y20455683D02*
X12065700Y21180729D01*
%TO.C,R2*%
X5510000Y3072936D02*
X5510000Y4527064D01*
X3690000Y3072936D02*
X3690000Y4527064D01*
%TO.C,D26*%
X-13100000Y2200000D02*
X-13300000Y2200000D01*
X-13100000Y1800000D02*
X-13100000Y2200000D01*
X-13100000Y1800000D02*
X-13100000Y-2200000D01*
X-13100000Y-2200000D02*
X-14100000Y-2200000D01*
X-13300000Y2200000D02*
X-14100000Y2200000D01*
%TO.C,D33*%
X5699927Y-29882478D02*
X6699927Y-29882478D01*
X5899927Y-34282478D02*
X6699927Y-34282478D01*
X5699927Y-33882478D02*
X5699927Y-34282478D01*
X5699927Y-34282478D02*
X5899927Y-34282478D01*
X5699927Y-33882478D02*
X5699927Y-29882478D01*
%TO.C,D23*%
X-20105374Y12125795D02*
X-18414901Y8500564D01*
X-20105374Y12125795D02*
X-20274421Y12488318D01*
X-18414901Y8500564D02*
X-19321209Y8077945D01*
X-20455683Y12403794D02*
X-21180729Y12065700D01*
X-20274421Y12488318D02*
X-20455683Y12403794D01*
%TO.C,C2*%
X-9540000Y6607836D02*
X-9540000Y6392164D01*
X-10260000Y6607836D02*
X-10260000Y6392164D01*
%TO.C,D20*%
X-16005606Y20331784D02*
X-16945298Y19989763D01*
X-17698433Y24398027D02*
X-18450187Y24124411D01*
X-17373686Y24090554D02*
X-16005606Y20331784D01*
X-17510494Y24466431D02*
X-17698433Y24398027D01*
X-17373686Y24090554D02*
X-17510494Y24466431D01*
%TO.C,R6*%
X-3153641Y-1120000D02*
X-2846359Y-1120000D01*
X-3153641Y-1880000D02*
X-2846359Y-1880000D01*
%TO.C,D9*%
X29882478Y5699927D02*
X29882478Y6699927D01*
X34282478Y5899927D02*
X34282478Y6699927D01*
X34282478Y5699927D02*
X34282478Y5899927D01*
X33882478Y5699927D02*
X29882478Y5699927D01*
X33882478Y5699927D02*
X34282478Y5699927D01*
%TO.C,D27*%
X-22790877Y-5642414D02*
X-19032107Y-7010494D01*
X-23235159Y-5693544D02*
X-23508775Y-6445298D01*
X-22790877Y-5642414D02*
X-23166754Y-5505606D01*
X-19032107Y-7010494D02*
X-19374127Y-7950187D01*
X-23166754Y-5505606D02*
X-23235159Y-5693544D01*
%TO.C,D21*%
X-27988987Y19928073D02*
X-25160560Y17099646D01*
X-28271830Y20210916D02*
X-28413251Y20069494D01*
X-25160560Y17099646D02*
X-25867667Y16392539D01*
X-27988987Y19928073D02*
X-28271830Y20210916D01*
X-28413251Y20069494D02*
X-28978937Y19503809D01*
%TO.C,D7*%
X20455683Y-12403794D02*
X21180729Y-12065700D01*
X18414901Y-8500564D02*
X19321209Y-8077945D01*
X20274421Y-12488318D02*
X20455683Y-12403794D01*
X20105374Y-12125795D02*
X20274421Y-12488318D01*
X20105374Y-12125795D02*
X18414901Y-8500564D01*
%TO.C,D12*%
X24398027Y17698433D02*
X24124411Y18450187D01*
X20331784Y16005606D02*
X19989763Y16945298D01*
X24466431Y17510494D02*
X24398027Y17698433D01*
X24090554Y17373686D02*
X24466431Y17510494D01*
X24090554Y17373686D02*
X20331784Y16005606D01*
%TO.C,D28*%
X-24090554Y-17373686D02*
X-24466431Y-17510494D01*
X-24398027Y-17698433D02*
X-24124411Y-18450187D01*
X-20331784Y-16005606D02*
X-19989763Y-16945298D01*
X-24466431Y-17510494D02*
X-24398027Y-17698433D01*
X-24090554Y-17373686D02*
X-20331784Y-16005606D01*
D12*
%TO.C,U1*%
X-8975000Y8980000D02*
X-7450000Y8980000D01*
D11*
%TO.C,D31*%
X-12488318Y-20274421D02*
X-12403794Y-20455683D01*
X-8500564Y-18414901D02*
X-8077945Y-19321209D01*
X-12403794Y-20455683D02*
X-12065700Y-21180729D01*
X-12125795Y-20105374D02*
X-12488318Y-20274421D01*
X-12125795Y-20105374D02*
X-8500564Y-18414901D01*
%TO.C,D25*%
X-34282478Y-5699927D02*
X-34282478Y-5899927D01*
X-33882478Y-5699927D02*
X-34282478Y-5699927D01*
X-29882478Y-5699927D02*
X-29882478Y-6699927D01*
X-34282478Y-5899927D02*
X-34282478Y-6699927D01*
X-33882478Y-5699927D02*
X-29882478Y-5699927D01*
%TO.C,D10*%
X13100000Y-2200000D02*
X13300000Y-2200000D01*
X13100000Y-1800000D02*
X13100000Y-2200000D01*
X13100000Y-1800000D02*
X13100000Y2200000D01*
X13300000Y-2200000D02*
X14100000Y-2200000D01*
X13100000Y2200000D02*
X14100000Y2200000D01*
%TO.C,D30*%
X-10818733Y-7707463D02*
X-10960154Y-7848885D01*
X-7707463Y-10818733D02*
X-8414570Y-11525840D01*
X-10535890Y-7990306D02*
X-7707463Y-10818733D01*
X-10535890Y-7990306D02*
X-10818733Y-7707463D01*
X-10960154Y-7848885D02*
X-11525840Y-8414570D01*
%TO.C,D18*%
X2200000Y13300000D02*
X2200000Y14100000D01*
X1800000Y13100000D02*
X2200000Y13100000D01*
X-2200000Y13100000D02*
X-2200000Y14100000D01*
X2200000Y13100000D02*
X2200000Y13300000D01*
X1800000Y13100000D02*
X-2200000Y13100000D01*
%TO.C,D32*%
X-4737328Y-29766693D02*
X-4012282Y-30104788D01*
X-3059070Y-25694415D02*
X-2152762Y-26117033D01*
X-4749543Y-29319646D02*
X-3059070Y-25694415D01*
X-4918590Y-29682169D02*
X-4737328Y-29766693D01*
X-4749543Y-29319646D02*
X-4918590Y-29682169D01*
%TO.C,D29*%
X-19928073Y-27988987D02*
X-20210916Y-28271830D01*
X-20210916Y-28271830D02*
X-20069494Y-28413251D01*
X-19928073Y-27988987D02*
X-17099646Y-25160560D01*
X-17099646Y-25160560D02*
X-16392539Y-25867667D01*
X-20069494Y-28413251D02*
X-19503809Y-28978937D01*
%TO.C,D5*%
X25160560Y-17099646D02*
X25867667Y-16392539D01*
X27988987Y-19928073D02*
X25160560Y-17099646D01*
X27988987Y-19928073D02*
X28271830Y-20210916D01*
X28271830Y-20210916D02*
X28413251Y-20069494D01*
X28413251Y-20069494D02*
X28978937Y-19503809D01*
%TO.C,D24*%
X-29319646Y4749543D02*
X-25694415Y3059070D01*
X-29766693Y4737328D02*
X-30104788Y4012282D01*
X-29319646Y4749543D02*
X-29682169Y4918590D01*
X-29682169Y4918590D02*
X-29766693Y4737328D01*
X-25694415Y3059070D02*
X-26117033Y2152762D01*
%TO.C,D11*%
X23166754Y5505606D02*
X23235159Y5693544D01*
X23235159Y5693544D02*
X23508775Y6445298D01*
X22790877Y5642414D02*
X23166754Y5505606D01*
X19032107Y7010494D02*
X19374127Y7950187D01*
X22790877Y5642414D02*
X19032107Y7010494D01*
%TO.C,R1*%
X-2980000Y10653641D02*
X-2980000Y10346359D01*
X-2220000Y10653641D02*
X-2220000Y10346359D01*
%TO.C,R5*%
X-4165000Y11227064D02*
X-4165000Y10772936D01*
X-5635000Y11227064D02*
X-5635000Y10772936D01*
%TO.C,C3*%
X11211252Y3990000D02*
X9788748Y3990000D01*
X11211252Y5810000D02*
X9788748Y5810000D01*
%TO.C,R4*%
X7910000Y3072937D02*
X7910000Y4527065D01*
X6090000Y3072937D02*
X6090000Y4527065D01*
%TO.C,D1*%
X7950000Y-1200000D02*
X7950000Y-6600000D01*
X7950000Y-1200000D02*
X4650000Y-1200000D01*
X4650000Y-1200000D02*
X4650000Y-6600000D01*
%TO.C,D14*%
X10535890Y7990306D02*
X7707463Y10818733D01*
X10960154Y7848885D02*
X11525840Y8414570D01*
X7707463Y10818733D02*
X8414570Y11525840D01*
X10818733Y7707463D02*
X10960154Y7848885D01*
X10535890Y7990306D02*
X10818733Y7707463D01*
%TO.C,Q1*%
X-10400000Y-6600000D02*
X-4800000Y-6600000D01*
X-10400000Y-1400000D02*
X-5600000Y-1400000D01*
%TO.C,D6*%
X7707463Y-10818733D02*
X7848885Y-10960154D01*
X7848885Y-10960154D02*
X8414570Y-11525840D01*
X7990306Y-10535890D02*
X7707463Y-10818733D01*
X10818733Y-7707463D02*
X11525840Y-8414570D01*
X7990306Y-10535890D02*
X10818733Y-7707463D01*
%TO.C,D2*%
X-1800000Y-13100000D02*
X-2200000Y-13100000D01*
X-1800000Y-13100000D02*
X2200000Y-13100000D01*
X-2200000Y-13300000D02*
X-2200000Y-14100000D01*
X2200000Y-13100000D02*
X2200000Y-14100000D01*
X-2200000Y-13100000D02*
X-2200000Y-13300000D01*
%TD*%
M02*
