%TF.GenerationSoftware,KiCad,Pcbnew,(6.0.8)*%
%TF.CreationDate,2022-10-21T01:17:33+13:00*%
%TF.ProjectId,Seedling,53656564-6c69-46e6-972e-6b696361645f,rev?*%
%TF.SameCoordinates,Original*%
%TF.FileFunction,Soldermask,Top*%
%TF.FilePolarity,Negative*%
%FSLAX46Y46*%
G04 Gerber Fmt 4.6, Leading zero omitted, Abs format (unit mm)*
G04 Created by KiCad (PCBNEW (6.0.8)) date 2022-10-21 01:17:33*
%MOMM*%
%LPD*%
G01*
G04 APERTURE LIST*
G04 Aperture macros list*
%AMRoundRect*
0 Rectangle with rounded corners*
0 $1 Rounding radius*
0 $2 $3 $4 $5 $6 $7 $8 $9 X,Y pos of 4 corners*
0 Add a 4 corners polygon primitive as box body*
4,1,4,$2,$3,$4,$5,$6,$7,$8,$9,$2,$3,0*
0 Add four circle primitives for the rounded corners*
1,1,$1+$1,$2,$3*
1,1,$1+$1,$4,$5*
1,1,$1+$1,$6,$7*
1,1,$1+$1,$8,$9*
0 Add four rect primitives between the rounded corners*
20,1,$1+$1,$2,$3,$4,$5,0*
20,1,$1+$1,$4,$5,$6,$7,0*
20,1,$1+$1,$6,$7,$8,$9,0*
20,1,$1+$1,$8,$9,$2,$3,0*%
%AMFreePoly0*
4,1,21,1.792426,0.604926,1.810000,0.562500,1.810000,0.012500,1.792426,-0.029926,1.750000,-0.047500,1.460000,-0.047500,1.460000,-0.687500,1.442426,-0.729926,1.400000,-0.747499,-1.400000,-0.747500,-1.442426,-0.729926,-1.460000,-0.687500,-1.460000,-0.047500,-1.750000,-0.047500,-1.792426,-0.029926,-1.810000,0.012500,-1.810000,0.562501,-1.792426,0.604926,-1.750000,0.622500,1.750000,0.622500,
1.792426,0.604926,1.792426,0.604926,$1*%
G04 Aperture macros list end*
%ADD10C,3.200000*%
%ADD11RoundRect,0.250000X0.450000X-0.262500X0.450000X0.262500X-0.450000X0.262500X-0.450000X-0.262500X0*%
%ADD12RoundRect,0.250000X0.325000X0.650000X-0.325000X0.650000X-0.325000X-0.650000X0.325000X-0.650000X0*%
%ADD13FreePoly0,70.000000*%
%ADD14FreePoly0,250.000000*%
%ADD15FreePoly0,225.000000*%
%ADD16FreePoly0,45.000000*%
%ADD17FreePoly0,155.000000*%
%ADD18FreePoly0,335.000000*%
%ADD19FreePoly0,270.000000*%
%ADD20FreePoly0,90.000000*%
%ADD21RoundRect,0.055000X-0.495000X-0.845000X0.495000X-0.845000X0.495000X0.845000X-0.495000X0.845000X0*%
%ADD22RoundRect,0.090000X-1.010000X-0.810000X1.010000X-0.810000X1.010000X0.810000X-1.010000X0.810000X0*%
%ADD23FreePoly0,245.000000*%
%ADD24FreePoly0,65.000000*%
%ADD25R,8.200000X2.600000*%
%ADD26FreePoly0,110.000000*%
%ADD27FreePoly0,290.000000*%
%ADD28FreePoly0,205.000000*%
%ADD29FreePoly0,25.000000*%
%ADD30RoundRect,0.250000X0.625000X-0.312500X0.625000X0.312500X-0.625000X0.312500X-0.625000X-0.312500X0*%
%ADD31FreePoly0,295.000000*%
%ADD32FreePoly0,115.000000*%
%ADD33RoundRect,0.140000X-0.170000X0.140000X-0.170000X-0.140000X0.170000X-0.140000X0.170000X0.140000X0*%
%ADD34RoundRect,0.090000X1.010000X0.810000X-1.010000X0.810000X-1.010000X-0.810000X1.010000X-0.810000X0*%
%ADD35RoundRect,0.055000X0.495000X0.845000X-0.495000X0.845000X-0.495000X-0.845000X0.495000X-0.845000X0*%
%ADD36RoundRect,0.135000X-0.135000X-0.185000X0.135000X-0.185000X0.135000X0.185000X-0.135000X0.185000X0*%
%ADD37FreePoly0,180.000000*%
%ADD38FreePoly0,0.000000*%
%ADD39FreePoly0,340.000000*%
%ADD40FreePoly0,160.000000*%
%ADD41RoundRect,0.090000X-0.810000X1.010000X-0.810000X-1.010000X0.810000X-1.010000X0.810000X1.010000X0*%
%ADD42RoundRect,0.055000X-0.845000X0.495000X-0.845000X-0.495000X0.845000X-0.495000X0.845000X0.495000X0*%
%ADD43FreePoly0,315.000000*%
%ADD44FreePoly0,135.000000*%
%ADD45FreePoly0,200.000000*%
%ADD46FreePoly0,20.000000*%
%ADD47R,1.525000X0.650000*%
%ADD48R,2.710000X3.402000*%
%ADD49RoundRect,0.135000X-0.185000X0.135000X-0.185000X-0.135000X0.185000X-0.135000X0.185000X0.135000X0*%
%ADD50RoundRect,0.250000X-0.450000X0.262500X-0.450000X-0.262500X0.450000X-0.262500X0.450000X0.262500X0*%
%ADD51R,1.800000X2.500000*%
%ADD52R,0.700000X0.700000*%
%ADD53R,4.350000X4.510000*%
G04 APERTURE END LIST*
D10*
%TO.C,H1*%
X-10892780Y16773411D03*
%TD*%
D11*
%TO.C,R3*%
X2400000Y6287500D03*
X2400000Y8112500D03*
%TD*%
D12*
%TO.C,C1*%
X-2125000Y2400000D03*
X-5075000Y2400000D03*
%TD*%
D13*
%TO.C,D3*%
X7197743Y-21441451D03*
D14*
X8889189Y-22057087D03*
%TD*%
D15*
%TO.C,D22*%
X-9970205Y9970205D03*
D16*
X-11242997Y11242997D03*
%TD*%
D17*
%TO.C,D8*%
X28110911Y-3082522D03*
D18*
X28871623Y-1451168D03*
%TD*%
D19*
%TO.C,D17*%
X-6699927Y32082478D03*
D20*
X-8499927Y32082478D03*
%TD*%
D21*
%TO.C,J2*%
X-10050000Y0D03*
D22*
X-4500000Y0D03*
%TD*%
D23*
%TO.C,D16*%
X3082522Y28110911D03*
D24*
X1451168Y28871623D03*
%TD*%
D15*
%TO.C,D13*%
X17948174Y27423302D03*
D16*
X16675382Y28696094D03*
%TD*%
D25*
%TO.C,L1*%
X0Y-9200000D03*
X0Y-3600000D03*
%TD*%
D26*
%TO.C,D4*%
X17697743Y-22057087D03*
D27*
X19389189Y-21441451D03*
%TD*%
D14*
%TO.C,D19*%
X-7197743Y21441451D03*
D13*
X-8889189Y22057087D03*
%TD*%
D28*
%TO.C,D15*%
X10071822Y20250969D03*
D29*
X9311110Y21882323D03*
%TD*%
D30*
%TO.C,R2*%
X4600000Y2337500D03*
X4600000Y5262500D03*
%TD*%
D19*
%TO.C,D26*%
X-14100000Y0D03*
D20*
X-15900000Y0D03*
%TD*%
%TO.C,D33*%
X6699927Y-32082478D03*
D19*
X8499927Y-32082478D03*
%TD*%
D31*
%TO.C,D23*%
X-20250969Y10071822D03*
D32*
X-21882323Y9311110D03*
%TD*%
D10*
%TO.C,H2*%
X-16773411Y-10892780D03*
%TD*%
D33*
%TO.C,C2*%
X-9900000Y6980000D03*
X-9900000Y6020000D03*
%TD*%
D34*
%TO.C,J1*%
X4500000Y0D03*
D35*
X10050000Y0D03*
%TD*%
D27*
%TO.C,D20*%
X-17697743Y22057087D03*
D26*
X-19389189Y21441451D03*
%TD*%
D36*
%TO.C,R6*%
X-3510000Y-1500000D03*
X-2490000Y-1500000D03*
%TD*%
D37*
%TO.C,D9*%
X32082478Y6699927D03*
D38*
X32082478Y8499927D03*
%TD*%
D39*
%TO.C,D27*%
X-21441451Y-7197743D03*
D40*
X-22057087Y-8889189D03*
%TD*%
D41*
%TO.C,J3*%
X0Y4500000D03*
D42*
X0Y10050000D03*
%TD*%
D43*
%TO.C,D21*%
X-27423302Y17948174D03*
D44*
X-28696094Y16675382D03*
%TD*%
D32*
%TO.C,D7*%
X20250969Y-10071822D03*
D31*
X21882323Y-9311110D03*
%TD*%
D45*
%TO.C,D12*%
X22057087Y17697743D03*
D46*
X21441451Y19389189D03*
%TD*%
%TO.C,D28*%
X-22057087Y-17697743D03*
D45*
X-21441451Y-19389189D03*
%TD*%
D47*
%TO.C,U1*%
X-8212000Y8305000D03*
X-8212000Y7035000D03*
X-8212000Y5765000D03*
X-8212000Y4495000D03*
X-2788000Y4495000D03*
X-2788000Y5765000D03*
X-2788000Y7035000D03*
X-2788000Y8305000D03*
D48*
X-5500000Y6400000D03*
%TD*%
D10*
%TO.C,H4*%
X10892780Y-16773411D03*
%TD*%
D29*
%TO.C,D31*%
X-10071822Y-20250969D03*
D28*
X-9311110Y-21882323D03*
%TD*%
D38*
%TO.C,D25*%
X-32082478Y-6699927D03*
D37*
X-32082478Y-8499927D03*
%TD*%
D20*
%TO.C,D10*%
X14100000Y0D03*
D19*
X15900000Y0D03*
%TD*%
D43*
%TO.C,D30*%
X-9970205Y-9970205D03*
D44*
X-11242997Y-11242997D03*
%TD*%
D37*
%TO.C,D18*%
X0Y14100000D03*
D38*
X0Y15900000D03*
%TD*%
D24*
%TO.C,D32*%
X-3082522Y-28110911D03*
D23*
X-1451168Y-28871623D03*
%TD*%
D16*
%TO.C,D29*%
X-17948174Y-27423302D03*
D15*
X-16675382Y-28696094D03*
%TD*%
D44*
%TO.C,D5*%
X27423302Y-17948174D03*
D43*
X28696094Y-16675382D03*
%TD*%
D18*
%TO.C,D24*%
X-28110911Y3082522D03*
D17*
X-28871623Y1451168D03*
%TD*%
D40*
%TO.C,D11*%
X21441451Y7197743D03*
D39*
X22057087Y8889189D03*
%TD*%
D49*
%TO.C,R1*%
X-2600000Y11010000D03*
X-2600000Y9990000D03*
%TD*%
D50*
%TO.C,R5*%
X-4900000Y11912500D03*
X-4900000Y10087500D03*
%TD*%
D10*
%TO.C,H3*%
X16773411Y10892780D03*
%TD*%
D12*
%TO.C,C3*%
X11975000Y4900000D03*
X9025000Y4900000D03*
%TD*%
D30*
%TO.C,R4*%
X7000000Y2337501D03*
X7000000Y5262501D03*
%TD*%
D51*
%TO.C,D1*%
X6300000Y-2600000D03*
X6300000Y-6600000D03*
%TD*%
D44*
%TO.C,D14*%
X9970205Y9970205D03*
D43*
X11242997Y11242997D03*
%TD*%
D52*
%TO.C,Q1*%
X-5200000Y-4635000D03*
X-5200000Y-3365000D03*
X-5200000Y-5905000D03*
X-5200000Y-2095000D03*
D53*
X-8330000Y-4000000D03*
D52*
X-10800000Y-3365000D03*
X-10800000Y-5905000D03*
X-10800000Y-2095000D03*
X-10800000Y-4635000D03*
%TD*%
D16*
%TO.C,D6*%
X9970205Y-9970205D03*
D15*
X11242997Y-11242997D03*
%TD*%
D38*
%TO.C,D2*%
X0Y-14100000D03*
D37*
X0Y-15900000D03*
%TD*%
M02*
