  0
SECTION
  2
HEADER
  9
$ANGBASE
  50
0.0
  9
$ANGDIR
  70
1
  9
$MEASUREMENT
  70
0
  0
ENDSEC
  0
SECTION
  2
TABLES
  0
TABLE
  2
LTYPE
  70
4
  0
LTYPE
  5
40F
  2
CONTINUOUS
  70
0
  3
Solid line
  72
65
  73
0
  40
0.0
  0
LTYPE
  5
410
  2
DASHDOT
 70
0
  3
Dash Dot ____ _ ____ _
 72
65
 73
4
 40
2.0
 49
1.25
 49
-0.25
 49
0.25
 49
-0.25
  0
LTYPE
  5
411
  2
DASHED
 70
0
  3
Dashed __ __ __ __ __
 72
65
 73
2
 40
0.75
 49
0.5
 49
-0.25
  0
LTYPE
  5
43B
  2
DOTTED
 70
0
  3
Dotted .  .  .  .
 72
65
 73
2
 40
0.2
 49
0.0
 49
-0.2
  0
ENDTAB
  0
TABLE
  2
STYLE
  70
4
  0
STYLE
  2
KICAD
  70
0
  40
0
  41
1
  42
1
  50
0
  71
0
  3
isocp.shx
  0
STYLE
  2
KICADB
  70
0
  40
0
  41
1
  42
1
  50
0
  71
0
  3
isocp.shx
  0
STYLE
  2
KICADI
  70
0
  40
0
  41
1
  42
1
  50
15
  71
0
  3
isocp.shx
  0
STYLE
  2
KICADBI
  70
0
  40
0
  41
1
  42
1
  50
15
  71
0
  3
isocp.shx
  0
ENDTAB
  0
TABLE
  2
LAYER
  70
1
  0
LAYER
  2
BLACK
  70
0
  62
7
  6
CONTINUOUS
  0
ENDTAB
  0
ENDSEC
  0
SECTION
  2
ENTITIES
0
LINE
8
BLACK
6
CONTINUOUS
10
6.4763779527559056
20
-3.1727451574803149
11
6.4763779527559056
21
-0.7878847244094488
0
LINE
8
BLACK
6
CONTINUOUS
10
5.2165844488188977
20
-3.1732176771653542
11
5.2170175984251967
21
-3.1732283070866143
0
LINE
8
BLACK
6
CONTINUOUS
10
5.2165460629921263
20
-0.7874505905511811
11
5.2165354330708658
21
-0.7878837401574803
0
LINE
8
BLACK
6
CONTINUOUS
10
6.475894763779527
20
-0.7874015748031495
11
5.2170185826771656
21
-0.7874015748031495
0
LINE
8
BLACK
6
CONTINUOUS
10
5.2170185826771656
20
-3.173228346456693
11
6.475894763779527
21
-3.173228346456693
0
LINE
8
BLACK
6
CONTINUOUS
10
6.4758957480314958
20
-3.1732283070866143
11
6.4763288976377948
21
-3.1732176771653542
0
LINE
8
BLACK
6
CONTINUOUS
10
5.2165354330708658
20
-0.7878847244094488
11
5.2165354330708658
21
-3.1727451574803149
0
LINE
8
BLACK
6
CONTINUOUS
10
6.4763779133858268
20
-0.7878837401574803
11
6.4763672834645671
21
-0.7874505905511811
0
LINE
8
BLACK
6
CONTINUOUS
10
5.2170175984251967
20
-0.7874015748031495
11
5.2165844488188977
21
-0.7874122047244094
0
LINE
8
BLACK
6
CONTINUOUS
10
6.4763288976377948
20
-0.7874122047244094
11
6.4758957480314958
21
-0.7874015748031495
0
LINE
8
BLACK
6
CONTINUOUS
10
6.4763672834645671
20
-3.1731792913385828
11
6.4763779133858268
21
-3.1727461417322833
0
LINE
8
BLACK
6
CONTINUOUS
10
5.2165354330708658
20
-3.1727461417322833
11
5.2165460629921263
21
-3.1731792913385828
0
LINE
8
BLACK
6
CONTINUOUS
10
5.5179327165354328
20
-2.3558113385826771
11
5.52974374015748
21
-2.3676223622047243
0
LINE
8
BLACK
6
CONTINUOUS
10
5.52974374015748
20
-2.3558113385826771
11
5.5179327165354328
21
-2.3676223622047243
0
LINE
8
BLACK
6
CONTINUOUS
10
5.5216535433070861
20
-2.5984251968503935
11
5.5334645669291334
21
-2.6102362204724407
0
LINE
8
BLACK
6
CONTINUOUS
10
5.5334645669291334
20
-2.5984251968503935
11
5.5216535433070861
21
-2.6102362204724407
0
LINE
8
BLACK
6
CONTINUOUS
10
5.5255905511811019
20
-1.1023622047244095
11
5.5374015748031491
21
-1.1141732283464567
0
LINE
8
BLACK
6
CONTINUOUS
10
5.5374015748031491
20
-1.1023622047244095
11
5.5255905511811019
21
-1.1141732283464567
0
LINE
8
BLACK
6
CONTINUOUS
10
5.5255905511811019
20
-1.1614173228346456
11
5.5374015748031491
21
-1.1732283464566928
0
LINE
8
BLACK
6
CONTINUOUS
10
5.5374015748031491
20
-1.1614173228346456
11
5.5255905511811019
21
-1.1732283464566928
0
LINE
8
BLACK
6
CONTINUOUS
10
5.5275590551181102
20
-1.2598425196850394
11
5.5393700787401574
21
-1.2716535433070866
0
LINE
8
BLACK
6
CONTINUOUS
10
5.5393700787401574
20
-1.2598425196850394
11
5.5275590551181102
21
-1.2716535433070866
0
LINE
8
BLACK
6
CONTINUOUS
10
5.5354330708661417
20
-1.4685039370078741
11
5.5472440944881889
21
-1.4803149606299213
0
LINE
8
BLACK
6
CONTINUOUS
10
5.5472440944881889
20
-1.4685039370078741
11
5.5354330708661417
21
-1.4803149606299213
0
LINE
8
BLACK
6
CONTINUOUS
10
5.5661447244094484
20
-2.1191097244094488
11
5.5779557480314956
21
-2.130920748031496
0
LINE
8
BLACK
6
CONTINUOUS
10
5.5779557480314956
20
-2.1191097244094488
11
5.5661447244094484
21
-2.130920748031496
0
LINE
8
BLACK
6
CONTINUOUS
10
5.5767716535433074
20
-2.1692913385826773
11
5.5885826771653546
21
-2.1811023622047245
0
LINE
8
BLACK
6
CONTINUOUS
10
5.5885826771653546
20
-2.1692913385826773
11
5.5767716535433074
21
-2.1811023622047245
0
LINE
8
BLACK
6
CONTINUOUS
10
5.5819531102362205
20
-1.971846496062992
11
5.5937641338582678
21
-1.9836575196850392
0
LINE
8
BLACK
6
CONTINUOUS
10
5.5937641338582678
20
-1.971846496062992
11
5.5819531102362205
21
-1.9836575196850392
0
LINE
8
BLACK
6
CONTINUOUS
10
5.5846456692913389
20
-1.7106299212598426
11
5.5964566929133861
21
-1.7224409448818898
0
LINE
8
BLACK
6
CONTINUOUS
10
5.5964566929133861
20
-1.7106299212598426
11
5.5846456692913389
21
-1.7224409448818898
0
LINE
8
BLACK
6
CONTINUOUS
10
5.5846456692913389
20
-1.7519685039370079
11
5.5964566929133861
21
-1.7637795275590551
0
LINE
8
BLACK
6
CONTINUOUS
10
5.5964566929133861
20
-1.7519685039370079
11
5.5846456692913389
21
-1.7637795275590551
0
LINE
8
BLACK
6
CONTINUOUS
10
5.6023622047244093
20
-1.3582677165354331
11
5.6141732283464565
21
-1.3700787401574803
0
LINE
8
BLACK
6
CONTINUOUS
10
5.6141732283464565
20
-1.3582677165354331
11
5.6023622047244093
21
-1.3700787401574803
0
LINE
8
BLACK
6
CONTINUOUS
10
5.6082677165354333
20
-2.6358267716535431
11
5.6200787401574805
21
-2.6476377952755903
0
LINE
8
BLACK
6
CONTINUOUS
10
5.6200787401574805
20
-2.6358267716535431
11
5.6082677165354333
21
-2.6476377952755903
0
LINE
8
BLACK
6
CONTINUOUS
10
5.6102362204724407
20
-2.6692913385826773
11
5.622047244094488
21
-2.6811023622047245
0
LINE
8
BLACK
6
CONTINUOUS
10
5.622047244094488
20
-2.6692913385826773
11
5.6102362204724407
21
-2.6811023622047245
0
LINE
8
BLACK
6
CONTINUOUS
10
5.6122047244094491
20
-1.515748031496063
11
5.6240157480314963
21
-1.5275590551181102
0
LINE
8
BLACK
6
CONTINUOUS
10
5.6240157480314963
20
-1.515748031496063
11
5.6122047244094491
21
-1.5275590551181102
0
LINE
8
BLACK
6
CONTINUOUS
10
5.6141732283464565
20
-2.6043307086614171
11
5.6259842519685037
21
-2.6161417322834644
0
LINE
8
BLACK
6
CONTINUOUS
10
5.6259842519685037
20
-2.6043307086614171
11
5.6141732283464565
21
-2.6161417322834644
0
LINE
8
BLACK
6
CONTINUOUS
10
5.6239952362204724
20
-2.165374842519685
11
5.6358062598425196
21
-2.1771858661417323
0
LINE
8
BLACK
6
CONTINUOUS
10
5.6358062598425196
20
-2.165374842519685
11
5.6239952362204724
21
-2.1771858661417323
0
LINE
8
BLACK
6
CONTINUOUS
10
5.6240157480314963
20
-1.1771653543307086
11
5.6358267716535435
21
-1.1889763779527558
0
LINE
8
BLACK
6
CONTINUOUS
10
5.6358267716535435
20
-1.1771653543307086
11
5.6240157480314963
21
-1.1889763779527558
0
LINE
8
BLACK
6
CONTINUOUS
10
5.6476583070866138
20
-2.1417117716535432
11
5.659469330708661
21
-2.1535227952755904
0
LINE
8
BLACK
6
CONTINUOUS
10
5.659469330708661
20
-2.1417117716535432
11
5.6476583070866138
21
-2.1535227952755904
0
LINE
8
BLACK
6
CONTINUOUS
10
5.6574803149606296
20
-2.5098425196850394
11
5.6692913385826769
21
-2.5216535433070866
0
LINE
8
BLACK
6
CONTINUOUS
10
5.6692913385826769
20
-2.5098425196850394
11
5.6574803149606296
21
-2.5216535433070866
0
LINE
8
BLACK
6
CONTINUOUS
10
5.6633858267716537
20
-1.200787401574803
11
5.6751968503937009
21
-1.2125984251968505
0
LINE
8
BLACK
6
CONTINUOUS
10
5.6751968503937009
20
-1.200787401574803
11
5.6633858267716537
21
-1.2125984251968505
0
LINE
8
BLACK
6
CONTINUOUS
10
5.6673228346456694
20
-1.2440944881889764
11
5.6791338582677167
21
-1.2559055118110236
0
LINE
8
BLACK
6
CONTINUOUS
10
5.6791338582677167
20
-1.2440944881889764
11
5.6673228346456694
21
-1.2559055118110236
0
LINE
8
BLACK
6
CONTINUOUS
10
5.6673228346456694
20
-1.2913385826771653
11
5.6791338582677167
21
-1.3031496062992125
0
LINE
8
BLACK
6
CONTINUOUS
10
5.6791338582677167
20
-1.2913385826771653
11
5.6673228346456694
21
-1.3031496062992125
0
LINE
8
BLACK
6
CONTINUOUS
10
5.6763779527559057
20
-2.6051181102362202
11
5.688188976377953
21
-2.6169291338582679
0
LINE
8
BLACK
6
CONTINUOUS
10
5.688188976377953
20
-2.6051181102362202
11
5.6763779527559057
21
-2.6169291338582679
0
LINE
8
BLACK
6
CONTINUOUS
10
5.6791338582677167
20
-2.3149606299212597
11
5.6909448818897639
21
-2.326771653543307
0
LINE
8
BLACK
6
CONTINUOUS
10
5.6909448818897639
20
-2.3149606299212597
11
5.6791338582677167
21
-2.326771653543307
0
LINE
8
BLACK
6
CONTINUOUS
10
5.683858267716535
20
-2.6700787401574804
11
5.6956692913385822
21
-2.6818897637795276
0
LINE
8
BLACK
6
CONTINUOUS
10
5.6956692913385822
20
-2.6700787401574804
11
5.683858267716535
21
-2.6818897637795276
0
LINE
8
BLACK
6
CONTINUOUS
10
5.6870078740157481
20
-2.4212598425196852
11
5.6988188976377954
21
-2.4330708661417324
0
LINE
8
BLACK
6
CONTINUOUS
10
5.6988188976377954
20
-2.4212598425196852
11
5.6870078740157481
21
-2.4330708661417324
0
LINE
8
BLACK
6
CONTINUOUS
10
5.6909448818897639
20
-1.3759842519685039
11
5.7027559055118111
21
-1.3877952755905512
0
LINE
8
BLACK
6
CONTINUOUS
10
5.7027559055118111
20
-1.3759842519685039
11
5.6909448818897639
21
-1.3877952755905512
0
LINE
8
BLACK
6
CONTINUOUS
10
5.6909448818897639
20
-2.2795275590551181
11
5.7027559055118111
21
-2.2913385826771653
0
LINE
8
BLACK
6
CONTINUOUS
10
5.7027559055118111
20
-2.2795275590551181
11
5.6909448818897639
21
-2.2913385826771653
0
LINE
8
BLACK
6
CONTINUOUS
10
5.7027559055118111
20
-1.2125984251968505
11
5.7145669291338583
21
-1.2244094488188977
0
LINE
8
BLACK
6
CONTINUOUS
10
5.7145669291338583
20
-1.2125984251968505
11
5.7027559055118111
21
-1.2244094488188977
0
LINE
8
BLACK
6
CONTINUOUS
10
5.7118110236220474
20
-2.3885826771653544
11
5.7236220472440946
21
-2.4003937007874017
0
LINE
8
BLACK
6
CONTINUOUS
10
5.7236220472440946
20
-2.3885826771653544
11
5.7118110236220474
21
-2.4003937007874017
0
LINE
8
BLACK
6
CONTINUOUS
10
5.71259842519685
20
-1.6161417322834646
11
5.7244094488188972
21
-1.6279527559055118
0
LINE
8
BLACK
6
CONTINUOUS
10
5.7244094488188972
20
-1.6161417322834646
11
5.71259842519685
21
-1.6279527559055118
0
LINE
8
BLACK
6
CONTINUOUS
10
5.7236220472440946
20
-2.6700787401574804
11
5.7354330708661418
21
-2.6818897637795276
0
LINE
8
BLACK
6
CONTINUOUS
10
5.7354330708661418
20
-2.6700787401574804
11
5.7236220472440946
21
-2.6818897637795276
0
LINE
8
BLACK
6
CONTINUOUS
10
5.7303149606299213
20
-1.7421259842519685
11
5.7421259842519685
21
-1.7539370078740157
0
LINE
8
BLACK
6
CONTINUOUS
10
5.7421259842519685
20
-1.7421259842519685
11
5.7303149606299213
21
-1.7539370078740157
0
LINE
8
BLACK
6
CONTINUOUS
10
5.7362204724409445
20
-1.204724409448819
11
5.7480314960629917
21
-1.2165354330708662
0
LINE
8
BLACK
6
CONTINUOUS
10
5.7480314960629917
20
-1.204724409448819
11
5.7362204724409445
21
-1.2165354330708662
0
LINE
8
BLACK
6
CONTINUOUS
10
5.7362204724409445
20
-1.3248031496062991
11
5.7480314960629917
21
-1.3366141732283465
0
LINE
8
BLACK
6
CONTINUOUS
10
5.7480314960629917
20
-1.3248031496062991
11
5.7362204724409445
21
-1.3366141732283465
0
LINE
8
BLACK
6
CONTINUOUS
10
5.7539370078740157
20
-2.5314960629921259
11
5.765748031496063
21
-2.5433070866141732
0
LINE
8
BLACK
6
CONTINUOUS
10
5.765748031496063
20
-2.5314960629921259
11
5.7539370078740157
21
-2.5433070866141732
0
LINE
8
BLACK
6
CONTINUOUS
10
5.7539370078740157
20
-2.6240157480314958
11
5.765748031496063
21
-2.6358267716535431
0
LINE
8
BLACK
6
CONTINUOUS
10
5.765748031496063
20
-2.6240157480314958
11
5.7539370078740157
21
-2.6358267716535431
0
LINE
8
BLACK
6
CONTINUOUS
10
5.7539370078740157
20
-2.6555118110236218
11
5.765748031496063
21
-2.6673228346456694
0
LINE
8
BLACK
6
CONTINUOUS
10
5.765748031496063
20
-2.6555118110236218
11
5.7539370078740157
21
-2.6673228346456694
0
LINE
8
BLACK
6
CONTINUOUS
10
5.7559055118110232
20
-1.3543307086614174
11
5.7677165354330704
21
-1.3661417322834646
0
LINE
8
BLACK
6
CONTINUOUS
10
5.7677165354330704
20
-1.3543307086614174
11
5.7559055118110232
21
-1.3661417322834646
0
LINE
8
BLACK
6
CONTINUOUS
10
5.7677165354330704
20
-1.204724409448819
11
5.7795275590551176
21
-1.2165354330708662
0
LINE
8
BLACK
6
CONTINUOUS
10
5.7795275590551176
20
-1.204724409448819
11
5.7677165354330704
21
-1.2165354330708662
0
LINE
8
BLACK
6
CONTINUOUS
10
5.7933070866141732
20
-2.0472440944881889
11
5.8051181102362204
21
-2.0590551181102361
0
LINE
8
BLACK
6
CONTINUOUS
10
5.8051181102362204
20
-2.0472440944881889
11
5.7933070866141732
21
-2.0590551181102361
0
LINE
8
BLACK
6
CONTINUOUS
10
5.7972440944881889
20
-1.4724409448818898
11
5.8090551181102361
21
-1.484251968503937
0
LINE
8
BLACK
6
CONTINUOUS
10
5.8090551181102361
20
-1.4724409448818898
11
5.7972440944881889
21
-1.484251968503937
0
LINE
8
BLACK
6
CONTINUOUS
10
5.8011811023622046
20
-2.173228346456693
11
5.8129921259842519
21
-2.1850393700787403
0
LINE
8
BLACK
6
CONTINUOUS
10
5.8129921259842519
20
-2.173228346456693
11
5.8011811023622046
21
-2.1850393700787403
0
LINE
8
BLACK
6
CONTINUOUS
10
5.8011811023622046
20
-2.2834645669291338
11
5.8129921259842519
21
-2.295275590551181
0
LINE
8
BLACK
6
CONTINUOUS
10
5.8129921259842519
20
-2.2834645669291338
11
5.8011811023622046
21
-2.295275590551181
0
LINE
8
BLACK
6
CONTINUOUS
10
5.8011811023622046
20
-2.3228346456692912
11
5.8129921259842519
21
-2.3346456692913384
0
LINE
8
BLACK
6
CONTINUOUS
10
5.8129921259842519
20
-2.3228346456692912
11
5.8011811023622046
21
-2.3346456692913384
0
LINE
8
BLACK
6
CONTINUOUS
10
5.8011811023622046
20
-2.3622047244094486
11
5.8129921259842519
21
-2.3740157480314958
0
LINE
8
BLACK
6
CONTINUOUS
10
5.8129921259842519
20
-2.3622047244094486
11
5.8011811023622046
21
-2.3740157480314958
0
LINE
8
BLACK
6
CONTINUOUS
10
5.8051181102362204
20
-2.4527559055118111
11
5.8169291338582676
21
-2.4645669291338583
0
LINE
8
BLACK
6
CONTINUOUS
10
5.8169291338582676
20
-2.4527559055118111
11
5.8051181102362204
21
-2.4645669291338583
0
LINE
8
BLACK
6
CONTINUOUS
10
5.8090551181102361
20
-1.860236220472441
11
5.8208661417322833
21
-1.8720472440944882
0
LINE
8
BLACK
6
CONTINUOUS
10
5.8208661417322833
20
-1.860236220472441
11
5.8090551181102361
21
-1.8720472440944882
0
LINE
8
BLACK
6
CONTINUOUS
10
5.8110236220472435
20
-1.5413385826771653
11
5.8228346456692908
21
-1.5531496062992125
0
LINE
8
BLACK
6
CONTINUOUS
10
5.8228346456692908
20
-1.5413385826771653
11
5.8110236220472435
21
-1.5531496062992125
0
LINE
8
BLACK
6
CONTINUOUS
10
5.8208661417322833
20
-2.1181102362204722
11
5.8326771653543306
21
-2.1299212598425195
0
LINE
8
BLACK
6
CONTINUOUS
10
5.8326771653543306
20
-2.1181102362204722
11
5.8208661417322833
21
-2.1299212598425195
0
LINE
8
BLACK
6
CONTINUOUS
10
5.8208661417322833
20
-2.4803149606299213
11
5.8326771653543306
21
-2.4921259842519685
0
LINE
8
BLACK
6
CONTINUOUS
10
5.8326771653543306
20
-2.4803149606299213
11
5.8208661417322833
21
-2.4921259842519685
0
LINE
8
BLACK
6
CONTINUOUS
10
5.8248031496062991
20
-1.9763779527559056
11
5.8366141732283463
21
-1.9881889763779528
0
LINE
8
BLACK
6
CONTINUOUS
10
5.8366141732283463
20
-1.9763779527559056
11
5.8248031496062991
21
-1.9881889763779528
0
LINE
8
BLACK
6
CONTINUOUS
10
5.8307086614173231
20
-1.3700787401574803
11
5.8425196850393704
21
-1.3818897637795275
0
LINE
8
BLACK
6
CONTINUOUS
10
5.8425196850393704
20
-1.3700787401574803
11
5.8307086614173231
21
-1.3818897637795275
0
LINE
8
BLACK
6
CONTINUOUS
10
5.840551181102362
20
-2.2834645669291338
11
5.8523622047244093
21
-2.295275590551181
0
LINE
8
BLACK
6
CONTINUOUS
10
5.8523622047244093
20
-2.2834645669291338
11
5.840551181102362
21
-2.295275590551181
0
LINE
8
BLACK
6
CONTINUOUS
10
5.840551181102362
20
-2.3228346456692912
11
5.8523622047244093
21
-2.3346456692913384
0
LINE
8
BLACK
6
CONTINUOUS
10
5.8523622047244093
20
-2.3228346456692912
11
5.840551181102362
21
-2.3346456692913384
0
LINE
8
BLACK
6
CONTINUOUS
10
5.840551181102362
20
-2.3622047244094486
11
5.8523622047244093
21
-2.3740157480314958
0
LINE
8
BLACK
6
CONTINUOUS
10
5.8523622047244093
20
-2.3622047244094486
11
5.840551181102362
21
-2.3740157480314958
0
LINE
8
BLACK
6
CONTINUOUS
10
5.840551181102362
20
-2.5059055118110236
11
5.8523622047244093
21
-2.5177165354330708
0
LINE
8
BLACK
6
CONTINUOUS
10
5.8523622047244093
20
-2.5059055118110236
11
5.840551181102362
21
-2.5177165354330708
0
LINE
8
BLACK
6
CONTINUOUS
10
5.8464566929133861
20
-1.2440944881889764
11
5.8582677165354333
21
-1.2559055118110236
0
LINE
8
BLACK
6
CONTINUOUS
10
5.8582677165354333
20
-1.2440944881889764
11
5.8464566929133861
21
-1.2559055118110236
0
LINE
8
BLACK
6
CONTINUOUS
10
5.856299212598425
20
-2.1181102362204722
11
5.8681102362204722
21
-2.1299212598425195
0
LINE
8
BLACK
6
CONTINUOUS
10
5.8681102362204722
20
-2.1181102362204722
11
5.856299212598425
21
-2.1299212598425195
0
LINE
8
BLACK
6
CONTINUOUS
10
5.8681102362204722
20
-1.3700787401574803
11
5.8799212598425195
21
-1.3818897637795275
0
LINE
8
BLACK
6
CONTINUOUS
10
5.8799212598425195
20
-1.3700787401574803
11
5.8681102362204722
21
-1.3818897637795275
0
LINE
8
BLACK
6
CONTINUOUS
10
5.8700787401574805
20
-2.1673228346456694
11
5.8818897637795278
21
-2.1791338582677167
0
LINE
8
BLACK
6
CONTINUOUS
10
5.8818897637795278
20
-2.1673228346456694
11
5.8700787401574805
21
-2.1791338582677167
0
LINE
8
BLACK
6
CONTINUOUS
10
5.872047244094488
20
-2.5059055118110236
11
5.8838582677165352
21
-2.5177165354330708
0
LINE
8
BLACK
6
CONTINUOUS
10
5.8838582677165352
20
-2.5059055118110236
11
5.872047244094488
21
-2.5177165354330708
0
LINE
8
BLACK
6
CONTINUOUS
10
5.8799212598425195
20
-1.9763779527559056
11
5.8917322834645667
21
-1.9881889763779528
0
LINE
8
BLACK
6
CONTINUOUS
10
5.8917322834645667
20
-1.9763779527559056
11
5.8799212598425195
21
-1.9881889763779528
0
LINE
8
BLACK
6
CONTINUOUS
10
5.8799212598425195
20
-2.2834645669291338
11
5.8917322834645667
21
-2.295275590551181
0
LINE
8
BLACK
6
CONTINUOUS
10
5.8917322834645667
20
-2.2834645669291338
11
5.8799212598425195
21
-2.295275590551181
0
LINE
8
BLACK
6
CONTINUOUS
10
5.8799212598425195
20
-2.3228346456692912
11
5.8917322834645667
21
-2.3346456692913384
0
LINE
8
BLACK
6
CONTINUOUS
10
5.8917322834645667
20
-2.3228346456692912
11
5.8799212598425195
21
-2.3346456692913384
0
LINE
8
BLACK
6
CONTINUOUS
10
5.8799212598425195
20
-2.3622047244094486
11
5.8917322834645667
21
-2.3740157480314958
0
LINE
8
BLACK
6
CONTINUOUS
10
5.8917322834645667
20
-2.3622047244094486
11
5.8799212598425195
21
-2.3740157480314958
0
LINE
8
BLACK
6
CONTINUOUS
10
5.8917322834645667
20
-2.0472440944881889
11
5.9035433070866139
21
-2.0590551181102361
0
LINE
8
BLACK
6
CONTINUOUS
10
5.9035433070866139
20
-2.0472440944881889
11
5.8917322834645667
21
-2.0590551181102361
0
LINE
8
BLACK
6
CONTINUOUS
10
5.8917322834645667
20
-2.6456692913385824
11
5.9035433070866139
21
-2.6574803149606296
0
LINE
8
BLACK
6
CONTINUOUS
10
5.9035433070866139
20
-2.6456692913385824
11
5.8917322834645667
21
-2.6574803149606296
0
LINE
8
BLACK
6
CONTINUOUS
10
5.8976377952755907
20
-2.4625984251968505
11
5.909448818897638
21
-2.4744094488188977
0
LINE
8
BLACK
6
CONTINUOUS
10
5.909448818897638
20
-2.4625984251968505
11
5.8976377952755907
21
-2.4744094488188977
0
LINE
8
BLACK
6
CONTINUOUS
10
5.8996062992125982
20
-2.1929133858267718
11
5.9114173228346454
21
-2.204724409448819
0
LINE
8
BLACK
6
CONTINUOUS
10
5.9114173228346454
20
-2.1929133858267718
11
5.8996062992125982
21
-2.204724409448819
0
LINE
8
BLACK
6
CONTINUOUS
10
5.9232283464566926
20
-2.4409448818897639
11
5.9350393700787398
21
-2.4527559055118111
0
LINE
8
BLACK
6
CONTINUOUS
10
5.9350393700787398
20
-2.4409448818897639
11
5.9232283464566926
21
-2.4527559055118111
0
LINE
8
BLACK
6
CONTINUOUS
10
5.9350393700787398
20
-2.5354330708661417
11
5.9468503937007871
21
-2.5472440944881889
0
LINE
8
BLACK
6
CONTINUOUS
10
5.9468503937007871
20
-2.5354330708661417
11
5.9350393700787398
21
-2.5472440944881889
0
LINE
8
BLACK
6
CONTINUOUS
10
5.9389763779527556
20
-1.3129921259842519
11
5.9507874015748028
21
-1.3248031496062991
0
LINE
8
BLACK
6
CONTINUOUS
10
5.9507874015748028
20
-1.3129921259842519
11
5.9389763779527556
21
-1.3248031496062991
0
LINE
8
BLACK
6
CONTINUOUS
10
5.9468503937007871
20
-2.0472440944881889
11
5.9586614173228343
21
-2.0590551181102361
0
LINE
8
BLACK
6
CONTINUOUS
10
5.9586614173228343
20
-2.0472440944881889
11
5.9468503937007871
21
-2.0590551181102361
0
LINE
8
BLACK
6
CONTINUOUS
10
5.9586614173228343
20
-2.4429133858267718
11
5.9704724409448815
21
-2.454724409448819
0
LINE
8
BLACK
6
CONTINUOUS
10
5.9704724409448815
20
-2.4429133858267718
11
5.9586614173228343
21
-2.454724409448819
0
LINE
8
BLACK
6
CONTINUOUS
10
5.9803149606299213
20
-1.639763779527559
11
5.9921259842519685
21
-1.6515748031496063
0
LINE
8
BLACK
6
CONTINUOUS
10
5.9921259842519685
20
-1.639763779527559
11
5.9803149606299213
21
-1.6515748031496063
0
LINE
8
BLACK
6
CONTINUOUS
10
5.9940944881889759
20
-2.3523622047244093
11
6.0059055118110232
21
-2.3641732283464565
0
LINE
8
BLACK
6
CONTINUOUS
10
6.0059055118110232
20
-2.3523622047244093
11
5.9940944881889759
21
-2.3641732283464565
0
LINE
8
BLACK
6
CONTINUOUS
10
6.
20
-1.326771653543307
11
6.0118110236220472
21
-1.3385826771653544
0
LINE
8
BLACK
6
CONTINUOUS
10
6.0118110236220472
20
-1.326771653543307
11
6.
21
-1.3385826771653544
0
LINE
8
BLACK
6
CONTINUOUS
10
6.0019685039370074
20
-2.2165354330708662
11
6.0137795275590546
21
-2.2283464566929134
0
LINE
8
BLACK
6
CONTINUOUS
10
6.0137795275590546
20
-2.2165354330708662
11
6.0019685039370074
21
-2.2283464566929134
0
LINE
8
BLACK
6
CONTINUOUS
10
6.0059055118110232
20
-1.450787401574803
11
6.0177165354330704
21
-1.4625984251968505
0
LINE
8
BLACK
6
CONTINUOUS
10
6.0177165354330704
20
-1.450787401574803
11
6.0059055118110232
21
-1.4625984251968505
0
LINE
8
BLACK
6
CONTINUOUS
10
6.0177165354330704
20
-2.159448818897638
11
6.0295275590551176
21
-2.1712598425196852
0
LINE
8
BLACK
6
CONTINUOUS
10
6.0295275590551176
20
-2.159448818897638
11
6.0177165354330704
21
-2.1712598425196852
0
LINE
8
BLACK
6
CONTINUOUS
10
6.0413385826771648
20
-1.8385826771653544
11
6.0531496062992121
21
-1.8503937007874016
0
LINE
8
BLACK
6
CONTINUOUS
10
6.0531496062992121
20
-1.8385826771653544
11
6.0413385826771648
21
-1.8503937007874016
0
LINE
8
BLACK
6
CONTINUOUS
10
6.0472440944881889
20
-1.7598425196850394
11
6.0590551181102361
21
-1.7716535433070866
0
LINE
8
BLACK
6
CONTINUOUS
10
6.0590551181102361
20
-1.7598425196850394
11
6.0472440944881889
21
-1.7716535433070866
0
LINE
8
BLACK
6
CONTINUOUS
10
6.0531496062992121
20
-2.3248031496062991
11
6.0649606299212593
21
-2.3366141732283463
0
LINE
8
BLACK
6
CONTINUOUS
10
6.0649606299212593
20
-2.3248031496062991
11
6.0531496062992121
21
-2.3366141732283463
0
LINE
8
BLACK
6
CONTINUOUS
10
6.0610236220472435
20
-2.6181102362204722
11
6.0728346456692908
21
-2.6299212598425195
0
LINE
8
BLACK
6
CONTINUOUS
10
6.0728346456692908
20
-2.6181102362204722
11
6.0610236220472435
21
-2.6299212598425195
0
LINE
8
BLACK
6
CONTINUOUS
10
6.068897637795275
20
-1.2598425196850394
11
6.0807086614173231
21
-1.2716535433070866
0
LINE
8
BLACK
6
CONTINUOUS
10
6.0807086614173231
20
-1.2598425196850394
11
6.068897637795275
21
-1.2716535433070866
0
LINE
8
BLACK
6
CONTINUOUS
10
6.068897637795275
20
-1.3070866141732282
11
6.0807086614173231
21
-1.3188976377952755
0
LINE
8
BLACK
6
CONTINUOUS
10
6.0807086614173231
20
-1.3070866141732282
11
6.068897637795275
21
-1.3188976377952755
0
LINE
8
BLACK
6
CONTINUOUS
10
6.0984251968503935
20
-2.1023622047244093
11
6.1102362204724407
21
-2.1141732283464565
0
LINE
8
BLACK
6
CONTINUOUS
10
6.1102362204724407
20
-2.1023622047244093
11
6.0984251968503935
21
-2.1141732283464565
0
LINE
8
BLACK
6
CONTINUOUS
10
6.1043307086614176
20
-2.5944881889763778
11
6.1161417322834648
21
-2.606299212598425
0
LINE
8
BLACK
6
CONTINUOUS
10
6.1161417322834648
20
-2.5944881889763778
11
6.1043307086614176
21
-2.606299212598425
0
LINE
8
BLACK
6
CONTINUOUS
10
6.106299212598425
20
-2.2480314960629921
11
6.1181102362204722
21
-2.2598425196850394
0
LINE
8
BLACK
6
CONTINUOUS
10
6.1181102362204722
20
-2.2480314960629921
11
6.106299212598425
21
-2.2598425196850394
0
LINE
8
BLACK
6
CONTINUOUS
10
6.1161417322834648
20
-1.9704724409448819
11
6.127952755905512
21
-1.9822834645669292
0
LINE
8
BLACK
6
CONTINUOUS
10
6.127952755905512
20
-1.9704724409448819
11
6.1161417322834648
21
-1.9822834645669292
0
LINE
8
BLACK
6
CONTINUOUS
10
6.1200787401574805
20
-1.8543307086614174
11
6.1318897637795278
21
-1.8661417322834646
0
LINE
8
BLACK
6
CONTINUOUS
10
6.1318897637795278
20
-1.8543307086614174
11
6.1200787401574805
21
-1.8661417322834646
0
LINE
8
BLACK
6
CONTINUOUS
10
6.1200787401574805
20
-2.1712598425196852
11
6.1318897637795278
21
-2.1830708661417324
0
LINE
8
BLACK
6
CONTINUOUS
10
6.1318897637795278
20
-2.1712598425196852
11
6.1200787401574805
21
-2.1830708661417324
0
LINE
8
BLACK
6
CONTINUOUS
10
6.122047244094488
20
-2.4291338582677167
11
6.1338582677165352
21
-2.4409448818897639
0
LINE
8
BLACK
6
CONTINUOUS
10
6.1338582677165352
20
-2.4291338582677167
11
6.122047244094488
21
-2.4409448818897639
0
LINE
8
BLACK
6
CONTINUOUS
10
6.1240157480314963
20
-2.4685039370078741
11
6.1358267716535435
21
-2.4803149606299213
0
LINE
8
BLACK
6
CONTINUOUS
10
6.1358267716535435
20
-2.4685039370078741
11
6.1240157480314963
21
-2.4803149606299213
0
LINE
8
BLACK
6
CONTINUOUS
10
6.127952755905512
20
-1.389763779527559
11
6.1397637795275593
21
-1.4015748031496063
0
LINE
8
BLACK
6
CONTINUOUS
10
6.1397637795275593
20
-1.389763779527559
11
6.127952755905512
21
-1.4015748031496063
0
LINE
8
BLACK
6
CONTINUOUS
10
6.1358267716535435
20
-1.1870078740157479
11
6.1476377952755907
21
-1.1988188976377951
0
LINE
8
BLACK
6
CONTINUOUS
10
6.1476377952755907
20
-1.1870078740157479
11
6.1358267716535435
21
-1.1988188976377951
0
LINE
8
BLACK
6
CONTINUOUS
10
6.1358267716535435
20
-1.3366141732283465
11
6.1476377952755907
21
-1.3484251968503937
0
LINE
8
BLACK
6
CONTINUOUS
10
6.1476377952755907
20
-1.3366141732283465
11
6.1358267716535435
21
-1.3484251968503937
0
LINE
8
BLACK
6
CONTINUOUS
10
6.143700787401575
20
-2.6614173228346458
11
6.1555118110236222
21
-2.673228346456693
0
LINE
8
BLACK
6
CONTINUOUS
10
6.1555118110236222
20
-2.6614173228346458
11
6.143700787401575
21
-2.673228346456693
0
LINE
8
BLACK
6
CONTINUOUS
10
6.1555118110236222
20
-1.1023622047244095
11
6.1673228346456694
21
-1.1141732283464567
0
LINE
8
BLACK
6
CONTINUOUS
10
6.1673228346456694
20
-1.1023622047244095
11
6.1555118110236222
21
-1.1141732283464567
0
LINE
8
BLACK
6
CONTINUOUS
10
6.1555118110236222
20
-1.1614173228346456
11
6.1673228346456694
21
-1.1732283464566928
0
LINE
8
BLACK
6
CONTINUOUS
10
6.1673228346456694
20
-1.1614173228346456
11
6.1555118110236222
21
-1.1732283464566928
0
LINE
8
BLACK
6
CONTINUOUS
10
6.1614173228346454
20
-1.2598425196850394
11
6.1732283464566926
21
-1.2716535433070866
0
LINE
8
BLACK
6
CONTINUOUS
10
6.1732283464566926
20
-1.2598425196850394
11
6.1614173228346454
21
-1.2716535433070866
0
CIRCLE
8
BLACK
10
5.5649606299212593
20
-2.6781496062992125
40
0.0059055118110236
0
LINE
8
BLACK
6
CONTINUOUS
10
5.7519685039370074
20
-1.9547244094488188
11
5.7519685039370074
21
-1.9822834645669292
0
LINE
8
BLACK
6
CONTINUOUS
10
5.7381889763779528
20
-1.9685039370078741
11
5.765748031496063
21
-1.9685039370078741
0
LINE
8
BLACK
6
CONTINUOUS
10
5.7519685039370074
20
-2.1240157480314958
11
5.7519685039370074
21
-2.151574803149606
0
LINE
8
BLACK
6
CONTINUOUS
10
5.7381889763779528
20
-2.1377952755905509
11
5.765748031496063
21
-2.1377952755905509
0
LINE
8
BLACK
6
CONTINUOUS
10
5.9409448818897639
20
-1.9547244094488188
11
5.9409448818897639
21
-1.9822834645669292
0
LINE
8
BLACK
6
CONTINUOUS
10
5.9271653543307083
20
-1.9685039370078741
11
5.9547244094488185
21
-1.9685039370078741
0
LINE
8
BLACK
6
CONTINUOUS
10
5.9409448818897639
20
-2.1240157480314958
11
5.9409448818897639
21
-2.151574803149606
0
LINE
8
BLACK
6
CONTINUOUS
10
5.9271653543307083
20
-2.1377952755905509
11
5.9547244094488185
21
-2.1377952755905509
0
LINE
8
BLACK
6
CONTINUOUS
10
5.7591671259842521
20
-1.8201907480314961
11
5.7591671259842521
21
-1.7979194881889764
0
LINE
8
BLACK
6
CONTINUOUS
10
5.7591671259842521
20
-1.7979194881889764
11
5.7368958661417322
21
-1.7979194881889764
0
LINE
8
BLACK
6
CONTINUOUS
10
5.7368958661417322
20
-1.7979194881889764
11
5.7368958661417322
21
-1.8201907480314961
0
LINE
8
BLACK
6
CONTINUOUS
10
5.7368958661417322
20
-1.8201907480314961
11
5.7591671259842521
21
-1.8201907480314961
0
LINE
8
BLACK
6
CONTINUOUS
10
5.9560175196850391
20
-1.8201907480314961
11
5.9560175196850391
21
-1.7979194881889764
0
LINE
8
BLACK
6
CONTINUOUS
10
5.9560175196850391
20
-1.7979194881889764
11
5.9337462598425192
21
-1.7979194881889764
0
LINE
8
BLACK
6
CONTINUOUS
10
5.9337462598425192
20
-1.7979194881889764
11
5.9337462598425192
21
-1.8201907480314961
0
LINE
8
BLACK
6
CONTINUOUS
10
5.9337462598425192
20
-1.8201907480314961
11
5.9560175196850391
21
-1.8201907480314961
0
LINE
8
BLACK
6
CONTINUOUS
10
5.3172349606299214
20
-3.2978282677165351
11
5.3172349606299214
21
-3.2190881102362203
0
LINE
8
BLACK
6
CONTINUOUS
10
5.3172349606299214
20
-3.2190881102362203
11
5.335982598425197
21
-3.2190881102362203
0
LINE
8
BLACK
6
CONTINUOUS
10
5.335982598425197
20
-3.2190881102362203
11
5.347231220472441
21
-3.2228376377952754
0
LINE
8
BLACK
6
CONTINUOUS
10
5.347231220472441
20
-3.2228376377952754
11
5.3547302755905513
21
-3.2303366929133857
0
LINE
8
BLACK
6
CONTINUOUS
10
5.3547302755905513
20
-3.2303366929133857
11
5.3584798031496064
21
-3.2378357480314959
0
LINE
8
BLACK
6
CONTINUOUS
10
5.3584798031496064
20
-3.2378357480314959
11
5.3622293307086615
21
-3.2528338582677163
0
LINE
8
BLACK
6
CONTINUOUS
10
5.3622293307086615
20
-3.2528338582677163
11
5.3622293307086615
21
-3.2640824803149604
0
LINE
8
BLACK
6
CONTINUOUS
10
5.3622293307086615
20
-3.2640824803149604
11
5.3584798031496064
21
-3.2790805905511808
0
LINE
8
BLACK
6
CONTINUOUS
10
5.3584798031496064
20
-3.2790805905511808
11
5.3547302755905513
21
-3.2865796456692911
0
LINE
8
BLACK
6
CONTINUOUS
10
5.3547302755905513
20
-3.2865796456692911
11
5.347231220472441
21
-3.29407874015748
0
LINE
8
BLACK
6
CONTINUOUS
10
5.347231220472441
20
-3.29407874015748
11
5.335982598425197
21
-3.2978282677165351
0
LINE
8
BLACK
6
CONTINUOUS
10
5.335982598425197
20
-3.2978282677165351
11
5.3172349606299214
21
-3.2978282677165351
0
LINE
8
BLACK
6
CONTINUOUS
10
5.3959751181102362
20
-3.2978282677165351
11
5.3959751181102362
21
-3.2453348031496061
0
LINE
8
BLACK
6
CONTINUOUS
10
5.3959751181102362
20
-3.2603329527559053
11
5.3997246456692913
21
-3.2528338582677163
0
LINE
8
BLACK
6
CONTINUOUS
10
5.3997246456692913
20
-3.2528338582677163
11
5.4034741732283464
21
-3.2490843307086612
0
LINE
8
BLACK
6
CONTINUOUS
10
5.4034741732283464
20
-3.2490843307086612
11
5.4109732283464567
21
-3.2453348031496061
0
LINE
8
BLACK
6
CONTINUOUS
10
5.4109732283464567
20
-3.2453348031496061
11
5.4184723228346456
21
-3.2453348031496061
0
LINE
8
BLACK
6
CONTINUOUS
10
5.4447190157480314
20
-3.2978282677165351
11
5.4447190157480314
21
-3.2453348031496061
0
LINE
8
BLACK
6
CONTINUOUS
10
5.4447190157480314
20
-3.2190881102362203
11
5.4409694881889763
21
-3.2228376377952754
0
LINE
8
BLACK
6
CONTINUOUS
10
5.4409694881889763
20
-3.2228376377952754
11
5.4447190157480314
21
-3.2265871653543305
0
LINE
8
BLACK
6
CONTINUOUS
10
5.4447190157480314
20
-3.2265871653543305
11
5.4484685433070865
21
-3.2228376377952754
0
LINE
8
BLACK
6
CONTINUOUS
10
5.4484685433070865
20
-3.2228376377952754
11
5.4447190157480314
21
-3.2190881102362203
0
LINE
8
BLACK
6
CONTINUOUS
10
5.4447190157480314
20
-3.2190881102362203
11
5.4447190157480314
21
-3.2265871653543305
0
LINE
8
BLACK
6
CONTINUOUS
10
5.4934629133858266
20
-3.2978282677165351
11
5.4859638582677164
21
-3.29407874015748
0
LINE
8
BLACK
6
CONTINUOUS
10
5.4859638582677164
20
-3.29407874015748
11
5.4822143307086613
21
-3.2865796456692911
0
LINE
8
BLACK
6
CONTINUOUS
10
5.4822143307086613
20
-3.2865796456692911
11
5.4822143307086613
21
-3.2190881102362203
0
LINE
8
BLACK
6
CONTINUOUS
10
5.5347077559055116
20
-3.2978282677165351
11
5.5272087007874013
21
-3.29407874015748
0
LINE
8
BLACK
6
CONTINUOUS
10
5.5272087007874013
20
-3.29407874015748
11
5.5234591732283462
21
-3.2865796456692911
0
LINE
8
BLACK
6
CONTINUOUS
10
5.5234591732283462
20
-3.2865796456692911
11
5.5234591732283462
21
-3.2190881102362203
0
LINE
8
BLACK
6
CONTINUOUS
10
5.6246965354330705
20
-3.2978282677165351
11
5.6246965354330705
21
-3.2190881102362203
0
LINE
8
BLACK
6
CONTINUOUS
10
5.6246965354330705
20
-3.2190881102362203
11
5.650943267716535
21
-3.2753310629921257
0
LINE
8
BLACK
6
CONTINUOUS
10
5.650943267716535
20
-3.2753310629921257
11
5.6771899606299208
21
-3.2190881102362203
0
LINE
8
BLACK
6
CONTINUOUS
10
5.6771899606299208
20
-3.2190881102362203
11
5.6771899606299208
21
-3.2978282677165351
0
LINE
8
BLACK
6
CONTINUOUS
10
5.7484310629921263
20
-3.2978282677165351
11
5.7484310629921263
21
-3.2565834251968502
0
LINE
8
BLACK
6
CONTINUOUS
10
5.7484310629921263
20
-3.2565834251968502
11
5.7446815354330711
21
-3.2490843307086612
0
LINE
8
BLACK
6
CONTINUOUS
10
5.7446815354330711
20
-3.2490843307086612
11
5.7371824803149609
21
-3.2453348031496061
0
LINE
8
BLACK
6
CONTINUOUS
10
5.7371824803149609
20
-3.2453348031496061
11
5.7221843307086617
21
-3.2453348031496061
0
LINE
8
BLACK
6
CONTINUOUS
10
5.7221843307086617
20
-3.2453348031496061
11
5.7146852755905506
21
-3.2490843307086612
0
LINE
8
BLACK
6
CONTINUOUS
10
5.7484310629921263
20
-3.29407874015748
11
5.740932007874016
21
-3.2978282677165351
0
LINE
8
BLACK
6
CONTINUOUS
10
5.740932007874016
20
-3.2978282677165351
11
5.7221843307086617
21
-3.2978282677165351
0
LINE
8
BLACK
6
CONTINUOUS
10
5.7221843307086617
20
-3.2978282677165351
11
5.7146852755905506
21
-3.29407874015748
0
LINE
8
BLACK
6
CONTINUOUS
10
5.7146852755905506
20
-3.29407874015748
11
5.7109357480314955
21
-3.2865796456692911
0
LINE
8
BLACK
6
CONTINUOUS
10
5.7109357480314955
20
-3.2865796456692911
11
5.7109357480314955
21
-3.2790805905511808
0
LINE
8
BLACK
6
CONTINUOUS
10
5.7109357480314955
20
-3.2790805905511808
11
5.7146852755905506
21
-3.2715815354330706
0
LINE
8
BLACK
6
CONTINUOUS
10
5.7146852755905506
20
-3.2715815354330706
11
5.7221843307086617
21
-3.2678320078740155
0
LINE
8
BLACK
6
CONTINUOUS
10
5.7221843307086617
20
-3.2678320078740155
11
5.740932007874016
21
-3.2678320078740155
0
LINE
8
BLACK
6
CONTINUOUS
10
5.740932007874016
20
-3.2678320078740155
11
5.7484310629921263
21
-3.2640824803149604
0
LINE
8
BLACK
6
CONTINUOUS
10
5.7859263779527561
20
-3.2453348031496061
11
5.7859263779527561
21
-3.3240749606299214
0
LINE
8
BLACK
6
CONTINUOUS
10
5.7859263779527561
20
-3.2490843307086612
11
5.7934254330708663
21
-3.2453348031496061
0
LINE
8
BLACK
6
CONTINUOUS
10
5.7934254330708663
20
-3.2453348031496061
11
5.8084235826771655
21
-3.2453348031496061
0
LINE
8
BLACK
6
CONTINUOUS
10
5.8084235826771655
20
-3.2453348031496061
11
5.8159226377952757
21
-3.2490843307086612
0
LINE
8
BLACK
6
CONTINUOUS
10
5.8159226377952757
20
-3.2490843307086612
11
5.8196721653543309
21
-3.2528338582677163
0
LINE
8
BLACK
6
CONTINUOUS
10
5.8196721653543309
20
-3.2528338582677163
11
5.823421692913386
21
-3.2603329527559053
0
LINE
8
BLACK
6
CONTINUOUS
10
5.823421692913386
20
-3.2603329527559053
11
5.823421692913386
21
-3.282830118110236
0
LINE
8
BLACK
6
CONTINUOUS
10
5.823421692913386
20
-3.282830118110236
11
5.8196721653543309
21
-3.2903291732283462
0
LINE
8
BLACK
6
CONTINUOUS
10
5.8196721653543309
20
-3.2903291732283462
11
5.8159226377952757
21
-3.29407874015748
0
LINE
8
BLACK
6
CONTINUOUS
10
5.8159226377952757
20
-3.29407874015748
11
5.8084235826771655
21
-3.2978282677165351
0
LINE
8
BLACK
6
CONTINUOUS
10
5.8084235826771655
20
-3.2978282677165351
11
5.7934254330708663
21
-3.2978282677165351
0
LINE
8
BLACK
6
CONTINUOUS
10
5.7934254330708663
20
-3.2978282677165351
11
5.7859263779527561
21
-3.29407874015748
0
LINE
8
BLACK
6
CONTINUOUS
10
5.8571674803149607
20
-3.2903291732283462
11
5.8609170078740158
21
-3.29407874015748
0
LINE
8
BLACK
6
CONTINUOUS
10
5.8609170078740158
20
-3.29407874015748
11
5.8571674803149607
21
-3.2978282677165351
0
LINE
8
BLACK
6
CONTINUOUS
10
5.8571674803149607
20
-3.2978282677165351
11
5.8534179527559056
21
-3.29407874015748
0
LINE
8
BLACK
6
CONTINUOUS
10
5.8534179527559056
20
-3.29407874015748
11
5.8571674803149607
21
-3.2903291732283462
0
LINE
8
BLACK
6
CONTINUOUS
10
5.8571674803149607
20
-3.2903291732283462
11
5.8571674803149607
21
-3.2978282677165351
0
LINE
8
BLACK
6
CONTINUOUS
10
5.8571674803149607
20
-3.2490843307086612
11
5.8609170078740158
21
-3.2528338582677163
0
LINE
8
BLACK
6
CONTINUOUS
10
5.8609170078740158
20
-3.2528338582677163
11
5.8571674803149607
21
-3.2565834251968502
0
LINE
8
BLACK
6
CONTINUOUS
10
5.8571674803149607
20
-3.2565834251968502
11
5.8534179527559056
21
-3.2528338582677163
0
LINE
8
BLACK
6
CONTINUOUS
10
5.8534179527559056
20
-3.2528338582677163
11
5.8571674803149607
21
-3.2490843307086612
0
LINE
8
BLACK
6
CONTINUOUS
10
5.8571674803149607
20
-3.2490843307086612
11
5.8571674803149607
21
-3.2565834251968502
0
LINE
8
BLACK
6
CONTINUOUS
10
5.2027559055118111
20
-3.4212598425196852
11
5.2145669291338583
21
-3.4330708661417324
0
LINE
8
BLACK
6
CONTINUOUS
10
5.2145669291338583
20
-3.4212598425196852
11
5.2027559055118111
21
-3.4330708661417324
0
LINE
8
BLACK
6
CONTINUOUS
10
5.3322330708661418
20
-3.3844424409448819
11
5.3397321653543308
21
-3.3844424409448819
0
LINE
8
BLACK
6
CONTINUOUS
10
5.3397321653543308
20
-3.3844424409448819
11
5.347231220472441
21
-3.388191968503937
0
LINE
8
BLACK
6
CONTINUOUS
10
5.347231220472441
20
-3.388191968503937
11
5.3509807480314961
21
-3.3919414960629921
0
LINE
8
BLACK
6
CONTINUOUS
10
5.3509807480314961
20
-3.3919414960629921
11
5.3547302755905513
21
-3.3994405511811023
0
LINE
8
BLACK
6
CONTINUOUS
10
5.3547302755905513
20
-3.3994405511811023
11
5.3584798031496064
21
-3.4144386614173228
0
LINE
8
BLACK
6
CONTINUOUS
10
5.3584798031496064
20
-3.4144386614173228
11
5.3584798031496064
21
-3.4331863385826771
0
LINE
8
BLACK
6
CONTINUOUS
10
5.3584798031496064
20
-3.4331863385826771
11
5.3547302755905513
21
-3.4481844488188975
0
LINE
8
BLACK
6
CONTINUOUS
10
5.3547302755905513
20
-3.4481844488188975
11
5.3509807480314961
21
-3.4556835039370077
0
LINE
8
BLACK
6
CONTINUOUS
10
5.3509807480314961
20
-3.4556835039370077
11
5.347231220472441
21
-3.4594330708661416
0
LINE
8
BLACK
6
CONTINUOUS
10
5.347231220472441
20
-3.4594330708661416
11
5.3397321653543308
21
-3.4631825984251967
0
LINE
8
BLACK
6
CONTINUOUS
10
5.3397321653543308
20
-3.4631825984251967
11
5.3322330708661418
21
-3.4631825984251967
0
LINE
8
BLACK
6
CONTINUOUS
10
5.3322330708661418
20
-3.4631825984251967
11
5.3247340157480316
21
-3.4594330708661416
0
LINE
8
BLACK
6
CONTINUOUS
10
5.3247340157480316
20
-3.4594330708661416
11
5.3209844881889765
21
-3.4556835039370077
0
LINE
8
BLACK
6
CONTINUOUS
10
5.3209844881889765
20
-3.4556835039370077
11
5.3172349606299214
21
-3.4481844488188975
0
LINE
8
BLACK
6
CONTINUOUS
10
5.3172349606299214
20
-3.4481844488188975
11
5.3134854330708663
21
-3.4331863385826771
0
LINE
8
BLACK
6
CONTINUOUS
10
5.3134854330708663
20
-3.4331863385826771
11
5.3134854330708663
21
-3.4144386614173228
0
LINE
8
BLACK
6
CONTINUOUS
10
5.3134854330708663
20
-3.4144386614173228
11
5.3172349606299214
21
-3.3994405511811023
0
LINE
8
BLACK
6
CONTINUOUS
10
5.3172349606299214
20
-3.3994405511811023
11
5.3209844881889765
21
-3.3919414960629921
0
LINE
8
BLACK
6
CONTINUOUS
10
5.3209844881889765
20
-3.3919414960629921
11
5.3247340157480316
21
-3.388191968503937
0
LINE
8
BLACK
6
CONTINUOUS
10
5.3247340157480316
20
-3.388191968503937
11
5.3322330708661418
21
-3.3844424409448819
0
LINE
8
BLACK
6
CONTINUOUS
10
5.3922255905511811
20
-3.4556835039370077
11
5.3959751181102362
21
-3.4594330708661416
0
LINE
8
BLACK
6
CONTINUOUS
10
5.3959751181102362
20
-3.4594330708661416
11
5.3922255905511811
21
-3.4631825984251967
0
LINE
8
BLACK
6
CONTINUOUS
10
5.3922255905511811
20
-3.4631825984251967
11
5.388476062992126
21
-3.4594330708661416
0
LINE
8
BLACK
6
CONTINUOUS
10
5.388476062992126
20
-3.4594330708661416
11
5.3922255905511811
21
-3.4556835039370077
0
LINE
8
BLACK
6
CONTINUOUS
10
5.3922255905511811
20
-3.4556835039370077
11
5.3922255905511811
21
-3.4631825984251967
0
LINE
8
BLACK
6
CONTINUOUS
10
5.4222218503937007
20
-3.3844424409448819
11
5.4709657480314959
21
-3.3844424409448819
0
LINE
8
BLACK
6
CONTINUOUS
10
5.4709657480314959
20
-3.3844424409448819
11
5.4447190157480314
21
-3.4144386614173228
0
LINE
8
BLACK
6
CONTINUOUS
10
5.4447190157480314
20
-3.4144386614173228
11
5.4559676377952755
21
-3.4144386614173228
0
LINE
8
BLACK
6
CONTINUOUS
10
5.4559676377952755
20
-3.4144386614173228
11
5.4634666929133857
21
-3.4181881889763779
0
LINE
8
BLACK
6
CONTINUOUS
10
5.4634666929133857
20
-3.4181881889763779
11
5.4672162204724408
21
-3.4219377559055117
0
LINE
8
BLACK
6
CONTINUOUS
10
5.4672162204724408
20
-3.4219377559055117
11
5.4709657480314959
21
-3.429436811023622
0
LINE
8
BLACK
6
CONTINUOUS
10
5.4709657480314959
20
-3.429436811023622
11
5.4709657480314959
21
-3.4481844488188975
0
LINE
8
BLACK
6
CONTINUOUS
10
5.4709657480314959
20
-3.4481844488188975
11
5.4672162204724408
21
-3.4556835039370077
0
LINE
8
BLACK
6
CONTINUOUS
10
5.4672162204724408
20
-3.4556835039370077
11
5.4634666929133857
21
-3.4594330708661416
0
LINE
8
BLACK
6
CONTINUOUS
10
5.4634666929133857
20
-3.4594330708661416
11
5.4559676377952755
21
-3.4631825984251967
0
LINE
8
BLACK
6
CONTINUOUS
10
5.4559676377952755
20
-3.4631825984251967
11
5.4334704330708661
21
-3.4631825984251967
0
LINE
8
BLACK
6
CONTINUOUS
10
5.4334704330708661
20
-3.4631825984251967
11
5.4259713779527559
21
-3.4594330708661416
0
LINE
8
BLACK
6
CONTINUOUS
10
5.4259713779527559
20
-3.4594330708661416
11
5.4222218503937007
21
-3.4556835039370077
0
LINE
8
BLACK
6
CONTINUOUS
10
5.5197096456692911
20
-3.3844424409448819
11
5.5272087401574801
21
-3.3844424409448819
0
LINE
8
BLACK
6
CONTINUOUS
10
5.5272087401574801
20
-3.3844424409448819
11
5.5347077952755903
21
-3.388191968503937
0
LINE
8
BLACK
6
CONTINUOUS
10
5.5347077952755903
20
-3.388191968503937
11
5.5384573228346454
21
-3.3919414960629921
0
LINE
8
BLACK
6
CONTINUOUS
10
5.5384573228346454
20
-3.3919414960629921
11
5.5422068503937005
21
-3.3994405511811023
0
LINE
8
BLACK
6
CONTINUOUS
10
5.5422068503937005
20
-3.3994405511811023
11
5.5459563779527556
21
-3.4144386614173228
0
LINE
8
BLACK
6
CONTINUOUS
10
5.5459563779527556
20
-3.4144386614173228
11
5.5459563779527556
21
-3.4331863385826771
0
LINE
8
BLACK
6
CONTINUOUS
10
5.5459563779527556
20
-3.4331863385826771
11
5.5422068503937005
21
-3.4481844488188975
0
LINE
8
BLACK
6
CONTINUOUS
10
5.5422068503937005
20
-3.4481844488188975
11
5.5384573228346454
21
-3.4556835039370077
0
LINE
8
BLACK
6
CONTINUOUS
10
5.5384573228346454
20
-3.4556835039370077
11
5.5347077952755903
21
-3.4594330708661416
0
LINE
8
BLACK
6
CONTINUOUS
10
5.5347077952755903
20
-3.4594330708661416
11
5.5272087401574801
21
-3.4631825984251967
0
LINE
8
BLACK
6
CONTINUOUS
10
5.5272087401574801
20
-3.4631825984251967
11
5.5197096456692911
21
-3.4631825984251967
0
LINE
8
BLACK
6
CONTINUOUS
10
5.5197096456692911
20
-3.4631825984251967
11
5.5122105905511809
21
-3.4594330708661416
0
LINE
8
BLACK
6
CONTINUOUS
10
5.5122105905511809
20
-3.4594330708661416
11
5.5084610629921258
21
-3.4556835039370077
0
LINE
8
BLACK
6
CONTINUOUS
10
5.5084610629921258
20
-3.4556835039370077
11
5.5047115354330707
21
-3.4481844488188975
0
LINE
8
BLACK
6
CONTINUOUS
10
5.5047115354330707
20
-3.4481844488188975
11
5.5009620078740156
21
-3.4331863385826771
0
LINE
8
BLACK
6
CONTINUOUS
10
5.5009620078740156
20
-3.4331863385826771
11
5.5009620078740156
21
-3.4144386614173228
0
LINE
8
BLACK
6
CONTINUOUS
10
5.5009620078740156
20
-3.4144386614173228
11
5.5047115354330707
21
-3.3994405511811023
0
LINE
8
BLACK
6
CONTINUOUS
10
5.5047115354330707
20
-3.3994405511811023
11
5.5084610629921258
21
-3.3919414960629921
0
LINE
8
BLACK
6
CONTINUOUS
10
5.5084610629921258
20
-3.3919414960629921
11
5.5122105905511809
21
-3.388191968503937
0
LINE
8
BLACK
6
CONTINUOUS
10
5.5122105905511809
20
-3.388191968503937
11
5.5197096456692911
21
-3.3844424409448819
0
LINE
8
BLACK
6
CONTINUOUS
10
5.5947002755905508
20
-3.3844424409448819
11
5.6021993700787398
21
-3.3844424409448819
0
LINE
8
BLACK
6
CONTINUOUS
10
5.6021993700787398
20
-3.3844424409448819
11
5.60969842519685
21
-3.388191968503937
0
LINE
8
BLACK
6
CONTINUOUS
10
5.60969842519685
20
-3.388191968503937
11
5.6134479527559051
21
-3.3919414960629921
0
LINE
8
BLACK
6
CONTINUOUS
10
5.6134479527559051
20
-3.3919414960629921
11
5.6171974803149602
21
-3.3994405511811023
0
LINE
8
BLACK
6
CONTINUOUS
10
5.6171974803149602
20
-3.3994405511811023
11
5.6209470078740154
21
-3.4144386614173228
0
LINE
8
BLACK
6
CONTINUOUS
10
5.6209470078740154
20
-3.4144386614173228
11
5.6209470078740154
21
-3.4331863385826771
0
LINE
8
BLACK
6
CONTINUOUS
10
5.6209470078740154
20
-3.4331863385826771
11
5.6171974803149602
21
-3.4481844488188975
0
LINE
8
BLACK
6
CONTINUOUS
10
5.6171974803149602
20
-3.4481844488188975
11
5.6134479527559051
21
-3.4556835039370077
0
LINE
8
BLACK
6
CONTINUOUS
10
5.6134479527559051
20
-3.4556835039370077
11
5.60969842519685
21
-3.4594330708661416
0
LINE
8
BLACK
6
CONTINUOUS
10
5.60969842519685
20
-3.4594330708661416
11
5.6021993700787398
21
-3.4631825984251967
0
LINE
8
BLACK
6
CONTINUOUS
10
5.6021993700787398
20
-3.4631825984251967
11
5.5947002755905508
21
-3.4631825984251967
0
LINE
8
BLACK
6
CONTINUOUS
10
5.5947002755905508
20
-3.4631825984251967
11
5.5872012204724406
21
-3.4594330708661416
0
LINE
8
BLACK
6
CONTINUOUS
10
5.5872012204724406
20
-3.4594330708661416
11
5.5834516929133855
21
-3.4556835039370077
0
LINE
8
BLACK
6
CONTINUOUS
10
5.5834516929133855
20
-3.4556835039370077
11
5.5797021653543304
21
-3.4481844488188975
0
LINE
8
BLACK
6
CONTINUOUS
10
5.5797021653543304
20
-3.4481844488188975
11
5.5759526377952753
21
-3.4331863385826771
0
LINE
8
BLACK
6
CONTINUOUS
10
5.5759526377952753
20
-3.4331863385826771
11
5.5759526377952753
21
-3.4144386614173228
0
LINE
8
BLACK
6
CONTINUOUS
10
5.5759526377952753
20
-3.4144386614173228
11
5.5797021653543304
21
-3.3994405511811023
0
LINE
8
BLACK
6
CONTINUOUS
10
5.5797021653543304
20
-3.3994405511811023
11
5.5834516929133855
21
-3.3919414960629921
0
LINE
8
BLACK
6
CONTINUOUS
10
5.5834516929133855
20
-3.3919414960629921
11
5.5872012204724406
21
-3.388191968503937
0
LINE
8
BLACK
6
CONTINUOUS
10
5.5872012204724406
20
-3.388191968503937
11
5.5947002755905508
21
-3.3844424409448819
0
LINE
8
BLACK
6
CONTINUOUS
10
5.6546927952755901
20
-3.4631825984251967
11
5.6546927952755901
21
-3.4106891338582677
0
LINE
8
BLACK
6
CONTINUOUS
10
5.6546927952755901
20
-3.4181881889763779
11
5.6584423228346452
21
-3.4144386614173228
0
LINE
8
BLACK
6
CONTINUOUS
10
5.6584423228346452
20
-3.4144386614173228
11
5.6659413779527554
21
-3.4106891338582677
0
LINE
8
BLACK
6
CONTINUOUS
10
5.6659413779527554
20
-3.4106891338582677
11
5.6771899999999995
21
-3.4106891338582677
0
LINE
8
BLACK
6
CONTINUOUS
10
5.6771899999999995
20
-3.4106891338582677
11
5.6846890551181097
21
-3.4144386614173228
0
LINE
8
BLACK
6
CONTINUOUS
10
5.6846890551181097
20
-3.4144386614173228
11
5.6884385826771648
21
-3.4219377559055117
0
LINE
8
BLACK
6
CONTINUOUS
10
5.6884385826771648
20
-3.4219377559055117
11
5.6884385826771648
21
-3.4631825984251967
0
LINE
8
BLACK
6
CONTINUOUS
10
5.6884385826771648
20
-3.4219377559055117
11
5.69218811023622
21
-3.4144386614173228
0
LINE
8
BLACK
6
CONTINUOUS
10
5.69218811023622
20
-3.4144386614173228
11
5.6996871653543302
21
-3.4106891338582677
0
LINE
8
BLACK
6
CONTINUOUS
10
5.6996871653543302
20
-3.4106891338582677
11
5.7109357480314955
21
-3.4106891338582677
0
LINE
8
BLACK
6
CONTINUOUS
10
5.7109357480314955
20
-3.4106891338582677
11
5.7184348425196845
21
-3.4144386614173228
0
LINE
8
BLACK
6
CONTINUOUS
10
5.7184348425196845
20
-3.4144386614173228
11
5.7221843700787396
21
-3.4219377559055117
0
LINE
8
BLACK
6
CONTINUOUS
10
5.7221843700787396
20
-3.4219377559055117
11
5.7221843700787396
21
-3.4631825984251967
0
LINE
8
BLACK
6
CONTINUOUS
10
5.7596796850393703
20
-3.4631825984251967
11
5.7596796850393703
21
-3.4106891338582677
0
LINE
8
BLACK
6
CONTINUOUS
10
5.7596796850393703
20
-3.4181881889763779
11
5.7634292125984254
21
-3.4144386614173228
0
LINE
8
BLACK
6
CONTINUOUS
10
5.7634292125984254
20
-3.4144386614173228
11
5.7709282677165357
21
-3.4106891338582677
0
LINE
8
BLACK
6
CONTINUOUS
10
5.7709282677165357
20
-3.4106891338582677
11
5.7821768897637797
21
-3.4106891338582677
0
LINE
8
BLACK
6
CONTINUOUS
10
5.7821768897637797
20
-3.4106891338582677
11
5.78967594488189
21
-3.4144386614173228
0
LINE
8
BLACK
6
CONTINUOUS
10
5.78967594488189
20
-3.4144386614173228
11
5.7934254724409451
21
-3.4219377559055117
0
LINE
8
BLACK
6
CONTINUOUS
10
5.7934254724409451
20
-3.4219377559055117
11
5.7934254724409451
21
-3.4631825984251967
0
LINE
8
BLACK
6
CONTINUOUS
10
5.7934254724409451
20
-3.4219377559055117
11
5.7971750000000002
21
-3.4144386614173228
0
LINE
8
BLACK
6
CONTINUOUS
10
5.7971750000000002
20
-3.4144386614173228
11
5.8046740551181104
21
-3.4106891338582677
0
LINE
8
BLACK
6
CONTINUOUS
10
5.8046740551181104
20
-3.4106891338582677
11
5.8159226377952757
21
-3.4106891338582677
0
LINE
8
BLACK
6
CONTINUOUS
10
5.8159226377952757
20
-3.4106891338582677
11
5.8234217322834647
21
-3.4144386614173228
0
LINE
8
BLACK
6
CONTINUOUS
10
5.8234217322834647
20
-3.4144386614173228
11
5.8271712598425198
21
-3.4219377559055117
0
LINE
8
BLACK
6
CONTINUOUS
10
5.8271712598425198
20
-3.4219377559055117
11
5.8271712598425198
21
-3.4631825984251967
0
LINE
8
BLACK
6
CONTINUOUS
10
5.9809020472440944
20
-3.3806929133858268
11
5.9134105118110236
21
-3.4819302362204723
0
LINE
8
BLACK
6
CONTINUOUS
10
6.0821394094488186
20
-3.3844424409448819
11
6.0896385039370076
21
-3.3844424409448819
0
LINE
8
BLACK
6
CONTINUOUS
10
6.0896385039370076
20
-3.3844424409448819
11
6.0971375590551178
21
-3.388191968503937
0
LINE
8
BLACK
6
CONTINUOUS
10
6.0971375590551178
20
-3.388191968503937
11
6.1008870866141729
21
-3.3919414960629921
0
LINE
8
BLACK
6
CONTINUOUS
10
6.1008870866141729
20
-3.3919414960629921
11
6.104636614173228
21
-3.3994405511811023
0
LINE
8
BLACK
6
CONTINUOUS
10
6.104636614173228
20
-3.3994405511811023
11
6.1083861417322831
21
-3.4144386614173228
0
LINE
8
BLACK
6
CONTINUOUS
10
6.1083861417322831
20
-3.4144386614173228
11
6.1083861417322831
21
-3.4331863385826771
0
LINE
8
BLACK
6
CONTINUOUS
10
6.1083861417322831
20
-3.4331863385826771
11
6.104636614173228
21
-3.4481844488188975
0
LINE
8
BLACK
6
CONTINUOUS
10
6.104636614173228
20
-3.4481844488188975
11
6.1008870866141729
21
-3.4556835039370077
0
LINE
8
BLACK
6
CONTINUOUS
10
6.1008870866141729
20
-3.4556835039370077
11
6.0971375590551178
21
-3.4594330708661416
0
LINE
8
BLACK
6
CONTINUOUS
10
6.0971375590551178
20
-3.4594330708661416
11
6.0896385039370076
21
-3.4631825984251967
0
LINE
8
BLACK
6
CONTINUOUS
10
6.0896385039370076
20
-3.4631825984251967
11
6.0821394094488186
21
-3.4631825984251967
0
LINE
8
BLACK
6
CONTINUOUS
10
6.0821394094488186
20
-3.4631825984251967
11
6.0746403543307084
21
-3.4594330708661416
0
LINE
8
BLACK
6
CONTINUOUS
10
6.0746403543307084
20
-3.4594330708661416
11
6.0708908267716533
21
-3.4556835039370077
0
LINE
8
BLACK
6
CONTINUOUS
10
6.0708908267716533
20
-3.4556835039370077
11
6.0671412992125981
21
-3.4481844488188975
0
LINE
8
BLACK
6
CONTINUOUS
10
6.0671412992125981
20
-3.4481844488188975
11
6.063391771653543
21
-3.4331863385826771
0
LINE
8
BLACK
6
CONTINUOUS
10
6.063391771653543
20
-3.4331863385826771
11
6.063391771653543
21
-3.4144386614173228
0
LINE
8
BLACK
6
CONTINUOUS
10
6.063391771653543
20
-3.4144386614173228
11
6.0671412992125981
21
-3.3994405511811023
0
LINE
8
BLACK
6
CONTINUOUS
10
6.0671412992125981
20
-3.3994405511811023
11
6.0708908267716533
21
-3.3919414960629921
0
LINE
8
BLACK
6
CONTINUOUS
10
6.0708908267716533
20
-3.3919414960629921
11
6.0746403543307084
21
-3.388191968503937
0
LINE
8
BLACK
6
CONTINUOUS
10
6.0746403543307084
20
-3.388191968503937
11
6.0821394094488186
21
-3.3844424409448819
0
LINE
8
BLACK
6
CONTINUOUS
10
6.1421319291338579
20
-3.4556835039370077
11
6.145881456692913
21
-3.4594330708661416
0
LINE
8
BLACK
6
CONTINUOUS
10
6.145881456692913
20
-3.4594330708661416
11
6.1421319291338579
21
-3.4631825984251967
0
LINE
8
BLACK
6
CONTINUOUS
10
6.1421319291338579
20
-3.4631825984251967
11
6.1383824015748027
21
-3.4594330708661416
0
LINE
8
BLACK
6
CONTINUOUS
10
6.1383824015748027
20
-3.4594330708661416
11
6.1421319291338579
21
-3.4556835039370077
0
LINE
8
BLACK
6
CONTINUOUS
10
6.1421319291338579
20
-3.4556835039370077
11
6.1421319291338579
21
-3.4631825984251967
0
LINE
8
BLACK
6
CONTINUOUS
10
6.1946253543307082
20
-3.3844424409448819
11
6.2021244488188971
21
-3.3844424409448819
0
LINE
8
BLACK
6
CONTINUOUS
10
6.2021244488188971
20
-3.3844424409448819
11
6.2096235039370073
21
-3.388191968503937
0
LINE
8
BLACK
6
CONTINUOUS
10
6.2096235039370073
20
-3.388191968503937
11
6.2133730314960625
21
-3.3919414960629921
0
LINE
8
BLACK
6
CONTINUOUS
10
6.2133730314960625
20
-3.3919414960629921
11
6.2171225590551176
21
-3.3994405511811023
0
LINE
8
BLACK
6
CONTINUOUS
10
6.2171225590551176
20
-3.3994405511811023
11
6.2208720866141727
21
-3.4144386614173228
0
LINE
8
BLACK
6
CONTINUOUS
10
6.2208720866141727
20
-3.4144386614173228
11
6.2208720866141727
21
-3.4331863385826771
0
LINE
8
BLACK
6
CONTINUOUS
10
6.2208720866141727
20
-3.4331863385826771
11
6.2171225590551176
21
-3.4481844488188975
0
LINE
8
BLACK
6
CONTINUOUS
10
6.2171225590551176
20
-3.4481844488188975
11
6.2133730314960625
21
-3.4556835039370077
0
LINE
8
BLACK
6
CONTINUOUS
10
6.2133730314960625
20
-3.4556835039370077
11
6.2096235039370073
21
-3.4594330708661416
0
LINE
8
BLACK
6
CONTINUOUS
10
6.2096235039370073
20
-3.4594330708661416
11
6.2021244488188971
21
-3.4631825984251967
0
LINE
8
BLACK
6
CONTINUOUS
10
6.2021244488188971
20
-3.4631825984251967
11
6.1946253543307082
21
-3.4631825984251967
0
LINE
8
BLACK
6
CONTINUOUS
10
6.1946253543307082
20
-3.4631825984251967
11
6.1871262992125979
21
-3.4594330708661416
0
LINE
8
BLACK
6
CONTINUOUS
10
6.1871262992125979
20
-3.4594330708661416
11
6.1833767716535428
21
-3.4556835039370077
0
LINE
8
BLACK
6
CONTINUOUS
10
6.1833767716535428
20
-3.4556835039370077
11
6.1796272440944877
21
-3.4481844488188975
0
LINE
8
BLACK
6
CONTINUOUS
10
6.1796272440944877
20
-3.4481844488188975
11
6.1758777165354326
21
-3.4331863385826771
0
LINE
8
BLACK
6
CONTINUOUS
10
6.1758777165354326
20
-3.4331863385826771
11
6.1758777165354326
21
-3.4144386614173228
0
LINE
8
BLACK
6
CONTINUOUS
10
6.1758777165354326
20
-3.4144386614173228
11
6.1796272440944877
21
-3.3994405511811023
0
LINE
8
BLACK
6
CONTINUOUS
10
6.1796272440944877
20
-3.3994405511811023
11
6.1833767716535428
21
-3.3919414960629921
0
LINE
8
BLACK
6
CONTINUOUS
10
6.1833767716535428
20
-3.3919414960629921
11
6.1871262992125979
21
-3.388191968503937
0
LINE
8
BLACK
6
CONTINUOUS
10
6.1871262992125979
20
-3.388191968503937
11
6.1946253543307082
21
-3.3844424409448819
0
LINE
8
BLACK
6
CONTINUOUS
10
6.2958627165354333
20
-3.4631825984251967
11
6.2508683464566932
21
-3.4631825984251967
0
LINE
8
BLACK
6
CONTINUOUS
10
6.2733655118110239
20
-3.4631825984251967
11
6.2733655118110239
21
-3.3844424409448819
0
LINE
8
BLACK
6
CONTINUOUS
10
6.2733655118110239
20
-3.3844424409448819
11
6.2658664566929136
21
-3.3956910236220472
0
LINE
8
BLACK
6
CONTINUOUS
10
6.2658664566929136
20
-3.3956910236220472
11
6.2583674015748034
21
-3.4031900787401574
0
LINE
8
BLACK
6
CONTINUOUS
10
6.2583674015748034
20
-3.4031900787401574
11
6.2508683464566932
21
-3.4069396062992126
0
LINE
8
BLACK
6
CONTINUOUS
10
6.370853346456693
20
-3.4631825984251967
11
6.3258589763779529
21
-3.4631825984251967
0
LINE
8
BLACK
6
CONTINUOUS
10
6.3483561417322836
20
-3.4631825984251967
11
6.3483561417322836
21
-3.3844424409448819
0
LINE
8
BLACK
6
CONTINUOUS
10
6.3483561417322836
20
-3.3844424409448819
11
6.3408570866141734
21
-3.3956910236220472
0
LINE
8
BLACK
6
CONTINUOUS
10
6.3408570866141734
20
-3.3956910236220472
11
6.3333580314960631
21
-3.4031900787401574
0
LINE
8
BLACK
6
CONTINUOUS
10
6.3333580314960631
20
-3.4031900787401574
11
6.3258589763779529
21
-3.4069396062992126
0
LINE
8
BLACK
6
CONTINUOUS
10
6.4158477165354331
20
-3.4181881889763779
11
6.4083486614173228
21
-3.4144386614173228
0
LINE
8
BLACK
6
CONTINUOUS
10
6.4083486614173228
20
-3.4144386614173228
11
6.4045991338582677
21
-3.4106891338582677
0
LINE
8
BLACK
6
CONTINUOUS
10
6.4045991338582677
20
-3.4106891338582677
11
6.4008496062992126
21
-3.4031900787401574
0
LINE
8
BLACK
6
CONTINUOUS
10
6.4008496062992126
20
-3.4031900787401574
11
6.4008496062992126
21
-3.3994405511811023
0
LINE
8
BLACK
6
CONTINUOUS
10
6.4008496062992126
20
-3.3994405511811023
11
6.4045991338582677
21
-3.3919414960629921
0
LINE
8
BLACK
6
CONTINUOUS
10
6.4045991338582677
20
-3.3919414960629921
11
6.4083486614173228
21
-3.388191968503937
0
LINE
8
BLACK
6
CONTINUOUS
10
6.4083486614173228
20
-3.388191968503937
11
6.4158477165354331
21
-3.3844424409448819
0
LINE
8
BLACK
6
CONTINUOUS
10
6.4158477165354331
20
-3.3844424409448819
11
6.4308458661417323
21
-3.3844424409448819
0
LINE
8
BLACK
6
CONTINUOUS
10
6.4308458661417323
20
-3.3844424409448819
11
6.4383449212598425
21
-3.388191968503937
0
LINE
8
BLACK
6
CONTINUOUS
10
6.4383449212598425
20
-3.388191968503937
11
6.4420944488188976
21
-3.3919414960629921
0
LINE
8
BLACK
6
CONTINUOUS
10
6.4420944488188976
20
-3.3919414960629921
11
6.4458439763779527
21
-3.3994405511811023
0
LINE
8
BLACK
6
CONTINUOUS
10
6.4458439763779527
20
-3.3994405511811023
11
6.4458439763779527
21
-3.4031900787401574
0
LINE
8
BLACK
6
CONTINUOUS
10
6.4458439763779527
20
-3.4031900787401574
11
6.4420944488188976
21
-3.4106891338582677
0
LINE
8
BLACK
6
CONTINUOUS
10
6.4420944488188976
20
-3.4106891338582677
11
6.4383449212598425
21
-3.4144386614173228
0
LINE
8
BLACK
6
CONTINUOUS
10
6.4383449212598425
20
-3.4144386614173228
11
6.4308458661417323
21
-3.4181881889763779
0
LINE
8
BLACK
6
CONTINUOUS
10
6.4308458661417323
20
-3.4181881889763779
11
6.4158477165354331
21
-3.4181881889763779
0
LINE
8
BLACK
6
CONTINUOUS
10
6.4158477165354331
20
-3.4181881889763779
11
6.4083486614173228
21
-3.4219377559055117
0
LINE
8
BLACK
6
CONTINUOUS
10
6.4083486614173228
20
-3.4219377559055117
11
6.4045991338582677
21
-3.4256872834645669
0
LINE
8
BLACK
6
CONTINUOUS
10
6.4045991338582677
20
-3.4256872834645669
11
6.4008496062992126
21
-3.4331863385826771
0
LINE
8
BLACK
6
CONTINUOUS
10
6.4008496062992126
20
-3.4331863385826771
11
6.4008496062992126
21
-3.4481844488188975
0
LINE
8
BLACK
6
CONTINUOUS
10
6.4008496062992126
20
-3.4481844488188975
11
6.4045991338582677
21
-3.4556835039370077
0
LINE
8
BLACK
6
CONTINUOUS
10
6.4045991338582677
20
-3.4556835039370077
11
6.4083486614173228
21
-3.4594330708661416
0
LINE
8
BLACK
6
CONTINUOUS
10
6.4083486614173228
20
-3.4594330708661416
11
6.4158477165354331
21
-3.4631825984251967
0
LINE
8
BLACK
6
CONTINUOUS
10
6.4158477165354331
20
-3.4631825984251967
11
6.4308458661417323
21
-3.4631825984251967
0
LINE
8
BLACK
6
CONTINUOUS
10
6.4308458661417323
20
-3.4631825984251967
11
6.4383449212598425
21
-3.4594330708661416
0
LINE
8
BLACK
6
CONTINUOUS
10
6.4383449212598425
20
-3.4594330708661416
11
6.4420944488188976
21
-3.4556835039370077
0
LINE
8
BLACK
6
CONTINUOUS
10
6.4420944488188976
20
-3.4556835039370077
11
6.4458439763779527
21
-3.4481844488188975
0
LINE
8
BLACK
6
CONTINUOUS
10
6.4458439763779527
20
-3.4481844488188975
11
6.4458439763779527
21
-3.4331863385826771
0
LINE
8
BLACK
6
CONTINUOUS
10
6.4458439763779527
20
-3.4331863385826771
11
6.4420944488188976
21
-3.4256872834645669
0
LINE
8
BLACK
6
CONTINUOUS
10
6.4420944488188976
20
-3.4256872834645669
11
6.4383449212598425
21
-3.4219377559055117
0
LINE
8
BLACK
6
CONTINUOUS
10
6.4383449212598425
20
-3.4219377559055117
11
6.4308458661417323
21
-3.4181881889763779
0
LINE
8
BLACK
6
CONTINUOUS
10
6.4758402362204723
20
-3.3844424409448819
11
6.4758402362204723
21
-3.3994405511811023
0
LINE
8
BLACK
6
CONTINUOUS
10
6.505836496062992
20
-3.3844424409448819
11
6.505836496062992
21
-3.3994405511811023
0
LINE
8
BLACK
6
CONTINUOUS
10
6.6220720078740154
20
-3.4931788188976376
11
6.6183224409448815
21
-3.4894292913385825
0
LINE
8
BLACK
6
CONTINUOUS
10
6.6183224409448815
20
-3.4894292913385825
11
6.6108233858267713
21
-3.4781807086614172
0
LINE
8
BLACK
6
CONTINUOUS
10
6.6108233858267713
20
-3.4781807086614172
11
6.6070738582677162
21
-3.4706816535433069
0
LINE
8
BLACK
6
CONTINUOUS
10
6.6070738582677162
20
-3.4706816535433069
11
6.6033243307086611
21
-3.4594330708661416
0
LINE
8
BLACK
6
CONTINUOUS
10
6.6033243307086611
20
-3.4594330708661416
11
6.599574803149606
21
-3.4406853937007873
0
LINE
8
BLACK
6
CONTINUOUS
10
6.599574803149606
20
-3.4406853937007873
11
6.599574803149606
21
-3.4256872834645669
0
LINE
8
BLACK
6
CONTINUOUS
10
6.599574803149606
20
-3.4256872834645669
11
6.6033243307086611
21
-3.4069396062992126
0
LINE
8
BLACK
6
CONTINUOUS
10
6.6033243307086611
20
-3.4069396062992126
11
6.6070738582677162
21
-3.3956910236220472
0
LINE
8
BLACK
6
CONTINUOUS
10
6.6070738582677162
20
-3.3956910236220472
11
6.6108233858267713
21
-3.388191968503937
0
LINE
8
BLACK
6
CONTINUOUS
10
6.6108233858267713
20
-3.388191968503937
11
6.6183224409448815
21
-3.3769433464566929
0
LINE
8
BLACK
6
CONTINUOUS
10
6.6183224409448815
20
-3.3769433464566929
11
6.6220720078740154
21
-3.3731938188976378
0
LINE
8
BLACK
6
CONTINUOUS
10
6.6933130708661412
20
-3.4631825984251967
11
6.6483187007874012
21
-3.4631825984251967
0
LINE
8
BLACK
6
CONTINUOUS
10
6.6708158661417318
20
-3.4631825984251967
11
6.6708158661417318
21
-3.3844424409448819
0
LINE
8
BLACK
6
CONTINUOUS
10
6.6708158661417318
20
-3.3844424409448819
11
6.6633168110236216
21
-3.3956910236220472
0
LINE
8
BLACK
6
CONTINUOUS
10
6.6633168110236216
20
-3.3956910236220472
11
6.6558177559055114
21
-3.4031900787401574
0
LINE
8
BLACK
6
CONTINUOUS
10
6.6558177559055114
20
-3.4031900787401574
11
6.6483187007874012
21
-3.4069396062992126
0
LINE
8
BLACK
6
CONTINUOUS
10
6.7420569685039364
20
-3.3844424409448819
11
6.7495560629921254
21
-3.3844424409448819
0
LINE
8
BLACK
6
CONTINUOUS
10
6.7495560629921254
20
-3.3844424409448819
11
6.7570551181102356
21
-3.388191968503937
0
LINE
8
BLACK
6
CONTINUOUS
10
6.7570551181102356
20
-3.388191968503937
11
6.7608046456692916
21
-3.3919414960629921
0
LINE
8
BLACK
6
CONTINUOUS
10
6.7608046456692916
20
-3.3919414960629921
11
6.7645541732283467
21
-3.3994405511811023
0
LINE
8
BLACK
6
CONTINUOUS
10
6.7645541732283467
20
-3.3994405511811023
11
6.7683037007874018
21
-3.4144386614173228
0
LINE
8
BLACK
6
CONTINUOUS
10
6.7683037007874018
20
-3.4144386614173228
11
6.7683037007874018
21
-3.4331863385826771
0
LINE
8
BLACK
6
CONTINUOUS
10
6.7683037007874018
20
-3.4331863385826771
11
6.7645541732283467
21
-3.4481844488188975
0
LINE
8
BLACK
6
CONTINUOUS
10
6.7645541732283467
20
-3.4481844488188975
11
6.7608046456692916
21
-3.4556835039370077
0
LINE
8
BLACK
6
CONTINUOUS
10
6.7608046456692916
20
-3.4556835039370077
11
6.7570551181102356
21
-3.4594330708661416
0
LINE
8
BLACK
6
CONTINUOUS
10
6.7570551181102356
20
-3.4594330708661416
11
6.7495560629921254
21
-3.4631825984251967
0
LINE
8
BLACK
6
CONTINUOUS
10
6.7495560629921254
20
-3.4631825984251967
11
6.7420569685039364
21
-3.4631825984251967
0
LINE
8
BLACK
6
CONTINUOUS
10
6.7420569685039364
20
-3.4631825984251967
11
6.7345579133858262
21
-3.4594330708661416
0
LINE
8
BLACK
6
CONTINUOUS
10
6.7345579133858262
20
-3.4594330708661416
11
6.7308083858267711
21
-3.4556835039370077
0
LINE
8
BLACK
6
CONTINUOUS
10
6.7308083858267711
20
-3.4556835039370077
11
6.727058858267716
21
-3.4481844488188975
0
LINE
8
BLACK
6
CONTINUOUS
10
6.727058858267716
20
-3.4481844488188975
11
6.7233093307086609
21
-3.4331863385826771
0
LINE
8
BLACK
6
CONTINUOUS
10
6.7233093307086609
20
-3.4331863385826771
11
6.7233093307086609
21
-3.4144386614173228
0
LINE
8
BLACK
6
CONTINUOUS
10
6.7233093307086609
20
-3.4144386614173228
11
6.727058858267716
21
-3.3994405511811023
0
LINE
8
BLACK
6
CONTINUOUS
10
6.727058858267716
20
-3.3994405511811023
11
6.7308083858267711
21
-3.3919414960629921
0
LINE
8
BLACK
6
CONTINUOUS
10
6.7308083858267711
20
-3.3919414960629921
11
6.7345579133858262
21
-3.388191968503937
0
LINE
8
BLACK
6
CONTINUOUS
10
6.7345579133858262
20
-3.388191968503937
11
6.7420569685039364
21
-3.3844424409448819
0
LINE
8
BLACK
6
CONTINUOUS
10
6.7945504330708664
20
-3.3844424409448819
11
6.8432943307086616
21
-3.3844424409448819
0
LINE
8
BLACK
6
CONTINUOUS
10
6.8432943307086616
20
-3.3844424409448819
11
6.817047598425197
21
-3.4144386614173228
0
LINE
8
BLACK
6
CONTINUOUS
10
6.817047598425197
20
-3.4144386614173228
11
6.8282962204724411
21
-3.4144386614173228
0
LINE
8
BLACK
6
CONTINUOUS
10
6.8282962204724411
20
-3.4144386614173228
11
6.8357952755905513
21
-3.4181881889763779
0
LINE
8
BLACK
6
CONTINUOUS
10
6.8357952755905513
20
-3.4181881889763779
11
6.8395448031496064
21
-3.4219377559055117
0
LINE
8
BLACK
6
CONTINUOUS
10
6.8395448031496064
20
-3.4219377559055117
11
6.8432943307086616
21
-3.429436811023622
0
LINE
8
BLACK
6
CONTINUOUS
10
6.8432943307086616
20
-3.429436811023622
11
6.8432943307086616
21
-3.4481844488188975
0
LINE
8
BLACK
6
CONTINUOUS
10
6.8432943307086616
20
-3.4481844488188975
11
6.8395448031496064
21
-3.4556835039370077
0
LINE
8
BLACK
6
CONTINUOUS
10
6.8395448031496064
20
-3.4556835039370077
11
6.8357952755905513
21
-3.4594330708661416
0
LINE
8
BLACK
6
CONTINUOUS
10
6.8357952755905513
20
-3.4594330708661416
11
6.8282962204724411
21
-3.4631825984251967
0
LINE
8
BLACK
6
CONTINUOUS
10
6.8282962204724411
20
-3.4631825984251967
11
6.8057990157480317
21
-3.4631825984251967
0
LINE
8
BLACK
6
CONTINUOUS
10
6.8057990157480317
20
-3.4631825984251967
11
6.7982999606299215
21
-3.4594330708661416
0
LINE
8
BLACK
6
CONTINUOUS
10
6.7982999606299215
20
-3.4594330708661416
11
6.7945504330708664
21
-3.4556835039370077
0
LINE
8
BLACK
6
CONTINUOUS
10
6.9370326377952756
20
-3.4631825984251967
11
6.9370326377952756
21
-3.3844424409448819
0
LINE
8
BLACK
6
CONTINUOUS
10
6.9707784251968503
20
-3.4631825984251967
11
6.9707784251968503
21
-3.4219377559055117
0
LINE
8
BLACK
6
CONTINUOUS
10
6.9707784251968503
20
-3.4219377559055117
11
6.9670288976377952
21
-3.4144386614173228
0
LINE
8
BLACK
6
CONTINUOUS
10
6.9670288976377952
20
-3.4144386614173228
11
6.959529842519685
21
-3.4106891338582677
0
LINE
8
BLACK
6
CONTINUOUS
10
6.959529842519685
20
-3.4106891338582677
11
6.9482812204724409
21
-3.4106891338582677
0
LINE
8
BLACK
6
CONTINUOUS
10
6.9482812204724409
20
-3.4106891338582677
11
6.9407821653543307
21
-3.4144386614173228
0
LINE
8
BLACK
6
CONTINUOUS
10
6.9407821653543307
20
-3.4144386614173228
11
6.9370326377952756
21
-3.4181881889763779
0
LINE
8
BLACK
6
CONTINUOUS
10
7.0195223228346455
20
-3.4631825984251967
11
7.0120232677165353
21
-3.4594330708661416
0
LINE
8
BLACK
6
CONTINUOUS
10
7.0120232677165353
20
-3.4594330708661416
11
7.0082737401574802
21
-3.4556835039370077
0
LINE
8
BLACK
6
CONTINUOUS
10
7.0082737401574802
20
-3.4556835039370077
11
7.0045242125984251
21
-3.4481844488188975
0
LINE
8
BLACK
6
CONTINUOUS
10
7.0045242125984251
20
-3.4481844488188975
11
7.0045242125984251
21
-3.4256872834645669
0
LINE
8
BLACK
6
CONTINUOUS
10
7.0045242125984251
20
-3.4256872834645669
11
7.0082737401574802
21
-3.4181881889763779
0
LINE
8
BLACK
6
CONTINUOUS
10
7.0082737401574802
20
-3.4181881889763779
11
7.0120232677165353
21
-3.4144386614173228
0
LINE
8
BLACK
6
CONTINUOUS
10
7.0120232677165353
20
-3.4144386614173228
11
7.0195223228346455
21
-3.4106891338582677
0
LINE
8
BLACK
6
CONTINUOUS
10
7.0195223228346455
20
-3.4106891338582677
11
7.0307709448818896
21
-3.4106891338582677
0
LINE
8
BLACK
6
CONTINUOUS
10
7.0307709448818896
20
-3.4106891338582677
11
7.0382699999999998
21
-3.4144386614173228
0
LINE
8
BLACK
6
CONTINUOUS
10
7.0382699999999998
20
-3.4144386614173228
11
7.0420195275590549
21
-3.4181881889763779
0
LINE
8
BLACK
6
CONTINUOUS
10
7.0420195275590549
20
-3.4181881889763779
11
7.04576905511811
21
-3.4256872834645669
0
LINE
8
BLACK
6
CONTINUOUS
10
7.04576905511811
20
-3.4256872834645669
11
7.04576905511811
21
-3.4481844488188975
0
LINE
8
BLACK
6
CONTINUOUS
10
7.04576905511811
20
-3.4481844488188975
11
7.0420195275590549
21
-3.4556835039370077
0
LINE
8
BLACK
6
CONTINUOUS
10
7.0420195275590549
20
-3.4556835039370077
11
7.0382699999999998
21
-3.4594330708661416
0
LINE
8
BLACK
6
CONTINUOUS
10
7.0382699999999998
20
-3.4594330708661416
11
7.0307709448818896
21
-3.4631825984251967
0
LINE
8
BLACK
6
CONTINUOUS
10
7.0307709448818896
20
-3.4631825984251967
11
7.0195223228346455
21
-3.4631825984251967
0
LINE
8
BLACK
6
CONTINUOUS
10
7.0907634251968501
20
-3.4631825984251967
11
7.0832643700787399
21
-3.4594330708661416
0
LINE
8
BLACK
6
CONTINUOUS
10
7.0832643700787399
20
-3.4594330708661416
11
7.0795148425196848
21
-3.4519339763779526
0
LINE
8
BLACK
6
CONTINUOUS
10
7.0795148425196848
20
-3.4519339763779526
11
7.0795148425196848
21
-3.3844424409448819
0
LINE
8
BLACK
6
CONTINUOUS
10
7.1507559448818894
20
-3.4594330708661416
11
7.1432568897637791
21
-3.4631825984251967
0
LINE
8
BLACK
6
CONTINUOUS
10
7.1432568897637791
20
-3.4631825984251967
11
7.12825874015748
21
-3.4631825984251967
0
LINE
8
BLACK
6
CONTINUOUS
10
7.12825874015748
20
-3.4631825984251967
11
7.1207596850393697
21
-3.4594330708661416
0
LINE
8
BLACK
6
CONTINUOUS
10
7.1207596850393697
20
-3.4594330708661416
11
7.1170101574803146
21
-3.4519339763779526
0
LINE
8
BLACK
6
CONTINUOUS
10
7.1170101574803146
20
-3.4519339763779526
11
7.1170101574803146
21
-3.4219377559055117
0
LINE
8
BLACK
6
CONTINUOUS
10
7.1170101574803146
20
-3.4219377559055117
11
7.1207596850393697
21
-3.4144386614173228
0
LINE
8
BLACK
6
CONTINUOUS
10
7.1207596850393697
20
-3.4144386614173228
11
7.12825874015748
21
-3.4106891338582677
0
LINE
8
BLACK
6
CONTINUOUS
10
7.12825874015748
20
-3.4106891338582677
11
7.1432568897637791
21
-3.4106891338582677
0
LINE
8
BLACK
6
CONTINUOUS
10
7.1432568897637791
20
-3.4106891338582677
11
7.1507559448818894
21
-3.4144386614173228
0
LINE
8
BLACK
6
CONTINUOUS
10
7.1507559448818894
20
-3.4144386614173228
11
7.1545054724409445
21
-3.4219377559055117
0
LINE
8
BLACK
6
CONTINUOUS
10
7.1545054724409445
20
-3.4219377559055117
11
7.1545054724409445
21
-3.429436811023622
0
LINE
8
BLACK
6
CONTINUOUS
10
7.1545054724409445
20
-3.429436811023622
11
7.1170101574803146
21
-3.4369358661417322
0
LINE
8
BLACK
6
CONTINUOUS
10
7.1845017322834641
20
-3.4594330708661416
11
7.1920007874015743
21
-3.4631825984251967
0
LINE
8
BLACK
6
CONTINUOUS
10
7.1920007874015743
20
-3.4631825984251967
11
7.2069988976377948
21
-3.4631825984251967
0
LINE
8
BLACK
6
CONTINUOUS
10
7.2069988976377948
20
-3.4631825984251967
11
7.2144979921259837
21
-3.4594330708661416
0
LINE
8
BLACK
6
CONTINUOUS
10
7.2144979921259837
20
-3.4594330708661416
11
7.2182475196850389
21
-3.4519339763779526
0
LINE
8
BLACK
6
CONTINUOUS
10
7.2182475196850389
20
-3.4519339763779526
11
7.2182475196850389
21
-3.4481844488188975
0
LINE
8
BLACK
6
CONTINUOUS
10
7.2182475196850389
20
-3.4481844488188975
11
7.2144979921259837
21
-3.4406853937007873
0
LINE
8
BLACK
6
CONTINUOUS
10
7.2144979921259837
20
-3.4406853937007873
11
7.2069988976377948
21
-3.4369358661417322
0
LINE
8
BLACK
6
CONTINUOUS
10
7.2069988976377948
20
-3.4369358661417322
11
7.1957503149606294
21
-3.4369358661417322
0
LINE
8
BLACK
6
CONTINUOUS
10
7.1957503149606294
20
-3.4369358661417322
11
7.1882512598425192
21
-3.4331863385826771
0
LINE
8
BLACK
6
CONTINUOUS
10
7.1882512598425192
20
-3.4331863385826771
11
7.1845017322834641
21
-3.4256872834645669
0
LINE
8
BLACK
6
CONTINUOUS
10
7.1845017322834641
20
-3.4256872834645669
11
7.1845017322834641
21
-3.4219377559055117
0
LINE
8
BLACK
6
CONTINUOUS
10
7.1845017322834641
20
-3.4219377559055117
11
7.1882512598425192
21
-3.4144386614173228
0
LINE
8
BLACK
6
CONTINUOUS
10
7.1882512598425192
20
-3.4144386614173228
11
7.1957503149606294
21
-3.4106891338582677
0
LINE
8
BLACK
6
CONTINUOUS
10
7.1957503149606294
20
-3.4106891338582677
11
7.2069988976377948
21
-3.4106891338582677
0
LINE
8
BLACK
6
CONTINUOUS
10
7.2069988976377948
20
-3.4106891338582677
11
7.2144979921259837
21
-3.4144386614173228
0
LINE
8
BLACK
6
CONTINUOUS
10
7.2444942519685034
20
-3.4931788188976376
11
7.2482437795275585
21
-3.4894292913385825
0
LINE
8
BLACK
6
CONTINUOUS
10
7.2482437795275585
20
-3.4894292913385825
11
7.2557428346456687
21
-3.4781807086614172
0
LINE
8
BLACK
6
CONTINUOUS
10
7.2557428346456687
20
-3.4781807086614172
11
7.2594923622047238
21
-3.4706816535433069
0
LINE
8
BLACK
6
CONTINUOUS
10
7.2594923622047238
20
-3.4706816535433069
11
7.2632418897637789
21
-3.4594330708661416
0
LINE
8
BLACK
6
CONTINUOUS
10
7.2632418897637789
20
-3.4594330708661416
11
7.266991417322834
21
-3.4406853937007873
0
LINE
8
BLACK
6
CONTINUOUS
10
7.266991417322834
20
-3.4406853937007873
11
7.266991417322834
21
-3.4256872834645669
0
LINE
8
BLACK
6
CONTINUOUS
10
7.266991417322834
20
-3.4256872834645669
11
7.2632418897637789
21
-3.4069396062992126
0
LINE
8
BLACK
6
CONTINUOUS
10
7.2632418897637789
20
-3.4069396062992126
11
7.2594923622047238
21
-3.3956910236220472
0
LINE
8
BLACK
6
CONTINUOUS
10
7.2594923622047238
20
-3.3956910236220472
11
7.2557428346456687
21
-3.388191968503937
0
LINE
8
BLACK
6
CONTINUOUS
10
7.2557428346456687
20
-3.388191968503937
11
7.2482437795275585
21
-3.3769433464566929
0
LINE
8
BLACK
6
CONTINUOUS
10
7.2482437795275585
20
-3.3769433464566929
11
7.2444942519685034
21
-3.3731938188976378
0
CIRCLE
8
BLACK
10
5.2086614173228343
20
-3.5311023622047242
40
0.0059055118110236
0
LINE
8
BLACK
6
CONTINUOUS
10
5.3322330708661418
20
-3.4883794488188977
11
5.3397321653543308
21
-3.4883794488188977
0
LINE
8
BLACK
6
CONTINUOUS
10
5.3397321653543308
20
-3.4883794488188977
11
5.347231220472441
21
-3.4921289763779528
0
LINE
8
BLACK
6
CONTINUOUS
10
5.347231220472441
20
-3.4921289763779528
11
5.3509807480314961
21
-3.4958785039370079
0
LINE
8
BLACK
6
CONTINUOUS
10
5.3509807480314961
20
-3.4958785039370079
11
5.3547302755905513
21
-3.5033775590551182
0
LINE
8
BLACK
6
CONTINUOUS
10
5.3547302755905513
20
-3.5033775590551182
11
5.3584798031496064
21
-3.5183756692913386
0
LINE
8
BLACK
6
CONTINUOUS
10
5.3584798031496064
20
-3.5183756692913386
11
5.3584798031496064
21
-3.5371233464566929
0
LINE
8
BLACK
6
CONTINUOUS
10
5.3584798031496064
20
-3.5371233464566929
11
5.3547302755905513
21
-3.5521214566929133
0
LINE
8
BLACK
6
CONTINUOUS
10
5.3547302755905513
20
-3.5521214566929133
11
5.3509807480314961
21
-3.5596205118110236
0
LINE
8
BLACK
6
CONTINUOUS
10
5.3509807480314961
20
-3.5596205118110236
11
5.347231220472441
21
-3.5633700787401574
0
LINE
8
BLACK
6
CONTINUOUS
10
5.347231220472441
20
-3.5633700787401574
11
5.3397321653543308
21
-3.5671196062992125
0
LINE
8
BLACK
6
CONTINUOUS
10
5.3397321653543308
20
-3.5671196062992125
11
5.3322330708661418
21
-3.5671196062992125
0
LINE
8
BLACK
6
CONTINUOUS
10
5.3322330708661418
20
-3.5671196062992125
11
5.3247340157480316
21
-3.5633700787401574
0
LINE
8
BLACK
6
CONTINUOUS
10
5.3247340157480316
20
-3.5633700787401574
11
5.3209844881889765
21
-3.5596205118110236
0
LINE
8
BLACK
6
CONTINUOUS
10
5.3209844881889765
20
-3.5596205118110236
11
5.3172349606299214
21
-3.5521214566929133
0
LINE
8
BLACK
6
CONTINUOUS
10
5.3172349606299214
20
-3.5521214566929133
11
5.3134854330708663
21
-3.5371233464566929
0
LINE
8
BLACK
6
CONTINUOUS
10
5.3134854330708663
20
-3.5371233464566929
11
5.3134854330708663
21
-3.5183756692913386
0
LINE
8
BLACK
6
CONTINUOUS
10
5.3134854330708663
20
-3.5183756692913386
11
5.3172349606299214
21
-3.5033775590551182
0
LINE
8
BLACK
6
CONTINUOUS
10
5.3172349606299214
20
-3.5033775590551182
11
5.3209844881889765
21
-3.4958785039370079
0
LINE
8
BLACK
6
CONTINUOUS
10
5.3209844881889765
20
-3.4958785039370079
11
5.3247340157480316
21
-3.4921289763779528
0
LINE
8
BLACK
6
CONTINUOUS
10
5.3247340157480316
20
-3.4921289763779528
11
5.3322330708661418
21
-3.4883794488188977
0
LINE
8
BLACK
6
CONTINUOUS
10
5.3922255905511811
20
-3.5596205118110236
11
5.3959751181102362
21
-3.5633700787401574
0
LINE
8
BLACK
6
CONTINUOUS
10
5.3959751181102362
20
-3.5633700787401574
11
5.3922255905511811
21
-3.5671196062992125
0
LINE
8
BLACK
6
CONTINUOUS
10
5.3922255905511811
20
-3.5671196062992125
11
5.388476062992126
21
-3.5633700787401574
0
LINE
8
BLACK
6
CONTINUOUS
10
5.388476062992126
20
-3.5633700787401574
11
5.3922255905511811
21
-3.5596205118110236
0
LINE
8
BLACK
6
CONTINUOUS
10
5.3922255905511811
20
-3.5596205118110236
11
5.3922255905511811
21
-3.5671196062992125
0
LINE
8
BLACK
6
CONTINUOUS
10
5.4222218503937007
20
-3.4883794488188977
11
5.4709657480314959
21
-3.4883794488188977
0
LINE
8
BLACK
6
CONTINUOUS
10
5.4709657480314959
20
-3.4883794488188977
11
5.4447190157480314
21
-3.5183756692913386
0
LINE
8
BLACK
6
CONTINUOUS
10
5.4447190157480314
20
-3.5183756692913386
11
5.4559676377952755
21
-3.5183756692913386
0
LINE
8
BLACK
6
CONTINUOUS
10
5.4559676377952755
20
-3.5183756692913386
11
5.4634666929133857
21
-3.5221251968503937
0
LINE
8
BLACK
6
CONTINUOUS
10
5.4634666929133857
20
-3.5221251968503937
11
5.4672162204724408
21
-3.5258747637795276
0
LINE
8
BLACK
6
CONTINUOUS
10
5.4672162204724408
20
-3.5258747637795276
11
5.4709657480314959
21
-3.5333738188976378
0
LINE
8
BLACK
6
CONTINUOUS
10
5.4709657480314959
20
-3.5333738188976378
11
5.4709657480314959
21
-3.5521214566929133
0
LINE
8
BLACK
6
CONTINUOUS
10
5.4709657480314959
20
-3.5521214566929133
11
5.4672162204724408
21
-3.5596205118110236
0
LINE
8
BLACK
6
CONTINUOUS
10
5.4672162204724408
20
-3.5596205118110236
11
5.4634666929133857
21
-3.5633700787401574
0
LINE
8
BLACK
6
CONTINUOUS
10
5.4634666929133857
20
-3.5633700787401574
11
5.4559676377952755
21
-3.5671196062992125
0
LINE
8
BLACK
6
CONTINUOUS
10
5.4559676377952755
20
-3.5671196062992125
11
5.4334704330708661
21
-3.5671196062992125
0
LINE
8
BLACK
6
CONTINUOUS
10
5.4334704330708661
20
-3.5671196062992125
11
5.4259713779527559
21
-3.5633700787401574
0
LINE
8
BLACK
6
CONTINUOUS
10
5.4259713779527559
20
-3.5633700787401574
11
5.4222218503937007
21
-3.5596205118110236
0
LINE
8
BLACK
6
CONTINUOUS
10
5.5197096456692911
20
-3.4883794488188977
11
5.5272087401574801
21
-3.4883794488188977
0
LINE
8
BLACK
6
CONTINUOUS
10
5.5272087401574801
20
-3.4883794488188977
11
5.5347077952755903
21
-3.4921289763779528
0
LINE
8
BLACK
6
CONTINUOUS
10
5.5347077952755903
20
-3.4921289763779528
11
5.5384573228346454
21
-3.4958785039370079
0
LINE
8
BLACK
6
CONTINUOUS
10
5.5384573228346454
20
-3.4958785039370079
11
5.5422068503937005
21
-3.5033775590551182
0
LINE
8
BLACK
6
CONTINUOUS
10
5.5422068503937005
20
-3.5033775590551182
11
5.5459563779527556
21
-3.5183756692913386
0
LINE
8
BLACK
6
CONTINUOUS
10
5.5459563779527556
20
-3.5183756692913386
11
5.5459563779527556
21
-3.5371233464566929
0
LINE
8
BLACK
6
CONTINUOUS
10
5.5459563779527556
20
-3.5371233464566929
11
5.5422068503937005
21
-3.5521214566929133
0
LINE
8
BLACK
6
CONTINUOUS
10
5.5422068503937005
20
-3.5521214566929133
11
5.5384573228346454
21
-3.5596205118110236
0
LINE
8
BLACK
6
CONTINUOUS
10
5.5384573228346454
20
-3.5596205118110236
11
5.5347077952755903
21
-3.5633700787401574
0
LINE
8
BLACK
6
CONTINUOUS
10
5.5347077952755903
20
-3.5633700787401574
11
5.5272087401574801
21
-3.5671196062992125
0
LINE
8
BLACK
6
CONTINUOUS
10
5.5272087401574801
20
-3.5671196062992125
11
5.5197096456692911
21
-3.5671196062992125
0
LINE
8
BLACK
6
CONTINUOUS
10
5.5197096456692911
20
-3.5671196062992125
11
5.5122105905511809
21
-3.5633700787401574
0
LINE
8
BLACK
6
CONTINUOUS
10
5.5122105905511809
20
-3.5633700787401574
11
5.5084610629921258
21
-3.5596205118110236
0
LINE
8
BLACK
6
CONTINUOUS
10
5.5084610629921258
20
-3.5596205118110236
11
5.5047115354330707
21
-3.5521214566929133
0
LINE
8
BLACK
6
CONTINUOUS
10
5.5047115354330707
20
-3.5521214566929133
11
5.5009620078740156
21
-3.5371233464566929
0
LINE
8
BLACK
6
CONTINUOUS
10
5.5009620078740156
20
-3.5371233464566929
11
5.5009620078740156
21
-3.5183756692913386
0
LINE
8
BLACK
6
CONTINUOUS
10
5.5009620078740156
20
-3.5183756692913386
11
5.5047115354330707
21
-3.5033775590551182
0
LINE
8
BLACK
6
CONTINUOUS
10
5.5047115354330707
20
-3.5033775590551182
11
5.5084610629921258
21
-3.4958785039370079
0
LINE
8
BLACK
6
CONTINUOUS
10
5.5084610629921258
20
-3.4958785039370079
11
5.5122105905511809
21
-3.4921289763779528
0
LINE
8
BLACK
6
CONTINUOUS
10
5.5122105905511809
20
-3.4921289763779528
11
5.5197096456692911
21
-3.4883794488188977
0
LINE
8
BLACK
6
CONTINUOUS
10
5.5947002755905508
20
-3.4883794488188977
11
5.6021993700787398
21
-3.4883794488188977
0
LINE
8
BLACK
6
CONTINUOUS
10
5.6021993700787398
20
-3.4883794488188977
11
5.60969842519685
21
-3.4921289763779528
0
LINE
8
BLACK
6
CONTINUOUS
10
5.60969842519685
20
-3.4921289763779528
11
5.6134479527559051
21
-3.4958785039370079
0
LINE
8
BLACK
6
CONTINUOUS
10
5.6134479527559051
20
-3.4958785039370079
11
5.6171974803149602
21
-3.5033775590551182
0
LINE
8
BLACK
6
CONTINUOUS
10
5.6171974803149602
20
-3.5033775590551182
11
5.6209470078740154
21
-3.5183756692913386
0
LINE
8
BLACK
6
CONTINUOUS
10
5.6209470078740154
20
-3.5183756692913386
11
5.6209470078740154
21
-3.5371233464566929
0
LINE
8
BLACK
6
CONTINUOUS
10
5.6209470078740154
20
-3.5371233464566929
11
5.6171974803149602
21
-3.5521214566929133
0
LINE
8
BLACK
6
CONTINUOUS
10
5.6171974803149602
20
-3.5521214566929133
11
5.6134479527559051
21
-3.5596205118110236
0
LINE
8
BLACK
6
CONTINUOUS
10
5.6134479527559051
20
-3.5596205118110236
11
5.60969842519685
21
-3.5633700787401574
0
LINE
8
BLACK
6
CONTINUOUS
10
5.60969842519685
20
-3.5633700787401574
11
5.6021993700787398
21
-3.5671196062992125
0
LINE
8
BLACK
6
CONTINUOUS
10
5.6021993700787398
20
-3.5671196062992125
11
5.5947002755905508
21
-3.5671196062992125
0
LINE
8
BLACK
6
CONTINUOUS
10
5.5947002755905508
20
-3.5671196062992125
11
5.5872012204724406
21
-3.5633700787401574
0
LINE
8
BLACK
6
CONTINUOUS
10
5.5872012204724406
20
-3.5633700787401574
11
5.5834516929133855
21
-3.5596205118110236
0
LINE
8
BLACK
6
CONTINUOUS
10
5.5834516929133855
20
-3.5596205118110236
11
5.5797021653543304
21
-3.5521214566929133
0
LINE
8
BLACK
6
CONTINUOUS
10
5.5797021653543304
20
-3.5521214566929133
11
5.5759526377952753
21
-3.5371233464566929
0
LINE
8
BLACK
6
CONTINUOUS
10
5.5759526377952753
20
-3.5371233464566929
11
5.5759526377952753
21
-3.5183756692913386
0
LINE
8
BLACK
6
CONTINUOUS
10
5.5759526377952753
20
-3.5183756692913386
11
5.5797021653543304
21
-3.5033775590551182
0
LINE
8
BLACK
6
CONTINUOUS
10
5.5797021653543304
20
-3.5033775590551182
11
5.5834516929133855
21
-3.4958785039370079
0
LINE
8
BLACK
6
CONTINUOUS
10
5.5834516929133855
20
-3.4958785039370079
11
5.5872012204724406
21
-3.4921289763779528
0
LINE
8
BLACK
6
CONTINUOUS
10
5.5872012204724406
20
-3.4921289763779528
11
5.5947002755905508
21
-3.4883794488188977
0
LINE
8
BLACK
6
CONTINUOUS
10
5.6546927952755901
20
-3.5671196062992125
11
5.6546927952755901
21
-3.5146261417322835
0
LINE
8
BLACK
6
CONTINUOUS
10
5.6546927952755901
20
-3.5221251968503937
11
5.6584423228346452
21
-3.5183756692913386
0
LINE
8
BLACK
6
CONTINUOUS
10
5.6584423228346452
20
-3.5183756692913386
11
5.6659413779527554
21
-3.5146261417322835
0
LINE
8
BLACK
6
CONTINUOUS
10
5.6659413779527554
20
-3.5146261417322835
11
5.6771899999999995
21
-3.5146261417322835
0
LINE
8
BLACK
6
CONTINUOUS
10
5.6771899999999995
20
-3.5146261417322835
11
5.6846890551181097
21
-3.5183756692913386
0
LINE
8
BLACK
6
CONTINUOUS
10
5.6846890551181097
20
-3.5183756692913386
11
5.6884385826771648
21
-3.5258747637795276
0
LINE
8
BLACK
6
CONTINUOUS
10
5.6884385826771648
20
-3.5258747637795276
11
5.6884385826771648
21
-3.5671196062992125
0
LINE
8
BLACK
6
CONTINUOUS
10
5.6884385826771648
20
-3.5258747637795276
11
5.69218811023622
21
-3.5183756692913386
0
LINE
8
BLACK
6
CONTINUOUS
10
5.69218811023622
20
-3.5183756692913386
11
5.6996871653543302
21
-3.5146261417322835
0
LINE
8
BLACK
6
CONTINUOUS
10
5.6996871653543302
20
-3.5146261417322835
11
5.7109357480314955
21
-3.5146261417322835
0
LINE
8
BLACK
6
CONTINUOUS
10
5.7109357480314955
20
-3.5146261417322835
11
5.7184348425196845
21
-3.5183756692913386
0
LINE
8
BLACK
6
CONTINUOUS
10
5.7184348425196845
20
-3.5183756692913386
11
5.7221843700787396
21
-3.5258747637795276
0
LINE
8
BLACK
6
CONTINUOUS
10
5.7221843700787396
20
-3.5258747637795276
11
5.7221843700787396
21
-3.5671196062992125
0
LINE
8
BLACK
6
CONTINUOUS
10
5.7596796850393703
20
-3.5671196062992125
11
5.7596796850393703
21
-3.5146261417322835
0
LINE
8
BLACK
6
CONTINUOUS
10
5.7596796850393703
20
-3.5221251968503937
11
5.7634292125984254
21
-3.5183756692913386
0
LINE
8
BLACK
6
CONTINUOUS
10
5.7634292125984254
20
-3.5183756692913386
11
5.7709282677165357
21
-3.5146261417322835
0
LINE
8
BLACK
6
CONTINUOUS
10
5.7709282677165357
20
-3.5146261417322835
11
5.7821768897637797
21
-3.5146261417322835
0
LINE
8
BLACK
6
CONTINUOUS
10
5.7821768897637797
20
-3.5146261417322835
11
5.78967594488189
21
-3.5183756692913386
0
LINE
8
BLACK
6
CONTINUOUS
10
5.78967594488189
20
-3.5183756692913386
11
5.7934254724409451
21
-3.5258747637795276
0
LINE
8
BLACK
6
CONTINUOUS
10
5.7934254724409451
20
-3.5258747637795276
11
5.7934254724409451
21
-3.5671196062992125
0
LINE
8
BLACK
6
CONTINUOUS
10
5.7934254724409451
20
-3.5258747637795276
11
5.7971750000000002
21
-3.5183756692913386
0
LINE
8
BLACK
6
CONTINUOUS
10
5.7971750000000002
20
-3.5183756692913386
11
5.8046740551181104
21
-3.5146261417322835
0
LINE
8
BLACK
6
CONTINUOUS
10
5.8046740551181104
20
-3.5146261417322835
11
5.8159226377952757
21
-3.5146261417322835
0
LINE
8
BLACK
6
CONTINUOUS
10
5.8159226377952757
20
-3.5146261417322835
11
5.8234217322834647
21
-3.5183756692913386
0
LINE
8
BLACK
6
CONTINUOUS
10
5.8234217322834647
20
-3.5183756692913386
11
5.8271712598425198
21
-3.5258747637795276
0
LINE
8
BLACK
6
CONTINUOUS
10
5.8271712598425198
20
-3.5258747637795276
11
5.8271712598425198
21
-3.5671196062992125
0
LINE
8
BLACK
6
CONTINUOUS
10
5.9809020472440944
20
-3.4846299212598426
11
5.9134105118110236
21
-3.5858672440944881
0
LINE
8
BLACK
6
CONTINUOUS
10
6.0821394094488186
20
-3.4883794488188977
11
6.0896385039370076
21
-3.4883794488188977
0
LINE
8
BLACK
6
CONTINUOUS
10
6.0896385039370076
20
-3.4883794488188977
11
6.0971375590551178
21
-3.4921289763779528
0
LINE
8
BLACK
6
CONTINUOUS
10
6.0971375590551178
20
-3.4921289763779528
11
6.1008870866141729
21
-3.4958785039370079
0
LINE
8
BLACK
6
CONTINUOUS
10
6.1008870866141729
20
-3.4958785039370079
11
6.104636614173228
21
-3.5033775590551182
0
LINE
8
BLACK
6
CONTINUOUS
10
6.104636614173228
20
-3.5033775590551182
11
6.1083861417322831
21
-3.5183756692913386
0
LINE
8
BLACK
6
CONTINUOUS
10
6.1083861417322831
20
-3.5183756692913386
11
6.1083861417322831
21
-3.5371233464566929
0
LINE
8
BLACK
6
CONTINUOUS
10
6.1083861417322831
20
-3.5371233464566929
11
6.104636614173228
21
-3.5521214566929133
0
LINE
8
BLACK
6
CONTINUOUS
10
6.104636614173228
20
-3.5521214566929133
11
6.1008870866141729
21
-3.5596205118110236
0
LINE
8
BLACK
6
CONTINUOUS
10
6.1008870866141729
20
-3.5596205118110236
11
6.0971375590551178
21
-3.5633700787401574
0
LINE
8
BLACK
6
CONTINUOUS
10
6.0971375590551178
20
-3.5633700787401574
11
6.0896385039370076
21
-3.5671196062992125
0
LINE
8
BLACK
6
CONTINUOUS
10
6.0896385039370076
20
-3.5671196062992125
11
6.0821394094488186
21
-3.5671196062992125
0
LINE
8
BLACK
6
CONTINUOUS
10
6.0821394094488186
20
-3.5671196062992125
11
6.0746403543307084
21
-3.5633700787401574
0
LINE
8
BLACK
6
CONTINUOUS
10
6.0746403543307084
20
-3.5633700787401574
11
6.0708908267716533
21
-3.5596205118110236
0
LINE
8
BLACK
6
CONTINUOUS
10
6.0708908267716533
20
-3.5596205118110236
11
6.0671412992125981
21
-3.5521214566929133
0
LINE
8
BLACK
6
CONTINUOUS
10
6.0671412992125981
20
-3.5521214566929133
11
6.063391771653543
21
-3.5371233464566929
0
LINE
8
BLACK
6
CONTINUOUS
10
6.063391771653543
20
-3.5371233464566929
11
6.063391771653543
21
-3.5183756692913386
0
LINE
8
BLACK
6
CONTINUOUS
10
6.063391771653543
20
-3.5183756692913386
11
6.0671412992125981
21
-3.5033775590551182
0
LINE
8
BLACK
6
CONTINUOUS
10
6.0671412992125981
20
-3.5033775590551182
11
6.0708908267716533
21
-3.4958785039370079
0
LINE
8
BLACK
6
CONTINUOUS
10
6.0708908267716533
20
-3.4958785039370079
11
6.0746403543307084
21
-3.4921289763779528
0
LINE
8
BLACK
6
CONTINUOUS
10
6.0746403543307084
20
-3.4921289763779528
11
6.0821394094488186
21
-3.4883794488188977
0
LINE
8
BLACK
6
CONTINUOUS
10
6.1421319291338579
20
-3.5596205118110236
11
6.145881456692913
21
-3.5633700787401574
0
LINE
8
BLACK
6
CONTINUOUS
10
6.145881456692913
20
-3.5633700787401574
11
6.1421319291338579
21
-3.5671196062992125
0
LINE
8
BLACK
6
CONTINUOUS
10
6.1421319291338579
20
-3.5671196062992125
11
6.1383824015748027
21
-3.5633700787401574
0
LINE
8
BLACK
6
CONTINUOUS
10
6.1383824015748027
20
-3.5633700787401574
11
6.1421319291338579
21
-3.5596205118110236
0
LINE
8
BLACK
6
CONTINUOUS
10
6.1421319291338579
20
-3.5596205118110236
11
6.1421319291338579
21
-3.5671196062992125
0
LINE
8
BLACK
6
CONTINUOUS
10
6.1946253543307082
20
-3.4883794488188977
11
6.2021244488188971
21
-3.4883794488188977
0
LINE
8
BLACK
6
CONTINUOUS
10
6.2021244488188971
20
-3.4883794488188977
11
6.2096235039370073
21
-3.4921289763779528
0
LINE
8
BLACK
6
CONTINUOUS
10
6.2096235039370073
20
-3.4921289763779528
11
6.2133730314960625
21
-3.4958785039370079
0
LINE
8
BLACK
6
CONTINUOUS
10
6.2133730314960625
20
-3.4958785039370079
11
6.2171225590551176
21
-3.5033775590551182
0
LINE
8
BLACK
6
CONTINUOUS
10
6.2171225590551176
20
-3.5033775590551182
11
6.2208720866141727
21
-3.5183756692913386
0
LINE
8
BLACK
6
CONTINUOUS
10
6.2208720866141727
20
-3.5183756692913386
11
6.2208720866141727
21
-3.5371233464566929
0
LINE
8
BLACK
6
CONTINUOUS
10
6.2208720866141727
20
-3.5371233464566929
11
6.2171225590551176
21
-3.5521214566929133
0
LINE
8
BLACK
6
CONTINUOUS
10
6.2171225590551176
20
-3.5521214566929133
11
6.2133730314960625
21
-3.5596205118110236
0
LINE
8
BLACK
6
CONTINUOUS
10
6.2133730314960625
20
-3.5596205118110236
11
6.2096235039370073
21
-3.5633700787401574
0
LINE
8
BLACK
6
CONTINUOUS
10
6.2096235039370073
20
-3.5633700787401574
11
6.2021244488188971
21
-3.5671196062992125
0
LINE
8
BLACK
6
CONTINUOUS
10
6.2021244488188971
20
-3.5671196062992125
11
6.1946253543307082
21
-3.5671196062992125
0
LINE
8
BLACK
6
CONTINUOUS
10
6.1946253543307082
20
-3.5671196062992125
11
6.1871262992125979
21
-3.5633700787401574
0
LINE
8
BLACK
6
CONTINUOUS
10
6.1871262992125979
20
-3.5633700787401574
11
6.1833767716535428
21
-3.5596205118110236
0
LINE
8
BLACK
6
CONTINUOUS
10
6.1833767716535428
20
-3.5596205118110236
11
6.1796272440944877
21
-3.5521214566929133
0
LINE
8
BLACK
6
CONTINUOUS
10
6.1796272440944877
20
-3.5521214566929133
11
6.1758777165354326
21
-3.5371233464566929
0
LINE
8
BLACK
6
CONTINUOUS
10
6.1758777165354326
20
-3.5371233464566929
11
6.1758777165354326
21
-3.5183756692913386
0
LINE
8
BLACK
6
CONTINUOUS
10
6.1758777165354326
20
-3.5183756692913386
11
6.1796272440944877
21
-3.5033775590551182
0
LINE
8
BLACK
6
CONTINUOUS
10
6.1796272440944877
20
-3.5033775590551182
11
6.1833767716535428
21
-3.4958785039370079
0
LINE
8
BLACK
6
CONTINUOUS
10
6.1833767716535428
20
-3.4958785039370079
11
6.1871262992125979
21
-3.4921289763779528
0
LINE
8
BLACK
6
CONTINUOUS
10
6.1871262992125979
20
-3.4921289763779528
11
6.1946253543307082
21
-3.4883794488188977
0
LINE
8
BLACK
6
CONTINUOUS
10
6.2958627165354333
20
-3.5671196062992125
11
6.2508683464566932
21
-3.5671196062992125
0
LINE
8
BLACK
6
CONTINUOUS
10
6.2733655118110239
20
-3.5671196062992125
11
6.2733655118110239
21
-3.4883794488188977
0
LINE
8
BLACK
6
CONTINUOUS
10
6.2733655118110239
20
-3.4883794488188977
11
6.2658664566929136
21
-3.4996280314960631
0
LINE
8
BLACK
6
CONTINUOUS
10
6.2658664566929136
20
-3.4996280314960631
11
6.2583674015748034
21
-3.5071270866141733
0
LINE
8
BLACK
6
CONTINUOUS
10
6.2583674015748034
20
-3.5071270866141733
11
6.2508683464566932
21
-3.5108766141732284
0
LINE
8
BLACK
6
CONTINUOUS
10
6.370853346456693
20
-3.5671196062992125
11
6.3258589763779529
21
-3.5671196062992125
0
LINE
8
BLACK
6
CONTINUOUS
10
6.3483561417322836
20
-3.5671196062992125
11
6.3483561417322836
21
-3.4883794488188977
0
LINE
8
BLACK
6
CONTINUOUS
10
6.3483561417322836
20
-3.4883794488188977
11
6.3408570866141734
21
-3.4996280314960631
0
LINE
8
BLACK
6
CONTINUOUS
10
6.3408570866141734
20
-3.4996280314960631
11
6.3333580314960631
21
-3.5071270866141733
0
LINE
8
BLACK
6
CONTINUOUS
10
6.3333580314960631
20
-3.5071270866141733
11
6.3258589763779529
21
-3.5108766141732284
0
LINE
8
BLACK
6
CONTINUOUS
10
6.4158477165354331
20
-3.5221251968503937
11
6.4083486614173228
21
-3.5183756692913386
0
LINE
8
BLACK
6
CONTINUOUS
10
6.4083486614173228
20
-3.5183756692913386
11
6.4045991338582677
21
-3.5146261417322835
0
LINE
8
BLACK
6
CONTINUOUS
10
6.4045991338582677
20
-3.5146261417322835
11
6.4008496062992126
21
-3.5071270866141733
0
LINE
8
BLACK
6
CONTINUOUS
10
6.4008496062992126
20
-3.5071270866141733
11
6.4008496062992126
21
-3.5033775590551182
0
LINE
8
BLACK
6
CONTINUOUS
10
6.4008496062992126
20
-3.5033775590551182
11
6.4045991338582677
21
-3.4958785039370079
0
LINE
8
BLACK
6
CONTINUOUS
10
6.4045991338582677
20
-3.4958785039370079
11
6.4083486614173228
21
-3.4921289763779528
0
LINE
8
BLACK
6
CONTINUOUS
10
6.4083486614173228
20
-3.4921289763779528
11
6.4158477165354331
21
-3.4883794488188977
0
LINE
8
BLACK
6
CONTINUOUS
10
6.4158477165354331
20
-3.4883794488188977
11
6.4308458661417323
21
-3.4883794488188977
0
LINE
8
BLACK
6
CONTINUOUS
10
6.4308458661417323
20
-3.4883794488188977
11
6.4383449212598425
21
-3.4921289763779528
0
LINE
8
BLACK
6
CONTINUOUS
10
6.4383449212598425
20
-3.4921289763779528
11
6.4420944488188976
21
-3.4958785039370079
0
LINE
8
BLACK
6
CONTINUOUS
10
6.4420944488188976
20
-3.4958785039370079
11
6.4458439763779527
21
-3.5033775590551182
0
LINE
8
BLACK
6
CONTINUOUS
10
6.4458439763779527
20
-3.5033775590551182
11
6.4458439763779527
21
-3.5071270866141733
0
LINE
8
BLACK
6
CONTINUOUS
10
6.4458439763779527
20
-3.5071270866141733
11
6.4420944488188976
21
-3.5146261417322835
0
LINE
8
BLACK
6
CONTINUOUS
10
6.4420944488188976
20
-3.5146261417322835
11
6.4383449212598425
21
-3.5183756692913386
0
LINE
8
BLACK
6
CONTINUOUS
10
6.4383449212598425
20
-3.5183756692913386
11
6.4308458661417323
21
-3.5221251968503937
0
LINE
8
BLACK
6
CONTINUOUS
10
6.4308458661417323
20
-3.5221251968503937
11
6.4158477165354331
21
-3.5221251968503937
0
LINE
8
BLACK
6
CONTINUOUS
10
6.4158477165354331
20
-3.5221251968503937
11
6.4083486614173228
21
-3.5258747637795276
0
LINE
8
BLACK
6
CONTINUOUS
10
6.4083486614173228
20
-3.5258747637795276
11
6.4045991338582677
21
-3.5296242913385827
0
LINE
8
BLACK
6
CONTINUOUS
10
6.4045991338582677
20
-3.5296242913385827
11
6.4008496062992126
21
-3.5371233464566929
0
LINE
8
BLACK
6
CONTINUOUS
10
6.4008496062992126
20
-3.5371233464566929
11
6.4008496062992126
21
-3.5521214566929133
0
LINE
8
BLACK
6
CONTINUOUS
10
6.4008496062992126
20
-3.5521214566929133
11
6.4045991338582677
21
-3.5596205118110236
0
LINE
8
BLACK
6
CONTINUOUS
10
6.4045991338582677
20
-3.5596205118110236
11
6.4083486614173228
21
-3.5633700787401574
0
LINE
8
BLACK
6
CONTINUOUS
10
6.4083486614173228
20
-3.5633700787401574
11
6.4158477165354331
21
-3.5671196062992125
0
LINE
8
BLACK
6
CONTINUOUS
10
6.4158477165354331
20
-3.5671196062992125
11
6.4308458661417323
21
-3.5671196062992125
0
LINE
8
BLACK
6
CONTINUOUS
10
6.4308458661417323
20
-3.5671196062992125
11
6.4383449212598425
21
-3.5633700787401574
0
LINE
8
BLACK
6
CONTINUOUS
10
6.4383449212598425
20
-3.5633700787401574
11
6.4420944488188976
21
-3.5596205118110236
0
LINE
8
BLACK
6
CONTINUOUS
10
6.4420944488188976
20
-3.5596205118110236
11
6.4458439763779527
21
-3.5521214566929133
0
LINE
8
BLACK
6
CONTINUOUS
10
6.4458439763779527
20
-3.5521214566929133
11
6.4458439763779527
21
-3.5371233464566929
0
LINE
8
BLACK
6
CONTINUOUS
10
6.4458439763779527
20
-3.5371233464566929
11
6.4420944488188976
21
-3.5296242913385827
0
LINE
8
BLACK
6
CONTINUOUS
10
6.4420944488188976
20
-3.5296242913385827
11
6.4383449212598425
21
-3.5258747637795276
0
LINE
8
BLACK
6
CONTINUOUS
10
6.4383449212598425
20
-3.5258747637795276
11
6.4308458661417323
21
-3.5221251968503937
0
LINE
8
BLACK
6
CONTINUOUS
10
6.4758402362204723
20
-3.4883794488188977
11
6.4758402362204723
21
-3.5033775590551182
0
LINE
8
BLACK
6
CONTINUOUS
10
6.505836496062992
20
-3.4883794488188977
11
6.505836496062992
21
-3.5033775590551182
0
LINE
8
BLACK
6
CONTINUOUS
10
6.6220720078740154
20
-3.5971158267716534
11
6.6183224409448815
21
-3.5933662992125983
0
LINE
8
BLACK
6
CONTINUOUS
10
6.6183224409448815
20
-3.5933662992125983
11
6.6108233858267713
21
-3.582117716535433
0
LINE
8
BLACK
6
CONTINUOUS
10
6.6108233858267713
20
-3.582117716535433
11
6.6070738582677162
21
-3.5746186614173228
0
LINE
8
BLACK
6
CONTINUOUS
10
6.6070738582677162
20
-3.5746186614173228
11
6.6033243307086611
21
-3.5633700787401574
0
LINE
8
BLACK
6
CONTINUOUS
10
6.6033243307086611
20
-3.5633700787401574
11
6.599574803149606
21
-3.5446224015748031
0
LINE
8
BLACK
6
CONTINUOUS
10
6.599574803149606
20
-3.5446224015748031
11
6.599574803149606
21
-3.5296242913385827
0
LINE
8
BLACK
6
CONTINUOUS
10
6.599574803149606
20
-3.5296242913385827
11
6.6033243307086611
21
-3.5108766141732284
0
LINE
8
BLACK
6
CONTINUOUS
10
6.6033243307086611
20
-3.5108766141732284
11
6.6070738582677162
21
-3.4996280314960631
0
LINE
8
BLACK
6
CONTINUOUS
10
6.6070738582677162
20
-3.4996280314960631
11
6.6108233858267713
21
-3.4921289763779528
0
LINE
8
BLACK
6
CONTINUOUS
10
6.6108233858267713
20
-3.4921289763779528
11
6.6183224409448815
21
-3.4808803543307087
0
LINE
8
BLACK
6
CONTINUOUS
10
6.6183224409448815
20
-3.4808803543307087
11
6.6220720078740154
21
-3.4771308267716536
0
LINE
8
BLACK
6
CONTINUOUS
10
6.6933130708661412
20
-3.5671196062992125
11
6.6483187007874012
21
-3.5671196062992125
0
LINE
8
BLACK
6
CONTINUOUS
10
6.6708158661417318
20
-3.5671196062992125
11
6.6708158661417318
21
-3.4883794488188977
0
LINE
8
BLACK
6
CONTINUOUS
10
6.6708158661417318
20
-3.4883794488188977
11
6.6633168110236216
21
-3.4996280314960631
0
LINE
8
BLACK
6
CONTINUOUS
10
6.6633168110236216
20
-3.4996280314960631
11
6.6558177559055114
21
-3.5071270866141733
0
LINE
8
BLACK
6
CONTINUOUS
10
6.6558177559055114
20
-3.5071270866141733
11
6.6483187007874012
21
-3.5108766141732284
0
LINE
8
BLACK
6
CONTINUOUS
10
6.7870513779527561
20
-3.5671196062992125
11
6.7870513779527561
21
-3.4883794488188977
0
LINE
8
BLACK
6
CONTINUOUS
10
6.8207971653543309
20
-3.5671196062992125
11
6.8207971653543309
21
-3.5258747637795276
0
LINE
8
BLACK
6
CONTINUOUS
10
6.8207971653543309
20
-3.5258747637795276
11
6.8170476377952758
21
-3.5183756692913386
0
LINE
8
BLACK
6
CONTINUOUS
10
6.8170476377952758
20
-3.5183756692913386
11
6.8095485826771656
21
-3.5146261417322835
0
LINE
8
BLACK
6
CONTINUOUS
10
6.8095485826771656
20
-3.5146261417322835
11
6.7982999606299215
21
-3.5146261417322835
0
LINE
8
BLACK
6
CONTINUOUS
10
6.7982999606299215
20
-3.5146261417322835
11
6.7908009055118113
21
-3.5183756692913386
0
LINE
8
BLACK
6
CONTINUOUS
10
6.7908009055118113
20
-3.5183756692913386
11
6.7870513779527561
21
-3.5221251968503937
0
LINE
8
BLACK
6
CONTINUOUS
10
6.8695410629921261
20
-3.5671196062992125
11
6.8620420078740159
21
-3.5633700787401574
0
LINE
8
BLACK
6
CONTINUOUS
10
6.8620420078740159
20
-3.5633700787401574
11
6.8582924803149607
21
-3.5596205118110236
0
LINE
8
BLACK
6
CONTINUOUS
10
6.8582924803149607
20
-3.5596205118110236
11
6.8545429527559056
21
-3.5521214566929133
0
LINE
8
BLACK
6
CONTINUOUS
10
6.8545429527559056
20
-3.5521214566929133
11
6.8545429527559056
21
-3.5296242913385827
0
LINE
8
BLACK
6
CONTINUOUS
10
6.8545429527559056
20
-3.5296242913385827
11
6.8582924803149607
21
-3.5221251968503937
0
LINE
8
BLACK
6
CONTINUOUS
10
6.8582924803149607
20
-3.5221251968503937
11
6.8620420078740159
21
-3.5183756692913386
0
LINE
8
BLACK
6
CONTINUOUS
10
6.8620420078740159
20
-3.5183756692913386
11
6.8695410629921261
21
-3.5146261417322835
0
LINE
8
BLACK
6
CONTINUOUS
10
6.8695410629921261
20
-3.5146261417322835
11
6.8807896850393702
21
-3.5146261417322835
0
LINE
8
BLACK
6
CONTINUOUS
10
6.8807896850393702
20
-3.5146261417322835
11
6.8882887401574804
21
-3.5183756692913386
0
LINE
8
BLACK
6
CONTINUOUS
10
6.8882887401574804
20
-3.5183756692913386
11
6.8920382677165355
21
-3.5221251968503937
0
LINE
8
BLACK
6
CONTINUOUS
10
6.8920382677165355
20
-3.5221251968503937
11
6.8957877952755906
21
-3.5296242913385827
0
LINE
8
BLACK
6
CONTINUOUS
10
6.8957877952755906
20
-3.5296242913385827
11
6.8957877952755906
21
-3.5521214566929133
0
LINE
8
BLACK
6
CONTINUOUS
10
6.8957877952755906
20
-3.5521214566929133
11
6.8920382677165355
21
-3.5596205118110236
0
LINE
8
BLACK
6
CONTINUOUS
10
6.8920382677165355
20
-3.5596205118110236
11
6.8882887401574804
21
-3.5633700787401574
0
LINE
8
BLACK
6
CONTINUOUS
10
6.8882887401574804
20
-3.5633700787401574
11
6.8807896850393702
21
-3.5671196062992125
0
LINE
8
BLACK
6
CONTINUOUS
10
6.8807896850393702
20
-3.5671196062992125
11
6.8695410629921261
21
-3.5671196062992125
0
LINE
8
BLACK
6
CONTINUOUS
10
6.9407821653543307
20
-3.5671196062992125
11
6.9332831102362205
21
-3.5633700787401574
0
LINE
8
BLACK
6
CONTINUOUS
10
6.9332831102362205
20
-3.5633700787401574
11
6.9295335826771653
21
-3.5558709842519685
0
LINE
8
BLACK
6
CONTINUOUS
10
6.9295335826771653
20
-3.5558709842519685
11
6.9295335826771653
21
-3.4883794488188977
0
LINE
8
BLACK
6
CONTINUOUS
10
7.0007746850393699
20
-3.5633700787401574
11
6.9932756299212597
21
-3.5671196062992125
0
LINE
8
BLACK
6
CONTINUOUS
10
6.9932756299212597
20
-3.5671196062992125
11
6.9782774803149605
21
-3.5671196062992125
0
LINE
8
BLACK
6
CONTINUOUS
10
6.9782774803149605
20
-3.5671196062992125
11
6.9707784251968503
21
-3.5633700787401574
0
LINE
8
BLACK
6
CONTINUOUS
10
6.9707784251968503
20
-3.5633700787401574
11
6.9670288976377952
21
-3.5558709842519685
0
LINE
8
BLACK
6
CONTINUOUS
10
6.9670288976377952
20
-3.5558709842519685
11
6.9670288976377952
21
-3.5258747637795276
0
LINE
8
BLACK
6
CONTINUOUS
10
6.9670288976377952
20
-3.5258747637795276
11
6.9707784251968503
21
-3.5183756692913386
0
LINE
8
BLACK
6
CONTINUOUS
10
6.9707784251968503
20
-3.5183756692913386
11
6.9782774803149605
21
-3.5146261417322835
0
LINE
8
BLACK
6
CONTINUOUS
10
6.9782774803149605
20
-3.5146261417322835
11
6.9932756299212597
21
-3.5146261417322835
0
LINE
8
BLACK
6
CONTINUOUS
10
6.9932756299212597
20
-3.5146261417322835
11
7.0007746850393699
21
-3.5183756692913386
0
LINE
8
BLACK
6
CONTINUOUS
10
7.0007746850393699
20
-3.5183756692913386
11
7.0045242125984251
21
-3.5258747637795276
0
LINE
8
BLACK
6
CONTINUOUS
10
7.0045242125984251
20
-3.5258747637795276
11
7.0045242125984251
21
-3.5333738188976378
0
LINE
8
BLACK
6
CONTINUOUS
10
7.0045242125984251
20
-3.5333738188976378
11
6.9670288976377952
21
-3.540872874015748
0
LINE
8
BLACK
6
CONTINUOUS
10
7.0307709448818896
20
-3.5971158267716534
11
7.0345204724409447
21
-3.5933662992125983
0
LINE
8
BLACK
6
CONTINUOUS
10
7.0345204724409447
20
-3.5933662992125983
11
7.0420195275590549
21
-3.582117716535433
0
LINE
8
BLACK
6
CONTINUOUS
10
7.0420195275590549
20
-3.582117716535433
11
7.04576905511811
21
-3.5746186614173228
0
LINE
8
BLACK
6
CONTINUOUS
10
7.04576905511811
20
-3.5746186614173228
11
7.0495185826771651
21
-3.5633700787401574
0
LINE
8
BLACK
6
CONTINUOUS
10
7.0495185826771651
20
-3.5633700787401574
11
7.0532681102362202
21
-3.5446224015748031
0
LINE
8
BLACK
6
CONTINUOUS
10
7.0532681102362202
20
-3.5446224015748031
11
7.0532681102362202
21
-3.5296242913385827
0
LINE
8
BLACK
6
CONTINUOUS
10
7.0532681102362202
20
-3.5296242913385827
11
7.0495185826771651
21
-3.5108766141732284
0
LINE
8
BLACK
6
CONTINUOUS
10
7.0495185826771651
20
-3.5108766141732284
11
7.04576905511811
21
-3.4996280314960631
0
LINE
8
BLACK
6
CONTINUOUS
10
7.04576905511811
20
-3.4996280314960631
11
7.0420195275590549
21
-3.4921289763779528
0
LINE
8
BLACK
6
CONTINUOUS
10
7.0420195275590549
20
-3.4921289763779528
11
7.0345204724409447
21
-3.4808803543307087
0
LINE
8
BLACK
6
CONTINUOUS
10
7.0345204724409447
20
-3.4808803543307087
11
7.0307709448818896
21
-3.4771308267716536
0
LINE
8
BLACK
6
CONTINUOUS
10
5.2007874015748028
20
-3.6212598425196849
11
5.2007874015748028
21
-3.6488188976377951
0
LINE
8
BLACK
6
CONTINUOUS
10
5.1870078740157481
20
-3.63503937007874
11
5.2145669291338583
21
-3.63503937007874
0
LINE
8
BLACK
6
CONTINUOUS
10
5.3322330708661418
20
-3.5923164566929131
11
5.3397321653543308
21
-3.5923164566929131
0
LINE
8
BLACK
6
CONTINUOUS
10
5.3397321653543308
20
-3.5923164566929131
11
5.347231220472441
21
-3.5960659842519682
0
LINE
8
BLACK
6
CONTINUOUS
10
5.347231220472441
20
-3.5960659842519682
11
5.3509807480314961
21
-3.5998155118110233
0
LINE
8
BLACK
6
CONTINUOUS
10
5.3509807480314961
20
-3.5998155118110233
11
5.3547302755905513
21
-3.607314566929134
0
LINE
8
BLACK
6
CONTINUOUS
10
5.3547302755905513
20
-3.607314566929134
11
5.3584798031496064
21
-3.6223126771653544
0
LINE
8
BLACK
6
CONTINUOUS
10
5.3584798031496064
20
-3.6223126771653544
11
5.3584798031496064
21
-3.6410603543307087
0
LINE
8
BLACK
6
CONTINUOUS
10
5.3584798031496064
20
-3.6410603543307087
11
5.3547302755905513
21
-3.6560584645669292
0
LINE
8
BLACK
6
CONTINUOUS
10
5.3547302755905513
20
-3.6560584645669292
11
5.3509807480314961
21
-3.6635575196850394
0
LINE
8
BLACK
6
CONTINUOUS
10
5.3509807480314961
20
-3.6635575196850394
11
5.347231220472441
21
-3.6673070866141733
0
LINE
8
BLACK
6
CONTINUOUS
10
5.347231220472441
20
-3.6673070866141733
11
5.3397321653543308
21
-3.6710566141732284
0
LINE
8
BLACK
6
CONTINUOUS
10
5.3397321653543308
20
-3.6710566141732284
11
5.3322330708661418
21
-3.6710566141732284
0
LINE
8
BLACK
6
CONTINUOUS
10
5.3322330708661418
20
-3.6710566141732284
11
5.3247340157480316
21
-3.6673070866141733
0
LINE
8
BLACK
6
CONTINUOUS
10
5.3247340157480316
20
-3.6673070866141733
11
5.3209844881889765
21
-3.6635575196850394
0
LINE
8
BLACK
6
CONTINUOUS
10
5.3209844881889765
20
-3.6635575196850394
11
5.3172349606299214
21
-3.6560584645669292
0
LINE
8
BLACK
6
CONTINUOUS
10
5.3172349606299214
20
-3.6560584645669292
11
5.3134854330708663
21
-3.6410603543307087
0
LINE
8
BLACK
6
CONTINUOUS
10
5.3134854330708663
20
-3.6410603543307087
11
5.3134854330708663
21
-3.6223126771653544
0
LINE
8
BLACK
6
CONTINUOUS
10
5.3134854330708663
20
-3.6223126771653544
11
5.3172349606299214
21
-3.607314566929134
0
LINE
8
BLACK
6
CONTINUOUS
10
5.3172349606299214
20
-3.607314566929134
11
5.3209844881889765
21
-3.5998155118110233
0
LINE
8
BLACK
6
CONTINUOUS
10
5.3209844881889765
20
-3.5998155118110233
11
5.3247340157480316
21
-3.5960659842519682
0
LINE
8
BLACK
6
CONTINUOUS
10
5.3247340157480316
20
-3.5960659842519682
11
5.3322330708661418
21
-3.5923164566929131
0
LINE
8
BLACK
6
CONTINUOUS
10
5.3922255905511811
20
-3.6635575196850394
11
5.3959751181102362
21
-3.6673070866141733
0
LINE
8
BLACK
6
CONTINUOUS
10
5.3959751181102362
20
-3.6673070866141733
11
5.3922255905511811
21
-3.6710566141732284
0
LINE
8
BLACK
6
CONTINUOUS
10
5.3922255905511811
20
-3.6710566141732284
11
5.388476062992126
21
-3.6673070866141733
0
LINE
8
BLACK
6
CONTINUOUS
10
5.388476062992126
20
-3.6673070866141733
11
5.3922255905511811
21
-3.6635575196850394
0
LINE
8
BLACK
6
CONTINUOUS
10
5.3922255905511811
20
-3.6635575196850394
11
5.3922255905511811
21
-3.6710566141732284
0
LINE
8
BLACK
6
CONTINUOUS
10
5.4222218503937007
20
-3.5923164566929131
11
5.474715275590551
21
-3.5923164566929131
0
LINE
8
BLACK
6
CONTINUOUS
10
5.474715275590551
20
-3.5923164566929131
11
5.4409694881889763
21
-3.6710566141732284
0
LINE
8
BLACK
6
CONTINUOUS
10
5.5197096456692911
20
-3.5923164566929131
11
5.5272087401574801
21
-3.5923164566929131
0
LINE
8
BLACK
6
CONTINUOUS
10
5.5272087401574801
20
-3.5923164566929131
11
5.5347077952755903
21
-3.5960659842519682
0
LINE
8
BLACK
6
CONTINUOUS
10
5.5347077952755903
20
-3.5960659842519682
11
5.5384573228346454
21
-3.5998155118110233
0
LINE
8
BLACK
6
CONTINUOUS
10
5.5384573228346454
20
-3.5998155118110233
11
5.5422068503937005
21
-3.607314566929134
0
LINE
8
BLACK
6
CONTINUOUS
10
5.5422068503937005
20
-3.607314566929134
11
5.5459563779527556
21
-3.6223126771653544
0
LINE
8
BLACK
6
CONTINUOUS
10
5.5459563779527556
20
-3.6223126771653544
11
5.5459563779527556
21
-3.6410603543307087
0
LINE
8
BLACK
6
CONTINUOUS
10
5.5459563779527556
20
-3.6410603543307087
11
5.5422068503937005
21
-3.6560584645669292
0
LINE
8
BLACK
6
CONTINUOUS
10
5.5422068503937005
20
-3.6560584645669292
11
5.5384573228346454
21
-3.6635575196850394
0
LINE
8
BLACK
6
CONTINUOUS
10
5.5384573228346454
20
-3.6635575196850394
11
5.5347077952755903
21
-3.6673070866141733
0
LINE
8
BLACK
6
CONTINUOUS
10
5.5347077952755903
20
-3.6673070866141733
11
5.5272087401574801
21
-3.6710566141732284
0
LINE
8
BLACK
6
CONTINUOUS
10
5.5272087401574801
20
-3.6710566141732284
11
5.5197096456692911
21
-3.6710566141732284
0
LINE
8
BLACK
6
CONTINUOUS
10
5.5197096456692911
20
-3.6710566141732284
11
5.5122105905511809
21
-3.6673070866141733
0
LINE
8
BLACK
6
CONTINUOUS
10
5.5122105905511809
20
-3.6673070866141733
11
5.5084610629921258
21
-3.6635575196850394
0
LINE
8
BLACK
6
CONTINUOUS
10
5.5084610629921258
20
-3.6635575196850394
11
5.5047115354330707
21
-3.6560584645669292
0
LINE
8
BLACK
6
CONTINUOUS
10
5.5047115354330707
20
-3.6560584645669292
11
5.5009620078740156
21
-3.6410603543307087
0
LINE
8
BLACK
6
CONTINUOUS
10
5.5009620078740156
20
-3.6410603543307087
11
5.5009620078740156
21
-3.6223126771653544
0
LINE
8
BLACK
6
CONTINUOUS
10
5.5009620078740156
20
-3.6223126771653544
11
5.5047115354330707
21
-3.607314566929134
0
LINE
8
BLACK
6
CONTINUOUS
10
5.5047115354330707
20
-3.607314566929134
11
5.5084610629921258
21
-3.5998155118110233
0
LINE
8
BLACK
6
CONTINUOUS
10
5.5084610629921258
20
-3.5998155118110233
11
5.5122105905511809
21
-3.5960659842519682
0
LINE
8
BLACK
6
CONTINUOUS
10
5.5122105905511809
20
-3.5960659842519682
11
5.5197096456692911
21
-3.5923164566929131
0
LINE
8
BLACK
6
CONTINUOUS
10
5.5947002755905508
20
-3.5923164566929131
11
5.6021993700787398
21
-3.5923164566929131
0
LINE
8
BLACK
6
CONTINUOUS
10
5.6021993700787398
20
-3.5923164566929131
11
5.60969842519685
21
-3.5960659842519682
0
LINE
8
BLACK
6
CONTINUOUS
10
5.60969842519685
20
-3.5960659842519682
11
5.6134479527559051
21
-3.5998155118110233
0
LINE
8
BLACK
6
CONTINUOUS
10
5.6134479527559051
20
-3.5998155118110233
11
5.6171974803149602
21
-3.607314566929134
0
LINE
8
BLACK
6
CONTINUOUS
10
5.6171974803149602
20
-3.607314566929134
11
5.6209470078740154
21
-3.6223126771653544
0
LINE
8
BLACK
6
CONTINUOUS
10
5.6209470078740154
20
-3.6223126771653544
11
5.6209470078740154
21
-3.6410603543307087
0
LINE
8
BLACK
6
CONTINUOUS
10
5.6209470078740154
20
-3.6410603543307087
11
5.6171974803149602
21
-3.6560584645669292
0
LINE
8
BLACK
6
CONTINUOUS
10
5.6171974803149602
20
-3.6560584645669292
11
5.6134479527559051
21
-3.6635575196850394
0
LINE
8
BLACK
6
CONTINUOUS
10
5.6134479527559051
20
-3.6635575196850394
11
5.60969842519685
21
-3.6673070866141733
0
LINE
8
BLACK
6
CONTINUOUS
10
5.60969842519685
20
-3.6673070866141733
11
5.6021993700787398
21
-3.6710566141732284
0
LINE
8
BLACK
6
CONTINUOUS
10
5.6021993700787398
20
-3.6710566141732284
11
5.5947002755905508
21
-3.6710566141732284
0
LINE
8
BLACK
6
CONTINUOUS
10
5.5947002755905508
20
-3.6710566141732284
11
5.5872012204724406
21
-3.6673070866141733
0
LINE
8
BLACK
6
CONTINUOUS
10
5.5872012204724406
20
-3.6673070866141733
11
5.5834516929133855
21
-3.6635575196850394
0
LINE
8
BLACK
6
CONTINUOUS
10
5.5834516929133855
20
-3.6635575196850394
11
5.5797021653543304
21
-3.6560584645669292
0
LINE
8
BLACK
6
CONTINUOUS
10
5.5797021653543304
20
-3.6560584645669292
11
5.5759526377952753
21
-3.6410603543307087
0
LINE
8
BLACK
6
CONTINUOUS
10
5.5759526377952753
20
-3.6410603543307087
11
5.5759526377952753
21
-3.6223126771653544
0
LINE
8
BLACK
6
CONTINUOUS
10
5.5759526377952753
20
-3.6223126771653544
11
5.5797021653543304
21
-3.607314566929134
0
LINE
8
BLACK
6
CONTINUOUS
10
5.5797021653543304
20
-3.607314566929134
11
5.5834516929133855
21
-3.5998155118110233
0
LINE
8
BLACK
6
CONTINUOUS
10
5.5834516929133855
20
-3.5998155118110233
11
5.5872012204724406
21
-3.5960659842519682
0
LINE
8
BLACK
6
CONTINUOUS
10
5.5872012204724406
20
-3.5960659842519682
11
5.5947002755905508
21
-3.5923164566929131
0
LINE
8
BLACK
6
CONTINUOUS
10
5.6546927952755901
20
-3.6710566141732284
11
5.6546927952755901
21
-3.6185631496062993
0
LINE
8
BLACK
6
CONTINUOUS
10
5.6546927952755901
20
-3.6260622047244095
11
5.6584423228346452
21
-3.6223126771653544
0
LINE
8
BLACK
6
CONTINUOUS
10
5.6584423228346452
20
-3.6223126771653544
11
5.6659413779527554
21
-3.6185631496062993
0
LINE
8
BLACK
6
CONTINUOUS
10
5.6659413779527554
20
-3.6185631496062993
11
5.6771899999999995
21
-3.6185631496062993
0
LINE
8
BLACK
6
CONTINUOUS
10
5.6771899999999995
20
-3.6185631496062993
11
5.6846890551181097
21
-3.6223126771653544
0
LINE
8
BLACK
6
CONTINUOUS
10
5.6846890551181097
20
-3.6223126771653544
11
5.6884385826771648
21
-3.6298117716535434
0
LINE
8
BLACK
6
CONTINUOUS
10
5.6884385826771648
20
-3.6298117716535434
11
5.6884385826771648
21
-3.6710566141732284
0
LINE
8
BLACK
6
CONTINUOUS
10
5.6884385826771648
20
-3.6298117716535434
11
5.69218811023622
21
-3.6223126771653544
0
LINE
8
BLACK
6
CONTINUOUS
10
5.69218811023622
20
-3.6223126771653544
11
5.6996871653543302
21
-3.6185631496062993
0
LINE
8
BLACK
6
CONTINUOUS
10
5.6996871653543302
20
-3.6185631496062993
11
5.7109357480314955
21
-3.6185631496062993
0
LINE
8
BLACK
6
CONTINUOUS
10
5.7109357480314955
20
-3.6185631496062993
11
5.7184348425196845
21
-3.6223126771653544
0
LINE
8
BLACK
6
CONTINUOUS
10
5.7184348425196845
20
-3.6223126771653544
11
5.7221843700787396
21
-3.6298117716535434
0
LINE
8
BLACK
6
CONTINUOUS
10
5.7221843700787396
20
-3.6298117716535434
11
5.7221843700787396
21
-3.6710566141732284
0
LINE
8
BLACK
6
CONTINUOUS
10
5.7596796850393703
20
-3.6710566141732284
11
5.7596796850393703
21
-3.6185631496062993
0
LINE
8
BLACK
6
CONTINUOUS
10
5.7596796850393703
20
-3.6260622047244095
11
5.7634292125984254
21
-3.6223126771653544
0
LINE
8
BLACK
6
CONTINUOUS
10
5.7634292125984254
20
-3.6223126771653544
11
5.7709282677165357
21
-3.6185631496062993
0
LINE
8
BLACK
6
CONTINUOUS
10
5.7709282677165357
20
-3.6185631496062993
11
5.7821768897637797
21
-3.6185631496062993
0
LINE
8
BLACK
6
CONTINUOUS
10
5.7821768897637797
20
-3.6185631496062993
11
5.78967594488189
21
-3.6223126771653544
0
LINE
8
BLACK
6
CONTINUOUS
10
5.78967594488189
20
-3.6223126771653544
11
5.7934254724409451
21
-3.6298117716535434
0
LINE
8
BLACK
6
CONTINUOUS
10
5.7934254724409451
20
-3.6298117716535434
11
5.7934254724409451
21
-3.6710566141732284
0
LINE
8
BLACK
6
CONTINUOUS
10
5.7934254724409451
20
-3.6298117716535434
11
5.7971750000000002
21
-3.6223126771653544
0
LINE
8
BLACK
6
CONTINUOUS
10
5.7971750000000002
20
-3.6223126771653544
11
5.8046740551181104
21
-3.6185631496062993
0
LINE
8
BLACK
6
CONTINUOUS
10
5.8046740551181104
20
-3.6185631496062993
11
5.8159226377952757
21
-3.6185631496062993
0
LINE
8
BLACK
6
CONTINUOUS
10
5.8159226377952757
20
-3.6185631496062993
11
5.8234217322834647
21
-3.6223126771653544
0
LINE
8
BLACK
6
CONTINUOUS
10
5.8234217322834647
20
-3.6223126771653544
11
5.8271712598425198
21
-3.6298117716535434
0
LINE
8
BLACK
6
CONTINUOUS
10
5.8271712598425198
20
-3.6298117716535434
11
5.8271712598425198
21
-3.6710566141732284
0
LINE
8
BLACK
6
CONTINUOUS
10
5.9809020472440944
20
-3.588566929133858
11
5.9134105118110236
21
-3.6898042519685039
0
LINE
8
BLACK
6
CONTINUOUS
10
6.0821394094488186
20
-3.5923164566929131
11
6.0896385039370076
21
-3.5923164566929131
0
LINE
8
BLACK
6
CONTINUOUS
10
6.0896385039370076
20
-3.5923164566929131
11
6.0971375590551178
21
-3.5960659842519682
0
LINE
8
BLACK
6
CONTINUOUS
10
6.0971375590551178
20
-3.5960659842519682
11
6.1008870866141729
21
-3.5998155118110233
0
LINE
8
BLACK
6
CONTINUOUS
10
6.1008870866141729
20
-3.5998155118110233
11
6.104636614173228
21
-3.607314566929134
0
LINE
8
BLACK
6
CONTINUOUS
10
6.104636614173228
20
-3.607314566929134
11
6.1083861417322831
21
-3.6223126771653544
0
LINE
8
BLACK
6
CONTINUOUS
10
6.1083861417322831
20
-3.6223126771653544
11
6.1083861417322831
21
-3.6410603543307087
0
LINE
8
BLACK
6
CONTINUOUS
10
6.1083861417322831
20
-3.6410603543307087
11
6.104636614173228
21
-3.6560584645669292
0
LINE
8
BLACK
6
CONTINUOUS
10
6.104636614173228
20
-3.6560584645669292
11
6.1008870866141729
21
-3.6635575196850394
0
LINE
8
BLACK
6
CONTINUOUS
10
6.1008870866141729
20
-3.6635575196850394
11
6.0971375590551178
21
-3.6673070866141733
0
LINE
8
BLACK
6
CONTINUOUS
10
6.0971375590551178
20
-3.6673070866141733
11
6.0896385039370076
21
-3.6710566141732284
0
LINE
8
BLACK
6
CONTINUOUS
10
6.0896385039370076
20
-3.6710566141732284
11
6.0821394094488186
21
-3.6710566141732284
0
LINE
8
BLACK
6
CONTINUOUS
10
6.0821394094488186
20
-3.6710566141732284
11
6.0746403543307084
21
-3.6673070866141733
0
LINE
8
BLACK
6
CONTINUOUS
10
6.0746403543307084
20
-3.6673070866141733
11
6.0708908267716533
21
-3.6635575196850394
0
LINE
8
BLACK
6
CONTINUOUS
10
6.0708908267716533
20
-3.6635575196850394
11
6.0671412992125981
21
-3.6560584645669292
0
LINE
8
BLACK
6
CONTINUOUS
10
6.0671412992125981
20
-3.6560584645669292
11
6.063391771653543
21
-3.6410603543307087
0
LINE
8
BLACK
6
CONTINUOUS
10
6.063391771653543
20
-3.6410603543307087
11
6.063391771653543
21
-3.6223126771653544
0
LINE
8
BLACK
6
CONTINUOUS
10
6.063391771653543
20
-3.6223126771653544
11
6.0671412992125981
21
-3.607314566929134
0
LINE
8
BLACK
6
CONTINUOUS
10
6.0671412992125981
20
-3.607314566929134
11
6.0708908267716533
21
-3.5998155118110233
0
LINE
8
BLACK
6
CONTINUOUS
10
6.0708908267716533
20
-3.5998155118110233
11
6.0746403543307084
21
-3.5960659842519682
0
LINE
8
BLACK
6
CONTINUOUS
10
6.0746403543307084
20
-3.5960659842519682
11
6.0821394094488186
21
-3.5923164566929131
0
LINE
8
BLACK
6
CONTINUOUS
10
6.1421319291338579
20
-3.6635575196850394
11
6.145881456692913
21
-3.6673070866141733
0
LINE
8
BLACK
6
CONTINUOUS
10
6.145881456692913
20
-3.6673070866141733
11
6.1421319291338579
21
-3.6710566141732284
0
LINE
8
BLACK
6
CONTINUOUS
10
6.1421319291338579
20
-3.6710566141732284
11
6.1383824015748027
21
-3.6673070866141733
0
LINE
8
BLACK
6
CONTINUOUS
10
6.1383824015748027
20
-3.6673070866141733
11
6.1421319291338579
21
-3.6635575196850394
0
LINE
8
BLACK
6
CONTINUOUS
10
6.1421319291338579
20
-3.6635575196850394
11
6.1421319291338579
21
-3.6710566141732284
0
LINE
8
BLACK
6
CONTINUOUS
10
6.1946253543307082
20
-3.5923164566929131
11
6.2021244488188971
21
-3.5923164566929131
0
LINE
8
BLACK
6
CONTINUOUS
10
6.2021244488188971
20
-3.5923164566929131
11
6.2096235039370073
21
-3.5960659842519682
0
LINE
8
BLACK
6
CONTINUOUS
10
6.2096235039370073
20
-3.5960659842519682
11
6.2133730314960625
21
-3.5998155118110233
0
LINE
8
BLACK
6
CONTINUOUS
10
6.2133730314960625
20
-3.5998155118110233
11
6.2171225590551176
21
-3.607314566929134
0
LINE
8
BLACK
6
CONTINUOUS
10
6.2171225590551176
20
-3.607314566929134
11
6.2208720866141727
21
-3.6223126771653544
0
LINE
8
BLACK
6
CONTINUOUS
10
6.2208720866141727
20
-3.6223126771653544
11
6.2208720866141727
21
-3.6410603543307087
0
LINE
8
BLACK
6
CONTINUOUS
10
6.2208720866141727
20
-3.6410603543307087
11
6.2171225590551176
21
-3.6560584645669292
0
LINE
8
BLACK
6
CONTINUOUS
10
6.2171225590551176
20
-3.6560584645669292
11
6.2133730314960625
21
-3.6635575196850394
0
LINE
8
BLACK
6
CONTINUOUS
10
6.2133730314960625
20
-3.6635575196850394
11
6.2096235039370073
21
-3.6673070866141733
0
LINE
8
BLACK
6
CONTINUOUS
10
6.2096235039370073
20
-3.6673070866141733
11
6.2021244488188971
21
-3.6710566141732284
0
LINE
8
BLACK
6
CONTINUOUS
10
6.2021244488188971
20
-3.6710566141732284
11
6.1946253543307082
21
-3.6710566141732284
0
LINE
8
BLACK
6
CONTINUOUS
10
6.1946253543307082
20
-3.6710566141732284
11
6.1871262992125979
21
-3.6673070866141733
0
LINE
8
BLACK
6
CONTINUOUS
10
6.1871262992125979
20
-3.6673070866141733
11
6.1833767716535428
21
-3.6635575196850394
0
LINE
8
BLACK
6
CONTINUOUS
10
6.1833767716535428
20
-3.6635575196850394
11
6.1796272440944877
21
-3.6560584645669292
0
LINE
8
BLACK
6
CONTINUOUS
10
6.1796272440944877
20
-3.6560584645669292
11
6.1758777165354326
21
-3.6410603543307087
0
LINE
8
BLACK
6
CONTINUOUS
10
6.1758777165354326
20
-3.6410603543307087
11
6.1758777165354326
21
-3.6223126771653544
0
LINE
8
BLACK
6
CONTINUOUS
10
6.1758777165354326
20
-3.6223126771653544
11
6.1796272440944877
21
-3.607314566929134
0
LINE
8
BLACK
6
CONTINUOUS
10
6.1796272440944877
20
-3.607314566929134
11
6.1833767716535428
21
-3.5998155118110233
0
LINE
8
BLACK
6
CONTINUOUS
10
6.1833767716535428
20
-3.5998155118110233
11
6.1871262992125979
21
-3.5960659842519682
0
LINE
8
BLACK
6
CONTINUOUS
10
6.1871262992125979
20
-3.5960659842519682
11
6.1946253543307082
21
-3.5923164566929131
0
LINE
8
BLACK
6
CONTINUOUS
10
6.2508683464566932
20
-3.5998155118110233
11
6.2546178740157483
21
-3.5960659842519682
0
LINE
8
BLACK
6
CONTINUOUS
10
6.2546178740157483
20
-3.5960659842519682
11
6.2621169291338585
21
-3.5923164566929131
0
LINE
8
BLACK
6
CONTINUOUS
10
6.2621169291338585
20
-3.5923164566929131
11
6.2808646062992128
21
-3.5923164566929131
0
LINE
8
BLACK
6
CONTINUOUS
10
6.2808646062992128
20
-3.5923164566929131
11
6.2883636614173231
21
-3.5960659842519682
0
LINE
8
BLACK
6
CONTINUOUS
10
6.2883636614173231
20
-3.5960659842519682
11
6.2921131889763782
21
-3.5998155118110233
0
LINE
8
BLACK
6
CONTINUOUS
10
6.2921131889763782
20
-3.5998155118110233
11
6.2958627165354333
21
-3.607314566929134
0
LINE
8
BLACK
6
CONTINUOUS
10
6.2958627165354333
20
-3.607314566929134
11
6.2958627165354333
21
-3.6148136220472442
0
LINE
8
BLACK
6
CONTINUOUS
10
6.2958627165354333
20
-3.6148136220472442
11
6.2921131889763782
21
-3.6260622047244095
0
LINE
8
BLACK
6
CONTINUOUS
10
6.2921131889763782
20
-3.6260622047244095
11
6.2471188188976381
21
-3.6710566141732284
0
LINE
8
BLACK
6
CONTINUOUS
10
6.2471188188976381
20
-3.6710566141732284
11
6.2958627165354333
21
-3.6710566141732284
0
LINE
8
BLACK
6
CONTINUOUS
10
6.3221094488188978
20
-3.5923164566929131
11
6.3746028740157481
21
-3.5923164566929131
0
LINE
8
BLACK
6
CONTINUOUS
10
6.3746028740157481
20
-3.5923164566929131
11
6.3408570866141734
21
-3.6710566141732284
0
LINE
8
BLACK
6
CONTINUOUS
10
6.4383449212598425
20
-3.5923164566929131
11
6.4233467716535433
21
-3.5923164566929131
0
LINE
8
BLACK
6
CONTINUOUS
10
6.4233467716535433
20
-3.5923164566929131
11
6.4158477165354331
21
-3.5960659842519682
0
LINE
8
BLACK
6
CONTINUOUS
10
6.4158477165354331
20
-3.5960659842519682
11
6.412098188976378
21
-3.5998155118110233
0
LINE
8
BLACK
6
CONTINUOUS
10
6.412098188976378
20
-3.5998155118110233
11
6.4045991338582677
21
-3.6110640944881891
0
LINE
8
BLACK
6
CONTINUOUS
10
6.4045991338582677
20
-3.6110640944881891
11
6.4008496062992126
21
-3.6260622047244095
0
LINE
8
BLACK
6
CONTINUOUS
10
6.4008496062992126
20
-3.6260622047244095
11
6.4008496062992126
21
-3.6560584645669292
0
LINE
8
BLACK
6
CONTINUOUS
10
6.4008496062992126
20
-3.6560584645669292
11
6.4045991338582677
21
-3.6635575196850394
0
LINE
8
BLACK
6
CONTINUOUS
10
6.4045991338582677
20
-3.6635575196850394
11
6.4083486614173228
21
-3.6673070866141733
0
LINE
8
BLACK
6
CONTINUOUS
10
6.4083486614173228
20
-3.6673070866141733
11
6.4158477165354331
21
-3.6710566141732284
0
LINE
8
BLACK
6
CONTINUOUS
10
6.4158477165354331
20
-3.6710566141732284
11
6.4308458661417323
21
-3.6710566141732284
0
LINE
8
BLACK
6
CONTINUOUS
10
6.4308458661417323
20
-3.6710566141732284
11
6.4383449212598425
21
-3.6673070866141733
0
LINE
8
BLACK
6
CONTINUOUS
10
6.4383449212598425
20
-3.6673070866141733
11
6.4420944488188976
21
-3.6635575196850394
0
LINE
8
BLACK
6
CONTINUOUS
10
6.4420944488188976
20
-3.6635575196850394
11
6.4458439763779527
21
-3.6560584645669292
0
LINE
8
BLACK
6
CONTINUOUS
10
6.4458439763779527
20
-3.6560584645669292
11
6.4458439763779527
21
-3.6373108267716536
0
LINE
8
BLACK
6
CONTINUOUS
10
6.4458439763779527
20
-3.6373108267716536
11
6.4420944488188976
21
-3.6298117716535434
0
LINE
8
BLACK
6
CONTINUOUS
10
6.4420944488188976
20
-3.6298117716535434
11
6.4383449212598425
21
-3.6260622047244095
0
LINE
8
BLACK
6
CONTINUOUS
10
6.4383449212598425
20
-3.6260622047244095
11
6.4308458661417323
21
-3.6223126771653544
0
LINE
8
BLACK
6
CONTINUOUS
10
6.4308458661417323
20
-3.6223126771653544
11
6.4158477165354331
21
-3.6223126771653544
0
LINE
8
BLACK
6
CONTINUOUS
10
6.4158477165354331
20
-3.6223126771653544
11
6.4083486614173228
21
-3.6260622047244095
0
LINE
8
BLACK
6
CONTINUOUS
10
6.4083486614173228
20
-3.6260622047244095
11
6.4045991338582677
21
-3.6298117716535434
0
LINE
8
BLACK
6
CONTINUOUS
10
6.4045991338582677
20
-3.6298117716535434
11
6.4008496062992126
21
-3.6373108267716536
0
LINE
8
BLACK
6
CONTINUOUS
10
6.4758402362204723
20
-3.5923164566929131
11
6.4758402362204723
21
-3.607314566929134
0
LINE
8
BLACK
6
CONTINUOUS
10
6.505836496062992
20
-3.5923164566929131
11
6.505836496062992
21
-3.607314566929134
0
LINE
8
BLACK
6
CONTINUOUS
10
6.6220720078740154
20
-3.7010528346456693
11
6.6183224409448815
21
-3.6973033070866141
0
LINE
8
BLACK
6
CONTINUOUS
10
6.6183224409448815
20
-3.6973033070866141
11
6.6108233858267713
21
-3.6860547244094488
0
LINE
8
BLACK
6
CONTINUOUS
10
6.6108233858267713
20
-3.6860547244094488
11
6.6070738582677162
21
-3.6785556692913386
0
LINE
8
BLACK
6
CONTINUOUS
10
6.6070738582677162
20
-3.6785556692913386
11
6.6033243307086611
21
-3.6673070866141733
0
LINE
8
BLACK
6
CONTINUOUS
10
6.6033243307086611
20
-3.6673070866141733
11
6.599574803149606
21
-3.648559409448819
0
LINE
8
BLACK
6
CONTINUOUS
10
6.599574803149606
20
-3.648559409448819
11
6.599574803149606
21
-3.6335612992125985
0
LINE
8
BLACK
6
CONTINUOUS
10
6.599574803149606
20
-3.6335612992125985
11
6.6033243307086611
21
-3.6148136220472442
0
LINE
8
BLACK
6
CONTINUOUS
10
6.6033243307086611
20
-3.6148136220472442
11
6.6070738582677162
21
-3.6035650393700784
0
LINE
8
BLACK
6
CONTINUOUS
10
6.6070738582677162
20
-3.6035650393700784
11
6.6108233858267713
21
-3.5960659842519682
0
LINE
8
BLACK
6
CONTINUOUS
10
6.6108233858267713
20
-3.5960659842519682
11
6.6183224409448815
21
-3.5848173622047241
0
LINE
8
BLACK
6
CONTINUOUS
10
6.6183224409448815
20
-3.5848173622047241
11
6.6220720078740154
21
-3.581067834645669
0
LINE
8
BLACK
6
CONTINUOUS
10
6.685814015748031
20
-3.6185631496062993
11
6.685814015748031
21
-3.6710566141732284
0
LINE
8
BLACK
6
CONTINUOUS
10
6.6670663385826767
20
-3.588566929133858
11
6.6483187007874012
21
-3.6448098818897638
0
LINE
8
BLACK
6
CONTINUOUS
10
6.6483187007874012
20
-3.6448098818897638
11
6.6970625984251964
21
-3.6448098818897638
0
LINE
8
BLACK
6
CONTINUOUS
10
6.7870513779527561
20
-3.6710566141732284
11
6.7870513779527561
21
-3.5923164566929131
0
LINE
8
BLACK
6
CONTINUOUS
10
6.8207971653543309
20
-3.6710566141732284
11
6.8207971653543309
21
-3.6298117716535434
0
LINE
8
BLACK
6
CONTINUOUS
10
6.8207971653543309
20
-3.6298117716535434
11
6.8170476377952758
21
-3.6223126771653544
0
LINE
8
BLACK
6
CONTINUOUS
10
6.8170476377952758
20
-3.6223126771653544
11
6.8095485826771656
21
-3.6185631496062993
0
LINE
8
BLACK
6
CONTINUOUS
10
6.8095485826771656
20
-3.6185631496062993
11
6.7982999606299215
21
-3.6185631496062993
0
LINE
8
BLACK
6
CONTINUOUS
10
6.7982999606299215
20
-3.6185631496062993
11
6.7908009055118113
21
-3.6223126771653544
0
LINE
8
BLACK
6
CONTINUOUS
10
6.7908009055118113
20
-3.6223126771653544
11
6.7870513779527561
21
-3.6260622047244095
0
LINE
8
BLACK
6
CONTINUOUS
10
6.8695410629921261
20
-3.6710566141732284
11
6.8620420078740159
21
-3.6673070866141733
0
LINE
8
BLACK
6
CONTINUOUS
10
6.8620420078740159
20
-3.6673070866141733
11
6.8582924803149607
21
-3.6635575196850394
0
LINE
8
BLACK
6
CONTINUOUS
10
6.8582924803149607
20
-3.6635575196850394
11
6.8545429527559056
21
-3.6560584645669292
0
LINE
8
BLACK
6
CONTINUOUS
10
6.8545429527559056
20
-3.6560584645669292
11
6.8545429527559056
21
-3.6335612992125985
0
LINE
8
BLACK
6
CONTINUOUS
10
6.8545429527559056
20
-3.6335612992125985
11
6.8582924803149607
21
-3.6260622047244095
0
LINE
8
BLACK
6
CONTINUOUS
10
6.8582924803149607
20
-3.6260622047244095
11
6.8620420078740159
21
-3.6223126771653544
0
LINE
8
BLACK
6
CONTINUOUS
10
6.8620420078740159
20
-3.6223126771653544
11
6.8695410629921261
21
-3.6185631496062993
0
LINE
8
BLACK
6
CONTINUOUS
10
6.8695410629921261
20
-3.6185631496062993
11
6.8807896850393702
21
-3.6185631496062993
0
LINE
8
BLACK
6
CONTINUOUS
10
6.8807896850393702
20
-3.6185631496062993
11
6.8882887401574804
21
-3.6223126771653544
0
LINE
8
BLACK
6
CONTINUOUS
10
6.8882887401574804
20
-3.6223126771653544
11
6.8920382677165355
21
-3.6260622047244095
0
LINE
8
BLACK
6
CONTINUOUS
10
6.8920382677165355
20
-3.6260622047244095
11
6.8957877952755906
21
-3.6335612992125985
0
LINE
8
BLACK
6
CONTINUOUS
10
6.8957877952755906
20
-3.6335612992125985
11
6.8957877952755906
21
-3.6560584645669292
0
LINE
8
BLACK
6
CONTINUOUS
10
6.8957877952755906
20
-3.6560584645669292
11
6.8920382677165355
21
-3.6635575196850394
0
LINE
8
BLACK
6
CONTINUOUS
10
6.8920382677165355
20
-3.6635575196850394
11
6.8882887401574804
21
-3.6673070866141733
0
LINE
8
BLACK
6
CONTINUOUS
10
6.8882887401574804
20
-3.6673070866141733
11
6.8807896850393702
21
-3.6710566141732284
0
LINE
8
BLACK
6
CONTINUOUS
10
6.8807896850393702
20
-3.6710566141732284
11
6.8695410629921261
21
-3.6710566141732284
0
LINE
8
BLACK
6
CONTINUOUS
10
6.9407821653543307
20
-3.6710566141732284
11
6.9332831102362205
21
-3.6673070866141733
0
LINE
8
BLACK
6
CONTINUOUS
10
6.9332831102362205
20
-3.6673070866141733
11
6.9295335826771653
21
-3.6598079921259843
0
LINE
8
BLACK
6
CONTINUOUS
10
6.9295335826771653
20
-3.6598079921259843
11
6.9295335826771653
21
-3.5923164566929131
0
LINE
8
BLACK
6
CONTINUOUS
10
7.0007746850393699
20
-3.6673070866141733
11
6.9932756299212597
21
-3.6710566141732284
0
LINE
8
BLACK
6
CONTINUOUS
10
6.9932756299212597
20
-3.6710566141732284
11
6.9782774803149605
21
-3.6710566141732284
0
LINE
8
BLACK
6
CONTINUOUS
10
6.9782774803149605
20
-3.6710566141732284
11
6.9707784251968503
21
-3.6673070866141733
0
LINE
8
BLACK
6
CONTINUOUS
10
6.9707784251968503
20
-3.6673070866141733
11
6.9670288976377952
21
-3.6598079921259843
0
LINE
8
BLACK
6
CONTINUOUS
10
6.9670288976377952
20
-3.6598079921259843
11
6.9670288976377952
21
-3.6298117716535434
0
LINE
8
BLACK
6
CONTINUOUS
10
6.9670288976377952
20
-3.6298117716535434
11
6.9707784251968503
21
-3.6223126771653544
0
LINE
8
BLACK
6
CONTINUOUS
10
6.9707784251968503
20
-3.6223126771653544
11
6.9782774803149605
21
-3.6185631496062993
0
LINE
8
BLACK
6
CONTINUOUS
10
6.9782774803149605
20
-3.6185631496062993
11
6.9932756299212597
21
-3.6185631496062993
0
LINE
8
BLACK
6
CONTINUOUS
10
6.9932756299212597
20
-3.6185631496062993
11
7.0007746850393699
21
-3.6223126771653544
0
LINE
8
BLACK
6
CONTINUOUS
10
7.0007746850393699
20
-3.6223126771653544
11
7.0045242125984251
21
-3.6298117716535434
0
LINE
8
BLACK
6
CONTINUOUS
10
7.0045242125984251
20
-3.6298117716535434
11
7.0045242125984251
21
-3.6373108267716536
0
LINE
8
BLACK
6
CONTINUOUS
10
7.0045242125984251
20
-3.6373108267716536
11
6.9670288976377952
21
-3.6448098818897638
0
LINE
8
BLACK
6
CONTINUOUS
10
7.0345204724409447
20
-3.6673070866141733
11
7.0420195275590549
21
-3.6710566141732284
0
LINE
8
BLACK
6
CONTINUOUS
10
7.0420195275590549
20
-3.6710566141732284
11
7.0570176377952754
21
-3.6710566141732284
0
LINE
8
BLACK
6
CONTINUOUS
10
7.0570176377952754
20
-3.6710566141732284
11
7.0645167322834643
21
-3.6673070866141733
0
LINE
8
BLACK
6
CONTINUOUS
10
7.0645167322834643
20
-3.6673070866141733
11
7.0682662598425194
21
-3.6598079921259843
0
LINE
8
BLACK
6
CONTINUOUS
10
7.0682662598425194
20
-3.6598079921259843
11
7.0682662598425194
21
-3.6560584645669292
0
LINE
8
BLACK
6
CONTINUOUS
10
7.0682662598425194
20
-3.6560584645669292
11
7.0645167322834643
21
-3.648559409448819
0
LINE
8
BLACK
6
CONTINUOUS
10
7.0645167322834643
20
-3.648559409448819
11
7.0570176377952754
21
-3.6448098818897638
0
LINE
8
BLACK
6
CONTINUOUS
10
7.0570176377952754
20
-3.6448098818897638
11
7.04576905511811
21
-3.6448098818897638
0
LINE
8
BLACK
6
CONTINUOUS
10
7.04576905511811
20
-3.6448098818897638
11
7.0382699999999998
21
-3.6410603543307087
0
LINE
8
BLACK
6
CONTINUOUS
10
7.0382699999999998
20
-3.6410603543307087
11
7.0345204724409447
21
-3.6335612992125985
0
LINE
8
BLACK
6
CONTINUOUS
10
7.0345204724409447
20
-3.6335612992125985
11
7.0345204724409447
21
-3.6298117716535434
0
LINE
8
BLACK
6
CONTINUOUS
10
7.0345204724409447
20
-3.6298117716535434
11
7.0382699999999998
21
-3.6223126771653544
0
LINE
8
BLACK
6
CONTINUOUS
10
7.0382699999999998
20
-3.6223126771653544
11
7.04576905511811
21
-3.6185631496062993
0
LINE
8
BLACK
6
CONTINUOUS
10
7.04576905511811
20
-3.6185631496062993
11
7.0570176377952754
21
-3.6185631496062993
0
LINE
8
BLACK
6
CONTINUOUS
10
7.0570176377952754
20
-3.6185631496062993
11
7.0645167322834643
21
-3.6223126771653544
0
LINE
8
BLACK
6
CONTINUOUS
10
7.094512992125984
20
-3.7010528346456693
11
7.0982625196850391
21
-3.6973033070866141
0
LINE
8
BLACK
6
CONTINUOUS
10
7.0982625196850391
20
-3.6973033070866141
11
7.1057615748031493
21
-3.6860547244094488
0
LINE
8
BLACK
6
CONTINUOUS
10
7.1057615748031493
20
-3.6860547244094488
11
7.1095111023622044
21
-3.6785556692913386
0
LINE
8
BLACK
6
CONTINUOUS
10
7.1095111023622044
20
-3.6785556692913386
11
7.1132606299212595
21
-3.6673070866141733
0
LINE
8
BLACK
6
CONTINUOUS
10
7.1132606299212595
20
-3.6673070866141733
11
7.1170101574803146
21
-3.648559409448819
0
LINE
8
BLACK
6
CONTINUOUS
10
7.1170101574803146
20
-3.648559409448819
11
7.1170101574803146
21
-3.6335612992125985
0
LINE
8
BLACK
6
CONTINUOUS
10
7.1170101574803146
20
-3.6335612992125985
11
7.1132606299212595
21
-3.6148136220472442
0
LINE
8
BLACK
6
CONTINUOUS
10
7.1132606299212595
20
-3.6148136220472442
11
7.1095111023622044
21
-3.6035650393700784
0
LINE
8
BLACK
6
CONTINUOUS
10
7.1095111023622044
20
-3.6035650393700784
11
7.1057615748031493
21
-3.5960659842519682
0
LINE
8
BLACK
6
CONTINUOUS
10
7.1057615748031493
20
-3.5960659842519682
11
7.0982625196850391
21
-3.5848173622047241
0
LINE
8
BLACK
6
CONTINUOUS
10
7.0982625196850391
20
-3.5848173622047241
11
7.094512992125984
21
-3.581067834645669
0
LINE
8
BLACK
6
CONTINUOUS
10
5.2099545275590549
20
-3.7501120078740158
11
5.2099545275590549
21
-3.7278407480314959
0
LINE
8
BLACK
6
CONTINUOUS
10
5.2099545275590549
20
-3.7278407480314959
11
5.187683267716535
21
-3.7278407480314959
0
LINE
8
BLACK
6
CONTINUOUS
10
5.187683267716535
20
-3.7278407480314959
11
5.187683267716535
21
-3.7501120078740158
0
LINE
8
BLACK
6
CONTINUOUS
10
5.187683267716535
20
-3.7501120078740158
11
5.2099545275590549
21
-3.7501120078740158
0
LINE
8
BLACK
6
CONTINUOUS
10
5.3322330708661418
20
-3.6962534645669289
11
5.3397321653543308
21
-3.6962534645669289
0
LINE
8
BLACK
6
CONTINUOUS
10
5.3397321653543308
20
-3.6962534645669289
11
5.347231220472441
21
-3.700002992125984
0
LINE
8
BLACK
6
CONTINUOUS
10
5.347231220472441
20
-3.700002992125984
11
5.3509807480314961
21
-3.7037525196850392
0
LINE
8
BLACK
6
CONTINUOUS
10
5.3509807480314961
20
-3.7037525196850392
11
5.3547302755905513
21
-3.7112515748031494
0
LINE
8
BLACK
6
CONTINUOUS
10
5.3547302755905513
20
-3.7112515748031494
11
5.3584798031496064
21
-3.7262496850393698
0
LINE
8
BLACK
6
CONTINUOUS
10
5.3584798031496064
20
-3.7262496850393698
11
5.3584798031496064
21
-3.7449973622047241
0
LINE
8
BLACK
6
CONTINUOUS
10
5.3584798031496064
20
-3.7449973622047241
11
5.3547302755905513
21
-3.759995472440945
0
LINE
8
BLACK
6
CONTINUOUS
10
5.3547302755905513
20
-3.759995472440945
11
5.3509807480314961
21
-3.7674945275590552
0
LINE
8
BLACK
6
CONTINUOUS
10
5.3509807480314961
20
-3.7674945275590552
11
5.347231220472441
21
-3.7712440944881891
0
LINE
8
BLACK
6
CONTINUOUS
10
5.347231220472441
20
-3.7712440944881891
11
5.3397321653543308
21
-3.7749936220472442
0
LINE
8
BLACK
6
CONTINUOUS
10
5.3397321653543308
20
-3.7749936220472442
11
5.3322330708661418
21
-3.7749936220472442
0
LINE
8
BLACK
6
CONTINUOUS
10
5.3322330708661418
20
-3.7749936220472442
11
5.3247340157480316
21
-3.7712440944881891
0
LINE
8
BLACK
6
CONTINUOUS
10
5.3247340157480316
20
-3.7712440944881891
11
5.3209844881889765
21
-3.7674945275590552
0
LINE
8
BLACK
6
CONTINUOUS
10
5.3209844881889765
20
-3.7674945275590552
11
5.3172349606299214
21
-3.759995472440945
0
LINE
8
BLACK
6
CONTINUOUS
10
5.3172349606299214
20
-3.759995472440945
11
5.3134854330708663
21
-3.7449973622047241
0
LINE
8
BLACK
6
CONTINUOUS
10
5.3134854330708663
20
-3.7449973622047241
11
5.3134854330708663
21
-3.7262496850393698
0
LINE
8
BLACK
6
CONTINUOUS
10
5.3134854330708663
20
-3.7262496850393698
11
5.3172349606299214
21
-3.7112515748031494
0
LINE
8
BLACK
6
CONTINUOUS
10
5.3172349606299214
20
-3.7112515748031494
11
5.3209844881889765
21
-3.7037525196850392
0
LINE
8
BLACK
6
CONTINUOUS
10
5.3209844881889765
20
-3.7037525196850392
11
5.3247340157480316
21
-3.700002992125984
0
LINE
8
BLACK
6
CONTINUOUS
10
5.3247340157480316
20
-3.700002992125984
11
5.3322330708661418
21
-3.6962534645669289
0
LINE
8
BLACK
6
CONTINUOUS
10
5.3922255905511811
20
-3.7674945275590552
11
5.3959751181102362
21
-3.7712440944881891
0
LINE
8
BLACK
6
CONTINUOUS
10
5.3959751181102362
20
-3.7712440944881891
11
5.3922255905511811
21
-3.7749936220472442
0
LINE
8
BLACK
6
CONTINUOUS
10
5.3922255905511811
20
-3.7749936220472442
11
5.388476062992126
21
-3.7712440944881891
0
LINE
8
BLACK
6
CONTINUOUS
10
5.388476062992126
20
-3.7712440944881891
11
5.3922255905511811
21
-3.7674945275590552
0
LINE
8
BLACK
6
CONTINUOUS
10
5.3922255905511811
20
-3.7674945275590552
11
5.3922255905511811
21
-3.7749936220472442
0
LINE
8
BLACK
6
CONTINUOUS
10
5.4409694881889763
20
-3.7299992125984249
11
5.4334704330708661
21
-3.7262496850393698
0
LINE
8
BLACK
6
CONTINUOUS
10
5.4334704330708661
20
-3.7262496850393698
11
5.429720905511811
21
-3.7225001574803147
0
LINE
8
BLACK
6
CONTINUOUS
10
5.429720905511811
20
-3.7225001574803147
11
5.4259713779527559
21
-3.7150011023622045
0
LINE
8
BLACK
6
CONTINUOUS
10
5.4259713779527559
20
-3.7150011023622045
11
5.4259713779527559
21
-3.7112515748031494
0
LINE
8
BLACK
6
CONTINUOUS
10
5.4259713779527559
20
-3.7112515748031494
11
5.429720905511811
21
-3.7037525196850392
0
LINE
8
BLACK
6
CONTINUOUS
10
5.429720905511811
20
-3.7037525196850392
11
5.4334704330708661
21
-3.700002992125984
0
LINE
8
BLACK
6
CONTINUOUS
10
5.4334704330708661
20
-3.700002992125984
11
5.4409694881889763
21
-3.6962534645669289
0
LINE
8
BLACK
6
CONTINUOUS
10
5.4409694881889763
20
-3.6962534645669289
11
5.4559676377952755
21
-3.6962534645669289
0
LINE
8
BLACK
6
CONTINUOUS
10
5.4559676377952755
20
-3.6962534645669289
11
5.4634666929133857
21
-3.700002992125984
0
LINE
8
BLACK
6
CONTINUOUS
10
5.4634666929133857
20
-3.700002992125984
11
5.4672162204724408
21
-3.7037525196850392
0
LINE
8
BLACK
6
CONTINUOUS
10
5.4672162204724408
20
-3.7037525196850392
11
5.4709657480314959
21
-3.7112515748031494
0
LINE
8
BLACK
6
CONTINUOUS
10
5.4709657480314959
20
-3.7112515748031494
11
5.4709657480314959
21
-3.7150011023622045
0
LINE
8
BLACK
6
CONTINUOUS
10
5.4709657480314959
20
-3.7150011023622045
11
5.4672162204724408
21
-3.7225001574803147
0
LINE
8
BLACK
6
CONTINUOUS
10
5.4672162204724408
20
-3.7225001574803147
11
5.4634666929133857
21
-3.7262496850393698
0
LINE
8
BLACK
6
CONTINUOUS
10
5.4634666929133857
20
-3.7262496850393698
11
5.4559676377952755
21
-3.7299992125984249
0
LINE
8
BLACK
6
CONTINUOUS
10
5.4559676377952755
20
-3.7299992125984249
11
5.4409694881889763
21
-3.7299992125984249
0
LINE
8
BLACK
6
CONTINUOUS
10
5.4409694881889763
20
-3.7299992125984249
11
5.4334704330708661
21
-3.7337487795275588
0
LINE
8
BLACK
6
CONTINUOUS
10
5.4334704330708661
20
-3.7337487795275588
11
5.429720905511811
21
-3.7374983070866139
0
LINE
8
BLACK
6
CONTINUOUS
10
5.429720905511811
20
-3.7374983070866139
11
5.4259713779527559
21
-3.7449973622047241
0
LINE
8
BLACK
6
CONTINUOUS
10
5.4259713779527559
20
-3.7449973622047241
11
5.4259713779527559
21
-3.759995472440945
0
LINE
8
BLACK
6
CONTINUOUS
10
5.4259713779527559
20
-3.759995472440945
11
5.429720905511811
21
-3.7674945275590552
0
LINE
8
BLACK
6
CONTINUOUS
10
5.429720905511811
20
-3.7674945275590552
11
5.4334704330708661
21
-3.7712440944881891
0
LINE
8
BLACK
6
CONTINUOUS
10
5.4334704330708661
20
-3.7712440944881891
11
5.4409694881889763
21
-3.7749936220472442
0
LINE
8
BLACK
6
CONTINUOUS
10
5.4409694881889763
20
-3.7749936220472442
11
5.4559676377952755
21
-3.7749936220472442
0
LINE
8
BLACK
6
CONTINUOUS
10
5.4559676377952755
20
-3.7749936220472442
11
5.4634666929133857
21
-3.7712440944881891
0
LINE
8
BLACK
6
CONTINUOUS
10
5.4634666929133857
20
-3.7712440944881891
11
5.4672162204724408
21
-3.7674945275590552
0
LINE
8
BLACK
6
CONTINUOUS
10
5.4672162204724408
20
-3.7674945275590552
11
5.4709657480314959
21
-3.759995472440945
0
LINE
8
BLACK
6
CONTINUOUS
10
5.4709657480314959
20
-3.759995472440945
11
5.4709657480314959
21
-3.7449973622047241
0
LINE
8
BLACK
6
CONTINUOUS
10
5.4709657480314959
20
-3.7449973622047241
11
5.4672162204724408
21
-3.7374983070866139
0
LINE
8
BLACK
6
CONTINUOUS
10
5.4672162204724408
20
-3.7374983070866139
11
5.4634666929133857
21
-3.7337487795275588
0
LINE
8
BLACK
6
CONTINUOUS
10
5.4634666929133857
20
-3.7337487795275588
11
5.4559676377952755
21
-3.7299992125984249
0
LINE
8
BLACK
6
CONTINUOUS
10
5.5197096456692911
20
-3.6962534645669289
11
5.5272087401574801
21
-3.6962534645669289
0
LINE
8
BLACK
6
CONTINUOUS
10
5.5272087401574801
20
-3.6962534645669289
11
5.5347077952755903
21
-3.700002992125984
0
LINE
8
BLACK
6
CONTINUOUS
10
5.5347077952755903
20
-3.700002992125984
11
5.5384573228346454
21
-3.7037525196850392
0
LINE
8
BLACK
6
CONTINUOUS
10
5.5384573228346454
20
-3.7037525196850392
11
5.5422068503937005
21
-3.7112515748031494
0
LINE
8
BLACK
6
CONTINUOUS
10
5.5422068503937005
20
-3.7112515748031494
11
5.5459563779527556
21
-3.7262496850393698
0
LINE
8
BLACK
6
CONTINUOUS
10
5.5459563779527556
20
-3.7262496850393698
11
5.5459563779527556
21
-3.7449973622047241
0
LINE
8
BLACK
6
CONTINUOUS
10
5.5459563779527556
20
-3.7449973622047241
11
5.5422068503937005
21
-3.759995472440945
0
LINE
8
BLACK
6
CONTINUOUS
10
5.5422068503937005
20
-3.759995472440945
11
5.5384573228346454
21
-3.7674945275590552
0
LINE
8
BLACK
6
CONTINUOUS
10
5.5384573228346454
20
-3.7674945275590552
11
5.5347077952755903
21
-3.7712440944881891
0
LINE
8
BLACK
6
CONTINUOUS
10
5.5347077952755903
20
-3.7712440944881891
11
5.5272087401574801
21
-3.7749936220472442
0
LINE
8
BLACK
6
CONTINUOUS
10
5.5272087401574801
20
-3.7749936220472442
11
5.5197096456692911
21
-3.7749936220472442
0
LINE
8
BLACK
6
CONTINUOUS
10
5.5197096456692911
20
-3.7749936220472442
11
5.5122105905511809
21
-3.7712440944881891
0
LINE
8
BLACK
6
CONTINUOUS
10
5.5122105905511809
20
-3.7712440944881891
11
5.5084610629921258
21
-3.7674945275590552
0
LINE
8
BLACK
6
CONTINUOUS
10
5.5084610629921258
20
-3.7674945275590552
11
5.5047115354330707
21
-3.759995472440945
0
LINE
8
BLACK
6
CONTINUOUS
10
5.5047115354330707
20
-3.759995472440945
11
5.5009620078740156
21
-3.7449973622047241
0
LINE
8
BLACK
6
CONTINUOUS
10
5.5009620078740156
20
-3.7449973622047241
11
5.5009620078740156
21
-3.7262496850393698
0
LINE
8
BLACK
6
CONTINUOUS
10
5.5009620078740156
20
-3.7262496850393698
11
5.5047115354330707
21
-3.7112515748031494
0
LINE
8
BLACK
6
CONTINUOUS
10
5.5047115354330707
20
-3.7112515748031494
11
5.5084610629921258
21
-3.7037525196850392
0
LINE
8
BLACK
6
CONTINUOUS
10
5.5084610629921258
20
-3.7037525196850392
11
5.5122105905511809
21
-3.700002992125984
0
LINE
8
BLACK
6
CONTINUOUS
10
5.5122105905511809
20
-3.700002992125984
11
5.5197096456692911
21
-3.6962534645669289
0
LINE
8
BLACK
6
CONTINUOUS
10
5.5947002755905508
20
-3.6962534645669289
11
5.6021993700787398
21
-3.6962534645669289
0
LINE
8
BLACK
6
CONTINUOUS
10
5.6021993700787398
20
-3.6962534645669289
11
5.60969842519685
21
-3.700002992125984
0
LINE
8
BLACK
6
CONTINUOUS
10
5.60969842519685
20
-3.700002992125984
11
5.6134479527559051
21
-3.7037525196850392
0
LINE
8
BLACK
6
CONTINUOUS
10
5.6134479527559051
20
-3.7037525196850392
11
5.6171974803149602
21
-3.7112515748031494
0
LINE
8
BLACK
6
CONTINUOUS
10
5.6171974803149602
20
-3.7112515748031494
11
5.6209470078740154
21
-3.7262496850393698
0
LINE
8
BLACK
6
CONTINUOUS
10
5.6209470078740154
20
-3.7262496850393698
11
5.6209470078740154
21
-3.7449973622047241
0
LINE
8
BLACK
6
CONTINUOUS
10
5.6209470078740154
20
-3.7449973622047241
11
5.6171974803149602
21
-3.759995472440945
0
LINE
8
BLACK
6
CONTINUOUS
10
5.6171974803149602
20
-3.759995472440945
11
5.6134479527559051
21
-3.7674945275590552
0
LINE
8
BLACK
6
CONTINUOUS
10
5.6134479527559051
20
-3.7674945275590552
11
5.60969842519685
21
-3.7712440944881891
0
LINE
8
BLACK
6
CONTINUOUS
10
5.60969842519685
20
-3.7712440944881891
11
5.6021993700787398
21
-3.7749936220472442
0
LINE
8
BLACK
6
CONTINUOUS
10
5.6021993700787398
20
-3.7749936220472442
11
5.5947002755905508
21
-3.7749936220472442
0
LINE
8
BLACK
6
CONTINUOUS
10
5.5947002755905508
20
-3.7749936220472442
11
5.5872012204724406
21
-3.7712440944881891
0
LINE
8
BLACK
6
CONTINUOUS
10
5.5872012204724406
20
-3.7712440944881891
11
5.5834516929133855
21
-3.7674945275590552
0
LINE
8
BLACK
6
CONTINUOUS
10
5.5834516929133855
20
-3.7674945275590552
11
5.5797021653543304
21
-3.759995472440945
0
LINE
8
BLACK
6
CONTINUOUS
10
5.5797021653543304
20
-3.759995472440945
11
5.5759526377952753
21
-3.7449973622047241
0
LINE
8
BLACK
6
CONTINUOUS
10
5.5759526377952753
20
-3.7449973622047241
11
5.5759526377952753
21
-3.7262496850393698
0
LINE
8
BLACK
6
CONTINUOUS
10
5.5759526377952753
20
-3.7262496850393698
11
5.5797021653543304
21
-3.7112515748031494
0
LINE
8
BLACK
6
CONTINUOUS
10
5.5797021653543304
20
-3.7112515748031494
11
5.5834516929133855
21
-3.7037525196850392
0
LINE
8
BLACK
6
CONTINUOUS
10
5.5834516929133855
20
-3.7037525196850392
11
5.5872012204724406
21
-3.700002992125984
0
LINE
8
BLACK
6
CONTINUOUS
10
5.5872012204724406
20
-3.700002992125984
11
5.5947002755905508
21
-3.6962534645669289
0
LINE
8
BLACK
6
CONTINUOUS
10
5.6546927952755901
20
-3.7749936220472442
11
5.6546927952755901
21
-3.7225001574803147
0
LINE
8
BLACK
6
CONTINUOUS
10
5.6546927952755901
20
-3.7299992125984249
11
5.6584423228346452
21
-3.7262496850393698
0
LINE
8
BLACK
6
CONTINUOUS
10
5.6584423228346452
20
-3.7262496850393698
11
5.6659413779527554
21
-3.7225001574803147
0
LINE
8
BLACK
6
CONTINUOUS
10
5.6659413779527554
20
-3.7225001574803147
11
5.6771899999999995
21
-3.7225001574803147
0
LINE
8
BLACK
6
CONTINUOUS
10
5.6771899999999995
20
-3.7225001574803147
11
5.6846890551181097
21
-3.7262496850393698
0
LINE
8
BLACK
6
CONTINUOUS
10
5.6846890551181097
20
-3.7262496850393698
11
5.6884385826771648
21
-3.7337487795275588
0
LINE
8
BLACK
6
CONTINUOUS
10
5.6884385826771648
20
-3.7337487795275588
11
5.6884385826771648
21
-3.7749936220472442
0
LINE
8
BLACK
6
CONTINUOUS
10
5.6884385826771648
20
-3.7337487795275588
11
5.69218811023622
21
-3.7262496850393698
0
LINE
8
BLACK
6
CONTINUOUS
10
5.69218811023622
20
-3.7262496850393698
11
5.6996871653543302
21
-3.7225001574803147
0
LINE
8
BLACK
6
CONTINUOUS
10
5.6996871653543302
20
-3.7225001574803147
11
5.7109357480314955
21
-3.7225001574803147
0
LINE
8
BLACK
6
CONTINUOUS
10
5.7109357480314955
20
-3.7225001574803147
11
5.7184348425196845
21
-3.7262496850393698
0
LINE
8
BLACK
6
CONTINUOUS
10
5.7184348425196845
20
-3.7262496850393698
11
5.7221843700787396
21
-3.7337487795275588
0
LINE
8
BLACK
6
CONTINUOUS
10
5.7221843700787396
20
-3.7337487795275588
11
5.7221843700787396
21
-3.7749936220472442
0
LINE
8
BLACK
6
CONTINUOUS
10
5.7596796850393703
20
-3.7749936220472442
11
5.7596796850393703
21
-3.7225001574803147
0
LINE
8
BLACK
6
CONTINUOUS
10
5.7596796850393703
20
-3.7299992125984249
11
5.7634292125984254
21
-3.7262496850393698
0
LINE
8
BLACK
6
CONTINUOUS
10
5.7634292125984254
20
-3.7262496850393698
11
5.7709282677165357
21
-3.7225001574803147
0
LINE
8
BLACK
6
CONTINUOUS
10
5.7709282677165357
20
-3.7225001574803147
11
5.7821768897637797
21
-3.7225001574803147
0
LINE
8
BLACK
6
CONTINUOUS
10
5.7821768897637797
20
-3.7225001574803147
11
5.78967594488189
21
-3.7262496850393698
0
LINE
8
BLACK
6
CONTINUOUS
10
5.78967594488189
20
-3.7262496850393698
11
5.7934254724409451
21
-3.7337487795275588
0
LINE
8
BLACK
6
CONTINUOUS
10
5.7934254724409451
20
-3.7337487795275588
11
5.7934254724409451
21
-3.7749936220472442
0
LINE
8
BLACK
6
CONTINUOUS
10
5.7934254724409451
20
-3.7337487795275588
11
5.7971750000000002
21
-3.7262496850393698
0
LINE
8
BLACK
6
CONTINUOUS
10
5.7971750000000002
20
-3.7262496850393698
11
5.8046740551181104
21
-3.7225001574803147
0
LINE
8
BLACK
6
CONTINUOUS
10
5.8046740551181104
20
-3.7225001574803147
11
5.8159226377952757
21
-3.7225001574803147
0
LINE
8
BLACK
6
CONTINUOUS
10
5.8159226377952757
20
-3.7225001574803147
11
5.8234217322834647
21
-3.7262496850393698
0
LINE
8
BLACK
6
CONTINUOUS
10
5.8234217322834647
20
-3.7262496850393698
11
5.8271712598425198
21
-3.7337487795275588
0
LINE
8
BLACK
6
CONTINUOUS
10
5.8271712598425198
20
-3.7337487795275588
11
5.8271712598425198
21
-3.7749936220472442
0
LINE
8
BLACK
6
CONTINUOUS
10
5.9809020472440944
20
-3.6925039370078738
11
5.9134105118110236
21
-3.7937412598425198
0
LINE
8
BLACK
6
CONTINUOUS
10
6.0821394094488186
20
-3.6962534645669289
11
6.0896385039370076
21
-3.6962534645669289
0
LINE
8
BLACK
6
CONTINUOUS
10
6.0896385039370076
20
-3.6962534645669289
11
6.0971375590551178
21
-3.700002992125984
0
LINE
8
BLACK
6
CONTINUOUS
10
6.0971375590551178
20
-3.700002992125984
11
6.1008870866141729
21
-3.7037525196850392
0
LINE
8
BLACK
6
CONTINUOUS
10
6.1008870866141729
20
-3.7037525196850392
11
6.104636614173228
21
-3.7112515748031494
0
LINE
8
BLACK
6
CONTINUOUS
10
6.104636614173228
20
-3.7112515748031494
11
6.1083861417322831
21
-3.7262496850393698
0
LINE
8
BLACK
6
CONTINUOUS
10
6.1083861417322831
20
-3.7262496850393698
11
6.1083861417322831
21
-3.7449973622047241
0
LINE
8
BLACK
6
CONTINUOUS
10
6.1083861417322831
20
-3.7449973622047241
11
6.104636614173228
21
-3.759995472440945
0
LINE
8
BLACK
6
CONTINUOUS
10
6.104636614173228
20
-3.759995472440945
11
6.1008870866141729
21
-3.7674945275590552
0
LINE
8
BLACK
6
CONTINUOUS
10
6.1008870866141729
20
-3.7674945275590552
11
6.0971375590551178
21
-3.7712440944881891
0
LINE
8
BLACK
6
CONTINUOUS
10
6.0971375590551178
20
-3.7712440944881891
11
6.0896385039370076
21
-3.7749936220472442
0
LINE
8
BLACK
6
CONTINUOUS
10
6.0896385039370076
20
-3.7749936220472442
11
6.0821394094488186
21
-3.7749936220472442
0
LINE
8
BLACK
6
CONTINUOUS
10
6.0821394094488186
20
-3.7749936220472442
11
6.0746403543307084
21
-3.7712440944881891
0
LINE
8
BLACK
6
CONTINUOUS
10
6.0746403543307084
20
-3.7712440944881891
11
6.0708908267716533
21
-3.7674945275590552
0
LINE
8
BLACK
6
CONTINUOUS
10
6.0708908267716533
20
-3.7674945275590552
11
6.0671412992125981
21
-3.759995472440945
0
LINE
8
BLACK
6
CONTINUOUS
10
6.0671412992125981
20
-3.759995472440945
11
6.063391771653543
21
-3.7449973622047241
0
LINE
8
BLACK
6
CONTINUOUS
10
6.063391771653543
20
-3.7449973622047241
11
6.063391771653543
21
-3.7262496850393698
0
LINE
8
BLACK
6
CONTINUOUS
10
6.063391771653543
20
-3.7262496850393698
11
6.0671412992125981
21
-3.7112515748031494
0
LINE
8
BLACK
6
CONTINUOUS
10
6.0671412992125981
20
-3.7112515748031494
11
6.0708908267716533
21
-3.7037525196850392
0
LINE
8
BLACK
6
CONTINUOUS
10
6.0708908267716533
20
-3.7037525196850392
11
6.0746403543307084
21
-3.700002992125984
0
LINE
8
BLACK
6
CONTINUOUS
10
6.0746403543307084
20
-3.700002992125984
11
6.0821394094488186
21
-3.6962534645669289
0
LINE
8
BLACK
6
CONTINUOUS
10
6.1421319291338579
20
-3.7674945275590552
11
6.145881456692913
21
-3.7712440944881891
0
LINE
8
BLACK
6
CONTINUOUS
10
6.145881456692913
20
-3.7712440944881891
11
6.1421319291338579
21
-3.7749936220472442
0
LINE
8
BLACK
6
CONTINUOUS
10
6.1421319291338579
20
-3.7749936220472442
11
6.1383824015748027
21
-3.7712440944881891
0
LINE
8
BLACK
6
CONTINUOUS
10
6.1383824015748027
20
-3.7712440944881891
11
6.1421319291338579
21
-3.7674945275590552
0
LINE
8
BLACK
6
CONTINUOUS
10
6.1421319291338579
20
-3.7674945275590552
11
6.1421319291338579
21
-3.7749936220472442
0
LINE
8
BLACK
6
CONTINUOUS
10
6.1946253543307082
20
-3.6962534645669289
11
6.2021244488188971
21
-3.6962534645669289
0
LINE
8
BLACK
6
CONTINUOUS
10
6.2021244488188971
20
-3.6962534645669289
11
6.2096235039370073
21
-3.700002992125984
0
LINE
8
BLACK
6
CONTINUOUS
10
6.2096235039370073
20
-3.700002992125984
11
6.2133730314960625
21
-3.7037525196850392
0
LINE
8
BLACK
6
CONTINUOUS
10
6.2133730314960625
20
-3.7037525196850392
11
6.2171225590551176
21
-3.7112515748031494
0
LINE
8
BLACK
6
CONTINUOUS
10
6.2171225590551176
20
-3.7112515748031494
11
6.2208720866141727
21
-3.7262496850393698
0
LINE
8
BLACK
6
CONTINUOUS
10
6.2208720866141727
20
-3.7262496850393698
11
6.2208720866141727
21
-3.7449973622047241
0
LINE
8
BLACK
6
CONTINUOUS
10
6.2208720866141727
20
-3.7449973622047241
11
6.2171225590551176
21
-3.759995472440945
0
LINE
8
BLACK
6
CONTINUOUS
10
6.2171225590551176
20
-3.759995472440945
11
6.2133730314960625
21
-3.7674945275590552
0
LINE
8
BLACK
6
CONTINUOUS
10
6.2133730314960625
20
-3.7674945275590552
11
6.2096235039370073
21
-3.7712440944881891
0
LINE
8
BLACK
6
CONTINUOUS
10
6.2096235039370073
20
-3.7712440944881891
11
6.2021244488188971
21
-3.7749936220472442
0
LINE
8
BLACK
6
CONTINUOUS
10
6.2021244488188971
20
-3.7749936220472442
11
6.1946253543307082
21
-3.7749936220472442
0
LINE
8
BLACK
6
CONTINUOUS
10
6.1946253543307082
20
-3.7749936220472442
11
6.1871262992125979
21
-3.7712440944881891
0
LINE
8
BLACK
6
CONTINUOUS
10
6.1871262992125979
20
-3.7712440944881891
11
6.1833767716535428
21
-3.7674945275590552
0
LINE
8
BLACK
6
CONTINUOUS
10
6.1833767716535428
20
-3.7674945275590552
11
6.1796272440944877
21
-3.759995472440945
0
LINE
8
BLACK
6
CONTINUOUS
10
6.1796272440944877
20
-3.759995472440945
11
6.1758777165354326
21
-3.7449973622047241
0
LINE
8
BLACK
6
CONTINUOUS
10
6.1758777165354326
20
-3.7449973622047241
11
6.1758777165354326
21
-3.7262496850393698
0
LINE
8
BLACK
6
CONTINUOUS
10
6.1758777165354326
20
-3.7262496850393698
11
6.1796272440944877
21
-3.7112515748031494
0
LINE
8
BLACK
6
CONTINUOUS
10
6.1796272440944877
20
-3.7112515748031494
11
6.1833767716535428
21
-3.7037525196850392
0
LINE
8
BLACK
6
CONTINUOUS
10
6.1833767716535428
20
-3.7037525196850392
11
6.1871262992125979
21
-3.700002992125984
0
LINE
8
BLACK
6
CONTINUOUS
10
6.1871262992125979
20
-3.700002992125984
11
6.1946253543307082
21
-3.6962534645669289
0
LINE
8
BLACK
6
CONTINUOUS
10
6.2471188188976381
20
-3.6962534645669289
11
6.2958627165354333
21
-3.6962534645669289
0
LINE
8
BLACK
6
CONTINUOUS
10
6.2958627165354333
20
-3.6962534645669289
11
6.2696159842519688
21
-3.7262496850393698
0
LINE
8
BLACK
6
CONTINUOUS
10
6.2696159842519688
20
-3.7262496850393698
11
6.2808646062992128
21
-3.7262496850393698
0
LINE
8
BLACK
6
CONTINUOUS
10
6.2808646062992128
20
-3.7262496850393698
11
6.2883636614173231
21
-3.7299992125984249
0
LINE
8
BLACK
6
CONTINUOUS
10
6.2883636614173231
20
-3.7299992125984249
11
6.2921131889763782
21
-3.7337487795275588
0
LINE
8
BLACK
6
CONTINUOUS
10
6.2921131889763782
20
-3.7337487795275588
11
6.2958627165354333
21
-3.741247834645669
0
LINE
8
BLACK
6
CONTINUOUS
10
6.2958627165354333
20
-3.741247834645669
11
6.2958627165354333
21
-3.759995472440945
0
LINE
8
BLACK
6
CONTINUOUS
10
6.2958627165354333
20
-3.759995472440945
11
6.2921131889763782
21
-3.7674945275590552
0
LINE
8
BLACK
6
CONTINUOUS
10
6.2921131889763782
20
-3.7674945275590552
11
6.2883636614173231
21
-3.7712440944881891
0
LINE
8
BLACK
6
CONTINUOUS
10
6.2883636614173231
20
-3.7712440944881891
11
6.2808646062992128
21
-3.7749936220472442
0
LINE
8
BLACK
6
CONTINUOUS
10
6.2808646062992128
20
-3.7749936220472442
11
6.2583674015748034
21
-3.7749936220472442
0
LINE
8
BLACK
6
CONTINUOUS
10
6.2583674015748034
20
-3.7749936220472442
11
6.2508683464566932
21
-3.7712440944881891
0
LINE
8
BLACK
6
CONTINUOUS
10
6.2508683464566932
20
-3.7712440944881891
11
6.2471188188976381
21
-3.7674945275590552
0
LINE
8
BLACK
6
CONTINUOUS
10
6.370853346456693
20
-3.7749936220472442
11
6.3258589763779529
21
-3.7749936220472442
0
LINE
8
BLACK
6
CONTINUOUS
10
6.3483561417322836
20
-3.7749936220472442
11
6.3483561417322836
21
-3.6962534645669289
0
LINE
8
BLACK
6
CONTINUOUS
10
6.3483561417322836
20
-3.6962534645669289
11
6.3408570866141734
21
-3.7075020472440943
0
LINE
8
BLACK
6
CONTINUOUS
10
6.3408570866141734
20
-3.7075020472440943
11
6.3333580314960631
21
-3.7150011023622045
0
LINE
8
BLACK
6
CONTINUOUS
10
6.3333580314960631
20
-3.7150011023622045
11
6.3258589763779529
21
-3.7187506299212596
0
LINE
8
BLACK
6
CONTINUOUS
10
6.4420944488188976
20
-3.6962534645669289
11
6.4045991338582677
21
-3.6962534645669289
0
LINE
8
BLACK
6
CONTINUOUS
10
6.4045991338582677
20
-3.6962534645669289
11
6.4008496062992126
21
-3.7337487795275588
0
LINE
8
BLACK
6
CONTINUOUS
10
6.4008496062992126
20
-3.7337487795275588
11
6.4045991338582677
21
-3.7299992125984249
0
LINE
8
BLACK
6
CONTINUOUS
10
6.4045991338582677
20
-3.7299992125984249
11
6.412098188976378
21
-3.7262496850393698
0
LINE
8
BLACK
6
CONTINUOUS
10
6.412098188976378
20
-3.7262496850393698
11
6.4308458661417323
21
-3.7262496850393698
0
LINE
8
BLACK
6
CONTINUOUS
10
6.4308458661417323
20
-3.7262496850393698
11
6.4383449212598425
21
-3.7299992125984249
0
LINE
8
BLACK
6
CONTINUOUS
10
6.4383449212598425
20
-3.7299992125984249
11
6.4420944488188976
21
-3.7337487795275588
0
LINE
8
BLACK
6
CONTINUOUS
10
6.4420944488188976
20
-3.7337487795275588
11
6.4458439763779527
21
-3.741247834645669
0
LINE
8
BLACK
6
CONTINUOUS
10
6.4458439763779527
20
-3.741247834645669
11
6.4458439763779527
21
-3.759995472440945
0
LINE
8
BLACK
6
CONTINUOUS
10
6.4458439763779527
20
-3.759995472440945
11
6.4420944488188976
21
-3.7674945275590552
0
LINE
8
BLACK
6
CONTINUOUS
10
6.4420944488188976
20
-3.7674945275590552
11
6.4383449212598425
21
-3.7712440944881891
0
LINE
8
BLACK
6
CONTINUOUS
10
6.4383449212598425
20
-3.7712440944881891
11
6.4308458661417323
21
-3.7749936220472442
0
LINE
8
BLACK
6
CONTINUOUS
10
6.4308458661417323
20
-3.7749936220472442
11
6.412098188976378
21
-3.7749936220472442
0
LINE
8
BLACK
6
CONTINUOUS
10
6.412098188976378
20
-3.7749936220472442
11
6.4045991338582677
21
-3.7712440944881891
0
LINE
8
BLACK
6
CONTINUOUS
10
6.4045991338582677
20
-3.7712440944881891
11
6.4008496062992126
21
-3.7674945275590552
0
LINE
8
BLACK
6
CONTINUOUS
10
6.4758402362204723
20
-3.6962534645669289
11
6.4758402362204723
21
-3.7112515748031494
0
LINE
8
BLACK
6
CONTINUOUS
10
6.505836496062992
20
-3.6962534645669289
11
6.505836496062992
21
-3.7112515748031494
0
LINE
8
BLACK
6
CONTINUOUS
10
6.6220720078740154
20
-3.8049898425196851
11
6.6183224409448815
21
-3.80124031496063
0
LINE
8
BLACK
6
CONTINUOUS
10
6.6183224409448815
20
-3.80124031496063
11
6.6108233858267713
21
-3.7899917322834646
0
LINE
8
BLACK
6
CONTINUOUS
10
6.6108233858267713
20
-3.7899917322834646
11
6.6070738582677162
21
-3.7824926771653544
0
LINE
8
BLACK
6
CONTINUOUS
10
6.6070738582677162
20
-3.7824926771653544
11
6.6033243307086611
21
-3.7712440944881891
0
LINE
8
BLACK
6
CONTINUOUS
10
6.6033243307086611
20
-3.7712440944881891
11
6.599574803149606
21
-3.7524964173228343
0
LINE
8
BLACK
6
CONTINUOUS
10
6.599574803149606
20
-3.7524964173228343
11
6.599574803149606
21
-3.7374983070866139
0
LINE
8
BLACK
6
CONTINUOUS
10
6.599574803149606
20
-3.7374983070866139
11
6.6033243307086611
21
-3.7187506299212596
0
LINE
8
BLACK
6
CONTINUOUS
10
6.6033243307086611
20
-3.7187506299212596
11
6.6070738582677162
21
-3.7075020472440943
0
LINE
8
BLACK
6
CONTINUOUS
10
6.6070738582677162
20
-3.7075020472440943
11
6.6108233858267713
21
-3.700002992125984
0
LINE
8
BLACK
6
CONTINUOUS
10
6.6108233858267713
20
-3.700002992125984
11
6.6183224409448815
21
-3.68875437007874
0
LINE
8
BLACK
6
CONTINUOUS
10
6.6183224409448815
20
-3.68875437007874
11
6.6220720078740154
21
-3.6850048425196849
0
LINE
8
BLACK
6
CONTINUOUS
10
6.6483187007874012
20
-3.7037525196850392
11
6.6520682283464563
21
-3.700002992125984
0
LINE
8
BLACK
6
CONTINUOUS
10
6.6520682283464563
20
-3.700002992125984
11
6.6595672834645665
21
-3.6962534645669289
0
LINE
8
BLACK
6
CONTINUOUS
10
6.6595672834645665
20
-3.6962534645669289
11
6.6783149606299208
21
-3.6962534645669289
0
LINE
8
BLACK
6
CONTINUOUS
10
6.6783149606299208
20
-3.6962534645669289
11
6.685814015748031
21
-3.700002992125984
0
LINE
8
BLACK
6
CONTINUOUS
10
6.685814015748031
20
-3.700002992125984
11
6.6895635433070861
21
-3.7037525196850392
0
LINE
8
BLACK
6
CONTINUOUS
10
6.6895635433070861
20
-3.7037525196850392
11
6.6933130708661412
21
-3.7112515748031494
0
LINE
8
BLACK
6
CONTINUOUS
10
6.6933130708661412
20
-3.7112515748031494
11
6.6933130708661412
21
-3.7187506299212596
0
LINE
8
BLACK
6
CONTINUOUS
10
6.6933130708661412
20
-3.7187506299212596
11
6.6895635433070861
21
-3.7299992125984249
0
LINE
8
BLACK
6
CONTINUOUS
10
6.6895635433070861
20
-3.7299992125984249
11
6.6445691732283461
21
-3.7749936220472442
0
LINE
8
BLACK
6
CONTINUOUS
10
6.6445691732283461
20
-3.7749936220472442
11
6.6933130708661412
21
-3.7749936220472442
0
LINE
8
BLACK
6
CONTINUOUS
10
6.7870513779527561
20
-3.7749936220472442
11
6.7870513779527561
21
-3.6962534645669289
0
LINE
8
BLACK
6
CONTINUOUS
10
6.8207971653543309
20
-3.7749936220472442
11
6.8207971653543309
21
-3.7337487795275588
0
LINE
8
BLACK
6
CONTINUOUS
10
6.8207971653543309
20
-3.7337487795275588
11
6.8170476377952758
21
-3.7262496850393698
0
LINE
8
BLACK
6
CONTINUOUS
10
6.8170476377952758
20
-3.7262496850393698
11
6.8095485826771656
21
-3.7225001574803147
0
LINE
8
BLACK
6
CONTINUOUS
10
6.8095485826771656
20
-3.7225001574803147
11
6.7982999606299215
21
-3.7225001574803147
0
LINE
8
BLACK
6
CONTINUOUS
10
6.7982999606299215
20
-3.7225001574803147
11
6.7908009055118113
21
-3.7262496850393698
0
LINE
8
BLACK
6
CONTINUOUS
10
6.7908009055118113
20
-3.7262496850393698
11
6.7870513779527561
21
-3.7299992125984249
0
LINE
8
BLACK
6
CONTINUOUS
10
6.8695410629921261
20
-3.7749936220472442
11
6.8620420078740159
21
-3.7712440944881891
0
LINE
8
BLACK
6
CONTINUOUS
10
6.8620420078740159
20
-3.7712440944881891
11
6.8582924803149607
21
-3.7674945275590552
0
LINE
8
BLACK
6
CONTINUOUS
10
6.8582924803149607
20
-3.7674945275590552
11
6.8545429527559056
21
-3.759995472440945
0
LINE
8
BLACK
6
CONTINUOUS
10
6.8545429527559056
20
-3.759995472440945
11
6.8545429527559056
21
-3.7374983070866139
0
LINE
8
BLACK
6
CONTINUOUS
10
6.8545429527559056
20
-3.7374983070866139
11
6.8582924803149607
21
-3.7299992125984249
0
LINE
8
BLACK
6
CONTINUOUS
10
6.8582924803149607
20
-3.7299992125984249
11
6.8620420078740159
21
-3.7262496850393698
0
LINE
8
BLACK
6
CONTINUOUS
10
6.8620420078740159
20
-3.7262496850393698
11
6.8695410629921261
21
-3.7225001574803147
0
LINE
8
BLACK
6
CONTINUOUS
10
6.8695410629921261
20
-3.7225001574803147
11
6.8807896850393702
21
-3.7225001574803147
0
LINE
8
BLACK
6
CONTINUOUS
10
6.8807896850393702
20
-3.7225001574803147
11
6.8882887401574804
21
-3.7262496850393698
0
LINE
8
BLACK
6
CONTINUOUS
10
6.8882887401574804
20
-3.7262496850393698
11
6.8920382677165355
21
-3.7299992125984249
0
LINE
8
BLACK
6
CONTINUOUS
10
6.8920382677165355
20
-3.7299992125984249
11
6.8957877952755906
21
-3.7374983070866139
0
LINE
8
BLACK
6
CONTINUOUS
10
6.8957877952755906
20
-3.7374983070866139
11
6.8957877952755906
21
-3.759995472440945
0
LINE
8
BLACK
6
CONTINUOUS
10
6.8957877952755906
20
-3.759995472440945
11
6.8920382677165355
21
-3.7674945275590552
0
LINE
8
BLACK
6
CONTINUOUS
10
6.8920382677165355
20
-3.7674945275590552
11
6.8882887401574804
21
-3.7712440944881891
0
LINE
8
BLACK
6
CONTINUOUS
10
6.8882887401574804
20
-3.7712440944881891
11
6.8807896850393702
21
-3.7749936220472442
0
LINE
8
BLACK
6
CONTINUOUS
10
6.8807896850393702
20
-3.7749936220472442
11
6.8695410629921261
21
-3.7749936220472442
0
LINE
8
BLACK
6
CONTINUOUS
10
6.9407821653543307
20
-3.7749936220472442
11
6.9332831102362205
21
-3.7712440944881891
0
LINE
8
BLACK
6
CONTINUOUS
10
6.9332831102362205
20
-3.7712440944881891
11
6.9295335826771653
21
-3.7637450000000001
0
LINE
8
BLACK
6
CONTINUOUS
10
6.9295335826771653
20
-3.7637450000000001
11
6.9295335826771653
21
-3.6962534645669289
0
LINE
8
BLACK
6
CONTINUOUS
10
7.0007746850393699
20
-3.7712440944881891
11
6.9932756299212597
21
-3.7749936220472442
0
LINE
8
BLACK
6
CONTINUOUS
10
6.9932756299212597
20
-3.7749936220472442
11
6.9782774803149605
21
-3.7749936220472442
0
LINE
8
BLACK
6
CONTINUOUS
10
6.9782774803149605
20
-3.7749936220472442
11
6.9707784251968503
21
-3.7712440944881891
0
LINE
8
BLACK
6
CONTINUOUS
10
6.9707784251968503
20
-3.7712440944881891
11
6.9670288976377952
21
-3.7637450000000001
0
LINE
8
BLACK
6
CONTINUOUS
10
6.9670288976377952
20
-3.7637450000000001
11
6.9670288976377952
21
-3.7337487795275588
0
LINE
8
BLACK
6
CONTINUOUS
10
6.9670288976377952
20
-3.7337487795275588
11
6.9707784251968503
21
-3.7262496850393698
0
LINE
8
BLACK
6
CONTINUOUS
10
6.9707784251968503
20
-3.7262496850393698
11
6.9782774803149605
21
-3.7225001574803147
0
LINE
8
BLACK
6
CONTINUOUS
10
6.9782774803149605
20
-3.7225001574803147
11
6.9932756299212597
21
-3.7225001574803147
0
LINE
8
BLACK
6
CONTINUOUS
10
6.9932756299212597
20
-3.7225001574803147
11
7.0007746850393699
21
-3.7262496850393698
0
LINE
8
BLACK
6
CONTINUOUS
10
7.0007746850393699
20
-3.7262496850393698
11
7.0045242125984251
21
-3.7337487795275588
0
LINE
8
BLACK
6
CONTINUOUS
10
7.0045242125984251
20
-3.7337487795275588
11
7.0045242125984251
21
-3.741247834645669
0
LINE
8
BLACK
6
CONTINUOUS
10
7.0045242125984251
20
-3.741247834645669
11
6.9670288976377952
21
-3.7487468897637792
0
LINE
8
BLACK
6
CONTINUOUS
10
7.0345204724409447
20
-3.7712440944881891
11
7.0420195275590549
21
-3.7749936220472442
0
LINE
8
BLACK
6
CONTINUOUS
10
7.0420195275590549
20
-3.7749936220472442
11
7.0570176377952754
21
-3.7749936220472442
0
LINE
8
BLACK
6
CONTINUOUS
10
7.0570176377952754
20
-3.7749936220472442
11
7.0645167322834643
21
-3.7712440944881891
0
LINE
8
BLACK
6
CONTINUOUS
10
7.0645167322834643
20
-3.7712440944881891
11
7.0682662598425194
21
-3.7637450000000001
0
LINE
8
BLACK
6
CONTINUOUS
10
7.0682662598425194
20
-3.7637450000000001
11
7.0682662598425194
21
-3.759995472440945
0
LINE
8
BLACK
6
CONTINUOUS
10
7.0682662598425194
20
-3.759995472440945
11
7.0645167322834643
21
-3.7524964173228343
0
LINE
8
BLACK
6
CONTINUOUS
10
7.0645167322834643
20
-3.7524964173228343
11
7.0570176377952754
21
-3.7487468897637792
0
LINE
8
BLACK
6
CONTINUOUS
10
7.0570176377952754
20
-3.7487468897637792
11
7.04576905511811
21
-3.7487468897637792
0
LINE
8
BLACK
6
CONTINUOUS
10
7.04576905511811
20
-3.7487468897637792
11
7.0382699999999998
21
-3.7449973622047241
0
LINE
8
BLACK
6
CONTINUOUS
10
7.0382699999999998
20
-3.7449973622047241
11
7.0345204724409447
21
-3.7374983070866139
0
LINE
8
BLACK
6
CONTINUOUS
10
7.0345204724409447
20
-3.7374983070866139
11
7.0345204724409447
21
-3.7337487795275588
0
LINE
8
BLACK
6
CONTINUOUS
10
7.0345204724409447
20
-3.7337487795275588
11
7.0382699999999998
21
-3.7262496850393698
0
LINE
8
BLACK
6
CONTINUOUS
10
7.0382699999999998
20
-3.7262496850393698
11
7.04576905511811
21
-3.7225001574803147
0
LINE
8
BLACK
6
CONTINUOUS
10
7.04576905511811
20
-3.7225001574803147
11
7.0570176377952754
21
-3.7225001574803147
0
LINE
8
BLACK
6
CONTINUOUS
10
7.0570176377952754
20
-3.7225001574803147
11
7.0645167322834643
21
-3.7262496850393698
0
LINE
8
BLACK
6
CONTINUOUS
10
7.094512992125984
20
-3.8049898425196851
11
7.0982625196850391
21
-3.80124031496063
0
LINE
8
BLACK
6
CONTINUOUS
10
7.0982625196850391
20
-3.80124031496063
11
7.1057615748031493
21
-3.7899917322834646
0
LINE
8
BLACK
6
CONTINUOUS
10
7.1057615748031493
20
-3.7899917322834646
11
7.1095111023622044
21
-3.7824926771653544
0
LINE
8
BLACK
6
CONTINUOUS
10
7.1095111023622044
20
-3.7824926771653544
11
7.1132606299212595
21
-3.7712440944881891
0
LINE
8
BLACK
6
CONTINUOUS
10
7.1132606299212595
20
-3.7712440944881891
11
7.1170101574803146
21
-3.7524964173228343
0
LINE
8
BLACK
6
CONTINUOUS
10
7.1170101574803146
20
-3.7524964173228343
11
7.1170101574803146
21
-3.7374983070866139
0
LINE
8
BLACK
6
CONTINUOUS
10
7.1170101574803146
20
-3.7374983070866139
11
7.1132606299212595
21
-3.7187506299212596
0
LINE
8
BLACK
6
CONTINUOUS
10
7.1132606299212595
20
-3.7187506299212596
11
7.1095111023622044
21
-3.7075020472440943
0
LINE
8
BLACK
6
CONTINUOUS
10
7.1095111023622044
20
-3.7075020472440943
11
7.1057615748031493
21
-3.700002992125984
0
LINE
8
BLACK
6
CONTINUOUS
10
7.1057615748031493
20
-3.700002992125984
11
7.0982625196850391
21
-3.68875437007874
0
LINE
8
BLACK
6
CONTINUOUS
10
7.0982625196850391
20
-3.68875437007874
11
7.094512992125984
21
-3.6850048425196849
  0
ENDSEC
  0
EOF
