  0
SECTION
  2
HEADER
  9
$ANGBASE
  50
0.0
  9
$ANGDIR
  70
1
  9
$MEASUREMENT
  70
0
  0
ENDSEC
  0
SECTION
  2
TABLES
  0
TABLE
  2
LTYPE
  70
4
  0
LTYPE
  5
40F
  2
CONTINUOUS
  70
0
  3
Solid line
  72
65
  73
0
  40
0.0
  0
LTYPE
  5
410
  2
DASHDOT
 70
0
  3
Dash Dot ____ _ ____ _
 72
65
 73
4
 40
2.0
 49
1.25
 49
-0.25
 49
0.25
 49
-0.25
  0
LTYPE
  5
411
  2
DASHED
 70
0
  3
Dashed __ __ __ __ __
 72
65
 73
2
 40
0.75
 49
0.5
 49
-0.25
  0
LTYPE
  5
43B
  2
DOTTED
 70
0
  3
Dotted .  .  .  .
 72
65
 73
2
 40
0.2
 49
0.0
 49
-0.2
  0
ENDTAB
  0
TABLE
  2
STYLE
  70
4
  0
STYLE
  2
KICAD
  70
0
  40
0
  41
1
  42
1
  50
0
  71
0
  3
isocp.shx
  0
STYLE
  2
KICADB
  70
0
  40
0
  41
1
  42
1
  50
0
  71
0
  3
isocp.shx
  0
STYLE
  2
KICADI
  70
0
  40
0
  41
1
  42
1
  50
15
  71
0
  3
isocp.shx
  0
STYLE
  2
KICADBI
  70
0
  40
0
  41
1
  42
1
  50
15
  71
0
  3
isocp.shx
  0
ENDTAB
  0
TABLE
  2
LAYER
  70
1
  0
LAYER
  2
BLACK
  70
0
  62
7
  6
CONTINUOUS
  0
ENDTAB
  0
ENDSEC
  0
SECTION
  2
ENTITIES
0
LINE
8
BLACK
6
CONTINUOUS
10
6.4763779527559056
20
-3.1727451574803149
11
6.4763779527559056
21
-0.7878847244094488
0
LINE
8
BLACK
6
CONTINUOUS
10
5.2165844488188977
20
-3.1732176771653542
11
5.2170175984251967
21
-3.1732283070866143
0
LINE
8
BLACK
6
CONTINUOUS
10
5.2165460629921263
20
-0.7874505905511811
11
5.2165354330708658
21
-0.7878837401574803
0
LINE
8
BLACK
6
CONTINUOUS
10
6.475894763779527
20
-0.7874015748031495
11
5.2170185826771656
21
-0.7874015748031495
0
LINE
8
BLACK
6
CONTINUOUS
10
5.2170185826771656
20
-3.173228346456693
11
6.475894763779527
21
-3.173228346456693
0
LINE
8
BLACK
6
CONTINUOUS
10
6.4758957480314958
20
-3.1732283070866143
11
6.4763288976377948
21
-3.1732176771653542
0
LINE
8
BLACK
6
CONTINUOUS
10
5.2165354330708658
20
-0.7878847244094488
11
5.2165354330708658
21
-3.1727451574803149
0
LINE
8
BLACK
6
CONTINUOUS
10
6.4763779133858268
20
-0.7878837401574803
11
6.4763672834645671
21
-0.7874505905511811
0
LINE
8
BLACK
6
CONTINUOUS
10
5.2170175984251967
20
-0.7874015748031495
11
5.2165844488188977
21
-0.7874122047244094
0
LINE
8
BLACK
6
CONTINUOUS
10
6.4763288976377948
20
-0.7874122047244094
11
6.4758957480314958
21
-0.7874015748031495
0
LINE
8
BLACK
6
CONTINUOUS
10
6.4763672834645671
20
-3.1731792913385828
11
6.4763779133858268
21
-3.1727461417322833
0
LINE
8
BLACK
6
CONTINUOUS
10
5.2165354330708658
20
-3.1727461417322833
11
5.2165460629921263
21
-3.1731792913385828
0
LINE
8
BLACK
6
CONTINUOUS
10
5.6874015748031495
20
-2.041732283464567
11
5.7102362204724404
21
-2.0645669291338584
0
LINE
8
BLACK
6
CONTINUOUS
10
5.7102362204724404
20
-2.041732283464567
11
5.6874015748031495
21
-2.0645669291338584
0
LINE
8
BLACK
6
CONTINUOUS
10
5.7070866141732282
20
-2.041732283464567
11
5.6905511811023617
21
-2.041732283464567
0
ARC
8
BLACK
10
5.6905511811023617
20
-2.0531496062992125
40
0.0114173228346457
50
90.00000000
51
270.00000000
0
LINE
8
BLACK
6
CONTINUOUS
10
5.6905511811023617
20
-2.0645669291338584
11
5.7070866141732282
21
-2.0645669291338584
0
ARC
8
BLACK
10
5.7070866141732282
20
-2.0531496062992125
40
0.0114173228346457
50
270.00000000
51
450.00000000
0
CIRCLE
8
BLACK
10
5.9940944881889759
20
-2.0531496062992125
40
0.012992125984252
0
LINE
8
BLACK
6
CONTINUOUS
10
5.3149606299212593
20
-0.8464566929133858
11
5.3149606299212593
21
-0.9251968503937008
0
LINE
8
BLACK
6
CONTINUOUS
10
5.2755905511811019
20
-0.8858267716535433
11
5.3543307086614176
21
-0.8858267716535433
0
LINE
8
BLACK
6
CONTINUOUS
10
5.3149606299212593
20
-3.0354330708661417
11
5.3149606299212593
21
-3.1141732283464565
0
LINE
8
BLACK
6
CONTINUOUS
10
5.2755905511811019
20
-3.0748031496062991
11
5.3543307086614176
21
-3.0748031496062991
0
LINE
8
BLACK
6
CONTINUOUS
10
6.377952755905512
20
-0.8464566929133858
11
6.377952755905512
21
-0.9251968503937008
0
LINE
8
BLACK
6
CONTINUOUS
10
6.3385826771653546
20
-0.8858267716535433
11
6.4173228346456694
21
-0.8858267716535433
0
LINE
8
BLACK
6
CONTINUOUS
10
6.377952755905512
20
-3.0354330708661417
11
6.377952755905512
21
-3.1141732283464565
0
LINE
8
BLACK
6
CONTINUOUS
10
6.3385826771653546
20
-3.0748031496062991
11
6.4173228346456694
21
-3.0748031496062991
0
LINE
8
BLACK
6
CONTINUOUS
10
5.3172349606299214
20
-3.2978282677165351
11
5.3172349606299214
21
-3.2190881102362203
0
LINE
8
BLACK
6
CONTINUOUS
10
5.3172349606299214
20
-3.2190881102362203
11
5.335982598425197
21
-3.2190881102362203
0
LINE
8
BLACK
6
CONTINUOUS
10
5.335982598425197
20
-3.2190881102362203
11
5.347231220472441
21
-3.2228376377952754
0
LINE
8
BLACK
6
CONTINUOUS
10
5.347231220472441
20
-3.2228376377952754
11
5.3547302755905513
21
-3.2303366929133857
0
LINE
8
BLACK
6
CONTINUOUS
10
5.3547302755905513
20
-3.2303366929133857
11
5.3584798031496064
21
-3.2378357480314959
0
LINE
8
BLACK
6
CONTINUOUS
10
5.3584798031496064
20
-3.2378357480314959
11
5.3622293307086615
21
-3.2528338582677163
0
LINE
8
BLACK
6
CONTINUOUS
10
5.3622293307086615
20
-3.2528338582677163
11
5.3622293307086615
21
-3.2640824803149604
0
LINE
8
BLACK
6
CONTINUOUS
10
5.3622293307086615
20
-3.2640824803149604
11
5.3584798031496064
21
-3.2790805905511808
0
LINE
8
BLACK
6
CONTINUOUS
10
5.3584798031496064
20
-3.2790805905511808
11
5.3547302755905513
21
-3.2865796456692911
0
LINE
8
BLACK
6
CONTINUOUS
10
5.3547302755905513
20
-3.2865796456692911
11
5.347231220472441
21
-3.29407874015748
0
LINE
8
BLACK
6
CONTINUOUS
10
5.347231220472441
20
-3.29407874015748
11
5.335982598425197
21
-3.2978282677165351
0
LINE
8
BLACK
6
CONTINUOUS
10
5.335982598425197
20
-3.2978282677165351
11
5.3172349606299214
21
-3.2978282677165351
0
LINE
8
BLACK
6
CONTINUOUS
10
5.3959751181102362
20
-3.2978282677165351
11
5.3959751181102362
21
-3.2453348031496061
0
LINE
8
BLACK
6
CONTINUOUS
10
5.3959751181102362
20
-3.2603329527559053
11
5.3997246456692913
21
-3.2528338582677163
0
LINE
8
BLACK
6
CONTINUOUS
10
5.3997246456692913
20
-3.2528338582677163
11
5.4034741732283464
21
-3.2490843307086612
0
LINE
8
BLACK
6
CONTINUOUS
10
5.4034741732283464
20
-3.2490843307086612
11
5.4109732283464567
21
-3.2453348031496061
0
LINE
8
BLACK
6
CONTINUOUS
10
5.4109732283464567
20
-3.2453348031496061
11
5.4184723228346456
21
-3.2453348031496061
0
LINE
8
BLACK
6
CONTINUOUS
10
5.4447190157480314
20
-3.2978282677165351
11
5.4447190157480314
21
-3.2453348031496061
0
LINE
8
BLACK
6
CONTINUOUS
10
5.4447190157480314
20
-3.2190881102362203
11
5.4409694881889763
21
-3.2228376377952754
0
LINE
8
BLACK
6
CONTINUOUS
10
5.4409694881889763
20
-3.2228376377952754
11
5.4447190157480314
21
-3.2265871653543305
0
LINE
8
BLACK
6
CONTINUOUS
10
5.4447190157480314
20
-3.2265871653543305
11
5.4484685433070865
21
-3.2228376377952754
0
LINE
8
BLACK
6
CONTINUOUS
10
5.4484685433070865
20
-3.2228376377952754
11
5.4447190157480314
21
-3.2190881102362203
0
LINE
8
BLACK
6
CONTINUOUS
10
5.4447190157480314
20
-3.2190881102362203
11
5.4447190157480314
21
-3.2265871653543305
0
LINE
8
BLACK
6
CONTINUOUS
10
5.4934629133858266
20
-3.2978282677165351
11
5.4859638582677164
21
-3.29407874015748
0
LINE
8
BLACK
6
CONTINUOUS
10
5.4859638582677164
20
-3.29407874015748
11
5.4822143307086613
21
-3.2865796456692911
0
LINE
8
BLACK
6
CONTINUOUS
10
5.4822143307086613
20
-3.2865796456692911
11
5.4822143307086613
21
-3.2190881102362203
0
LINE
8
BLACK
6
CONTINUOUS
10
5.5347077559055116
20
-3.2978282677165351
11
5.5272087007874013
21
-3.29407874015748
0
LINE
8
BLACK
6
CONTINUOUS
10
5.5272087007874013
20
-3.29407874015748
11
5.5234591732283462
21
-3.2865796456692911
0
LINE
8
BLACK
6
CONTINUOUS
10
5.5234591732283462
20
-3.2865796456692911
11
5.5234591732283462
21
-3.2190881102362203
0
LINE
8
BLACK
6
CONTINUOUS
10
5.6246965354330705
20
-3.2978282677165351
11
5.6246965354330705
21
-3.2190881102362203
0
LINE
8
BLACK
6
CONTINUOUS
10
5.6246965354330705
20
-3.2190881102362203
11
5.650943267716535
21
-3.2753310629921257
0
LINE
8
BLACK
6
CONTINUOUS
10
5.650943267716535
20
-3.2753310629921257
11
5.6771899606299208
21
-3.2190881102362203
0
LINE
8
BLACK
6
CONTINUOUS
10
5.6771899606299208
20
-3.2190881102362203
11
5.6771899606299208
21
-3.2978282677165351
0
LINE
8
BLACK
6
CONTINUOUS
10
5.7484310629921263
20
-3.2978282677165351
11
5.7484310629921263
21
-3.2565834251968502
0
LINE
8
BLACK
6
CONTINUOUS
10
5.7484310629921263
20
-3.2565834251968502
11
5.7446815354330711
21
-3.2490843307086612
0
LINE
8
BLACK
6
CONTINUOUS
10
5.7446815354330711
20
-3.2490843307086612
11
5.7371824803149609
21
-3.2453348031496061
0
LINE
8
BLACK
6
CONTINUOUS
10
5.7371824803149609
20
-3.2453348031496061
11
5.7221843307086617
21
-3.2453348031496061
0
LINE
8
BLACK
6
CONTINUOUS
10
5.7221843307086617
20
-3.2453348031496061
11
5.7146852755905506
21
-3.2490843307086612
0
LINE
8
BLACK
6
CONTINUOUS
10
5.7484310629921263
20
-3.29407874015748
11
5.740932007874016
21
-3.2978282677165351
0
LINE
8
BLACK
6
CONTINUOUS
10
5.740932007874016
20
-3.2978282677165351
11
5.7221843307086617
21
-3.2978282677165351
0
LINE
8
BLACK
6
CONTINUOUS
10
5.7221843307086617
20
-3.2978282677165351
11
5.7146852755905506
21
-3.29407874015748
0
LINE
8
BLACK
6
CONTINUOUS
10
5.7146852755905506
20
-3.29407874015748
11
5.7109357480314955
21
-3.2865796456692911
0
LINE
8
BLACK
6
CONTINUOUS
10
5.7109357480314955
20
-3.2865796456692911
11
5.7109357480314955
21
-3.2790805905511808
0
LINE
8
BLACK
6
CONTINUOUS
10
5.7109357480314955
20
-3.2790805905511808
11
5.7146852755905506
21
-3.2715815354330706
0
LINE
8
BLACK
6
CONTINUOUS
10
5.7146852755905506
20
-3.2715815354330706
11
5.7221843307086617
21
-3.2678320078740155
0
LINE
8
BLACK
6
CONTINUOUS
10
5.7221843307086617
20
-3.2678320078740155
11
5.740932007874016
21
-3.2678320078740155
0
LINE
8
BLACK
6
CONTINUOUS
10
5.740932007874016
20
-3.2678320078740155
11
5.7484310629921263
21
-3.2640824803149604
0
LINE
8
BLACK
6
CONTINUOUS
10
5.7859263779527561
20
-3.2453348031496061
11
5.7859263779527561
21
-3.3240749606299214
0
LINE
8
BLACK
6
CONTINUOUS
10
5.7859263779527561
20
-3.2490843307086612
11
5.7934254330708663
21
-3.2453348031496061
0
LINE
8
BLACK
6
CONTINUOUS
10
5.7934254330708663
20
-3.2453348031496061
11
5.8084235826771655
21
-3.2453348031496061
0
LINE
8
BLACK
6
CONTINUOUS
10
5.8084235826771655
20
-3.2453348031496061
11
5.8159226377952757
21
-3.2490843307086612
0
LINE
8
BLACK
6
CONTINUOUS
10
5.8159226377952757
20
-3.2490843307086612
11
5.8196721653543309
21
-3.2528338582677163
0
LINE
8
BLACK
6
CONTINUOUS
10
5.8196721653543309
20
-3.2528338582677163
11
5.823421692913386
21
-3.2603329527559053
0
LINE
8
BLACK
6
CONTINUOUS
10
5.823421692913386
20
-3.2603329527559053
11
5.823421692913386
21
-3.282830118110236
0
LINE
8
BLACK
6
CONTINUOUS
10
5.823421692913386
20
-3.282830118110236
11
5.8196721653543309
21
-3.2903291732283462
0
LINE
8
BLACK
6
CONTINUOUS
10
5.8196721653543309
20
-3.2903291732283462
11
5.8159226377952757
21
-3.29407874015748
0
LINE
8
BLACK
6
CONTINUOUS
10
5.8159226377952757
20
-3.29407874015748
11
5.8084235826771655
21
-3.2978282677165351
0
LINE
8
BLACK
6
CONTINUOUS
10
5.8084235826771655
20
-3.2978282677165351
11
5.7934254330708663
21
-3.2978282677165351
0
LINE
8
BLACK
6
CONTINUOUS
10
5.7934254330708663
20
-3.2978282677165351
11
5.7859263779527561
21
-3.29407874015748
0
LINE
8
BLACK
6
CONTINUOUS
10
5.8571674803149607
20
-3.2903291732283462
11
5.8609170078740158
21
-3.29407874015748
0
LINE
8
BLACK
6
CONTINUOUS
10
5.8609170078740158
20
-3.29407874015748
11
5.8571674803149607
21
-3.2978282677165351
0
LINE
8
BLACK
6
CONTINUOUS
10
5.8571674803149607
20
-3.2978282677165351
11
5.8534179527559056
21
-3.29407874015748
0
LINE
8
BLACK
6
CONTINUOUS
10
5.8534179527559056
20
-3.29407874015748
11
5.8571674803149607
21
-3.2903291732283462
0
LINE
8
BLACK
6
CONTINUOUS
10
5.8571674803149607
20
-3.2903291732283462
11
5.8571674803149607
21
-3.2978282677165351
0
LINE
8
BLACK
6
CONTINUOUS
10
5.8571674803149607
20
-3.2490843307086612
11
5.8609170078740158
21
-3.2528338582677163
0
LINE
8
BLACK
6
CONTINUOUS
10
5.8609170078740158
20
-3.2528338582677163
11
5.8571674803149607
21
-3.2565834251968502
0
LINE
8
BLACK
6
CONTINUOUS
10
5.8571674803149607
20
-3.2565834251968502
11
5.8534179527559056
21
-3.2528338582677163
0
LINE
8
BLACK
6
CONTINUOUS
10
5.8534179527559056
20
-3.2528338582677163
11
5.8571674803149607
21
-3.2490843307086612
0
LINE
8
BLACK
6
CONTINUOUS
10
5.8571674803149607
20
-3.2490843307086612
11
5.8571674803149607
21
-3.2565834251968502
0
LINE
8
BLACK
6
CONTINUOUS
10
5.1917322834645665
20
-3.4157480314960629
11
5.2145669291338583
21
-3.4385826771653543
0
LINE
8
BLACK
6
CONTINUOUS
10
5.2145669291338583
20
-3.4157480314960629
11
5.1917322834645665
21
-3.4385826771653543
0
LINE
8
BLACK
6
CONTINUOUS
10
5.3322330708661418
20
-3.3844424409448819
11
5.3397321653543308
21
-3.3844424409448819
0
LINE
8
BLACK
6
CONTINUOUS
10
5.3397321653543308
20
-3.3844424409448819
11
5.347231220472441
21
-3.388191968503937
0
LINE
8
BLACK
6
CONTINUOUS
10
5.347231220472441
20
-3.388191968503937
11
5.3509807480314961
21
-3.3919414960629921
0
LINE
8
BLACK
6
CONTINUOUS
10
5.3509807480314961
20
-3.3919414960629921
11
5.3547302755905513
21
-3.3994405511811023
0
LINE
8
BLACK
6
CONTINUOUS
10
5.3547302755905513
20
-3.3994405511811023
11
5.3584798031496064
21
-3.4144386614173228
0
LINE
8
BLACK
6
CONTINUOUS
10
5.3584798031496064
20
-3.4144386614173228
11
5.3584798031496064
21
-3.4331863385826771
0
LINE
8
BLACK
6
CONTINUOUS
10
5.3584798031496064
20
-3.4331863385826771
11
5.3547302755905513
21
-3.4481844488188975
0
LINE
8
BLACK
6
CONTINUOUS
10
5.3547302755905513
20
-3.4481844488188975
11
5.3509807480314961
21
-3.4556835039370077
0
LINE
8
BLACK
6
CONTINUOUS
10
5.3509807480314961
20
-3.4556835039370077
11
5.347231220472441
21
-3.4594330708661416
0
LINE
8
BLACK
6
CONTINUOUS
10
5.347231220472441
20
-3.4594330708661416
11
5.3397321653543308
21
-3.4631825984251967
0
LINE
8
BLACK
6
CONTINUOUS
10
5.3397321653543308
20
-3.4631825984251967
11
5.3322330708661418
21
-3.4631825984251967
0
LINE
8
BLACK
6
CONTINUOUS
10
5.3322330708661418
20
-3.4631825984251967
11
5.3247340157480316
21
-3.4594330708661416
0
LINE
8
BLACK
6
CONTINUOUS
10
5.3247340157480316
20
-3.4594330708661416
11
5.3209844881889765
21
-3.4556835039370077
0
LINE
8
BLACK
6
CONTINUOUS
10
5.3209844881889765
20
-3.4556835039370077
11
5.3172349606299214
21
-3.4481844488188975
0
LINE
8
BLACK
6
CONTINUOUS
10
5.3172349606299214
20
-3.4481844488188975
11
5.3134854330708663
21
-3.4331863385826771
0
LINE
8
BLACK
6
CONTINUOUS
10
5.3134854330708663
20
-3.4331863385826771
11
5.3134854330708663
21
-3.4144386614173228
0
LINE
8
BLACK
6
CONTINUOUS
10
5.3134854330708663
20
-3.4144386614173228
11
5.3172349606299214
21
-3.3994405511811023
0
LINE
8
BLACK
6
CONTINUOUS
10
5.3172349606299214
20
-3.3994405511811023
11
5.3209844881889765
21
-3.3919414960629921
0
LINE
8
BLACK
6
CONTINUOUS
10
5.3209844881889765
20
-3.3919414960629921
11
5.3247340157480316
21
-3.388191968503937
0
LINE
8
BLACK
6
CONTINUOUS
10
5.3247340157480316
20
-3.388191968503937
11
5.3322330708661418
21
-3.3844424409448819
0
LINE
8
BLACK
6
CONTINUOUS
10
5.3922255905511811
20
-3.4556835039370077
11
5.3959751181102362
21
-3.4594330708661416
0
LINE
8
BLACK
6
CONTINUOUS
10
5.3959751181102362
20
-3.4594330708661416
11
5.3922255905511811
21
-3.4631825984251967
0
LINE
8
BLACK
6
CONTINUOUS
10
5.3922255905511811
20
-3.4631825984251967
11
5.388476062992126
21
-3.4594330708661416
0
LINE
8
BLACK
6
CONTINUOUS
10
5.388476062992126
20
-3.4594330708661416
11
5.3922255905511811
21
-3.4556835039370077
0
LINE
8
BLACK
6
CONTINUOUS
10
5.3922255905511811
20
-3.4556835039370077
11
5.3922255905511811
21
-3.4631825984251967
0
LINE
8
BLACK
6
CONTINUOUS
10
5.4672162204724408
20
-3.3844424409448819
11
5.429720905511811
21
-3.3844424409448819
0
LINE
8
BLACK
6
CONTINUOUS
10
5.429720905511811
20
-3.3844424409448819
11
5.4259713779527559
21
-3.4219377559055117
0
LINE
8
BLACK
6
CONTINUOUS
10
5.4259713779527559
20
-3.4219377559055117
11
5.429720905511811
21
-3.4181881889763779
0
LINE
8
BLACK
6
CONTINUOUS
10
5.429720905511811
20
-3.4181881889763779
11
5.4372199606299212
21
-3.4144386614173228
0
LINE
8
BLACK
6
CONTINUOUS
10
5.4372199606299212
20
-3.4144386614173228
11
5.4559676377952755
21
-3.4144386614173228
0
LINE
8
BLACK
6
CONTINUOUS
10
5.4559676377952755
20
-3.4144386614173228
11
5.4634666929133857
21
-3.4181881889763779
0
LINE
8
BLACK
6
CONTINUOUS
10
5.4634666929133857
20
-3.4181881889763779
11
5.4672162204724408
21
-3.4219377559055117
0
LINE
8
BLACK
6
CONTINUOUS
10
5.4672162204724408
20
-3.4219377559055117
11
5.4709657480314959
21
-3.429436811023622
0
LINE
8
BLACK
6
CONTINUOUS
10
5.4709657480314959
20
-3.429436811023622
11
5.4709657480314959
21
-3.4481844488188975
0
LINE
8
BLACK
6
CONTINUOUS
10
5.4709657480314959
20
-3.4481844488188975
11
5.4672162204724408
21
-3.4556835039370077
0
LINE
8
BLACK
6
CONTINUOUS
10
5.4672162204724408
20
-3.4556835039370077
11
5.4634666929133857
21
-3.4594330708661416
0
LINE
8
BLACK
6
CONTINUOUS
10
5.4634666929133857
20
-3.4594330708661416
11
5.4559676377952755
21
-3.4631825984251967
0
LINE
8
BLACK
6
CONTINUOUS
10
5.4559676377952755
20
-3.4631825984251967
11
5.4372199606299212
21
-3.4631825984251967
0
LINE
8
BLACK
6
CONTINUOUS
10
5.4372199606299212
20
-3.4631825984251967
11
5.429720905511811
21
-3.4594330708661416
0
LINE
8
BLACK
6
CONTINUOUS
10
5.429720905511811
20
-3.4594330708661416
11
5.4259713779527559
21
-3.4556835039370077
0
LINE
8
BLACK
6
CONTINUOUS
10
5.515960118110236
20
-3.4181881889763779
11
5.5084610629921258
21
-3.4144386614173228
0
LINE
8
BLACK
6
CONTINUOUS
10
5.5084610629921258
20
-3.4144386614173228
11
5.5047115354330707
21
-3.4106891338582677
0
LINE
8
BLACK
6
CONTINUOUS
10
5.5047115354330707
20
-3.4106891338582677
11
5.5009620078740156
21
-3.4031900787401574
0
LINE
8
BLACK
6
CONTINUOUS
10
5.5009620078740156
20
-3.4031900787401574
11
5.5009620078740156
21
-3.3994405511811023
0
LINE
8
BLACK
6
CONTINUOUS
10
5.5009620078740156
20
-3.3994405511811023
11
5.5047115354330707
21
-3.3919414960629921
0
LINE
8
BLACK
6
CONTINUOUS
10
5.5047115354330707
20
-3.3919414960629921
11
5.5084610629921258
21
-3.388191968503937
0
LINE
8
BLACK
6
CONTINUOUS
10
5.5084610629921258
20
-3.388191968503937
11
5.515960118110236
21
-3.3844424409448819
0
LINE
8
BLACK
6
CONTINUOUS
10
5.515960118110236
20
-3.3844424409448819
11
5.5309582677165352
21
-3.3844424409448819
0
LINE
8
BLACK
6
CONTINUOUS
10
5.5309582677165352
20
-3.3844424409448819
11
5.5384573228346454
21
-3.388191968503937
0
LINE
8
BLACK
6
CONTINUOUS
10
5.5384573228346454
20
-3.388191968503937
11
5.5422068503937005
21
-3.3919414960629921
0
LINE
8
BLACK
6
CONTINUOUS
10
5.5422068503937005
20
-3.3919414960629921
11
5.5459563779527556
21
-3.3994405511811023
0
LINE
8
BLACK
6
CONTINUOUS
10
5.5459563779527556
20
-3.3994405511811023
11
5.5459563779527556
21
-3.4031900787401574
0
LINE
8
BLACK
6
CONTINUOUS
10
5.5459563779527556
20
-3.4031900787401574
11
5.5422068503937005
21
-3.4106891338582677
0
LINE
8
BLACK
6
CONTINUOUS
10
5.5422068503937005
20
-3.4106891338582677
11
5.5384573228346454
21
-3.4144386614173228
0
LINE
8
BLACK
6
CONTINUOUS
10
5.5384573228346454
20
-3.4144386614173228
11
5.5309582677165352
21
-3.4181881889763779
0
LINE
8
BLACK
6
CONTINUOUS
10
5.5309582677165352
20
-3.4181881889763779
11
5.515960118110236
21
-3.4181881889763779
0
LINE
8
BLACK
6
CONTINUOUS
10
5.515960118110236
20
-3.4181881889763779
11
5.5084610629921258
21
-3.4219377559055117
0
LINE
8
BLACK
6
CONTINUOUS
10
5.5084610629921258
20
-3.4219377559055117
11
5.5047115354330707
21
-3.4256872834645669
0
LINE
8
BLACK
6
CONTINUOUS
10
5.5047115354330707
20
-3.4256872834645669
11
5.5009620078740156
21
-3.4331863385826771
0
LINE
8
BLACK
6
CONTINUOUS
10
5.5009620078740156
20
-3.4331863385826771
11
5.5009620078740156
21
-3.4481844488188975
0
LINE
8
BLACK
6
CONTINUOUS
10
5.5009620078740156
20
-3.4481844488188975
11
5.5047115354330707
21
-3.4556835039370077
0
LINE
8
BLACK
6
CONTINUOUS
10
5.5047115354330707
20
-3.4556835039370077
11
5.5084610629921258
21
-3.4594330708661416
0
LINE
8
BLACK
6
CONTINUOUS
10
5.5084610629921258
20
-3.4594330708661416
11
5.515960118110236
21
-3.4631825984251967
0
LINE
8
BLACK
6
CONTINUOUS
10
5.515960118110236
20
-3.4631825984251967
11
5.5309582677165352
21
-3.4631825984251967
0
LINE
8
BLACK
6
CONTINUOUS
10
5.5309582677165352
20
-3.4631825984251967
11
5.5384573228346454
21
-3.4594330708661416
0
LINE
8
BLACK
6
CONTINUOUS
10
5.5384573228346454
20
-3.4594330708661416
11
5.5422068503937005
21
-3.4556835039370077
0
LINE
8
BLACK
6
CONTINUOUS
10
5.5422068503937005
20
-3.4556835039370077
11
5.5459563779527556
21
-3.4481844488188975
0
LINE
8
BLACK
6
CONTINUOUS
10
5.5459563779527556
20
-3.4481844488188975
11
5.5459563779527556
21
-3.4331863385826771
0
LINE
8
BLACK
6
CONTINUOUS
10
5.5459563779527556
20
-3.4331863385826771
11
5.5422068503937005
21
-3.4256872834645669
0
LINE
8
BLACK
6
CONTINUOUS
10
5.5422068503937005
20
-3.4256872834645669
11
5.5384573228346454
21
-3.4219377559055117
0
LINE
8
BLACK
6
CONTINUOUS
10
5.5384573228346454
20
-3.4219377559055117
11
5.5309582677165352
21
-3.4181881889763779
0
LINE
8
BLACK
6
CONTINUOUS
10
5.5947002755905508
20
-3.3844424409448819
11
5.6021993700787398
21
-3.3844424409448819
0
LINE
8
BLACK
6
CONTINUOUS
10
5.6021993700787398
20
-3.3844424409448819
11
5.60969842519685
21
-3.388191968503937
0
LINE
8
BLACK
6
CONTINUOUS
10
5.60969842519685
20
-3.388191968503937
11
5.6134479527559051
21
-3.3919414960629921
0
LINE
8
BLACK
6
CONTINUOUS
10
5.6134479527559051
20
-3.3919414960629921
11
5.6171974803149602
21
-3.3994405511811023
0
LINE
8
BLACK
6
CONTINUOUS
10
5.6171974803149602
20
-3.3994405511811023
11
5.6209470078740154
21
-3.4144386614173228
0
LINE
8
BLACK
6
CONTINUOUS
10
5.6209470078740154
20
-3.4144386614173228
11
5.6209470078740154
21
-3.4331863385826771
0
LINE
8
BLACK
6
CONTINUOUS
10
5.6209470078740154
20
-3.4331863385826771
11
5.6171974803149602
21
-3.4481844488188975
0
LINE
8
BLACK
6
CONTINUOUS
10
5.6171974803149602
20
-3.4481844488188975
11
5.6134479527559051
21
-3.4556835039370077
0
LINE
8
BLACK
6
CONTINUOUS
10
5.6134479527559051
20
-3.4556835039370077
11
5.60969842519685
21
-3.4594330708661416
0
LINE
8
BLACK
6
CONTINUOUS
10
5.60969842519685
20
-3.4594330708661416
11
5.6021993700787398
21
-3.4631825984251967
0
LINE
8
BLACK
6
CONTINUOUS
10
5.6021993700787398
20
-3.4631825984251967
11
5.5947002755905508
21
-3.4631825984251967
0
LINE
8
BLACK
6
CONTINUOUS
10
5.5947002755905508
20
-3.4631825984251967
11
5.5872012204724406
21
-3.4594330708661416
0
LINE
8
BLACK
6
CONTINUOUS
10
5.5872012204724406
20
-3.4594330708661416
11
5.5834516929133855
21
-3.4556835039370077
0
LINE
8
BLACK
6
CONTINUOUS
10
5.5834516929133855
20
-3.4556835039370077
11
5.5797021653543304
21
-3.4481844488188975
0
LINE
8
BLACK
6
CONTINUOUS
10
5.5797021653543304
20
-3.4481844488188975
11
5.5759526377952753
21
-3.4331863385826771
0
LINE
8
BLACK
6
CONTINUOUS
10
5.5759526377952753
20
-3.4331863385826771
11
5.5759526377952753
21
-3.4144386614173228
0
LINE
8
BLACK
6
CONTINUOUS
10
5.5759526377952753
20
-3.4144386614173228
11
5.5797021653543304
21
-3.3994405511811023
0
LINE
8
BLACK
6
CONTINUOUS
10
5.5797021653543304
20
-3.3994405511811023
11
5.5834516929133855
21
-3.3919414960629921
0
LINE
8
BLACK
6
CONTINUOUS
10
5.5834516929133855
20
-3.3919414960629921
11
5.5872012204724406
21
-3.388191968503937
0
LINE
8
BLACK
6
CONTINUOUS
10
5.5872012204724406
20
-3.388191968503937
11
5.5947002755905508
21
-3.3844424409448819
0
LINE
8
BLACK
6
CONTINUOUS
10
5.6546927952755901
20
-3.4631825984251967
11
5.6546927952755901
21
-3.4106891338582677
0
LINE
8
BLACK
6
CONTINUOUS
10
5.6546927952755901
20
-3.4181881889763779
11
5.6584423228346452
21
-3.4144386614173228
0
LINE
8
BLACK
6
CONTINUOUS
10
5.6584423228346452
20
-3.4144386614173228
11
5.6659413779527554
21
-3.4106891338582677
0
LINE
8
BLACK
6
CONTINUOUS
10
5.6659413779527554
20
-3.4106891338582677
11
5.6771899999999995
21
-3.4106891338582677
0
LINE
8
BLACK
6
CONTINUOUS
10
5.6771899999999995
20
-3.4106891338582677
11
5.6846890551181097
21
-3.4144386614173228
0
LINE
8
BLACK
6
CONTINUOUS
10
5.6846890551181097
20
-3.4144386614173228
11
5.6884385826771648
21
-3.4219377559055117
0
LINE
8
BLACK
6
CONTINUOUS
10
5.6884385826771648
20
-3.4219377559055117
11
5.6884385826771648
21
-3.4631825984251967
0
LINE
8
BLACK
6
CONTINUOUS
10
5.6884385826771648
20
-3.4219377559055117
11
5.69218811023622
21
-3.4144386614173228
0
LINE
8
BLACK
6
CONTINUOUS
10
5.69218811023622
20
-3.4144386614173228
11
5.6996871653543302
21
-3.4106891338582677
0
LINE
8
BLACK
6
CONTINUOUS
10
5.6996871653543302
20
-3.4106891338582677
11
5.7109357480314955
21
-3.4106891338582677
0
LINE
8
BLACK
6
CONTINUOUS
10
5.7109357480314955
20
-3.4106891338582677
11
5.7184348425196845
21
-3.4144386614173228
0
LINE
8
BLACK
6
CONTINUOUS
10
5.7184348425196845
20
-3.4144386614173228
11
5.7221843700787396
21
-3.4219377559055117
0
LINE
8
BLACK
6
CONTINUOUS
10
5.7221843700787396
20
-3.4219377559055117
11
5.7221843700787396
21
-3.4631825984251967
0
LINE
8
BLACK
6
CONTINUOUS
10
5.7596796850393703
20
-3.4631825984251967
11
5.7596796850393703
21
-3.4106891338582677
0
LINE
8
BLACK
6
CONTINUOUS
10
5.7596796850393703
20
-3.4181881889763779
11
5.7634292125984254
21
-3.4144386614173228
0
LINE
8
BLACK
6
CONTINUOUS
10
5.7634292125984254
20
-3.4144386614173228
11
5.7709282677165357
21
-3.4106891338582677
0
LINE
8
BLACK
6
CONTINUOUS
10
5.7709282677165357
20
-3.4106891338582677
11
5.7821768897637797
21
-3.4106891338582677
0
LINE
8
BLACK
6
CONTINUOUS
10
5.7821768897637797
20
-3.4106891338582677
11
5.78967594488189
21
-3.4144386614173228
0
LINE
8
BLACK
6
CONTINUOUS
10
5.78967594488189
20
-3.4144386614173228
11
5.7934254724409451
21
-3.4219377559055117
0
LINE
8
BLACK
6
CONTINUOUS
10
5.7934254724409451
20
-3.4219377559055117
11
5.7934254724409451
21
-3.4631825984251967
0
LINE
8
BLACK
6
CONTINUOUS
10
5.7934254724409451
20
-3.4219377559055117
11
5.7971750000000002
21
-3.4144386614173228
0
LINE
8
BLACK
6
CONTINUOUS
10
5.7971750000000002
20
-3.4144386614173228
11
5.8046740551181104
21
-3.4106891338582677
0
LINE
8
BLACK
6
CONTINUOUS
10
5.8046740551181104
20
-3.4106891338582677
11
5.8159226377952757
21
-3.4106891338582677
0
LINE
8
BLACK
6
CONTINUOUS
10
5.8159226377952757
20
-3.4106891338582677
11
5.8234217322834647
21
-3.4144386614173228
0
LINE
8
BLACK
6
CONTINUOUS
10
5.8234217322834647
20
-3.4144386614173228
11
5.8271712598425198
21
-3.4219377559055117
0
LINE
8
BLACK
6
CONTINUOUS
10
5.8271712598425198
20
-3.4219377559055117
11
5.8271712598425198
21
-3.4631825984251967
0
LINE
8
BLACK
6
CONTINUOUS
10
5.9809020472440944
20
-3.3806929133858268
11
5.9134105118110236
21
-3.4819302362204723
0
LINE
8
BLACK
6
CONTINUOUS
10
6.0821394094488186
20
-3.3844424409448819
11
6.0896385039370076
21
-3.3844424409448819
0
LINE
8
BLACK
6
CONTINUOUS
10
6.0896385039370076
20
-3.3844424409448819
11
6.0971375590551178
21
-3.388191968503937
0
LINE
8
BLACK
6
CONTINUOUS
10
6.0971375590551178
20
-3.388191968503937
11
6.1008870866141729
21
-3.3919414960629921
0
LINE
8
BLACK
6
CONTINUOUS
10
6.1008870866141729
20
-3.3919414960629921
11
6.104636614173228
21
-3.3994405511811023
0
LINE
8
BLACK
6
CONTINUOUS
10
6.104636614173228
20
-3.3994405511811023
11
6.1083861417322831
21
-3.4144386614173228
0
LINE
8
BLACK
6
CONTINUOUS
10
6.1083861417322831
20
-3.4144386614173228
11
6.1083861417322831
21
-3.4331863385826771
0
LINE
8
BLACK
6
CONTINUOUS
10
6.1083861417322831
20
-3.4331863385826771
11
6.104636614173228
21
-3.4481844488188975
0
LINE
8
BLACK
6
CONTINUOUS
10
6.104636614173228
20
-3.4481844488188975
11
6.1008870866141729
21
-3.4556835039370077
0
LINE
8
BLACK
6
CONTINUOUS
10
6.1008870866141729
20
-3.4556835039370077
11
6.0971375590551178
21
-3.4594330708661416
0
LINE
8
BLACK
6
CONTINUOUS
10
6.0971375590551178
20
-3.4594330708661416
11
6.0896385039370076
21
-3.4631825984251967
0
LINE
8
BLACK
6
CONTINUOUS
10
6.0896385039370076
20
-3.4631825984251967
11
6.0821394094488186
21
-3.4631825984251967
0
LINE
8
BLACK
6
CONTINUOUS
10
6.0821394094488186
20
-3.4631825984251967
11
6.0746403543307084
21
-3.4594330708661416
0
LINE
8
BLACK
6
CONTINUOUS
10
6.0746403543307084
20
-3.4594330708661416
11
6.0708908267716533
21
-3.4556835039370077
0
LINE
8
BLACK
6
CONTINUOUS
10
6.0708908267716533
20
-3.4556835039370077
11
6.0671412992125981
21
-3.4481844488188975
0
LINE
8
BLACK
6
CONTINUOUS
10
6.0671412992125981
20
-3.4481844488188975
11
6.063391771653543
21
-3.4331863385826771
0
LINE
8
BLACK
6
CONTINUOUS
10
6.063391771653543
20
-3.4331863385826771
11
6.063391771653543
21
-3.4144386614173228
0
LINE
8
BLACK
6
CONTINUOUS
10
6.063391771653543
20
-3.4144386614173228
11
6.0671412992125981
21
-3.3994405511811023
0
LINE
8
BLACK
6
CONTINUOUS
10
6.0671412992125981
20
-3.3994405511811023
11
6.0708908267716533
21
-3.3919414960629921
0
LINE
8
BLACK
6
CONTINUOUS
10
6.0708908267716533
20
-3.3919414960629921
11
6.0746403543307084
21
-3.388191968503937
0
LINE
8
BLACK
6
CONTINUOUS
10
6.0746403543307084
20
-3.388191968503937
11
6.0821394094488186
21
-3.3844424409448819
0
LINE
8
BLACK
6
CONTINUOUS
10
6.1421319291338579
20
-3.4556835039370077
11
6.145881456692913
21
-3.4594330708661416
0
LINE
8
BLACK
6
CONTINUOUS
10
6.145881456692913
20
-3.4594330708661416
11
6.1421319291338579
21
-3.4631825984251967
0
LINE
8
BLACK
6
CONTINUOUS
10
6.1421319291338579
20
-3.4631825984251967
11
6.1383824015748027
21
-3.4594330708661416
0
LINE
8
BLACK
6
CONTINUOUS
10
6.1383824015748027
20
-3.4594330708661416
11
6.1421319291338579
21
-3.4556835039370077
0
LINE
8
BLACK
6
CONTINUOUS
10
6.1421319291338579
20
-3.4556835039370077
11
6.1421319291338579
21
-3.4631825984251967
0
LINE
8
BLACK
6
CONTINUOUS
10
6.1946253543307082
20
-3.3844424409448819
11
6.2021244488188971
21
-3.3844424409448819
0
LINE
8
BLACK
6
CONTINUOUS
10
6.2021244488188971
20
-3.3844424409448819
11
6.2096235039370073
21
-3.388191968503937
0
LINE
8
BLACK
6
CONTINUOUS
10
6.2096235039370073
20
-3.388191968503937
11
6.2133730314960625
21
-3.3919414960629921
0
LINE
8
BLACK
6
CONTINUOUS
10
6.2133730314960625
20
-3.3919414960629921
11
6.2171225590551176
21
-3.3994405511811023
0
LINE
8
BLACK
6
CONTINUOUS
10
6.2171225590551176
20
-3.3994405511811023
11
6.2208720866141727
21
-3.4144386614173228
0
LINE
8
BLACK
6
CONTINUOUS
10
6.2208720866141727
20
-3.4144386614173228
11
6.2208720866141727
21
-3.4331863385826771
0
LINE
8
BLACK
6
CONTINUOUS
10
6.2208720866141727
20
-3.4331863385826771
11
6.2171225590551176
21
-3.4481844488188975
0
LINE
8
BLACK
6
CONTINUOUS
10
6.2171225590551176
20
-3.4481844488188975
11
6.2133730314960625
21
-3.4556835039370077
0
LINE
8
BLACK
6
CONTINUOUS
10
6.2133730314960625
20
-3.4556835039370077
11
6.2096235039370073
21
-3.4594330708661416
0
LINE
8
BLACK
6
CONTINUOUS
10
6.2096235039370073
20
-3.4594330708661416
11
6.2021244488188971
21
-3.4631825984251967
0
LINE
8
BLACK
6
CONTINUOUS
10
6.2021244488188971
20
-3.4631825984251967
11
6.1946253543307082
21
-3.4631825984251967
0
LINE
8
BLACK
6
CONTINUOUS
10
6.1946253543307082
20
-3.4631825984251967
11
6.1871262992125979
21
-3.4594330708661416
0
LINE
8
BLACK
6
CONTINUOUS
10
6.1871262992125979
20
-3.4594330708661416
11
6.1833767716535428
21
-3.4556835039370077
0
LINE
8
BLACK
6
CONTINUOUS
10
6.1833767716535428
20
-3.4556835039370077
11
6.1796272440944877
21
-3.4481844488188975
0
LINE
8
BLACK
6
CONTINUOUS
10
6.1796272440944877
20
-3.4481844488188975
11
6.1758777165354326
21
-3.4331863385826771
0
LINE
8
BLACK
6
CONTINUOUS
10
6.1758777165354326
20
-3.4331863385826771
11
6.1758777165354326
21
-3.4144386614173228
0
LINE
8
BLACK
6
CONTINUOUS
10
6.1758777165354326
20
-3.4144386614173228
11
6.1796272440944877
21
-3.3994405511811023
0
LINE
8
BLACK
6
CONTINUOUS
10
6.1796272440944877
20
-3.3994405511811023
11
6.1833767716535428
21
-3.3919414960629921
0
LINE
8
BLACK
6
CONTINUOUS
10
6.1833767716535428
20
-3.3919414960629921
11
6.1871262992125979
21
-3.388191968503937
0
LINE
8
BLACK
6
CONTINUOUS
10
6.1871262992125979
20
-3.388191968503937
11
6.1946253543307082
21
-3.3844424409448819
0
LINE
8
BLACK
6
CONTINUOUS
10
6.2508683464566932
20
-3.3919414960629921
11
6.2546178740157483
21
-3.388191968503937
0
LINE
8
BLACK
6
CONTINUOUS
10
6.2546178740157483
20
-3.388191968503937
11
6.2621169291338585
21
-3.3844424409448819
0
LINE
8
BLACK
6
CONTINUOUS
10
6.2621169291338585
20
-3.3844424409448819
11
6.2808646062992128
21
-3.3844424409448819
0
LINE
8
BLACK
6
CONTINUOUS
10
6.2808646062992128
20
-3.3844424409448819
11
6.2883636614173231
21
-3.388191968503937
0
LINE
8
BLACK
6
CONTINUOUS
10
6.2883636614173231
20
-3.388191968503937
11
6.2921131889763782
21
-3.3919414960629921
0
LINE
8
BLACK
6
CONTINUOUS
10
6.2921131889763782
20
-3.3919414960629921
11
6.2958627165354333
21
-3.3994405511811023
0
LINE
8
BLACK
6
CONTINUOUS
10
6.2958627165354333
20
-3.3994405511811023
11
6.2958627165354333
21
-3.4069396062992126
0
LINE
8
BLACK
6
CONTINUOUS
10
6.2958627165354333
20
-3.4069396062992126
11
6.2921131889763782
21
-3.4181881889763779
0
LINE
8
BLACK
6
CONTINUOUS
10
6.2921131889763782
20
-3.4181881889763779
11
6.2471188188976381
21
-3.4631825984251967
0
LINE
8
BLACK
6
CONTINUOUS
10
6.2471188188976381
20
-3.4631825984251967
11
6.2958627165354333
21
-3.4631825984251967
0
LINE
8
BLACK
6
CONTINUOUS
10
6.3258589763779529
20
-3.3919414960629921
11
6.329608503937008
21
-3.388191968503937
0
LINE
8
BLACK
6
CONTINUOUS
10
6.329608503937008
20
-3.388191968503937
11
6.3371075590551182
21
-3.3844424409448819
0
LINE
8
BLACK
6
CONTINUOUS
10
6.3371075590551182
20
-3.3844424409448819
11
6.3558552362204725
21
-3.3844424409448819
0
LINE
8
BLACK
6
CONTINUOUS
10
6.3558552362204725
20
-3.3844424409448819
11
6.3633542913385828
21
-3.388191968503937
0
LINE
8
BLACK
6
CONTINUOUS
10
6.3633542913385828
20
-3.388191968503937
11
6.3671038188976379
21
-3.3919414960629921
0
LINE
8
BLACK
6
CONTINUOUS
10
6.3671038188976379
20
-3.3919414960629921
11
6.370853346456693
21
-3.3994405511811023
0
LINE
8
BLACK
6
CONTINUOUS
10
6.370853346456693
20
-3.3994405511811023
11
6.370853346456693
21
-3.4069396062992126
0
LINE
8
BLACK
6
CONTINUOUS
10
6.370853346456693
20
-3.4069396062992126
11
6.3671038188976379
21
-3.4181881889763779
0
LINE
8
BLACK
6
CONTINUOUS
10
6.3671038188976379
20
-3.4181881889763779
11
6.3221094488188978
21
-3.4631825984251967
0
LINE
8
BLACK
6
CONTINUOUS
10
6.3221094488188978
20
-3.4631825984251967
11
6.370853346456693
21
-3.4631825984251967
0
LINE
8
BLACK
6
CONTINUOUS
10
6.4158477165354331
20
-3.4181881889763779
11
6.4083486614173228
21
-3.4144386614173228
0
LINE
8
BLACK
6
CONTINUOUS
10
6.4083486614173228
20
-3.4144386614173228
11
6.4045991338582677
21
-3.4106891338582677
0
LINE
8
BLACK
6
CONTINUOUS
10
6.4045991338582677
20
-3.4106891338582677
11
6.4008496062992126
21
-3.4031900787401574
0
LINE
8
BLACK
6
CONTINUOUS
10
6.4008496062992126
20
-3.4031900787401574
11
6.4008496062992126
21
-3.3994405511811023
0
LINE
8
BLACK
6
CONTINUOUS
10
6.4008496062992126
20
-3.3994405511811023
11
6.4045991338582677
21
-3.3919414960629921
0
LINE
8
BLACK
6
CONTINUOUS
10
6.4045991338582677
20
-3.3919414960629921
11
6.4083486614173228
21
-3.388191968503937
0
LINE
8
BLACK
6
CONTINUOUS
10
6.4083486614173228
20
-3.388191968503937
11
6.4158477165354331
21
-3.3844424409448819
0
LINE
8
BLACK
6
CONTINUOUS
10
6.4158477165354331
20
-3.3844424409448819
11
6.4308458661417323
21
-3.3844424409448819
0
LINE
8
BLACK
6
CONTINUOUS
10
6.4308458661417323
20
-3.3844424409448819
11
6.4383449212598425
21
-3.388191968503937
0
LINE
8
BLACK
6
CONTINUOUS
10
6.4383449212598425
20
-3.388191968503937
11
6.4420944488188976
21
-3.3919414960629921
0
LINE
8
BLACK
6
CONTINUOUS
10
6.4420944488188976
20
-3.3919414960629921
11
6.4458439763779527
21
-3.3994405511811023
0
LINE
8
BLACK
6
CONTINUOUS
10
6.4458439763779527
20
-3.3994405511811023
11
6.4458439763779527
21
-3.4031900787401574
0
LINE
8
BLACK
6
CONTINUOUS
10
6.4458439763779527
20
-3.4031900787401574
11
6.4420944488188976
21
-3.4106891338582677
0
LINE
8
BLACK
6
CONTINUOUS
10
6.4420944488188976
20
-3.4106891338582677
11
6.4383449212598425
21
-3.4144386614173228
0
LINE
8
BLACK
6
CONTINUOUS
10
6.4383449212598425
20
-3.4144386614173228
11
6.4308458661417323
21
-3.4181881889763779
0
LINE
8
BLACK
6
CONTINUOUS
10
6.4308458661417323
20
-3.4181881889763779
11
6.4158477165354331
21
-3.4181881889763779
0
LINE
8
BLACK
6
CONTINUOUS
10
6.4158477165354331
20
-3.4181881889763779
11
6.4083486614173228
21
-3.4219377559055117
0
LINE
8
BLACK
6
CONTINUOUS
10
6.4083486614173228
20
-3.4219377559055117
11
6.4045991338582677
21
-3.4256872834645669
0
LINE
8
BLACK
6
CONTINUOUS
10
6.4045991338582677
20
-3.4256872834645669
11
6.4008496062992126
21
-3.4331863385826771
0
LINE
8
BLACK
6
CONTINUOUS
10
6.4008496062992126
20
-3.4331863385826771
11
6.4008496062992126
21
-3.4481844488188975
0
LINE
8
BLACK
6
CONTINUOUS
10
6.4008496062992126
20
-3.4481844488188975
11
6.4045991338582677
21
-3.4556835039370077
0
LINE
8
BLACK
6
CONTINUOUS
10
6.4045991338582677
20
-3.4556835039370077
11
6.4083486614173228
21
-3.4594330708661416
0
LINE
8
BLACK
6
CONTINUOUS
10
6.4083486614173228
20
-3.4594330708661416
11
6.4158477165354331
21
-3.4631825984251967
0
LINE
8
BLACK
6
CONTINUOUS
10
6.4158477165354331
20
-3.4631825984251967
11
6.4308458661417323
21
-3.4631825984251967
0
LINE
8
BLACK
6
CONTINUOUS
10
6.4308458661417323
20
-3.4631825984251967
11
6.4383449212598425
21
-3.4594330708661416
0
LINE
8
BLACK
6
CONTINUOUS
10
6.4383449212598425
20
-3.4594330708661416
11
6.4420944488188976
21
-3.4556835039370077
0
LINE
8
BLACK
6
CONTINUOUS
10
6.4420944488188976
20
-3.4556835039370077
11
6.4458439763779527
21
-3.4481844488188975
0
LINE
8
BLACK
6
CONTINUOUS
10
6.4458439763779527
20
-3.4481844488188975
11
6.4458439763779527
21
-3.4331863385826771
0
LINE
8
BLACK
6
CONTINUOUS
10
6.4458439763779527
20
-3.4331863385826771
11
6.4420944488188976
21
-3.4256872834645669
0
LINE
8
BLACK
6
CONTINUOUS
10
6.4420944488188976
20
-3.4256872834645669
11
6.4383449212598425
21
-3.4219377559055117
0
LINE
8
BLACK
6
CONTINUOUS
10
6.4383449212598425
20
-3.4219377559055117
11
6.4308458661417323
21
-3.4181881889763779
0
LINE
8
BLACK
6
CONTINUOUS
10
6.4758402362204723
20
-3.3844424409448819
11
6.4758402362204723
21
-3.3994405511811023
0
LINE
8
BLACK
6
CONTINUOUS
10
6.505836496062992
20
-3.3844424409448819
11
6.505836496062992
21
-3.3994405511811023
0
LINE
8
BLACK
6
CONTINUOUS
10
6.6220720078740154
20
-3.4931788188976376
11
6.6183224409448815
21
-3.4894292913385825
0
LINE
8
BLACK
6
CONTINUOUS
10
6.6183224409448815
20
-3.4894292913385825
11
6.6108233858267713
21
-3.4781807086614172
0
LINE
8
BLACK
6
CONTINUOUS
10
6.6108233858267713
20
-3.4781807086614172
11
6.6070738582677162
21
-3.4706816535433069
0
LINE
8
BLACK
6
CONTINUOUS
10
6.6070738582677162
20
-3.4706816535433069
11
6.6033243307086611
21
-3.4594330708661416
0
LINE
8
BLACK
6
CONTINUOUS
10
6.6033243307086611
20
-3.4594330708661416
11
6.599574803149606
21
-3.4406853937007873
0
LINE
8
BLACK
6
CONTINUOUS
10
6.599574803149606
20
-3.4406853937007873
11
6.599574803149606
21
-3.4256872834645669
0
LINE
8
BLACK
6
CONTINUOUS
10
6.599574803149606
20
-3.4256872834645669
11
6.6033243307086611
21
-3.4069396062992126
0
LINE
8
BLACK
6
CONTINUOUS
10
6.6033243307086611
20
-3.4069396062992126
11
6.6070738582677162
21
-3.3956910236220472
0
LINE
8
BLACK
6
CONTINUOUS
10
6.6070738582677162
20
-3.3956910236220472
11
6.6108233858267713
21
-3.388191968503937
0
LINE
8
BLACK
6
CONTINUOUS
10
6.6108233858267713
20
-3.388191968503937
11
6.6183224409448815
21
-3.3769433464566929
0
LINE
8
BLACK
6
CONTINUOUS
10
6.6183224409448815
20
-3.3769433464566929
11
6.6220720078740154
21
-3.3731938188976378
0
LINE
8
BLACK
6
CONTINUOUS
10
6.6933130708661412
20
-3.4631825984251967
11
6.6483187007874012
21
-3.4631825984251967
0
LINE
8
BLACK
6
CONTINUOUS
10
6.6708158661417318
20
-3.4631825984251967
11
6.6708158661417318
21
-3.3844424409448819
0
LINE
8
BLACK
6
CONTINUOUS
10
6.6708158661417318
20
-3.3844424409448819
11
6.6633168110236216
21
-3.3956910236220472
0
LINE
8
BLACK
6
CONTINUOUS
10
6.6633168110236216
20
-3.3956910236220472
11
6.6558177559055114
21
-3.4031900787401574
0
LINE
8
BLACK
6
CONTINUOUS
10
6.6558177559055114
20
-3.4031900787401574
11
6.6483187007874012
21
-3.4069396062992126
0
LINE
8
BLACK
6
CONTINUOUS
10
6.783301850393701
20
-3.4594330708661416
11
6.7908009055118113
21
-3.4631825984251967
0
LINE
8
BLACK
6
CONTINUOUS
10
6.7908009055118113
20
-3.4631825984251967
11
6.8057990157480317
21
-3.4631825984251967
0
LINE
8
BLACK
6
CONTINUOUS
10
6.8057990157480317
20
-3.4631825984251967
11
6.8132981102362207
21
-3.4594330708661416
0
LINE
8
BLACK
6
CONTINUOUS
10
6.8132981102362207
20
-3.4594330708661416
11
6.8170476377952758
21
-3.4519339763779526
0
LINE
8
BLACK
6
CONTINUOUS
10
6.8170476377952758
20
-3.4519339763779526
11
6.8170476377952758
21
-3.4481844488188975
0
LINE
8
BLACK
6
CONTINUOUS
10
6.8170476377952758
20
-3.4481844488188975
11
6.8132981102362207
21
-3.4406853937007873
0
LINE
8
BLACK
6
CONTINUOUS
10
6.8132981102362207
20
-3.4406853937007873
11
6.8057990157480317
21
-3.4369358661417322
0
LINE
8
BLACK
6
CONTINUOUS
10
6.8057990157480317
20
-3.4369358661417322
11
6.7945504330708664
21
-3.4369358661417322
0
LINE
8
BLACK
6
CONTINUOUS
10
6.7945504330708664
20
-3.4369358661417322
11
6.7870513779527561
21
-3.4331863385826771
0
LINE
8
BLACK
6
CONTINUOUS
10
6.7870513779527561
20
-3.4331863385826771
11
6.783301850393701
21
-3.4256872834645669
0
LINE
8
BLACK
6
CONTINUOUS
10
6.783301850393701
20
-3.4256872834645669
11
6.783301850393701
21
-3.4219377559055117
0
LINE
8
BLACK
6
CONTINUOUS
10
6.783301850393701
20
-3.4219377559055117
11
6.7870513779527561
21
-3.4144386614173228
0
LINE
8
BLACK
6
CONTINUOUS
10
6.7870513779527561
20
-3.4144386614173228
11
6.7945504330708664
21
-3.4106891338582677
0
LINE
8
BLACK
6
CONTINUOUS
10
6.7945504330708664
20
-3.4106891338582677
11
6.8057990157480317
21
-3.4106891338582677
0
LINE
8
BLACK
6
CONTINUOUS
10
6.8057990157480317
20
-3.4106891338582677
11
6.8132981102362207
21
-3.4144386614173228
0
LINE
8
BLACK
6
CONTINUOUS
10
6.8620420078740159
20
-3.4631825984251967
11
6.8545429527559056
21
-3.4594330708661416
0
LINE
8
BLACK
6
CONTINUOUS
10
6.8545429527559056
20
-3.4594330708661416
11
6.8507934251968505
21
-3.4519339763779526
0
LINE
8
BLACK
6
CONTINUOUS
10
6.8507934251968505
20
-3.4519339763779526
11
6.8507934251968505
21
-3.3844424409448819
0
LINE
8
BLACK
6
CONTINUOUS
10
6.9032868503937008
20
-3.4631825984251967
11
6.8957877952755906
21
-3.4594330708661416
0
LINE
8
BLACK
6
CONTINUOUS
10
6.8957877952755906
20
-3.4594330708661416
11
6.8920382677165355
21
-3.4556835039370077
0
LINE
8
BLACK
6
CONTINUOUS
10
6.8920382677165355
20
-3.4556835039370077
11
6.8882887401574804
21
-3.4481844488188975
0
LINE
8
BLACK
6
CONTINUOUS
10
6.8882887401574804
20
-3.4481844488188975
11
6.8882887401574804
21
-3.4256872834645669
0
LINE
8
BLACK
6
CONTINUOUS
10
6.8882887401574804
20
-3.4256872834645669
11
6.8920382677165355
21
-3.4181881889763779
0
LINE
8
BLACK
6
CONTINUOUS
10
6.8920382677165355
20
-3.4181881889763779
11
6.8957877952755906
21
-3.4144386614173228
0
LINE
8
BLACK
6
CONTINUOUS
10
6.8957877952755906
20
-3.4144386614173228
11
6.9032868503937008
21
-3.4106891338582677
0
LINE
8
BLACK
6
CONTINUOUS
10
6.9032868503937008
20
-3.4106891338582677
11
6.9145354724409449
21
-3.4106891338582677
0
LINE
8
BLACK
6
CONTINUOUS
10
6.9145354724409449
20
-3.4106891338582677
11
6.9220345275590551
21
-3.4144386614173228
0
LINE
8
BLACK
6
CONTINUOUS
10
6.9220345275590551
20
-3.4144386614173228
11
6.9257840551181102
21
-3.4181881889763779
0
LINE
8
BLACK
6
CONTINUOUS
10
6.9257840551181102
20
-3.4181881889763779
11
6.9295335826771653
21
-3.4256872834645669
0
LINE
8
BLACK
6
CONTINUOUS
10
6.9295335826771653
20
-3.4256872834645669
11
6.9295335826771653
21
-3.4481844488188975
0
LINE
8
BLACK
6
CONTINUOUS
10
6.9295335826771653
20
-3.4481844488188975
11
6.9257840551181102
21
-3.4556835039370077
0
LINE
8
BLACK
6
CONTINUOUS
10
6.9257840551181102
20
-3.4556835039370077
11
6.9220345275590551
21
-3.4594330708661416
0
LINE
8
BLACK
6
CONTINUOUS
10
6.9220345275590551
20
-3.4594330708661416
11
6.9145354724409449
21
-3.4631825984251967
0
LINE
8
BLACK
6
CONTINUOUS
10
6.9145354724409449
20
-3.4631825984251967
11
6.9032868503937008
21
-3.4631825984251967
0
LINE
8
BLACK
6
CONTINUOUS
10
6.9520307874015748
20
-3.4106891338582677
11
6.9820270078740156
21
-3.4106891338582677
0
LINE
8
BLACK
6
CONTINUOUS
10
6.9632793700787401
20
-3.3844424409448819
11
6.9632793700787401
21
-3.4519339763779526
0
LINE
8
BLACK
6
CONTINUOUS
10
6.9632793700787401
20
-3.4519339763779526
11
6.9670288976377952
21
-3.4594330708661416
0
LINE
8
BLACK
6
CONTINUOUS
10
6.9670288976377952
20
-3.4594330708661416
11
6.9745279527559054
21
-3.4631825984251967
0
LINE
8
BLACK
6
CONTINUOUS
10
6.9745279527559054
20
-3.4631825984251967
11
6.9820270078740156
21
-3.4631825984251967
0
LINE
8
BLACK
6
CONTINUOUS
10
7.0007746850393699
20
-3.4931788188976376
11
7.0045242125984251
21
-3.4894292913385825
0
LINE
8
BLACK
6
CONTINUOUS
10
7.0045242125984251
20
-3.4894292913385825
11
7.0120232677165353
21
-3.4781807086614172
0
LINE
8
BLACK
6
CONTINUOUS
10
7.0120232677165353
20
-3.4781807086614172
11
7.0157727952755904
21
-3.4706816535433069
0
LINE
8
BLACK
6
CONTINUOUS
10
7.0157727952755904
20
-3.4706816535433069
11
7.0195223228346455
21
-3.4594330708661416
0
LINE
8
BLACK
6
CONTINUOUS
10
7.0195223228346455
20
-3.4594330708661416
11
7.0232718503937006
21
-3.4406853937007873
0
LINE
8
BLACK
6
CONTINUOUS
10
7.0232718503937006
20
-3.4406853937007873
11
7.0232718503937006
21
-3.4256872834645669
0
LINE
8
BLACK
6
CONTINUOUS
10
7.0232718503937006
20
-3.4256872834645669
11
7.0195223228346455
21
-3.4069396062992126
0
LINE
8
BLACK
6
CONTINUOUS
10
7.0195223228346455
20
-3.4069396062992126
11
7.0157727952755904
21
-3.3956910236220472
0
LINE
8
BLACK
6
CONTINUOUS
10
7.0157727952755904
20
-3.3956910236220472
11
7.0120232677165353
21
-3.388191968503937
0
LINE
8
BLACK
6
CONTINUOUS
10
7.0120232677165353
20
-3.388191968503937
11
7.0045242125984251
21
-3.3769433464566929
0
LINE
8
BLACK
6
CONTINUOUS
10
7.0045242125984251
20
-3.3769433464566929
11
7.0007746850393699
21
-3.3731938188976378
0
LINE
8
BLACK
6
CONTINUOUS
10
7.1432568897637791
20
-3.4931788188976376
11
7.1395073228346453
21
-3.4894292913385825
0
LINE
8
BLACK
6
CONTINUOUS
10
7.1395073228346453
20
-3.4894292913385825
11
7.1320082677165351
21
-3.4781807086614172
0
LINE
8
BLACK
6
CONTINUOUS
10
7.1320082677165351
20
-3.4781807086614172
11
7.12825874015748
21
-3.4706816535433069
0
LINE
8
BLACK
6
CONTINUOUS
10
7.12825874015748
20
-3.4706816535433069
11
7.1245092125984248
21
-3.4594330708661416
0
LINE
8
BLACK
6
CONTINUOUS
10
7.1245092125984248
20
-3.4594330708661416
11
7.1207596850393697
21
-3.4406853937007873
0
LINE
8
BLACK
6
CONTINUOUS
10
7.1207596850393697
20
-3.4406853937007873
11
7.1207596850393697
21
-3.4256872834645669
0
LINE
8
BLACK
6
CONTINUOUS
10
7.1207596850393697
20
-3.4256872834645669
11
7.1245092125984248
21
-3.4069396062992126
0
LINE
8
BLACK
6
CONTINUOUS
10
7.1245092125984248
20
-3.4069396062992126
11
7.12825874015748
21
-3.3956910236220472
0
LINE
8
BLACK
6
CONTINUOUS
10
7.12825874015748
20
-3.3956910236220472
11
7.1320082677165351
21
-3.388191968503937
0
LINE
8
BLACK
6
CONTINUOUS
10
7.1320082677165351
20
-3.388191968503937
11
7.1395073228346453
21
-3.3769433464566929
0
LINE
8
BLACK
6
CONTINUOUS
10
7.1395073228346453
20
-3.3769433464566929
11
7.1432568897637791
21
-3.3731938188976378
0
LINE
8
BLACK
6
CONTINUOUS
10
7.17325311023622
20
-3.4106891338582677
11
7.17325311023622
21
-3.4631825984251967
0
LINE
8
BLACK
6
CONTINUOUS
10
7.17325311023622
20
-3.4181881889763779
11
7.1770026377952751
21
-3.4144386614173228
0
LINE
8
BLACK
6
CONTINUOUS
10
7.1770026377952751
20
-3.4144386614173228
11
7.1845016929133854
21
-3.4106891338582677
0
LINE
8
BLACK
6
CONTINUOUS
10
7.1845016929133854
20
-3.4106891338582677
11
7.1957503149606294
21
-3.4106891338582677
0
LINE
8
BLACK
6
CONTINUOUS
10
7.1957503149606294
20
-3.4106891338582677
11
7.2032493700787397
21
-3.4144386614173228
0
LINE
8
BLACK
6
CONTINUOUS
10
7.2032493700787397
20
-3.4144386614173228
11
7.2069988976377948
21
-3.4219377559055117
0
LINE
8
BLACK
6
CONTINUOUS
10
7.2069988976377948
20
-3.4219377559055117
11
7.2069988976377948
21
-3.4631825984251967
0
LINE
8
BLACK
6
CONTINUOUS
10
7.25574279527559
20
-3.4631825984251967
11
7.2482437401574797
21
-3.4594330708661416
0
LINE
8
BLACK
6
CONTINUOUS
10
7.2482437401574797
20
-3.4594330708661416
11
7.2444942125984246
21
-3.4556835039370077
0
LINE
8
BLACK
6
CONTINUOUS
10
7.2444942125984246
20
-3.4556835039370077
11
7.2407446850393695
21
-3.4481844488188975
0
LINE
8
BLACK
6
CONTINUOUS
10
7.2407446850393695
20
-3.4481844488188975
11
7.2407446850393695
21
-3.4256872834645669
0
LINE
8
BLACK
6
CONTINUOUS
10
7.2407446850393695
20
-3.4256872834645669
11
7.2444942125984246
21
-3.4181881889763779
0
LINE
8
BLACK
6
CONTINUOUS
10
7.2444942125984246
20
-3.4181881889763779
11
7.2482437401574797
21
-3.4144386614173228
0
LINE
8
BLACK
6
CONTINUOUS
10
7.2482437401574797
20
-3.4144386614173228
11
7.25574279527559
21
-3.4106891338582677
0
LINE
8
BLACK
6
CONTINUOUS
10
7.25574279527559
20
-3.4106891338582677
11
7.266991417322834
21
-3.4106891338582677
0
LINE
8
BLACK
6
CONTINUOUS
10
7.266991417322834
20
-3.4106891338582677
11
7.2744904724409452
21
-3.4144386614173228
0
LINE
8
BLACK
6
CONTINUOUS
10
7.2744904724409452
20
-3.4144386614173228
11
7.2782400000000003
21
-3.4181881889763779
0
LINE
8
BLACK
6
CONTINUOUS
10
7.2782400000000003
20
-3.4181881889763779
11
7.2819895275590554
21
-3.4256872834645669
0
LINE
8
BLACK
6
CONTINUOUS
10
7.2819895275590554
20
-3.4256872834645669
11
7.2819895275590554
21
-3.4481844488188975
0
LINE
8
BLACK
6
CONTINUOUS
10
7.2819895275590554
20
-3.4481844488188975
11
7.2782400000000003
21
-3.4556835039370077
0
LINE
8
BLACK
6
CONTINUOUS
10
7.2782400000000003
20
-3.4556835039370077
11
7.2744904724409452
21
-3.4594330708661416
0
LINE
8
BLACK
6
CONTINUOUS
10
7.2744904724409452
20
-3.4594330708661416
11
7.266991417322834
21
-3.4631825984251967
0
LINE
8
BLACK
6
CONTINUOUS
10
7.266991417322834
20
-3.4631825984251967
11
7.25574279527559
21
-3.4631825984251967
0
LINE
8
BLACK
6
CONTINUOUS
10
7.3044867322834648
20
-3.4106891338582677
11
7.3344829527559057
21
-3.4106891338582677
0
LINE
8
BLACK
6
CONTINUOUS
10
7.3157353149606301
20
-3.3844424409448819
11
7.3157353149606301
21
-3.4519339763779526
0
LINE
8
BLACK
6
CONTINUOUS
10
7.3157353149606301
20
-3.4519339763779526
11
7.3194848425196852
21
-3.4594330708661416
0
LINE
8
BLACK
6
CONTINUOUS
10
7.3194848425196852
20
-3.4594330708661416
11
7.3269838976377955
21
-3.4631825984251967
0
LINE
8
BLACK
6
CONTINUOUS
10
7.3269838976377955
20
-3.4631825984251967
11
7.3344829527559057
21
-3.4631825984251967
0
LINE
8
BLACK
6
CONTINUOUS
10
7.4207222047244095
20
-3.4106891338582677
11
7.4207222047244095
21
-3.4894292913385825
0
LINE
8
BLACK
6
CONTINUOUS
10
7.4207222047244095
20
-3.4144386614173228
11
7.4282212598425197
21
-3.4106891338582677
0
LINE
8
BLACK
6
CONTINUOUS
10
7.4282212598425197
20
-3.4106891338582677
11
7.4432194094488189
21
-3.4106891338582677
0
LINE
8
BLACK
6
CONTINUOUS
10
7.4432194094488189
20
-3.4106891338582677
11
7.4507184645669291
21
-3.4144386614173228
0
LINE
8
BLACK
6
CONTINUOUS
10
7.4507184645669291
20
-3.4144386614173228
11
7.4544679921259842
21
-3.4181881889763779
0
LINE
8
BLACK
6
CONTINUOUS
10
7.4544679921259842
20
-3.4181881889763779
11
7.4582175196850393
21
-3.4256872834645669
0
LINE
8
BLACK
6
CONTINUOUS
10
7.4582175196850393
20
-3.4256872834645669
11
7.4582175196850393
21
-3.4481844488188975
0
LINE
8
BLACK
6
CONTINUOUS
10
7.4582175196850393
20
-3.4481844488188975
11
7.4544679921259842
21
-3.4556835039370077
0
LINE
8
BLACK
6
CONTINUOUS
10
7.4544679921259842
20
-3.4556835039370077
11
7.4507184645669291
21
-3.4594330708661416
0
LINE
8
BLACK
6
CONTINUOUS
10
7.4507184645669291
20
-3.4594330708661416
11
7.4432194094488189
21
-3.4631825984251967
0
LINE
8
BLACK
6
CONTINUOUS
10
7.4432194094488189
20
-3.4631825984251967
11
7.4282212598425197
21
-3.4631825984251967
0
LINE
8
BLACK
6
CONTINUOUS
10
7.4282212598425197
20
-3.4631825984251967
11
7.4207222047244095
21
-3.4594330708661416
0
LINE
8
BLACK
6
CONTINUOUS
10
7.5032118897637794
20
-3.4631825984251967
11
7.4957128346456692
21
-3.4594330708661416
0
LINE
8
BLACK
6
CONTINUOUS
10
7.4957128346456692
20
-3.4594330708661416
11
7.4919633070866141
21
-3.4519339763779526
0
LINE
8
BLACK
6
CONTINUOUS
10
7.4919633070866141
20
-3.4519339763779526
11
7.4919633070866141
21
-3.3844424409448819
0
LINE
8
BLACK
6
CONTINUOUS
10
7.5669539370078738
20
-3.4631825984251967
11
7.5669539370078738
21
-3.4219377559055117
0
LINE
8
BLACK
6
CONTINUOUS
10
7.5669539370078738
20
-3.4219377559055117
11
7.5632044094488187
21
-3.4144386614173228
0
LINE
8
BLACK
6
CONTINUOUS
10
7.5632044094488187
20
-3.4144386614173228
11
7.5557053543307084
21
-3.4106891338582677
0
LINE
8
BLACK
6
CONTINUOUS
10
7.5557053543307084
20
-3.4106891338582677
11
7.5407072047244093
21
-3.4106891338582677
0
LINE
8
BLACK
6
CONTINUOUS
10
7.5407072047244093
20
-3.4106891338582677
11
7.533208149606299
21
-3.4144386614173228
0
LINE
8
BLACK
6
CONTINUOUS
10
7.5669539370078738
20
-3.4594330708661416
11
7.5594548818897636
21
-3.4631825984251967
0
LINE
8
BLACK
6
CONTINUOUS
10
7.5594548818897636
20
-3.4631825984251967
11
7.5407072047244093
21
-3.4631825984251967
0
LINE
8
BLACK
6
CONTINUOUS
10
7.5407072047244093
20
-3.4631825984251967
11
7.533208149606299
21
-3.4594330708661416
0
LINE
8
BLACK
6
CONTINUOUS
10
7.533208149606299
20
-3.4594330708661416
11
7.5294586220472439
21
-3.4519339763779526
0
LINE
8
BLACK
6
CONTINUOUS
10
7.5294586220472439
20
-3.4519339763779526
11
7.5294586220472439
21
-3.4444349212598424
0
LINE
8
BLACK
6
CONTINUOUS
10
7.5294586220472439
20
-3.4444349212598424
11
7.533208149606299
21
-3.4369358661417322
0
LINE
8
BLACK
6
CONTINUOUS
10
7.533208149606299
20
-3.4369358661417322
11
7.5407072047244093
21
-3.4331863385826771
0
LINE
8
BLACK
6
CONTINUOUS
10
7.5407072047244093
20
-3.4331863385826771
11
7.5594548818897636
21
-3.4331863385826771
0
LINE
8
BLACK
6
CONTINUOUS
10
7.5594548818897636
20
-3.4331863385826771
11
7.5669539370078738
21
-3.429436811023622
0
LINE
8
BLACK
6
CONTINUOUS
10
7.5932006692913383
20
-3.4106891338582677
11
7.6231968897637792
21
-3.4106891338582677
0
LINE
8
BLACK
6
CONTINUOUS
10
7.6044492519685036
20
-3.3844424409448819
11
7.6044492519685036
21
-3.4519339763779526
0
LINE
8
BLACK
6
CONTINUOUS
10
7.6044492519685036
20
-3.4519339763779526
11
7.6081987795275587
21
-3.4594330708661416
0
LINE
8
BLACK
6
CONTINUOUS
10
7.6081987795275587
20
-3.4594330708661416
11
7.615697834645669
21
-3.4631825984251967
0
LINE
8
BLACK
6
CONTINUOUS
10
7.615697834645669
20
-3.4631825984251967
11
7.6231968897637792
21
-3.4631825984251967
0
LINE
8
BLACK
6
CONTINUOUS
10
7.6794398818897633
20
-3.4594330708661416
11
7.6719408267716531
21
-3.4631825984251967
0
LINE
8
BLACK
6
CONTINUOUS
10
7.6719408267716531
20
-3.4631825984251967
11
7.6569426771653539
21
-3.4631825984251967
0
LINE
8
BLACK
6
CONTINUOUS
10
7.6569426771653539
20
-3.4631825984251967
11
7.6494436220472437
21
-3.4594330708661416
0
LINE
8
BLACK
6
CONTINUOUS
10
7.6494436220472437
20
-3.4594330708661416
11
7.6456940944881886
21
-3.4519339763779526
0
LINE
8
BLACK
6
CONTINUOUS
10
7.6456940944881886
20
-3.4519339763779526
11
7.6456940944881886
21
-3.4219377559055117
0
LINE
8
BLACK
6
CONTINUOUS
10
7.6456940944881886
20
-3.4219377559055117
11
7.6494436220472437
21
-3.4144386614173228
0
LINE
8
BLACK
6
CONTINUOUS
10
7.6494436220472437
20
-3.4144386614173228
11
7.6569426771653539
21
-3.4106891338582677
0
LINE
8
BLACK
6
CONTINUOUS
10
7.6569426771653539
20
-3.4106891338582677
11
7.6719408267716531
21
-3.4106891338582677
0
LINE
8
BLACK
6
CONTINUOUS
10
7.6719408267716531
20
-3.4106891338582677
11
7.6794398818897633
21
-3.4144386614173228
0
LINE
8
BLACK
6
CONTINUOUS
10
7.6794398818897633
20
-3.4144386614173228
11
7.6831894094488185
21
-3.4219377559055117
0
LINE
8
BLACK
6
CONTINUOUS
10
7.6831894094488185
20
-3.4219377559055117
11
7.6831894094488185
21
-3.429436811023622
0
LINE
8
BLACK
6
CONTINUOUS
10
7.6831894094488185
20
-3.429436811023622
11
7.6456940944881886
21
-3.4369358661417322
0
LINE
8
BLACK
6
CONTINUOUS
10
7.7506809842519679
20
-3.4631825984251967
11
7.7506809842519679
21
-3.3844424409448819
0
LINE
8
BLACK
6
CONTINUOUS
10
7.7506809842519679
20
-3.4594330708661416
11
7.7431819291338577
21
-3.4631825984251967
0
LINE
8
BLACK
6
CONTINUOUS
10
7.7431819291338577
20
-3.4631825984251967
11
7.7281837795275585
21
-3.4631825984251967
0
LINE
8
BLACK
6
CONTINUOUS
10
7.7281837795275585
20
-3.4631825984251967
11
7.7206847244094483
21
-3.4594330708661416
0
LINE
8
BLACK
6
CONTINUOUS
10
7.7206847244094483
20
-3.4594330708661416
11
7.7169351968503932
21
-3.4556835039370077
0
LINE
8
BLACK
6
CONTINUOUS
10
7.7169351968503932
20
-3.4556835039370077
11
7.7131856692913381
21
-3.4481844488188975
0
LINE
8
BLACK
6
CONTINUOUS
10
7.7131856692913381
20
-3.4481844488188975
11
7.7131856692913381
21
-3.4256872834645669
0
LINE
8
BLACK
6
CONTINUOUS
10
7.7131856692913381
20
-3.4256872834645669
11
7.7169351968503932
21
-3.4181881889763779
0
LINE
8
BLACK
6
CONTINUOUS
10
7.7169351968503932
20
-3.4181881889763779
11
7.7206847244094483
21
-3.4144386614173228
0
LINE
8
BLACK
6
CONTINUOUS
10
7.7206847244094483
20
-3.4144386614173228
11
7.7281837795275585
21
-3.4106891338582677
0
LINE
8
BLACK
6
CONTINUOUS
10
7.7281837795275585
20
-3.4106891338582677
11
7.7431819291338577
21
-3.4106891338582677
0
LINE
8
BLACK
6
CONTINUOUS
10
7.7431819291338577
20
-3.4106891338582677
11
7.7506809842519679
21
-3.4144386614173228
0
LINE
8
BLACK
6
CONTINUOUS
10
7.7806772440944876
20
-3.4931788188976376
11
7.7844267716535427
21
-3.4894292913385825
0
LINE
8
BLACK
6
CONTINUOUS
10
7.7844267716535427
20
-3.4894292913385825
11
7.7919258267716538
21
-3.4781807086614172
0
LINE
8
BLACK
6
CONTINUOUS
10
7.7919258267716538
20
-3.4781807086614172
11
7.7956753543307089
21
-3.4706816535433069
0
LINE
8
BLACK
6
CONTINUOUS
10
7.7956753543307089
20
-3.4706816535433069
11
7.799424881889764
21
-3.4594330708661416
0
LINE
8
BLACK
6
CONTINUOUS
10
7.799424881889764
20
-3.4594330708661416
11
7.8031744094488191
21
-3.4406853937007873
0
LINE
8
BLACK
6
CONTINUOUS
10
7.8031744094488191
20
-3.4406853937007873
11
7.8031744094488191
21
-3.4256872834645669
0
LINE
8
BLACK
6
CONTINUOUS
10
7.8031744094488191
20
-3.4256872834645669
11
7.799424881889764
21
-3.4069396062992126
0
LINE
8
BLACK
6
CONTINUOUS
10
7.799424881889764
20
-3.4069396062992126
11
7.7956753543307089
21
-3.3956910236220472
0
LINE
8
BLACK
6
CONTINUOUS
10
7.7956753543307089
20
-3.3956910236220472
11
7.7919258267716538
21
-3.388191968503937
0
LINE
8
BLACK
6
CONTINUOUS
10
7.7919258267716538
20
-3.388191968503937
11
7.7844267716535427
21
-3.3769433464566929
0
LINE
8
BLACK
6
CONTINUOUS
10
7.7844267716535427
20
-3.3769433464566929
11
7.7806772440944876
21
-3.3731938188976378
0
CIRCLE
8
BLACK
10
5.2015748031496063
20
-3.5311023622047242
40
0.012992125984252
0
LINE
8
BLACK
6
CONTINUOUS
10
5.3322330708661418
20
-3.4883794488188977
11
5.3397321653543308
21
-3.4883794488188977
0
LINE
8
BLACK
6
CONTINUOUS
10
5.3397321653543308
20
-3.4883794488188977
11
5.347231220472441
21
-3.4921289763779528
0
LINE
8
BLACK
6
CONTINUOUS
10
5.347231220472441
20
-3.4921289763779528
11
5.3509807480314961
21
-3.4958785039370079
0
LINE
8
BLACK
6
CONTINUOUS
10
5.3509807480314961
20
-3.4958785039370079
11
5.3547302755905513
21
-3.5033775590551182
0
LINE
8
BLACK
6
CONTINUOUS
10
5.3547302755905513
20
-3.5033775590551182
11
5.3584798031496064
21
-3.5183756692913386
0
LINE
8
BLACK
6
CONTINUOUS
10
5.3584798031496064
20
-3.5183756692913386
11
5.3584798031496064
21
-3.5371233464566929
0
LINE
8
BLACK
6
CONTINUOUS
10
5.3584798031496064
20
-3.5371233464566929
11
5.3547302755905513
21
-3.5521214566929133
0
LINE
8
BLACK
6
CONTINUOUS
10
5.3547302755905513
20
-3.5521214566929133
11
5.3509807480314961
21
-3.5596205118110236
0
LINE
8
BLACK
6
CONTINUOUS
10
5.3509807480314961
20
-3.5596205118110236
11
5.347231220472441
21
-3.5633700787401574
0
LINE
8
BLACK
6
CONTINUOUS
10
5.347231220472441
20
-3.5633700787401574
11
5.3397321653543308
21
-3.5671196062992125
0
LINE
8
BLACK
6
CONTINUOUS
10
5.3397321653543308
20
-3.5671196062992125
11
5.3322330708661418
21
-3.5671196062992125
0
LINE
8
BLACK
6
CONTINUOUS
10
5.3322330708661418
20
-3.5671196062992125
11
5.3247340157480316
21
-3.5633700787401574
0
LINE
8
BLACK
6
CONTINUOUS
10
5.3247340157480316
20
-3.5633700787401574
11
5.3209844881889765
21
-3.5596205118110236
0
LINE
8
BLACK
6
CONTINUOUS
10
5.3209844881889765
20
-3.5596205118110236
11
5.3172349606299214
21
-3.5521214566929133
0
LINE
8
BLACK
6
CONTINUOUS
10
5.3172349606299214
20
-3.5521214566929133
11
5.3134854330708663
21
-3.5371233464566929
0
LINE
8
BLACK
6
CONTINUOUS
10
5.3134854330708663
20
-3.5371233464566929
11
5.3134854330708663
21
-3.5183756692913386
0
LINE
8
BLACK
6
CONTINUOUS
10
5.3134854330708663
20
-3.5183756692913386
11
5.3172349606299214
21
-3.5033775590551182
0
LINE
8
BLACK
6
CONTINUOUS
10
5.3172349606299214
20
-3.5033775590551182
11
5.3209844881889765
21
-3.4958785039370079
0
LINE
8
BLACK
6
CONTINUOUS
10
5.3209844881889765
20
-3.4958785039370079
11
5.3247340157480316
21
-3.4921289763779528
0
LINE
8
BLACK
6
CONTINUOUS
10
5.3247340157480316
20
-3.4921289763779528
11
5.3322330708661418
21
-3.4883794488188977
0
LINE
8
BLACK
6
CONTINUOUS
10
5.3922255905511811
20
-3.5596205118110236
11
5.3959751181102362
21
-3.5633700787401574
0
LINE
8
BLACK
6
CONTINUOUS
10
5.3959751181102362
20
-3.5633700787401574
11
5.3922255905511811
21
-3.5671196062992125
0
LINE
8
BLACK
6
CONTINUOUS
10
5.3922255905511811
20
-3.5671196062992125
11
5.388476062992126
21
-3.5633700787401574
0
LINE
8
BLACK
6
CONTINUOUS
10
5.388476062992126
20
-3.5633700787401574
11
5.3922255905511811
21
-3.5596205118110236
0
LINE
8
BLACK
6
CONTINUOUS
10
5.3922255905511811
20
-3.5596205118110236
11
5.3922255905511811
21
-3.5671196062992125
0
LINE
8
BLACK
6
CONTINUOUS
10
5.4634666929133857
20
-3.4883794488188977
11
5.4484685433070865
21
-3.4883794488188977
0
LINE
8
BLACK
6
CONTINUOUS
10
5.4484685433070865
20
-3.4883794488188977
11
5.4409694881889763
21
-3.4921289763779528
0
LINE
8
BLACK
6
CONTINUOUS
10
5.4409694881889763
20
-3.4921289763779528
11
5.4372199606299212
21
-3.4958785039370079
0
LINE
8
BLACK
6
CONTINUOUS
10
5.4372199606299212
20
-3.4958785039370079
11
5.429720905511811
21
-3.5071270866141733
0
LINE
8
BLACK
6
CONTINUOUS
10
5.429720905511811
20
-3.5071270866141733
11
5.4259713779527559
21
-3.5221251968503937
0
LINE
8
BLACK
6
CONTINUOUS
10
5.4259713779527559
20
-3.5221251968503937
11
5.4259713779527559
21
-3.5521214566929133
0
LINE
8
BLACK
6
CONTINUOUS
10
5.4259713779527559
20
-3.5521214566929133
11
5.429720905511811
21
-3.5596205118110236
0
LINE
8
BLACK
6
CONTINUOUS
10
5.429720905511811
20
-3.5596205118110236
11
5.4334704330708661
21
-3.5633700787401574
0
LINE
8
BLACK
6
CONTINUOUS
10
5.4334704330708661
20
-3.5633700787401574
11
5.4409694881889763
21
-3.5671196062992125
0
LINE
8
BLACK
6
CONTINUOUS
10
5.4409694881889763
20
-3.5671196062992125
11
5.4559676377952755
21
-3.5671196062992125
0
LINE
8
BLACK
6
CONTINUOUS
10
5.4559676377952755
20
-3.5671196062992125
11
5.4634666929133857
21
-3.5633700787401574
0
LINE
8
BLACK
6
CONTINUOUS
10
5.4634666929133857
20
-3.5633700787401574
11
5.4672162204724408
21
-3.5596205118110236
0
LINE
8
BLACK
6
CONTINUOUS
10
5.4672162204724408
20
-3.5596205118110236
11
5.4709657480314959
21
-3.5521214566929133
0
LINE
8
BLACK
6
CONTINUOUS
10
5.4709657480314959
20
-3.5521214566929133
11
5.4709657480314959
21
-3.5333738188976378
0
LINE
8
BLACK
6
CONTINUOUS
10
5.4709657480314959
20
-3.5333738188976378
11
5.4672162204724408
21
-3.5258747637795276
0
LINE
8
BLACK
6
CONTINUOUS
10
5.4672162204724408
20
-3.5258747637795276
11
5.4634666929133857
21
-3.5221251968503937
0
LINE
8
BLACK
6
CONTINUOUS
10
5.4634666929133857
20
-3.5221251968503937
11
5.4559676377952755
21
-3.5183756692913386
0
LINE
8
BLACK
6
CONTINUOUS
10
5.4559676377952755
20
-3.5183756692913386
11
5.4409694881889763
21
-3.5183756692913386
0
LINE
8
BLACK
6
CONTINUOUS
10
5.4409694881889763
20
-3.5183756692913386
11
5.4334704330708661
21
-3.5221251968503937
0
LINE
8
BLACK
6
CONTINUOUS
10
5.4334704330708661
20
-3.5221251968503937
11
5.429720905511811
21
-3.5258747637795276
0
LINE
8
BLACK
6
CONTINUOUS
10
5.429720905511811
20
-3.5258747637795276
11
5.4259713779527559
21
-3.5333738188976378
0
LINE
8
BLACK
6
CONTINUOUS
10
5.5384573228346454
20
-3.4883794488188977
11
5.5234591732283462
21
-3.4883794488188977
0
LINE
8
BLACK
6
CONTINUOUS
10
5.5234591732283462
20
-3.4883794488188977
11
5.515960118110236
21
-3.4921289763779528
0
LINE
8
BLACK
6
CONTINUOUS
10
5.515960118110236
20
-3.4921289763779528
11
5.5122105905511809
21
-3.4958785039370079
0
LINE
8
BLACK
6
CONTINUOUS
10
5.5122105905511809
20
-3.4958785039370079
11
5.5047115354330707
21
-3.5071270866141733
0
LINE
8
BLACK
6
CONTINUOUS
10
5.5047115354330707
20
-3.5071270866141733
11
5.5009620078740156
21
-3.5221251968503937
0
LINE
8
BLACK
6
CONTINUOUS
10
5.5009620078740156
20
-3.5221251968503937
11
5.5009620078740156
21
-3.5521214566929133
0
LINE
8
BLACK
6
CONTINUOUS
10
5.5009620078740156
20
-3.5521214566929133
11
5.5047115354330707
21
-3.5596205118110236
0
LINE
8
BLACK
6
CONTINUOUS
10
5.5047115354330707
20
-3.5596205118110236
11
5.5084610629921258
21
-3.5633700787401574
0
LINE
8
BLACK
6
CONTINUOUS
10
5.5084610629921258
20
-3.5633700787401574
11
5.515960118110236
21
-3.5671196062992125
0
LINE
8
BLACK
6
CONTINUOUS
10
5.515960118110236
20
-3.5671196062992125
11
5.5309582677165352
21
-3.5671196062992125
0
LINE
8
BLACK
6
CONTINUOUS
10
5.5309582677165352
20
-3.5671196062992125
11
5.5384573228346454
21
-3.5633700787401574
0
LINE
8
BLACK
6
CONTINUOUS
10
5.5384573228346454
20
-3.5633700787401574
11
5.5422068503937005
21
-3.5596205118110236
0
LINE
8
BLACK
6
CONTINUOUS
10
5.5422068503937005
20
-3.5596205118110236
11
5.5459563779527556
21
-3.5521214566929133
0
LINE
8
BLACK
6
CONTINUOUS
10
5.5459563779527556
20
-3.5521214566929133
11
5.5459563779527556
21
-3.5333738188976378
0
LINE
8
BLACK
6
CONTINUOUS
10
5.5459563779527556
20
-3.5333738188976378
11
5.5422068503937005
21
-3.5258747637795276
0
LINE
8
BLACK
6
CONTINUOUS
10
5.5422068503937005
20
-3.5258747637795276
11
5.5384573228346454
21
-3.5221251968503937
0
LINE
8
BLACK
6
CONTINUOUS
10
5.5384573228346454
20
-3.5221251968503937
11
5.5309582677165352
21
-3.5183756692913386
0
LINE
8
BLACK
6
CONTINUOUS
10
5.5309582677165352
20
-3.5183756692913386
11
5.515960118110236
21
-3.5183756692913386
0
LINE
8
BLACK
6
CONTINUOUS
10
5.515960118110236
20
-3.5183756692913386
11
5.5084610629921258
21
-3.5221251968503937
0
LINE
8
BLACK
6
CONTINUOUS
10
5.5084610629921258
20
-3.5221251968503937
11
5.5047115354330707
21
-3.5258747637795276
0
LINE
8
BLACK
6
CONTINUOUS
10
5.5047115354330707
20
-3.5258747637795276
11
5.5009620078740156
21
-3.5333738188976378
0
LINE
8
BLACK
6
CONTINUOUS
10
5.5947002755905508
20
-3.4883794488188977
11
5.6021993700787398
21
-3.4883794488188977
0
LINE
8
BLACK
6
CONTINUOUS
10
5.6021993700787398
20
-3.4883794488188977
11
5.60969842519685
21
-3.4921289763779528
0
LINE
8
BLACK
6
CONTINUOUS
10
5.60969842519685
20
-3.4921289763779528
11
5.6134479527559051
21
-3.4958785039370079
0
LINE
8
BLACK
6
CONTINUOUS
10
5.6134479527559051
20
-3.4958785039370079
11
5.6171974803149602
21
-3.5033775590551182
0
LINE
8
BLACK
6
CONTINUOUS
10
5.6171974803149602
20
-3.5033775590551182
11
5.6209470078740154
21
-3.5183756692913386
0
LINE
8
BLACK
6
CONTINUOUS
10
5.6209470078740154
20
-3.5183756692913386
11
5.6209470078740154
21
-3.5371233464566929
0
LINE
8
BLACK
6
CONTINUOUS
10
5.6209470078740154
20
-3.5371233464566929
11
5.6171974803149602
21
-3.5521214566929133
0
LINE
8
BLACK
6
CONTINUOUS
10
5.6171974803149602
20
-3.5521214566929133
11
5.6134479527559051
21
-3.5596205118110236
0
LINE
8
BLACK
6
CONTINUOUS
10
5.6134479527559051
20
-3.5596205118110236
11
5.60969842519685
21
-3.5633700787401574
0
LINE
8
BLACK
6
CONTINUOUS
10
5.60969842519685
20
-3.5633700787401574
11
5.6021993700787398
21
-3.5671196062992125
0
LINE
8
BLACK
6
CONTINUOUS
10
5.6021993700787398
20
-3.5671196062992125
11
5.5947002755905508
21
-3.5671196062992125
0
LINE
8
BLACK
6
CONTINUOUS
10
5.5947002755905508
20
-3.5671196062992125
11
5.5872012204724406
21
-3.5633700787401574
0
LINE
8
BLACK
6
CONTINUOUS
10
5.5872012204724406
20
-3.5633700787401574
11
5.5834516929133855
21
-3.5596205118110236
0
LINE
8
BLACK
6
CONTINUOUS
10
5.5834516929133855
20
-3.5596205118110236
11
5.5797021653543304
21
-3.5521214566929133
0
LINE
8
BLACK
6
CONTINUOUS
10
5.5797021653543304
20
-3.5521214566929133
11
5.5759526377952753
21
-3.5371233464566929
0
LINE
8
BLACK
6
CONTINUOUS
10
5.5759526377952753
20
-3.5371233464566929
11
5.5759526377952753
21
-3.5183756692913386
0
LINE
8
BLACK
6
CONTINUOUS
10
5.5759526377952753
20
-3.5183756692913386
11
5.5797021653543304
21
-3.5033775590551182
0
LINE
8
BLACK
6
CONTINUOUS
10
5.5797021653543304
20
-3.5033775590551182
11
5.5834516929133855
21
-3.4958785039370079
0
LINE
8
BLACK
6
CONTINUOUS
10
5.5834516929133855
20
-3.4958785039370079
11
5.5872012204724406
21
-3.4921289763779528
0
LINE
8
BLACK
6
CONTINUOUS
10
5.5872012204724406
20
-3.4921289763779528
11
5.5947002755905508
21
-3.4883794488188977
0
LINE
8
BLACK
6
CONTINUOUS
10
5.6546927952755901
20
-3.5671196062992125
11
5.6546927952755901
21
-3.5146261417322835
0
LINE
8
BLACK
6
CONTINUOUS
10
5.6546927952755901
20
-3.5221251968503937
11
5.6584423228346452
21
-3.5183756692913386
0
LINE
8
BLACK
6
CONTINUOUS
10
5.6584423228346452
20
-3.5183756692913386
11
5.6659413779527554
21
-3.5146261417322835
0
LINE
8
BLACK
6
CONTINUOUS
10
5.6659413779527554
20
-3.5146261417322835
11
5.6771899999999995
21
-3.5146261417322835
0
LINE
8
BLACK
6
CONTINUOUS
10
5.6771899999999995
20
-3.5146261417322835
11
5.6846890551181097
21
-3.5183756692913386
0
LINE
8
BLACK
6
CONTINUOUS
10
5.6846890551181097
20
-3.5183756692913386
11
5.6884385826771648
21
-3.5258747637795276
0
LINE
8
BLACK
6
CONTINUOUS
10
5.6884385826771648
20
-3.5258747637795276
11
5.6884385826771648
21
-3.5671196062992125
0
LINE
8
BLACK
6
CONTINUOUS
10
5.6884385826771648
20
-3.5258747637795276
11
5.69218811023622
21
-3.5183756692913386
0
LINE
8
BLACK
6
CONTINUOUS
10
5.69218811023622
20
-3.5183756692913386
11
5.6996871653543302
21
-3.5146261417322835
0
LINE
8
BLACK
6
CONTINUOUS
10
5.6996871653543302
20
-3.5146261417322835
11
5.7109357480314955
21
-3.5146261417322835
0
LINE
8
BLACK
6
CONTINUOUS
10
5.7109357480314955
20
-3.5146261417322835
11
5.7184348425196845
21
-3.5183756692913386
0
LINE
8
BLACK
6
CONTINUOUS
10
5.7184348425196845
20
-3.5183756692913386
11
5.7221843700787396
21
-3.5258747637795276
0
LINE
8
BLACK
6
CONTINUOUS
10
5.7221843700787396
20
-3.5258747637795276
11
5.7221843700787396
21
-3.5671196062992125
0
LINE
8
BLACK
6
CONTINUOUS
10
5.7596796850393703
20
-3.5671196062992125
11
5.7596796850393703
21
-3.5146261417322835
0
LINE
8
BLACK
6
CONTINUOUS
10
5.7596796850393703
20
-3.5221251968503937
11
5.7634292125984254
21
-3.5183756692913386
0
LINE
8
BLACK
6
CONTINUOUS
10
5.7634292125984254
20
-3.5183756692913386
11
5.7709282677165357
21
-3.5146261417322835
0
LINE
8
BLACK
6
CONTINUOUS
10
5.7709282677165357
20
-3.5146261417322835
11
5.7821768897637797
21
-3.5146261417322835
0
LINE
8
BLACK
6
CONTINUOUS
10
5.7821768897637797
20
-3.5146261417322835
11
5.78967594488189
21
-3.5183756692913386
0
LINE
8
BLACK
6
CONTINUOUS
10
5.78967594488189
20
-3.5183756692913386
11
5.7934254724409451
21
-3.5258747637795276
0
LINE
8
BLACK
6
CONTINUOUS
10
5.7934254724409451
20
-3.5258747637795276
11
5.7934254724409451
21
-3.5671196062992125
0
LINE
8
BLACK
6
CONTINUOUS
10
5.7934254724409451
20
-3.5258747637795276
11
5.7971750000000002
21
-3.5183756692913386
0
LINE
8
BLACK
6
CONTINUOUS
10
5.7971750000000002
20
-3.5183756692913386
11
5.8046740551181104
21
-3.5146261417322835
0
LINE
8
BLACK
6
CONTINUOUS
10
5.8046740551181104
20
-3.5146261417322835
11
5.8159226377952757
21
-3.5146261417322835
0
LINE
8
BLACK
6
CONTINUOUS
10
5.8159226377952757
20
-3.5146261417322835
11
5.8234217322834647
21
-3.5183756692913386
0
LINE
8
BLACK
6
CONTINUOUS
10
5.8234217322834647
20
-3.5183756692913386
11
5.8271712598425198
21
-3.5258747637795276
0
LINE
8
BLACK
6
CONTINUOUS
10
5.8271712598425198
20
-3.5258747637795276
11
5.8271712598425198
21
-3.5671196062992125
0
LINE
8
BLACK
6
CONTINUOUS
10
5.9809020472440944
20
-3.4846299212598426
11
5.9134105118110236
21
-3.5858672440944881
0
LINE
8
BLACK
6
CONTINUOUS
10
6.0821394094488186
20
-3.4883794488188977
11
6.0896385039370076
21
-3.4883794488188977
0
LINE
8
BLACK
6
CONTINUOUS
10
6.0896385039370076
20
-3.4883794488188977
11
6.0971375590551178
21
-3.4921289763779528
0
LINE
8
BLACK
6
CONTINUOUS
10
6.0971375590551178
20
-3.4921289763779528
11
6.1008870866141729
21
-3.4958785039370079
0
LINE
8
BLACK
6
CONTINUOUS
10
6.1008870866141729
20
-3.4958785039370079
11
6.104636614173228
21
-3.5033775590551182
0
LINE
8
BLACK
6
CONTINUOUS
10
6.104636614173228
20
-3.5033775590551182
11
6.1083861417322831
21
-3.5183756692913386
0
LINE
8
BLACK
6
CONTINUOUS
10
6.1083861417322831
20
-3.5183756692913386
11
6.1083861417322831
21
-3.5371233464566929
0
LINE
8
BLACK
6
CONTINUOUS
10
6.1083861417322831
20
-3.5371233464566929
11
6.104636614173228
21
-3.5521214566929133
0
LINE
8
BLACK
6
CONTINUOUS
10
6.104636614173228
20
-3.5521214566929133
11
6.1008870866141729
21
-3.5596205118110236
0
LINE
8
BLACK
6
CONTINUOUS
10
6.1008870866141729
20
-3.5596205118110236
11
6.0971375590551178
21
-3.5633700787401574
0
LINE
8
BLACK
6
CONTINUOUS
10
6.0971375590551178
20
-3.5633700787401574
11
6.0896385039370076
21
-3.5671196062992125
0
LINE
8
BLACK
6
CONTINUOUS
10
6.0896385039370076
20
-3.5671196062992125
11
6.0821394094488186
21
-3.5671196062992125
0
LINE
8
BLACK
6
CONTINUOUS
10
6.0821394094488186
20
-3.5671196062992125
11
6.0746403543307084
21
-3.5633700787401574
0
LINE
8
BLACK
6
CONTINUOUS
10
6.0746403543307084
20
-3.5633700787401574
11
6.0708908267716533
21
-3.5596205118110236
0
LINE
8
BLACK
6
CONTINUOUS
10
6.0708908267716533
20
-3.5596205118110236
11
6.0671412992125981
21
-3.5521214566929133
0
LINE
8
BLACK
6
CONTINUOUS
10
6.0671412992125981
20
-3.5521214566929133
11
6.063391771653543
21
-3.5371233464566929
0
LINE
8
BLACK
6
CONTINUOUS
10
6.063391771653543
20
-3.5371233464566929
11
6.063391771653543
21
-3.5183756692913386
0
LINE
8
BLACK
6
CONTINUOUS
10
6.063391771653543
20
-3.5183756692913386
11
6.0671412992125981
21
-3.5033775590551182
0
LINE
8
BLACK
6
CONTINUOUS
10
6.0671412992125981
20
-3.5033775590551182
11
6.0708908267716533
21
-3.4958785039370079
0
LINE
8
BLACK
6
CONTINUOUS
10
6.0708908267716533
20
-3.4958785039370079
11
6.0746403543307084
21
-3.4921289763779528
0
LINE
8
BLACK
6
CONTINUOUS
10
6.0746403543307084
20
-3.4921289763779528
11
6.0821394094488186
21
-3.4883794488188977
0
LINE
8
BLACK
6
CONTINUOUS
10
6.1421319291338579
20
-3.5596205118110236
11
6.145881456692913
21
-3.5633700787401574
0
LINE
8
BLACK
6
CONTINUOUS
10
6.145881456692913
20
-3.5633700787401574
11
6.1421319291338579
21
-3.5671196062992125
0
LINE
8
BLACK
6
CONTINUOUS
10
6.1421319291338579
20
-3.5671196062992125
11
6.1383824015748027
21
-3.5633700787401574
0
LINE
8
BLACK
6
CONTINUOUS
10
6.1383824015748027
20
-3.5633700787401574
11
6.1421319291338579
21
-3.5596205118110236
0
LINE
8
BLACK
6
CONTINUOUS
10
6.1421319291338579
20
-3.5596205118110236
11
6.1421319291338579
21
-3.5671196062992125
0
LINE
8
BLACK
6
CONTINUOUS
10
6.1946253543307082
20
-3.4883794488188977
11
6.2021244488188971
21
-3.4883794488188977
0
LINE
8
BLACK
6
CONTINUOUS
10
6.2021244488188971
20
-3.4883794488188977
11
6.2096235039370073
21
-3.4921289763779528
0
LINE
8
BLACK
6
CONTINUOUS
10
6.2096235039370073
20
-3.4921289763779528
11
6.2133730314960625
21
-3.4958785039370079
0
LINE
8
BLACK
6
CONTINUOUS
10
6.2133730314960625
20
-3.4958785039370079
11
6.2171225590551176
21
-3.5033775590551182
0
LINE
8
BLACK
6
CONTINUOUS
10
6.2171225590551176
20
-3.5033775590551182
11
6.2208720866141727
21
-3.5183756692913386
0
LINE
8
BLACK
6
CONTINUOUS
10
6.2208720866141727
20
-3.5183756692913386
11
6.2208720866141727
21
-3.5371233464566929
0
LINE
8
BLACK
6
CONTINUOUS
10
6.2208720866141727
20
-3.5371233464566929
11
6.2171225590551176
21
-3.5521214566929133
0
LINE
8
BLACK
6
CONTINUOUS
10
6.2171225590551176
20
-3.5521214566929133
11
6.2133730314960625
21
-3.5596205118110236
0
LINE
8
BLACK
6
CONTINUOUS
10
6.2133730314960625
20
-3.5596205118110236
11
6.2096235039370073
21
-3.5633700787401574
0
LINE
8
BLACK
6
CONTINUOUS
10
6.2096235039370073
20
-3.5633700787401574
11
6.2021244488188971
21
-3.5671196062992125
0
LINE
8
BLACK
6
CONTINUOUS
10
6.2021244488188971
20
-3.5671196062992125
11
6.1946253543307082
21
-3.5671196062992125
0
LINE
8
BLACK
6
CONTINUOUS
10
6.1946253543307082
20
-3.5671196062992125
11
6.1871262992125979
21
-3.5633700787401574
0
LINE
8
BLACK
6
CONTINUOUS
10
6.1871262992125979
20
-3.5633700787401574
11
6.1833767716535428
21
-3.5596205118110236
0
LINE
8
BLACK
6
CONTINUOUS
10
6.1833767716535428
20
-3.5596205118110236
11
6.1796272440944877
21
-3.5521214566929133
0
LINE
8
BLACK
6
CONTINUOUS
10
6.1796272440944877
20
-3.5521214566929133
11
6.1758777165354326
21
-3.5371233464566929
0
LINE
8
BLACK
6
CONTINUOUS
10
6.1758777165354326
20
-3.5371233464566929
11
6.1758777165354326
21
-3.5183756692913386
0
LINE
8
BLACK
6
CONTINUOUS
10
6.1758777165354326
20
-3.5183756692913386
11
6.1796272440944877
21
-3.5033775590551182
0
LINE
8
BLACK
6
CONTINUOUS
10
6.1796272440944877
20
-3.5033775590551182
11
6.1833767716535428
21
-3.4958785039370079
0
LINE
8
BLACK
6
CONTINUOUS
10
6.1833767716535428
20
-3.4958785039370079
11
6.1871262992125979
21
-3.4921289763779528
0
LINE
8
BLACK
6
CONTINUOUS
10
6.1871262992125979
20
-3.4921289763779528
11
6.1946253543307082
21
-3.4883794488188977
0
LINE
8
BLACK
6
CONTINUOUS
10
6.2508683464566932
20
-3.4958785039370079
11
6.2546178740157483
21
-3.4921289763779528
0
LINE
8
BLACK
6
CONTINUOUS
10
6.2546178740157483
20
-3.4921289763779528
11
6.2621169291338585
21
-3.4883794488188977
0
LINE
8
BLACK
6
CONTINUOUS
10
6.2621169291338585
20
-3.4883794488188977
11
6.2808646062992128
21
-3.4883794488188977
0
LINE
8
BLACK
6
CONTINUOUS
10
6.2808646062992128
20
-3.4883794488188977
11
6.2883636614173231
21
-3.4921289763779528
0
LINE
8
BLACK
6
CONTINUOUS
10
6.2883636614173231
20
-3.4921289763779528
11
6.2921131889763782
21
-3.4958785039370079
0
LINE
8
BLACK
6
CONTINUOUS
10
6.2921131889763782
20
-3.4958785039370079
11
6.2958627165354333
21
-3.5033775590551182
0
LINE
8
BLACK
6
CONTINUOUS
10
6.2958627165354333
20
-3.5033775590551182
11
6.2958627165354333
21
-3.5108766141732284
0
LINE
8
BLACK
6
CONTINUOUS
10
6.2958627165354333
20
-3.5108766141732284
11
6.2921131889763782
21
-3.5221251968503937
0
LINE
8
BLACK
6
CONTINUOUS
10
6.2921131889763782
20
-3.5221251968503937
11
6.2471188188976381
21
-3.5671196062992125
0
LINE
8
BLACK
6
CONTINUOUS
10
6.2471188188976381
20
-3.5671196062992125
11
6.2958627165354333
21
-3.5671196062992125
0
LINE
8
BLACK
6
CONTINUOUS
10
6.3633542913385828
20
-3.4883794488188977
11
6.3483561417322836
21
-3.4883794488188977
0
LINE
8
BLACK
6
CONTINUOUS
10
6.3483561417322836
20
-3.4883794488188977
11
6.3408570866141734
21
-3.4921289763779528
0
LINE
8
BLACK
6
CONTINUOUS
10
6.3408570866141734
20
-3.4921289763779528
11
6.3371075590551182
21
-3.4958785039370079
0
LINE
8
BLACK
6
CONTINUOUS
10
6.3371075590551182
20
-3.4958785039370079
11
6.329608503937008
21
-3.5071270866141733
0
LINE
8
BLACK
6
CONTINUOUS
10
6.329608503937008
20
-3.5071270866141733
11
6.3258589763779529
21
-3.5221251968503937
0
LINE
8
BLACK
6
CONTINUOUS
10
6.3258589763779529
20
-3.5221251968503937
11
6.3258589763779529
21
-3.5521214566929133
0
LINE
8
BLACK
6
CONTINUOUS
10
6.3258589763779529
20
-3.5521214566929133
11
6.329608503937008
21
-3.5596205118110236
0
LINE
8
BLACK
6
CONTINUOUS
10
6.329608503937008
20
-3.5596205118110236
11
6.3333580314960631
21
-3.5633700787401574
0
LINE
8
BLACK
6
CONTINUOUS
10
6.3333580314960631
20
-3.5633700787401574
11
6.3408570866141734
21
-3.5671196062992125
0
LINE
8
BLACK
6
CONTINUOUS
10
6.3408570866141734
20
-3.5671196062992125
11
6.3558552362204725
21
-3.5671196062992125
0
LINE
8
BLACK
6
CONTINUOUS
10
6.3558552362204725
20
-3.5671196062992125
11
6.3633542913385828
21
-3.5633700787401574
0
LINE
8
BLACK
6
CONTINUOUS
10
6.3633542913385828
20
-3.5633700787401574
11
6.3671038188976379
21
-3.5596205118110236
0
LINE
8
BLACK
6
CONTINUOUS
10
6.3671038188976379
20
-3.5596205118110236
11
6.370853346456693
21
-3.5521214566929133
0
LINE
8
BLACK
6
CONTINUOUS
10
6.370853346456693
20
-3.5521214566929133
11
6.370853346456693
21
-3.5333738188976378
0
LINE
8
BLACK
6
CONTINUOUS
10
6.370853346456693
20
-3.5333738188976378
11
6.3671038188976379
21
-3.5258747637795276
0
LINE
8
BLACK
6
CONTINUOUS
10
6.3671038188976379
20
-3.5258747637795276
11
6.3633542913385828
21
-3.5221251968503937
0
LINE
8
BLACK
6
CONTINUOUS
10
6.3633542913385828
20
-3.5221251968503937
11
6.3558552362204725
21
-3.5183756692913386
0
LINE
8
BLACK
6
CONTINUOUS
10
6.3558552362204725
20
-3.5183756692913386
11
6.3408570866141734
21
-3.5183756692913386
0
LINE
8
BLACK
6
CONTINUOUS
10
6.3408570866141734
20
-3.5183756692913386
11
6.3333580314960631
21
-3.5221251968503937
0
LINE
8
BLACK
6
CONTINUOUS
10
6.3333580314960631
20
-3.5221251968503937
11
6.329608503937008
21
-3.5258747637795276
0
LINE
8
BLACK
6
CONTINUOUS
10
6.329608503937008
20
-3.5258747637795276
11
6.3258589763779529
21
-3.5333738188976378
0
LINE
8
BLACK
6
CONTINUOUS
10
6.4195972440944882
20
-3.4883794488188977
11
6.4270963385826771
21
-3.4883794488188977
0
LINE
8
BLACK
6
CONTINUOUS
10
6.4270963385826771
20
-3.4883794488188977
11
6.4345953937007874
21
-3.4921289763779528
0
LINE
8
BLACK
6
CONTINUOUS
10
6.4345953937007874
20
-3.4921289763779528
11
6.4383449212598425
21
-3.4958785039370079
0
LINE
8
BLACK
6
CONTINUOUS
10
6.4383449212598425
20
-3.4958785039370079
11
6.4420944488188976
21
-3.5033775590551182
0
LINE
8
BLACK
6
CONTINUOUS
10
6.4420944488188976
20
-3.5033775590551182
11
6.4458439763779527
21
-3.5183756692913386
0
LINE
8
BLACK
6
CONTINUOUS
10
6.4458439763779527
20
-3.5183756692913386
11
6.4458439763779527
21
-3.5371233464566929
0
LINE
8
BLACK
6
CONTINUOUS
10
6.4458439763779527
20
-3.5371233464566929
11
6.4420944488188976
21
-3.5521214566929133
0
LINE
8
BLACK
6
CONTINUOUS
10
6.4420944488188976
20
-3.5521214566929133
11
6.4383449212598425
21
-3.5596205118110236
0
LINE
8
BLACK
6
CONTINUOUS
10
6.4383449212598425
20
-3.5596205118110236
11
6.4345953937007874
21
-3.5633700787401574
0
LINE
8
BLACK
6
CONTINUOUS
10
6.4345953937007874
20
-3.5633700787401574
11
6.4270963385826771
21
-3.5671196062992125
0
LINE
8
BLACK
6
CONTINUOUS
10
6.4270963385826771
20
-3.5671196062992125
11
6.4195972440944882
21
-3.5671196062992125
0
LINE
8
BLACK
6
CONTINUOUS
10
6.4195972440944882
20
-3.5671196062992125
11
6.412098188976378
21
-3.5633700787401574
0
LINE
8
BLACK
6
CONTINUOUS
10
6.412098188976378
20
-3.5633700787401574
11
6.4083486614173228
21
-3.5596205118110236
0
LINE
8
BLACK
6
CONTINUOUS
10
6.4083486614173228
20
-3.5596205118110236
11
6.4045991338582677
21
-3.5521214566929133
0
LINE
8
BLACK
6
CONTINUOUS
10
6.4045991338582677
20
-3.5521214566929133
11
6.4008496062992126
21
-3.5371233464566929
0
LINE
8
BLACK
6
CONTINUOUS
10
6.4008496062992126
20
-3.5371233464566929
11
6.4008496062992126
21
-3.5183756692913386
0
LINE
8
BLACK
6
CONTINUOUS
10
6.4008496062992126
20
-3.5183756692913386
11
6.4045991338582677
21
-3.5033775590551182
0
LINE
8
BLACK
6
CONTINUOUS
10
6.4045991338582677
20
-3.5033775590551182
11
6.4083486614173228
21
-3.4958785039370079
0
LINE
8
BLACK
6
CONTINUOUS
10
6.4083486614173228
20
-3.4958785039370079
11
6.412098188976378
21
-3.4921289763779528
0
LINE
8
BLACK
6
CONTINUOUS
10
6.412098188976378
20
-3.4921289763779528
11
6.4195972440944882
21
-3.4883794488188977
0
LINE
8
BLACK
6
CONTINUOUS
10
6.4758402362204723
20
-3.4883794488188977
11
6.4758402362204723
21
-3.5033775590551182
0
LINE
8
BLACK
6
CONTINUOUS
10
6.505836496062992
20
-3.4883794488188977
11
6.505836496062992
21
-3.5033775590551182
0
LINE
8
BLACK
6
CONTINUOUS
10
6.6220720078740154
20
-3.5971158267716534
11
6.6183224409448815
21
-3.5933662992125983
0
LINE
8
BLACK
6
CONTINUOUS
10
6.6183224409448815
20
-3.5933662992125983
11
6.6108233858267713
21
-3.582117716535433
0
LINE
8
BLACK
6
CONTINUOUS
10
6.6108233858267713
20
-3.582117716535433
11
6.6070738582677162
21
-3.5746186614173228
0
LINE
8
BLACK
6
CONTINUOUS
10
6.6070738582677162
20
-3.5746186614173228
11
6.6033243307086611
21
-3.5633700787401574
0
LINE
8
BLACK
6
CONTINUOUS
10
6.6033243307086611
20
-3.5633700787401574
11
6.599574803149606
21
-3.5446224015748031
0
LINE
8
BLACK
6
CONTINUOUS
10
6.599574803149606
20
-3.5446224015748031
11
6.599574803149606
21
-3.5296242913385827
0
LINE
8
BLACK
6
CONTINUOUS
10
6.599574803149606
20
-3.5296242913385827
11
6.6033243307086611
21
-3.5108766141732284
0
LINE
8
BLACK
6
CONTINUOUS
10
6.6033243307086611
20
-3.5108766141732284
11
6.6070738582677162
21
-3.4996280314960631
0
LINE
8
BLACK
6
CONTINUOUS
10
6.6070738582677162
20
-3.4996280314960631
11
6.6108233858267713
21
-3.4921289763779528
0
LINE
8
BLACK
6
CONTINUOUS
10
6.6108233858267713
20
-3.4921289763779528
11
6.6183224409448815
21
-3.4808803543307087
0
LINE
8
BLACK
6
CONTINUOUS
10
6.6183224409448815
20
-3.4808803543307087
11
6.6220720078740154
21
-3.4771308267716536
0
LINE
8
BLACK
6
CONTINUOUS
10
6.6933130708661412
20
-3.5671196062992125
11
6.6483187007874012
21
-3.5671196062992125
0
LINE
8
BLACK
6
CONTINUOUS
10
6.6708158661417318
20
-3.5671196062992125
11
6.6708158661417318
21
-3.4883794488188977
0
LINE
8
BLACK
6
CONTINUOUS
10
6.6708158661417318
20
-3.4883794488188977
11
6.6633168110236216
21
-3.4996280314960631
0
LINE
8
BLACK
6
CONTINUOUS
10
6.6633168110236216
20
-3.4996280314960631
11
6.6558177559055114
21
-3.5071270866141733
0
LINE
8
BLACK
6
CONTINUOUS
10
6.6558177559055114
20
-3.5071270866141733
11
6.6483187007874012
21
-3.5108766141732284
0
LINE
8
BLACK
6
CONTINUOUS
10
6.7870513779527561
20
-3.5671196062992125
11
6.7870513779527561
21
-3.4883794488188977
0
LINE
8
BLACK
6
CONTINUOUS
10
6.8207971653543309
20
-3.5671196062992125
11
6.8207971653543309
21
-3.5258747637795276
0
LINE
8
BLACK
6
CONTINUOUS
10
6.8207971653543309
20
-3.5258747637795276
11
6.8170476377952758
21
-3.5183756692913386
0
LINE
8
BLACK
6
CONTINUOUS
10
6.8170476377952758
20
-3.5183756692913386
11
6.8095485826771656
21
-3.5146261417322835
0
LINE
8
BLACK
6
CONTINUOUS
10
6.8095485826771656
20
-3.5146261417322835
11
6.7982999606299215
21
-3.5146261417322835
0
LINE
8
BLACK
6
CONTINUOUS
10
6.7982999606299215
20
-3.5146261417322835
11
6.7908009055118113
21
-3.5183756692913386
0
LINE
8
BLACK
6
CONTINUOUS
10
6.7908009055118113
20
-3.5183756692913386
11
6.7870513779527561
21
-3.5221251968503937
0
LINE
8
BLACK
6
CONTINUOUS
10
6.8695410629921261
20
-3.5671196062992125
11
6.8620420078740159
21
-3.5633700787401574
0
LINE
8
BLACK
6
CONTINUOUS
10
6.8620420078740159
20
-3.5633700787401574
11
6.8582924803149607
21
-3.5596205118110236
0
LINE
8
BLACK
6
CONTINUOUS
10
6.8582924803149607
20
-3.5596205118110236
11
6.8545429527559056
21
-3.5521214566929133
0
LINE
8
BLACK
6
CONTINUOUS
10
6.8545429527559056
20
-3.5521214566929133
11
6.8545429527559056
21
-3.5296242913385827
0
LINE
8
BLACK
6
CONTINUOUS
10
6.8545429527559056
20
-3.5296242913385827
11
6.8582924803149607
21
-3.5221251968503937
0
LINE
8
BLACK
6
CONTINUOUS
10
6.8582924803149607
20
-3.5221251968503937
11
6.8620420078740159
21
-3.5183756692913386
0
LINE
8
BLACK
6
CONTINUOUS
10
6.8620420078740159
20
-3.5183756692913386
11
6.8695410629921261
21
-3.5146261417322835
0
LINE
8
BLACK
6
CONTINUOUS
10
6.8695410629921261
20
-3.5146261417322835
11
6.8807896850393702
21
-3.5146261417322835
0
LINE
8
BLACK
6
CONTINUOUS
10
6.8807896850393702
20
-3.5146261417322835
11
6.8882887401574804
21
-3.5183756692913386
0
LINE
8
BLACK
6
CONTINUOUS
10
6.8882887401574804
20
-3.5183756692913386
11
6.8920382677165355
21
-3.5221251968503937
0
LINE
8
BLACK
6
CONTINUOUS
10
6.8920382677165355
20
-3.5221251968503937
11
6.8957877952755906
21
-3.5296242913385827
0
LINE
8
BLACK
6
CONTINUOUS
10
6.8957877952755906
20
-3.5296242913385827
11
6.8957877952755906
21
-3.5521214566929133
0
LINE
8
BLACK
6
CONTINUOUS
10
6.8957877952755906
20
-3.5521214566929133
11
6.8920382677165355
21
-3.5596205118110236
0
LINE
8
BLACK
6
CONTINUOUS
10
6.8920382677165355
20
-3.5596205118110236
11
6.8882887401574804
21
-3.5633700787401574
0
LINE
8
BLACK
6
CONTINUOUS
10
6.8882887401574804
20
-3.5633700787401574
11
6.8807896850393702
21
-3.5671196062992125
0
LINE
8
BLACK
6
CONTINUOUS
10
6.8807896850393702
20
-3.5671196062992125
11
6.8695410629921261
21
-3.5671196062992125
0
LINE
8
BLACK
6
CONTINUOUS
10
6.9407821653543307
20
-3.5671196062992125
11
6.9332831102362205
21
-3.5633700787401574
0
LINE
8
BLACK
6
CONTINUOUS
10
6.9332831102362205
20
-3.5633700787401574
11
6.9295335826771653
21
-3.5558709842519685
0
LINE
8
BLACK
6
CONTINUOUS
10
6.9295335826771653
20
-3.5558709842519685
11
6.9295335826771653
21
-3.4883794488188977
0
LINE
8
BLACK
6
CONTINUOUS
10
7.0007746850393699
20
-3.5633700787401574
11
6.9932756299212597
21
-3.5671196062992125
0
LINE
8
BLACK
6
CONTINUOUS
10
6.9932756299212597
20
-3.5671196062992125
11
6.9782774803149605
21
-3.5671196062992125
0
LINE
8
BLACK
6
CONTINUOUS
10
6.9782774803149605
20
-3.5671196062992125
11
6.9707784251968503
21
-3.5633700787401574
0
LINE
8
BLACK
6
CONTINUOUS
10
6.9707784251968503
20
-3.5633700787401574
11
6.9670288976377952
21
-3.5558709842519685
0
LINE
8
BLACK
6
CONTINUOUS
10
6.9670288976377952
20
-3.5558709842519685
11
6.9670288976377952
21
-3.5258747637795276
0
LINE
8
BLACK
6
CONTINUOUS
10
6.9670288976377952
20
-3.5258747637795276
11
6.9707784251968503
21
-3.5183756692913386
0
LINE
8
BLACK
6
CONTINUOUS
10
6.9707784251968503
20
-3.5183756692913386
11
6.9782774803149605
21
-3.5146261417322835
0
LINE
8
BLACK
6
CONTINUOUS
10
6.9782774803149605
20
-3.5146261417322835
11
6.9932756299212597
21
-3.5146261417322835
0
LINE
8
BLACK
6
CONTINUOUS
10
6.9932756299212597
20
-3.5146261417322835
11
7.0007746850393699
21
-3.5183756692913386
0
LINE
8
BLACK
6
CONTINUOUS
10
7.0007746850393699
20
-3.5183756692913386
11
7.0045242125984251
21
-3.5258747637795276
0
LINE
8
BLACK
6
CONTINUOUS
10
7.0045242125984251
20
-3.5258747637795276
11
7.0045242125984251
21
-3.5333738188976378
0
LINE
8
BLACK
6
CONTINUOUS
10
7.0045242125984251
20
-3.5333738188976378
11
6.9670288976377952
21
-3.540872874015748
0
LINE
8
BLACK
6
CONTINUOUS
10
7.0307709448818896
20
-3.5971158267716534
11
7.0345204724409447
21
-3.5933662992125983
0
LINE
8
BLACK
6
CONTINUOUS
10
7.0345204724409447
20
-3.5933662992125983
11
7.0420195275590549
21
-3.582117716535433
0
LINE
8
BLACK
6
CONTINUOUS
10
7.0420195275590549
20
-3.582117716535433
11
7.04576905511811
21
-3.5746186614173228
0
LINE
8
BLACK
6
CONTINUOUS
10
7.04576905511811
20
-3.5746186614173228
11
7.0495185826771651
21
-3.5633700787401574
0
LINE
8
BLACK
6
CONTINUOUS
10
7.0495185826771651
20
-3.5633700787401574
11
7.0532681102362202
21
-3.5446224015748031
0
LINE
8
BLACK
6
CONTINUOUS
10
7.0532681102362202
20
-3.5446224015748031
11
7.0532681102362202
21
-3.5296242913385827
0
LINE
8
BLACK
6
CONTINUOUS
10
7.0532681102362202
20
-3.5296242913385827
11
7.0495185826771651
21
-3.5108766141732284
0
LINE
8
BLACK
6
CONTINUOUS
10
7.0495185826771651
20
-3.5108766141732284
11
7.04576905511811
21
-3.4996280314960631
0
LINE
8
BLACK
6
CONTINUOUS
10
7.04576905511811
20
-3.4996280314960631
11
7.0420195275590549
21
-3.4921289763779528
0
LINE
8
BLACK
6
CONTINUOUS
10
7.0420195275590549
20
-3.4921289763779528
11
7.0345204724409447
21
-3.4808803543307087
0
LINE
8
BLACK
6
CONTINUOUS
10
7.0345204724409447
20
-3.4808803543307087
11
7.0307709448818896
21
-3.4771308267716536
0
LINE
8
BLACK
6
CONTINUOUS
10
7.1732531496062988
20
-3.5971158267716534
11
7.1695035826771649
21
-3.5933662992125983
0
LINE
8
BLACK
6
CONTINUOUS
10
7.1695035826771649
20
-3.5933662992125983
11
7.1620045275590547
21
-3.582117716535433
0
LINE
8
BLACK
6
CONTINUOUS
10
7.1620045275590547
20
-3.582117716535433
11
7.1582549999999996
21
-3.5746186614173228
0
LINE
8
BLACK
6
CONTINUOUS
10
7.1582549999999996
20
-3.5746186614173228
11
7.1545054724409445
21
-3.5633700787401574
0
LINE
8
BLACK
6
CONTINUOUS
10
7.1545054724409445
20
-3.5633700787401574
11
7.1507559448818894
21
-3.5446224015748031
0
LINE
8
BLACK
6
CONTINUOUS
10
7.1507559448818894
20
-3.5446224015748031
11
7.1507559448818894
21
-3.5296242913385827
0
LINE
8
BLACK
6
CONTINUOUS
10
7.1507559448818894
20
-3.5296242913385827
11
7.1545054724409445
21
-3.5108766141732284
0
LINE
8
BLACK
6
CONTINUOUS
10
7.1545054724409445
20
-3.5108766141732284
11
7.1582549999999996
21
-3.4996280314960631
0
LINE
8
BLACK
6
CONTINUOUS
10
7.1582549999999996
20
-3.4996280314960631
11
7.1620045275590547
21
-3.4921289763779528
0
LINE
8
BLACK
6
CONTINUOUS
10
7.1620045275590547
20
-3.4921289763779528
11
7.1695035826771649
21
-3.4808803543307087
0
LINE
8
BLACK
6
CONTINUOUS
10
7.1695035826771649
20
-3.4808803543307087
11
7.1732531496062988
21
-3.4771308267716536
0
LINE
8
BLACK
6
CONTINUOUS
10
7.2032493700787397
20
-3.5146261417322835
11
7.2032493700787397
21
-3.5671196062992125
0
LINE
8
BLACK
6
CONTINUOUS
10
7.2032493700787397
20
-3.5221251968503937
11
7.2069988976377948
21
-3.5183756692913386
0
LINE
8
BLACK
6
CONTINUOUS
10
7.2069988976377948
20
-3.5183756692913386
11
7.214497952755905
21
-3.5146261417322835
0
LINE
8
BLACK
6
CONTINUOUS
10
7.214497952755905
20
-3.5146261417322835
11
7.2257465748031491
21
-3.5146261417322835
0
LINE
8
BLACK
6
CONTINUOUS
10
7.2257465748031491
20
-3.5146261417322835
11
7.2332456299212593
21
-3.5183756692913386
0
LINE
8
BLACK
6
CONTINUOUS
10
7.2332456299212593
20
-3.5183756692913386
11
7.2369951574803144
21
-3.5258747637795276
0
LINE
8
BLACK
6
CONTINUOUS
10
7.2369951574803144
20
-3.5258747637795276
11
7.2369951574803144
21
-3.5671196062992125
0
LINE
8
BLACK
6
CONTINUOUS
10
7.2857390551181105
20
-3.5671196062992125
11
7.2782400000000003
21
-3.5633700787401574
0
LINE
8
BLACK
6
CONTINUOUS
10
7.2782400000000003
20
-3.5633700787401574
11
7.2744904724409452
21
-3.5596205118110236
0
LINE
8
BLACK
6
CONTINUOUS
10
7.2744904724409452
20
-3.5596205118110236
11
7.2707409448818892
21
-3.5521214566929133
0
LINE
8
BLACK
6
CONTINUOUS
10
7.2707409448818892
20
-3.5521214566929133
11
7.2707409448818892
21
-3.5296242913385827
0
LINE
8
BLACK
6
CONTINUOUS
10
7.2707409448818892
20
-3.5296242913385827
11
7.2744904724409452
21
-3.5221251968503937
0
LINE
8
BLACK
6
CONTINUOUS
10
7.2744904724409452
20
-3.5221251968503937
11
7.2782400000000003
21
-3.5183756692913386
0
LINE
8
BLACK
6
CONTINUOUS
10
7.2782400000000003
20
-3.5183756692913386
11
7.2857390551181105
21
-3.5146261417322835
0
LINE
8
BLACK
6
CONTINUOUS
10
7.2857390551181105
20
-3.5146261417322835
11
7.2969876771653546
21
-3.5146261417322835
0
LINE
8
BLACK
6
CONTINUOUS
10
7.2969876771653546
20
-3.5146261417322835
11
7.3044867322834648
21
-3.5183756692913386
0
LINE
8
BLACK
6
CONTINUOUS
10
7.3044867322834648
20
-3.5183756692913386
11
7.3082362598425199
21
-3.5221251968503937
0
LINE
8
BLACK
6
CONTINUOUS
10
7.3082362598425199
20
-3.5221251968503937
11
7.311985787401575
21
-3.5296242913385827
0
LINE
8
BLACK
6
CONTINUOUS
10
7.311985787401575
20
-3.5296242913385827
11
7.311985787401575
21
-3.5521214566929133
0
LINE
8
BLACK
6
CONTINUOUS
10
7.311985787401575
20
-3.5521214566929133
11
7.3082362598425199
21
-3.5596205118110236
0
LINE
8
BLACK
6
CONTINUOUS
10
7.3082362598425199
20
-3.5596205118110236
11
7.3044867322834648
21
-3.5633700787401574
0
LINE
8
BLACK
6
CONTINUOUS
10
7.3044867322834648
20
-3.5633700787401574
11
7.2969876771653546
21
-3.5671196062992125
0
LINE
8
BLACK
6
CONTINUOUS
10
7.2969876771653546
20
-3.5671196062992125
11
7.2857390551181105
21
-3.5671196062992125
0
LINE
8
BLACK
6
CONTINUOUS
10
7.3344829921259844
20
-3.5146261417322835
11
7.3644792125984253
21
-3.5146261417322835
0
LINE
8
BLACK
6
CONTINUOUS
10
7.3457315748031498
20
-3.4883794488188977
11
7.3457315748031498
21
-3.5558709842519685
0
LINE
8
BLACK
6
CONTINUOUS
10
7.3457315748031498
20
-3.5558709842519685
11
7.3494811023622049
21
-3.5633700787401574
0
LINE
8
BLACK
6
CONTINUOUS
10
7.3494811023622049
20
-3.5633700787401574
11
7.3569801574803151
21
-3.5671196062992125
0
LINE
8
BLACK
6
CONTINUOUS
10
7.3569801574803151
20
-3.5671196062992125
11
7.3644792125984253
21
-3.5671196062992125
0
LINE
8
BLACK
6
CONTINUOUS
10
7.4507184645669291
20
-3.5146261417322835
11
7.4507184645669291
21
-3.5933662992125983
0
LINE
8
BLACK
6
CONTINUOUS
10
7.4507184645669291
20
-3.5183756692913386
11
7.4582175196850393
21
-3.5146261417322835
0
LINE
8
BLACK
6
CONTINUOUS
10
7.4582175196850393
20
-3.5146261417322835
11
7.4732156692913385
21
-3.5146261417322835
0
LINE
8
BLACK
6
CONTINUOUS
10
7.4732156692913385
20
-3.5146261417322835
11
7.4807147244094487
21
-3.5183756692913386
0
LINE
8
BLACK
6
CONTINUOUS
10
7.4807147244094487
20
-3.5183756692913386
11
7.4844642519685038
21
-3.5221251968503937
0
LINE
8
BLACK
6
CONTINUOUS
10
7.4844642519685038
20
-3.5221251968503937
11
7.488213779527559
21
-3.5296242913385827
0
LINE
8
BLACK
6
CONTINUOUS
10
7.488213779527559
20
-3.5296242913385827
11
7.488213779527559
21
-3.5521214566929133
0
LINE
8
BLACK
6
CONTINUOUS
10
7.488213779527559
20
-3.5521214566929133
11
7.4844642519685038
21
-3.5596205118110236
0
LINE
8
BLACK
6
CONTINUOUS
10
7.4844642519685038
20
-3.5596205118110236
11
7.4807147244094487
21
-3.5633700787401574
0
LINE
8
BLACK
6
CONTINUOUS
10
7.4807147244094487
20
-3.5633700787401574
11
7.4732156692913385
21
-3.5671196062992125
0
LINE
8
BLACK
6
CONTINUOUS
10
7.4732156692913385
20
-3.5671196062992125
11
7.4582175196850393
21
-3.5671196062992125
0
LINE
8
BLACK
6
CONTINUOUS
10
7.4582175196850393
20
-3.5671196062992125
11
7.4507184645669291
21
-3.5633700787401574
0
LINE
8
BLACK
6
CONTINUOUS
10
7.533208149606299
20
-3.5671196062992125
11
7.5257090944881888
21
-3.5633700787401574
0
LINE
8
BLACK
6
CONTINUOUS
10
7.5257090944881888
20
-3.5633700787401574
11
7.5219595669291337
21
-3.5558709842519685
0
LINE
8
BLACK
6
CONTINUOUS
10
7.5219595669291337
20
-3.5558709842519685
11
7.5219595669291337
21
-3.4883794488188977
0
LINE
8
BLACK
6
CONTINUOUS
10
7.5969501968503934
20
-3.5671196062992125
11
7.5969501968503934
21
-3.5258747637795276
0
LINE
8
BLACK
6
CONTINUOUS
10
7.5969501968503934
20
-3.5258747637795276
11
7.5932006692913383
21
-3.5183756692913386
0
LINE
8
BLACK
6
CONTINUOUS
10
7.5932006692913383
20
-3.5183756692913386
11
7.5857016141732281
21
-3.5146261417322835
0
LINE
8
BLACK
6
CONTINUOUS
10
7.5857016141732281
20
-3.5146261417322835
11
7.5707034645669289
21
-3.5146261417322835
0
LINE
8
BLACK
6
CONTINUOUS
10
7.5707034645669289
20
-3.5146261417322835
11
7.5632044094488187
21
-3.5183756692913386
0
LINE
8
BLACK
6
CONTINUOUS
10
7.5969501968503934
20
-3.5633700787401574
11
7.5894511417322832
21
-3.5671196062992125
0
LINE
8
BLACK
6
CONTINUOUS
10
7.5894511417322832
20
-3.5671196062992125
11
7.5707034645669289
21
-3.5671196062992125
0
LINE
8
BLACK
6
CONTINUOUS
10
7.5707034645669289
20
-3.5671196062992125
11
7.5632044094488187
21
-3.5633700787401574
0
LINE
8
BLACK
6
CONTINUOUS
10
7.5632044094488187
20
-3.5633700787401574
11
7.5594548818897636
21
-3.5558709842519685
0
LINE
8
BLACK
6
CONTINUOUS
10
7.5594548818897636
20
-3.5558709842519685
11
7.5594548818897636
21
-3.5483719291338582
0
LINE
8
BLACK
6
CONTINUOUS
10
7.5594548818897636
20
-3.5483719291338582
11
7.5632044094488187
21
-3.540872874015748
0
LINE
8
BLACK
6
CONTINUOUS
10
7.5632044094488187
20
-3.540872874015748
11
7.5707034645669289
21
-3.5371233464566929
0
LINE
8
BLACK
6
CONTINUOUS
10
7.5707034645669289
20
-3.5371233464566929
11
7.5894511417322832
21
-3.5371233464566929
0
LINE
8
BLACK
6
CONTINUOUS
10
7.5894511417322832
20
-3.5371233464566929
11
7.5969501968503934
21
-3.5333738188976378
0
LINE
8
BLACK
6
CONTINUOUS
10
7.6231969291338579
20
-3.5146261417322835
11
7.6531931496062988
21
-3.5146261417322835
0
LINE
8
BLACK
6
CONTINUOUS
10
7.6344455118110233
20
-3.4883794488188977
11
7.6344455118110233
21
-3.5558709842519685
0
LINE
8
BLACK
6
CONTINUOUS
10
7.6344455118110233
20
-3.5558709842519685
11
7.6381950393700784
21
-3.5633700787401574
0
LINE
8
BLACK
6
CONTINUOUS
10
7.6381950393700784
20
-3.5633700787401574
11
7.6456940944881886
21
-3.5671196062992125
0
LINE
8
BLACK
6
CONTINUOUS
10
7.6456940944881886
20
-3.5671196062992125
11
7.6531931496062988
21
-3.5671196062992125
0
LINE
8
BLACK
6
CONTINUOUS
10
7.709436141732283
20
-3.5633700787401574
11
7.7019370866141728
21
-3.5671196062992125
0
LINE
8
BLACK
6
CONTINUOUS
10
7.7019370866141728
20
-3.5671196062992125
11
7.6869389370078736
21
-3.5671196062992125
0
LINE
8
BLACK
6
CONTINUOUS
10
7.6869389370078736
20
-3.5671196062992125
11
7.6794398818897633
21
-3.5633700787401574
0
LINE
8
BLACK
6
CONTINUOUS
10
7.6794398818897633
20
-3.5633700787401574
11
7.6756903543307082
21
-3.5558709842519685
0
LINE
8
BLACK
6
CONTINUOUS
10
7.6756903543307082
20
-3.5558709842519685
11
7.6756903543307082
21
-3.5258747637795276
0
LINE
8
BLACK
6
CONTINUOUS
10
7.6756903543307082
20
-3.5258747637795276
11
7.6794398818897633
21
-3.5183756692913386
0
LINE
8
BLACK
6
CONTINUOUS
10
7.6794398818897633
20
-3.5183756692913386
11
7.6869389370078736
21
-3.5146261417322835
0
LINE
8
BLACK
6
CONTINUOUS
10
7.6869389370078736
20
-3.5146261417322835
11
7.7019370866141728
21
-3.5146261417322835
0
LINE
8
BLACK
6
CONTINUOUS
10
7.7019370866141728
20
-3.5146261417322835
11
7.709436141732283
21
-3.5183756692913386
0
LINE
8
BLACK
6
CONTINUOUS
10
7.709436141732283
20
-3.5183756692913386
11
7.7131856692913381
21
-3.5258747637795276
0
LINE
8
BLACK
6
CONTINUOUS
10
7.7131856692913381
20
-3.5258747637795276
11
7.7131856692913381
21
-3.5333738188976378
0
LINE
8
BLACK
6
CONTINUOUS
10
7.7131856692913381
20
-3.5333738188976378
11
7.6756903543307082
21
-3.540872874015748
0
LINE
8
BLACK
6
CONTINUOUS
10
7.7806772440944876
20
-3.5671196062992125
11
7.7806772440944876
21
-3.4883794488188977
0
LINE
8
BLACK
6
CONTINUOUS
10
7.7806772440944876
20
-3.5633700787401574
11
7.7731781889763774
21
-3.5671196062992125
0
LINE
8
BLACK
6
CONTINUOUS
10
7.7731781889763774
20
-3.5671196062992125
11
7.7581800393700782
21
-3.5671196062992125
0
LINE
8
BLACK
6
CONTINUOUS
10
7.7581800393700782
20
-3.5671196062992125
11
7.7506809842519679
21
-3.5633700787401574
0
LINE
8
BLACK
6
CONTINUOUS
10
7.7506809842519679
20
-3.5633700787401574
11
7.7469314566929128
21
-3.5596205118110236
0
LINE
8
BLACK
6
CONTINUOUS
10
7.7469314566929128
20
-3.5596205118110236
11
7.7431819291338577
21
-3.5521214566929133
0
LINE
8
BLACK
6
CONTINUOUS
10
7.7431819291338577
20
-3.5521214566929133
11
7.7431819291338577
21
-3.5296242913385827
0
LINE
8
BLACK
6
CONTINUOUS
10
7.7431819291338577
20
-3.5296242913385827
11
7.7469314566929128
21
-3.5221251968503937
0
LINE
8
BLACK
6
CONTINUOUS
10
7.7469314566929128
20
-3.5221251968503937
11
7.7506809842519679
21
-3.5183756692913386
0
LINE
8
BLACK
6
CONTINUOUS
10
7.7506809842519679
20
-3.5183756692913386
11
7.7581800393700782
21
-3.5146261417322835
0
LINE
8
BLACK
6
CONTINUOUS
10
7.7581800393700782
20
-3.5146261417322835
11
7.7731781889763774
21
-3.5146261417322835
0
LINE
8
BLACK
6
CONTINUOUS
10
7.7731781889763774
20
-3.5146261417322835
11
7.7806772440944876
21
-3.5183756692913386
0
LINE
8
BLACK
6
CONTINUOUS
10
7.8106735039370081
20
-3.5971158267716534
11
7.8144230314960632
21
-3.5933662992125983
0
LINE
8
BLACK
6
CONTINUOUS
10
7.8144230314960632
20
-3.5933662992125983
11
7.8219220866141734
21
-3.582117716535433
0
LINE
8
BLACK
6
CONTINUOUS
10
7.8219220866141734
20
-3.582117716535433
11
7.8256716141732285
21
-3.5746186614173228
0
LINE
8
BLACK
6
CONTINUOUS
10
7.8256716141732285
20
-3.5746186614173228
11
7.8294211417322837
21
-3.5633700787401574
0
LINE
8
BLACK
6
CONTINUOUS
10
7.8294211417322837
20
-3.5633700787401574
11
7.8331706692913388
21
-3.5446224015748031
0
LINE
8
BLACK
6
CONTINUOUS
10
7.8331706692913388
20
-3.5446224015748031
11
7.8331706692913388
21
-3.5296242913385827
0
LINE
8
BLACK
6
CONTINUOUS
10
7.8331706692913388
20
-3.5296242913385827
11
7.8294211417322837
21
-3.5108766141732284
0
LINE
8
BLACK
6
CONTINUOUS
10
7.8294211417322837
20
-3.5108766141732284
11
7.8256716141732285
21
-3.4996280314960631
0
LINE
8
BLACK
6
CONTINUOUS
10
7.8256716141732285
20
-3.4996280314960631
11
7.8219220866141734
21
-3.4921289763779528
0
LINE
8
BLACK
6
CONTINUOUS
10
7.8219220866141734
20
-3.4921289763779528
11
7.8144230314960632
21
-3.4808803543307087
0
LINE
8
BLACK
6
CONTINUOUS
10
7.8144230314960632
20
-3.4808803543307087
11
7.8106735039370081
21
-3.4771308267716536
0
LINE
8
BLACK
6
CONTINUOUS
10
5.1751968503937009
20
-3.5956692913385826
11
5.1751968503937009
21
-3.6744094488188974
0
LINE
8
BLACK
6
CONTINUOUS
10
5.1358267716535435
20
-3.63503937007874
11
5.2145669291338583
21
-3.63503937007874
0
LINE
8
BLACK
6
CONTINUOUS
10
5.3134854330708663
20
-3.5998155118110233
11
5.3172349606299214
21
-3.5960659842519682
0
LINE
8
BLACK
6
CONTINUOUS
10
5.3172349606299214
20
-3.5960659842519682
11
5.3247340157480316
21
-3.5923164566929131
0
LINE
8
BLACK
6
CONTINUOUS
10
5.3247340157480316
20
-3.5923164566929131
11
5.3434816929133859
21
-3.5923164566929131
0
LINE
8
BLACK
6
CONTINUOUS
10
5.3434816929133859
20
-3.5923164566929131
11
5.3509807480314961
21
-3.5960659842519682
0
LINE
8
BLACK
6
CONTINUOUS
10
5.3509807480314961
20
-3.5960659842519682
11
5.3547302755905513
21
-3.5998155118110233
0
LINE
8
BLACK
6
CONTINUOUS
10
5.3547302755905513
20
-3.5998155118110233
11
5.3584798031496064
21
-3.607314566929134
0
LINE
8
BLACK
6
CONTINUOUS
10
5.3584798031496064
20
-3.607314566929134
11
5.3584798031496064
21
-3.6148136220472442
0
LINE
8
BLACK
6
CONTINUOUS
10
5.3584798031496064
20
-3.6148136220472442
11
5.3547302755905513
21
-3.6260622047244095
0
LINE
8
BLACK
6
CONTINUOUS
10
5.3547302755905513
20
-3.6260622047244095
11
5.3097359055118112
21
-3.6710566141732284
0
LINE
8
BLACK
6
CONTINUOUS
10
5.3097359055118112
20
-3.6710566141732284
11
5.3584798031496064
21
-3.6710566141732284
0
LINE
8
BLACK
6
CONTINUOUS
10
5.3922255905511811
20
-3.6635575196850394
11
5.3959751181102362
21
-3.6673070866141733
0
LINE
8
BLACK
6
CONTINUOUS
10
5.3959751181102362
20
-3.6673070866141733
11
5.3922255905511811
21
-3.6710566141732284
0
LINE
8
BLACK
6
CONTINUOUS
10
5.3922255905511811
20
-3.6710566141732284
11
5.388476062992126
21
-3.6673070866141733
0
LINE
8
BLACK
6
CONTINUOUS
10
5.388476062992126
20
-3.6673070866141733
11
5.3922255905511811
21
-3.6635575196850394
0
LINE
8
BLACK
6
CONTINUOUS
10
5.3922255905511811
20
-3.6635575196850394
11
5.3922255905511811
21
-3.6710566141732284
0
LINE
8
BLACK
6
CONTINUOUS
10
5.4447190157480314
20
-3.5923164566929131
11
5.4522181102362204
21
-3.5923164566929131
0
LINE
8
BLACK
6
CONTINUOUS
10
5.4522181102362204
20
-3.5923164566929131
11
5.4597171653543306
21
-3.5960659842519682
0
LINE
8
BLACK
6
CONTINUOUS
10
5.4597171653543306
20
-3.5960659842519682
11
5.4634666929133857
21
-3.5998155118110233
0
LINE
8
BLACK
6
CONTINUOUS
10
5.4634666929133857
20
-3.5998155118110233
11
5.4672162204724408
21
-3.607314566929134
0
LINE
8
BLACK
6
CONTINUOUS
10
5.4672162204724408
20
-3.607314566929134
11
5.4709657480314959
21
-3.6223126771653544
0
LINE
8
BLACK
6
CONTINUOUS
10
5.4709657480314959
20
-3.6223126771653544
11
5.4709657480314959
21
-3.6410603543307087
0
LINE
8
BLACK
6
CONTINUOUS
10
5.4709657480314959
20
-3.6410603543307087
11
5.4672162204724408
21
-3.6560584645669292
0
LINE
8
BLACK
6
CONTINUOUS
10
5.4672162204724408
20
-3.6560584645669292
11
5.4634666929133857
21
-3.6635575196850394
0
LINE
8
BLACK
6
CONTINUOUS
10
5.4634666929133857
20
-3.6635575196850394
11
5.4597171653543306
21
-3.6673070866141733
0
LINE
8
BLACK
6
CONTINUOUS
10
5.4597171653543306
20
-3.6673070866141733
11
5.4522181102362204
21
-3.6710566141732284
0
LINE
8
BLACK
6
CONTINUOUS
10
5.4522181102362204
20
-3.6710566141732284
11
5.4447190157480314
21
-3.6710566141732284
0
LINE
8
BLACK
6
CONTINUOUS
10
5.4447190157480314
20
-3.6710566141732284
11
5.4372199606299212
21
-3.6673070866141733
0
LINE
8
BLACK
6
CONTINUOUS
10
5.4372199606299212
20
-3.6673070866141733
11
5.4334704330708661
21
-3.6635575196850394
0
LINE
8
BLACK
6
CONTINUOUS
10
5.4334704330708661
20
-3.6635575196850394
11
5.429720905511811
21
-3.6560584645669292
0
LINE
8
BLACK
6
CONTINUOUS
10
5.429720905511811
20
-3.6560584645669292
11
5.4259713779527559
21
-3.6410603543307087
0
LINE
8
BLACK
6
CONTINUOUS
10
5.4259713779527559
20
-3.6410603543307087
11
5.4259713779527559
21
-3.6223126771653544
0
LINE
8
BLACK
6
CONTINUOUS
10
5.4259713779527559
20
-3.6223126771653544
11
5.429720905511811
21
-3.607314566929134
0
LINE
8
BLACK
6
CONTINUOUS
10
5.429720905511811
20
-3.607314566929134
11
5.4334704330708661
21
-3.5998155118110233
0
LINE
8
BLACK
6
CONTINUOUS
10
5.4334704330708661
20
-3.5998155118110233
11
5.4372199606299212
21
-3.5960659842519682
0
LINE
8
BLACK
6
CONTINUOUS
10
5.4372199606299212
20
-3.5960659842519682
11
5.4447190157480314
21
-3.5923164566929131
0
LINE
8
BLACK
6
CONTINUOUS
10
5.5197096456692911
20
-3.5923164566929131
11
5.5272087401574801
21
-3.5923164566929131
0
LINE
8
BLACK
6
CONTINUOUS
10
5.5272087401574801
20
-3.5923164566929131
11
5.5347077952755903
21
-3.5960659842519682
0
LINE
8
BLACK
6
CONTINUOUS
10
5.5347077952755903
20
-3.5960659842519682
11
5.5384573228346454
21
-3.5998155118110233
0
LINE
8
BLACK
6
CONTINUOUS
10
5.5384573228346454
20
-3.5998155118110233
11
5.5422068503937005
21
-3.607314566929134
0
LINE
8
BLACK
6
CONTINUOUS
10
5.5422068503937005
20
-3.607314566929134
11
5.5459563779527556
21
-3.6223126771653544
0
LINE
8
BLACK
6
CONTINUOUS
10
5.5459563779527556
20
-3.6223126771653544
11
5.5459563779527556
21
-3.6410603543307087
0
LINE
8
BLACK
6
CONTINUOUS
10
5.5459563779527556
20
-3.6410603543307087
11
5.5422068503937005
21
-3.6560584645669292
0
LINE
8
BLACK
6
CONTINUOUS
10
5.5422068503937005
20
-3.6560584645669292
11
5.5384573228346454
21
-3.6635575196850394
0
LINE
8
BLACK
6
CONTINUOUS
10
5.5384573228346454
20
-3.6635575196850394
11
5.5347077952755903
21
-3.6673070866141733
0
LINE
8
BLACK
6
CONTINUOUS
10
5.5347077952755903
20
-3.6673070866141733
11
5.5272087401574801
21
-3.6710566141732284
0
LINE
8
BLACK
6
CONTINUOUS
10
5.5272087401574801
20
-3.6710566141732284
11
5.5197096456692911
21
-3.6710566141732284
0
LINE
8
BLACK
6
CONTINUOUS
10
5.5197096456692911
20
-3.6710566141732284
11
5.5122105905511809
21
-3.6673070866141733
0
LINE
8
BLACK
6
CONTINUOUS
10
5.5122105905511809
20
-3.6673070866141733
11
5.5084610629921258
21
-3.6635575196850394
0
LINE
8
BLACK
6
CONTINUOUS
10
5.5084610629921258
20
-3.6635575196850394
11
5.5047115354330707
21
-3.6560584645669292
0
LINE
8
BLACK
6
CONTINUOUS
10
5.5047115354330707
20
-3.6560584645669292
11
5.5009620078740156
21
-3.6410603543307087
0
LINE
8
BLACK
6
CONTINUOUS
10
5.5009620078740156
20
-3.6410603543307087
11
5.5009620078740156
21
-3.6223126771653544
0
LINE
8
BLACK
6
CONTINUOUS
10
5.5009620078740156
20
-3.6223126771653544
11
5.5047115354330707
21
-3.607314566929134
0
LINE
8
BLACK
6
CONTINUOUS
10
5.5047115354330707
20
-3.607314566929134
11
5.5084610629921258
21
-3.5998155118110233
0
LINE
8
BLACK
6
CONTINUOUS
10
5.5084610629921258
20
-3.5998155118110233
11
5.5122105905511809
21
-3.5960659842519682
0
LINE
8
BLACK
6
CONTINUOUS
10
5.5122105905511809
20
-3.5960659842519682
11
5.5197096456692911
21
-3.5923164566929131
0
LINE
8
BLACK
6
CONTINUOUS
10
5.5947002755905508
20
-3.5923164566929131
11
5.6021993700787398
21
-3.5923164566929131
0
LINE
8
BLACK
6
CONTINUOUS
10
5.6021993700787398
20
-3.5923164566929131
11
5.60969842519685
21
-3.5960659842519682
0
LINE
8
BLACK
6
CONTINUOUS
10
5.60969842519685
20
-3.5960659842519682
11
5.6134479527559051
21
-3.5998155118110233
0
LINE
8
BLACK
6
CONTINUOUS
10
5.6134479527559051
20
-3.5998155118110233
11
5.6171974803149602
21
-3.607314566929134
0
LINE
8
BLACK
6
CONTINUOUS
10
5.6171974803149602
20
-3.607314566929134
11
5.6209470078740154
21
-3.6223126771653544
0
LINE
8
BLACK
6
CONTINUOUS
10
5.6209470078740154
20
-3.6223126771653544
11
5.6209470078740154
21
-3.6410603543307087
0
LINE
8
BLACK
6
CONTINUOUS
10
5.6209470078740154
20
-3.6410603543307087
11
5.6171974803149602
21
-3.6560584645669292
0
LINE
8
BLACK
6
CONTINUOUS
10
5.6171974803149602
20
-3.6560584645669292
11
5.6134479527559051
21
-3.6635575196850394
0
LINE
8
BLACK
6
CONTINUOUS
10
5.6134479527559051
20
-3.6635575196850394
11
5.60969842519685
21
-3.6673070866141733
0
LINE
8
BLACK
6
CONTINUOUS
10
5.60969842519685
20
-3.6673070866141733
11
5.6021993700787398
21
-3.6710566141732284
0
LINE
8
BLACK
6
CONTINUOUS
10
5.6021993700787398
20
-3.6710566141732284
11
5.5947002755905508
21
-3.6710566141732284
0
LINE
8
BLACK
6
CONTINUOUS
10
5.5947002755905508
20
-3.6710566141732284
11
5.5872012204724406
21
-3.6673070866141733
0
LINE
8
BLACK
6
CONTINUOUS
10
5.5872012204724406
20
-3.6673070866141733
11
5.5834516929133855
21
-3.6635575196850394
0
LINE
8
BLACK
6
CONTINUOUS
10
5.5834516929133855
20
-3.6635575196850394
11
5.5797021653543304
21
-3.6560584645669292
0
LINE
8
BLACK
6
CONTINUOUS
10
5.5797021653543304
20
-3.6560584645669292
11
5.5759526377952753
21
-3.6410603543307087
0
LINE
8
BLACK
6
CONTINUOUS
10
5.5759526377952753
20
-3.6410603543307087
11
5.5759526377952753
21
-3.6223126771653544
0
LINE
8
BLACK
6
CONTINUOUS
10
5.5759526377952753
20
-3.6223126771653544
11
5.5797021653543304
21
-3.607314566929134
0
LINE
8
BLACK
6
CONTINUOUS
10
5.5797021653543304
20
-3.607314566929134
11
5.5834516929133855
21
-3.5998155118110233
0
LINE
8
BLACK
6
CONTINUOUS
10
5.5834516929133855
20
-3.5998155118110233
11
5.5872012204724406
21
-3.5960659842519682
0
LINE
8
BLACK
6
CONTINUOUS
10
5.5872012204724406
20
-3.5960659842519682
11
5.5947002755905508
21
-3.5923164566929131
0
LINE
8
BLACK
6
CONTINUOUS
10
5.6546927952755901
20
-3.6710566141732284
11
5.6546927952755901
21
-3.6185631496062993
0
LINE
8
BLACK
6
CONTINUOUS
10
5.6546927952755901
20
-3.6260622047244095
11
5.6584423228346452
21
-3.6223126771653544
0
LINE
8
BLACK
6
CONTINUOUS
10
5.6584423228346452
20
-3.6223126771653544
11
5.6659413779527554
21
-3.6185631496062993
0
LINE
8
BLACK
6
CONTINUOUS
10
5.6659413779527554
20
-3.6185631496062993
11
5.6771899999999995
21
-3.6185631496062993
0
LINE
8
BLACK
6
CONTINUOUS
10
5.6771899999999995
20
-3.6185631496062993
11
5.6846890551181097
21
-3.6223126771653544
0
LINE
8
BLACK
6
CONTINUOUS
10
5.6846890551181097
20
-3.6223126771653544
11
5.6884385826771648
21
-3.6298117716535434
0
LINE
8
BLACK
6
CONTINUOUS
10
5.6884385826771648
20
-3.6298117716535434
11
5.6884385826771648
21
-3.6710566141732284
0
LINE
8
BLACK
6
CONTINUOUS
10
5.6884385826771648
20
-3.6298117716535434
11
5.69218811023622
21
-3.6223126771653544
0
LINE
8
BLACK
6
CONTINUOUS
10
5.69218811023622
20
-3.6223126771653544
11
5.6996871653543302
21
-3.6185631496062993
0
LINE
8
BLACK
6
CONTINUOUS
10
5.6996871653543302
20
-3.6185631496062993
11
5.7109357480314955
21
-3.6185631496062993
0
LINE
8
BLACK
6
CONTINUOUS
10
5.7109357480314955
20
-3.6185631496062993
11
5.7184348425196845
21
-3.6223126771653544
0
LINE
8
BLACK
6
CONTINUOUS
10
5.7184348425196845
20
-3.6223126771653544
11
5.7221843700787396
21
-3.6298117716535434
0
LINE
8
BLACK
6
CONTINUOUS
10
5.7221843700787396
20
-3.6298117716535434
11
5.7221843700787396
21
-3.6710566141732284
0
LINE
8
BLACK
6
CONTINUOUS
10
5.7596796850393703
20
-3.6710566141732284
11
5.7596796850393703
21
-3.6185631496062993
0
LINE
8
BLACK
6
CONTINUOUS
10
5.7596796850393703
20
-3.6260622047244095
11
5.7634292125984254
21
-3.6223126771653544
0
LINE
8
BLACK
6
CONTINUOUS
10
5.7634292125984254
20
-3.6223126771653544
11
5.7709282677165357
21
-3.6185631496062993
0
LINE
8
BLACK
6
CONTINUOUS
10
5.7709282677165357
20
-3.6185631496062993
11
5.7821768897637797
21
-3.6185631496062993
0
LINE
8
BLACK
6
CONTINUOUS
10
5.7821768897637797
20
-3.6185631496062993
11
5.78967594488189
21
-3.6223126771653544
0
LINE
8
BLACK
6
CONTINUOUS
10
5.78967594488189
20
-3.6223126771653544
11
5.7934254724409451
21
-3.6298117716535434
0
LINE
8
BLACK
6
CONTINUOUS
10
5.7934254724409451
20
-3.6298117716535434
11
5.7934254724409451
21
-3.6710566141732284
0
LINE
8
BLACK
6
CONTINUOUS
10
5.7934254724409451
20
-3.6298117716535434
11
5.7971750000000002
21
-3.6223126771653544
0
LINE
8
BLACK
6
CONTINUOUS
10
5.7971750000000002
20
-3.6223126771653544
11
5.8046740551181104
21
-3.6185631496062993
0
LINE
8
BLACK
6
CONTINUOUS
10
5.8046740551181104
20
-3.6185631496062993
11
5.8159226377952757
21
-3.6185631496062993
0
LINE
8
BLACK
6
CONTINUOUS
10
5.8159226377952757
20
-3.6185631496062993
11
5.8234217322834647
21
-3.6223126771653544
0
LINE
8
BLACK
6
CONTINUOUS
10
5.8234217322834647
20
-3.6223126771653544
11
5.8271712598425198
21
-3.6298117716535434
0
LINE
8
BLACK
6
CONTINUOUS
10
5.8271712598425198
20
-3.6298117716535434
11
5.8271712598425198
21
-3.6710566141732284
0
LINE
8
BLACK
6
CONTINUOUS
10
5.9809020472440944
20
-3.588566929133858
11
5.9134105118110236
21
-3.6898042519685039
0
LINE
8
BLACK
6
CONTINUOUS
10
6.0821394094488186
20
-3.5923164566929131
11
6.0896385039370076
21
-3.5923164566929131
0
LINE
8
BLACK
6
CONTINUOUS
10
6.0896385039370076
20
-3.5923164566929131
11
6.0971375590551178
21
-3.5960659842519682
0
LINE
8
BLACK
6
CONTINUOUS
10
6.0971375590551178
20
-3.5960659842519682
11
6.1008870866141729
21
-3.5998155118110233
0
LINE
8
BLACK
6
CONTINUOUS
10
6.1008870866141729
20
-3.5998155118110233
11
6.104636614173228
21
-3.607314566929134
0
LINE
8
BLACK
6
CONTINUOUS
10
6.104636614173228
20
-3.607314566929134
11
6.1083861417322831
21
-3.6223126771653544
0
LINE
8
BLACK
6
CONTINUOUS
10
6.1083861417322831
20
-3.6223126771653544
11
6.1083861417322831
21
-3.6410603543307087
0
LINE
8
BLACK
6
CONTINUOUS
10
6.1083861417322831
20
-3.6410603543307087
11
6.104636614173228
21
-3.6560584645669292
0
LINE
8
BLACK
6
CONTINUOUS
10
6.104636614173228
20
-3.6560584645669292
11
6.1008870866141729
21
-3.6635575196850394
0
LINE
8
BLACK
6
CONTINUOUS
10
6.1008870866141729
20
-3.6635575196850394
11
6.0971375590551178
21
-3.6673070866141733
0
LINE
8
BLACK
6
CONTINUOUS
10
6.0971375590551178
20
-3.6673070866141733
11
6.0896385039370076
21
-3.6710566141732284
0
LINE
8
BLACK
6
CONTINUOUS
10
6.0896385039370076
20
-3.6710566141732284
11
6.0821394094488186
21
-3.6710566141732284
0
LINE
8
BLACK
6
CONTINUOUS
10
6.0821394094488186
20
-3.6710566141732284
11
6.0746403543307084
21
-3.6673070866141733
0
LINE
8
BLACK
6
CONTINUOUS
10
6.0746403543307084
20
-3.6673070866141733
11
6.0708908267716533
21
-3.6635575196850394
0
LINE
8
BLACK
6
CONTINUOUS
10
6.0708908267716533
20
-3.6635575196850394
11
6.0671412992125981
21
-3.6560584645669292
0
LINE
8
BLACK
6
CONTINUOUS
10
6.0671412992125981
20
-3.6560584645669292
11
6.063391771653543
21
-3.6410603543307087
0
LINE
8
BLACK
6
CONTINUOUS
10
6.063391771653543
20
-3.6410603543307087
11
6.063391771653543
21
-3.6223126771653544
0
LINE
8
BLACK
6
CONTINUOUS
10
6.063391771653543
20
-3.6223126771653544
11
6.0671412992125981
21
-3.607314566929134
0
LINE
8
BLACK
6
CONTINUOUS
10
6.0671412992125981
20
-3.607314566929134
11
6.0708908267716533
21
-3.5998155118110233
0
LINE
8
BLACK
6
CONTINUOUS
10
6.0708908267716533
20
-3.5998155118110233
11
6.0746403543307084
21
-3.5960659842519682
0
LINE
8
BLACK
6
CONTINUOUS
10
6.0746403543307084
20
-3.5960659842519682
11
6.0821394094488186
21
-3.5923164566929131
0
LINE
8
BLACK
6
CONTINUOUS
10
6.1421319291338579
20
-3.6635575196850394
11
6.145881456692913
21
-3.6673070866141733
0
LINE
8
BLACK
6
CONTINUOUS
10
6.145881456692913
20
-3.6673070866141733
11
6.1421319291338579
21
-3.6710566141732284
0
LINE
8
BLACK
6
CONTINUOUS
10
6.1421319291338579
20
-3.6710566141732284
11
6.1383824015748027
21
-3.6673070866141733
0
LINE
8
BLACK
6
CONTINUOUS
10
6.1383824015748027
20
-3.6673070866141733
11
6.1421319291338579
21
-3.6635575196850394
0
LINE
8
BLACK
6
CONTINUOUS
10
6.1421319291338579
20
-3.6635575196850394
11
6.1421319291338579
21
-3.6710566141732284
0
LINE
8
BLACK
6
CONTINUOUS
10
6.1946253543307082
20
-3.5923164566929131
11
6.2021244488188971
21
-3.5923164566929131
0
LINE
8
BLACK
6
CONTINUOUS
10
6.2021244488188971
20
-3.5923164566929131
11
6.2096235039370073
21
-3.5960659842519682
0
LINE
8
BLACK
6
CONTINUOUS
10
6.2096235039370073
20
-3.5960659842519682
11
6.2133730314960625
21
-3.5998155118110233
0
LINE
8
BLACK
6
CONTINUOUS
10
6.2133730314960625
20
-3.5998155118110233
11
6.2171225590551176
21
-3.607314566929134
0
LINE
8
BLACK
6
CONTINUOUS
10
6.2171225590551176
20
-3.607314566929134
11
6.2208720866141727
21
-3.6223126771653544
0
LINE
8
BLACK
6
CONTINUOUS
10
6.2208720866141727
20
-3.6223126771653544
11
6.2208720866141727
21
-3.6410603543307087
0
LINE
8
BLACK
6
CONTINUOUS
10
6.2208720866141727
20
-3.6410603543307087
11
6.2171225590551176
21
-3.6560584645669292
0
LINE
8
BLACK
6
CONTINUOUS
10
6.2171225590551176
20
-3.6560584645669292
11
6.2133730314960625
21
-3.6635575196850394
0
LINE
8
BLACK
6
CONTINUOUS
10
6.2133730314960625
20
-3.6635575196850394
11
6.2096235039370073
21
-3.6673070866141733
0
LINE
8
BLACK
6
CONTINUOUS
10
6.2096235039370073
20
-3.6673070866141733
11
6.2021244488188971
21
-3.6710566141732284
0
LINE
8
BLACK
6
CONTINUOUS
10
6.2021244488188971
20
-3.6710566141732284
11
6.1946253543307082
21
-3.6710566141732284
0
LINE
8
BLACK
6
CONTINUOUS
10
6.1946253543307082
20
-3.6710566141732284
11
6.1871262992125979
21
-3.6673070866141733
0
LINE
8
BLACK
6
CONTINUOUS
10
6.1871262992125979
20
-3.6673070866141733
11
6.1833767716535428
21
-3.6635575196850394
0
LINE
8
BLACK
6
CONTINUOUS
10
6.1833767716535428
20
-3.6635575196850394
11
6.1796272440944877
21
-3.6560584645669292
0
LINE
8
BLACK
6
CONTINUOUS
10
6.1796272440944877
20
-3.6560584645669292
11
6.1758777165354326
21
-3.6410603543307087
0
LINE
8
BLACK
6
CONTINUOUS
10
6.1758777165354326
20
-3.6410603543307087
11
6.1758777165354326
21
-3.6223126771653544
0
LINE
8
BLACK
6
CONTINUOUS
10
6.1758777165354326
20
-3.6223126771653544
11
6.1796272440944877
21
-3.607314566929134
0
LINE
8
BLACK
6
CONTINUOUS
10
6.1796272440944877
20
-3.607314566929134
11
6.1833767716535428
21
-3.5998155118110233
0
LINE
8
BLACK
6
CONTINUOUS
10
6.1833767716535428
20
-3.5998155118110233
11
6.1871262992125979
21
-3.5960659842519682
0
LINE
8
BLACK
6
CONTINUOUS
10
6.1871262992125979
20
-3.5960659842519682
11
6.1946253543307082
21
-3.5923164566929131
0
LINE
8
BLACK
6
CONTINUOUS
10
6.2471188188976381
20
-3.5923164566929131
11
6.2996122440944884
21
-3.5923164566929131
0
LINE
8
BLACK
6
CONTINUOUS
10
6.2996122440944884
20
-3.5923164566929131
11
6.2658664566929136
21
-3.6710566141732284
0
LINE
8
BLACK
6
CONTINUOUS
10
6.3408570866141734
20
-3.6260622047244095
11
6.3333580314960631
21
-3.6223126771653544
0
LINE
8
BLACK
6
CONTINUOUS
10
6.3333580314960631
20
-3.6223126771653544
11
6.329608503937008
21
-3.6185631496062993
0
LINE
8
BLACK
6
CONTINUOUS
10
6.329608503937008
20
-3.6185631496062993
11
6.3258589763779529
21
-3.6110640944881891
0
LINE
8
BLACK
6
CONTINUOUS
10
6.3258589763779529
20
-3.6110640944881891
11
6.3258589763779529
21
-3.607314566929134
0
LINE
8
BLACK
6
CONTINUOUS
10
6.3258589763779529
20
-3.607314566929134
11
6.329608503937008
21
-3.5998155118110233
0
LINE
8
BLACK
6
CONTINUOUS
10
6.329608503937008
20
-3.5998155118110233
11
6.3333580314960631
21
-3.5960659842519682
0
LINE
8
BLACK
6
CONTINUOUS
10
6.3333580314960631
20
-3.5960659842519682
11
6.3408570866141734
21
-3.5923164566929131
0
LINE
8
BLACK
6
CONTINUOUS
10
6.3408570866141734
20
-3.5923164566929131
11
6.3558552362204725
21
-3.5923164566929131
0
LINE
8
BLACK
6
CONTINUOUS
10
6.3558552362204725
20
-3.5923164566929131
11
6.3633542913385828
21
-3.5960659842519682
0
LINE
8
BLACK
6
CONTINUOUS
10
6.3633542913385828
20
-3.5960659842519682
11
6.3671038188976379
21
-3.5998155118110233
0
LINE
8
BLACK
6
CONTINUOUS
10
6.3671038188976379
20
-3.5998155118110233
11
6.370853346456693
21
-3.607314566929134
0
LINE
8
BLACK
6
CONTINUOUS
10
6.370853346456693
20
-3.607314566929134
11
6.370853346456693
21
-3.6110640944881891
0
LINE
8
BLACK
6
CONTINUOUS
10
6.370853346456693
20
-3.6110640944881891
11
6.3671038188976379
21
-3.6185631496062993
0
LINE
8
BLACK
6
CONTINUOUS
10
6.3671038188976379
20
-3.6185631496062993
11
6.3633542913385828
21
-3.6223126771653544
0
LINE
8
BLACK
6
CONTINUOUS
10
6.3633542913385828
20
-3.6223126771653544
11
6.3558552362204725
21
-3.6260622047244095
0
LINE
8
BLACK
6
CONTINUOUS
10
6.3558552362204725
20
-3.6260622047244095
11
6.3408570866141734
21
-3.6260622047244095
0
LINE
8
BLACK
6
CONTINUOUS
10
6.3408570866141734
20
-3.6260622047244095
11
6.3333580314960631
21
-3.6298117716535434
0
LINE
8
BLACK
6
CONTINUOUS
10
6.3333580314960631
20
-3.6298117716535434
11
6.329608503937008
21
-3.6335612992125985
0
LINE
8
BLACK
6
CONTINUOUS
10
6.329608503937008
20
-3.6335612992125985
11
6.3258589763779529
21
-3.6410603543307087
0
LINE
8
BLACK
6
CONTINUOUS
10
6.3258589763779529
20
-3.6410603543307087
11
6.3258589763779529
21
-3.6560584645669292
0
LINE
8
BLACK
6
CONTINUOUS
10
6.3258589763779529
20
-3.6560584645669292
11
6.329608503937008
21
-3.6635575196850394
0
LINE
8
BLACK
6
CONTINUOUS
10
6.329608503937008
20
-3.6635575196850394
11
6.3333580314960631
21
-3.6673070866141733
0
LINE
8
BLACK
6
CONTINUOUS
10
6.3333580314960631
20
-3.6673070866141733
11
6.3408570866141734
21
-3.6710566141732284
0
LINE
8
BLACK
6
CONTINUOUS
10
6.3408570866141734
20
-3.6710566141732284
11
6.3558552362204725
21
-3.6710566141732284
0
LINE
8
BLACK
6
CONTINUOUS
10
6.3558552362204725
20
-3.6710566141732284
11
6.3633542913385828
21
-3.6673070866141733
0
LINE
8
BLACK
6
CONTINUOUS
10
6.3633542913385828
20
-3.6673070866141733
11
6.3671038188976379
21
-3.6635575196850394
0
LINE
8
BLACK
6
CONTINUOUS
10
6.3671038188976379
20
-3.6635575196850394
11
6.370853346456693
21
-3.6560584645669292
0
LINE
8
BLACK
6
CONTINUOUS
10
6.370853346456693
20
-3.6560584645669292
11
6.370853346456693
21
-3.6410603543307087
0
LINE
8
BLACK
6
CONTINUOUS
10
6.370853346456693
20
-3.6410603543307087
11
6.3671038188976379
21
-3.6335612992125985
0
LINE
8
BLACK
6
CONTINUOUS
10
6.3671038188976379
20
-3.6335612992125985
11
6.3633542913385828
21
-3.6298117716535434
0
LINE
8
BLACK
6
CONTINUOUS
10
6.3633542913385828
20
-3.6298117716535434
11
6.3558552362204725
21
-3.6260622047244095
0
LINE
8
BLACK
6
CONTINUOUS
10
6.3971000787401575
20
-3.5923164566929131
11
6.4495935039370078
21
-3.5923164566929131
0
LINE
8
BLACK
6
CONTINUOUS
10
6.4495935039370078
20
-3.5923164566929131
11
6.4158477165354331
21
-3.6710566141732284
0
LINE
8
BLACK
6
CONTINUOUS
10
6.4758402362204723
20
-3.5923164566929131
11
6.4758402362204723
21
-3.607314566929134
0
LINE
8
BLACK
6
CONTINUOUS
10
6.505836496062992
20
-3.5923164566929131
11
6.505836496062992
21
-3.607314566929134
0
LINE
8
BLACK
6
CONTINUOUS
10
6.6220720078740154
20
-3.7010528346456693
11
6.6183224409448815
21
-3.6973033070866141
0
LINE
8
BLACK
6
CONTINUOUS
10
6.6183224409448815
20
-3.6973033070866141
11
6.6108233858267713
21
-3.6860547244094488
0
LINE
8
BLACK
6
CONTINUOUS
10
6.6108233858267713
20
-3.6860547244094488
11
6.6070738582677162
21
-3.6785556692913386
0
LINE
8
BLACK
6
CONTINUOUS
10
6.6070738582677162
20
-3.6785556692913386
11
6.6033243307086611
21
-3.6673070866141733
0
LINE
8
BLACK
6
CONTINUOUS
10
6.6033243307086611
20
-3.6673070866141733
11
6.599574803149606
21
-3.648559409448819
0
LINE
8
BLACK
6
CONTINUOUS
10
6.599574803149606
20
-3.648559409448819
11
6.599574803149606
21
-3.6335612992125985
0
LINE
8
BLACK
6
CONTINUOUS
10
6.599574803149606
20
-3.6335612992125985
11
6.6033243307086611
21
-3.6148136220472442
0
LINE
8
BLACK
6
CONTINUOUS
10
6.6033243307086611
20
-3.6148136220472442
11
6.6070738582677162
21
-3.6035650393700784
0
LINE
8
BLACK
6
CONTINUOUS
10
6.6070738582677162
20
-3.6035650393700784
11
6.6108233858267713
21
-3.5960659842519682
0
LINE
8
BLACK
6
CONTINUOUS
10
6.6108233858267713
20
-3.5960659842519682
11
6.6183224409448815
21
-3.5848173622047241
0
LINE
8
BLACK
6
CONTINUOUS
10
6.6183224409448815
20
-3.5848173622047241
11
6.6220720078740154
21
-3.581067834645669
0
LINE
8
BLACK
6
CONTINUOUS
10
6.685814015748031
20
-3.6185631496062993
11
6.685814015748031
21
-3.6710566141732284
0
LINE
8
BLACK
6
CONTINUOUS
10
6.6670663385826767
20
-3.588566929133858
11
6.6483187007874012
21
-3.6448098818897638
0
LINE
8
BLACK
6
CONTINUOUS
10
6.6483187007874012
20
-3.6448098818897638
11
6.6970625984251964
21
-3.6448098818897638
0
LINE
8
BLACK
6
CONTINUOUS
10
6.7870513779527561
20
-3.6710566141732284
11
6.7870513779527561
21
-3.5923164566929131
0
LINE
8
BLACK
6
CONTINUOUS
10
6.8207971653543309
20
-3.6710566141732284
11
6.8207971653543309
21
-3.6298117716535434
0
LINE
8
BLACK
6
CONTINUOUS
10
6.8207971653543309
20
-3.6298117716535434
11
6.8170476377952758
21
-3.6223126771653544
0
LINE
8
BLACK
6
CONTINUOUS
10
6.8170476377952758
20
-3.6223126771653544
11
6.8095485826771656
21
-3.6185631496062993
0
LINE
8
BLACK
6
CONTINUOUS
10
6.8095485826771656
20
-3.6185631496062993
11
6.7982999606299215
21
-3.6185631496062993
0
LINE
8
BLACK
6
CONTINUOUS
10
6.7982999606299215
20
-3.6185631496062993
11
6.7908009055118113
21
-3.6223126771653544
0
LINE
8
BLACK
6
CONTINUOUS
10
6.7908009055118113
20
-3.6223126771653544
11
6.7870513779527561
21
-3.6260622047244095
0
LINE
8
BLACK
6
CONTINUOUS
10
6.8695410629921261
20
-3.6710566141732284
11
6.8620420078740159
21
-3.6673070866141733
0
LINE
8
BLACK
6
CONTINUOUS
10
6.8620420078740159
20
-3.6673070866141733
11
6.8582924803149607
21
-3.6635575196850394
0
LINE
8
BLACK
6
CONTINUOUS
10
6.8582924803149607
20
-3.6635575196850394
11
6.8545429527559056
21
-3.6560584645669292
0
LINE
8
BLACK
6
CONTINUOUS
10
6.8545429527559056
20
-3.6560584645669292
11
6.8545429527559056
21
-3.6335612992125985
0
LINE
8
BLACK
6
CONTINUOUS
10
6.8545429527559056
20
-3.6335612992125985
11
6.8582924803149607
21
-3.6260622047244095
0
LINE
8
BLACK
6
CONTINUOUS
10
6.8582924803149607
20
-3.6260622047244095
11
6.8620420078740159
21
-3.6223126771653544
0
LINE
8
BLACK
6
CONTINUOUS
10
6.8620420078740159
20
-3.6223126771653544
11
6.8695410629921261
21
-3.6185631496062993
0
LINE
8
BLACK
6
CONTINUOUS
10
6.8695410629921261
20
-3.6185631496062993
11
6.8807896850393702
21
-3.6185631496062993
0
LINE
8
BLACK
6
CONTINUOUS
10
6.8807896850393702
20
-3.6185631496062993
11
6.8882887401574804
21
-3.6223126771653544
0
LINE
8
BLACK
6
CONTINUOUS
10
6.8882887401574804
20
-3.6223126771653544
11
6.8920382677165355
21
-3.6260622047244095
0
LINE
8
BLACK
6
CONTINUOUS
10
6.8920382677165355
20
-3.6260622047244095
11
6.8957877952755906
21
-3.6335612992125985
0
LINE
8
BLACK
6
CONTINUOUS
10
6.8957877952755906
20
-3.6335612992125985
11
6.8957877952755906
21
-3.6560584645669292
0
LINE
8
BLACK
6
CONTINUOUS
10
6.8957877952755906
20
-3.6560584645669292
11
6.8920382677165355
21
-3.6635575196850394
0
LINE
8
BLACK
6
CONTINUOUS
10
6.8920382677165355
20
-3.6635575196850394
11
6.8882887401574804
21
-3.6673070866141733
0
LINE
8
BLACK
6
CONTINUOUS
10
6.8882887401574804
20
-3.6673070866141733
11
6.8807896850393702
21
-3.6710566141732284
0
LINE
8
BLACK
6
CONTINUOUS
10
6.8807896850393702
20
-3.6710566141732284
11
6.8695410629921261
21
-3.6710566141732284
0
LINE
8
BLACK
6
CONTINUOUS
10
6.9407821653543307
20
-3.6710566141732284
11
6.9332831102362205
21
-3.6673070866141733
0
LINE
8
BLACK
6
CONTINUOUS
10
6.9332831102362205
20
-3.6673070866141733
11
6.9295335826771653
21
-3.6598079921259843
0
LINE
8
BLACK
6
CONTINUOUS
10
6.9295335826771653
20
-3.6598079921259843
11
6.9295335826771653
21
-3.5923164566929131
0
LINE
8
BLACK
6
CONTINUOUS
10
7.0007746850393699
20
-3.6673070866141733
11
6.9932756299212597
21
-3.6710566141732284
0
LINE
8
BLACK
6
CONTINUOUS
10
6.9932756299212597
20
-3.6710566141732284
11
6.9782774803149605
21
-3.6710566141732284
0
LINE
8
BLACK
6
CONTINUOUS
10
6.9782774803149605
20
-3.6710566141732284
11
6.9707784251968503
21
-3.6673070866141733
0
LINE
8
BLACK
6
CONTINUOUS
10
6.9707784251968503
20
-3.6673070866141733
11
6.9670288976377952
21
-3.6598079921259843
0
LINE
8
BLACK
6
CONTINUOUS
10
6.9670288976377952
20
-3.6598079921259843
11
6.9670288976377952
21
-3.6298117716535434
0
LINE
8
BLACK
6
CONTINUOUS
10
6.9670288976377952
20
-3.6298117716535434
11
6.9707784251968503
21
-3.6223126771653544
0
LINE
8
BLACK
6
CONTINUOUS
10
6.9707784251968503
20
-3.6223126771653544
11
6.9782774803149605
21
-3.6185631496062993
0
LINE
8
BLACK
6
CONTINUOUS
10
6.9782774803149605
20
-3.6185631496062993
11
6.9932756299212597
21
-3.6185631496062993
0
LINE
8
BLACK
6
CONTINUOUS
10
6.9932756299212597
20
-3.6185631496062993
11
7.0007746850393699
21
-3.6223126771653544
0
LINE
8
BLACK
6
CONTINUOUS
10
7.0007746850393699
20
-3.6223126771653544
11
7.0045242125984251
21
-3.6298117716535434
0
LINE
8
BLACK
6
CONTINUOUS
10
7.0045242125984251
20
-3.6298117716535434
11
7.0045242125984251
21
-3.6373108267716536
0
LINE
8
BLACK
6
CONTINUOUS
10
7.0045242125984251
20
-3.6373108267716536
11
6.9670288976377952
21
-3.6448098818897638
0
LINE
8
BLACK
6
CONTINUOUS
10
7.0345204724409447
20
-3.6673070866141733
11
7.0420195275590549
21
-3.6710566141732284
0
LINE
8
BLACK
6
CONTINUOUS
10
7.0420195275590549
20
-3.6710566141732284
11
7.0570176377952754
21
-3.6710566141732284
0
LINE
8
BLACK
6
CONTINUOUS
10
7.0570176377952754
20
-3.6710566141732284
11
7.0645167322834643
21
-3.6673070866141733
0
LINE
8
BLACK
6
CONTINUOUS
10
7.0645167322834643
20
-3.6673070866141733
11
7.0682662598425194
21
-3.6598079921259843
0
LINE
8
BLACK
6
CONTINUOUS
10
7.0682662598425194
20
-3.6598079921259843
11
7.0682662598425194
21
-3.6560584645669292
0
LINE
8
BLACK
6
CONTINUOUS
10
7.0682662598425194
20
-3.6560584645669292
11
7.0645167322834643
21
-3.648559409448819
0
LINE
8
BLACK
6
CONTINUOUS
10
7.0645167322834643
20
-3.648559409448819
11
7.0570176377952754
21
-3.6448098818897638
0
LINE
8
BLACK
6
CONTINUOUS
10
7.0570176377952754
20
-3.6448098818897638
11
7.04576905511811
21
-3.6448098818897638
0
LINE
8
BLACK
6
CONTINUOUS
10
7.04576905511811
20
-3.6448098818897638
11
7.0382699999999998
21
-3.6410603543307087
0
LINE
8
BLACK
6
CONTINUOUS
10
7.0382699999999998
20
-3.6410603543307087
11
7.0345204724409447
21
-3.6335612992125985
0
LINE
8
BLACK
6
CONTINUOUS
10
7.0345204724409447
20
-3.6335612992125985
11
7.0345204724409447
21
-3.6298117716535434
0
LINE
8
BLACK
6
CONTINUOUS
10
7.0345204724409447
20
-3.6298117716535434
11
7.0382699999999998
21
-3.6223126771653544
0
LINE
8
BLACK
6
CONTINUOUS
10
7.0382699999999998
20
-3.6223126771653544
11
7.04576905511811
21
-3.6185631496062993
0
LINE
8
BLACK
6
CONTINUOUS
10
7.04576905511811
20
-3.6185631496062993
11
7.0570176377952754
21
-3.6185631496062993
0
LINE
8
BLACK
6
CONTINUOUS
10
7.0570176377952754
20
-3.6185631496062993
11
7.0645167322834643
21
-3.6223126771653544
0
LINE
8
BLACK
6
CONTINUOUS
10
7.094512992125984
20
-3.7010528346456693
11
7.0982625196850391
21
-3.6973033070866141
0
LINE
8
BLACK
6
CONTINUOUS
10
7.0982625196850391
20
-3.6973033070866141
11
7.1057615748031493
21
-3.6860547244094488
0
LINE
8
BLACK
6
CONTINUOUS
10
7.1057615748031493
20
-3.6860547244094488
11
7.1095111023622044
21
-3.6785556692913386
0
LINE
8
BLACK
6
CONTINUOUS
10
7.1095111023622044
20
-3.6785556692913386
11
7.1132606299212595
21
-3.6673070866141733
0
LINE
8
BLACK
6
CONTINUOUS
10
7.1132606299212595
20
-3.6673070866141733
11
7.1170101574803146
21
-3.648559409448819
0
LINE
8
BLACK
6
CONTINUOUS
10
7.1170101574803146
20
-3.648559409448819
11
7.1170101574803146
21
-3.6335612992125985
0
LINE
8
BLACK
6
CONTINUOUS
10
7.1170101574803146
20
-3.6335612992125985
11
7.1132606299212595
21
-3.6148136220472442
0
LINE
8
BLACK
6
CONTINUOUS
10
7.1132606299212595
20
-3.6148136220472442
11
7.1095111023622044
21
-3.6035650393700784
0
LINE
8
BLACK
6
CONTINUOUS
10
7.1095111023622044
20
-3.6035650393700784
11
7.1057615748031493
21
-3.5960659842519682
0
LINE
8
BLACK
6
CONTINUOUS
10
7.1057615748031493
20
-3.5960659842519682
11
7.0982625196850391
21
-3.5848173622047241
0
LINE
8
BLACK
6
CONTINUOUS
10
7.0982625196850391
20
-3.5848173622047241
11
7.094512992125984
21
-3.581067834645669
0
LINE
8
BLACK
6
CONTINUOUS
10
7.2369951968503932
20
-3.7010528346456693
11
7.2332456299212593
21
-3.6973033070866141
0
LINE
8
BLACK
6
CONTINUOUS
10
7.2332456299212593
20
-3.6973033070866141
11
7.2257465748031491
21
-3.6860547244094488
0
LINE
8
BLACK
6
CONTINUOUS
10
7.2257465748031491
20
-3.6860547244094488
11
7.221997047244094
21
-3.6785556692913386
0
LINE
8
BLACK
6
CONTINUOUS
10
7.221997047244094
20
-3.6785556692913386
11
7.2182475196850389
21
-3.6673070866141733
0
LINE
8
BLACK
6
CONTINUOUS
10
7.2182475196850389
20
-3.6673070866141733
11
7.2144979921259837
21
-3.648559409448819
0
LINE
8
BLACK
6
CONTINUOUS
10
7.2144979921259837
20
-3.648559409448819
11
7.2144979921259837
21
-3.6335612992125985
0
LINE
8
BLACK
6
CONTINUOUS
10
7.2144979921259837
20
-3.6335612992125985
11
7.2182475196850389
21
-3.6148136220472442
0
LINE
8
BLACK
6
CONTINUOUS
10
7.2182475196850389
20
-3.6148136220472442
11
7.221997047244094
21
-3.6035650393700784
0
LINE
8
BLACK
6
CONTINUOUS
10
7.221997047244094
20
-3.6035650393700784
11
7.2257465748031491
21
-3.5960659842519682
0
LINE
8
BLACK
6
CONTINUOUS
10
7.2257465748031491
20
-3.5960659842519682
11
7.2332456299212593
21
-3.5848173622047241
0
LINE
8
BLACK
6
CONTINUOUS
10
7.2332456299212593
20
-3.5848173622047241
11
7.2369951968503932
21
-3.581067834645669
0
LINE
8
BLACK
6
CONTINUOUS
10
7.266991417322834
20
-3.6185631496062993
11
7.266991417322834
21
-3.6710566141732284
0
LINE
8
BLACK
6
CONTINUOUS
10
7.266991417322834
20
-3.6260622047244095
11
7.2707409448818892
21
-3.6223126771653544
0
LINE
8
BLACK
6
CONTINUOUS
10
7.2707409448818892
20
-3.6223126771653544
11
7.2782400000000003
21
-3.6185631496062993
0
LINE
8
BLACK
6
CONTINUOUS
10
7.2782400000000003
20
-3.6185631496062993
11
7.2894886220472443
21
-3.6185631496062993
0
LINE
8
BLACK
6
CONTINUOUS
10
7.2894886220472443
20
-3.6185631496062993
11
7.2969876771653546
21
-3.6223126771653544
0
LINE
8
BLACK
6
CONTINUOUS
10
7.2969876771653546
20
-3.6223126771653544
11
7.3007372047244097
21
-3.6298117716535434
0
LINE
8
BLACK
6
CONTINUOUS
10
7.3007372047244097
20
-3.6298117716535434
11
7.3007372047244097
21
-3.6710566141732284
0
LINE
8
BLACK
6
CONTINUOUS
10
7.3494811023622049
20
-3.6710566141732284
11
7.3419820472440946
21
-3.6673070866141733
0
LINE
8
BLACK
6
CONTINUOUS
10
7.3419820472440946
20
-3.6673070866141733
11
7.3382325196850395
21
-3.6635575196850394
0
LINE
8
BLACK
6
CONTINUOUS
10
7.3382325196850395
20
-3.6635575196850394
11
7.3344829921259844
21
-3.6560584645669292
0
LINE
8
BLACK
6
CONTINUOUS
10
7.3344829921259844
20
-3.6560584645669292
11
7.3344829921259844
21
-3.6335612992125985
0
LINE
8
BLACK
6
CONTINUOUS
10
7.3344829921259844
20
-3.6335612992125985
11
7.3382325196850395
21
-3.6260622047244095
0
LINE
8
BLACK
6
CONTINUOUS
10
7.3382325196850395
20
-3.6260622047244095
11
7.3419820472440946
21
-3.6223126771653544
0
LINE
8
BLACK
6
CONTINUOUS
10
7.3419820472440946
20
-3.6223126771653544
11
7.3494811023622049
21
-3.6185631496062993
0
LINE
8
BLACK
6
CONTINUOUS
10
7.3494811023622049
20
-3.6185631496062993
11
7.3607297244094489
21
-3.6185631496062993
0
LINE
8
BLACK
6
CONTINUOUS
10
7.3607297244094489
20
-3.6185631496062993
11
7.3682287795275592
21
-3.6223126771653544
0
LINE
8
BLACK
6
CONTINUOUS
10
7.3682287795275592
20
-3.6223126771653544
11
7.3719783070866143
21
-3.6260622047244095
0
LINE
8
BLACK
6
CONTINUOUS
10
7.3719783070866143
20
-3.6260622047244095
11
7.3757278346456694
21
-3.6335612992125985
0
LINE
8
BLACK
6
CONTINUOUS
10
7.3757278346456694
20
-3.6335612992125985
11
7.3757278346456694
21
-3.6560584645669292
0
LINE
8
BLACK
6
CONTINUOUS
10
7.3757278346456694
20
-3.6560584645669292
11
7.3719783070866143
21
-3.6635575196850394
0
LINE
8
BLACK
6
CONTINUOUS
10
7.3719783070866143
20
-3.6635575196850394
11
7.3682287795275592
21
-3.6673070866141733
0
LINE
8
BLACK
6
CONTINUOUS
10
7.3682287795275592
20
-3.6673070866141733
11
7.3607297244094489
21
-3.6710566141732284
0
LINE
8
BLACK
6
CONTINUOUS
10
7.3607297244094489
20
-3.6710566141732284
11
7.3494811023622049
21
-3.6710566141732284
0
LINE
8
BLACK
6
CONTINUOUS
10
7.3982250393700788
20
-3.6185631496062993
11
7.4282212598425197
21
-3.6185631496062993
0
LINE
8
BLACK
6
CONTINUOUS
10
7.4094736220472441
20
-3.5923164566929131
11
7.4094736220472441
21
-3.6598079921259843
0
LINE
8
BLACK
6
CONTINUOUS
10
7.4094736220472441
20
-3.6598079921259843
11
7.4132231496062992
21
-3.6673070866141733
0
LINE
8
BLACK
6
CONTINUOUS
10
7.4132231496062992
20
-3.6673070866141733
11
7.4207222047244095
21
-3.6710566141732284
0
LINE
8
BLACK
6
CONTINUOUS
10
7.4207222047244095
20
-3.6710566141732284
11
7.4282212598425197
21
-3.6710566141732284
0
LINE
8
BLACK
6
CONTINUOUS
10
7.5144605118110235
20
-3.6185631496062993
11
7.5144605118110235
21
-3.6973033070866141
0
LINE
8
BLACK
6
CONTINUOUS
10
7.5144605118110235
20
-3.6223126771653544
11
7.5219595669291337
21
-3.6185631496062993
0
LINE
8
BLACK
6
CONTINUOUS
10
7.5219595669291337
20
-3.6185631496062993
11
7.5369577165354329
21
-3.6185631496062993
0
LINE
8
BLACK
6
CONTINUOUS
10
7.5369577165354329
20
-3.6185631496062993
11
7.5444567716535431
21
-3.6223126771653544
0
LINE
8
BLACK
6
CONTINUOUS
10
7.5444567716535431
20
-3.6223126771653544
11
7.5482062992125982
21
-3.6260622047244095
0
LINE
8
BLACK
6
CONTINUOUS
10
7.5482062992125982
20
-3.6260622047244095
11
7.5519558267716533
21
-3.6335612992125985
0
LINE
8
BLACK
6
CONTINUOUS
10
7.5519558267716533
20
-3.6335612992125985
11
7.5519558267716533
21
-3.6560584645669292
0
LINE
8
BLACK
6
CONTINUOUS
10
7.5519558267716533
20
-3.6560584645669292
11
7.5482062992125982
21
-3.6635575196850394
0
LINE
8
BLACK
6
CONTINUOUS
10
7.5482062992125982
20
-3.6635575196850394
11
7.5444567716535431
21
-3.6673070866141733
0
LINE
8
BLACK
6
CONTINUOUS
10
7.5444567716535431
20
-3.6673070866141733
11
7.5369577165354329
21
-3.6710566141732284
0
LINE
8
BLACK
6
CONTINUOUS
10
7.5369577165354329
20
-3.6710566141732284
11
7.5219595669291337
21
-3.6710566141732284
0
LINE
8
BLACK
6
CONTINUOUS
10
7.5219595669291337
20
-3.6710566141732284
11
7.5144605118110235
21
-3.6673070866141733
0
LINE
8
BLACK
6
CONTINUOUS
10
7.5969501968503934
20
-3.6710566141732284
11
7.5894511417322832
21
-3.6673070866141733
0
LINE
8
BLACK
6
CONTINUOUS
10
7.5894511417322832
20
-3.6673070866141733
11
7.5857016141732281
21
-3.6598079921259843
0
LINE
8
BLACK
6
CONTINUOUS
10
7.5857016141732281
20
-3.6598079921259843
11
7.5857016141732281
21
-3.5923164566929131
0
LINE
8
BLACK
6
CONTINUOUS
10
7.6606922440944878
20
-3.6710566141732284
11
7.6606922440944878
21
-3.6298117716535434
0
LINE
8
BLACK
6
CONTINUOUS
10
7.6606922440944878
20
-3.6298117716535434
11
7.6569427165354327
21
-3.6223126771653544
0
LINE
8
BLACK
6
CONTINUOUS
10
7.6569427165354327
20
-3.6223126771653544
11
7.6494436614173225
21
-3.6185631496062993
0
LINE
8
BLACK
6
CONTINUOUS
10
7.6494436614173225
20
-3.6185631496062993
11
7.6344455118110233
21
-3.6185631496062993
0
LINE
8
BLACK
6
CONTINUOUS
10
7.6344455118110233
20
-3.6185631496062993
11
7.626946456692913
21
-3.6223126771653544
0
LINE
8
BLACK
6
CONTINUOUS
10
7.6606922440944878
20
-3.6673070866141733
11
7.6531931889763776
21
-3.6710566141732284
0
LINE
8
BLACK
6
CONTINUOUS
10
7.6531931889763776
20
-3.6710566141732284
11
7.6344455118110233
21
-3.6710566141732284
0
LINE
8
BLACK
6
CONTINUOUS
10
7.6344455118110233
20
-3.6710566141732284
11
7.626946456692913
21
-3.6673070866141733
0
LINE
8
BLACK
6
CONTINUOUS
10
7.626946456692913
20
-3.6673070866141733
11
7.6231969291338579
21
-3.6598079921259843
0
LINE
8
BLACK
6
CONTINUOUS
10
7.6231969291338579
20
-3.6598079921259843
11
7.6231969291338579
21
-3.6523089370078741
0
LINE
8
BLACK
6
CONTINUOUS
10
7.6231969291338579
20
-3.6523089370078741
11
7.626946456692913
21
-3.6448098818897638
0
LINE
8
BLACK
6
CONTINUOUS
10
7.626946456692913
20
-3.6448098818897638
11
7.6344455118110233
21
-3.6410603543307087
0
LINE
8
BLACK
6
CONTINUOUS
10
7.6344455118110233
20
-3.6410603543307087
11
7.6531931889763776
21
-3.6410603543307087
0
LINE
8
BLACK
6
CONTINUOUS
10
7.6531931889763776
20
-3.6410603543307087
11
7.6606922440944878
21
-3.6373108267716536
0
LINE
8
BLACK
6
CONTINUOUS
10
7.6869389763779523
20
-3.6185631496062993
11
7.7169351968503932
21
-3.6185631496062993
0
LINE
8
BLACK
6
CONTINUOUS
10
7.6981875590551176
20
-3.5923164566929131
11
7.6981875590551176
21
-3.6598079921259843
0
LINE
8
BLACK
6
CONTINUOUS
10
7.6981875590551176
20
-3.6598079921259843
11
7.7019370866141728
21
-3.6673070866141733
0
LINE
8
BLACK
6
CONTINUOUS
10
7.7019370866141728
20
-3.6673070866141733
11
7.709436141732283
21
-3.6710566141732284
0
LINE
8
BLACK
6
CONTINUOUS
10
7.709436141732283
20
-3.6710566141732284
11
7.7169351968503932
21
-3.6710566141732284
0
LINE
8
BLACK
6
CONTINUOUS
10
7.7731781889763774
20
-3.6673070866141733
11
7.7656791338582671
21
-3.6710566141732284
0
LINE
8
BLACK
6
CONTINUOUS
10
7.7656791338582671
20
-3.6710566141732284
11
7.7506809842519679
21
-3.6710566141732284
0
LINE
8
BLACK
6
CONTINUOUS
10
7.7506809842519679
20
-3.6710566141732284
11
7.7431819291338577
21
-3.6673070866141733
0
LINE
8
BLACK
6
CONTINUOUS
10
7.7431819291338577
20
-3.6673070866141733
11
7.7394324015748026
21
-3.6598079921259843
0
LINE
8
BLACK
6
CONTINUOUS
10
7.7394324015748026
20
-3.6598079921259843
11
7.7394324015748026
21
-3.6298117716535434
0
LINE
8
BLACK
6
CONTINUOUS
10
7.7394324015748026
20
-3.6298117716535434
11
7.7431819291338577
21
-3.6223126771653544
0
LINE
8
BLACK
6
CONTINUOUS
10
7.7431819291338577
20
-3.6223126771653544
11
7.7506809842519679
21
-3.6185631496062993
0
LINE
8
BLACK
6
CONTINUOUS
10
7.7506809842519679
20
-3.6185631496062993
11
7.7656791338582671
21
-3.6185631496062993
0
LINE
8
BLACK
6
CONTINUOUS
10
7.7656791338582671
20
-3.6185631496062993
11
7.7731781889763774
21
-3.6223126771653544
0
LINE
8
BLACK
6
CONTINUOUS
10
7.7731781889763774
20
-3.6223126771653544
11
7.7769277165354325
21
-3.6298117716535434
0
LINE
8
BLACK
6
CONTINUOUS
10
7.7769277165354325
20
-3.6298117716535434
11
7.7769277165354325
21
-3.6373108267716536
0
LINE
8
BLACK
6
CONTINUOUS
10
7.7769277165354325
20
-3.6373108267716536
11
7.7394324015748026
21
-3.6448098818897638
0
LINE
8
BLACK
6
CONTINUOUS
10
7.8444192913385828
20
-3.6710566141732284
11
7.8444192913385828
21
-3.5923164566929131
0
LINE
8
BLACK
6
CONTINUOUS
10
7.8444192913385828
20
-3.6673070866141733
11
7.8369202362204726
21
-3.6710566141732284
0
LINE
8
BLACK
6
CONTINUOUS
10
7.8369202362204726
20
-3.6710566141732284
11
7.8219220866141734
21
-3.6710566141732284
0
LINE
8
BLACK
6
CONTINUOUS
10
7.8219220866141734
20
-3.6710566141732284
11
7.8144230314960632
21
-3.6673070866141733
0
LINE
8
BLACK
6
CONTINUOUS
10
7.8144230314960632
20
-3.6673070866141733
11
7.8106735039370081
21
-3.6635575196850394
0
LINE
8
BLACK
6
CONTINUOUS
10
7.8106735039370081
20
-3.6635575196850394
11
7.806923976377953
21
-3.6560584645669292
0
LINE
8
BLACK
6
CONTINUOUS
10
7.806923976377953
20
-3.6560584645669292
11
7.806923976377953
21
-3.6335612992125985
0
LINE
8
BLACK
6
CONTINUOUS
10
7.806923976377953
20
-3.6335612992125985
11
7.8106735039370081
21
-3.6260622047244095
0
LINE
8
BLACK
6
CONTINUOUS
10
7.8106735039370081
20
-3.6260622047244095
11
7.8144230314960632
21
-3.6223126771653544
0
LINE
8
BLACK
6
CONTINUOUS
10
7.8144230314960632
20
-3.6223126771653544
11
7.8219220866141734
21
-3.6185631496062993
0
LINE
8
BLACK
6
CONTINUOUS
10
7.8219220866141734
20
-3.6185631496062993
11
7.8369202362204726
21
-3.6185631496062993
0
LINE
8
BLACK
6
CONTINUOUS
10
7.8369202362204726
20
-3.6185631496062993
11
7.8444192913385828
21
-3.6223126771653544
0
LINE
8
BLACK
6
CONTINUOUS
10
7.8744155511811025
20
-3.7010528346456693
11
7.8781650787401576
21
-3.6973033070866141
0
LINE
8
BLACK
6
CONTINUOUS
10
7.8781650787401576
20
-3.6973033070866141
11
7.8856641338582678
21
-3.6860547244094488
0
LINE
8
BLACK
6
CONTINUOUS
10
7.8856641338582678
20
-3.6860547244094488
11
7.8894136614173229
21
-3.6785556692913386
0
LINE
8
BLACK
6
CONTINUOUS
10
7.8894136614173229
20
-3.6785556692913386
11
7.893163188976378
21
-3.6673070866141733
0
LINE
8
BLACK
6
CONTINUOUS
10
7.893163188976378
20
-3.6673070866141733
11
7.8969127165354331
21
-3.648559409448819
0
LINE
8
BLACK
6
CONTINUOUS
10
7.8969127165354331
20
-3.648559409448819
11
7.8969127165354331
21
-3.6335612992125985
0
LINE
8
BLACK
6
CONTINUOUS
10
7.8969127165354331
20
-3.6335612992125985
11
7.893163188976378
21
-3.6148136220472442
0
LINE
8
BLACK
6
CONTINUOUS
10
7.893163188976378
20
-3.6148136220472442
11
7.8894136614173229
21
-3.6035650393700784
0
LINE
8
BLACK
6
CONTINUOUS
10
7.8894136614173229
20
-3.6035650393700784
11
7.8856641338582678
21
-3.5960659842519682
0
LINE
8
BLACK
6
CONTINUOUS
10
7.8856641338582678
20
-3.5960659842519682
11
7.8781650787401576
21
-3.5848173622047241
0
LINE
8
BLACK
6
CONTINUOUS
10
7.8781650787401576
20
-3.5848173622047241
11
7.8744155511811025
21
-3.581067834645669
  0
ENDSEC
  0
EOF
