%TF.GenerationSoftware,KiCad,Pcbnew,8.0.1*%
%TF.CreationDate,2025-06-23T19:48:13+12:00*%
%TF.ProjectId,panelrev2,70616e65-6c72-4657-9632-2e6b69636164,rev?*%
%TF.SameCoordinates,Original*%
%TF.FileFunction,Other,Comment*%
%FSLAX46Y46*%
G04 Gerber Fmt 4.6, Leading zero omitted, Abs format (unit mm)*
G04 Created by KiCad (PCBNEW 8.0.1) date 2025-06-23 19:48:13*
%MOMM*%
%LPD*%
G01*
G04 APERTURE LIST*
%ADD10C,0.300000*%
%ADD11C,0.020000*%
G04 APERTURE END LIST*
D10*
X129500000Y-27000000D02*
X167500000Y-27000000D01*
X129500000Y-73600000D02*
X167500000Y-73600000D01*
X157500000Y-17000000D02*
X157500000Y-83600000D01*
X139500000Y-17000000D02*
X139500000Y-83600000D01*
X138409638Y-13612155D02*
X140409638Y-12945489D01*
X140409638Y-12945489D02*
X138409638Y-12278822D01*
X139647733Y-11612155D02*
X139647733Y-10088346D01*
X140219161Y-7993108D02*
X140314400Y-8088346D01*
X140314400Y-8088346D02*
X140409638Y-8374060D01*
X140409638Y-8374060D02*
X140409638Y-8564536D01*
X140409638Y-8564536D02*
X140314400Y-8850251D01*
X140314400Y-8850251D02*
X140123923Y-9040727D01*
X140123923Y-9040727D02*
X139933447Y-9135965D01*
X139933447Y-9135965D02*
X139552495Y-9231203D01*
X139552495Y-9231203D02*
X139266780Y-9231203D01*
X139266780Y-9231203D02*
X138885828Y-9135965D01*
X138885828Y-9135965D02*
X138695352Y-9040727D01*
X138695352Y-9040727D02*
X138504876Y-8850251D01*
X138504876Y-8850251D02*
X138409638Y-8564536D01*
X138409638Y-8564536D02*
X138409638Y-8374060D01*
X138409638Y-8374060D02*
X138504876Y-8088346D01*
X138504876Y-8088346D02*
X138600114Y-7993108D01*
X138409638Y-7135965D02*
X140028685Y-7135965D01*
X140028685Y-7135965D02*
X140219161Y-7040727D01*
X140219161Y-7040727D02*
X140314400Y-6945489D01*
X140314400Y-6945489D02*
X140409638Y-6755013D01*
X140409638Y-6755013D02*
X140409638Y-6374060D01*
X140409638Y-6374060D02*
X140314400Y-6183584D01*
X140314400Y-6183584D02*
X140219161Y-6088346D01*
X140219161Y-6088346D02*
X140028685Y-5993108D01*
X140028685Y-5993108D02*
X138409638Y-5993108D01*
X138409638Y-5326441D02*
X138409638Y-4183584D01*
X140409638Y-4755013D02*
X138409638Y-4755013D01*
X156409638Y-13612155D02*
X158409638Y-12945489D01*
X158409638Y-12945489D02*
X156409638Y-12278822D01*
X157647733Y-11612155D02*
X157647733Y-10088346D01*
X158219161Y-7993108D02*
X158314400Y-8088346D01*
X158314400Y-8088346D02*
X158409638Y-8374060D01*
X158409638Y-8374060D02*
X158409638Y-8564536D01*
X158409638Y-8564536D02*
X158314400Y-8850251D01*
X158314400Y-8850251D02*
X158123923Y-9040727D01*
X158123923Y-9040727D02*
X157933447Y-9135965D01*
X157933447Y-9135965D02*
X157552495Y-9231203D01*
X157552495Y-9231203D02*
X157266780Y-9231203D01*
X157266780Y-9231203D02*
X156885828Y-9135965D01*
X156885828Y-9135965D02*
X156695352Y-9040727D01*
X156695352Y-9040727D02*
X156504876Y-8850251D01*
X156504876Y-8850251D02*
X156409638Y-8564536D01*
X156409638Y-8564536D02*
X156409638Y-8374060D01*
X156409638Y-8374060D02*
X156504876Y-8088346D01*
X156504876Y-8088346D02*
X156600114Y-7993108D01*
X156409638Y-7135965D02*
X158028685Y-7135965D01*
X158028685Y-7135965D02*
X158219161Y-7040727D01*
X158219161Y-7040727D02*
X158314400Y-6945489D01*
X158314400Y-6945489D02*
X158409638Y-6755013D01*
X158409638Y-6755013D02*
X158409638Y-6374060D01*
X158409638Y-6374060D02*
X158314400Y-6183584D01*
X158314400Y-6183584D02*
X158219161Y-6088346D01*
X158219161Y-6088346D02*
X158028685Y-5993108D01*
X158028685Y-5993108D02*
X156409638Y-5993108D01*
X156409638Y-5326441D02*
X156409638Y-4183584D01*
X158409638Y-4755013D02*
X156409638Y-4755013D01*
X170887844Y-25909638D02*
X171554510Y-27909638D01*
X171554510Y-27909638D02*
X172221177Y-25909638D01*
X172887844Y-27147733D02*
X174411654Y-27147733D01*
X176506891Y-27719161D02*
X176411653Y-27814400D01*
X176411653Y-27814400D02*
X176125939Y-27909638D01*
X176125939Y-27909638D02*
X175935463Y-27909638D01*
X175935463Y-27909638D02*
X175649748Y-27814400D01*
X175649748Y-27814400D02*
X175459272Y-27623923D01*
X175459272Y-27623923D02*
X175364034Y-27433447D01*
X175364034Y-27433447D02*
X175268796Y-27052495D01*
X175268796Y-27052495D02*
X175268796Y-26766780D01*
X175268796Y-26766780D02*
X175364034Y-26385828D01*
X175364034Y-26385828D02*
X175459272Y-26195352D01*
X175459272Y-26195352D02*
X175649748Y-26004876D01*
X175649748Y-26004876D02*
X175935463Y-25909638D01*
X175935463Y-25909638D02*
X176125939Y-25909638D01*
X176125939Y-25909638D02*
X176411653Y-26004876D01*
X176411653Y-26004876D02*
X176506891Y-26100114D01*
X177364034Y-25909638D02*
X177364034Y-27528685D01*
X177364034Y-27528685D02*
X177459272Y-27719161D01*
X177459272Y-27719161D02*
X177554510Y-27814400D01*
X177554510Y-27814400D02*
X177744986Y-27909638D01*
X177744986Y-27909638D02*
X178125939Y-27909638D01*
X178125939Y-27909638D02*
X178316415Y-27814400D01*
X178316415Y-27814400D02*
X178411653Y-27719161D01*
X178411653Y-27719161D02*
X178506891Y-27528685D01*
X178506891Y-27528685D02*
X178506891Y-25909638D01*
X179173558Y-25909638D02*
X180316415Y-25909638D01*
X179744986Y-27909638D02*
X179744986Y-25909638D01*
X170887844Y-72509638D02*
X171554510Y-74509638D01*
X171554510Y-74509638D02*
X172221177Y-72509638D01*
X172887844Y-73747733D02*
X174411654Y-73747733D01*
X176506891Y-74319161D02*
X176411653Y-74414400D01*
X176411653Y-74414400D02*
X176125939Y-74509638D01*
X176125939Y-74509638D02*
X175935463Y-74509638D01*
X175935463Y-74509638D02*
X175649748Y-74414400D01*
X175649748Y-74414400D02*
X175459272Y-74223923D01*
X175459272Y-74223923D02*
X175364034Y-74033447D01*
X175364034Y-74033447D02*
X175268796Y-73652495D01*
X175268796Y-73652495D02*
X175268796Y-73366780D01*
X175268796Y-73366780D02*
X175364034Y-72985828D01*
X175364034Y-72985828D02*
X175459272Y-72795352D01*
X175459272Y-72795352D02*
X175649748Y-72604876D01*
X175649748Y-72604876D02*
X175935463Y-72509638D01*
X175935463Y-72509638D02*
X176125939Y-72509638D01*
X176125939Y-72509638D02*
X176411653Y-72604876D01*
X176411653Y-72604876D02*
X176506891Y-72700114D01*
X177364034Y-72509638D02*
X177364034Y-74128685D01*
X177364034Y-74128685D02*
X177459272Y-74319161D01*
X177459272Y-74319161D02*
X177554510Y-74414400D01*
X177554510Y-74414400D02*
X177744986Y-74509638D01*
X177744986Y-74509638D02*
X178125939Y-74509638D01*
X178125939Y-74509638D02*
X178316415Y-74414400D01*
X178316415Y-74414400D02*
X178411653Y-74319161D01*
X178411653Y-74319161D02*
X178506891Y-74128685D01*
X178506891Y-74128685D02*
X178506891Y-72509638D01*
X179173558Y-72509638D02*
X180316415Y-72509638D01*
X179744986Y-74509638D02*
X179744986Y-72509638D01*
D11*
X141350000Y-39476860D02*
X141385714Y-39626860D01*
X141385714Y-39626860D02*
X141414286Y-39519718D01*
X141414286Y-39519718D02*
X141442857Y-39626860D01*
X141442857Y-39626860D02*
X141478572Y-39476860D01*
X141535715Y-39626860D02*
X141535715Y-39526860D01*
X141535715Y-39476860D02*
X141528572Y-39484003D01*
X141528572Y-39484003D02*
X141535715Y-39491146D01*
X141535715Y-39491146D02*
X141542858Y-39484003D01*
X141542858Y-39484003D02*
X141535715Y-39476860D01*
X141535715Y-39476860D02*
X141535715Y-39491146D01*
X141607144Y-39526860D02*
X141607144Y-39676860D01*
X141607144Y-39534003D02*
X141621430Y-39526860D01*
X141621430Y-39526860D02*
X141650001Y-39526860D01*
X141650001Y-39526860D02*
X141664287Y-39534003D01*
X141664287Y-39534003D02*
X141671430Y-39541146D01*
X141671430Y-39541146D02*
X141678572Y-39555432D01*
X141678572Y-39555432D02*
X141678572Y-39598289D01*
X141678572Y-39598289D02*
X141671430Y-39612575D01*
X141671430Y-39612575D02*
X141664287Y-39619718D01*
X141664287Y-39619718D02*
X141650001Y-39626860D01*
X141650001Y-39626860D02*
X141621430Y-39626860D01*
X141621430Y-39626860D02*
X141607144Y-39619718D01*
X141800001Y-39619718D02*
X141785715Y-39626860D01*
X141785715Y-39626860D02*
X141757144Y-39626860D01*
X141757144Y-39626860D02*
X141742858Y-39619718D01*
X141742858Y-39619718D02*
X141735715Y-39605432D01*
X141735715Y-39605432D02*
X141735715Y-39548289D01*
X141735715Y-39548289D02*
X141742858Y-39534003D01*
X141742858Y-39534003D02*
X141757144Y-39526860D01*
X141757144Y-39526860D02*
X141785715Y-39526860D01*
X141785715Y-39526860D02*
X141800001Y-39534003D01*
X141800001Y-39534003D02*
X141807144Y-39548289D01*
X141807144Y-39548289D02*
X141807144Y-39562575D01*
X141807144Y-39562575D02*
X141735715Y-39576860D01*
X141871429Y-39626860D02*
X141871429Y-39526860D01*
X141871429Y-39555432D02*
X141878572Y-39541146D01*
X141878572Y-39541146D02*
X141885715Y-39534003D01*
X141885715Y-39534003D02*
X141900000Y-39526860D01*
X141900000Y-39526860D02*
X141914286Y-39526860D01*
X142078572Y-39626860D02*
X142078572Y-39526860D01*
X142078572Y-39541146D02*
X142085715Y-39534003D01*
X142085715Y-39534003D02*
X142100000Y-39526860D01*
X142100000Y-39526860D02*
X142121429Y-39526860D01*
X142121429Y-39526860D02*
X142135715Y-39534003D01*
X142135715Y-39534003D02*
X142142858Y-39548289D01*
X142142858Y-39548289D02*
X142142858Y-39626860D01*
X142142858Y-39548289D02*
X142150000Y-39534003D01*
X142150000Y-39534003D02*
X142164286Y-39526860D01*
X142164286Y-39526860D02*
X142185715Y-39526860D01*
X142185715Y-39526860D02*
X142200000Y-39534003D01*
X142200000Y-39534003D02*
X142207143Y-39548289D01*
X142207143Y-39548289D02*
X142207143Y-39626860D01*
X142342858Y-39626860D02*
X142342858Y-39548289D01*
X142342858Y-39548289D02*
X142335715Y-39534003D01*
X142335715Y-39534003D02*
X142321429Y-39526860D01*
X142321429Y-39526860D02*
X142292858Y-39526860D01*
X142292858Y-39526860D02*
X142278572Y-39534003D01*
X142342858Y-39619718D02*
X142328572Y-39626860D01*
X142328572Y-39626860D02*
X142292858Y-39626860D01*
X142292858Y-39626860D02*
X142278572Y-39619718D01*
X142278572Y-39619718D02*
X142271429Y-39605432D01*
X142271429Y-39605432D02*
X142271429Y-39591146D01*
X142271429Y-39591146D02*
X142278572Y-39576860D01*
X142278572Y-39576860D02*
X142292858Y-39569718D01*
X142292858Y-39569718D02*
X142328572Y-39569718D01*
X142328572Y-39569718D02*
X142342858Y-39562575D01*
X142400000Y-39526860D02*
X142435714Y-39626860D01*
X142471429Y-39526860D02*
X142435714Y-39626860D01*
X142435714Y-39626860D02*
X142421429Y-39662575D01*
X142421429Y-39662575D02*
X142414286Y-39669718D01*
X142414286Y-39669718D02*
X142400000Y-39676860D01*
X142642858Y-39626860D02*
X142642858Y-39476860D01*
X142642858Y-39534003D02*
X142657144Y-39526860D01*
X142657144Y-39526860D02*
X142685715Y-39526860D01*
X142685715Y-39526860D02*
X142700001Y-39534003D01*
X142700001Y-39534003D02*
X142707144Y-39541146D01*
X142707144Y-39541146D02*
X142714286Y-39555432D01*
X142714286Y-39555432D02*
X142714286Y-39598289D01*
X142714286Y-39598289D02*
X142707144Y-39612575D01*
X142707144Y-39612575D02*
X142700001Y-39619718D01*
X142700001Y-39619718D02*
X142685715Y-39626860D01*
X142685715Y-39626860D02*
X142657144Y-39626860D01*
X142657144Y-39626860D02*
X142642858Y-39619718D01*
X142835715Y-39619718D02*
X142821429Y-39626860D01*
X142821429Y-39626860D02*
X142792858Y-39626860D01*
X142792858Y-39626860D02*
X142778572Y-39619718D01*
X142778572Y-39619718D02*
X142771429Y-39605432D01*
X142771429Y-39605432D02*
X142771429Y-39548289D01*
X142771429Y-39548289D02*
X142778572Y-39534003D01*
X142778572Y-39534003D02*
X142792858Y-39526860D01*
X142792858Y-39526860D02*
X142821429Y-39526860D01*
X142821429Y-39526860D02*
X142835715Y-39534003D01*
X142835715Y-39534003D02*
X142842858Y-39548289D01*
X142842858Y-39548289D02*
X142842858Y-39562575D01*
X142842858Y-39562575D02*
X142771429Y-39576860D01*
X141300001Y-39868352D02*
X141300001Y-39789781D01*
X141300001Y-39789781D02*
X141292858Y-39775495D01*
X141292858Y-39775495D02*
X141278572Y-39768352D01*
X141278572Y-39768352D02*
X141250001Y-39768352D01*
X141250001Y-39768352D02*
X141235715Y-39775495D01*
X141300001Y-39861210D02*
X141285715Y-39868352D01*
X141285715Y-39868352D02*
X141250001Y-39868352D01*
X141250001Y-39868352D02*
X141235715Y-39861210D01*
X141235715Y-39861210D02*
X141228572Y-39846924D01*
X141228572Y-39846924D02*
X141228572Y-39832638D01*
X141228572Y-39832638D02*
X141235715Y-39818352D01*
X141235715Y-39818352D02*
X141250001Y-39811210D01*
X141250001Y-39811210D02*
X141285715Y-39811210D01*
X141285715Y-39811210D02*
X141300001Y-39804067D01*
X141371429Y-39768352D02*
X141371429Y-39868352D01*
X141371429Y-39782638D02*
X141378572Y-39775495D01*
X141378572Y-39775495D02*
X141392857Y-39768352D01*
X141392857Y-39768352D02*
X141414286Y-39768352D01*
X141414286Y-39768352D02*
X141428572Y-39775495D01*
X141428572Y-39775495D02*
X141435715Y-39789781D01*
X141435715Y-39789781D02*
X141435715Y-39868352D01*
X141492857Y-39768352D02*
X141528571Y-39868352D01*
X141564286Y-39768352D02*
X141528571Y-39868352D01*
X141528571Y-39868352D02*
X141514286Y-39904067D01*
X141514286Y-39904067D02*
X141507143Y-39911210D01*
X141507143Y-39911210D02*
X141492857Y-39918352D01*
X141607143Y-39768352D02*
X141635715Y-39868352D01*
X141635715Y-39868352D02*
X141664286Y-39796924D01*
X141664286Y-39796924D02*
X141692857Y-39868352D01*
X141692857Y-39868352D02*
X141721429Y-39768352D01*
X141778572Y-39868352D02*
X141778572Y-39718352D01*
X141842858Y-39868352D02*
X141842858Y-39789781D01*
X141842858Y-39789781D02*
X141835715Y-39775495D01*
X141835715Y-39775495D02*
X141821429Y-39768352D01*
X141821429Y-39768352D02*
X141800000Y-39768352D01*
X141800000Y-39768352D02*
X141785715Y-39775495D01*
X141785715Y-39775495D02*
X141778572Y-39782638D01*
X141971429Y-39861210D02*
X141957143Y-39868352D01*
X141957143Y-39868352D02*
X141928572Y-39868352D01*
X141928572Y-39868352D02*
X141914286Y-39861210D01*
X141914286Y-39861210D02*
X141907143Y-39846924D01*
X141907143Y-39846924D02*
X141907143Y-39789781D01*
X141907143Y-39789781D02*
X141914286Y-39775495D01*
X141914286Y-39775495D02*
X141928572Y-39768352D01*
X141928572Y-39768352D02*
X141957143Y-39768352D01*
X141957143Y-39768352D02*
X141971429Y-39775495D01*
X141971429Y-39775495D02*
X141978572Y-39789781D01*
X141978572Y-39789781D02*
X141978572Y-39804067D01*
X141978572Y-39804067D02*
X141907143Y-39818352D01*
X142042857Y-39868352D02*
X142042857Y-39768352D01*
X142042857Y-39796924D02*
X142050000Y-39782638D01*
X142050000Y-39782638D02*
X142057143Y-39775495D01*
X142057143Y-39775495D02*
X142071428Y-39768352D01*
X142071428Y-39768352D02*
X142085714Y-39768352D01*
X142192857Y-39861210D02*
X142178571Y-39868352D01*
X142178571Y-39868352D02*
X142150000Y-39868352D01*
X142150000Y-39868352D02*
X142135714Y-39861210D01*
X142135714Y-39861210D02*
X142128571Y-39846924D01*
X142128571Y-39846924D02*
X142128571Y-39789781D01*
X142128571Y-39789781D02*
X142135714Y-39775495D01*
X142135714Y-39775495D02*
X142150000Y-39768352D01*
X142150000Y-39768352D02*
X142178571Y-39768352D01*
X142178571Y-39768352D02*
X142192857Y-39775495D01*
X142192857Y-39775495D02*
X142200000Y-39789781D01*
X142200000Y-39789781D02*
X142200000Y-39804067D01*
X142200000Y-39804067D02*
X142128571Y-39818352D01*
X142364285Y-39768352D02*
X142392857Y-39868352D01*
X142392857Y-39868352D02*
X142421428Y-39796924D01*
X142421428Y-39796924D02*
X142449999Y-39868352D01*
X142449999Y-39868352D02*
X142478571Y-39768352D01*
X142535714Y-39868352D02*
X142535714Y-39768352D01*
X142535714Y-39718352D02*
X142528571Y-39725495D01*
X142528571Y-39725495D02*
X142535714Y-39732638D01*
X142535714Y-39732638D02*
X142542857Y-39725495D01*
X142542857Y-39725495D02*
X142535714Y-39718352D01*
X142535714Y-39718352D02*
X142535714Y-39732638D01*
X142585714Y-39768352D02*
X142642857Y-39768352D01*
X142607143Y-39718352D02*
X142607143Y-39846924D01*
X142607143Y-39846924D02*
X142614286Y-39861210D01*
X142614286Y-39861210D02*
X142628571Y-39868352D01*
X142628571Y-39868352D02*
X142642857Y-39868352D01*
X142692857Y-39868352D02*
X142692857Y-39718352D01*
X142757143Y-39868352D02*
X142757143Y-39789781D01*
X142757143Y-39789781D02*
X142750000Y-39775495D01*
X142750000Y-39775495D02*
X142735714Y-39768352D01*
X142735714Y-39768352D02*
X142714285Y-39768352D01*
X142714285Y-39768352D02*
X142700000Y-39775495D01*
X142700000Y-39775495D02*
X142692857Y-39782638D01*
X142828571Y-39868352D02*
X142828571Y-39768352D01*
X142828571Y-39718352D02*
X142821428Y-39725495D01*
X142821428Y-39725495D02*
X142828571Y-39732638D01*
X142828571Y-39732638D02*
X142835714Y-39725495D01*
X142835714Y-39725495D02*
X142828571Y-39718352D01*
X142828571Y-39718352D02*
X142828571Y-39732638D01*
X142900000Y-39768352D02*
X142900000Y-39868352D01*
X142900000Y-39782638D02*
X142907143Y-39775495D01*
X142907143Y-39775495D02*
X142921428Y-39768352D01*
X142921428Y-39768352D02*
X142942857Y-39768352D01*
X142942857Y-39768352D02*
X142957143Y-39775495D01*
X142957143Y-39775495D02*
X142964286Y-39789781D01*
X142964286Y-39789781D02*
X142964286Y-39868352D01*
X141485715Y-40102702D02*
X141471429Y-40109844D01*
X141471429Y-40109844D02*
X141442857Y-40109844D01*
X141442857Y-40109844D02*
X141428572Y-40102702D01*
X141428572Y-40102702D02*
X141421429Y-40095559D01*
X141421429Y-40095559D02*
X141414286Y-40081273D01*
X141414286Y-40081273D02*
X141414286Y-40038416D01*
X141414286Y-40038416D02*
X141421429Y-40024130D01*
X141421429Y-40024130D02*
X141428572Y-40016987D01*
X141428572Y-40016987D02*
X141442857Y-40009844D01*
X141442857Y-40009844D02*
X141471429Y-40009844D01*
X141471429Y-40009844D02*
X141485715Y-40016987D01*
X141550000Y-40109844D02*
X141550000Y-40009844D01*
X141550000Y-39959844D02*
X141542857Y-39966987D01*
X141542857Y-39966987D02*
X141550000Y-39974130D01*
X141550000Y-39974130D02*
X141557143Y-39966987D01*
X141557143Y-39966987D02*
X141550000Y-39959844D01*
X141550000Y-39959844D02*
X141550000Y-39974130D01*
X141621429Y-40109844D02*
X141621429Y-40009844D01*
X141621429Y-40038416D02*
X141628572Y-40024130D01*
X141628572Y-40024130D02*
X141635715Y-40016987D01*
X141635715Y-40016987D02*
X141650000Y-40009844D01*
X141650000Y-40009844D02*
X141664286Y-40009844D01*
X141778572Y-40102702D02*
X141764286Y-40109844D01*
X141764286Y-40109844D02*
X141735714Y-40109844D01*
X141735714Y-40109844D02*
X141721429Y-40102702D01*
X141721429Y-40102702D02*
X141714286Y-40095559D01*
X141714286Y-40095559D02*
X141707143Y-40081273D01*
X141707143Y-40081273D02*
X141707143Y-40038416D01*
X141707143Y-40038416D02*
X141714286Y-40024130D01*
X141714286Y-40024130D02*
X141721429Y-40016987D01*
X141721429Y-40016987D02*
X141735714Y-40009844D01*
X141735714Y-40009844D02*
X141764286Y-40009844D01*
X141764286Y-40009844D02*
X141778572Y-40016987D01*
X141864285Y-40109844D02*
X141850000Y-40102702D01*
X141850000Y-40102702D02*
X141842857Y-40088416D01*
X141842857Y-40088416D02*
X141842857Y-39959844D01*
X141978571Y-40102702D02*
X141964285Y-40109844D01*
X141964285Y-40109844D02*
X141935714Y-40109844D01*
X141935714Y-40109844D02*
X141921428Y-40102702D01*
X141921428Y-40102702D02*
X141914285Y-40088416D01*
X141914285Y-40088416D02*
X141914285Y-40031273D01*
X141914285Y-40031273D02*
X141921428Y-40016987D01*
X141921428Y-40016987D02*
X141935714Y-40009844D01*
X141935714Y-40009844D02*
X141964285Y-40009844D01*
X141964285Y-40009844D02*
X141978571Y-40016987D01*
X141978571Y-40016987D02*
X141985714Y-40031273D01*
X141985714Y-40031273D02*
X141985714Y-40045559D01*
X141985714Y-40045559D02*
X141914285Y-40059844D01*
X142157142Y-40102702D02*
X142171428Y-40109844D01*
X142171428Y-40109844D02*
X142199999Y-40109844D01*
X142199999Y-40109844D02*
X142214285Y-40102702D01*
X142214285Y-40102702D02*
X142221428Y-40088416D01*
X142221428Y-40088416D02*
X142221428Y-40081273D01*
X142221428Y-40081273D02*
X142214285Y-40066987D01*
X142214285Y-40066987D02*
X142199999Y-40059844D01*
X142199999Y-40059844D02*
X142178571Y-40059844D01*
X142178571Y-40059844D02*
X142164285Y-40052702D01*
X142164285Y-40052702D02*
X142157142Y-40038416D01*
X142157142Y-40038416D02*
X142157142Y-40031273D01*
X142157142Y-40031273D02*
X142164285Y-40016987D01*
X142164285Y-40016987D02*
X142178571Y-40009844D01*
X142178571Y-40009844D02*
X142199999Y-40009844D01*
X142199999Y-40009844D02*
X142214285Y-40016987D01*
X142285714Y-40109844D02*
X142285714Y-39959844D01*
X142350000Y-40109844D02*
X142350000Y-40031273D01*
X142350000Y-40031273D02*
X142342857Y-40016987D01*
X142342857Y-40016987D02*
X142328571Y-40009844D01*
X142328571Y-40009844D02*
X142307142Y-40009844D01*
X142307142Y-40009844D02*
X142292857Y-40016987D01*
X142292857Y-40016987D02*
X142285714Y-40024130D01*
X142442856Y-40109844D02*
X142428571Y-40102702D01*
X142428571Y-40102702D02*
X142421428Y-40095559D01*
X142421428Y-40095559D02*
X142414285Y-40081273D01*
X142414285Y-40081273D02*
X142414285Y-40038416D01*
X142414285Y-40038416D02*
X142421428Y-40024130D01*
X142421428Y-40024130D02*
X142428571Y-40016987D01*
X142428571Y-40016987D02*
X142442856Y-40009844D01*
X142442856Y-40009844D02*
X142464285Y-40009844D01*
X142464285Y-40009844D02*
X142478571Y-40016987D01*
X142478571Y-40016987D02*
X142485714Y-40024130D01*
X142485714Y-40024130D02*
X142492856Y-40038416D01*
X142492856Y-40038416D02*
X142492856Y-40081273D01*
X142492856Y-40081273D02*
X142485714Y-40095559D01*
X142485714Y-40095559D02*
X142478571Y-40102702D01*
X142478571Y-40102702D02*
X142464285Y-40109844D01*
X142464285Y-40109844D02*
X142442856Y-40109844D01*
X142542856Y-40009844D02*
X142571428Y-40109844D01*
X142571428Y-40109844D02*
X142599999Y-40038416D01*
X142599999Y-40038416D02*
X142628570Y-40109844D01*
X142628570Y-40109844D02*
X142657142Y-40009844D01*
X142714285Y-40009844D02*
X142714285Y-40109844D01*
X142714285Y-40024130D02*
X142721428Y-40016987D01*
X142721428Y-40016987D02*
X142735713Y-40009844D01*
X142735713Y-40009844D02*
X142757142Y-40009844D01*
X142757142Y-40009844D02*
X142771428Y-40016987D01*
X142771428Y-40016987D02*
X142778571Y-40031273D01*
X142778571Y-40031273D02*
X142778571Y-40109844D01*
X154150000Y-41076860D02*
X154185714Y-41226860D01*
X154185714Y-41226860D02*
X154214286Y-41119718D01*
X154214286Y-41119718D02*
X154242857Y-41226860D01*
X154242857Y-41226860D02*
X154278572Y-41076860D01*
X154335715Y-41226860D02*
X154335715Y-41126860D01*
X154335715Y-41076860D02*
X154328572Y-41084003D01*
X154328572Y-41084003D02*
X154335715Y-41091146D01*
X154335715Y-41091146D02*
X154342858Y-41084003D01*
X154342858Y-41084003D02*
X154335715Y-41076860D01*
X154335715Y-41076860D02*
X154335715Y-41091146D01*
X154407144Y-41126860D02*
X154407144Y-41276860D01*
X154407144Y-41134003D02*
X154421430Y-41126860D01*
X154421430Y-41126860D02*
X154450001Y-41126860D01*
X154450001Y-41126860D02*
X154464287Y-41134003D01*
X154464287Y-41134003D02*
X154471430Y-41141146D01*
X154471430Y-41141146D02*
X154478572Y-41155432D01*
X154478572Y-41155432D02*
X154478572Y-41198289D01*
X154478572Y-41198289D02*
X154471430Y-41212575D01*
X154471430Y-41212575D02*
X154464287Y-41219718D01*
X154464287Y-41219718D02*
X154450001Y-41226860D01*
X154450001Y-41226860D02*
X154421430Y-41226860D01*
X154421430Y-41226860D02*
X154407144Y-41219718D01*
X154600001Y-41219718D02*
X154585715Y-41226860D01*
X154585715Y-41226860D02*
X154557144Y-41226860D01*
X154557144Y-41226860D02*
X154542858Y-41219718D01*
X154542858Y-41219718D02*
X154535715Y-41205432D01*
X154535715Y-41205432D02*
X154535715Y-41148289D01*
X154535715Y-41148289D02*
X154542858Y-41134003D01*
X154542858Y-41134003D02*
X154557144Y-41126860D01*
X154557144Y-41126860D02*
X154585715Y-41126860D01*
X154585715Y-41126860D02*
X154600001Y-41134003D01*
X154600001Y-41134003D02*
X154607144Y-41148289D01*
X154607144Y-41148289D02*
X154607144Y-41162575D01*
X154607144Y-41162575D02*
X154535715Y-41176860D01*
X154671429Y-41226860D02*
X154671429Y-41126860D01*
X154671429Y-41155432D02*
X154678572Y-41141146D01*
X154678572Y-41141146D02*
X154685715Y-41134003D01*
X154685715Y-41134003D02*
X154700000Y-41126860D01*
X154700000Y-41126860D02*
X154714286Y-41126860D01*
X154878572Y-41226860D02*
X154878572Y-41126860D01*
X154878572Y-41141146D02*
X154885715Y-41134003D01*
X154885715Y-41134003D02*
X154900000Y-41126860D01*
X154900000Y-41126860D02*
X154921429Y-41126860D01*
X154921429Y-41126860D02*
X154935715Y-41134003D01*
X154935715Y-41134003D02*
X154942858Y-41148289D01*
X154942858Y-41148289D02*
X154942858Y-41226860D01*
X154942858Y-41148289D02*
X154950000Y-41134003D01*
X154950000Y-41134003D02*
X154964286Y-41126860D01*
X154964286Y-41126860D02*
X154985715Y-41126860D01*
X154985715Y-41126860D02*
X155000000Y-41134003D01*
X155000000Y-41134003D02*
X155007143Y-41148289D01*
X155007143Y-41148289D02*
X155007143Y-41226860D01*
X155142858Y-41226860D02*
X155142858Y-41148289D01*
X155142858Y-41148289D02*
X155135715Y-41134003D01*
X155135715Y-41134003D02*
X155121429Y-41126860D01*
X155121429Y-41126860D02*
X155092858Y-41126860D01*
X155092858Y-41126860D02*
X155078572Y-41134003D01*
X155142858Y-41219718D02*
X155128572Y-41226860D01*
X155128572Y-41226860D02*
X155092858Y-41226860D01*
X155092858Y-41226860D02*
X155078572Y-41219718D01*
X155078572Y-41219718D02*
X155071429Y-41205432D01*
X155071429Y-41205432D02*
X155071429Y-41191146D01*
X155071429Y-41191146D02*
X155078572Y-41176860D01*
X155078572Y-41176860D02*
X155092858Y-41169718D01*
X155092858Y-41169718D02*
X155128572Y-41169718D01*
X155128572Y-41169718D02*
X155142858Y-41162575D01*
X155200000Y-41126860D02*
X155235714Y-41226860D01*
X155271429Y-41126860D02*
X155235714Y-41226860D01*
X155235714Y-41226860D02*
X155221429Y-41262575D01*
X155221429Y-41262575D02*
X155214286Y-41269718D01*
X155214286Y-41269718D02*
X155200000Y-41276860D01*
X155442858Y-41226860D02*
X155442858Y-41076860D01*
X155442858Y-41134003D02*
X155457144Y-41126860D01*
X155457144Y-41126860D02*
X155485715Y-41126860D01*
X155485715Y-41126860D02*
X155500001Y-41134003D01*
X155500001Y-41134003D02*
X155507144Y-41141146D01*
X155507144Y-41141146D02*
X155514286Y-41155432D01*
X155514286Y-41155432D02*
X155514286Y-41198289D01*
X155514286Y-41198289D02*
X155507144Y-41212575D01*
X155507144Y-41212575D02*
X155500001Y-41219718D01*
X155500001Y-41219718D02*
X155485715Y-41226860D01*
X155485715Y-41226860D02*
X155457144Y-41226860D01*
X155457144Y-41226860D02*
X155442858Y-41219718D01*
X155635715Y-41219718D02*
X155621429Y-41226860D01*
X155621429Y-41226860D02*
X155592858Y-41226860D01*
X155592858Y-41226860D02*
X155578572Y-41219718D01*
X155578572Y-41219718D02*
X155571429Y-41205432D01*
X155571429Y-41205432D02*
X155571429Y-41148289D01*
X155571429Y-41148289D02*
X155578572Y-41134003D01*
X155578572Y-41134003D02*
X155592858Y-41126860D01*
X155592858Y-41126860D02*
X155621429Y-41126860D01*
X155621429Y-41126860D02*
X155635715Y-41134003D01*
X155635715Y-41134003D02*
X155642858Y-41148289D01*
X155642858Y-41148289D02*
X155642858Y-41162575D01*
X155642858Y-41162575D02*
X155571429Y-41176860D01*
X154100001Y-41468352D02*
X154100001Y-41389781D01*
X154100001Y-41389781D02*
X154092858Y-41375495D01*
X154092858Y-41375495D02*
X154078572Y-41368352D01*
X154078572Y-41368352D02*
X154050001Y-41368352D01*
X154050001Y-41368352D02*
X154035715Y-41375495D01*
X154100001Y-41461210D02*
X154085715Y-41468352D01*
X154085715Y-41468352D02*
X154050001Y-41468352D01*
X154050001Y-41468352D02*
X154035715Y-41461210D01*
X154035715Y-41461210D02*
X154028572Y-41446924D01*
X154028572Y-41446924D02*
X154028572Y-41432638D01*
X154028572Y-41432638D02*
X154035715Y-41418352D01*
X154035715Y-41418352D02*
X154050001Y-41411210D01*
X154050001Y-41411210D02*
X154085715Y-41411210D01*
X154085715Y-41411210D02*
X154100001Y-41404067D01*
X154171429Y-41368352D02*
X154171429Y-41468352D01*
X154171429Y-41382638D02*
X154178572Y-41375495D01*
X154178572Y-41375495D02*
X154192857Y-41368352D01*
X154192857Y-41368352D02*
X154214286Y-41368352D01*
X154214286Y-41368352D02*
X154228572Y-41375495D01*
X154228572Y-41375495D02*
X154235715Y-41389781D01*
X154235715Y-41389781D02*
X154235715Y-41468352D01*
X154292857Y-41368352D02*
X154328571Y-41468352D01*
X154364286Y-41368352D02*
X154328571Y-41468352D01*
X154328571Y-41468352D02*
X154314286Y-41504067D01*
X154314286Y-41504067D02*
X154307143Y-41511210D01*
X154307143Y-41511210D02*
X154292857Y-41518352D01*
X154407143Y-41368352D02*
X154435715Y-41468352D01*
X154435715Y-41468352D02*
X154464286Y-41396924D01*
X154464286Y-41396924D02*
X154492857Y-41468352D01*
X154492857Y-41468352D02*
X154521429Y-41368352D01*
X154578572Y-41468352D02*
X154578572Y-41318352D01*
X154642858Y-41468352D02*
X154642858Y-41389781D01*
X154642858Y-41389781D02*
X154635715Y-41375495D01*
X154635715Y-41375495D02*
X154621429Y-41368352D01*
X154621429Y-41368352D02*
X154600000Y-41368352D01*
X154600000Y-41368352D02*
X154585715Y-41375495D01*
X154585715Y-41375495D02*
X154578572Y-41382638D01*
X154771429Y-41461210D02*
X154757143Y-41468352D01*
X154757143Y-41468352D02*
X154728572Y-41468352D01*
X154728572Y-41468352D02*
X154714286Y-41461210D01*
X154714286Y-41461210D02*
X154707143Y-41446924D01*
X154707143Y-41446924D02*
X154707143Y-41389781D01*
X154707143Y-41389781D02*
X154714286Y-41375495D01*
X154714286Y-41375495D02*
X154728572Y-41368352D01*
X154728572Y-41368352D02*
X154757143Y-41368352D01*
X154757143Y-41368352D02*
X154771429Y-41375495D01*
X154771429Y-41375495D02*
X154778572Y-41389781D01*
X154778572Y-41389781D02*
X154778572Y-41404067D01*
X154778572Y-41404067D02*
X154707143Y-41418352D01*
X154842857Y-41468352D02*
X154842857Y-41368352D01*
X154842857Y-41396924D02*
X154850000Y-41382638D01*
X154850000Y-41382638D02*
X154857143Y-41375495D01*
X154857143Y-41375495D02*
X154871428Y-41368352D01*
X154871428Y-41368352D02*
X154885714Y-41368352D01*
X154992857Y-41461210D02*
X154978571Y-41468352D01*
X154978571Y-41468352D02*
X154950000Y-41468352D01*
X154950000Y-41468352D02*
X154935714Y-41461210D01*
X154935714Y-41461210D02*
X154928571Y-41446924D01*
X154928571Y-41446924D02*
X154928571Y-41389781D01*
X154928571Y-41389781D02*
X154935714Y-41375495D01*
X154935714Y-41375495D02*
X154950000Y-41368352D01*
X154950000Y-41368352D02*
X154978571Y-41368352D01*
X154978571Y-41368352D02*
X154992857Y-41375495D01*
X154992857Y-41375495D02*
X155000000Y-41389781D01*
X155000000Y-41389781D02*
X155000000Y-41404067D01*
X155000000Y-41404067D02*
X154928571Y-41418352D01*
X155164285Y-41368352D02*
X155192857Y-41468352D01*
X155192857Y-41468352D02*
X155221428Y-41396924D01*
X155221428Y-41396924D02*
X155249999Y-41468352D01*
X155249999Y-41468352D02*
X155278571Y-41368352D01*
X155335714Y-41468352D02*
X155335714Y-41368352D01*
X155335714Y-41318352D02*
X155328571Y-41325495D01*
X155328571Y-41325495D02*
X155335714Y-41332638D01*
X155335714Y-41332638D02*
X155342857Y-41325495D01*
X155342857Y-41325495D02*
X155335714Y-41318352D01*
X155335714Y-41318352D02*
X155335714Y-41332638D01*
X155385714Y-41368352D02*
X155442857Y-41368352D01*
X155407143Y-41318352D02*
X155407143Y-41446924D01*
X155407143Y-41446924D02*
X155414286Y-41461210D01*
X155414286Y-41461210D02*
X155428571Y-41468352D01*
X155428571Y-41468352D02*
X155442857Y-41468352D01*
X155492857Y-41468352D02*
X155492857Y-41318352D01*
X155557143Y-41468352D02*
X155557143Y-41389781D01*
X155557143Y-41389781D02*
X155550000Y-41375495D01*
X155550000Y-41375495D02*
X155535714Y-41368352D01*
X155535714Y-41368352D02*
X155514285Y-41368352D01*
X155514285Y-41368352D02*
X155500000Y-41375495D01*
X155500000Y-41375495D02*
X155492857Y-41382638D01*
X155628571Y-41468352D02*
X155628571Y-41368352D01*
X155628571Y-41318352D02*
X155621428Y-41325495D01*
X155621428Y-41325495D02*
X155628571Y-41332638D01*
X155628571Y-41332638D02*
X155635714Y-41325495D01*
X155635714Y-41325495D02*
X155628571Y-41318352D01*
X155628571Y-41318352D02*
X155628571Y-41332638D01*
X155700000Y-41368352D02*
X155700000Y-41468352D01*
X155700000Y-41382638D02*
X155707143Y-41375495D01*
X155707143Y-41375495D02*
X155721428Y-41368352D01*
X155721428Y-41368352D02*
X155742857Y-41368352D01*
X155742857Y-41368352D02*
X155757143Y-41375495D01*
X155757143Y-41375495D02*
X155764286Y-41389781D01*
X155764286Y-41389781D02*
X155764286Y-41468352D01*
X154285715Y-41702702D02*
X154271429Y-41709844D01*
X154271429Y-41709844D02*
X154242857Y-41709844D01*
X154242857Y-41709844D02*
X154228572Y-41702702D01*
X154228572Y-41702702D02*
X154221429Y-41695559D01*
X154221429Y-41695559D02*
X154214286Y-41681273D01*
X154214286Y-41681273D02*
X154214286Y-41638416D01*
X154214286Y-41638416D02*
X154221429Y-41624130D01*
X154221429Y-41624130D02*
X154228572Y-41616987D01*
X154228572Y-41616987D02*
X154242857Y-41609844D01*
X154242857Y-41609844D02*
X154271429Y-41609844D01*
X154271429Y-41609844D02*
X154285715Y-41616987D01*
X154350000Y-41709844D02*
X154350000Y-41609844D01*
X154350000Y-41559844D02*
X154342857Y-41566987D01*
X154342857Y-41566987D02*
X154350000Y-41574130D01*
X154350000Y-41574130D02*
X154357143Y-41566987D01*
X154357143Y-41566987D02*
X154350000Y-41559844D01*
X154350000Y-41559844D02*
X154350000Y-41574130D01*
X154421429Y-41709844D02*
X154421429Y-41609844D01*
X154421429Y-41638416D02*
X154428572Y-41624130D01*
X154428572Y-41624130D02*
X154435715Y-41616987D01*
X154435715Y-41616987D02*
X154450000Y-41609844D01*
X154450000Y-41609844D02*
X154464286Y-41609844D01*
X154578572Y-41702702D02*
X154564286Y-41709844D01*
X154564286Y-41709844D02*
X154535714Y-41709844D01*
X154535714Y-41709844D02*
X154521429Y-41702702D01*
X154521429Y-41702702D02*
X154514286Y-41695559D01*
X154514286Y-41695559D02*
X154507143Y-41681273D01*
X154507143Y-41681273D02*
X154507143Y-41638416D01*
X154507143Y-41638416D02*
X154514286Y-41624130D01*
X154514286Y-41624130D02*
X154521429Y-41616987D01*
X154521429Y-41616987D02*
X154535714Y-41609844D01*
X154535714Y-41609844D02*
X154564286Y-41609844D01*
X154564286Y-41609844D02*
X154578572Y-41616987D01*
X154664285Y-41709844D02*
X154650000Y-41702702D01*
X154650000Y-41702702D02*
X154642857Y-41688416D01*
X154642857Y-41688416D02*
X154642857Y-41559844D01*
X154778571Y-41702702D02*
X154764285Y-41709844D01*
X154764285Y-41709844D02*
X154735714Y-41709844D01*
X154735714Y-41709844D02*
X154721428Y-41702702D01*
X154721428Y-41702702D02*
X154714285Y-41688416D01*
X154714285Y-41688416D02*
X154714285Y-41631273D01*
X154714285Y-41631273D02*
X154721428Y-41616987D01*
X154721428Y-41616987D02*
X154735714Y-41609844D01*
X154735714Y-41609844D02*
X154764285Y-41609844D01*
X154764285Y-41609844D02*
X154778571Y-41616987D01*
X154778571Y-41616987D02*
X154785714Y-41631273D01*
X154785714Y-41631273D02*
X154785714Y-41645559D01*
X154785714Y-41645559D02*
X154714285Y-41659844D01*
X154957142Y-41702702D02*
X154971428Y-41709844D01*
X154971428Y-41709844D02*
X154999999Y-41709844D01*
X154999999Y-41709844D02*
X155014285Y-41702702D01*
X155014285Y-41702702D02*
X155021428Y-41688416D01*
X155021428Y-41688416D02*
X155021428Y-41681273D01*
X155021428Y-41681273D02*
X155014285Y-41666987D01*
X155014285Y-41666987D02*
X154999999Y-41659844D01*
X154999999Y-41659844D02*
X154978571Y-41659844D01*
X154978571Y-41659844D02*
X154964285Y-41652702D01*
X154964285Y-41652702D02*
X154957142Y-41638416D01*
X154957142Y-41638416D02*
X154957142Y-41631273D01*
X154957142Y-41631273D02*
X154964285Y-41616987D01*
X154964285Y-41616987D02*
X154978571Y-41609844D01*
X154978571Y-41609844D02*
X154999999Y-41609844D01*
X154999999Y-41609844D02*
X155014285Y-41616987D01*
X155085714Y-41709844D02*
X155085714Y-41559844D01*
X155150000Y-41709844D02*
X155150000Y-41631273D01*
X155150000Y-41631273D02*
X155142857Y-41616987D01*
X155142857Y-41616987D02*
X155128571Y-41609844D01*
X155128571Y-41609844D02*
X155107142Y-41609844D01*
X155107142Y-41609844D02*
X155092857Y-41616987D01*
X155092857Y-41616987D02*
X155085714Y-41624130D01*
X155242856Y-41709844D02*
X155228571Y-41702702D01*
X155228571Y-41702702D02*
X155221428Y-41695559D01*
X155221428Y-41695559D02*
X155214285Y-41681273D01*
X155214285Y-41681273D02*
X155214285Y-41638416D01*
X155214285Y-41638416D02*
X155221428Y-41624130D01*
X155221428Y-41624130D02*
X155228571Y-41616987D01*
X155228571Y-41616987D02*
X155242856Y-41609844D01*
X155242856Y-41609844D02*
X155264285Y-41609844D01*
X155264285Y-41609844D02*
X155278571Y-41616987D01*
X155278571Y-41616987D02*
X155285714Y-41624130D01*
X155285714Y-41624130D02*
X155292856Y-41638416D01*
X155292856Y-41638416D02*
X155292856Y-41681273D01*
X155292856Y-41681273D02*
X155285714Y-41695559D01*
X155285714Y-41695559D02*
X155278571Y-41702702D01*
X155278571Y-41702702D02*
X155264285Y-41709844D01*
X155264285Y-41709844D02*
X155242856Y-41709844D01*
X155342856Y-41609844D02*
X155371428Y-41709844D01*
X155371428Y-41709844D02*
X155399999Y-41638416D01*
X155399999Y-41638416D02*
X155428570Y-41709844D01*
X155428570Y-41709844D02*
X155457142Y-41609844D01*
X155514285Y-41609844D02*
X155514285Y-41709844D01*
X155514285Y-41624130D02*
X155521428Y-41616987D01*
X155521428Y-41616987D02*
X155535713Y-41609844D01*
X155535713Y-41609844D02*
X155557142Y-41609844D01*
X155557142Y-41609844D02*
X155571428Y-41616987D01*
X155571428Y-41616987D02*
X155578571Y-41631273D01*
X155578571Y-41631273D02*
X155578571Y-41709844D01*
M02*
