%TF.GenerationSoftware,KiCad,Pcbnew,8.0.1*%
%TF.CreationDate,2025-06-23T19:48:13+12:00*%
%TF.ProjectId,panelrev2,70616e65-6c72-4657-9632-2e6b69636164,rev?*%
%TF.SameCoordinates,Original*%
%TF.FileFunction,Paste,Bot*%
%TF.FilePolarity,Positive*%
%FSLAX46Y46*%
G04 Gerber Fmt 4.6, Leading zero omitted, Abs format (unit mm)*
G04 Created by KiCad (PCBNEW 8.0.1) date 2025-06-23 19:48:13*
%MOMM*%
%LPD*%
G01*
G04 APERTURE LIST*
G04 Aperture macros list*
%AMRoundRect*
0 Rectangle with rounded corners*
0 $1 Rounding radius*
0 $2 $3 $4 $5 $6 $7 $8 $9 X,Y pos of 4 corners*
0 Add a 4 corners polygon primitive as box body*
4,1,4,$2,$3,$4,$5,$6,$7,$8,$9,$2,$3,0*
0 Add four circle primitives for the rounded corners*
1,1,$1+$1,$2,$3*
1,1,$1+$1,$4,$5*
1,1,$1+$1,$6,$7*
1,1,$1+$1,$8,$9*
0 Add four rect primitives between the rounded corners*
20,1,$1+$1,$2,$3,$4,$5,0*
20,1,$1+$1,$4,$5,$6,$7,0*
20,1,$1+$1,$6,$7,$8,$9,0*
20,1,$1+$1,$8,$9,$2,$3,0*%
G04 Aperture macros list end*
%ADD10C,2.000000*%
%ADD11R,0.500000X2.800000*%
%ADD12R,0.600000X2.600000*%
%ADD13RoundRect,0.135000X0.135000X0.185000X-0.135000X0.185000X-0.135000X-0.185000X0.135000X-0.185000X0*%
%ADD14RoundRect,0.135000X0.185000X-0.135000X0.185000X0.135000X-0.185000X0.135000X-0.185000X-0.135000X0*%
%ADD15RoundRect,0.150000X-0.625000X0.150000X-0.625000X-0.150000X0.625000X-0.150000X0.625000X0.150000X0*%
%ADD16RoundRect,0.250000X-0.650000X0.350000X-0.650000X-0.350000X0.650000X-0.350000X0.650000X0.350000X0*%
%ADD17RoundRect,0.150000X-0.150000X0.512500X-0.150000X-0.512500X0.150000X-0.512500X0.150000X0.512500X0*%
%ADD18RoundRect,0.147500X0.172500X-0.147500X0.172500X0.147500X-0.172500X0.147500X-0.172500X-0.147500X0*%
%ADD19RoundRect,0.135000X-0.135000X-0.185000X0.135000X-0.185000X0.135000X0.185000X-0.135000X0.185000X0*%
%ADD20RoundRect,0.140000X-0.170000X0.140000X-0.170000X-0.140000X0.170000X-0.140000X0.170000X0.140000X0*%
%ADD21RoundRect,0.140000X0.170000X-0.140000X0.170000X0.140000X-0.170000X0.140000X-0.170000X-0.140000X0*%
%ADD22RoundRect,0.135000X-0.185000X0.135000X-0.185000X-0.135000X0.185000X-0.135000X0.185000X0.135000X0*%
%ADD23RoundRect,0.225000X-0.225000X-0.250000X0.225000X-0.250000X0.225000X0.250000X-0.225000X0.250000X0*%
%ADD24RoundRect,0.218750X0.218750X0.256250X-0.218750X0.256250X-0.218750X-0.256250X0.218750X-0.256250X0*%
%ADD25RoundRect,0.218750X-0.218750X-0.256250X0.218750X-0.256250X0.218750X0.256250X-0.218750X0.256250X0*%
%ADD26RoundRect,0.140000X-0.140000X-0.170000X0.140000X-0.170000X0.140000X0.170000X-0.140000X0.170000X0*%
%ADD27RoundRect,0.150000X0.150000X-0.512500X0.150000X0.512500X-0.150000X0.512500X-0.150000X-0.512500X0*%
%ADD28RoundRect,0.147500X0.147500X0.172500X-0.147500X0.172500X-0.147500X-0.172500X0.147500X-0.172500X0*%
%ADD29RoundRect,0.225000X0.250000X-0.225000X0.250000X0.225000X-0.250000X0.225000X-0.250000X-0.225000X0*%
%ADD30RoundRect,0.218750X-0.256250X0.218750X-0.256250X-0.218750X0.256250X-0.218750X0.256250X0.218750X0*%
%ADD31RoundRect,0.150000X-0.587500X-0.150000X0.587500X-0.150000X0.587500X0.150000X-0.587500X0.150000X0*%
%ADD32C,0.250000*%
%ADD33R,1.050000X0.650000*%
%ADD34RoundRect,0.225000X-0.250000X0.225000X-0.250000X-0.225000X0.250000X-0.225000X0.250000X0.225000X0*%
%ADD35R,0.300000X0.850000*%
%ADD36C,1.100000*%
G04 APERTURE END LIST*
D10*
%TO.C,KiKit_TO_4*%
X162000000Y-78100000D03*
%TD*%
%TO.C,KiKit_TO_2*%
X162000000Y-22500000D03*
%TD*%
%TO.C,KiKit_TO_1*%
X135000000Y-22500000D03*
%TD*%
D11*
%TO.C,J3*%
X152500000Y-28700000D03*
X151500000Y-28700000D03*
X150500000Y-28700000D03*
X149500000Y-28700000D03*
X148500000Y-28700000D03*
X147500000Y-28700000D03*
X146500000Y-28700000D03*
X145500000Y-28700000D03*
X144500000Y-28700000D03*
D12*
X155275000Y-28600000D03*
X141725000Y-28600000D03*
%TD*%
D10*
%TO.C,KiKit_TO_3*%
X135000000Y-78100000D03*
%TD*%
D13*
%TO.C,R10*%
X147410000Y-38200000D03*
X146390000Y-38200000D03*
%TD*%
D14*
%TO.C,R11*%
X145150000Y-63510000D03*
X145150000Y-62490000D03*
%TD*%
D15*
%TO.C,J4*%
X143325000Y-58150000D03*
X143325000Y-59150000D03*
X143325000Y-60150000D03*
X143325000Y-61150000D03*
X143325000Y-62150000D03*
D16*
X140800000Y-56850000D03*
X140800000Y-63450000D03*
%TD*%
D17*
%TO.C,U6*%
X143300000Y-37425000D03*
X144250000Y-37425000D03*
X145200000Y-37425000D03*
X145200000Y-39700000D03*
X143300000Y-39700000D03*
%TD*%
D18*
%TO.C,D3*%
X151000000Y-32735000D03*
X151000000Y-31765000D03*
%TD*%
D19*
%TO.C,R7*%
X153890000Y-54700000D03*
X154910000Y-54700000D03*
%TD*%
D20*
%TO.C,C22*%
X150000000Y-56470000D03*
X150000000Y-57430000D03*
%TD*%
D19*
%TO.C,R15*%
X140990000Y-41200000D03*
X142010000Y-41200000D03*
%TD*%
D21*
%TO.C,C16*%
X147700000Y-61830000D03*
X147700000Y-60870000D03*
%TD*%
D22*
%TO.C,R8*%
X145150000Y-64390000D03*
X145150000Y-65410000D03*
%TD*%
D19*
%TO.C,R21*%
X154940000Y-37450000D03*
X155960000Y-37450000D03*
%TD*%
D23*
%TO.C,C4*%
X153225000Y-42950000D03*
X154775000Y-42950000D03*
%TD*%
D24*
%TO.C,F1*%
X149837500Y-36650000D03*
X148262500Y-36650000D03*
%TD*%
D25*
%TO.C,D11*%
X153712500Y-60650000D03*
X155287500Y-60650000D03*
%TD*%
D19*
%TO.C,R5*%
X153690000Y-61950000D03*
X154710000Y-61950000D03*
%TD*%
%TO.C,R1*%
X153690000Y-63850000D03*
X154710000Y-63850000D03*
%TD*%
D18*
%TO.C,D2*%
X149500000Y-32735000D03*
X149500000Y-31765000D03*
%TD*%
D22*
%TO.C,R19*%
X148700000Y-61290000D03*
X148700000Y-62310000D03*
%TD*%
D18*
%TO.C,D8*%
X147550000Y-32735000D03*
X147550000Y-31765000D03*
%TD*%
D22*
%TO.C,R9*%
X140600000Y-34590000D03*
X140600000Y-35610000D03*
%TD*%
D26*
%TO.C,C17*%
X145820000Y-59550000D03*
X146780000Y-59550000D03*
%TD*%
%TO.C,C15*%
X145820000Y-58550000D03*
X146780000Y-58550000D03*
%TD*%
D25*
%TO.C,D12*%
X153712500Y-56150000D03*
X155287500Y-56150000D03*
%TD*%
D27*
%TO.C,U2*%
X153650000Y-39737500D03*
X152700000Y-39737500D03*
X151750000Y-39737500D03*
X151750000Y-37462500D03*
X153650000Y-37462500D03*
%TD*%
D23*
%TO.C,C3*%
X151775000Y-35450000D03*
X153325000Y-35450000D03*
%TD*%
D14*
%TO.C,R20*%
X145000000Y-32760000D03*
X145000000Y-31740000D03*
%TD*%
D13*
%TO.C,R25*%
X149310000Y-38200000D03*
X148290000Y-38200000D03*
%TD*%
D20*
%TO.C,C18*%
X148100000Y-56470000D03*
X148100000Y-57430000D03*
%TD*%
%TO.C,C20*%
X149050000Y-56470000D03*
X149050000Y-57430000D03*
%TD*%
D28*
%TO.C,L3*%
X146785000Y-61550000D03*
X145815000Y-61550000D03*
%TD*%
D29*
%TO.C,C6*%
X149300000Y-41025000D03*
X149300000Y-39475000D03*
%TD*%
D30*
%TO.C,L2*%
X147800000Y-41025000D03*
X147800000Y-42600000D03*
%TD*%
D13*
%TO.C,R14*%
X142010000Y-42600000D03*
X140990000Y-42600000D03*
%TD*%
D18*
%TO.C,D9*%
X146250000Y-32735000D03*
X146250000Y-31765000D03*
%TD*%
D31*
%TO.C,Q3*%
X140962500Y-33100000D03*
X140962500Y-31200000D03*
X142837500Y-32150000D03*
%TD*%
D20*
%TO.C,C25*%
X152400000Y-65120000D03*
X152400000Y-66080000D03*
%TD*%
D19*
%TO.C,R18*%
X150890000Y-56450000D03*
X151910000Y-56450000D03*
%TD*%
D26*
%TO.C,C14*%
X153420000Y-57500000D03*
X154380000Y-57500000D03*
%TD*%
D32*
%TO.C,U3*%
X145700000Y-42200000D03*
X145300000Y-42200000D03*
X145700000Y-42600000D03*
X145300000Y-42600000D03*
X145700000Y-43000000D03*
X145300000Y-43000000D03*
%TD*%
D25*
%TO.C,D10*%
X153712500Y-65150000D03*
X155287500Y-65150000D03*
%TD*%
D30*
%TO.C,L1*%
X150900000Y-41362500D03*
X150900000Y-42937500D03*
%TD*%
D26*
%TO.C,C19*%
X145820000Y-60550000D03*
X146780000Y-60550000D03*
%TD*%
D33*
%TO.C,SW1*%
X150575000Y-63575000D03*
X146425000Y-63575000D03*
X150575000Y-65725000D03*
X146425000Y-65725000D03*
%TD*%
D26*
%TO.C,C13*%
X153420000Y-58450000D03*
X154380000Y-58450000D03*
%TD*%
D34*
%TO.C,C24*%
X141600000Y-37425000D03*
X141600000Y-38975000D03*
%TD*%
D22*
%TO.C,R22*%
X152350000Y-60990000D03*
X152350000Y-62010000D03*
%TD*%
D34*
%TO.C,C7*%
X143290000Y-42600000D03*
X143290000Y-44150000D03*
%TD*%
D35*
%TO.C,J5*%
X151250000Y-51315000D03*
X150750000Y-51315000D03*
X150250000Y-51315000D03*
X149750000Y-51315000D03*
X149250000Y-51315000D03*
X148750000Y-51315000D03*
X148250000Y-51315000D03*
X147750000Y-51315000D03*
X147250000Y-51315000D03*
X146750000Y-51315000D03*
X146250000Y-51315000D03*
X145750000Y-51315000D03*
X145750000Y-52985000D03*
X146250000Y-52985000D03*
X146750000Y-52985000D03*
X147250000Y-52985000D03*
X147750000Y-52985000D03*
X148250000Y-52985000D03*
X148750000Y-52985000D03*
X149250000Y-52985000D03*
X149750000Y-52985000D03*
X150250000Y-52985000D03*
X150750000Y-52985000D03*
X151250000Y-52985000D03*
D36*
X150900000Y-54300000D03*
X150900000Y-50000000D03*
X146100000Y-54300000D03*
X146100000Y-50000000D03*
%TD*%
M02*
