%TF.GenerationSoftware,KiCad,Pcbnew,8.0.1*%
%TF.CreationDate,2025-06-23T19:48:13+12:00*%
%TF.ProjectId,panelrev2,70616e65-6c72-4657-9632-2e6b69636164,rev?*%
%TF.SameCoordinates,Original*%
%TF.FileFunction,Soldermask,Top*%
%TF.FilePolarity,Negative*%
%FSLAX46Y46*%
G04 Gerber Fmt 4.6, Leading zero omitted, Abs format (unit mm)*
G04 Created by KiCad (PCBNEW 8.0.1) date 2025-06-23 19:48:13*
%MOMM*%
%LPD*%
G01*
G04 APERTURE LIST*
G04 Aperture macros list*
%AMRoundRect*
0 Rectangle with rounded corners*
0 $1 Rounding radius*
0 $2 $3 $4 $5 $6 $7 $8 $9 X,Y pos of 4 corners*
0 Add a 4 corners polygon primitive as box body*
4,1,4,$2,$3,$4,$5,$6,$7,$8,$9,$2,$3,0*
0 Add four circle primitives for the rounded corners*
1,1,$1+$1,$2,$3*
1,1,$1+$1,$4,$5*
1,1,$1+$1,$6,$7*
1,1,$1+$1,$8,$9*
0 Add four rect primitives between the rounded corners*
20,1,$1+$1,$2,$3,$4,$5,0*
20,1,$1+$1,$4,$5,$6,$7,0*
20,1,$1+$1,$6,$7,$8,$9,0*
20,1,$1+$1,$8,$9,$2,$3,0*%
G04 Aperture macros list end*
%ADD10C,0.000000*%
%ADD11R,1.000000X1.150000*%
%ADD12RoundRect,0.147500X0.172500X-0.147500X0.172500X0.147500X-0.172500X0.147500X-0.172500X-0.147500X0*%
%ADD13RoundRect,0.135000X0.135000X0.185000X-0.135000X0.185000X-0.135000X-0.185000X0.135000X-0.185000X0*%
%ADD14C,2.000000*%
%ADD15RoundRect,0.135000X-0.135000X-0.185000X0.135000X-0.185000X0.135000X0.185000X-0.135000X0.185000X0*%
%ADD16C,1.600000*%
%ADD17R,1.200000X1.200000*%
%ADD18R,1.500000X1.600000*%
%ADD19RoundRect,0.140000X0.140000X0.170000X-0.140000X0.170000X-0.140000X-0.170000X0.140000X-0.170000X0*%
%ADD20RoundRect,0.062500X0.062500X-0.337500X0.062500X0.337500X-0.062500X0.337500X-0.062500X-0.337500X0*%
%ADD21RoundRect,0.062500X0.337500X-0.062500X0.337500X0.062500X-0.337500X0.062500X-0.337500X-0.062500X0*%
%ADD22R,3.700000X3.700000*%
%ADD23RoundRect,0.075000X-0.070711X0.176777X-0.176777X0.070711X0.070711X-0.176777X0.176777X-0.070711X0*%
%ADD24RoundRect,0.140000X-0.170000X0.140000X-0.170000X-0.140000X0.170000X-0.140000X0.170000X0.140000X0*%
%ADD25RoundRect,0.140000X-0.140000X-0.170000X0.140000X-0.170000X0.140000X0.170000X-0.140000X0.170000X0*%
%ADD26RoundRect,0.250000X0.250000X0.475000X-0.250000X0.475000X-0.250000X-0.475000X0.250000X-0.475000X0*%
%ADD27RoundRect,0.147500X0.147500X0.172500X-0.147500X0.172500X-0.147500X-0.172500X0.147500X-0.172500X0*%
%ADD28RoundRect,0.150000X-0.825000X-0.150000X0.825000X-0.150000X0.825000X0.150000X-0.825000X0.150000X0*%
%ADD29R,0.500000X2.800000*%
%ADD30R,0.600000X2.600000*%
%ADD31R,1.000000X1.000000*%
%ADD32R,1.000000X3.550000*%
%ADD33R,1.000000X3.800000*%
%ADD34R,3.550000X1.000000*%
%ADD35R,3.800000X1.000000*%
%ADD36RoundRect,0.140000X0.170000X-0.140000X0.170000X0.140000X-0.170000X0.140000X-0.170000X-0.140000X0*%
%ADD37RoundRect,0.147500X-0.147500X-0.172500X0.147500X-0.172500X0.147500X0.172500X-0.147500X0.172500X0*%
%ADD38R,0.350000X0.375000*%
%ADD39R,0.375000X0.350000*%
%ADD40RoundRect,0.135000X0.185000X-0.135000X0.185000X0.135000X-0.185000X0.135000X-0.185000X-0.135000X0*%
%ADD41RoundRect,0.075000X0.070711X-0.176777X0.176777X-0.070711X-0.070711X0.176777X-0.176777X0.070711X0*%
%ADD42C,0.660000*%
%ADD43O,1.000000X0.580000*%
%ADD44C,1.100000*%
G04 APERTURE END LIST*
D10*
%TO.C,REF\u002A\u002A*%
G36*
X143441975Y-50659050D02*
G01*
X143445733Y-50659879D01*
X143470114Y-50667144D01*
X143491596Y-50677687D01*
X143507342Y-50688631D01*
X143516443Y-50696288D01*
X143525165Y-50704812D01*
X143533925Y-50714767D01*
X143543143Y-50726715D01*
X143553237Y-50741220D01*
X143564626Y-50758847D01*
X143577729Y-50780158D01*
X143587475Y-50796440D01*
X143606122Y-50826012D01*
X143624356Y-50850961D01*
X143642723Y-50871784D01*
X143661764Y-50888978D01*
X143682024Y-50903040D01*
X143704045Y-50914467D01*
X143725739Y-50922881D01*
X143742806Y-50928638D01*
X143728054Y-50942121D01*
X143708473Y-50956764D01*
X143685465Y-50968334D01*
X143665014Y-50975063D01*
X143653060Y-50977176D01*
X143637522Y-50978538D01*
X143619840Y-50979160D01*
X143601453Y-50979052D01*
X143583800Y-50978226D01*
X143568322Y-50976691D01*
X143556457Y-50974459D01*
X143555739Y-50974259D01*
X143536392Y-50967526D01*
X143518412Y-50958557D01*
X143500873Y-50946733D01*
X143482850Y-50931436D01*
X143464527Y-50913218D01*
X143444157Y-50889677D01*
X143428384Y-50866399D01*
X143416828Y-50842430D01*
X143409112Y-50816815D01*
X143404857Y-50788599D01*
X143403675Y-50759596D01*
X143404245Y-50735505D01*
X143406045Y-50715126D01*
X143409261Y-50697070D01*
X143414080Y-50679948D01*
X143414484Y-50678744D01*
X143418405Y-50667759D01*
X143421924Y-50661015D01*
X143426233Y-50657795D01*
X143432520Y-50657379D01*
X143441975Y-50659050D01*
G37*
G36*
X142756116Y-50641840D02*
G01*
X142765153Y-50645119D01*
X142776191Y-50649876D01*
X142787983Y-50655533D01*
X142799283Y-50661511D01*
X142808845Y-50667231D01*
X142811514Y-50669039D01*
X142827156Y-50681044D01*
X142842135Y-50694618D01*
X142856939Y-50710337D01*
X142872055Y-50728780D01*
X142887971Y-50750527D01*
X142905173Y-50776154D01*
X142915691Y-50792640D01*
X142933773Y-50820988D01*
X142949774Y-50845099D01*
X142964009Y-50865366D01*
X142976789Y-50882178D01*
X142988429Y-50895926D01*
X142999243Y-50907001D01*
X143009543Y-50915792D01*
X143019643Y-50922691D01*
X143020477Y-50923188D01*
X143027568Y-50927631D01*
X143032400Y-50931165D01*
X143033789Y-50932735D01*
X143031657Y-50936284D01*
X143025731Y-50941445D01*
X143016940Y-50947644D01*
X143006217Y-50954302D01*
X142994492Y-50960845D01*
X142982697Y-50966695D01*
X142971762Y-50971276D01*
X142971240Y-50971466D01*
X142964416Y-50973746D01*
X142957736Y-50975412D01*
X142950161Y-50976580D01*
X142940649Y-50977361D01*
X142928161Y-50977870D01*
X142911658Y-50978219D01*
X142908833Y-50978263D01*
X142888853Y-50978399D01*
X142873378Y-50978091D01*
X142861720Y-50977305D01*
X142853190Y-50976007D01*
X142850517Y-50975342D01*
X142825705Y-50965647D01*
X142801219Y-50950771D01*
X142784937Y-50937850D01*
X142762206Y-50915872D01*
X142744086Y-50893343D01*
X142730565Y-50870693D01*
X142724094Y-50856813D01*
X142719293Y-50843546D01*
X142715889Y-50829614D01*
X142713607Y-50813736D01*
X142712173Y-50794636D01*
X142711655Y-50782554D01*
X142711372Y-50757027D01*
X142712594Y-50735212D01*
X142715505Y-50715786D01*
X142720286Y-50697423D01*
X142725338Y-50683225D01*
X142730151Y-50672068D01*
X142735569Y-50661233D01*
X142740989Y-50651745D01*
X142745811Y-50644633D01*
X142749430Y-50640923D01*
X142750325Y-50640619D01*
X142756116Y-50641840D01*
G37*
G36*
X143268745Y-50849781D02*
G01*
X143282911Y-50852004D01*
X143295189Y-50856535D01*
X143306848Y-50864074D01*
X143319155Y-50875322D01*
X143323756Y-50880163D01*
X143341812Y-50903080D01*
X143357605Y-50930075D01*
X143370889Y-50960423D01*
X143381417Y-50993401D01*
X143388944Y-51028284D01*
X143393223Y-51064349D01*
X143394139Y-51087261D01*
X143394202Y-51102111D01*
X143393989Y-51112875D01*
X143393369Y-51120668D01*
X143392211Y-51126612D01*
X143390383Y-51131824D01*
X143388412Y-51136094D01*
X143381569Y-51146664D01*
X143371956Y-51157189D01*
X143361028Y-51166369D01*
X143350241Y-51172902D01*
X143345058Y-51174854D01*
X143331016Y-51176892D01*
X143314561Y-51176554D01*
X143297804Y-51174049D01*
X143282854Y-51169585D01*
X143280235Y-51168460D01*
X143269309Y-51163911D01*
X143260841Y-51162010D01*
X143252813Y-51162759D01*
X143243210Y-51166160D01*
X143237944Y-51168507D01*
X143227902Y-51172500D01*
X143217926Y-51174850D01*
X143205792Y-51176016D01*
X143200518Y-51176233D01*
X143189166Y-51176266D01*
X143178836Y-51175726D01*
X143171385Y-51174724D01*
X143170196Y-51174417D01*
X143161585Y-51170055D01*
X143151755Y-51162486D01*
X143142085Y-51153018D01*
X143133950Y-51142959D01*
X143129793Y-51136034D01*
X143127360Y-51130606D01*
X143125692Y-51125264D01*
X143124654Y-51118890D01*
X143124114Y-51110363D01*
X143123937Y-51098564D01*
X143123960Y-51087261D01*
X143125131Y-51056797D01*
X143128523Y-51028975D01*
X143134473Y-51001578D01*
X143139726Y-50983416D01*
X143144915Y-50967346D01*
X143149241Y-50955467D01*
X143153181Y-50946933D01*
X143157213Y-50940902D01*
X143161816Y-50936530D01*
X143167467Y-50932974D01*
X143168670Y-50932336D01*
X143183903Y-50922047D01*
X143198725Y-50907621D01*
X143212187Y-50890100D01*
X143221589Y-50874072D01*
X143227578Y-50862908D01*
X143232852Y-50855433D01*
X143238621Y-50851024D01*
X143246092Y-50849059D01*
X143256476Y-50848915D01*
X143268745Y-50849781D01*
G37*
G36*
X144045869Y-50685260D02*
G01*
X144043504Y-50729146D01*
X144040722Y-50768450D01*
X144037473Y-50803788D01*
X144033706Y-50835773D01*
X144033510Y-50837245D01*
X144030716Y-50858506D01*
X144028672Y-50875526D01*
X144027368Y-50889220D01*
X144026792Y-50900500D01*
X144026936Y-50910279D01*
X144027789Y-50919471D01*
X144029339Y-50928989D01*
X144031578Y-50939744D01*
X144032311Y-50943034D01*
X144034841Y-50954878D01*
X144036661Y-50965268D01*
X144037886Y-50975499D01*
X144038626Y-50986864D01*
X144038996Y-51000657D01*
X144039106Y-51018172D01*
X144039108Y-51021164D01*
X144038684Y-51049023D01*
X144037292Y-51072849D01*
X144034738Y-51093756D01*
X144030832Y-51112861D01*
X144025381Y-51131280D01*
X144018195Y-51150129D01*
X144016133Y-51154973D01*
X144005274Y-51176527D01*
X143991475Y-51197414D01*
X143974044Y-51218595D01*
X143958692Y-51234732D01*
X143948845Y-51244374D01*
X143939572Y-51252892D01*
X143930141Y-51260819D01*
X143919822Y-51268688D01*
X143907885Y-51277032D01*
X143893599Y-51286384D01*
X143876233Y-51297276D01*
X143855747Y-51309823D01*
X143836295Y-51321928D01*
X143820916Y-51332409D01*
X143809065Y-51342046D01*
X143800196Y-51351624D01*
X143793764Y-51361923D01*
X143789223Y-51373726D01*
X143786028Y-51387816D01*
X143783633Y-51404975D01*
X143782584Y-51414757D01*
X143780253Y-51435185D01*
X143777639Y-51451726D01*
X143774396Y-51465700D01*
X143770176Y-51478427D01*
X143764633Y-51491228D01*
X143760057Y-51500402D01*
X143746968Y-51521729D01*
X143730233Y-51542863D01*
X143710841Y-51562899D01*
X143689781Y-51580929D01*
X143668041Y-51596047D01*
X143646608Y-51607346D01*
X143641029Y-51609614D01*
X143623432Y-51615017D01*
X143603209Y-51619229D01*
X143582894Y-51621793D01*
X143570661Y-51622359D01*
X143554062Y-51622450D01*
X143530034Y-51645421D01*
X143509266Y-51663356D01*
X143488380Y-51677193D01*
X143466336Y-51687368D01*
X143442096Y-51694317D01*
X143414619Y-51698477D01*
X143401051Y-51699547D01*
X143368694Y-51699709D01*
X143337799Y-51696329D01*
X143309209Y-51689566D01*
X143283767Y-51679581D01*
X143276712Y-51675890D01*
X143266482Y-51671115D01*
X143257736Y-51669762D01*
X143248651Y-51671875D01*
X143238598Y-51676824D01*
X143215552Y-51687199D01*
X143188906Y-51694656D01*
X143159455Y-51699066D01*
X143127997Y-51700301D01*
X143101553Y-51698883D01*
X143074431Y-51694523D01*
X143049241Y-51686555D01*
X143025185Y-51674595D01*
X143001462Y-51658257D01*
X142981339Y-51640991D01*
X142961392Y-51622450D01*
X142945759Y-51622450D01*
X142928077Y-51621291D01*
X142908301Y-51618126D01*
X142888921Y-51613424D01*
X142877202Y-51609572D01*
X142853738Y-51598376D01*
X142830470Y-51582860D01*
X142808195Y-51563880D01*
X142787708Y-51542290D01*
X142769806Y-51518946D01*
X142755285Y-51494701D01*
X142744943Y-51470411D01*
X142743613Y-51466190D01*
X142741770Y-51458240D01*
X142739718Y-51446543D01*
X142737682Y-51432543D01*
X142735888Y-51417683D01*
X142735543Y-51414385D01*
X142733559Y-51397016D01*
X142731154Y-51382538D01*
X142727845Y-51370327D01*
X142723150Y-51359757D01*
X142716587Y-51350203D01*
X142707673Y-51341041D01*
X142695926Y-51331646D01*
X142680864Y-51321392D01*
X142662004Y-51309656D01*
X142648401Y-51301484D01*
X142626306Y-51287975D01*
X142607914Y-51275903D01*
X142592210Y-51264498D01*
X142578178Y-51252989D01*
X142564805Y-51240606D01*
X142554553Y-51230237D01*
X142540415Y-51214998D01*
X142529305Y-51201700D01*
X142520227Y-51188978D01*
X142512187Y-51175465D01*
X142506116Y-51163741D01*
X142497104Y-51143591D01*
X142490150Y-51123369D01*
X142485067Y-51102075D01*
X142481665Y-51078714D01*
X142479758Y-51052287D01*
X142479157Y-51021798D01*
X142479157Y-51020850D01*
X142479282Y-51001756D01*
X142479692Y-50986666D01*
X142480476Y-50974381D01*
X142481728Y-50963700D01*
X142483538Y-50953424D01*
X142484710Y-50947929D01*
X142487953Y-50932484D01*
X142490088Y-50919352D01*
X142491151Y-50907165D01*
X142491177Y-50894555D01*
X142490200Y-50880152D01*
X142488255Y-50862589D01*
X142487110Y-50853573D01*
X142485180Y-50838685D01*
X142483424Y-50825078D01*
X142481980Y-50813827D01*
X142480988Y-50806009D01*
X142480664Y-50803389D01*
X142481223Y-50796702D01*
X142484828Y-50788789D01*
X142488911Y-50782554D01*
X142501862Y-50765109D01*
X142516696Y-50746618D01*
X142532171Y-50728545D01*
X142547044Y-50712352D01*
X142556865Y-50702505D01*
X142566865Y-50693250D01*
X142577233Y-50684161D01*
X142587203Y-50675852D01*
X142596006Y-50668935D01*
X142602876Y-50664023D01*
X142607047Y-50661731D01*
X142607863Y-50661739D01*
X142608354Y-50664544D01*
X142609091Y-50671679D01*
X142610000Y-50682273D01*
X142611004Y-50695459D01*
X142611807Y-50707029D01*
X142614868Y-50745692D01*
X142618884Y-50785062D01*
X142623655Y-50823423D01*
X142628976Y-50859060D01*
X142631464Y-50873571D01*
X142634647Y-50892170D01*
X142636673Y-50906683D01*
X142637548Y-50918103D01*
X142637278Y-50927423D01*
X142635868Y-50935633D01*
X142633324Y-50943727D01*
X142631902Y-50947373D01*
X142624195Y-50969046D01*
X142619544Y-50989448D01*
X142617585Y-51010713D01*
X142617760Y-51030885D01*
X142618801Y-51047452D01*
X142620512Y-51060753D01*
X142623208Y-51072719D01*
X142626090Y-51082052D01*
X142632063Y-51098329D01*
X142638418Y-51112032D01*
X142645821Y-51123889D01*
X142654941Y-51134628D01*
X142666442Y-51144976D01*
X142680993Y-51155663D01*
X142699260Y-51167414D01*
X142710560Y-51174253D01*
X142735465Y-51189453D01*
X142756557Y-51203143D01*
X142774749Y-51215997D01*
X142790955Y-51228692D01*
X142806090Y-51241902D01*
X142819470Y-51254711D01*
X142834552Y-51270907D01*
X142846474Y-51286778D01*
X142855655Y-51303319D01*
X142862511Y-51321528D01*
X142867460Y-51342398D01*
X142870921Y-51366927D01*
X142872186Y-51380421D01*
X142873564Y-51394173D01*
X142875308Y-51407151D01*
X142877191Y-51417859D01*
X142878915Y-51424609D01*
X142886247Y-51441357D01*
X142895194Y-51455274D01*
X142905194Y-51465751D01*
X142915682Y-51472179D01*
X142924599Y-51474003D01*
X142930563Y-51473574D01*
X142935295Y-51471872D01*
X142939087Y-51468277D01*
X142942231Y-51462168D01*
X142945021Y-51452925D01*
X142947749Y-51439928D01*
X142950708Y-51422555D01*
X142951636Y-51416708D01*
X142954205Y-51401199D01*
X142956823Y-51386863D01*
X142959279Y-51374756D01*
X142961361Y-51365931D01*
X142962586Y-51362017D01*
X142967841Y-51353026D01*
X142975864Y-51343264D01*
X142985104Y-51334348D01*
X142994007Y-51327893D01*
X142996646Y-51326561D01*
X143004483Y-51324558D01*
X143015557Y-51323374D01*
X143027958Y-51323040D01*
X143039774Y-51323585D01*
X143049094Y-51325040D01*
X143051251Y-51325708D01*
X143058187Y-51329721D01*
X143066631Y-51336537D01*
X143075057Y-51344722D01*
X143081944Y-51352841D01*
X143084834Y-51357330D01*
X143087274Y-51365698D01*
X143088392Y-51378773D01*
X143088202Y-51396226D01*
X143086714Y-51417729D01*
X143083942Y-51442953D01*
X143080719Y-51466190D01*
X143077612Y-51487122D01*
X143075319Y-51503551D01*
X143073850Y-51516118D01*
X143073215Y-51525468D01*
X143073422Y-51532243D01*
X143074482Y-51537085D01*
X143076404Y-51540638D01*
X143079198Y-51543544D01*
X143081905Y-51545710D01*
X143088963Y-51550035D01*
X143098889Y-51554826D01*
X143109557Y-51559061D01*
X143109761Y-51559132D01*
X143120759Y-51562503D01*
X143130488Y-51564163D01*
X143140473Y-51564095D01*
X143152236Y-51562282D01*
X143167299Y-51558707D01*
X143168125Y-51558492D01*
X143174604Y-51556881D01*
X143179836Y-51555415D01*
X143183954Y-51553560D01*
X143187091Y-51550785D01*
X143189379Y-51546555D01*
X143190950Y-51540337D01*
X143191938Y-51531599D01*
X143192475Y-51519808D01*
X143192693Y-51504431D01*
X143192726Y-51484933D01*
X143192705Y-51460783D01*
X143192705Y-51459664D01*
X143192803Y-51430912D01*
X143193097Y-51407193D01*
X143193585Y-51388545D01*
X143194266Y-51375006D01*
X143195139Y-51366616D01*
X143195648Y-51364359D01*
X143199552Y-51356975D01*
X143206322Y-51347993D01*
X143214621Y-51338894D01*
X143223114Y-51331159D01*
X143229687Y-51326654D01*
X143237105Y-51324456D01*
X143248749Y-51323204D01*
X143258476Y-51322952D01*
X143269788Y-51323145D01*
X143277643Y-51323983D01*
X143283784Y-51325852D01*
X143289957Y-51329142D01*
X143291965Y-51330393D01*
X143304011Y-51339742D01*
X143314136Y-51350846D01*
X143321129Y-51362267D01*
X143322960Y-51367226D01*
X143323585Y-51372041D01*
X143324154Y-51381378D01*
X143324647Y-51394547D01*
X143325046Y-51410861D01*
X143325333Y-51429632D01*
X143325488Y-51450173D01*
X143325511Y-51461229D01*
X143325479Y-51485390D01*
X143325489Y-51504888D01*
X143325713Y-51520264D01*
X143326325Y-51532062D01*
X143327495Y-51540825D01*
X143329398Y-51547095D01*
X143332205Y-51551416D01*
X143336089Y-51554330D01*
X143341223Y-51556380D01*
X143347779Y-51558110D01*
X143355929Y-51560062D01*
X143357002Y-51560332D01*
X143368416Y-51563042D01*
X143376732Y-51564354D01*
X143383835Y-51564388D01*
X143391609Y-51563265D01*
X143394400Y-51562711D01*
X143411451Y-51557962D01*
X143425676Y-51551502D01*
X143436465Y-51543759D01*
X143443211Y-51535160D01*
X143445325Y-51526885D01*
X143444937Y-51521665D01*
X143443859Y-51512258D01*
X143442214Y-51499617D01*
X143440128Y-51484700D01*
X143437724Y-51468462D01*
X143437512Y-51467065D01*
X143433755Y-51440045D01*
X143431180Y-51416114D01*
X143429862Y-51396049D01*
X143429699Y-51387863D01*
X143429699Y-51359832D01*
X143443100Y-51345169D01*
X143450676Y-51337433D01*
X143457988Y-51330889D01*
X143463529Y-51326877D01*
X143463805Y-51326729D01*
X143471295Y-51324512D01*
X143482079Y-51323278D01*
X143494336Y-51323032D01*
X143506242Y-51323782D01*
X143515976Y-51325531D01*
X143518980Y-51326566D01*
X143526915Y-51331514D01*
X143536050Y-51339452D01*
X143544943Y-51348880D01*
X143552149Y-51358300D01*
X143555647Y-51364621D01*
X143557294Y-51370172D01*
X143559479Y-51379823D01*
X143561990Y-51392520D01*
X143564617Y-51407210D01*
X143566601Y-51419312D01*
X143569470Y-51436392D01*
X143572230Y-51450640D01*
X143574734Y-51461387D01*
X143576833Y-51467959D01*
X143577663Y-51469446D01*
X143583777Y-51472994D01*
X143592523Y-51473828D01*
X143602102Y-51471966D01*
X143608293Y-51469099D01*
X143614343Y-51464078D01*
X143621025Y-51456600D01*
X143624524Y-51451803D01*
X143632519Y-51438042D01*
X143638359Y-51423656D01*
X143642448Y-51407287D01*
X143645191Y-51387577D01*
X143645867Y-51380137D01*
X143648213Y-51356720D01*
X143651222Y-51337436D01*
X143655177Y-51321224D01*
X143660365Y-51307023D01*
X143667071Y-51293771D01*
X143670684Y-51287794D01*
X143684630Y-51268751D01*
X143702577Y-51249519D01*
X143724753Y-51229906D01*
X143751387Y-51209724D01*
X143782707Y-51188784D01*
X143810496Y-51171826D01*
X143829250Y-51160403D01*
X143844000Y-51150471D01*
X143855499Y-51141397D01*
X143864498Y-51132549D01*
X143871750Y-51123294D01*
X143875756Y-51116978D01*
X143888689Y-51089990D01*
X143897030Y-51061151D01*
X143900737Y-51031148D01*
X143899765Y-51000669D01*
X143894074Y-50970399D01*
X143886328Y-50947373D01*
X143881163Y-50927798D01*
X143880791Y-50906511D01*
X143885182Y-50883768D01*
X143894307Y-50859826D01*
X143897075Y-50854173D01*
X143902058Y-50843936D01*
X143908358Y-50830315D01*
X143915325Y-50814751D01*
X143922310Y-50798686D01*
X143925786Y-50790485D01*
X143935710Y-50767193D01*
X143944241Y-50748034D01*
X143951760Y-50732247D01*
X143958648Y-50719067D01*
X143965289Y-50707733D01*
X143972064Y-50697480D01*
X143973022Y-50696121D01*
X143989233Y-50677016D01*
X144007397Y-50662566D01*
X144027320Y-50652905D01*
X144038808Y-50649714D01*
X144047621Y-50647865D01*
X144045869Y-50685260D01*
G37*
%TD*%
D11*
%TO.C,Y1*%
X142000000Y-58775000D03*
X142000000Y-60525000D03*
X143400000Y-60525000D03*
X143400000Y-58775000D03*
%TD*%
D12*
%TO.C,D6*%
X151000000Y-32735000D03*
X151000000Y-31765000D03*
%TD*%
D13*
%TO.C,R23*%
X156010000Y-33350000D03*
X154990000Y-33350000D03*
%TD*%
D14*
%TO.C,KiKit_TO_4*%
X162000000Y-78100000D03*
%TD*%
D13*
%TO.C,R24*%
X156010000Y-32150000D03*
X154990000Y-32150000D03*
%TD*%
D15*
%TO.C,R13*%
X149490000Y-51150000D03*
X150510000Y-51150000D03*
%TD*%
D12*
%TO.C,D4*%
X149500000Y-32735000D03*
X149500000Y-31765000D03*
%TD*%
D16*
%TO.C,C5*%
X151000000Y-45950000D03*
X146000000Y-45950000D03*
%TD*%
D13*
%TO.C,R3*%
X149710000Y-41300000D03*
X148690000Y-41300000D03*
%TD*%
D17*
%TO.C,RV2*%
X140450000Y-39600000D03*
D18*
X143700000Y-40600000D03*
D17*
X140450000Y-41600000D03*
%TD*%
D14*
%TO.C,KiKit_TO_2*%
X162000000Y-22500000D03*
%TD*%
D19*
%TO.C,C12*%
X143180000Y-61850000D03*
X142220000Y-61850000D03*
%TD*%
D20*
%TO.C,U5*%
X146750000Y-61520000D03*
X147250000Y-61520000D03*
X147750000Y-61520000D03*
X148250000Y-61520000D03*
X148750000Y-61520000D03*
X149250000Y-61520000D03*
X149750000Y-61520000D03*
X150250000Y-61520000D03*
D21*
X150950000Y-60820000D03*
X150950000Y-60320000D03*
X150950000Y-59820000D03*
X150950000Y-59320000D03*
X150950000Y-58820000D03*
X150950000Y-58320000D03*
X150950000Y-57820000D03*
X150950000Y-57320000D03*
D20*
X150250000Y-56620000D03*
X149750000Y-56620000D03*
X149250000Y-56620000D03*
X148750000Y-56620000D03*
X148250000Y-56620000D03*
X147750000Y-56620000D03*
X147250000Y-56620000D03*
X146750000Y-56620000D03*
D21*
X146050000Y-57320000D03*
X146050000Y-57820000D03*
X146050000Y-58320000D03*
X146050000Y-58820000D03*
X146050000Y-59320000D03*
X146050000Y-59820000D03*
X146050000Y-60320000D03*
X146050000Y-60820000D03*
D22*
X148500000Y-59070000D03*
%TD*%
D17*
%TO.C,RV1*%
X156550000Y-41600000D03*
D18*
X153300000Y-40600000D03*
D17*
X156550000Y-39600000D03*
%TD*%
D12*
%TO.C,D5*%
X148000000Y-32735000D03*
X148000000Y-31765000D03*
%TD*%
D19*
%TO.C,C11*%
X143180000Y-57450000D03*
X142220000Y-57450000D03*
%TD*%
D23*
%TO.C,D15*%
X144737437Y-54812563D03*
X144242463Y-55307537D03*
%TD*%
D15*
%TO.C,R2*%
X148690000Y-42500000D03*
X149710000Y-42500000D03*
%TD*%
%TO.C,R4*%
X150590000Y-41300000D03*
X151610000Y-41300000D03*
%TD*%
D24*
%TO.C,C9*%
X153500000Y-34770000D03*
X153500000Y-35730000D03*
%TD*%
D25*
%TO.C,C21*%
X145520000Y-66150000D03*
X146480000Y-66150000D03*
%TD*%
D26*
%TO.C,C10*%
X142450000Y-33350000D03*
X140550000Y-33350000D03*
%TD*%
D27*
%TO.C,L4*%
X145485000Y-67150000D03*
X144515000Y-67150000D03*
%TD*%
D28*
%TO.C,U1*%
X146025000Y-35745000D03*
X146025000Y-37015000D03*
X146025000Y-38285000D03*
X146025000Y-39555000D03*
X150975000Y-39555000D03*
X150975000Y-38285000D03*
X150975000Y-37015000D03*
X150975000Y-35745000D03*
%TD*%
D15*
%TO.C,R17*%
X145190000Y-42500000D03*
X146210000Y-42500000D03*
%TD*%
D26*
%TO.C,C8*%
X142450000Y-35850000D03*
X140550000Y-35850000D03*
%TD*%
D14*
%TO.C,KiKit_TO_1*%
X135000000Y-22500000D03*
%TD*%
D29*
%TO.C,J3*%
X153000000Y-28700000D03*
X152000000Y-28700000D03*
X151000000Y-28700000D03*
X150000000Y-28700000D03*
X149000000Y-28700000D03*
X148000000Y-28700000D03*
X147000000Y-28700000D03*
X146000000Y-28700000D03*
X145000000Y-28700000D03*
X144000000Y-28700000D03*
D30*
X155275000Y-28600000D03*
X141725000Y-28600000D03*
%TD*%
D13*
%TO.C,R12*%
X147510000Y-53150000D03*
X146490000Y-53150000D03*
%TD*%
D31*
%TO.C,J1*%
X140350000Y-48500000D03*
D32*
X140350000Y-50775000D03*
D33*
X140350000Y-56650000D03*
D32*
X140350000Y-62525000D03*
D31*
X140350000Y-64800000D03*
D34*
X142625000Y-48500000D03*
X142625000Y-64800000D03*
D35*
X148500000Y-48500000D03*
X148500000Y-64800000D03*
D34*
X154375000Y-48500000D03*
X154375000Y-64800000D03*
D31*
X156650000Y-48500000D03*
D32*
X156650000Y-50775000D03*
D33*
X156650000Y-56650000D03*
D32*
X156650000Y-62525000D03*
D31*
X156650000Y-64800000D03*
%TD*%
D13*
%TO.C,R16*%
X143510000Y-37500000D03*
X142490000Y-37500000D03*
%TD*%
D12*
%TO.C,D7*%
X152500000Y-32735000D03*
X152500000Y-31765000D03*
%TD*%
D36*
%TO.C,C23*%
X143450000Y-67130000D03*
X143450000Y-66170000D03*
%TD*%
D37*
%TO.C,D16*%
X155015000Y-30950000D03*
X155985000Y-30950000D03*
%TD*%
D14*
%TO.C,KiKit_TO_3*%
X135000000Y-78100000D03*
%TD*%
D38*
%TO.C,U4*%
X154750000Y-58387500D03*
X154250000Y-58387500D03*
X153750000Y-58387500D03*
X153250000Y-58387500D03*
D39*
X153237500Y-58900000D03*
X153237500Y-59400000D03*
D38*
X153250000Y-59912500D03*
X153750000Y-59912500D03*
X154250000Y-59912500D03*
X154750000Y-59912500D03*
D39*
X154762500Y-59400000D03*
X154762500Y-58900000D03*
%TD*%
D36*
%TO.C,C1*%
X154850000Y-38280000D03*
X154850000Y-37320000D03*
%TD*%
D40*
%TO.C,R6*%
X153500000Y-38310000D03*
X153500000Y-37290000D03*
%TD*%
D24*
%TO.C,C2*%
X154850000Y-34790000D03*
X154850000Y-35750000D03*
%TD*%
D41*
%TO.C,D14*%
X143252513Y-56297487D03*
X143747487Y-55802513D03*
%TD*%
D42*
%TO.C,J5*%
X152250000Y-52150000D03*
D43*
X144750000Y-52150000D03*
D44*
X150900000Y-54300000D03*
X150900000Y-50000000D03*
X146100000Y-54300000D03*
X146100000Y-50000000D03*
%TD*%
M02*
