%TF.GenerationSoftware,KiCad,Pcbnew,8.0.1*%
%TF.CreationDate,2025-06-23T19:48:13+12:00*%
%TF.ProjectId,panelrev2,70616e65-6c72-4657-9632-2e6b69636164,rev?*%
%TF.SameCoordinates,Original*%
%TF.FileFunction,Legend,Bot*%
%TF.FilePolarity,Positive*%
%FSLAX46Y46*%
G04 Gerber Fmt 4.6, Leading zero omitted, Abs format (unit mm)*
G04 Created by KiCad (PCBNEW 8.0.1) date 2025-06-23 19:48:13*
%MOMM*%
%LPD*%
G01*
G04 APERTURE LIST*
%ADD10C,0.100000*%
%ADD11C,0.300000*%
%ADD12C,0.150000*%
%ADD13C,0.120000*%
G04 APERTURE END LIST*
D10*
X147450000Y-55950000D02*
X147450000Y-60050000D01*
X145600000Y-61100000D02*
X145400000Y-61100000D01*
X148200000Y-61000000D02*
X148200000Y-60800000D01*
X149200000Y-60800000D02*
X149200000Y-61000000D01*
X145400000Y-62000000D02*
X145600000Y-62000000D01*
X148200000Y-60800000D02*
X149200000Y-60800000D01*
X145400000Y-61100000D02*
X145400000Y-62000000D01*
X147450000Y-58050000D02*
X146850000Y-58050000D01*
X147450000Y-60050000D02*
X146950000Y-60050000D01*
D11*
X155480828Y-66271653D02*
X156980828Y-67271653D01*
X155480828Y-67271653D02*
X156980828Y-66271653D01*
X156306542Y-62310225D02*
X157020828Y-62310225D01*
X155520828Y-61810225D02*
X156306542Y-62310225D01*
X156306542Y-62310225D02*
X155520828Y-62810225D01*
X155560828Y-56861653D02*
X155560828Y-57861653D01*
X155560828Y-57861653D02*
X157060828Y-56861653D01*
X157060828Y-56861653D02*
X157060828Y-57861653D01*
D12*
X144454819Y-63307142D02*
X143978628Y-62973809D01*
X144454819Y-62735714D02*
X143454819Y-62735714D01*
X143454819Y-62735714D02*
X143454819Y-63116666D01*
X143454819Y-63116666D02*
X143502438Y-63211904D01*
X143502438Y-63211904D02*
X143550057Y-63259523D01*
X143550057Y-63259523D02*
X143645295Y-63307142D01*
X143645295Y-63307142D02*
X143788152Y-63307142D01*
X143788152Y-63307142D02*
X143883390Y-63259523D01*
X143883390Y-63259523D02*
X143931009Y-63211904D01*
X143931009Y-63211904D02*
X143978628Y-63116666D01*
X143978628Y-63116666D02*
X143978628Y-62735714D01*
X144454819Y-64259523D02*
X144454819Y-63688095D01*
X144454819Y-63973809D02*
X143454819Y-63973809D01*
X143454819Y-63973809D02*
X143597676Y-63878571D01*
X143597676Y-63878571D02*
X143692914Y-63783333D01*
X143692914Y-63783333D02*
X143740533Y-63688095D01*
X144454819Y-65211904D02*
X144454819Y-64640476D01*
X144454819Y-64926190D02*
X143454819Y-64926190D01*
X143454819Y-64926190D02*
X143597676Y-64830952D01*
X143597676Y-64830952D02*
X143692914Y-64735714D01*
X143692914Y-64735714D02*
X143740533Y-64640476D01*
X140654819Y-59816666D02*
X141369104Y-59816666D01*
X141369104Y-59816666D02*
X141511961Y-59769047D01*
X141511961Y-59769047D02*
X141607200Y-59673809D01*
X141607200Y-59673809D02*
X141654819Y-59530952D01*
X141654819Y-59530952D02*
X141654819Y-59435714D01*
X140988152Y-60721428D02*
X141654819Y-60721428D01*
X140607200Y-60483333D02*
X141321485Y-60245238D01*
X141321485Y-60245238D02*
X141321485Y-60864285D01*
X144061904Y-35404819D02*
X144061904Y-36214342D01*
X144061904Y-36214342D02*
X144014285Y-36309580D01*
X144014285Y-36309580D02*
X143966666Y-36357200D01*
X143966666Y-36357200D02*
X143871428Y-36404819D01*
X143871428Y-36404819D02*
X143680952Y-36404819D01*
X143680952Y-36404819D02*
X143585714Y-36357200D01*
X143585714Y-36357200D02*
X143538095Y-36309580D01*
X143538095Y-36309580D02*
X143490476Y-36214342D01*
X143490476Y-36214342D02*
X143490476Y-35404819D01*
X142585714Y-35404819D02*
X142776190Y-35404819D01*
X142776190Y-35404819D02*
X142871428Y-35452438D01*
X142871428Y-35452438D02*
X142919047Y-35500057D01*
X142919047Y-35500057D02*
X143014285Y-35642914D01*
X143014285Y-35642914D02*
X143061904Y-35833390D01*
X143061904Y-35833390D02*
X143061904Y-36214342D01*
X143061904Y-36214342D02*
X143014285Y-36309580D01*
X143014285Y-36309580D02*
X142966666Y-36357200D01*
X142966666Y-36357200D02*
X142871428Y-36404819D01*
X142871428Y-36404819D02*
X142680952Y-36404819D01*
X142680952Y-36404819D02*
X142585714Y-36357200D01*
X142585714Y-36357200D02*
X142538095Y-36309580D01*
X142538095Y-36309580D02*
X142490476Y-36214342D01*
X142490476Y-36214342D02*
X142490476Y-35976247D01*
X142490476Y-35976247D02*
X142538095Y-35881009D01*
X142538095Y-35881009D02*
X142585714Y-35833390D01*
X142585714Y-35833390D02*
X142680952Y-35785771D01*
X142680952Y-35785771D02*
X142871428Y-35785771D01*
X142871428Y-35785771D02*
X142966666Y-35833390D01*
X142966666Y-35833390D02*
X143014285Y-35881009D01*
X143014285Y-35881009D02*
X143061904Y-35976247D01*
X151304819Y-33561905D02*
X150304819Y-33561905D01*
X150304819Y-33561905D02*
X150304819Y-33800000D01*
X150304819Y-33800000D02*
X150352438Y-33942857D01*
X150352438Y-33942857D02*
X150447676Y-34038095D01*
X150447676Y-34038095D02*
X150542914Y-34085714D01*
X150542914Y-34085714D02*
X150733390Y-34133333D01*
X150733390Y-34133333D02*
X150876247Y-34133333D01*
X150876247Y-34133333D02*
X151066723Y-34085714D01*
X151066723Y-34085714D02*
X151161961Y-34038095D01*
X151161961Y-34038095D02*
X151257200Y-33942857D01*
X151257200Y-33942857D02*
X151304819Y-33800000D01*
X151304819Y-33800000D02*
X151304819Y-33561905D01*
X150304819Y-34466667D02*
X150304819Y-35085714D01*
X150304819Y-35085714D02*
X150685771Y-34752381D01*
X150685771Y-34752381D02*
X150685771Y-34895238D01*
X150685771Y-34895238D02*
X150733390Y-34990476D01*
X150733390Y-34990476D02*
X150781009Y-35038095D01*
X150781009Y-35038095D02*
X150876247Y-35085714D01*
X150876247Y-35085714D02*
X151114342Y-35085714D01*
X151114342Y-35085714D02*
X151209580Y-35038095D01*
X151209580Y-35038095D02*
X151257200Y-34990476D01*
X151257200Y-34990476D02*
X151304819Y-34895238D01*
X151304819Y-34895238D02*
X151304819Y-34609524D01*
X151304819Y-34609524D02*
X151257200Y-34514286D01*
X151257200Y-34514286D02*
X151209580Y-34466667D01*
X154566666Y-54054819D02*
X154899999Y-53578628D01*
X155138094Y-54054819D02*
X155138094Y-53054819D01*
X155138094Y-53054819D02*
X154757142Y-53054819D01*
X154757142Y-53054819D02*
X154661904Y-53102438D01*
X154661904Y-53102438D02*
X154614285Y-53150057D01*
X154614285Y-53150057D02*
X154566666Y-53245295D01*
X154566666Y-53245295D02*
X154566666Y-53388152D01*
X154566666Y-53388152D02*
X154614285Y-53483390D01*
X154614285Y-53483390D02*
X154661904Y-53531009D01*
X154661904Y-53531009D02*
X154757142Y-53578628D01*
X154757142Y-53578628D02*
X155138094Y-53578628D01*
X154233332Y-53054819D02*
X153566666Y-53054819D01*
X153566666Y-53054819D02*
X153995237Y-54054819D01*
X142042857Y-40604819D02*
X142376190Y-40128628D01*
X142614285Y-40604819D02*
X142614285Y-39604819D01*
X142614285Y-39604819D02*
X142233333Y-39604819D01*
X142233333Y-39604819D02*
X142138095Y-39652438D01*
X142138095Y-39652438D02*
X142090476Y-39700057D01*
X142090476Y-39700057D02*
X142042857Y-39795295D01*
X142042857Y-39795295D02*
X142042857Y-39938152D01*
X142042857Y-39938152D02*
X142090476Y-40033390D01*
X142090476Y-40033390D02*
X142138095Y-40081009D01*
X142138095Y-40081009D02*
X142233333Y-40128628D01*
X142233333Y-40128628D02*
X142614285Y-40128628D01*
X141090476Y-40604819D02*
X141661904Y-40604819D01*
X141376190Y-40604819D02*
X141376190Y-39604819D01*
X141376190Y-39604819D02*
X141471428Y-39747676D01*
X141471428Y-39747676D02*
X141566666Y-39842914D01*
X141566666Y-39842914D02*
X141661904Y-39890533D01*
X140185714Y-39604819D02*
X140661904Y-39604819D01*
X140661904Y-39604819D02*
X140709523Y-40081009D01*
X140709523Y-40081009D02*
X140661904Y-40033390D01*
X140661904Y-40033390D02*
X140566666Y-39985771D01*
X140566666Y-39985771D02*
X140328571Y-39985771D01*
X140328571Y-39985771D02*
X140233333Y-40033390D01*
X140233333Y-40033390D02*
X140185714Y-40081009D01*
X140185714Y-40081009D02*
X140138095Y-40176247D01*
X140138095Y-40176247D02*
X140138095Y-40414342D01*
X140138095Y-40414342D02*
X140185714Y-40509580D01*
X140185714Y-40509580D02*
X140233333Y-40557200D01*
X140233333Y-40557200D02*
X140328571Y-40604819D01*
X140328571Y-40604819D02*
X140566666Y-40604819D01*
X140566666Y-40604819D02*
X140661904Y-40557200D01*
X140661904Y-40557200D02*
X140709523Y-40509580D01*
X145704819Y-66633333D02*
X145228628Y-66300000D01*
X145704819Y-66061905D02*
X144704819Y-66061905D01*
X144704819Y-66061905D02*
X144704819Y-66442857D01*
X144704819Y-66442857D02*
X144752438Y-66538095D01*
X144752438Y-66538095D02*
X144800057Y-66585714D01*
X144800057Y-66585714D02*
X144895295Y-66633333D01*
X144895295Y-66633333D02*
X145038152Y-66633333D01*
X145038152Y-66633333D02*
X145133390Y-66585714D01*
X145133390Y-66585714D02*
X145181009Y-66538095D01*
X145181009Y-66538095D02*
X145228628Y-66442857D01*
X145228628Y-66442857D02*
X145228628Y-66061905D01*
X145133390Y-67204762D02*
X145085771Y-67109524D01*
X145085771Y-67109524D02*
X145038152Y-67061905D01*
X145038152Y-67061905D02*
X144942914Y-67014286D01*
X144942914Y-67014286D02*
X144895295Y-67014286D01*
X144895295Y-67014286D02*
X144800057Y-67061905D01*
X144800057Y-67061905D02*
X144752438Y-67109524D01*
X144752438Y-67109524D02*
X144704819Y-67204762D01*
X144704819Y-67204762D02*
X144704819Y-67395238D01*
X144704819Y-67395238D02*
X144752438Y-67490476D01*
X144752438Y-67490476D02*
X144800057Y-67538095D01*
X144800057Y-67538095D02*
X144895295Y-67585714D01*
X144895295Y-67585714D02*
X144942914Y-67585714D01*
X144942914Y-67585714D02*
X145038152Y-67538095D01*
X145038152Y-67538095D02*
X145085771Y-67490476D01*
X145085771Y-67490476D02*
X145133390Y-67395238D01*
X145133390Y-67395238D02*
X145133390Y-67204762D01*
X145133390Y-67204762D02*
X145181009Y-67109524D01*
X145181009Y-67109524D02*
X145228628Y-67061905D01*
X145228628Y-67061905D02*
X145323866Y-67014286D01*
X145323866Y-67014286D02*
X145514342Y-67014286D01*
X145514342Y-67014286D02*
X145609580Y-67061905D01*
X145609580Y-67061905D02*
X145657200Y-67109524D01*
X145657200Y-67109524D02*
X145704819Y-67204762D01*
X145704819Y-67204762D02*
X145704819Y-67395238D01*
X145704819Y-67395238D02*
X145657200Y-67490476D01*
X145657200Y-67490476D02*
X145609580Y-67538095D01*
X145609580Y-67538095D02*
X145514342Y-67585714D01*
X145514342Y-67585714D02*
X145323866Y-67585714D01*
X145323866Y-67585714D02*
X145228628Y-67538095D01*
X145228628Y-67538095D02*
X145181009Y-67490476D01*
X145181009Y-67490476D02*
X145133390Y-67395238D01*
X156092857Y-36854819D02*
X156426190Y-36378628D01*
X156664285Y-36854819D02*
X156664285Y-35854819D01*
X156664285Y-35854819D02*
X156283333Y-35854819D01*
X156283333Y-35854819D02*
X156188095Y-35902438D01*
X156188095Y-35902438D02*
X156140476Y-35950057D01*
X156140476Y-35950057D02*
X156092857Y-36045295D01*
X156092857Y-36045295D02*
X156092857Y-36188152D01*
X156092857Y-36188152D02*
X156140476Y-36283390D01*
X156140476Y-36283390D02*
X156188095Y-36331009D01*
X156188095Y-36331009D02*
X156283333Y-36378628D01*
X156283333Y-36378628D02*
X156664285Y-36378628D01*
X155711904Y-35950057D02*
X155664285Y-35902438D01*
X155664285Y-35902438D02*
X155569047Y-35854819D01*
X155569047Y-35854819D02*
X155330952Y-35854819D01*
X155330952Y-35854819D02*
X155235714Y-35902438D01*
X155235714Y-35902438D02*
X155188095Y-35950057D01*
X155188095Y-35950057D02*
X155140476Y-36045295D01*
X155140476Y-36045295D02*
X155140476Y-36140533D01*
X155140476Y-36140533D02*
X155188095Y-36283390D01*
X155188095Y-36283390D02*
X155759523Y-36854819D01*
X155759523Y-36854819D02*
X155140476Y-36854819D01*
X154188095Y-36854819D02*
X154759523Y-36854819D01*
X154473809Y-36854819D02*
X154473809Y-35854819D01*
X154473809Y-35854819D02*
X154569047Y-35997676D01*
X154569047Y-35997676D02*
X154664285Y-36092914D01*
X154664285Y-36092914D02*
X154759523Y-36140533D01*
X154166666Y-44739580D02*
X154214285Y-44787200D01*
X154214285Y-44787200D02*
X154357142Y-44834819D01*
X154357142Y-44834819D02*
X154452380Y-44834819D01*
X154452380Y-44834819D02*
X154595237Y-44787200D01*
X154595237Y-44787200D02*
X154690475Y-44691961D01*
X154690475Y-44691961D02*
X154738094Y-44596723D01*
X154738094Y-44596723D02*
X154785713Y-44406247D01*
X154785713Y-44406247D02*
X154785713Y-44263390D01*
X154785713Y-44263390D02*
X154738094Y-44072914D01*
X154738094Y-44072914D02*
X154690475Y-43977676D01*
X154690475Y-43977676D02*
X154595237Y-43882438D01*
X154595237Y-43882438D02*
X154452380Y-43834819D01*
X154452380Y-43834819D02*
X154357142Y-43834819D01*
X154357142Y-43834819D02*
X154214285Y-43882438D01*
X154214285Y-43882438D02*
X154166666Y-43930057D01*
X153309523Y-44168152D02*
X153309523Y-44834819D01*
X153547618Y-43787200D02*
X153785713Y-44501485D01*
X153785713Y-44501485D02*
X153166666Y-44501485D01*
X147183333Y-36581009D02*
X147516666Y-36581009D01*
X147516666Y-37104819D02*
X147516666Y-36104819D01*
X147516666Y-36104819D02*
X147040476Y-36104819D01*
X146135714Y-37104819D02*
X146707142Y-37104819D01*
X146421428Y-37104819D02*
X146421428Y-36104819D01*
X146421428Y-36104819D02*
X146516666Y-36247676D01*
X146516666Y-36247676D02*
X146611904Y-36342914D01*
X146611904Y-36342914D02*
X146707142Y-36390533D01*
X152616666Y-63454819D02*
X152949999Y-62978628D01*
X153188094Y-63454819D02*
X153188094Y-62454819D01*
X153188094Y-62454819D02*
X152807142Y-62454819D01*
X152807142Y-62454819D02*
X152711904Y-62502438D01*
X152711904Y-62502438D02*
X152664285Y-62550057D01*
X152664285Y-62550057D02*
X152616666Y-62645295D01*
X152616666Y-62645295D02*
X152616666Y-62788152D01*
X152616666Y-62788152D02*
X152664285Y-62883390D01*
X152664285Y-62883390D02*
X152711904Y-62931009D01*
X152711904Y-62931009D02*
X152807142Y-62978628D01*
X152807142Y-62978628D02*
X153188094Y-62978628D01*
X151711904Y-62454819D02*
X152188094Y-62454819D01*
X152188094Y-62454819D02*
X152235713Y-62931009D01*
X152235713Y-62931009D02*
X152188094Y-62883390D01*
X152188094Y-62883390D02*
X152092856Y-62835771D01*
X152092856Y-62835771D02*
X151854761Y-62835771D01*
X151854761Y-62835771D02*
X151759523Y-62883390D01*
X151759523Y-62883390D02*
X151711904Y-62931009D01*
X151711904Y-62931009D02*
X151664285Y-63026247D01*
X151664285Y-63026247D02*
X151664285Y-63264342D01*
X151664285Y-63264342D02*
X151711904Y-63359580D01*
X151711904Y-63359580D02*
X151759523Y-63407200D01*
X151759523Y-63407200D02*
X151854761Y-63454819D01*
X151854761Y-63454819D02*
X152092856Y-63454819D01*
X152092856Y-63454819D02*
X152188094Y-63407200D01*
X152188094Y-63407200D02*
X152235713Y-63359580D01*
X156266666Y-64204819D02*
X156599999Y-63728628D01*
X156838094Y-64204819D02*
X156838094Y-63204819D01*
X156838094Y-63204819D02*
X156457142Y-63204819D01*
X156457142Y-63204819D02*
X156361904Y-63252438D01*
X156361904Y-63252438D02*
X156314285Y-63300057D01*
X156314285Y-63300057D02*
X156266666Y-63395295D01*
X156266666Y-63395295D02*
X156266666Y-63538152D01*
X156266666Y-63538152D02*
X156314285Y-63633390D01*
X156314285Y-63633390D02*
X156361904Y-63681009D01*
X156361904Y-63681009D02*
X156457142Y-63728628D01*
X156457142Y-63728628D02*
X156838094Y-63728628D01*
X155314285Y-64204819D02*
X155885713Y-64204819D01*
X155599999Y-64204819D02*
X155599999Y-63204819D01*
X155599999Y-63204819D02*
X155695237Y-63347676D01*
X155695237Y-63347676D02*
X155790475Y-63442914D01*
X155790475Y-63442914D02*
X155885713Y-63490533D01*
X149954819Y-33561905D02*
X148954819Y-33561905D01*
X148954819Y-33561905D02*
X148954819Y-33800000D01*
X148954819Y-33800000D02*
X149002438Y-33942857D01*
X149002438Y-33942857D02*
X149097676Y-34038095D01*
X149097676Y-34038095D02*
X149192914Y-34085714D01*
X149192914Y-34085714D02*
X149383390Y-34133333D01*
X149383390Y-34133333D02*
X149526247Y-34133333D01*
X149526247Y-34133333D02*
X149716723Y-34085714D01*
X149716723Y-34085714D02*
X149811961Y-34038095D01*
X149811961Y-34038095D02*
X149907200Y-33942857D01*
X149907200Y-33942857D02*
X149954819Y-33800000D01*
X149954819Y-33800000D02*
X149954819Y-33561905D01*
X149050057Y-34514286D02*
X149002438Y-34561905D01*
X149002438Y-34561905D02*
X148954819Y-34657143D01*
X148954819Y-34657143D02*
X148954819Y-34895238D01*
X148954819Y-34895238D02*
X149002438Y-34990476D01*
X149002438Y-34990476D02*
X149050057Y-35038095D01*
X149050057Y-35038095D02*
X149145295Y-35085714D01*
X149145295Y-35085714D02*
X149240533Y-35085714D01*
X149240533Y-35085714D02*
X149383390Y-35038095D01*
X149383390Y-35038095D02*
X149954819Y-34466667D01*
X149954819Y-34466667D02*
X149954819Y-35085714D01*
X149154819Y-58707142D02*
X148678628Y-58373809D01*
X149154819Y-58135714D02*
X148154819Y-58135714D01*
X148154819Y-58135714D02*
X148154819Y-58516666D01*
X148154819Y-58516666D02*
X148202438Y-58611904D01*
X148202438Y-58611904D02*
X148250057Y-58659523D01*
X148250057Y-58659523D02*
X148345295Y-58707142D01*
X148345295Y-58707142D02*
X148488152Y-58707142D01*
X148488152Y-58707142D02*
X148583390Y-58659523D01*
X148583390Y-58659523D02*
X148631009Y-58611904D01*
X148631009Y-58611904D02*
X148678628Y-58516666D01*
X148678628Y-58516666D02*
X148678628Y-58135714D01*
X149154819Y-59659523D02*
X149154819Y-59088095D01*
X149154819Y-59373809D02*
X148154819Y-59373809D01*
X148154819Y-59373809D02*
X148297676Y-59278571D01*
X148297676Y-59278571D02*
X148392914Y-59183333D01*
X148392914Y-59183333D02*
X148440533Y-59088095D01*
X149154819Y-60135714D02*
X149154819Y-60326190D01*
X149154819Y-60326190D02*
X149107200Y-60421428D01*
X149107200Y-60421428D02*
X149059580Y-60469047D01*
X149059580Y-60469047D02*
X148916723Y-60564285D01*
X148916723Y-60564285D02*
X148726247Y-60611904D01*
X148726247Y-60611904D02*
X148345295Y-60611904D01*
X148345295Y-60611904D02*
X148250057Y-60564285D01*
X148250057Y-60564285D02*
X148202438Y-60516666D01*
X148202438Y-60516666D02*
X148154819Y-60421428D01*
X148154819Y-60421428D02*
X148154819Y-60230952D01*
X148154819Y-60230952D02*
X148202438Y-60135714D01*
X148202438Y-60135714D02*
X148250057Y-60088095D01*
X148250057Y-60088095D02*
X148345295Y-60040476D01*
X148345295Y-60040476D02*
X148583390Y-60040476D01*
X148583390Y-60040476D02*
X148678628Y-60088095D01*
X148678628Y-60088095D02*
X148726247Y-60135714D01*
X148726247Y-60135714D02*
X148773866Y-60230952D01*
X148773866Y-60230952D02*
X148773866Y-60421428D01*
X148773866Y-60421428D02*
X148726247Y-60516666D01*
X148726247Y-60516666D02*
X148678628Y-60564285D01*
X148678628Y-60564285D02*
X148583390Y-60611904D01*
X148054819Y-33561905D02*
X147054819Y-33561905D01*
X147054819Y-33561905D02*
X147054819Y-33800000D01*
X147054819Y-33800000D02*
X147102438Y-33942857D01*
X147102438Y-33942857D02*
X147197676Y-34038095D01*
X147197676Y-34038095D02*
X147292914Y-34085714D01*
X147292914Y-34085714D02*
X147483390Y-34133333D01*
X147483390Y-34133333D02*
X147626247Y-34133333D01*
X147626247Y-34133333D02*
X147816723Y-34085714D01*
X147816723Y-34085714D02*
X147911961Y-34038095D01*
X147911961Y-34038095D02*
X148007200Y-33942857D01*
X148007200Y-33942857D02*
X148054819Y-33800000D01*
X148054819Y-33800000D02*
X148054819Y-33561905D01*
X147483390Y-34704762D02*
X147435771Y-34609524D01*
X147435771Y-34609524D02*
X147388152Y-34561905D01*
X147388152Y-34561905D02*
X147292914Y-34514286D01*
X147292914Y-34514286D02*
X147245295Y-34514286D01*
X147245295Y-34514286D02*
X147150057Y-34561905D01*
X147150057Y-34561905D02*
X147102438Y-34609524D01*
X147102438Y-34609524D02*
X147054819Y-34704762D01*
X147054819Y-34704762D02*
X147054819Y-34895238D01*
X147054819Y-34895238D02*
X147102438Y-34990476D01*
X147102438Y-34990476D02*
X147150057Y-35038095D01*
X147150057Y-35038095D02*
X147245295Y-35085714D01*
X147245295Y-35085714D02*
X147292914Y-35085714D01*
X147292914Y-35085714D02*
X147388152Y-35038095D01*
X147388152Y-35038095D02*
X147435771Y-34990476D01*
X147435771Y-34990476D02*
X147483390Y-34895238D01*
X147483390Y-34895238D02*
X147483390Y-34704762D01*
X147483390Y-34704762D02*
X147531009Y-34609524D01*
X147531009Y-34609524D02*
X147578628Y-34561905D01*
X147578628Y-34561905D02*
X147673866Y-34514286D01*
X147673866Y-34514286D02*
X147864342Y-34514286D01*
X147864342Y-34514286D02*
X147959580Y-34561905D01*
X147959580Y-34561905D02*
X148007200Y-34609524D01*
X148007200Y-34609524D02*
X148054819Y-34704762D01*
X148054819Y-34704762D02*
X148054819Y-34895238D01*
X148054819Y-34895238D02*
X148007200Y-34990476D01*
X148007200Y-34990476D02*
X147959580Y-35038095D01*
X147959580Y-35038095D02*
X147864342Y-35085714D01*
X147864342Y-35085714D02*
X147673866Y-35085714D01*
X147673866Y-35085714D02*
X147578628Y-35038095D01*
X147578628Y-35038095D02*
X147531009Y-34990476D01*
X147531009Y-34990476D02*
X147483390Y-34895238D01*
X142154819Y-34583333D02*
X141678628Y-34250000D01*
X142154819Y-34011905D02*
X141154819Y-34011905D01*
X141154819Y-34011905D02*
X141154819Y-34392857D01*
X141154819Y-34392857D02*
X141202438Y-34488095D01*
X141202438Y-34488095D02*
X141250057Y-34535714D01*
X141250057Y-34535714D02*
X141345295Y-34583333D01*
X141345295Y-34583333D02*
X141488152Y-34583333D01*
X141488152Y-34583333D02*
X141583390Y-34535714D01*
X141583390Y-34535714D02*
X141631009Y-34488095D01*
X141631009Y-34488095D02*
X141678628Y-34392857D01*
X141678628Y-34392857D02*
X141678628Y-34011905D01*
X142154819Y-35059524D02*
X142154819Y-35250000D01*
X142154819Y-35250000D02*
X142107200Y-35345238D01*
X142107200Y-35345238D02*
X142059580Y-35392857D01*
X142059580Y-35392857D02*
X141916723Y-35488095D01*
X141916723Y-35488095D02*
X141726247Y-35535714D01*
X141726247Y-35535714D02*
X141345295Y-35535714D01*
X141345295Y-35535714D02*
X141250057Y-35488095D01*
X141250057Y-35488095D02*
X141202438Y-35440476D01*
X141202438Y-35440476D02*
X141154819Y-35345238D01*
X141154819Y-35345238D02*
X141154819Y-35154762D01*
X141154819Y-35154762D02*
X141202438Y-35059524D01*
X141202438Y-35059524D02*
X141250057Y-35011905D01*
X141250057Y-35011905D02*
X141345295Y-34964286D01*
X141345295Y-34964286D02*
X141583390Y-34964286D01*
X141583390Y-34964286D02*
X141678628Y-35011905D01*
X141678628Y-35011905D02*
X141726247Y-35059524D01*
X141726247Y-35059524D02*
X141773866Y-35154762D01*
X141773866Y-35154762D02*
X141773866Y-35345238D01*
X141773866Y-35345238D02*
X141726247Y-35440476D01*
X141726247Y-35440476D02*
X141678628Y-35488095D01*
X141678628Y-35488095D02*
X141583390Y-35535714D01*
X146592857Y-57559580D02*
X146640476Y-57607200D01*
X146640476Y-57607200D02*
X146783333Y-57654819D01*
X146783333Y-57654819D02*
X146878571Y-57654819D01*
X146878571Y-57654819D02*
X147021428Y-57607200D01*
X147021428Y-57607200D02*
X147116666Y-57511961D01*
X147116666Y-57511961D02*
X147164285Y-57416723D01*
X147164285Y-57416723D02*
X147211904Y-57226247D01*
X147211904Y-57226247D02*
X147211904Y-57083390D01*
X147211904Y-57083390D02*
X147164285Y-56892914D01*
X147164285Y-56892914D02*
X147116666Y-56797676D01*
X147116666Y-56797676D02*
X147021428Y-56702438D01*
X147021428Y-56702438D02*
X146878571Y-56654819D01*
X146878571Y-56654819D02*
X146783333Y-56654819D01*
X146783333Y-56654819D02*
X146640476Y-56702438D01*
X146640476Y-56702438D02*
X146592857Y-56750057D01*
X145640476Y-57654819D02*
X146211904Y-57654819D01*
X145926190Y-57654819D02*
X145926190Y-56654819D01*
X145926190Y-56654819D02*
X146021428Y-56797676D01*
X146021428Y-56797676D02*
X146116666Y-56892914D01*
X146116666Y-56892914D02*
X146211904Y-56940533D01*
X145307142Y-56654819D02*
X144640476Y-56654819D01*
X144640476Y-56654819D02*
X145069047Y-57654819D01*
X146592857Y-56259580D02*
X146640476Y-56307200D01*
X146640476Y-56307200D02*
X146783333Y-56354819D01*
X146783333Y-56354819D02*
X146878571Y-56354819D01*
X146878571Y-56354819D02*
X147021428Y-56307200D01*
X147021428Y-56307200D02*
X147116666Y-56211961D01*
X147116666Y-56211961D02*
X147164285Y-56116723D01*
X147164285Y-56116723D02*
X147211904Y-55926247D01*
X147211904Y-55926247D02*
X147211904Y-55783390D01*
X147211904Y-55783390D02*
X147164285Y-55592914D01*
X147164285Y-55592914D02*
X147116666Y-55497676D01*
X147116666Y-55497676D02*
X147021428Y-55402438D01*
X147021428Y-55402438D02*
X146878571Y-55354819D01*
X146878571Y-55354819D02*
X146783333Y-55354819D01*
X146783333Y-55354819D02*
X146640476Y-55402438D01*
X146640476Y-55402438D02*
X146592857Y-55450057D01*
X145640476Y-56354819D02*
X146211904Y-56354819D01*
X145926190Y-56354819D02*
X145926190Y-55354819D01*
X145926190Y-55354819D02*
X146021428Y-55497676D01*
X146021428Y-55497676D02*
X146116666Y-55592914D01*
X146116666Y-55592914D02*
X146211904Y-55640533D01*
X144735714Y-55354819D02*
X145211904Y-55354819D01*
X145211904Y-55354819D02*
X145259523Y-55831009D01*
X145259523Y-55831009D02*
X145211904Y-55783390D01*
X145211904Y-55783390D02*
X145116666Y-55735771D01*
X145116666Y-55735771D02*
X144878571Y-55735771D01*
X144878571Y-55735771D02*
X144783333Y-55783390D01*
X144783333Y-55783390D02*
X144735714Y-55831009D01*
X144735714Y-55831009D02*
X144688095Y-55926247D01*
X144688095Y-55926247D02*
X144688095Y-56164342D01*
X144688095Y-56164342D02*
X144735714Y-56259580D01*
X144735714Y-56259580D02*
X144783333Y-56307200D01*
X144783333Y-56307200D02*
X144878571Y-56354819D01*
X144878571Y-56354819D02*
X145116666Y-56354819D01*
X145116666Y-56354819D02*
X145211904Y-56307200D01*
X145211904Y-56307200D02*
X145259523Y-56259580D01*
X154754819Y-38288095D02*
X155564342Y-38288095D01*
X155564342Y-38288095D02*
X155659580Y-38335714D01*
X155659580Y-38335714D02*
X155707200Y-38383333D01*
X155707200Y-38383333D02*
X155754819Y-38478571D01*
X155754819Y-38478571D02*
X155754819Y-38669047D01*
X155754819Y-38669047D02*
X155707200Y-38764285D01*
X155707200Y-38764285D02*
X155659580Y-38811904D01*
X155659580Y-38811904D02*
X155564342Y-38859523D01*
X155564342Y-38859523D02*
X154754819Y-38859523D01*
X154850057Y-39288095D02*
X154802438Y-39335714D01*
X154802438Y-39335714D02*
X154754819Y-39430952D01*
X154754819Y-39430952D02*
X154754819Y-39669047D01*
X154754819Y-39669047D02*
X154802438Y-39764285D01*
X154802438Y-39764285D02*
X154850057Y-39811904D01*
X154850057Y-39811904D02*
X154945295Y-39859523D01*
X154945295Y-39859523D02*
X155040533Y-39859523D01*
X155040533Y-39859523D02*
X155183390Y-39811904D01*
X155183390Y-39811904D02*
X155754819Y-39240476D01*
X155754819Y-39240476D02*
X155754819Y-39859523D01*
X153116666Y-34509580D02*
X153164285Y-34557200D01*
X153164285Y-34557200D02*
X153307142Y-34604819D01*
X153307142Y-34604819D02*
X153402380Y-34604819D01*
X153402380Y-34604819D02*
X153545237Y-34557200D01*
X153545237Y-34557200D02*
X153640475Y-34461961D01*
X153640475Y-34461961D02*
X153688094Y-34366723D01*
X153688094Y-34366723D02*
X153735713Y-34176247D01*
X153735713Y-34176247D02*
X153735713Y-34033390D01*
X153735713Y-34033390D02*
X153688094Y-33842914D01*
X153688094Y-33842914D02*
X153640475Y-33747676D01*
X153640475Y-33747676D02*
X153545237Y-33652438D01*
X153545237Y-33652438D02*
X153402380Y-33604819D01*
X153402380Y-33604819D02*
X153307142Y-33604819D01*
X153307142Y-33604819D02*
X153164285Y-33652438D01*
X153164285Y-33652438D02*
X153116666Y-33700057D01*
X152783332Y-33604819D02*
X152164285Y-33604819D01*
X152164285Y-33604819D02*
X152497618Y-33985771D01*
X152497618Y-33985771D02*
X152354761Y-33985771D01*
X152354761Y-33985771D02*
X152259523Y-34033390D01*
X152259523Y-34033390D02*
X152211904Y-34081009D01*
X152211904Y-34081009D02*
X152164285Y-34176247D01*
X152164285Y-34176247D02*
X152164285Y-34414342D01*
X152164285Y-34414342D02*
X152211904Y-34509580D01*
X152211904Y-34509580D02*
X152259523Y-34557200D01*
X152259523Y-34557200D02*
X152354761Y-34604819D01*
X152354761Y-34604819D02*
X152640475Y-34604819D01*
X152640475Y-34604819D02*
X152735713Y-34557200D01*
X152735713Y-34557200D02*
X152783332Y-34509580D01*
X145454819Y-34157142D02*
X144978628Y-33823809D01*
X145454819Y-33585714D02*
X144454819Y-33585714D01*
X144454819Y-33585714D02*
X144454819Y-33966666D01*
X144454819Y-33966666D02*
X144502438Y-34061904D01*
X144502438Y-34061904D02*
X144550057Y-34109523D01*
X144550057Y-34109523D02*
X144645295Y-34157142D01*
X144645295Y-34157142D02*
X144788152Y-34157142D01*
X144788152Y-34157142D02*
X144883390Y-34109523D01*
X144883390Y-34109523D02*
X144931009Y-34061904D01*
X144931009Y-34061904D02*
X144978628Y-33966666D01*
X144978628Y-33966666D02*
X144978628Y-33585714D01*
X144550057Y-34538095D02*
X144502438Y-34585714D01*
X144502438Y-34585714D02*
X144454819Y-34680952D01*
X144454819Y-34680952D02*
X144454819Y-34919047D01*
X144454819Y-34919047D02*
X144502438Y-35014285D01*
X144502438Y-35014285D02*
X144550057Y-35061904D01*
X144550057Y-35061904D02*
X144645295Y-35109523D01*
X144645295Y-35109523D02*
X144740533Y-35109523D01*
X144740533Y-35109523D02*
X144883390Y-35061904D01*
X144883390Y-35061904D02*
X145454819Y-34490476D01*
X145454819Y-34490476D02*
X145454819Y-35109523D01*
X144454819Y-35728571D02*
X144454819Y-35823809D01*
X144454819Y-35823809D02*
X144502438Y-35919047D01*
X144502438Y-35919047D02*
X144550057Y-35966666D01*
X144550057Y-35966666D02*
X144645295Y-36014285D01*
X144645295Y-36014285D02*
X144835771Y-36061904D01*
X144835771Y-36061904D02*
X145073866Y-36061904D01*
X145073866Y-36061904D02*
X145264342Y-36014285D01*
X145264342Y-36014285D02*
X145359580Y-35966666D01*
X145359580Y-35966666D02*
X145407200Y-35919047D01*
X145407200Y-35919047D02*
X145454819Y-35823809D01*
X145454819Y-35823809D02*
X145454819Y-35728571D01*
X145454819Y-35728571D02*
X145407200Y-35633333D01*
X145407200Y-35633333D02*
X145359580Y-35585714D01*
X145359580Y-35585714D02*
X145264342Y-35538095D01*
X145264342Y-35538095D02*
X145073866Y-35490476D01*
X145073866Y-35490476D02*
X144835771Y-35490476D01*
X144835771Y-35490476D02*
X144645295Y-35538095D01*
X144645295Y-35538095D02*
X144550057Y-35585714D01*
X144550057Y-35585714D02*
X144502438Y-35633333D01*
X144502438Y-35633333D02*
X144454819Y-35728571D01*
X148700306Y-55458830D02*
X148700306Y-55526174D01*
X148700306Y-55526174D02*
X148767650Y-55660861D01*
X148767650Y-55660861D02*
X148834993Y-55728204D01*
X148834993Y-55728204D02*
X148969680Y-55795548D01*
X148969680Y-55795548D02*
X149104367Y-55795548D01*
X149104367Y-55795548D02*
X149205382Y-55761876D01*
X149205382Y-55761876D02*
X149373741Y-55660861D01*
X149373741Y-55660861D02*
X149474756Y-55559846D01*
X149474756Y-55559846D02*
X149575772Y-55391487D01*
X149575772Y-55391487D02*
X149609443Y-55290472D01*
X149609443Y-55290472D02*
X149609443Y-55155785D01*
X149609443Y-55155785D02*
X149542100Y-55021098D01*
X149542100Y-55021098D02*
X149474756Y-54953754D01*
X149474756Y-54953754D02*
X149340069Y-54886411D01*
X149340069Y-54886411D02*
X149272726Y-54886411D01*
X149003352Y-54617037D02*
X149003352Y-54549693D01*
X149003352Y-54549693D02*
X148969680Y-54448678D01*
X148969680Y-54448678D02*
X148801321Y-54280319D01*
X148801321Y-54280319D02*
X148700306Y-54246647D01*
X148700306Y-54246647D02*
X148632963Y-54246647D01*
X148632963Y-54246647D02*
X148531947Y-54280319D01*
X148531947Y-54280319D02*
X148464604Y-54347663D01*
X148464604Y-54347663D02*
X148397260Y-54482350D01*
X148397260Y-54482350D02*
X148397260Y-55290472D01*
X148397260Y-55290472D02*
X147959528Y-54852739D01*
X148228901Y-53707899D02*
X148161558Y-53640556D01*
X148161558Y-53640556D02*
X148060543Y-53606884D01*
X148060543Y-53606884D02*
X147993199Y-53606884D01*
X147993199Y-53606884D02*
X147892184Y-53640556D01*
X147892184Y-53640556D02*
X147723825Y-53741571D01*
X147723825Y-53741571D02*
X147555466Y-53909930D01*
X147555466Y-53909930D02*
X147454451Y-54078288D01*
X147454451Y-54078288D02*
X147420779Y-54179304D01*
X147420779Y-54179304D02*
X147420779Y-54246647D01*
X147420779Y-54246647D02*
X147454451Y-54347662D01*
X147454451Y-54347662D02*
X147521795Y-54415006D01*
X147521795Y-54415006D02*
X147622810Y-54448678D01*
X147622810Y-54448678D02*
X147690153Y-54448678D01*
X147690153Y-54448678D02*
X147791169Y-54415006D01*
X147791169Y-54415006D02*
X147959527Y-54313991D01*
X147959527Y-54313991D02*
X148127886Y-54145632D01*
X148127886Y-54145632D02*
X148228901Y-53977273D01*
X148228901Y-53977273D02*
X148262573Y-53876258D01*
X148262573Y-53876258D02*
X148262573Y-53808914D01*
X148262573Y-53808914D02*
X148228901Y-53707899D01*
X145254819Y-61183333D02*
X145254819Y-60707143D01*
X145254819Y-60707143D02*
X144254819Y-60707143D01*
X144254819Y-61421429D02*
X144254819Y-62040476D01*
X144254819Y-62040476D02*
X144635771Y-61707143D01*
X144635771Y-61707143D02*
X144635771Y-61850000D01*
X144635771Y-61850000D02*
X144683390Y-61945238D01*
X144683390Y-61945238D02*
X144731009Y-61992857D01*
X144731009Y-61992857D02*
X144826247Y-62040476D01*
X144826247Y-62040476D02*
X145064342Y-62040476D01*
X145064342Y-62040476D02*
X145159580Y-61992857D01*
X145159580Y-61992857D02*
X145207200Y-61945238D01*
X145207200Y-61945238D02*
X145254819Y-61850000D01*
X145254819Y-61850000D02*
X145254819Y-61564286D01*
X145254819Y-61564286D02*
X145207200Y-61469048D01*
X145207200Y-61469048D02*
X145159580Y-61421429D01*
X150909580Y-39583333D02*
X150957200Y-39535714D01*
X150957200Y-39535714D02*
X151004819Y-39392857D01*
X151004819Y-39392857D02*
X151004819Y-39297619D01*
X151004819Y-39297619D02*
X150957200Y-39154762D01*
X150957200Y-39154762D02*
X150861961Y-39059524D01*
X150861961Y-39059524D02*
X150766723Y-39011905D01*
X150766723Y-39011905D02*
X150576247Y-38964286D01*
X150576247Y-38964286D02*
X150433390Y-38964286D01*
X150433390Y-38964286D02*
X150242914Y-39011905D01*
X150242914Y-39011905D02*
X150147676Y-39059524D01*
X150147676Y-39059524D02*
X150052438Y-39154762D01*
X150052438Y-39154762D02*
X150004819Y-39297619D01*
X150004819Y-39297619D02*
X150004819Y-39392857D01*
X150004819Y-39392857D02*
X150052438Y-39535714D01*
X150052438Y-39535714D02*
X150100057Y-39583333D01*
X150004819Y-40440476D02*
X150004819Y-40250000D01*
X150004819Y-40250000D02*
X150052438Y-40154762D01*
X150052438Y-40154762D02*
X150100057Y-40107143D01*
X150100057Y-40107143D02*
X150242914Y-40011905D01*
X150242914Y-40011905D02*
X150433390Y-39964286D01*
X150433390Y-39964286D02*
X150814342Y-39964286D01*
X150814342Y-39964286D02*
X150909580Y-40011905D01*
X150909580Y-40011905D02*
X150957200Y-40059524D01*
X150957200Y-40059524D02*
X151004819Y-40154762D01*
X151004819Y-40154762D02*
X151004819Y-40345238D01*
X151004819Y-40345238D02*
X150957200Y-40440476D01*
X150957200Y-40440476D02*
X150909580Y-40488095D01*
X150909580Y-40488095D02*
X150814342Y-40535714D01*
X150814342Y-40535714D02*
X150576247Y-40535714D01*
X150576247Y-40535714D02*
X150481009Y-40488095D01*
X150481009Y-40488095D02*
X150433390Y-40440476D01*
X150433390Y-40440476D02*
X150385771Y-40345238D01*
X150385771Y-40345238D02*
X150385771Y-40154762D01*
X150385771Y-40154762D02*
X150433390Y-40059524D01*
X150433390Y-40059524D02*
X150481009Y-40011905D01*
X150481009Y-40011905D02*
X150576247Y-39964286D01*
X148254819Y-44033333D02*
X148254819Y-43557143D01*
X148254819Y-43557143D02*
X147254819Y-43557143D01*
X147350057Y-44319048D02*
X147302438Y-44366667D01*
X147302438Y-44366667D02*
X147254819Y-44461905D01*
X147254819Y-44461905D02*
X147254819Y-44700000D01*
X147254819Y-44700000D02*
X147302438Y-44795238D01*
X147302438Y-44795238D02*
X147350057Y-44842857D01*
X147350057Y-44842857D02*
X147445295Y-44890476D01*
X147445295Y-44890476D02*
X147540533Y-44890476D01*
X147540533Y-44890476D02*
X147683390Y-44842857D01*
X147683390Y-44842857D02*
X148254819Y-44271429D01*
X148254819Y-44271429D02*
X148254819Y-44890476D01*
X141792857Y-44154819D02*
X142126190Y-43678628D01*
X142364285Y-44154819D02*
X142364285Y-43154819D01*
X142364285Y-43154819D02*
X141983333Y-43154819D01*
X141983333Y-43154819D02*
X141888095Y-43202438D01*
X141888095Y-43202438D02*
X141840476Y-43250057D01*
X141840476Y-43250057D02*
X141792857Y-43345295D01*
X141792857Y-43345295D02*
X141792857Y-43488152D01*
X141792857Y-43488152D02*
X141840476Y-43583390D01*
X141840476Y-43583390D02*
X141888095Y-43631009D01*
X141888095Y-43631009D02*
X141983333Y-43678628D01*
X141983333Y-43678628D02*
X142364285Y-43678628D01*
X140840476Y-44154819D02*
X141411904Y-44154819D01*
X141126190Y-44154819D02*
X141126190Y-43154819D01*
X141126190Y-43154819D02*
X141221428Y-43297676D01*
X141221428Y-43297676D02*
X141316666Y-43392914D01*
X141316666Y-43392914D02*
X141411904Y-43440533D01*
X139983333Y-43488152D02*
X139983333Y-44154819D01*
X140221428Y-43107200D02*
X140459523Y-43821485D01*
X140459523Y-43821485D02*
X139840476Y-43821485D01*
X146754819Y-33561905D02*
X145754819Y-33561905D01*
X145754819Y-33561905D02*
X145754819Y-33800000D01*
X145754819Y-33800000D02*
X145802438Y-33942857D01*
X145802438Y-33942857D02*
X145897676Y-34038095D01*
X145897676Y-34038095D02*
X145992914Y-34085714D01*
X145992914Y-34085714D02*
X146183390Y-34133333D01*
X146183390Y-34133333D02*
X146326247Y-34133333D01*
X146326247Y-34133333D02*
X146516723Y-34085714D01*
X146516723Y-34085714D02*
X146611961Y-34038095D01*
X146611961Y-34038095D02*
X146707200Y-33942857D01*
X146707200Y-33942857D02*
X146754819Y-33800000D01*
X146754819Y-33800000D02*
X146754819Y-33561905D01*
X146754819Y-34609524D02*
X146754819Y-34800000D01*
X146754819Y-34800000D02*
X146707200Y-34895238D01*
X146707200Y-34895238D02*
X146659580Y-34942857D01*
X146659580Y-34942857D02*
X146516723Y-35038095D01*
X146516723Y-35038095D02*
X146326247Y-35085714D01*
X146326247Y-35085714D02*
X145945295Y-35085714D01*
X145945295Y-35085714D02*
X145850057Y-35038095D01*
X145850057Y-35038095D02*
X145802438Y-34990476D01*
X145802438Y-34990476D02*
X145754819Y-34895238D01*
X145754819Y-34895238D02*
X145754819Y-34704762D01*
X145754819Y-34704762D02*
X145802438Y-34609524D01*
X145802438Y-34609524D02*
X145850057Y-34561905D01*
X145850057Y-34561905D02*
X145945295Y-34514286D01*
X145945295Y-34514286D02*
X146183390Y-34514286D01*
X146183390Y-34514286D02*
X146278628Y-34561905D01*
X146278628Y-34561905D02*
X146326247Y-34609524D01*
X146326247Y-34609524D02*
X146373866Y-34704762D01*
X146373866Y-34704762D02*
X146373866Y-34895238D01*
X146373866Y-34895238D02*
X146326247Y-34990476D01*
X146326247Y-34990476D02*
X146278628Y-35038095D01*
X146278628Y-35038095D02*
X146183390Y-35085714D01*
X143545238Y-35050057D02*
X143640476Y-35002438D01*
X143640476Y-35002438D02*
X143735714Y-34907200D01*
X143735714Y-34907200D02*
X143878571Y-34764342D01*
X143878571Y-34764342D02*
X143973809Y-34716723D01*
X143973809Y-34716723D02*
X144069047Y-34716723D01*
X144021428Y-34954819D02*
X144116666Y-34907200D01*
X144116666Y-34907200D02*
X144211904Y-34811961D01*
X144211904Y-34811961D02*
X144259523Y-34621485D01*
X144259523Y-34621485D02*
X144259523Y-34288152D01*
X144259523Y-34288152D02*
X144211904Y-34097676D01*
X144211904Y-34097676D02*
X144116666Y-34002438D01*
X144116666Y-34002438D02*
X144021428Y-33954819D01*
X144021428Y-33954819D02*
X143830952Y-33954819D01*
X143830952Y-33954819D02*
X143735714Y-34002438D01*
X143735714Y-34002438D02*
X143640476Y-34097676D01*
X143640476Y-34097676D02*
X143592857Y-34288152D01*
X143592857Y-34288152D02*
X143592857Y-34621485D01*
X143592857Y-34621485D02*
X143640476Y-34811961D01*
X143640476Y-34811961D02*
X143735714Y-34907200D01*
X143735714Y-34907200D02*
X143830952Y-34954819D01*
X143830952Y-34954819D02*
X144021428Y-34954819D01*
X143259523Y-33954819D02*
X142640476Y-33954819D01*
X142640476Y-33954819D02*
X142973809Y-34335771D01*
X142973809Y-34335771D02*
X142830952Y-34335771D01*
X142830952Y-34335771D02*
X142735714Y-34383390D01*
X142735714Y-34383390D02*
X142688095Y-34431009D01*
X142688095Y-34431009D02*
X142640476Y-34526247D01*
X142640476Y-34526247D02*
X142640476Y-34764342D01*
X142640476Y-34764342D02*
X142688095Y-34859580D01*
X142688095Y-34859580D02*
X142735714Y-34907200D01*
X142735714Y-34907200D02*
X142830952Y-34954819D01*
X142830952Y-34954819D02*
X143116666Y-34954819D01*
X143116666Y-34954819D02*
X143211904Y-34907200D01*
X143211904Y-34907200D02*
X143259523Y-34859580D01*
X153142857Y-67609580D02*
X153190476Y-67657200D01*
X153190476Y-67657200D02*
X153333333Y-67704819D01*
X153333333Y-67704819D02*
X153428571Y-67704819D01*
X153428571Y-67704819D02*
X153571428Y-67657200D01*
X153571428Y-67657200D02*
X153666666Y-67561961D01*
X153666666Y-67561961D02*
X153714285Y-67466723D01*
X153714285Y-67466723D02*
X153761904Y-67276247D01*
X153761904Y-67276247D02*
X153761904Y-67133390D01*
X153761904Y-67133390D02*
X153714285Y-66942914D01*
X153714285Y-66942914D02*
X153666666Y-66847676D01*
X153666666Y-66847676D02*
X153571428Y-66752438D01*
X153571428Y-66752438D02*
X153428571Y-66704819D01*
X153428571Y-66704819D02*
X153333333Y-66704819D01*
X153333333Y-66704819D02*
X153190476Y-66752438D01*
X153190476Y-66752438D02*
X153142857Y-66800057D01*
X152761904Y-66800057D02*
X152714285Y-66752438D01*
X152714285Y-66752438D02*
X152619047Y-66704819D01*
X152619047Y-66704819D02*
X152380952Y-66704819D01*
X152380952Y-66704819D02*
X152285714Y-66752438D01*
X152285714Y-66752438D02*
X152238095Y-66800057D01*
X152238095Y-66800057D02*
X152190476Y-66895295D01*
X152190476Y-66895295D02*
X152190476Y-66990533D01*
X152190476Y-66990533D02*
X152238095Y-67133390D01*
X152238095Y-67133390D02*
X152809523Y-67704819D01*
X152809523Y-67704819D02*
X152190476Y-67704819D01*
X151285714Y-66704819D02*
X151761904Y-66704819D01*
X151761904Y-66704819D02*
X151809523Y-67181009D01*
X151809523Y-67181009D02*
X151761904Y-67133390D01*
X151761904Y-67133390D02*
X151666666Y-67085771D01*
X151666666Y-67085771D02*
X151428571Y-67085771D01*
X151428571Y-67085771D02*
X151333333Y-67133390D01*
X151333333Y-67133390D02*
X151285714Y-67181009D01*
X151285714Y-67181009D02*
X151238095Y-67276247D01*
X151238095Y-67276247D02*
X151238095Y-67514342D01*
X151238095Y-67514342D02*
X151285714Y-67609580D01*
X151285714Y-67609580D02*
X151333333Y-67657200D01*
X151333333Y-67657200D02*
X151428571Y-67704819D01*
X151428571Y-67704819D02*
X151666666Y-67704819D01*
X151666666Y-67704819D02*
X151761904Y-67657200D01*
X151761904Y-67657200D02*
X151809523Y-67609580D01*
X152092857Y-55904819D02*
X152426190Y-55428628D01*
X152664285Y-55904819D02*
X152664285Y-54904819D01*
X152664285Y-54904819D02*
X152283333Y-54904819D01*
X152283333Y-54904819D02*
X152188095Y-54952438D01*
X152188095Y-54952438D02*
X152140476Y-55000057D01*
X152140476Y-55000057D02*
X152092857Y-55095295D01*
X152092857Y-55095295D02*
X152092857Y-55238152D01*
X152092857Y-55238152D02*
X152140476Y-55333390D01*
X152140476Y-55333390D02*
X152188095Y-55381009D01*
X152188095Y-55381009D02*
X152283333Y-55428628D01*
X152283333Y-55428628D02*
X152664285Y-55428628D01*
X151140476Y-55904819D02*
X151711904Y-55904819D01*
X151426190Y-55904819D02*
X151426190Y-54904819D01*
X151426190Y-54904819D02*
X151521428Y-55047676D01*
X151521428Y-55047676D02*
X151616666Y-55142914D01*
X151616666Y-55142914D02*
X151711904Y-55190533D01*
X150569047Y-55333390D02*
X150664285Y-55285771D01*
X150664285Y-55285771D02*
X150711904Y-55238152D01*
X150711904Y-55238152D02*
X150759523Y-55142914D01*
X150759523Y-55142914D02*
X150759523Y-55095295D01*
X150759523Y-55095295D02*
X150711904Y-55000057D01*
X150711904Y-55000057D02*
X150664285Y-54952438D01*
X150664285Y-54952438D02*
X150569047Y-54904819D01*
X150569047Y-54904819D02*
X150378571Y-54904819D01*
X150378571Y-54904819D02*
X150283333Y-54952438D01*
X150283333Y-54952438D02*
X150235714Y-55000057D01*
X150235714Y-55000057D02*
X150188095Y-55095295D01*
X150188095Y-55095295D02*
X150188095Y-55142914D01*
X150188095Y-55142914D02*
X150235714Y-55238152D01*
X150235714Y-55238152D02*
X150283333Y-55285771D01*
X150283333Y-55285771D02*
X150378571Y-55333390D01*
X150378571Y-55333390D02*
X150569047Y-55333390D01*
X150569047Y-55333390D02*
X150664285Y-55381009D01*
X150664285Y-55381009D02*
X150711904Y-55428628D01*
X150711904Y-55428628D02*
X150759523Y-55523866D01*
X150759523Y-55523866D02*
X150759523Y-55714342D01*
X150759523Y-55714342D02*
X150711904Y-55809580D01*
X150711904Y-55809580D02*
X150664285Y-55857200D01*
X150664285Y-55857200D02*
X150569047Y-55904819D01*
X150569047Y-55904819D02*
X150378571Y-55904819D01*
X150378571Y-55904819D02*
X150283333Y-55857200D01*
X150283333Y-55857200D02*
X150235714Y-55809580D01*
X150235714Y-55809580D02*
X150188095Y-55714342D01*
X150188095Y-55714342D02*
X150188095Y-55523866D01*
X150188095Y-55523866D02*
X150235714Y-55428628D01*
X150235714Y-55428628D02*
X150283333Y-55381009D01*
X150283333Y-55381009D02*
X150378571Y-55333390D01*
X152292857Y-58059580D02*
X152340476Y-58107200D01*
X152340476Y-58107200D02*
X152483333Y-58154819D01*
X152483333Y-58154819D02*
X152578571Y-58154819D01*
X152578571Y-58154819D02*
X152721428Y-58107200D01*
X152721428Y-58107200D02*
X152816666Y-58011961D01*
X152816666Y-58011961D02*
X152864285Y-57916723D01*
X152864285Y-57916723D02*
X152911904Y-57726247D01*
X152911904Y-57726247D02*
X152911904Y-57583390D01*
X152911904Y-57583390D02*
X152864285Y-57392914D01*
X152864285Y-57392914D02*
X152816666Y-57297676D01*
X152816666Y-57297676D02*
X152721428Y-57202438D01*
X152721428Y-57202438D02*
X152578571Y-57154819D01*
X152578571Y-57154819D02*
X152483333Y-57154819D01*
X152483333Y-57154819D02*
X152340476Y-57202438D01*
X152340476Y-57202438D02*
X152292857Y-57250057D01*
X151340476Y-58154819D02*
X151911904Y-58154819D01*
X151626190Y-58154819D02*
X151626190Y-57154819D01*
X151626190Y-57154819D02*
X151721428Y-57297676D01*
X151721428Y-57297676D02*
X151816666Y-57392914D01*
X151816666Y-57392914D02*
X151911904Y-57440533D01*
X150483333Y-57488152D02*
X150483333Y-58154819D01*
X150721428Y-57107200D02*
X150959523Y-57821485D01*
X150959523Y-57821485D02*
X150340476Y-57821485D01*
X146261904Y-43654819D02*
X146261904Y-44464342D01*
X146261904Y-44464342D02*
X146214285Y-44559580D01*
X146214285Y-44559580D02*
X146166666Y-44607200D01*
X146166666Y-44607200D02*
X146071428Y-44654819D01*
X146071428Y-44654819D02*
X145880952Y-44654819D01*
X145880952Y-44654819D02*
X145785714Y-44607200D01*
X145785714Y-44607200D02*
X145738095Y-44559580D01*
X145738095Y-44559580D02*
X145690476Y-44464342D01*
X145690476Y-44464342D02*
X145690476Y-43654819D01*
X145309523Y-43654819D02*
X144690476Y-43654819D01*
X144690476Y-43654819D02*
X145023809Y-44035771D01*
X145023809Y-44035771D02*
X144880952Y-44035771D01*
X144880952Y-44035771D02*
X144785714Y-44083390D01*
X144785714Y-44083390D02*
X144738095Y-44131009D01*
X144738095Y-44131009D02*
X144690476Y-44226247D01*
X144690476Y-44226247D02*
X144690476Y-44464342D01*
X144690476Y-44464342D02*
X144738095Y-44559580D01*
X144738095Y-44559580D02*
X144785714Y-44607200D01*
X144785714Y-44607200D02*
X144880952Y-44654819D01*
X144880952Y-44654819D02*
X145166666Y-44654819D01*
X145166666Y-44654819D02*
X145261904Y-44607200D01*
X145261904Y-44607200D02*
X145309523Y-44559580D01*
X151354819Y-44083333D02*
X151354819Y-43607143D01*
X151354819Y-43607143D02*
X150354819Y-43607143D01*
X151354819Y-44940476D02*
X151354819Y-44369048D01*
X151354819Y-44654762D02*
X150354819Y-44654762D01*
X150354819Y-44654762D02*
X150497676Y-44559524D01*
X150497676Y-44559524D02*
X150592914Y-44464286D01*
X150592914Y-44464286D02*
X150640533Y-44369048D01*
X149833332Y-67607200D02*
X149690475Y-67654819D01*
X149690475Y-67654819D02*
X149452380Y-67654819D01*
X149452380Y-67654819D02*
X149357142Y-67607200D01*
X149357142Y-67607200D02*
X149309523Y-67559580D01*
X149309523Y-67559580D02*
X149261904Y-67464342D01*
X149261904Y-67464342D02*
X149261904Y-67369104D01*
X149261904Y-67369104D02*
X149309523Y-67273866D01*
X149309523Y-67273866D02*
X149357142Y-67226247D01*
X149357142Y-67226247D02*
X149452380Y-67178628D01*
X149452380Y-67178628D02*
X149642856Y-67131009D01*
X149642856Y-67131009D02*
X149738094Y-67083390D01*
X149738094Y-67083390D02*
X149785713Y-67035771D01*
X149785713Y-67035771D02*
X149833332Y-66940533D01*
X149833332Y-66940533D02*
X149833332Y-66845295D01*
X149833332Y-66845295D02*
X149785713Y-66750057D01*
X149785713Y-66750057D02*
X149738094Y-66702438D01*
X149738094Y-66702438D02*
X149642856Y-66654819D01*
X149642856Y-66654819D02*
X149404761Y-66654819D01*
X149404761Y-66654819D02*
X149261904Y-66702438D01*
X148928570Y-66654819D02*
X148690475Y-67654819D01*
X148690475Y-67654819D02*
X148499999Y-66940533D01*
X148499999Y-66940533D02*
X148309523Y-67654819D01*
X148309523Y-67654819D02*
X148071428Y-66654819D01*
X147166666Y-67654819D02*
X147738094Y-67654819D01*
X147452380Y-67654819D02*
X147452380Y-66654819D01*
X147452380Y-66654819D02*
X147547618Y-66797676D01*
X147547618Y-66797676D02*
X147642856Y-66892914D01*
X147642856Y-66892914D02*
X147738094Y-66940533D01*
X152242857Y-59409580D02*
X152290476Y-59457200D01*
X152290476Y-59457200D02*
X152433333Y-59504819D01*
X152433333Y-59504819D02*
X152528571Y-59504819D01*
X152528571Y-59504819D02*
X152671428Y-59457200D01*
X152671428Y-59457200D02*
X152766666Y-59361961D01*
X152766666Y-59361961D02*
X152814285Y-59266723D01*
X152814285Y-59266723D02*
X152861904Y-59076247D01*
X152861904Y-59076247D02*
X152861904Y-58933390D01*
X152861904Y-58933390D02*
X152814285Y-58742914D01*
X152814285Y-58742914D02*
X152766666Y-58647676D01*
X152766666Y-58647676D02*
X152671428Y-58552438D01*
X152671428Y-58552438D02*
X152528571Y-58504819D01*
X152528571Y-58504819D02*
X152433333Y-58504819D01*
X152433333Y-58504819D02*
X152290476Y-58552438D01*
X152290476Y-58552438D02*
X152242857Y-58600057D01*
X151290476Y-59504819D02*
X151861904Y-59504819D01*
X151576190Y-59504819D02*
X151576190Y-58504819D01*
X151576190Y-58504819D02*
X151671428Y-58647676D01*
X151671428Y-58647676D02*
X151766666Y-58742914D01*
X151766666Y-58742914D02*
X151861904Y-58790533D01*
X150957142Y-58504819D02*
X150338095Y-58504819D01*
X150338095Y-58504819D02*
X150671428Y-58885771D01*
X150671428Y-58885771D02*
X150528571Y-58885771D01*
X150528571Y-58885771D02*
X150433333Y-58933390D01*
X150433333Y-58933390D02*
X150385714Y-58981009D01*
X150385714Y-58981009D02*
X150338095Y-59076247D01*
X150338095Y-59076247D02*
X150338095Y-59314342D01*
X150338095Y-59314342D02*
X150385714Y-59409580D01*
X150385714Y-59409580D02*
X150433333Y-59457200D01*
X150433333Y-59457200D02*
X150528571Y-59504819D01*
X150528571Y-59504819D02*
X150814285Y-59504819D01*
X150814285Y-59504819D02*
X150909523Y-59457200D01*
X150909523Y-59457200D02*
X150957142Y-59409580D01*
X140759580Y-37407142D02*
X140807200Y-37359523D01*
X140807200Y-37359523D02*
X140854819Y-37216666D01*
X140854819Y-37216666D02*
X140854819Y-37121428D01*
X140854819Y-37121428D02*
X140807200Y-36978571D01*
X140807200Y-36978571D02*
X140711961Y-36883333D01*
X140711961Y-36883333D02*
X140616723Y-36835714D01*
X140616723Y-36835714D02*
X140426247Y-36788095D01*
X140426247Y-36788095D02*
X140283390Y-36788095D01*
X140283390Y-36788095D02*
X140092914Y-36835714D01*
X140092914Y-36835714D02*
X139997676Y-36883333D01*
X139997676Y-36883333D02*
X139902438Y-36978571D01*
X139902438Y-36978571D02*
X139854819Y-37121428D01*
X139854819Y-37121428D02*
X139854819Y-37216666D01*
X139854819Y-37216666D02*
X139902438Y-37359523D01*
X139902438Y-37359523D02*
X139950057Y-37407142D01*
X139950057Y-37788095D02*
X139902438Y-37835714D01*
X139902438Y-37835714D02*
X139854819Y-37930952D01*
X139854819Y-37930952D02*
X139854819Y-38169047D01*
X139854819Y-38169047D02*
X139902438Y-38264285D01*
X139902438Y-38264285D02*
X139950057Y-38311904D01*
X139950057Y-38311904D02*
X140045295Y-38359523D01*
X140045295Y-38359523D02*
X140140533Y-38359523D01*
X140140533Y-38359523D02*
X140283390Y-38311904D01*
X140283390Y-38311904D02*
X140854819Y-37740476D01*
X140854819Y-37740476D02*
X140854819Y-38359523D01*
X140188152Y-39216666D02*
X140854819Y-39216666D01*
X139807200Y-38978571D02*
X140521485Y-38740476D01*
X140521485Y-38740476D02*
X140521485Y-39359523D01*
X151554819Y-60857142D02*
X151078628Y-60523809D01*
X151554819Y-60285714D02*
X150554819Y-60285714D01*
X150554819Y-60285714D02*
X150554819Y-60666666D01*
X150554819Y-60666666D02*
X150602438Y-60761904D01*
X150602438Y-60761904D02*
X150650057Y-60809523D01*
X150650057Y-60809523D02*
X150745295Y-60857142D01*
X150745295Y-60857142D02*
X150888152Y-60857142D01*
X150888152Y-60857142D02*
X150983390Y-60809523D01*
X150983390Y-60809523D02*
X151031009Y-60761904D01*
X151031009Y-60761904D02*
X151078628Y-60666666D01*
X151078628Y-60666666D02*
X151078628Y-60285714D01*
X150650057Y-61238095D02*
X150602438Y-61285714D01*
X150602438Y-61285714D02*
X150554819Y-61380952D01*
X150554819Y-61380952D02*
X150554819Y-61619047D01*
X150554819Y-61619047D02*
X150602438Y-61714285D01*
X150602438Y-61714285D02*
X150650057Y-61761904D01*
X150650057Y-61761904D02*
X150745295Y-61809523D01*
X150745295Y-61809523D02*
X150840533Y-61809523D01*
X150840533Y-61809523D02*
X150983390Y-61761904D01*
X150983390Y-61761904D02*
X151554819Y-61190476D01*
X151554819Y-61190476D02*
X151554819Y-61809523D01*
X150650057Y-62190476D02*
X150602438Y-62238095D01*
X150602438Y-62238095D02*
X150554819Y-62333333D01*
X150554819Y-62333333D02*
X150554819Y-62571428D01*
X150554819Y-62571428D02*
X150602438Y-62666666D01*
X150602438Y-62666666D02*
X150650057Y-62714285D01*
X150650057Y-62714285D02*
X150745295Y-62761904D01*
X150745295Y-62761904D02*
X150840533Y-62761904D01*
X150840533Y-62761904D02*
X150983390Y-62714285D01*
X150983390Y-62714285D02*
X151554819Y-62142857D01*
X151554819Y-62142857D02*
X151554819Y-62761904D01*
X143659580Y-45533333D02*
X143707200Y-45485714D01*
X143707200Y-45485714D02*
X143754819Y-45342857D01*
X143754819Y-45342857D02*
X143754819Y-45247619D01*
X143754819Y-45247619D02*
X143707200Y-45104762D01*
X143707200Y-45104762D02*
X143611961Y-45009524D01*
X143611961Y-45009524D02*
X143516723Y-44961905D01*
X143516723Y-44961905D02*
X143326247Y-44914286D01*
X143326247Y-44914286D02*
X143183390Y-44914286D01*
X143183390Y-44914286D02*
X142992914Y-44961905D01*
X142992914Y-44961905D02*
X142897676Y-45009524D01*
X142897676Y-45009524D02*
X142802438Y-45104762D01*
X142802438Y-45104762D02*
X142754819Y-45247619D01*
X142754819Y-45247619D02*
X142754819Y-45342857D01*
X142754819Y-45342857D02*
X142802438Y-45485714D01*
X142802438Y-45485714D02*
X142850057Y-45533333D01*
X142754819Y-45866667D02*
X142754819Y-46533333D01*
X142754819Y-46533333D02*
X143754819Y-46104762D01*
X148833333Y-48404819D02*
X148833333Y-49119104D01*
X148833333Y-49119104D02*
X148880952Y-49261961D01*
X148880952Y-49261961D02*
X148976190Y-49357200D01*
X148976190Y-49357200D02*
X149119047Y-49404819D01*
X149119047Y-49404819D02*
X149214285Y-49404819D01*
X147880952Y-48404819D02*
X148357142Y-48404819D01*
X148357142Y-48404819D02*
X148404761Y-48881009D01*
X148404761Y-48881009D02*
X148357142Y-48833390D01*
X148357142Y-48833390D02*
X148261904Y-48785771D01*
X148261904Y-48785771D02*
X148023809Y-48785771D01*
X148023809Y-48785771D02*
X147928571Y-48833390D01*
X147928571Y-48833390D02*
X147880952Y-48881009D01*
X147880952Y-48881009D02*
X147833333Y-48976247D01*
X147833333Y-48976247D02*
X147833333Y-49214342D01*
X147833333Y-49214342D02*
X147880952Y-49309580D01*
X147880952Y-49309580D02*
X147928571Y-49357200D01*
X147928571Y-49357200D02*
X148023809Y-49404819D01*
X148023809Y-49404819D02*
X148261904Y-49404819D01*
X148261904Y-49404819D02*
X148357142Y-49357200D01*
X148357142Y-49357200D02*
X148404761Y-49309580D01*
D13*
%TO.C,J3*%
X141160000Y-27410000D02*
X141160000Y-30160000D01*
X141160000Y-30160000D02*
X142290000Y-30160000D01*
X142290000Y-27410000D02*
X143490000Y-27410000D01*
X142290000Y-30160000D02*
X142290000Y-27410000D01*
X154710000Y-27410000D02*
X153510000Y-27410000D01*
X154710000Y-30160000D02*
X154710000Y-27410000D01*
X155840000Y-27410000D02*
X155840000Y-30160000D01*
X155840000Y-30160000D02*
X154710000Y-30160000D01*
%TO.C,R10*%
X146746359Y-37820000D02*
X147053641Y-37820000D01*
X146746359Y-38580000D02*
X147053641Y-38580000D01*
%TO.C,R11*%
X144770000Y-62846359D02*
X144770000Y-63153641D01*
X145530000Y-62846359D02*
X145530000Y-63153641D01*
%TO.C,J4*%
X139990000Y-62590000D02*
X139990000Y-57710000D01*
X143110000Y-56540000D02*
X141960000Y-56540000D01*
X143110000Y-57590000D02*
X143110000Y-56540000D01*
X143110000Y-62710000D02*
X143110000Y-63760000D01*
X143110000Y-63760000D02*
X141960000Y-63760000D01*
X144100000Y-57590000D02*
X143110000Y-57590000D01*
%TO.C,U6*%
X142690000Y-37762500D02*
X142690000Y-38562500D01*
X142690000Y-39362500D02*
X142690000Y-38562500D01*
X145810000Y-37762500D02*
X145810000Y-38562500D01*
X145810000Y-39362500D02*
X145810000Y-38562500D01*
X142740000Y-37262500D02*
X142410000Y-37502500D01*
X142410000Y-37022500D01*
X142740000Y-37262500D01*
G36*
X142740000Y-37262500D02*
G01*
X142410000Y-37502500D01*
X142410000Y-37022500D01*
X142740000Y-37262500D01*
G37*
D10*
%TO.C,D3*%
X151050000Y-33340000D02*
G75*
G02*
X150950000Y-33340000I-50000J0D01*
G01*
X150950000Y-33340000D02*
G75*
G02*
X151050000Y-33340000I50000J0D01*
G01*
D13*
%TO.C,R7*%
X154553641Y-54320000D02*
X154246359Y-54320000D01*
X154553641Y-55080000D02*
X154246359Y-55080000D01*
%TO.C,C22*%
X149640000Y-57057836D02*
X149640000Y-56842164D01*
X150360000Y-57057836D02*
X150360000Y-56842164D01*
%TO.C,R15*%
X141653641Y-40820000D02*
X141346359Y-40820000D01*
X141653641Y-41580000D02*
X141346359Y-41580000D01*
%TO.C,C16*%
X147340000Y-61242164D02*
X147340000Y-61457836D01*
X148060000Y-61242164D02*
X148060000Y-61457836D01*
%TO.C,R8*%
X144770000Y-65053641D02*
X144770000Y-64746359D01*
X145530000Y-65053641D02*
X145530000Y-64746359D01*
%TO.C,R21*%
X155603641Y-37070000D02*
X155296359Y-37070000D01*
X155603641Y-37830000D02*
X155296359Y-37830000D01*
%TO.C,C4*%
X154140580Y-42440000D02*
X153859420Y-42440000D01*
X154140580Y-43460000D02*
X153859420Y-43460000D01*
%TO.C,F1*%
X148887221Y-36140000D02*
X149212779Y-36140000D01*
X148887221Y-37160000D02*
X149212779Y-37160000D01*
%TO.C,D11*%
X153015000Y-59915000D02*
X153015000Y-61385000D01*
X153015000Y-61385000D02*
X155300000Y-61385000D01*
X155300000Y-59915000D02*
X153015000Y-59915000D01*
%TO.C,R5*%
X154353641Y-61570000D02*
X154046359Y-61570000D01*
X154353641Y-62330000D02*
X154046359Y-62330000D01*
%TO.C,R1*%
X154353641Y-63470000D02*
X154046359Y-63470000D01*
X154353641Y-64230000D02*
X154046359Y-64230000D01*
D10*
%TO.C,D2*%
X149550000Y-33340000D02*
G75*
G02*
X149450000Y-33340000I-50000J0D01*
G01*
X149450000Y-33340000D02*
G75*
G02*
X149550000Y-33340000I50000J0D01*
G01*
D13*
%TO.C,R19*%
X148320000Y-61953641D02*
X148320000Y-61646359D01*
X149080000Y-61953641D02*
X149080000Y-61646359D01*
D10*
%TO.C,D8*%
X147600000Y-33340000D02*
G75*
G02*
X147500000Y-33340000I-50000J0D01*
G01*
X147500000Y-33340000D02*
G75*
G02*
X147600000Y-33340000I50000J0D01*
G01*
D13*
%TO.C,R9*%
X140220000Y-35253641D02*
X140220000Y-34946359D01*
X140980000Y-35253641D02*
X140980000Y-34946359D01*
%TO.C,C17*%
X146407836Y-59190000D02*
X146192164Y-59190000D01*
X146407836Y-59910000D02*
X146192164Y-59910000D01*
%TO.C,C15*%
X146407836Y-58190000D02*
X146192164Y-58190000D01*
X146407836Y-58910000D02*
X146192164Y-58910000D01*
%TO.C,D12*%
X153015000Y-55415000D02*
X153015000Y-56885000D01*
X153015000Y-56885000D02*
X155300000Y-56885000D01*
X155300000Y-55415000D02*
X153015000Y-55415000D01*
%TO.C,U2*%
X151140000Y-37800000D02*
X151140000Y-38600000D01*
X151140000Y-39400000D02*
X151140000Y-38600000D01*
X154260000Y-37800000D02*
X154260000Y-38600000D01*
X154260000Y-39400000D02*
X154260000Y-38600000D01*
X154540000Y-40140000D02*
X154210000Y-39900000D01*
X154540000Y-39660000D01*
X154540000Y-40140000D01*
G36*
X154540000Y-40140000D02*
G01*
X154210000Y-39900000D01*
X154540000Y-39660000D01*
X154540000Y-40140000D01*
G37*
%TO.C,C3*%
X152690580Y-34940000D02*
X152409420Y-34940000D01*
X152690580Y-35960000D02*
X152409420Y-35960000D01*
%TO.C,R20*%
X144620000Y-32096359D02*
X144620000Y-32403641D01*
X145380000Y-32096359D02*
X145380000Y-32403641D01*
%TO.C,R25*%
X148646359Y-37820000D02*
X148953641Y-37820000D01*
X148646359Y-38580000D02*
X148953641Y-38580000D01*
%TO.C,C18*%
X147740000Y-57057836D02*
X147740000Y-56842164D01*
X148460000Y-57057836D02*
X148460000Y-56842164D01*
%TO.C,C20*%
X148690000Y-57057836D02*
X148690000Y-56842164D01*
X149410000Y-57057836D02*
X149410000Y-56842164D01*
%TO.C,C6*%
X148790000Y-40109420D02*
X148790000Y-40390580D01*
X149810000Y-40109420D02*
X149810000Y-40390580D01*
%TO.C,L2*%
X147290000Y-41975279D02*
X147290000Y-41649721D01*
X148310000Y-41975279D02*
X148310000Y-41649721D01*
%TO.C,R14*%
X141346359Y-42220000D02*
X141653641Y-42220000D01*
X141346359Y-42980000D02*
X141653641Y-42980000D01*
D10*
%TO.C,D9*%
X146300000Y-33340000D02*
G75*
G02*
X146200000Y-33340000I-50000J0D01*
G01*
X146200000Y-33340000D02*
G75*
G02*
X146300000Y-33340000I50000J0D01*
G01*
D13*
%TO.C,Q3*%
X141250000Y-30590000D02*
X141900000Y-30590000D01*
X141250000Y-33710000D02*
X141900000Y-33710000D01*
X142550000Y-30590000D02*
X141900000Y-30590000D01*
X142550000Y-33710000D02*
X141900000Y-33710000D01*
X140977500Y-33990000D02*
X140497500Y-33990000D01*
X140737500Y-33660000D01*
X140977500Y-33990000D01*
G36*
X140977500Y-33990000D02*
G01*
X140497500Y-33990000D01*
X140737500Y-33660000D01*
X140977500Y-33990000D01*
G37*
%TO.C,C25*%
X152040000Y-65707836D02*
X152040000Y-65492164D01*
X152760000Y-65707836D02*
X152760000Y-65492164D01*
%TO.C,R18*%
X151553641Y-56070000D02*
X151246359Y-56070000D01*
X151553641Y-56830000D02*
X151246359Y-56830000D01*
%TO.C,C14*%
X154007836Y-57140000D02*
X153792164Y-57140000D01*
X154007836Y-57860000D02*
X153792164Y-57860000D01*
%TO.C,U3*%
X144920000Y-41820000D02*
X144920000Y-43380000D01*
X144920000Y-43380000D02*
X146080000Y-43380000D01*
X145800000Y-41820000D02*
X144920000Y-41820000D01*
D10*
X146000000Y-41500000D02*
X146000000Y-41900000D01*
X146000000Y-41900000D02*
X146400000Y-41900000D01*
D13*
X146080000Y-43380000D02*
X146080000Y-42100000D01*
D10*
X146400000Y-41900000D02*
X146000000Y-41500000D01*
X146400000Y-41900000D02*
X146000000Y-41900000D01*
X146000000Y-41500000D01*
X146400000Y-41900000D01*
G36*
X146400000Y-41900000D02*
G01*
X146000000Y-41900000D01*
X146000000Y-41500000D01*
X146400000Y-41900000D01*
G37*
D13*
%TO.C,D10*%
X153015000Y-64415000D02*
X153015000Y-65885000D01*
X153015000Y-65885000D02*
X155300000Y-65885000D01*
X155300000Y-64415000D02*
X153015000Y-64415000D01*
%TO.C,L1*%
X150390000Y-42312779D02*
X150390000Y-41987221D01*
X151410000Y-42312779D02*
X151410000Y-41987221D01*
%TO.C,C19*%
X146407836Y-60190000D02*
X146192164Y-60190000D01*
X146407836Y-60910000D02*
X146192164Y-60910000D01*
%TO.C,SW1*%
X146300000Y-62950000D02*
X146300000Y-63070000D01*
X146300000Y-64080000D02*
X146300000Y-65220000D01*
X146300000Y-66230000D02*
X146300000Y-66350000D01*
X146300000Y-66350000D02*
X150700000Y-66350000D01*
X150700000Y-62950000D02*
X146300000Y-62950000D01*
X150700000Y-63070000D02*
X150700000Y-62950000D01*
X150700000Y-65220000D02*
X150700000Y-64080000D01*
X150700000Y-66350000D02*
X150700000Y-66230000D01*
%TO.C,C13*%
X154007836Y-58090000D02*
X153792164Y-58090000D01*
X154007836Y-58810000D02*
X153792164Y-58810000D01*
%TO.C,C24*%
X141090000Y-38340580D02*
X141090000Y-38059420D01*
X142110000Y-38340580D02*
X142110000Y-38059420D01*
%TO.C,R22*%
X151970000Y-61653641D02*
X151970000Y-61346359D01*
X152730000Y-61653641D02*
X152730000Y-61346359D01*
%TO.C,C7*%
X142780000Y-43515580D02*
X142780000Y-43234420D01*
X143800000Y-43515580D02*
X143800000Y-43234420D01*
%TO.C,J5*%
X144230000Y-51030000D02*
X144230000Y-50130000D01*
X144230000Y-53270000D02*
X144230000Y-54170000D01*
X145030000Y-50130000D02*
X144230000Y-50130000D01*
X145030000Y-54170000D02*
X144230000Y-54170000D01*
X151970000Y-50130000D02*
X152770000Y-50130000D01*
X151970000Y-54170000D02*
X152770000Y-54170000D01*
X152420000Y-49980000D02*
X152920000Y-49980000D01*
X152770000Y-51030000D02*
X152770000Y-50130000D01*
X152770000Y-53270000D02*
X152770000Y-54170000D01*
X152920000Y-50480000D02*
X152920000Y-49980000D01*
%TD*%
M02*
