M48
; DRILL file {KiCad 8.0.1} date 2025-06-23T19:48:17+1200
; FORMAT={-:-/ absolute / inch / decimal}
; #@! TF.CreationDate,2025-06-23T19:48:17+12:00
; #@! TF.GenerationSoftware,Kicad,Pcbnew,8.0.1
; #@! TF.FileFunction,Plated,1,4,PTH
FMAT,2
INCH
; #@! TA.AperFunction,Plated,PTH,ViaDrill
T1C0.0118
; #@! TA.AperFunction,Plated,PTH,ComponentDrill
T2C0.0118
; #@! TA.AperFunction,Plated,PTH,ComponentDrill
T3C0.0276
; #@! TA.AperFunction,Plated,PTH,ComponentDrill
T4C0.0315
%
G90
G05
T1
X5.5238Y-2.3617
X5.5276Y-2.6043
X5.5315Y-1.1083
X5.5315Y-1.1673
X5.5335Y-1.2657
X5.5413Y-1.4744
X5.5721Y-2.125
X5.5827Y-2.1752
X5.5879Y-1.9778
X5.5906Y-1.7165
X5.5906Y-1.7579
X5.6083Y-1.3642
X5.6142Y-2.6417
X5.6161Y-2.6752
X5.6181Y-1.5217
X5.6201Y-2.6102
X5.6299Y-2.1713
X5.6299Y-1.1831
X5.6536Y-2.1476
X5.6634Y-2.5157
X5.6693Y-1.2067
X5.6732Y-1.25
X5.6732Y-1.2972
X5.6823Y-2.611
X5.685Y-2.3209
X5.6898Y-2.676
X5.6929Y-2.4272
X5.6969Y-1.3819
X5.6969Y-2.2854
X5.7087Y-1.2185
X5.7177Y-2.3945
X5.7185Y-1.622
X5.7295Y-2.676
X5.7362Y-1.748
X5.7421Y-1.2106
X5.7421Y-1.3307
X5.7598Y-2.5374
X5.7598Y-2.6299
X5.7598Y-2.6614
X5.7618Y-1.3602
X5.7736Y-1.2106
X5.7992Y-2.0531
X5.8031Y-1.4783
X5.8071Y-2.1791
X5.8071Y-2.2894
X5.8071Y-2.3287
X5.8071Y-2.3681
X5.811Y-2.4587
X5.815Y-1.8661
X5.8169Y-1.5472
X5.8268Y-2.124
X5.8268Y-2.4862
X5.8307Y-1.9823
X5.8366Y-1.376
X5.8465Y-2.2894
X5.8465Y-2.3287
X5.8465Y-2.3681
X5.8465Y-2.5118
X5.8524Y-1.25
X5.8622Y-2.124
X5.874Y-1.376
X5.876Y-2.1732
X5.878Y-2.5118
X5.8858Y-1.9823
X5.8858Y-2.2894
X5.8858Y-2.3287
X5.8858Y-2.3681
X5.8976Y-2.0531
X5.8976Y-2.6516
X5.9035Y-2.4685
X5.9055Y-2.1988
X5.9291Y-2.4469
X5.9409Y-2.5413
X5.9449Y-1.3189
X5.9528Y-2.0531
X5.9646Y-2.4488
X5.9862Y-1.6457
X6.0Y-2.3583
X6.0059Y-1.3327
X6.0079Y-2.2224
X6.0118Y-1.4567
X6.0236Y-2.1654
X6.0472Y-1.8445
X6.0531Y-1.7657
X6.0591Y-2.3307
X6.0669Y-2.624
X6.0748Y-1.2657
X6.0748Y-1.313
X6.1043Y-2.1083
X6.1102Y-2.6004
X6.1122Y-2.2539
X6.122Y-1.9764
X6.126Y-1.8602
X6.126Y-2.1772
X6.128Y-2.435
X6.1299Y-2.4744
X6.1339Y-1.3957
X6.1417Y-1.1929
X6.1417Y-1.3425
X6.1496Y-2.6673
X6.1614Y-1.1083
X6.1614Y-1.1673
X6.1673Y-1.2657
T2
X5.565Y-2.6781
T3
X5.752Y-1.9685
X5.752Y-2.1378
X5.9409Y-1.9685
X5.9409Y-2.1378
T4
X5.748Y-1.8091
X5.9449Y-1.8091
M30
