%TF.GenerationSoftware,KiCad,Pcbnew,8.0.1*%
%TF.CreationDate,2025-06-23T19:48:13+12:00*%
%TF.ProjectId,panelrev2,70616e65-6c72-4657-9632-2e6b69636164,rev?*%
%TF.SameCoordinates,Original*%
%TF.FileFunction,Copper,L1,Top*%
%TF.FilePolarity,Positive*%
%FSLAX46Y46*%
G04 Gerber Fmt 4.6, Leading zero omitted, Abs format (unit mm)*
G04 Created by KiCad (PCBNEW 8.0.1) date 2025-06-23 19:48:13*
%MOMM*%
%LPD*%
G01*
G04 APERTURE LIST*
G04 Aperture macros list*
%AMRoundRect*
0 Rectangle with rounded corners*
0 $1 Rounding radius*
0 $2 $3 $4 $5 $6 $7 $8 $9 X,Y pos of 4 corners*
0 Add a 4 corners polygon primitive as box body*
4,1,4,$2,$3,$4,$5,$6,$7,$8,$9,$2,$3,0*
0 Add four circle primitives for the rounded corners*
1,1,$1+$1,$2,$3*
1,1,$1+$1,$4,$5*
1,1,$1+$1,$6,$7*
1,1,$1+$1,$8,$9*
0 Add four rect primitives between the rounded corners*
20,1,$1+$1,$2,$3,$4,$5,0*
20,1,$1+$1,$4,$5,$6,$7,0*
20,1,$1+$1,$6,$7,$8,$9,0*
20,1,$1+$1,$8,$9,$2,$3,0*%
G04 Aperture macros list end*
%TA.AperFunction,EtchedComponent*%
%ADD10C,0.000000*%
%TD*%
%TA.AperFunction,SMDPad,CuDef*%
%ADD11R,1.000000X1.150000*%
%TD*%
%TA.AperFunction,SMDPad,CuDef*%
%ADD12RoundRect,0.147500X0.172500X-0.147500X0.172500X0.147500X-0.172500X0.147500X-0.172500X-0.147500X0*%
%TD*%
%TA.AperFunction,SMDPad,CuDef*%
%ADD13RoundRect,0.135000X0.135000X0.185000X-0.135000X0.185000X-0.135000X-0.185000X0.135000X-0.185000X0*%
%TD*%
%TA.AperFunction,ConnectorPad*%
%ADD14R,0.500000X0.500000*%
%TD*%
%TA.AperFunction,ComponentPad*%
%ADD15R,0.900000X0.500000*%
%TD*%
%TA.AperFunction,SMDPad,CuDef*%
%ADD16RoundRect,0.135000X-0.135000X-0.185000X0.135000X-0.185000X0.135000X0.185000X-0.135000X0.185000X0*%
%TD*%
%TA.AperFunction,ComponentPad*%
%ADD17C,1.600000*%
%TD*%
%TA.AperFunction,SMDPad,CuDef*%
%ADD18R,1.200000X1.200000*%
%TD*%
%TA.AperFunction,SMDPad,CuDef*%
%ADD19R,1.500000X1.600000*%
%TD*%
%TA.AperFunction,SMDPad,CuDef*%
%ADD20RoundRect,0.140000X0.140000X0.170000X-0.140000X0.170000X-0.140000X-0.170000X0.140000X-0.170000X0*%
%TD*%
%TA.AperFunction,SMDPad,CuDef*%
%ADD21RoundRect,0.062500X0.062500X-0.337500X0.062500X0.337500X-0.062500X0.337500X-0.062500X-0.337500X0*%
%TD*%
%TA.AperFunction,SMDPad,CuDef*%
%ADD22RoundRect,0.062500X0.337500X-0.062500X0.337500X0.062500X-0.337500X0.062500X-0.337500X-0.062500X0*%
%TD*%
%TA.AperFunction,HeatsinkPad*%
%ADD23R,3.700000X3.700000*%
%TD*%
%TA.AperFunction,SMDPad,CuDef*%
%ADD24RoundRect,0.075000X-0.070711X0.176777X-0.176777X0.070711X0.070711X-0.176777X0.176777X-0.070711X0*%
%TD*%
%TA.AperFunction,SMDPad,CuDef*%
%ADD25RoundRect,0.140000X-0.170000X0.140000X-0.170000X-0.140000X0.170000X-0.140000X0.170000X0.140000X0*%
%TD*%
%TA.AperFunction,SMDPad,CuDef*%
%ADD26RoundRect,0.140000X-0.140000X-0.170000X0.140000X-0.170000X0.140000X0.170000X-0.140000X0.170000X0*%
%TD*%
%TA.AperFunction,SMDPad,CuDef*%
%ADD27RoundRect,0.250000X0.250000X0.475000X-0.250000X0.475000X-0.250000X-0.475000X0.250000X-0.475000X0*%
%TD*%
%TA.AperFunction,SMDPad,CuDef*%
%ADD28RoundRect,0.147500X0.147500X0.172500X-0.147500X0.172500X-0.147500X-0.172500X0.147500X-0.172500X0*%
%TD*%
%TA.AperFunction,SMDPad,CuDef*%
%ADD29RoundRect,0.150000X-0.825000X-0.150000X0.825000X-0.150000X0.825000X0.150000X-0.825000X0.150000X0*%
%TD*%
%TA.AperFunction,SMDPad,CuDef*%
%ADD30R,0.500000X2.800000*%
%TD*%
%TA.AperFunction,SMDPad,CuDef*%
%ADD31R,0.600000X2.600000*%
%TD*%
%TA.AperFunction,SMDPad,CuDef*%
%ADD32R,1.000000X1.000000*%
%TD*%
%TA.AperFunction,SMDPad,CuDef*%
%ADD33R,1.000000X3.550000*%
%TD*%
%TA.AperFunction,SMDPad,CuDef*%
%ADD34R,1.000000X3.800000*%
%TD*%
%TA.AperFunction,SMDPad,CuDef*%
%ADD35R,3.550000X1.000000*%
%TD*%
%TA.AperFunction,SMDPad,CuDef*%
%ADD36R,3.800000X1.000000*%
%TD*%
%TA.AperFunction,SMDPad,CuDef*%
%ADD37RoundRect,0.140000X0.170000X-0.140000X0.170000X0.140000X-0.170000X0.140000X-0.170000X-0.140000X0*%
%TD*%
%TA.AperFunction,SMDPad,CuDef*%
%ADD38RoundRect,0.147500X-0.147500X-0.172500X0.147500X-0.172500X0.147500X0.172500X-0.147500X0.172500X0*%
%TD*%
%TA.AperFunction,SMDPad,CuDef*%
%ADD39R,0.350000X0.375000*%
%TD*%
%TA.AperFunction,SMDPad,CuDef*%
%ADD40R,0.375000X0.350000*%
%TD*%
%TA.AperFunction,SMDPad,CuDef*%
%ADD41RoundRect,0.135000X0.185000X-0.135000X0.185000X0.135000X-0.185000X0.135000X-0.185000X-0.135000X0*%
%TD*%
%TA.AperFunction,SMDPad,CuDef*%
%ADD42RoundRect,0.075000X0.070711X-0.176777X0.176777X-0.070711X-0.070711X0.176777X-0.176777X0.070711X0*%
%TD*%
%TA.AperFunction,ComponentPad*%
%ADD43C,1.100000*%
%TD*%
%TA.AperFunction,ViaPad*%
%ADD44C,0.600000*%
%TD*%
%TA.AperFunction,Conductor*%
%ADD45C,0.200000*%
%TD*%
%TA.AperFunction,Conductor*%
%ADD46C,0.350000*%
%TD*%
%TA.AperFunction,Conductor*%
%ADD47C,0.300000*%
%TD*%
%TA.AperFunction,Conductor*%
%ADD48C,0.900000*%
%TD*%
G04 APERTURE END LIST*
D10*
%TA.AperFunction,EtchedComponent*%
%TO.C,AE1*%
G36*
X141800000Y-72675000D02*
G01*
X143200000Y-72675000D01*
X143200000Y-67775000D01*
X143700000Y-67775000D01*
X143700000Y-72675000D01*
X145400000Y-72675000D01*
X145400000Y-70035000D01*
X148400000Y-70035000D01*
X148400000Y-72675000D01*
X150100000Y-72675000D01*
X150100000Y-70035000D01*
X153100000Y-70035000D01*
X153100000Y-72675000D01*
X154800000Y-72675000D01*
X154800000Y-68735000D01*
X155300000Y-68735000D01*
X155300000Y-73175000D01*
X152600000Y-73175000D01*
X152600000Y-70535000D01*
X150600000Y-70535000D01*
X150600000Y-73175000D01*
X147900000Y-73175000D01*
X147900000Y-70535000D01*
X145900000Y-70535000D01*
X145900000Y-73175000D01*
X140900000Y-73175000D01*
X140900000Y-68018215D01*
X141202417Y-68018215D01*
X141207153Y-68066622D01*
X141226815Y-68111416D01*
X141261755Y-68148186D01*
X141294647Y-68165092D01*
X141342733Y-68172982D01*
X141392318Y-68166408D01*
X141437628Y-68146313D01*
X141472888Y-68113643D01*
X141489782Y-68081417D01*
X141498222Y-68033158D01*
X141491691Y-67983632D01*
X141471132Y-67938447D01*
X141437489Y-67903213D01*
X141418878Y-67892600D01*
X141373363Y-67879700D01*
X141324844Y-67878957D01*
X141282181Y-67891065D01*
X141274269Y-67895419D01*
X141236326Y-67928203D01*
X141212258Y-67970605D01*
X141202417Y-68018215D01*
X140900000Y-68018215D01*
X140900000Y-67775000D01*
X141800000Y-67775000D01*
X141800000Y-72675000D01*
G37*
%TD.AperFunction*%
%TD*%
D11*
%TO.P,Y1,1,1*%
%TO.N,Board_0-Net-(U5-XTAL_N)*%
X142000000Y-58775000D03*
%TO.P,Y1,2,2*%
%TO.N,Board_0-GND*%
X142000000Y-60525000D03*
%TO.P,Y1,3,3*%
%TO.N,Board_0-Net-(U5-XTAL_P)*%
X143400000Y-60525000D03*
%TO.P,Y1,4,4*%
%TO.N,Board_0-GND*%
X143400000Y-58775000D03*
%TD*%
D12*
%TO.P,D6,1,K*%
%TO.N,Board_0-VBUS*%
X151000000Y-32735000D03*
%TO.P,D6,2,A*%
%TO.N,Board_0-D2-*%
X151000000Y-31765000D03*
%TD*%
D13*
%TO.P,R23,1*%
%TO.N,Board_0-User_LED3*%
X156010000Y-33350000D03*
%TO.P,R23,2*%
%TO.N,Board_0-Net-(J3-SCL)*%
X154990000Y-33350000D03*
%TD*%
D14*
%TO.P,AE1,1,FEED*%
%TO.N,Board_0-Net-(AE1-FEED)*%
X143450000Y-68025000D03*
D15*
%TO.P,AE1,2,PCB_Trace*%
%TO.N,Board_0-GND*%
X141350000Y-68025000D03*
%TD*%
D13*
%TO.P,R24,1*%
%TO.N,Board_0-ACC_INT1*%
X156010000Y-32150000D03*
%TO.P,R24,2*%
%TO.N,Board_0-Net-(J3-SDA)*%
X154990000Y-32150000D03*
%TD*%
D16*
%TO.P,R13,1*%
%TO.N,Board_0-Net-(J5-CC1)*%
X149490000Y-51150000D03*
%TO.P,R13,2*%
%TO.N,Board_0-GND*%
X150510000Y-51150000D03*
%TD*%
D12*
%TO.P,D4,1,K*%
%TO.N,Board_0-VBUS*%
X149500000Y-32735000D03*
%TO.P,D4,2,A*%
%TO.N,Board_0-D0+*%
X149500000Y-31765000D03*
%TD*%
D17*
%TO.P,C5,1*%
%TO.N,Board_0-Cap_V+*%
X151000000Y-45950000D03*
%TO.P,C5,2*%
%TO.N,Board_0-GND*%
X146000000Y-45950000D03*
%TD*%
D13*
%TO.P,R3,1*%
%TO.N,Board_0-Net-(U1B-+)*%
X149710000Y-41300000D03*
%TO.P,R3,2*%
%TO.N,Board_0-Net-(D8-K)*%
X148690000Y-41300000D03*
%TD*%
D18*
%TO.P,RV2,1,1*%
%TO.N,Board_0-Net-(R16-Pad2)*%
X140450000Y-39600000D03*
D19*
%TO.P,RV2,2,2*%
%TO.N,Board_0-Net-(U1A-+)*%
X143700000Y-40600000D03*
D18*
%TO.P,RV2,3,3*%
%TO.N,Board_0-Net-(R17-Pad1)*%
X140450000Y-41600000D03*
%TD*%
D20*
%TO.P,C12,1*%
%TO.N,Board_0-Net-(U5-XTAL_P)*%
X143180000Y-61850000D03*
%TO.P,C12,2*%
%TO.N,Board_0-GND*%
X142220000Y-61850000D03*
%TD*%
D21*
%TO.P,U5,1,LNA_IN*%
%TO.N,Board_0-Net-(U5-LNA_IN)*%
X146750000Y-61520000D03*
%TO.P,U5,2,VDD3P3*%
%TO.N,Board_0-Net-(U5-VDD3P3)*%
X147250000Y-61520000D03*
%TO.P,U5,3,VDD3P3__1*%
X147750000Y-61520000D03*
%TO.P,U5,4,XTAL_32K_P*%
%TO.N,Board_0-Cap_V+*%
X148250000Y-61520000D03*
%TO.P,U5,5,XTAL_32K_N*%
%TO.N,Board_0-User_SW1*%
X148750000Y-61520000D03*
%TO.P,U5,6,GPIO2*%
%TO.N,Board_0-GPIO2*%
X149250000Y-61520000D03*
%TO.P,U5,7,CHIP_EN*%
%TO.N,Board_0-Net-(U5-CHIP_EN)*%
X149750000Y-61520000D03*
%TO.P,U5,8,GPIO3*%
%TO.N,Board_0-User_LED3*%
X150250000Y-61520000D03*
D22*
%TO.P,U5,9,MTMS*%
%TO.N,Board_0-ACC_INT1*%
X150950000Y-60820000D03*
%TO.P,U5,10,MTDI*%
%TO.N,Board_0-ACC_INT2*%
X150950000Y-60320000D03*
%TO.P,U5,11,VDD3P3_RTC*%
%TO.N,Board_0-+3V3*%
X150950000Y-59820000D03*
%TO.P,U5,12,MTCK*%
%TO.N,Board_0-ACC_MOSI*%
X150950000Y-59320000D03*
%TO.P,U5,13,MTDO*%
%TO.N,Board_0-ACC_MISO*%
X150950000Y-58820000D03*
%TO.P,U5,14,GPIO8*%
%TO.N,Board_0-GPIO8*%
X150950000Y-58320000D03*
%TO.P,U5,15,GPIO9*%
%TO.N,Board_0-GPIO9*%
X150950000Y-57820000D03*
%TO.P,U5,16,GPIO10*%
%TO.N,Board_0-ACC_SCK*%
X150950000Y-57320000D03*
D21*
%TO.P,U5,17,VDD3P3_CPU*%
%TO.N,Board_0-+3V3*%
X150250000Y-56620000D03*
%TO.P,U5,18,VDD_SPI*%
X149750000Y-56620000D03*
%TO.P,U5,19,SPIHD*%
%TO.N,Board_0-unconnected-(U5-SPIHD-Pad19)*%
X149250000Y-56620000D03*
%TO.P,U5,20,SPIWP*%
%TO.N,Board_0-unconnected-(U5-SPIWP-Pad20)*%
X148750000Y-56620000D03*
%TO.P,U5,21,SPICS0*%
%TO.N,Board_0-unconnected-(U5-SPICS0-Pad21)*%
X148250000Y-56620000D03*
%TO.P,U5,22,SPICLK*%
%TO.N,Board_0-unconnected-(U5-SPICLK-Pad22)*%
X147750000Y-56620000D03*
%TO.P,U5,23,SPID*%
%TO.N,Board_0-unconnected-(U5-SPID-Pad23)*%
X147250000Y-56620000D03*
%TO.P,U5,24,SPIQ*%
%TO.N,Board_0-unconnected-(U5-SPIQ-Pad24)*%
X146750000Y-56620000D03*
D22*
%TO.P,U5,25,GPIO18*%
%TO.N,Board_0-A_D-*%
X146050000Y-57320000D03*
%TO.P,U5,26,GPIO19*%
%TO.N,Board_0-A_D+*%
X146050000Y-57820000D03*
%TO.P,U5,27,U0RXD*%
%TO.N,Board_0-RXD*%
X146050000Y-58320000D03*
%TO.P,U5,28,U0TXD*%
%TO.N,Board_0-TXD*%
X146050000Y-58820000D03*
%TO.P,U5,29,XTAL_N*%
%TO.N,Board_0-Net-(U5-XTAL_N)*%
X146050000Y-59320000D03*
%TO.P,U5,30,XTAL_P*%
%TO.N,Board_0-Net-(U5-XTAL_P)*%
X146050000Y-59820000D03*
%TO.P,U5,31,VDDA*%
%TO.N,Board_0-+3V3*%
X146050000Y-60320000D03*
%TO.P,U5,32,VDDA__1*%
X146050000Y-60820000D03*
D23*
%TO.P,U5,33,GND*%
%TO.N,Board_0-GND*%
X148500000Y-59070000D03*
%TD*%
D18*
%TO.P,RV1,1,1*%
%TO.N,Board_0-Net-(U1B--)*%
X156550000Y-41600000D03*
D19*
%TO.P,RV1,2,2*%
%TO.N,Board_0-Net-(R2-Pad2)*%
X153300000Y-40600000D03*
D18*
%TO.P,RV1,3,3*%
%TO.N,Board_0-unconnected-(RV1-Pad3)*%
X156550000Y-39600000D03*
%TD*%
D12*
%TO.P,D5,1,K*%
%TO.N,Board_0-VBUS*%
X148000000Y-32735000D03*
%TO.P,D5,2,A*%
%TO.N,Board_0-D0-*%
X148000000Y-31765000D03*
%TD*%
D20*
%TO.P,C11,1*%
%TO.N,Board_0-GND*%
X143180000Y-57450000D03*
%TO.P,C11,2*%
%TO.N,Board_0-Net-(U5-XTAL_N)*%
X142220000Y-57450000D03*
%TD*%
D24*
%TO.P,D15,1,A1*%
%TO.N,Board_0-GND*%
X144737437Y-54812563D03*
%TO.P,D15,2,A2*%
%TO.N,Board_0-A_D-*%
X144242463Y-55307537D03*
%TD*%
D16*
%TO.P,R2,1*%
%TO.N,Board_0-D0-*%
X148690000Y-42500000D03*
%TO.P,R2,2*%
%TO.N,Board_0-Net-(R2-Pad2)*%
X149710000Y-42500000D03*
%TD*%
%TO.P,R4,1*%
%TO.N,Board_0-Net-(U1B-+)*%
X150590000Y-41300000D03*
%TO.P,R4,2*%
%TO.N,Board_0-GND*%
X151610000Y-41300000D03*
%TD*%
D25*
%TO.P,C9,1*%
%TO.N,Board_0-GND*%
X153500000Y-34770000D03*
%TO.P,C9,2*%
%TO.N,Board_0-Net-(D9-K)*%
X153500000Y-35730000D03*
%TD*%
D26*
%TO.P,C21,1*%
%TO.N,Board_0-Net-(U5-LNA_IN)*%
X145520000Y-66150000D03*
%TO.P,C21,2*%
%TO.N,Board_0-GND*%
X146480000Y-66150000D03*
%TD*%
D27*
%TO.P,C10,1*%
%TO.N,Board_0-GND*%
X142450000Y-33350000D03*
%TO.P,C10,2*%
%TO.N,Board_0-VDD*%
X140550000Y-33350000D03*
%TD*%
D28*
%TO.P,L4,1*%
%TO.N,Board_0-Net-(U5-LNA_IN)*%
X145485000Y-67150000D03*
%TO.P,L4,2*%
%TO.N,Board_0-Net-(AE1-FEED)*%
X144515000Y-67150000D03*
%TD*%
D29*
%TO.P,U1,1*%
%TO.N,Board_0-lin_reg*%
X146025000Y-35745000D03*
%TO.P,U1,2,-*%
%TO.N,Board_0-Net-(U1A--)*%
X146025000Y-37015000D03*
%TO.P,U1,3,+*%
%TO.N,Board_0-Net-(U1A-+)*%
X146025000Y-38285000D03*
%TO.P,U1,4,V-*%
%TO.N,Board_0-GND*%
X146025000Y-39555000D03*
%TO.P,U1,5,+*%
%TO.N,Board_0-Net-(U1B-+)*%
X150975000Y-39555000D03*
%TO.P,U1,6,-*%
%TO.N,Board_0-Net-(U1B--)*%
X150975000Y-38285000D03*
%TO.P,U1,7*%
%TO.N,Board_0-Net-(U2-VOUT)*%
X150975000Y-37015000D03*
%TO.P,U1,8,V+*%
%TO.N,Board_0-Net-(D9-K)*%
X150975000Y-35745000D03*
%TD*%
D16*
%TO.P,R17,1*%
%TO.N,Board_0-Net-(R17-Pad1)*%
X145190000Y-42500000D03*
%TO.P,R17,2*%
%TO.N,Board_0-GND*%
X146210000Y-42500000D03*
%TD*%
D27*
%TO.P,C8,1*%
%TO.N,Board_0-GND*%
X142450000Y-35850000D03*
%TO.P,C8,2*%
%TO.N,Board_0-VDD*%
X140550000Y-35850000D03*
%TD*%
D30*
%TO.P,J3,1,D2+*%
%TO.N,Board_0-D2+*%
X153000000Y-28700000D03*
%TO.P,J3,3,D2-*%
%TO.N,Board_0-D2-*%
X152000000Y-28700000D03*
%TO.P,J3,5,D1S*%
%TO.N,Board_0-unconnected-(J3-D1S-Pad5)*%
X151000000Y-28700000D03*
%TO.P,J3,7,D0+*%
%TO.N,Board_0-D0+*%
X150000000Y-28700000D03*
%TO.P,J3,9,D0-*%
%TO.N,Board_0-D0-*%
X149000000Y-28700000D03*
%TO.P,J3,11,CKS*%
%TO.N,Board_0-unconnected-(J3-CKS-Pad11)*%
X148000000Y-28700000D03*
%TO.P,J3,13,CEC*%
%TO.N,Board_0-ACC_SCK*%
X147000000Y-28700000D03*
%TO.P,J3,15,SCL*%
%TO.N,Board_0-Net-(J3-SCL)*%
X146000000Y-28700000D03*
%TO.P,J3,17,GND*%
%TO.N,Board_0-GND*%
X145000000Y-28700000D03*
%TO.P,J3,19,HPD/HEAC-*%
%TO.N,Board_0-unconnected-(J3-HPD{slash}HEAC--Pad19)*%
X144000000Y-28700000D03*
D31*
%TO.P,J3,SH,SH*%
%TO.N,Board_0-GND*%
X155275000Y-28600000D03*
X141725000Y-28600000D03*
%TD*%
D13*
%TO.P,R12,1*%
%TO.N,Board_0-Net-(J5-CC2)*%
X147510000Y-53150000D03*
%TO.P,R12,2*%
%TO.N,Board_0-GND*%
X146490000Y-53150000D03*
%TD*%
D32*
%TO.P,J1,1,Shield*%
%TO.N,Board_0-GND*%
X140350000Y-48500000D03*
D33*
X140350000Y-50775000D03*
D34*
X140350000Y-56650000D03*
D33*
X140350000Y-62525000D03*
D32*
X140350000Y-64800000D03*
D35*
X142625000Y-48500000D03*
X142625000Y-64800000D03*
D36*
X148500000Y-48500000D03*
X148500000Y-64800000D03*
D35*
X154375000Y-48500000D03*
X154375000Y-64800000D03*
D32*
X156650000Y-48500000D03*
D33*
X156650000Y-50775000D03*
D34*
X156650000Y-56650000D03*
D33*
X156650000Y-62525000D03*
D32*
X156650000Y-64800000D03*
%TD*%
D13*
%TO.P,R16,1*%
%TO.N,Board_0-Net-(D8-K)*%
X143510000Y-37500000D03*
%TO.P,R16,2*%
%TO.N,Board_0-Net-(R16-Pad2)*%
X142490000Y-37500000D03*
%TD*%
D12*
%TO.P,D7,1,K*%
%TO.N,Board_0-VBUS*%
X152500000Y-32735000D03*
%TO.P,D7,2,A*%
%TO.N,Board_0-D2+*%
X152500000Y-31765000D03*
%TD*%
D37*
%TO.P,C23,1*%
%TO.N,Board_0-Net-(AE1-FEED)*%
X143450000Y-67130000D03*
%TO.P,C23,2*%
%TO.N,Board_0-GND*%
X143450000Y-66170000D03*
%TD*%
D38*
%TO.P,D16,1,K*%
%TO.N,Board_0-VBUS*%
X155015000Y-30950000D03*
%TO.P,D16,2,A*%
%TO.N,Board_0-Net-(D16-A)*%
X155985000Y-30950000D03*
%TD*%
D39*
%TO.P,U4,1,SCL/SPC*%
%TO.N,Board_0-GPIO9*%
X154750000Y-58387500D03*
%TO.P,U4,2,~{CS}*%
%TO.N,Board_0-GPIO8*%
X154250000Y-58387500D03*
%TO.P,U4,3,SA0/SDO*%
%TO.N,Board_0-ACC_MISO*%
X153750000Y-58387500D03*
%TO.P,U4,4,SDA/SDI*%
%TO.N,Board_0-ACC_MOSI*%
X153250000Y-58387500D03*
D40*
%TO.P,U4,5,RES*%
%TO.N,Board_0-GND*%
X153237500Y-58900000D03*
%TO.P,U4,6,GND*%
X153237500Y-59400000D03*
D39*
%TO.P,U4,7,GND*%
X153250000Y-59912500D03*
%TO.P,U4,8,GND*%
X153750000Y-59912500D03*
%TO.P,U4,9,Vdd*%
%TO.N,Board_0-+3V3*%
X154250000Y-59912500D03*
%TO.P,U4,10,Vdd_IO*%
X154750000Y-59912500D03*
D40*
%TO.P,U4,11,INT2*%
%TO.N,Board_0-ACC_INT2*%
X154762500Y-59400000D03*
%TO.P,U4,12,INT1*%
%TO.N,Board_0-GPIO2*%
X154762500Y-58900000D03*
%TD*%
D37*
%TO.P,C1,1*%
%TO.N,Board_0-Net-(U1B--)*%
X154850000Y-38280000D03*
%TO.P,C1,2*%
%TO.N,Board_0-Net-(U2-VOUT)*%
X154850000Y-37320000D03*
%TD*%
D41*
%TO.P,R6,1*%
%TO.N,Board_0-Net-(U1B--)*%
X153500000Y-38310000D03*
%TO.P,R6,2*%
%TO.N,Board_0-Net-(U2-VOUT)*%
X153500000Y-37290000D03*
%TD*%
D25*
%TO.P,C2,1*%
%TO.N,Board_0-GND*%
X154850000Y-34790000D03*
%TO.P,C2,2*%
%TO.N,Board_0-Net-(D9-K)*%
X154850000Y-35750000D03*
%TD*%
D42*
%TO.P,D14,1,A1*%
%TO.N,Board_0-GND*%
X143252513Y-56297487D03*
%TO.P,D14,2,A2*%
%TO.N,Board_0-A_D+*%
X143747487Y-55802513D03*
%TD*%
D43*
%TO.P,J5,S1,SHIELD*%
%TO.N,Board_0-GND*%
X150900000Y-54300000D03*
X150900000Y-50000000D03*
X146100000Y-54300000D03*
X146100000Y-50000000D03*
%TD*%
D44*
%TO.N,Board_0-+3V3*%
X145230000Y-60820000D03*
X142000000Y-43600000D03*
X152400000Y-59900000D03*
X150000000Y-55850000D03*
%TO.N,Board_0-+5V*%
X140750000Y-37450000D03*
X149800000Y-52150000D03*
X147300000Y-52150000D03*
%TO.N,Board_0-ACC_INT1*%
X156650000Y-32150000D03*
X151500000Y-62200000D03*
%TO.N,Board_0-ACC_SCK*%
X146650000Y-30750000D03*
X155050000Y-53550000D03*
%TO.N,Board_0-A_D+*%
X142999479Y-55150521D03*
%TO.N,Board_0-A_D-*%
X143600521Y-54549479D03*
X148100000Y-50350000D03*
X148900000Y-53950000D03*
%TO.N,Board_0-Cap_V+*%
X148000000Y-63150000D03*
%TO.N,Board_0-D0-*%
X148650000Y-31750000D03*
X147750000Y-39300000D03*
%TO.N,Board_0-GND*%
X148500000Y-59150000D03*
X142700000Y-38650000D03*
X147500000Y-60150000D03*
X153900000Y-59200000D03*
X152550000Y-33850000D03*
X149500000Y-58150000D03*
X140305491Y-59987608D03*
X147700000Y-47400000D03*
X149500000Y-60150000D03*
X141800000Y-55250000D03*
X142750000Y-66300000D03*
X149200000Y-34950000D03*
X142650000Y-67950000D03*
X145700000Y-44400000D03*
X156200000Y-67750000D03*
X147500000Y-55350000D03*
X153000000Y-55000000D03*
X144100000Y-32950000D03*
X140400000Y-66150000D03*
X146300000Y-66800000D03*
X141931609Y-50234901D03*
X150900000Y-64550000D03*
X156500000Y-29650000D03*
X143850000Y-63900000D03*
X154100000Y-66650000D03*
X153750000Y-44850000D03*
X140500000Y-28150000D03*
X149500000Y-59150000D03*
X147500000Y-58150000D03*
X155500000Y-50200000D03*
X149250000Y-55200000D03*
X155700000Y-62850000D03*
X152050000Y-41800000D03*
X144000000Y-30650000D03*
X141530076Y-53975387D03*
X155800000Y-35450000D03*
X148500000Y-60150000D03*
X142000000Y-44650000D03*
X144520000Y-67970000D03*
X147500000Y-59150000D03*
X155600000Y-47250000D03*
X149800000Y-67350000D03*
X140500000Y-29650000D03*
X145250000Y-41200000D03*
X151200000Y-52150000D03*
X156500000Y-28150000D03*
X142450000Y-34650000D03*
X153600000Y-46850000D03*
X146300000Y-67600000D03*
X148500000Y-58150000D03*
X145530000Y-67970000D03*
X146300000Y-64450000D03*
X142600000Y-67100000D03*
X144330000Y-66320000D03*
%TO.N,Board_0-GPIO2*%
X149300000Y-63800000D03*
%TO.N,Board_0-GPIO8*%
X152600000Y-56450000D03*
%TO.N,Board_0-GPIO9*%
X144600000Y-61650000D03*
X155250000Y-57250000D03*
%TO.N,Board_0-Net-(D16-A)*%
X156000000Y-30300000D03*
X143000000Y-30050000D03*
%TO.N,Board_0-Net-(D8-K)*%
X146350000Y-34550000D03*
%TO.N,Board_0-Net-(D9-K)*%
X145850000Y-33800000D03*
%TO.N,Board_0-Net-(J3-SCL)*%
X154300000Y-33350000D03*
X145850000Y-30750000D03*
%TO.N,Board_0-Net-(J3-SDA)*%
X145000000Y-30950000D03*
X154300000Y-32150000D03*
%TO.N,Board_0-Net-(J5-CC1)*%
X149500000Y-50350000D03*
%TO.N,Board_0-Net-(J5-CC2)*%
X148000000Y-53950000D03*
%TO.N,Board_0-Net-(U1A--)*%
X147400000Y-37550000D03*
%TO.N,Board_0-Net-(U2-VOUT)*%
X152700000Y-37000000D03*
%TO.N,Board_0-Net-(U5-CHIP_EN)*%
X149950000Y-62700000D03*
%TO.N,Board_0-Net-(U5-VDD3P3)*%
X147600000Y-62450000D03*
%TO.N,Board_0-RXD*%
X155200000Y-66050000D03*
X144700000Y-58050000D03*
%TO.N,Board_0-TXD*%
X155650000Y-61850000D03*
X144400000Y-58950000D03*
%TO.N,Board_0-User_LED3*%
X156000000Y-34100000D03*
X150600000Y-62150000D03*
X155600000Y-55300000D03*
%TO.N,Board_0-User_SW1*%
X148500000Y-63800000D03*
%TO.N,Board_0-VBUS*%
X144100000Y-31750000D03*
X151000000Y-33500000D03*
%TO.N,Board_0-VDD*%
X148250000Y-34950000D03*
X140550000Y-32150000D03*
%TO.N,Board_0-lin_reg*%
X144700000Y-35100000D03*
%TD*%
D45*
%TO.N,Board_0-+3V3*%
X152400000Y-59900000D02*
X151550000Y-59900000D01*
X145230000Y-60820000D02*
X146050000Y-60820000D01*
X149750000Y-56100000D02*
X150000000Y-55850000D01*
X154250000Y-60400000D02*
X154250000Y-59912500D01*
X151470000Y-59820000D02*
X150950000Y-59820000D01*
X150250000Y-56100000D02*
X150250000Y-56620000D01*
X152400000Y-59925000D02*
X153075000Y-60600000D01*
X149750000Y-56620000D02*
X149750000Y-56100000D01*
X151550000Y-59900000D02*
X151470000Y-59820000D01*
X152400000Y-59900000D02*
X152400000Y-59925000D01*
X145730000Y-60320000D02*
X146050000Y-60320000D01*
X154050000Y-60600000D02*
X154250000Y-60400000D01*
X154250000Y-59912500D02*
X154750000Y-59912500D01*
X153075000Y-60600000D02*
X154050000Y-60600000D01*
X150000000Y-55850000D02*
X150250000Y-56100000D01*
X145230000Y-60820000D02*
X145730000Y-60320000D01*
%TO.N,Board_0-ACC_INT1*%
X151500000Y-62200000D02*
X151500000Y-61370000D01*
X151500000Y-61370000D02*
X150950000Y-60820000D01*
X156650000Y-32150000D02*
X156010000Y-32150000D01*
%TO.N,Board_0-ACC_INT2*%
X154762500Y-59400000D02*
X155250000Y-59400000D01*
X154850000Y-61000000D02*
X154450000Y-61000000D01*
X151370000Y-60320000D02*
X152050000Y-61000000D01*
X155450000Y-59600000D02*
X155450000Y-60400000D01*
X152050000Y-61000000D02*
X154450000Y-61000000D01*
X155250000Y-59400000D02*
X155450000Y-59600000D01*
X155450000Y-60400000D02*
X154850000Y-61000000D01*
X150950000Y-60320000D02*
X151370000Y-60320000D01*
%TO.N,Board_0-ACC_MISO*%
X153750000Y-58362500D02*
X153775000Y-58387500D01*
X152834314Y-57900000D02*
X153750000Y-57900000D01*
X153750000Y-57900000D02*
X153750000Y-58362500D01*
X151939215Y-58442157D02*
X152292157Y-58442157D01*
X150950000Y-58820000D02*
X151561372Y-58820000D01*
X152292157Y-58442157D02*
X152834314Y-57900000D01*
X151561372Y-58820000D02*
X151939215Y-58442157D01*
%TO.N,Board_0-ACC_MOSI*%
X150950000Y-59320000D02*
X151630000Y-59320000D01*
X151630000Y-59320000D02*
X152100000Y-58850000D01*
X152450000Y-58850000D02*
X152912500Y-58387500D01*
X152100000Y-58850000D02*
X152450000Y-58850000D01*
X152912500Y-58387500D02*
X153250000Y-58387500D01*
%TO.N,Board_0-ACC_SCK*%
X155050000Y-53550000D02*
X153350000Y-53550000D01*
X153350000Y-53550000D02*
X150950000Y-55950000D01*
X147000000Y-30400000D02*
X147000000Y-28750000D01*
X146650000Y-30750000D02*
X147000000Y-30400000D01*
X150950000Y-55950000D02*
X150950000Y-57320000D01*
%TO.N,Board_0-A_D+*%
X146050000Y-57820000D02*
X145775000Y-57820000D01*
X144475000Y-56353248D02*
X144192874Y-56071122D01*
X144475000Y-56893200D02*
X144475000Y-56353248D01*
X143747487Y-55802513D02*
X143478878Y-55533904D01*
X145775000Y-57820000D02*
X145750000Y-57795000D01*
X143478878Y-55533904D02*
X143478878Y-55357126D01*
X144192874Y-56071122D02*
X144016096Y-56071122D01*
X145376800Y-57795000D02*
X144475000Y-56893200D01*
X143478878Y-55357126D02*
X143260875Y-55139125D01*
X145750000Y-57795000D02*
X145376800Y-57795000D01*
X144016096Y-56071122D02*
X143747487Y-55802513D01*
%TO.N,Board_0-A_D-*%
X144925000Y-56166852D02*
X144511072Y-55752924D01*
X146050000Y-57320000D02*
X145775000Y-57320000D01*
X145563200Y-57345000D02*
X144925000Y-56706800D01*
X145775000Y-57320000D02*
X145750000Y-57345000D01*
X148900000Y-52450000D02*
X148900000Y-53950000D01*
X148100000Y-50350000D02*
X148100000Y-51650000D01*
X144925000Y-56706800D02*
X144925000Y-56166852D01*
X145750000Y-57345000D02*
X145563200Y-57345000D01*
X144511072Y-55752924D02*
X144511072Y-55576146D01*
X143973854Y-55038928D02*
X143797076Y-55038928D01*
X144242463Y-55307537D02*
X143973854Y-55038928D01*
X144511072Y-55576146D02*
X144242463Y-55307537D01*
X148100000Y-51650000D02*
X148900000Y-52450000D01*
X143797076Y-55038928D02*
X143579075Y-54820925D01*
%TO.N,Board_0-Cap_V+*%
X148250000Y-62900000D02*
X148250000Y-61520000D01*
X148000000Y-63150000D02*
X148250000Y-62900000D01*
%TO.N,Board_0-D0+*%
X149500000Y-31150000D02*
X150000000Y-30650000D01*
X150000000Y-30650000D02*
X150000000Y-28750000D01*
X149500000Y-31765000D02*
X149500000Y-31150000D01*
%TO.N,Board_0-D0-*%
X149000000Y-28750000D02*
X149000000Y-30350000D01*
D46*
X148635000Y-31765000D02*
X148650000Y-31750000D01*
X147750000Y-42300000D02*
X147950000Y-42500000D01*
X147750000Y-39300000D02*
X147750000Y-42300000D01*
D45*
X149000000Y-30350000D02*
X148000000Y-31350000D01*
D46*
X148000000Y-31765000D02*
X148635000Y-31765000D01*
X147950000Y-42500000D02*
X148690000Y-42500000D01*
D45*
X148000000Y-31350000D02*
X148000000Y-31765000D01*
%TO.N,Board_0-D2+*%
X152500000Y-31250000D02*
X152500000Y-31765000D01*
X153000000Y-30750000D02*
X152500000Y-31250000D01*
X153000000Y-28750000D02*
X153000000Y-30750000D01*
%TO.N,Board_0-D2-*%
X151000000Y-31765000D02*
X151000000Y-31150000D01*
X151000000Y-31150000D02*
X151200000Y-30950000D01*
X152000000Y-30750000D02*
X152000000Y-28750000D01*
X151200000Y-30950000D02*
X151800000Y-30950000D01*
X151800000Y-30950000D02*
X152000000Y-30750000D01*
%TO.N,Board_0-GND*%
X148500000Y-64800000D02*
X147750000Y-64800000D01*
D46*
X142450000Y-34650000D02*
X142450000Y-35850000D01*
D45*
X150900000Y-64550000D02*
X150650000Y-64800000D01*
D46*
X144345405Y-30650000D02*
X144000000Y-30650000D01*
D45*
X142220000Y-61850000D02*
X142220000Y-60745000D01*
X147300000Y-64350000D02*
X147300000Y-63950000D01*
D46*
X145900000Y-41850000D02*
X145900000Y-39680000D01*
D45*
X147750000Y-64800000D02*
X147300000Y-64350000D01*
D46*
X145000000Y-28750000D02*
X145000000Y-29995405D01*
D45*
X143180000Y-57450000D02*
X143180000Y-58555000D01*
X142220000Y-60745000D02*
X142000000Y-60525000D01*
X143180000Y-58555000D02*
X143400000Y-58775000D01*
X153700000Y-59400000D02*
X153237500Y-59400000D01*
X153900000Y-59200000D02*
X153700000Y-59400000D01*
D46*
X145900000Y-39680000D02*
X146025000Y-39555000D01*
D45*
X147300000Y-63950000D02*
X146900000Y-63950000D01*
D46*
X145000000Y-29995405D02*
X144345405Y-30650000D01*
D45*
X150650000Y-64800000D02*
X148500000Y-64800000D01*
%TO.N,Board_0-GPIO2*%
X152150000Y-62550000D02*
X151400000Y-63300000D01*
X155200000Y-61400000D02*
X152600000Y-61400000D01*
X152150000Y-61850000D02*
X152150000Y-62550000D01*
X149800000Y-63300000D02*
X149300000Y-63800000D01*
X155850000Y-59150000D02*
X155850000Y-60750000D01*
X149250000Y-63750000D02*
X149250000Y-61520000D01*
X155600000Y-58900000D02*
X155850000Y-59150000D01*
X154762500Y-58900000D02*
X155600000Y-58900000D01*
X149300000Y-63800000D02*
X149250000Y-63750000D01*
X151400000Y-63300000D02*
X149800000Y-63300000D01*
X155850000Y-60750000D02*
X155200000Y-61400000D01*
X152600000Y-61400000D02*
X152150000Y-61850000D01*
%TO.N,Board_0-GPIO8*%
X154250000Y-57750000D02*
X154250000Y-58387500D01*
X152600000Y-57550000D02*
X152200000Y-57950000D01*
X153900000Y-57400000D02*
X154250000Y-57750000D01*
X152600000Y-56450000D02*
X152600000Y-57550000D01*
X151865686Y-57950000D02*
X151495686Y-58320000D01*
X151495686Y-58320000D02*
X150950000Y-58320000D01*
X152600000Y-57550000D02*
X152750000Y-57400000D01*
X152750000Y-57400000D02*
X153900000Y-57400000D01*
X152200000Y-57950000D02*
X151865686Y-57950000D01*
%TO.N,Board_0-GPIO9*%
X155250000Y-57250000D02*
X154300000Y-57250000D01*
X152900000Y-55850000D02*
X152351471Y-55850000D01*
X151900000Y-57350000D02*
X151430000Y-57820000D01*
X155250000Y-57887500D02*
X155250000Y-57250000D01*
X151430000Y-57820000D02*
X150950000Y-57820000D01*
X152351471Y-55850000D02*
X151900000Y-56301471D01*
X151900000Y-56301471D02*
X151900000Y-57350000D01*
X154750000Y-58387500D02*
X155250000Y-57887500D01*
X154300000Y-57250000D02*
X152900000Y-55850000D01*
D47*
%TO.N,Board_0-Net-(AE1-FEED)*%
X144515000Y-67150000D02*
X143520000Y-67150000D01*
D45*
X143500000Y-67130000D02*
X143450000Y-67130000D01*
X143450000Y-67130000D02*
X143450000Y-67180000D01*
D47*
X143450000Y-67180000D02*
X143450000Y-68025000D01*
D45*
X143520000Y-67150000D02*
X143500000Y-67130000D01*
D46*
%TO.N,Board_0-Net-(D16-A)*%
X156000000Y-30300000D02*
X156000000Y-30935000D01*
X156000000Y-30935000D02*
X155985000Y-30950000D01*
%TO.N,Board_0-Net-(D8-K)*%
X148690000Y-36440000D02*
X148690000Y-41300000D01*
X146350000Y-34550000D02*
X145300000Y-34550000D01*
X144400000Y-34350000D02*
X143510000Y-35240000D01*
X145300000Y-34550000D02*
X145100000Y-34350000D01*
X145100000Y-34350000D02*
X144400000Y-34350000D01*
X146800000Y-34550000D02*
X148690000Y-36440000D01*
X143510000Y-35240000D02*
X143510000Y-37500000D01*
X146350000Y-34550000D02*
X146800000Y-34550000D01*
%TO.N,Board_0-Net-(D9-K)*%
X154850000Y-35750000D02*
X154845000Y-35745000D01*
X154845000Y-35745000D02*
X150975000Y-35745000D01*
X150975000Y-35025000D02*
X150975000Y-35745000D01*
X145850000Y-33800000D02*
X149750000Y-33800000D01*
X149750000Y-33800000D02*
X150975000Y-35025000D01*
D45*
%TO.N,Board_0-Net-(J3-SCL)*%
X154300000Y-33350000D02*
X154990000Y-33350000D01*
X145850000Y-30750000D02*
X146000000Y-30600000D01*
X146000000Y-30600000D02*
X146000000Y-28750000D01*
%TO.N,Board_0-Net-(J3-SDA)*%
X154300000Y-32150000D02*
X154990000Y-32150000D01*
%TO.N,Board_0-Net-(J5-CC1)*%
X149490000Y-50360000D02*
X149490000Y-51150000D01*
X149500000Y-50350000D02*
X149490000Y-50360000D01*
%TO.N,Board_0-Net-(J5-CC2)*%
X148000000Y-53950000D02*
X148000000Y-53250000D01*
X147510000Y-53150000D02*
X147900000Y-53150000D01*
X148000000Y-53250000D02*
X147900000Y-53150000D01*
D46*
%TO.N,Board_0-Net-(R16-Pad2)*%
X142000000Y-37990000D02*
X142000000Y-38950000D01*
X142000000Y-38950000D02*
X141350000Y-39600000D01*
X142490000Y-37500000D02*
X142000000Y-37990000D01*
X141350000Y-39600000D02*
X140450000Y-39600000D01*
%TO.N,Board_0-Net-(R17-Pad1)*%
X142350000Y-42500000D02*
X141450000Y-41600000D01*
X145190000Y-42500000D02*
X142350000Y-42500000D01*
X141450000Y-41600000D02*
X140450000Y-41600000D01*
%TO.N,Board_0-Net-(R2-Pad2)*%
X153050000Y-40600000D02*
X153050000Y-42200000D01*
X153050000Y-42200000D02*
X152750000Y-42500000D01*
X152750000Y-42500000D02*
X149710000Y-42500000D01*
%TO.N,Board_0-Net-(U1A-+)*%
X143700000Y-38735000D02*
X144150000Y-38285000D01*
X143700000Y-40600000D02*
X143700000Y-38735000D01*
X144150000Y-38285000D02*
X146025000Y-38285000D01*
%TO.N,Board_0-Net-(U1A--)*%
X147215000Y-37015000D02*
X146025000Y-37015000D01*
X147400000Y-37550000D02*
X147400000Y-37200000D01*
X147400000Y-37200000D02*
X147215000Y-37015000D01*
%TO.N,Board_0-Net-(U1B-+)*%
X150975000Y-39555000D02*
X149595000Y-39555000D01*
X149350000Y-39800000D02*
X149350000Y-40940000D01*
X149350000Y-40940000D02*
X149710000Y-41300000D01*
X149710000Y-41300000D02*
X150590000Y-41300000D01*
X149595000Y-39555000D02*
X149350000Y-39800000D01*
%TO.N,Board_0-Net-(U1B--)*%
X154850000Y-38280000D02*
X154620000Y-38280000D01*
X153530000Y-38280000D02*
X153500000Y-38310000D01*
X154850000Y-41100000D02*
X154850000Y-38280000D01*
X150525000Y-38285000D02*
X150975000Y-38285000D01*
X150500000Y-38310000D02*
X150525000Y-38285000D01*
X155350000Y-41600000D02*
X154850000Y-41100000D01*
X154850000Y-38280000D02*
X153530000Y-38280000D01*
X153500000Y-38310000D02*
X150500000Y-38310000D01*
D45*
X153690000Y-38340000D02*
X153700000Y-38350000D01*
X153690000Y-38200000D02*
X153690000Y-38340000D01*
D46*
X156300000Y-41600000D02*
X155350000Y-41600000D01*
D45*
X153660000Y-38310000D02*
X150500000Y-38310000D01*
X153700000Y-38350000D02*
X153660000Y-38310000D01*
D46*
X153500000Y-38310000D02*
X154820000Y-38310000D01*
X154820000Y-38310000D02*
X154850000Y-38280000D01*
%TO.N,Board_0-Net-(U2-VOUT)*%
X153500000Y-37290000D02*
X154820000Y-37290000D01*
X152700000Y-37000000D02*
X152990000Y-37290000D01*
X152990000Y-37290000D02*
X153500000Y-37290000D01*
X152685000Y-37015000D02*
X150975000Y-37015000D01*
X154820000Y-37290000D02*
X154850000Y-37320000D01*
X152700000Y-37000000D02*
X152685000Y-37015000D01*
D45*
%TO.N,Board_0-Net-(U5-CHIP_EN)*%
X149950000Y-62700000D02*
X149950000Y-62350000D01*
X149950000Y-62350000D02*
X149750000Y-62150000D01*
X149750000Y-62150000D02*
X149750000Y-61520000D01*
D47*
%TO.N,Board_0-Net-(U5-LNA_IN)*%
X145520000Y-66150000D02*
X145520000Y-64751320D01*
X146750000Y-62278680D02*
X146750000Y-61520000D01*
X145959340Y-63690660D02*
X146310660Y-63339340D01*
X145520000Y-66150000D02*
X145520000Y-67115000D01*
X145520000Y-67115000D02*
X145485000Y-67150000D01*
X146310660Y-63339340D02*
G75*
G03*
X146749985Y-62278680I-1060660J1060640D01*
G01*
X145520000Y-64751320D02*
G75*
G02*
X145959330Y-63690650I1500000J20D01*
G01*
D45*
%TO.N,Board_0-Net-(U5-VDD3P3)*%
X147750000Y-61520000D02*
X147250000Y-61520000D01*
X147600000Y-62450000D02*
X147750000Y-62300000D01*
X147750000Y-62300000D02*
X147750000Y-61520000D01*
%TO.N,Board_0-Net-(U5-XTAL_N)*%
X142220000Y-57450000D02*
X142220000Y-58555000D01*
X142200000Y-59650000D02*
X142000000Y-59450000D01*
X145230000Y-59320000D02*
X144900000Y-59650000D01*
X144900000Y-59650000D02*
X142200000Y-59650000D01*
X142220000Y-58555000D02*
X142000000Y-58775000D01*
X146050000Y-59320000D02*
X145230000Y-59320000D01*
X142000000Y-59450000D02*
X142000000Y-58775000D01*
%TO.N,Board_0-Net-(U5-XTAL_P)*%
X144625000Y-60525000D02*
X143400000Y-60525000D01*
X145330000Y-59820000D02*
X144625000Y-60525000D01*
X143180000Y-61850000D02*
X143180000Y-60745000D01*
X146050000Y-59820000D02*
X145330000Y-59820000D01*
X143180000Y-60745000D02*
X143400000Y-60525000D01*
%TO.N,Board_0-RXD*%
X144700000Y-58050000D02*
X144970000Y-58320000D01*
X144970000Y-58320000D02*
X146050000Y-58320000D01*
%TO.N,Board_0-TXD*%
X144530000Y-58820000D02*
X146050000Y-58820000D01*
X144400000Y-58950000D02*
X144530000Y-58820000D01*
%TO.N,Board_0-User_LED3*%
X150600000Y-62150000D02*
X150400000Y-62150000D01*
X156000000Y-34100000D02*
X156000000Y-33360000D01*
X156000000Y-33360000D02*
X156010000Y-33350000D01*
X150250000Y-62000000D02*
X150250000Y-61520000D01*
X150400000Y-62150000D02*
X150250000Y-62000000D01*
%TO.N,Board_0-User_SW1*%
X148500000Y-63800000D02*
X148750000Y-63550000D01*
X148750000Y-63550000D02*
X148750000Y-61520000D01*
D46*
%TO.N,Board_0-VBUS*%
X153000000Y-32750000D02*
X152515000Y-32750000D01*
X145100000Y-32750000D02*
X147985000Y-32750000D01*
X153900000Y-30950000D02*
X153550000Y-31300000D01*
X151000000Y-33500000D02*
X151000000Y-32735000D01*
X153550000Y-32200000D02*
X153000000Y-32750000D01*
X153550000Y-31300000D02*
X153550000Y-32200000D01*
X147985000Y-32750000D02*
X148000000Y-32735000D01*
X152515000Y-32750000D02*
X152500000Y-32735000D01*
X144100000Y-31750000D02*
X145100000Y-32750000D01*
X148000000Y-32735000D02*
X152500000Y-32735000D01*
X155015000Y-30950000D02*
X153900000Y-30950000D01*
D48*
%TO.N,Board_0-VDD*%
X140550000Y-33350000D02*
X140550000Y-32150000D01*
X140550000Y-33350000D02*
X140550000Y-35850000D01*
D46*
X140550000Y-34150000D02*
X140550000Y-35850000D01*
%TO.N,Board_0-lin_reg*%
X144945000Y-35745000D02*
X144700000Y-35500000D01*
X146025000Y-35745000D02*
X144945000Y-35745000D01*
X144700000Y-35500000D02*
X144700000Y-35100000D01*
%TD*%
%TA.AperFunction,Conductor*%
%TO.N,Board_0-GND*%
G36*
X142699500Y-61119746D02*
G01*
X142699501Y-61119758D01*
X142711132Y-61178227D01*
X142711134Y-61178233D01*
X142755445Y-61244548D01*
X142755448Y-61244552D01*
X142771339Y-61255170D01*
X142798093Y-61273047D01*
X142835972Y-61321098D01*
X142838373Y-61382236D01*
X142813094Y-61425365D01*
X142756776Y-61481683D01*
X142756774Y-61481686D01*
X142706029Y-61590510D01*
X142706028Y-61590511D01*
X142699500Y-61640100D01*
X142699500Y-62059896D01*
X142699501Y-62059907D01*
X142706027Y-62109486D01*
X142706027Y-62109488D01*
X142756774Y-62218313D01*
X142756775Y-62218314D01*
X142756776Y-62218316D01*
X142841684Y-62303224D01*
X142950513Y-62353972D01*
X143000099Y-62360500D01*
X143359900Y-62360499D01*
X143409487Y-62353972D01*
X143409488Y-62353972D01*
X143468137Y-62326622D01*
X143518316Y-62303224D01*
X143603224Y-62218316D01*
X143653972Y-62109487D01*
X143660500Y-62059901D01*
X143660499Y-61640100D01*
X143653972Y-61590513D01*
X143653972Y-61590511D01*
X143603225Y-61481686D01*
X143603224Y-61481685D01*
X143603224Y-61481684D01*
X143591041Y-61469501D01*
X143563266Y-61414987D01*
X143572837Y-61354555D01*
X143616102Y-61311290D01*
X143661047Y-61300500D01*
X143919747Y-61300500D01*
X143919748Y-61300500D01*
X143978231Y-61288867D01*
X144028662Y-61255169D01*
X144085608Y-61239107D01*
X144079515Y-61212901D01*
X144086689Y-61183487D01*
X144088861Y-61178239D01*
X144088867Y-61178231D01*
X144100500Y-61119748D01*
X144100500Y-61050000D01*
X144770923Y-61050000D01*
X144773236Y-61070159D01*
X144743150Y-61123437D01*
X144687494Y-61148855D01*
X144676208Y-61149500D01*
X144528035Y-61149500D01*
X144389949Y-61190046D01*
X144389942Y-61190049D01*
X144268872Y-61267856D01*
X144252970Y-61286208D01*
X144200573Y-61317803D01*
X144178736Y-61315926D01*
X144176545Y-61371748D01*
X144173717Y-61378610D01*
X144114833Y-61507545D01*
X144094353Y-61649997D01*
X144094353Y-61650002D01*
X144114834Y-61792456D01*
X144156368Y-61883401D01*
X144174623Y-61923373D01*
X144206462Y-61960117D01*
X144268873Y-62032144D01*
X144387446Y-62108346D01*
X144389947Y-62109953D01*
X144496403Y-62141211D01*
X144528035Y-62150499D01*
X144528036Y-62150499D01*
X144528039Y-62150500D01*
X144528041Y-62150500D01*
X144671959Y-62150500D01*
X144671961Y-62150500D01*
X144810053Y-62109953D01*
X144931128Y-62032143D01*
X145025377Y-61923373D01*
X145085165Y-61792457D01*
X145105647Y-61650000D01*
X145104223Y-61640099D01*
X145085165Y-61507543D01*
X145063739Y-61460627D01*
X145056764Y-61399841D01*
X145086850Y-61346563D01*
X145142506Y-61321145D01*
X145153792Y-61320500D01*
X145301959Y-61320500D01*
X145301961Y-61320500D01*
X145440053Y-61279953D01*
X145561128Y-61202143D01*
X145583752Y-61176031D01*
X145636144Y-61144437D01*
X145677887Y-61143767D01*
X145686599Y-61145500D01*
X146325500Y-61145499D01*
X146383691Y-61164406D01*
X146419655Y-61213906D01*
X146424500Y-61244499D01*
X146424500Y-61367522D01*
X146421127Y-61393140D01*
X146403045Y-61460627D01*
X146399500Y-61473857D01*
X146399500Y-62217093D01*
X146399499Y-62217111D01*
X146399499Y-62274795D01*
X146399194Y-62282561D01*
X146385961Y-62450739D01*
X146383531Y-62466083D01*
X146345063Y-62626322D01*
X146340262Y-62641097D01*
X146277197Y-62793354D01*
X146270145Y-62807195D01*
X146184043Y-62947705D01*
X146174911Y-62960274D01*
X146065470Y-63088414D01*
X146060194Y-63094122D01*
X145740504Y-63413814D01*
X145740461Y-63413835D01*
X145625720Y-63528578D01*
X145478048Y-63721033D01*
X145356767Y-63931105D01*
X145263939Y-64155220D01*
X145263938Y-64155221D01*
X145201158Y-64389532D01*
X145169498Y-64630033D01*
X145169498Y-64630036D01*
X145169500Y-64751315D01*
X145169500Y-65667952D01*
X145150593Y-65726143D01*
X145140504Y-65737955D01*
X145096776Y-65781683D01*
X145096774Y-65781686D01*
X145046029Y-65890510D01*
X145046028Y-65890511D01*
X145039500Y-65940100D01*
X145039500Y-66359896D01*
X145039501Y-66359907D01*
X145046027Y-66409486D01*
X145046027Y-66409488D01*
X145096774Y-66518313D01*
X145096775Y-66518314D01*
X145096776Y-66518316D01*
X145130654Y-66552194D01*
X145158430Y-66606709D01*
X145148859Y-66667141D01*
X145130653Y-66692199D01*
X145070004Y-66752849D01*
X145015488Y-66780627D01*
X144955056Y-66771056D01*
X144929999Y-66752852D01*
X144867511Y-66690364D01*
X144763170Y-66639355D01*
X144763171Y-66639355D01*
X144746259Y-66636891D01*
X144695528Y-66629500D01*
X144334472Y-66629500D01*
X144293886Y-66635413D01*
X144266828Y-66639355D01*
X144178892Y-66682345D01*
X144162489Y-66690364D01*
X144082347Y-66770505D01*
X144027833Y-66798281D01*
X144012346Y-66799500D01*
X143952047Y-66799500D01*
X143893856Y-66780593D01*
X143882049Y-66770509D01*
X143818316Y-66706776D01*
X143818314Y-66706775D01*
X143818313Y-66706774D01*
X143709489Y-66656029D01*
X143709488Y-66656028D01*
X143692958Y-66653852D01*
X143659901Y-66649500D01*
X143659899Y-66649500D01*
X143240103Y-66649500D01*
X143240092Y-66649501D01*
X143190513Y-66656027D01*
X143190511Y-66656027D01*
X143081686Y-66706774D01*
X142996774Y-66791686D01*
X142946029Y-66900510D01*
X142946028Y-66900511D01*
X142939500Y-66950100D01*
X142939500Y-67309895D01*
X142939501Y-67309907D01*
X142946027Y-67359486D01*
X142946027Y-67359488D01*
X142996774Y-67468313D01*
X142996775Y-67468314D01*
X142996776Y-67468316D01*
X143039439Y-67510979D01*
X143067215Y-67565494D01*
X143057644Y-67625926D01*
X143051749Y-67635983D01*
X143011134Y-67696766D01*
X143011132Y-67696772D01*
X142999501Y-67755241D01*
X142999500Y-67755253D01*
X142999500Y-68176000D01*
X142980593Y-68234191D01*
X142958834Y-68250000D01*
X141100000Y-68250000D01*
X141100000Y-61050000D01*
X142699500Y-61050000D01*
X142699500Y-61119746D01*
G37*
%TD.AperFunction*%
%TA.AperFunction,Conductor*%
G36*
X147178122Y-62733335D02*
G01*
X147199023Y-62751533D01*
X147268870Y-62832142D01*
X147268872Y-62832143D01*
X147335216Y-62874780D01*
X147389947Y-62909953D01*
X147440930Y-62924922D01*
X147491436Y-62959457D01*
X147511998Y-63017084D01*
X147511030Y-63034001D01*
X147494353Y-63149996D01*
X147494353Y-63150002D01*
X147514834Y-63292456D01*
X147570267Y-63413835D01*
X147574623Y-63423373D01*
X147600000Y-63452659D01*
X147600000Y-68250000D01*
X143936882Y-68250000D01*
X143905345Y-68206593D01*
X143900500Y-68176000D01*
X143900500Y-67755253D01*
X143900498Y-67755241D01*
X143897711Y-67741231D01*
X143888867Y-67696769D01*
X143888865Y-67696766D01*
X143860625Y-67654502D01*
X143844016Y-67595614D01*
X143865193Y-67538210D01*
X143916067Y-67504217D01*
X143942940Y-67500500D01*
X144012346Y-67500500D01*
X144070537Y-67519407D01*
X144082343Y-67529490D01*
X144162489Y-67609636D01*
X144266830Y-67660645D01*
X144334472Y-67670500D01*
X144334475Y-67670500D01*
X144695524Y-67670500D01*
X144695528Y-67670500D01*
X144763170Y-67660645D01*
X144867511Y-67609636D01*
X144929998Y-67547148D01*
X144984513Y-67519373D01*
X145044945Y-67528944D01*
X145070000Y-67547147D01*
X145132489Y-67609636D01*
X145236830Y-67660645D01*
X145304472Y-67670500D01*
X145304475Y-67670500D01*
X145665524Y-67670500D01*
X145665528Y-67670500D01*
X145733170Y-67660645D01*
X145837511Y-67609636D01*
X145919636Y-67527511D01*
X145970645Y-67423170D01*
X145980500Y-67355528D01*
X145980500Y-66944472D01*
X145970645Y-66876830D01*
X145919636Y-66772489D01*
X145919635Y-66772488D01*
X145919634Y-66772486D01*
X145899495Y-66752347D01*
X145871719Y-66697830D01*
X145870500Y-66682345D01*
X145870500Y-66632047D01*
X145889407Y-66573856D01*
X145899490Y-66562049D01*
X145943224Y-66518316D01*
X145993972Y-66409487D01*
X146000500Y-66359901D01*
X146000499Y-65940100D01*
X145993972Y-65890513D01*
X145993972Y-65890511D01*
X145943225Y-65781686D01*
X145943223Y-65781683D01*
X145899496Y-65737955D01*
X145871719Y-65683438D01*
X145870500Y-65667952D01*
X145870500Y-64806832D01*
X145870501Y-64806829D01*
X145870500Y-64755204D01*
X145870805Y-64747438D01*
X145880043Y-64630036D01*
X145884039Y-64579249D01*
X145886466Y-64563927D01*
X145924938Y-64403670D01*
X145929737Y-64388902D01*
X145992802Y-64236645D01*
X145999854Y-64222804D01*
X146085959Y-64082290D01*
X146095085Y-64069728D01*
X146204534Y-63941576D01*
X146209786Y-63935894D01*
X146529497Y-63616185D01*
X146529539Y-63616163D01*
X146558512Y-63587188D01*
X146558513Y-63587189D01*
X146644277Y-63501424D01*
X146791947Y-63308973D01*
X146913234Y-63098893D01*
X147006061Y-62874780D01*
X147028577Y-62790741D01*
X147061900Y-62739428D01*
X147119021Y-62717500D01*
X147178122Y-62733335D01*
G37*
%TD.AperFunction*%
%TD*%
%TA.AperFunction,Conductor*%
%TO.N,Board_0-GND*%
G36*
X147419503Y-35771251D02*
G01*
X148235504Y-36587252D01*
X148263281Y-36641769D01*
X148264500Y-36657256D01*
X148264500Y-38800147D01*
X148245593Y-38858338D01*
X148196093Y-38894302D01*
X148134907Y-38894302D01*
X148105233Y-38878689D01*
X148027629Y-38819142D01*
X148027628Y-38819141D01*
X148027625Y-38819139D01*
X148027622Y-38819138D01*
X148027621Y-38819137D01*
X147893709Y-38763670D01*
X147893708Y-38763669D01*
X147750000Y-38744750D01*
X147606291Y-38763669D01*
X147606290Y-38763670D01*
X147472378Y-38819137D01*
X147472374Y-38819139D01*
X147357381Y-38907377D01*
X147357377Y-38907381D01*
X147269139Y-39022374D01*
X147269137Y-39022378D01*
X147213670Y-39156291D01*
X147194750Y-39299999D01*
X147194750Y-39300000D01*
X147213669Y-39443708D01*
X147213670Y-39443709D01*
X147269137Y-39577621D01*
X147269142Y-39577630D01*
X147304041Y-39623110D01*
X147324466Y-39680785D01*
X147324500Y-39683378D01*
X147324500Y-42243982D01*
X147324500Y-42356018D01*
X147345921Y-42435964D01*
X147353498Y-42464241D01*
X147409513Y-42561260D01*
X147409515Y-42561263D01*
X147688737Y-42840485D01*
X147688739Y-42840486D01*
X147785759Y-42896501D01*
X147785757Y-42896501D01*
X147785761Y-42896502D01*
X147785763Y-42896503D01*
X147893982Y-42925500D01*
X148006019Y-42925500D01*
X148209314Y-42925500D01*
X148267505Y-42944407D01*
X148279317Y-42954496D01*
X148327896Y-43003074D01*
X148327898Y-43003076D01*
X148443482Y-43059582D01*
X148518418Y-43070500D01*
X148518421Y-43070500D01*
X148861578Y-43070500D01*
X148861582Y-43070500D01*
X148936518Y-43059582D01*
X149052102Y-43003076D01*
X149129998Y-42925179D01*
X149184513Y-42897404D01*
X149244945Y-42906975D01*
X149270000Y-42925178D01*
X149347898Y-43003076D01*
X149463482Y-43059582D01*
X149538418Y-43070500D01*
X149538421Y-43070500D01*
X149881578Y-43070500D01*
X149881582Y-43070500D01*
X149956518Y-43059582D01*
X150072102Y-43003076D01*
X150097492Y-42977686D01*
X150120683Y-42954496D01*
X150175200Y-42926719D01*
X150190686Y-42925500D01*
X152806016Y-42925500D01*
X152806018Y-42925500D01*
X152914237Y-42896503D01*
X152914239Y-42896501D01*
X152914241Y-42896501D01*
X152943064Y-42879859D01*
X153011263Y-42840485D01*
X153390485Y-42461263D01*
X153437055Y-42380601D01*
X153446501Y-42364241D01*
X153446501Y-42364239D01*
X153446503Y-42364237D01*
X153475500Y-42256018D01*
X153475500Y-42143982D01*
X153475500Y-41749500D01*
X153494407Y-41691309D01*
X153543907Y-41655345D01*
X153574500Y-41650500D01*
X154074673Y-41650500D01*
X154074674Y-41650500D01*
X154147740Y-41635966D01*
X154230601Y-41580601D01*
X154285966Y-41497740D01*
X154300500Y-41424674D01*
X154300500Y-41368711D01*
X154319407Y-41310520D01*
X154368907Y-41274556D01*
X154430093Y-41274556D01*
X154479593Y-41310520D01*
X154485236Y-41319211D01*
X154509515Y-41361263D01*
X155009515Y-41861263D01*
X155009514Y-41861263D01*
X155088737Y-41940485D01*
X155185759Y-41996501D01*
X155185757Y-41996501D01*
X155185761Y-41996502D01*
X155185763Y-41996503D01*
X155293982Y-42025500D01*
X155600500Y-42025500D01*
X155658691Y-42044407D01*
X155694655Y-42093907D01*
X155699500Y-42124500D01*
X155699500Y-42224672D01*
X155699501Y-42224684D01*
X155714033Y-42297736D01*
X155714035Y-42297742D01*
X155769397Y-42380599D01*
X155769399Y-42380601D01*
X155852260Y-42435966D01*
X155907808Y-42447015D01*
X155925315Y-42450498D01*
X155925320Y-42450498D01*
X155925326Y-42450500D01*
X157050500Y-42450500D01*
X157108691Y-42469407D01*
X157144655Y-42518907D01*
X157149500Y-42549500D01*
X157149500Y-68176000D01*
X157130593Y-68234191D01*
X157081093Y-68270155D01*
X157050500Y-68275000D01*
X144049500Y-68275000D01*
X143991309Y-68256093D01*
X143986882Y-68250000D01*
X147600000Y-68250000D01*
X147600000Y-66050000D01*
X154644750Y-66050000D01*
X154663669Y-66193708D01*
X154663670Y-66193709D01*
X154719139Y-66327625D01*
X154807379Y-66442621D01*
X154922375Y-66530861D01*
X155056291Y-66586330D01*
X155200000Y-66605250D01*
X155343709Y-66586330D01*
X155477625Y-66530861D01*
X155592621Y-66442621D01*
X155680861Y-66327625D01*
X155736330Y-66193709D01*
X155755250Y-66050000D01*
X155741987Y-65949263D01*
X155736330Y-65906291D01*
X155680861Y-65772375D01*
X155592621Y-65657379D01*
X155477625Y-65569139D01*
X155477621Y-65569137D01*
X155343709Y-65513670D01*
X155343708Y-65513669D01*
X155200000Y-65494750D01*
X155056291Y-65513669D01*
X155056290Y-65513670D01*
X154922378Y-65569137D01*
X154922374Y-65569139D01*
X154807381Y-65657377D01*
X154807377Y-65657381D01*
X154719139Y-65772374D01*
X154719137Y-65772378D01*
X154663670Y-65906290D01*
X154663669Y-65906291D01*
X154644750Y-66049999D01*
X154644750Y-66050000D01*
X147600000Y-66050000D01*
X147600000Y-63533004D01*
X147607379Y-63542621D01*
X147722375Y-63630861D01*
X147856291Y-63686330D01*
X147859794Y-63686791D01*
X147862079Y-63687881D01*
X147862561Y-63688010D01*
X147862537Y-63688099D01*
X147915019Y-63713127D01*
X147944218Y-63766895D01*
X147945031Y-63797856D01*
X147944750Y-63799992D01*
X147944750Y-63800000D01*
X147963669Y-63943708D01*
X147963670Y-63943709D01*
X148019139Y-64077625D01*
X148107379Y-64192621D01*
X148222375Y-64280861D01*
X148356291Y-64336330D01*
X148500000Y-64355250D01*
X148643709Y-64336330D01*
X148777625Y-64280861D01*
X148839732Y-64233203D01*
X148897407Y-64212779D01*
X148956073Y-64230156D01*
X148960268Y-64233204D01*
X149022369Y-64280857D01*
X149022371Y-64280858D01*
X149022375Y-64280861D01*
X149156291Y-64336330D01*
X149300000Y-64355250D01*
X149443709Y-64336330D01*
X149577625Y-64280861D01*
X149692621Y-64192621D01*
X149780861Y-64077625D01*
X149836330Y-63943709D01*
X149855250Y-63800000D01*
X149854693Y-63795769D01*
X149865840Y-63735608D01*
X149882840Y-63712841D01*
X149916188Y-63679494D01*
X149970705Y-63651718D01*
X149986189Y-63650500D01*
X151446142Y-63650500D01*
X151446144Y-63650500D01*
X151535288Y-63626614D01*
X151542355Y-63622534D01*
X151615212Y-63580470D01*
X152430470Y-62765212D01*
X152476614Y-62685288D01*
X152477800Y-62680862D01*
X152481993Y-62665214D01*
X152481993Y-62665212D01*
X152500500Y-62596143D01*
X152500500Y-62036190D01*
X152519407Y-61977999D01*
X152529496Y-61966186D01*
X152716186Y-61779496D01*
X152770703Y-61751719D01*
X152786190Y-61750500D01*
X154995750Y-61750500D01*
X155053941Y-61769407D01*
X155089905Y-61818907D01*
X155093812Y-61843578D01*
X155093903Y-61843567D01*
X155094359Y-61847033D01*
X155094750Y-61849500D01*
X155094750Y-61850000D01*
X155113669Y-61993708D01*
X155113670Y-61993709D01*
X155137290Y-62050735D01*
X155169139Y-62127625D01*
X155257379Y-62242621D01*
X155372375Y-62330861D01*
X155506291Y-62386330D01*
X155650000Y-62405250D01*
X155793709Y-62386330D01*
X155927625Y-62330861D01*
X156042621Y-62242621D01*
X156130861Y-62127625D01*
X156186330Y-61993709D01*
X156205250Y-61850000D01*
X156204859Y-61847033D01*
X156186330Y-61706291D01*
X156130861Y-61572375D01*
X156042621Y-61457379D01*
X155927625Y-61369139D01*
X155922322Y-61366942D01*
X155875797Y-61327206D01*
X155861514Y-61267711D01*
X155884929Y-61211183D01*
X155890206Y-61205475D01*
X155926544Y-61169137D01*
X156130470Y-60965212D01*
X156176614Y-60885288D01*
X156200500Y-60796144D01*
X156200500Y-60703856D01*
X156200500Y-59103856D01*
X156176614Y-59014712D01*
X156139252Y-58950000D01*
X156130470Y-58934789D01*
X156130468Y-58934787D01*
X156065217Y-58869535D01*
X156065211Y-58869530D01*
X155815214Y-58619532D01*
X155815213Y-58619531D01*
X155815212Y-58619530D01*
X155735288Y-58573386D01*
X155646144Y-58549500D01*
X155646142Y-58549500D01*
X155322690Y-58549500D01*
X155264499Y-58530593D01*
X155228535Y-58481093D01*
X155228535Y-58419907D01*
X155252686Y-58380497D01*
X155457945Y-58175237D01*
X155530470Y-58102712D01*
X155576614Y-58022788D01*
X155600500Y-57933644D01*
X155600500Y-57841356D01*
X155600500Y-57723762D01*
X155619407Y-57665571D01*
X155639234Y-57645219D01*
X155642621Y-57642621D01*
X155730861Y-57527625D01*
X155786330Y-57393709D01*
X155805250Y-57250000D01*
X155803266Y-57234934D01*
X155786330Y-57106291D01*
X155730861Y-56972375D01*
X155642621Y-56857379D01*
X155527625Y-56769139D01*
X155527621Y-56769137D01*
X155393709Y-56713670D01*
X155393708Y-56713669D01*
X155250000Y-56694750D01*
X155106291Y-56713669D01*
X155106290Y-56713670D01*
X154972378Y-56769137D01*
X154972374Y-56769139D01*
X154857376Y-56857381D01*
X154854777Y-56860769D01*
X154804351Y-56895424D01*
X154776236Y-56899500D01*
X154486190Y-56899500D01*
X154427999Y-56880593D01*
X154416186Y-56870504D01*
X153782101Y-56236419D01*
X153115212Y-55569530D01*
X153115209Y-55569528D01*
X153035291Y-55523387D01*
X153035287Y-55523385D01*
X153029931Y-55521950D01*
X152974072Y-55506983D01*
X152946144Y-55499500D01*
X152305327Y-55499500D01*
X152292366Y-55502972D01*
X152221544Y-55521948D01*
X152221545Y-55521949D01*
X152216182Y-55523386D01*
X152136261Y-55569529D01*
X151619529Y-56086260D01*
X151603240Y-56114473D01*
X151580990Y-56153012D01*
X151580989Y-56153012D01*
X151573387Y-56166180D01*
X151573386Y-56166182D01*
X151573386Y-56166183D01*
X151554567Y-56236419D01*
X151549500Y-56255328D01*
X151549500Y-56878916D01*
X151530593Y-56937107D01*
X151481093Y-56973071D01*
X151419907Y-56973071D01*
X151408662Y-56968641D01*
X151362897Y-56947301D01*
X151363698Y-56945581D01*
X151321220Y-56916658D01*
X151300546Y-56859071D01*
X151300500Y-56856050D01*
X151300500Y-56136190D01*
X151319407Y-56077999D01*
X151329496Y-56066186D01*
X152095682Y-55300000D01*
X155044750Y-55300000D01*
X155063669Y-55443708D01*
X155063670Y-55443709D01*
X155116965Y-55572378D01*
X155119139Y-55577625D01*
X155207379Y-55692621D01*
X155322375Y-55780861D01*
X155456291Y-55836330D01*
X155600000Y-55855250D01*
X155743709Y-55836330D01*
X155877625Y-55780861D01*
X155992621Y-55692621D01*
X156080861Y-55577625D01*
X156136330Y-55443709D01*
X156155250Y-55300000D01*
X156136330Y-55156291D01*
X156080861Y-55022375D01*
X155992621Y-54907379D01*
X155877625Y-54819139D01*
X155877621Y-54819137D01*
X155743709Y-54763670D01*
X155743708Y-54763669D01*
X155600000Y-54744750D01*
X155456291Y-54763669D01*
X155456290Y-54763670D01*
X155322378Y-54819137D01*
X155322374Y-54819139D01*
X155207381Y-54907377D01*
X155207377Y-54907381D01*
X155119139Y-55022374D01*
X155119137Y-55022378D01*
X155063670Y-55156290D01*
X155063669Y-55156291D01*
X155044750Y-55299999D01*
X155044750Y-55300000D01*
X152095682Y-55300000D01*
X153466186Y-53929496D01*
X153520703Y-53901719D01*
X153536190Y-53900500D01*
X154576236Y-53900500D01*
X154634427Y-53919407D01*
X154654777Y-53939231D01*
X154657376Y-53942618D01*
X154657377Y-53942619D01*
X154657379Y-53942621D01*
X154772375Y-54030861D01*
X154906291Y-54086330D01*
X155050000Y-54105250D01*
X155193709Y-54086330D01*
X155327625Y-54030861D01*
X155442621Y-53942621D01*
X155530861Y-53827625D01*
X155586330Y-53693709D01*
X155605250Y-53550000D01*
X155586330Y-53406291D01*
X155530861Y-53272375D01*
X155442621Y-53157379D01*
X155327625Y-53069139D01*
X155327621Y-53069137D01*
X155193709Y-53013670D01*
X155193708Y-53013669D01*
X155050000Y-52994750D01*
X154906291Y-53013669D01*
X154906290Y-53013670D01*
X154772378Y-53069137D01*
X154772374Y-53069139D01*
X154657376Y-53157381D01*
X154654777Y-53160769D01*
X154604351Y-53195424D01*
X154576236Y-53199500D01*
X153303856Y-53199500D01*
X153275927Y-53206983D01*
X153220069Y-53221950D01*
X153214712Y-53223385D01*
X153214708Y-53223387D01*
X153134790Y-53269528D01*
X150688457Y-55715861D01*
X150633940Y-55743638D01*
X150573508Y-55734067D01*
X150530243Y-55690802D01*
X150527003Y-55683775D01*
X150480861Y-55572375D01*
X150392621Y-55457379D01*
X150277625Y-55369139D01*
X150277621Y-55369137D01*
X150143709Y-55313670D01*
X150143708Y-55313669D01*
X150000000Y-55294750D01*
X149856291Y-55313669D01*
X149856290Y-55313670D01*
X149722378Y-55369137D01*
X149722374Y-55369139D01*
X149607381Y-55457377D01*
X149607377Y-55457381D01*
X149519139Y-55572374D01*
X149519137Y-55572378D01*
X149463670Y-55706290D01*
X149463669Y-55706291D01*
X149444750Y-55849999D01*
X149445748Y-55857583D01*
X149434595Y-55917743D01*
X149390210Y-55959858D01*
X149347594Y-55969500D01*
X149150826Y-55969500D01*
X149150814Y-55969501D01*
X149105240Y-55975500D01*
X149041837Y-56005065D01*
X148981108Y-56012521D01*
X148958160Y-56005065D01*
X148933807Y-55993709D01*
X148894760Y-55975501D01*
X148849179Y-55969500D01*
X148849177Y-55969500D01*
X148650826Y-55969500D01*
X148650814Y-55969501D01*
X148605240Y-55975500D01*
X148541837Y-56005065D01*
X148481108Y-56012521D01*
X148458160Y-56005065D01*
X148433807Y-55993709D01*
X148394760Y-55975501D01*
X148349179Y-55969500D01*
X148349177Y-55969500D01*
X148150826Y-55969500D01*
X148150814Y-55969501D01*
X148105240Y-55975500D01*
X148041837Y-56005065D01*
X147981108Y-56012521D01*
X147958160Y-56005065D01*
X147933807Y-55993709D01*
X147894760Y-55975501D01*
X147849179Y-55969500D01*
X147849177Y-55969500D01*
X147650826Y-55969500D01*
X147650814Y-55969501D01*
X147605240Y-55975500D01*
X147541837Y-56005065D01*
X147481108Y-56012521D01*
X147458160Y-56005065D01*
X147433807Y-55993709D01*
X147394760Y-55975501D01*
X147349179Y-55969500D01*
X147349177Y-55969500D01*
X147150826Y-55969500D01*
X147150814Y-55969501D01*
X147105240Y-55975500D01*
X147041837Y-56005065D01*
X146981108Y-56012521D01*
X146958160Y-56005065D01*
X146933807Y-55993709D01*
X146894760Y-55975501D01*
X146849179Y-55969500D01*
X146849177Y-55969500D01*
X146650826Y-55969500D01*
X146650814Y-55969501D01*
X146605240Y-55975500D01*
X146605238Y-55975500D01*
X146505203Y-56022148D01*
X146427150Y-56100201D01*
X146380501Y-56200240D01*
X146380501Y-56200241D01*
X146374500Y-56245822D01*
X146374500Y-56845500D01*
X146355593Y-56903691D01*
X146306093Y-56939655D01*
X146275500Y-56944500D01*
X145699390Y-56944500D01*
X145641199Y-56925593D01*
X145629386Y-56915504D01*
X145304496Y-56590614D01*
X145276719Y-56536097D01*
X145275500Y-56520610D01*
X145275500Y-56120709D01*
X145268660Y-56095182D01*
X145251614Y-56031564D01*
X145229758Y-55993709D01*
X145205470Y-55951640D01*
X145052898Y-55799068D01*
X144890568Y-55636737D01*
X144862791Y-55582221D01*
X144861572Y-55566734D01*
X144861572Y-55530003D01*
X144861572Y-55530002D01*
X144837686Y-55440858D01*
X144837203Y-55440021D01*
X144837198Y-55440012D01*
X144837198Y-55440011D01*
X144791544Y-55360937D01*
X144791539Y-55360931D01*
X144756411Y-55325802D01*
X144733386Y-55289659D01*
X144705479Y-55212988D01*
X144705479Y-55212987D01*
X144676370Y-55175052D01*
X144374947Y-54873630D01*
X144337013Y-54844521D01*
X144260336Y-54816612D01*
X144224198Y-54793590D01*
X144189066Y-54758458D01*
X144189063Y-54758456D01*
X144189059Y-54758452D01*
X144183920Y-54754509D01*
X144184822Y-54753332D01*
X144148901Y-54713440D01*
X144141187Y-54660249D01*
X144155771Y-54549479D01*
X144140154Y-54430862D01*
X144136851Y-54405770D01*
X144081382Y-54271854D01*
X143993142Y-54156858D01*
X143878146Y-54068618D01*
X143878142Y-54068616D01*
X143744230Y-54013149D01*
X143744229Y-54013148D01*
X143600521Y-53994229D01*
X143456812Y-54013148D01*
X143456811Y-54013149D01*
X143322899Y-54068616D01*
X143322895Y-54068618D01*
X143207902Y-54156856D01*
X143207898Y-54156860D01*
X143119660Y-54271853D01*
X143119658Y-54271857D01*
X143064191Y-54405769D01*
X143049859Y-54514629D01*
X143023518Y-54569854D01*
X142969747Y-54599048D01*
X142964629Y-54599859D01*
X142855769Y-54614191D01*
X142721857Y-54669658D01*
X142721853Y-54669660D01*
X142606860Y-54757898D01*
X142606856Y-54757902D01*
X142518618Y-54872895D01*
X142518616Y-54872899D01*
X142463149Y-55006811D01*
X142463148Y-55006812D01*
X142444229Y-55150520D01*
X142444229Y-55150521D01*
X142463148Y-55294229D01*
X142463149Y-55294230D01*
X142490779Y-55360937D01*
X142518618Y-55428146D01*
X142606858Y-55543142D01*
X142721854Y-55631382D01*
X142855770Y-55686851D01*
X142999479Y-55705771D01*
X143095515Y-55693127D01*
X143155674Y-55704277D01*
X143194171Y-55741778D01*
X143198408Y-55749116D01*
X143233540Y-55784248D01*
X143256562Y-55820386D01*
X143284471Y-55897063D01*
X143284471Y-55897064D01*
X143289683Y-55903856D01*
X143313579Y-55934997D01*
X143615003Y-56236420D01*
X143652937Y-56265529D01*
X143729609Y-56293435D01*
X143765752Y-56316461D01*
X143800881Y-56351589D01*
X143800887Y-56351594D01*
X143880804Y-56397734D01*
X143880802Y-56397734D01*
X143880806Y-56397735D01*
X143880808Y-56397736D01*
X143969952Y-56421622D01*
X144006685Y-56421622D01*
X144064876Y-56440529D01*
X144076687Y-56450617D01*
X144095502Y-56469431D01*
X144123281Y-56523946D01*
X144124500Y-56539436D01*
X144124500Y-56939344D01*
X144145679Y-57018386D01*
X144145680Y-57018389D01*
X144148385Y-57028488D01*
X144148387Y-57028491D01*
X144194529Y-57108411D01*
X144482279Y-57396162D01*
X144510056Y-57450678D01*
X144500485Y-57511110D01*
X144457220Y-57554375D01*
X144450163Y-57557628D01*
X144422377Y-57569137D01*
X144422374Y-57569139D01*
X144307381Y-57657377D01*
X144307377Y-57657381D01*
X144219139Y-57772374D01*
X144219137Y-57772378D01*
X144163670Y-57906290D01*
X144163669Y-57906291D01*
X144144750Y-58049999D01*
X144144750Y-58050000D01*
X144163669Y-58193708D01*
X144163670Y-58193709D01*
X144217115Y-58322740D01*
X144221915Y-58383737D01*
X144189946Y-58435906D01*
X144163537Y-58452089D01*
X144122376Y-58469138D01*
X144122374Y-58469139D01*
X144007381Y-58557377D01*
X144007377Y-58557381D01*
X143919139Y-58672374D01*
X143919137Y-58672378D01*
X143863670Y-58806290D01*
X143863669Y-58806291D01*
X143844750Y-58949999D01*
X143844750Y-58950000D01*
X143863035Y-59088891D01*
X143863670Y-59093709D01*
X143892212Y-59162616D01*
X143897011Y-59223612D01*
X143865041Y-59275781D01*
X143808513Y-59299195D01*
X143800747Y-59299500D01*
X142849500Y-59299500D01*
X142791309Y-59280593D01*
X142755345Y-59231093D01*
X142750500Y-59200500D01*
X142750500Y-58175327D01*
X142750498Y-58175315D01*
X142736056Y-58102714D01*
X142735966Y-58102260D01*
X142701047Y-58049999D01*
X142680602Y-58019400D01*
X142680599Y-58019397D01*
X142680346Y-58019228D01*
X142680033Y-58018831D01*
X142673706Y-58012504D01*
X142674454Y-58011755D01*
X142642465Y-57971179D01*
X142640061Y-57910041D01*
X142665341Y-57866908D01*
X142679859Y-57852391D01*
X142736017Y-57742175D01*
X142750500Y-57650735D01*
X142750499Y-57249266D01*
X142750499Y-57249263D01*
X142750499Y-57249262D01*
X142744700Y-57212649D01*
X142736017Y-57157825D01*
X142679859Y-57047609D01*
X142592391Y-56960141D01*
X142482175Y-56903983D01*
X142482176Y-56903983D01*
X142390736Y-56889500D01*
X142049262Y-56889500D01*
X141957825Y-56903983D01*
X141957821Y-56903984D01*
X141847610Y-56960140D01*
X141760140Y-57047610D01*
X141703983Y-57157823D01*
X141689500Y-57249263D01*
X141689500Y-57650737D01*
X141703983Y-57742174D01*
X141703983Y-57742176D01*
X141736277Y-57805555D01*
X141745848Y-57865987D01*
X141718071Y-57920503D01*
X141663554Y-57948281D01*
X141648067Y-57949500D01*
X141475326Y-57949500D01*
X141475325Y-57949500D01*
X141475315Y-57949501D01*
X141402263Y-57964033D01*
X141402257Y-57964035D01*
X141319400Y-58019397D01*
X141319397Y-58019400D01*
X141264035Y-58102257D01*
X141264033Y-58102263D01*
X141249501Y-58175315D01*
X141249500Y-58175327D01*
X141249500Y-59374672D01*
X141249501Y-59374684D01*
X141264033Y-59447736D01*
X141264035Y-59447742D01*
X141319397Y-59530599D01*
X141319400Y-59530602D01*
X141340051Y-59544400D01*
X141402260Y-59585966D01*
X141457808Y-59597015D01*
X141475315Y-59600498D01*
X141475320Y-59600498D01*
X141475326Y-59600500D01*
X141625011Y-59600500D01*
X141683202Y-59619407D01*
X141710746Y-59649998D01*
X141719530Y-59665212D01*
X141984788Y-59930470D01*
X142023819Y-59953004D01*
X142052391Y-59969501D01*
X142052390Y-59969501D01*
X142061447Y-59974729D01*
X142064712Y-59976614D01*
X142153856Y-60000500D01*
X142153857Y-60000500D01*
X142246144Y-60000500D01*
X142550500Y-60000500D01*
X142608691Y-60019407D01*
X142644655Y-60068907D01*
X142649500Y-60099500D01*
X142649500Y-61050000D01*
X141100000Y-61050000D01*
X141100000Y-68250000D01*
X142908834Y-68250000D01*
X142881093Y-68270155D01*
X142850500Y-68275000D01*
X139949500Y-68275000D01*
X139891309Y-68256093D01*
X139855345Y-68206593D01*
X139850500Y-68176000D01*
X139850500Y-52221158D01*
X143999500Y-52221158D01*
X144036334Y-52358625D01*
X144107492Y-52481875D01*
X144208125Y-52582508D01*
X144331375Y-52653666D01*
X144468842Y-52690500D01*
X144468844Y-52690500D01*
X145031156Y-52690500D01*
X145031158Y-52690500D01*
X145168625Y-52653666D01*
X145291875Y-52582508D01*
X145392508Y-52481875D01*
X145463666Y-52358625D01*
X145500500Y-52221158D01*
X145500500Y-52150000D01*
X146744750Y-52150000D01*
X146763669Y-52293708D01*
X146763670Y-52293709D01*
X146809293Y-52403856D01*
X146819139Y-52427625D01*
X146907379Y-52542621D01*
X147021320Y-52630051D01*
X147055975Y-52680476D01*
X147054373Y-52741640D01*
X147049993Y-52752072D01*
X147000418Y-52853480D01*
X146996050Y-52883456D01*
X146989500Y-52928418D01*
X146989500Y-53371582D01*
X147000418Y-53446518D01*
X147056924Y-53562102D01*
X147147898Y-53653076D01*
X147263482Y-53709582D01*
X147338418Y-53720500D01*
X147362077Y-53720500D01*
X147420268Y-53739407D01*
X147456232Y-53788907D01*
X147460229Y-53832421D01*
X147445721Y-53942622D01*
X147444750Y-53950000D01*
X147463669Y-54093708D01*
X147463670Y-54093709D01*
X147489827Y-54156860D01*
X147519139Y-54227625D01*
X147607379Y-54342621D01*
X147722375Y-54430861D01*
X147856291Y-54486330D01*
X148000000Y-54505250D01*
X148143709Y-54486330D01*
X148277625Y-54430861D01*
X148389733Y-54344836D01*
X148447408Y-54324413D01*
X148506074Y-54341790D01*
X148510247Y-54344822D01*
X148622375Y-54430861D01*
X148756291Y-54486330D01*
X148900000Y-54505250D01*
X149043709Y-54486330D01*
X149177625Y-54430861D01*
X149292621Y-54342621D01*
X149380861Y-54227625D01*
X149436330Y-54093709D01*
X149455250Y-53950000D01*
X149436330Y-53806291D01*
X149380861Y-53672375D01*
X149292621Y-53557379D01*
X149292619Y-53557377D01*
X149292618Y-53557376D01*
X149289231Y-53554777D01*
X149254576Y-53504351D01*
X149250500Y-53476236D01*
X149250500Y-52622995D01*
X149269407Y-52564804D01*
X149318907Y-52528840D01*
X149380093Y-52528840D01*
X149409763Y-52544450D01*
X149522375Y-52630861D01*
X149656291Y-52686330D01*
X149800000Y-52705250D01*
X149943709Y-52686330D01*
X150077625Y-52630861D01*
X150192621Y-52542621D01*
X150280861Y-52427625D01*
X150336330Y-52293709D01*
X150345188Y-52226424D01*
X151669500Y-52226424D01*
X151687529Y-52293708D01*
X151709061Y-52374069D01*
X151785480Y-52506430D01*
X151785482Y-52506432D01*
X151785484Y-52506435D01*
X151893565Y-52614516D01*
X151893567Y-52614517D01*
X151893569Y-52614519D01*
X152025931Y-52690938D01*
X152025929Y-52690938D01*
X152025933Y-52690939D01*
X152025935Y-52690940D01*
X152173576Y-52730500D01*
X152173578Y-52730500D01*
X152326422Y-52730500D01*
X152326424Y-52730500D01*
X152474065Y-52690940D01*
X152474067Y-52690938D01*
X152474069Y-52690938D01*
X152606430Y-52614519D01*
X152606430Y-52614518D01*
X152606435Y-52614516D01*
X152714516Y-52506435D01*
X152728696Y-52481874D01*
X152790938Y-52374069D01*
X152790938Y-52374067D01*
X152790940Y-52374065D01*
X152830500Y-52226424D01*
X152830500Y-52073576D01*
X152790940Y-51925935D01*
X152790938Y-51925932D01*
X152790938Y-51925930D01*
X152714519Y-51793569D01*
X152714517Y-51793567D01*
X152714516Y-51793565D01*
X152606435Y-51685484D01*
X152606432Y-51685482D01*
X152606430Y-51685480D01*
X152474068Y-51609061D01*
X152474070Y-51609061D01*
X152416784Y-51593711D01*
X152326424Y-51569500D01*
X152173576Y-51569500D01*
X152083215Y-51593711D01*
X152025930Y-51609061D01*
X151893569Y-51685480D01*
X151785480Y-51793569D01*
X151709061Y-51925930D01*
X151709060Y-51925935D01*
X151669500Y-52073576D01*
X151669500Y-52226424D01*
X150345188Y-52226424D01*
X150355250Y-52150000D01*
X150336330Y-52006291D01*
X150280861Y-51872375D01*
X150192621Y-51757379D01*
X150077625Y-51669139D01*
X150077624Y-51669138D01*
X150019536Y-51645078D01*
X149973011Y-51605341D01*
X149958727Y-51545847D01*
X149968479Y-51510138D01*
X149999582Y-51446518D01*
X150010500Y-51371582D01*
X150010500Y-50928418D01*
X149999582Y-50853482D01*
X149951783Y-50755709D01*
X149943213Y-50695131D01*
X149962183Y-50651965D01*
X149980861Y-50627625D01*
X150036330Y-50493709D01*
X150055250Y-50350000D01*
X150036330Y-50206291D01*
X149980861Y-50072375D01*
X149892621Y-49957379D01*
X149777625Y-49869139D01*
X149777621Y-49869137D01*
X149643709Y-49813670D01*
X149643708Y-49813669D01*
X149500000Y-49794750D01*
X149356291Y-49813669D01*
X149356290Y-49813670D01*
X149222378Y-49869137D01*
X149222374Y-49869139D01*
X149107381Y-49957377D01*
X149107377Y-49957381D01*
X149019139Y-50072374D01*
X149019137Y-50072378D01*
X148963670Y-50206290D01*
X148963669Y-50206291D01*
X148944750Y-50349999D01*
X148944750Y-50350000D01*
X148963669Y-50493708D01*
X148963670Y-50493709D01*
X149019137Y-50627621D01*
X149019139Y-50627625D01*
X149025600Y-50636045D01*
X149046023Y-50693721D01*
X149035998Y-50739791D01*
X149008696Y-50795638D01*
X148980418Y-50853482D01*
X148969500Y-50928418D01*
X148969500Y-51371582D01*
X148980418Y-51446518D01*
X149036924Y-51562102D01*
X149127898Y-51653076D01*
X149243482Y-51709582D01*
X149256871Y-51711532D01*
X149311727Y-51738631D01*
X149340179Y-51792798D01*
X149331359Y-51853344D01*
X149321146Y-51869758D01*
X149319142Y-51872369D01*
X149319137Y-51872378D01*
X149263670Y-52006290D01*
X149263670Y-52006291D01*
X149253611Y-52082692D01*
X149227269Y-52137917D01*
X149173498Y-52167111D01*
X149112837Y-52159125D01*
X149085457Y-52139775D01*
X148479496Y-51533814D01*
X148451719Y-51479297D01*
X148450500Y-51463810D01*
X148450500Y-50823762D01*
X148469407Y-50765571D01*
X148489234Y-50745219D01*
X148492621Y-50742621D01*
X148580861Y-50627625D01*
X148636330Y-50493709D01*
X148655250Y-50350000D01*
X148636330Y-50206291D01*
X148580861Y-50072375D01*
X148492621Y-49957379D01*
X148377625Y-49869139D01*
X148377621Y-49869137D01*
X148243709Y-49813670D01*
X148243708Y-49813669D01*
X148100000Y-49794750D01*
X147956291Y-49813669D01*
X147956290Y-49813670D01*
X147822378Y-49869137D01*
X147822374Y-49869139D01*
X147707381Y-49957377D01*
X147707377Y-49957381D01*
X147619139Y-50072374D01*
X147619137Y-50072378D01*
X147563670Y-50206290D01*
X147563669Y-50206291D01*
X147544750Y-50349999D01*
X147544750Y-50350000D01*
X147563669Y-50493708D01*
X147563670Y-50493709D01*
X147619139Y-50627625D01*
X147619141Y-50627628D01*
X147619142Y-50627629D01*
X147707375Y-50742617D01*
X147707377Y-50742618D01*
X147707379Y-50742621D01*
X147710763Y-50745217D01*
X147745421Y-50795638D01*
X147749500Y-50823762D01*
X147749500Y-51600271D01*
X147730593Y-51658462D01*
X147681093Y-51694426D01*
X147619907Y-51694426D01*
X147590232Y-51678813D01*
X147577625Y-51669139D01*
X147577621Y-51669137D01*
X147443709Y-51613670D01*
X147443708Y-51613669D01*
X147300000Y-51594750D01*
X147156291Y-51613669D01*
X147156290Y-51613670D01*
X147022378Y-51669137D01*
X147022374Y-51669139D01*
X146907381Y-51757377D01*
X146907377Y-51757381D01*
X146819139Y-51872374D01*
X146819137Y-51872378D01*
X146763670Y-52006290D01*
X146763669Y-52006291D01*
X146744750Y-52149999D01*
X146744750Y-52150000D01*
X145500500Y-52150000D01*
X145500500Y-52078842D01*
X145463666Y-51941375D01*
X145392508Y-51818125D01*
X145291875Y-51717492D01*
X145168625Y-51646334D01*
X145031158Y-51609500D01*
X144468842Y-51609500D01*
X144331375Y-51646334D01*
X144208125Y-51717492D01*
X144107492Y-51818125D01*
X144036334Y-51941375D01*
X143999500Y-52078842D01*
X143999500Y-52221158D01*
X139850500Y-52221158D01*
X139850500Y-45950003D01*
X149944417Y-45950003D01*
X149964698Y-46155929D01*
X149964699Y-46155934D01*
X150024768Y-46353954D01*
X150122316Y-46536452D01*
X150253585Y-46696404D01*
X150253590Y-46696410D01*
X150253595Y-46696414D01*
X150413547Y-46827683D01*
X150413548Y-46827683D01*
X150413550Y-46827685D01*
X150596046Y-46925232D01*
X150733997Y-46967078D01*
X150794065Y-46985300D01*
X150794070Y-46985301D01*
X150999997Y-47005583D01*
X151000000Y-47005583D01*
X151000003Y-47005583D01*
X151205929Y-46985301D01*
X151205934Y-46985300D01*
X151403954Y-46925232D01*
X151586450Y-46827685D01*
X151746410Y-46696410D01*
X151877685Y-46536450D01*
X151975232Y-46353954D01*
X152035300Y-46155934D01*
X152035301Y-46155929D01*
X152055583Y-45950003D01*
X152055583Y-45949996D01*
X152035301Y-45744070D01*
X152035300Y-45744065D01*
X152017078Y-45683997D01*
X151975232Y-45546046D01*
X151877685Y-45363550D01*
X151746410Y-45203590D01*
X151746404Y-45203585D01*
X151586452Y-45072316D01*
X151403954Y-44974768D01*
X151205934Y-44914699D01*
X151205929Y-44914698D01*
X151000003Y-44894417D01*
X150999997Y-44894417D01*
X150794070Y-44914698D01*
X150794065Y-44914699D01*
X150596045Y-44974768D01*
X150413547Y-45072316D01*
X150253595Y-45203585D01*
X150253585Y-45203595D01*
X150122316Y-45363547D01*
X150024768Y-45546045D01*
X149964699Y-45744065D01*
X149964698Y-45744070D01*
X149944417Y-45949996D01*
X149944417Y-45950003D01*
X139850500Y-45950003D01*
X139850500Y-42549500D01*
X139869407Y-42491309D01*
X139918907Y-42455345D01*
X139949500Y-42450500D01*
X141074673Y-42450500D01*
X141074674Y-42450500D01*
X141147740Y-42435966D01*
X141230601Y-42380601D01*
X141285966Y-42297740D01*
X141292973Y-42262509D01*
X141322871Y-42209127D01*
X141378436Y-42183512D01*
X141438445Y-42195449D01*
X141460075Y-42211822D01*
X142009513Y-42761260D01*
X142009515Y-42761263D01*
X142088737Y-42840485D01*
X142142227Y-42871367D01*
X142183167Y-42916836D01*
X142189563Y-42977686D01*
X142158970Y-43030674D01*
X142103074Y-43055561D01*
X142079804Y-43055256D01*
X142000001Y-43044750D01*
X142000000Y-43044750D01*
X141856291Y-43063669D01*
X141856290Y-43063670D01*
X141722378Y-43119137D01*
X141722374Y-43119139D01*
X141607381Y-43207377D01*
X141607377Y-43207381D01*
X141519139Y-43322374D01*
X141519137Y-43322378D01*
X141463670Y-43456290D01*
X141463669Y-43456291D01*
X141444750Y-43599999D01*
X141444750Y-43600000D01*
X141463669Y-43743708D01*
X141463670Y-43743709D01*
X141519139Y-43877625D01*
X141607379Y-43992621D01*
X141722375Y-44080861D01*
X141856291Y-44136330D01*
X142000000Y-44155250D01*
X142143709Y-44136330D01*
X142277625Y-44080861D01*
X142392621Y-43992621D01*
X142480861Y-43877625D01*
X142536330Y-43743709D01*
X142555250Y-43600000D01*
X142536330Y-43456291D01*
X142480861Y-43322375D01*
X142392621Y-43207379D01*
X142277625Y-43119139D01*
X142277622Y-43119137D01*
X142269960Y-43115964D01*
X142223434Y-43076228D01*
X142209150Y-43016734D01*
X142232564Y-42960205D01*
X142284733Y-42928236D01*
X142307845Y-42925500D01*
X144709314Y-42925500D01*
X144767505Y-42944407D01*
X144779317Y-42954496D01*
X144827896Y-43003074D01*
X144827898Y-43003076D01*
X144943482Y-43059582D01*
X145018418Y-43070500D01*
X145018421Y-43070500D01*
X145361578Y-43070500D01*
X145361582Y-43070500D01*
X145436518Y-43059582D01*
X145552102Y-43003076D01*
X145643076Y-42912102D01*
X145699582Y-42796518D01*
X145710500Y-42721582D01*
X145710500Y-42278418D01*
X145699582Y-42203482D01*
X145643076Y-42087898D01*
X145552102Y-41996924D01*
X145436518Y-41940418D01*
X145361582Y-41929500D01*
X145018418Y-41929500D01*
X144943482Y-41940418D01*
X144827899Y-41996923D01*
X144827896Y-41996925D01*
X144779317Y-42045504D01*
X144724800Y-42073281D01*
X144709314Y-42074500D01*
X142567255Y-42074500D01*
X142509064Y-42055593D01*
X142497251Y-42045504D01*
X142121154Y-41669407D01*
X141711263Y-41259515D01*
X141711260Y-41259513D01*
X141614240Y-41203498D01*
X141614242Y-41203498D01*
X141572251Y-41192247D01*
X141506018Y-41174500D01*
X141506016Y-41174500D01*
X141399500Y-41174500D01*
X141341309Y-41155593D01*
X141305345Y-41106093D01*
X141300500Y-41075500D01*
X141300500Y-40975327D01*
X141300498Y-40975315D01*
X141290241Y-40923752D01*
X141285966Y-40902260D01*
X141283274Y-40898231D01*
X141230602Y-40819400D01*
X141230599Y-40819397D01*
X141147742Y-40764035D01*
X141147740Y-40764034D01*
X141147737Y-40764033D01*
X141147736Y-40764033D01*
X141074684Y-40749501D01*
X141074674Y-40749500D01*
X141074673Y-40749500D01*
X139949500Y-40749500D01*
X139891309Y-40730593D01*
X139855345Y-40681093D01*
X139850500Y-40650500D01*
X139850500Y-40549500D01*
X139869407Y-40491309D01*
X139918907Y-40455345D01*
X139949500Y-40450500D01*
X141074673Y-40450500D01*
X141074674Y-40450500D01*
X141147740Y-40435966D01*
X141230601Y-40380601D01*
X141285966Y-40297740D01*
X141300500Y-40224674D01*
X141300500Y-40124500D01*
X141319407Y-40066309D01*
X141368907Y-40030345D01*
X141399500Y-40025500D01*
X141406016Y-40025500D01*
X141406018Y-40025500D01*
X141514237Y-39996503D01*
X141514239Y-39996501D01*
X141514241Y-39996501D01*
X141567149Y-39965954D01*
X141611263Y-39940485D01*
X142340485Y-39211263D01*
X142396503Y-39114237D01*
X142425500Y-39006018D01*
X142425500Y-38893981D01*
X142425500Y-38207256D01*
X142444407Y-38149065D01*
X142454496Y-38137252D01*
X142492252Y-38099496D01*
X142546769Y-38071719D01*
X142562256Y-38070500D01*
X142661578Y-38070500D01*
X142661582Y-38070500D01*
X142736518Y-38059582D01*
X142852102Y-38003076D01*
X142929998Y-37925179D01*
X142984513Y-37897404D01*
X143044945Y-37906975D01*
X143070000Y-37925178D01*
X143147898Y-38003076D01*
X143263482Y-38059582D01*
X143338418Y-38070500D01*
X143338421Y-38070500D01*
X143523745Y-38070500D01*
X143581936Y-38089407D01*
X143617900Y-38138907D01*
X143617900Y-38200093D01*
X143593748Y-38239504D01*
X143438736Y-38394515D01*
X143359514Y-38473737D01*
X143303498Y-38570758D01*
X143274500Y-38678983D01*
X143274500Y-39450500D01*
X143255593Y-39508691D01*
X143206093Y-39544655D01*
X143175500Y-39549500D01*
X142925326Y-39549500D01*
X142925325Y-39549500D01*
X142925315Y-39549501D01*
X142852263Y-39564033D01*
X142852257Y-39564035D01*
X142769400Y-39619397D01*
X142769397Y-39619400D01*
X142714035Y-39702257D01*
X142714033Y-39702263D01*
X142699501Y-39775315D01*
X142699500Y-39775327D01*
X142699500Y-41424672D01*
X142699501Y-41424684D01*
X142714033Y-41497736D01*
X142714035Y-41497742D01*
X142769397Y-41580599D01*
X142769399Y-41580601D01*
X142852260Y-41635966D01*
X142907808Y-41647015D01*
X142925315Y-41650498D01*
X142925320Y-41650498D01*
X142925326Y-41650500D01*
X142925327Y-41650500D01*
X144474673Y-41650500D01*
X144474674Y-41650500D01*
X144547740Y-41635966D01*
X144630601Y-41580601D01*
X144685966Y-41497740D01*
X144700500Y-41424674D01*
X144700500Y-39775326D01*
X144685966Y-39702260D01*
X144645315Y-39641420D01*
X144630602Y-39619400D01*
X144630599Y-39619397D01*
X144547742Y-39564035D01*
X144547740Y-39564034D01*
X144547737Y-39564033D01*
X144547736Y-39564033D01*
X144474684Y-39549501D01*
X144474674Y-39549500D01*
X144474673Y-39549500D01*
X144224500Y-39549500D01*
X144166309Y-39530593D01*
X144130345Y-39481093D01*
X144125500Y-39450500D01*
X144125500Y-38952256D01*
X144144407Y-38894065D01*
X144154496Y-38882252D01*
X144297252Y-38739496D01*
X144351769Y-38711719D01*
X144367256Y-38710500D01*
X144868100Y-38710500D01*
X144926291Y-38729407D01*
X144938102Y-38739495D01*
X144953015Y-38754407D01*
X144961658Y-38763050D01*
X145074696Y-38820646D01*
X145168481Y-38835500D01*
X146881518Y-38835499D01*
X146881521Y-38835499D01*
X146881522Y-38835498D01*
X146928411Y-38828072D01*
X146975299Y-38820647D01*
X146975299Y-38820646D01*
X146975304Y-38820646D01*
X147088342Y-38763050D01*
X147178050Y-38673342D01*
X147235646Y-38560304D01*
X147250500Y-38466519D01*
X147250499Y-38198454D01*
X147269406Y-38140265D01*
X147318906Y-38104301D01*
X147362419Y-38100302D01*
X147400000Y-38105250D01*
X147543709Y-38086330D01*
X147677625Y-38030861D01*
X147792621Y-37942621D01*
X147880861Y-37827625D01*
X147936330Y-37693709D01*
X147955250Y-37550000D01*
X147954435Y-37543813D01*
X147936330Y-37406291D01*
X147880861Y-37272375D01*
X147845958Y-37226888D01*
X147825534Y-37169212D01*
X147825500Y-37166621D01*
X147825500Y-37143983D01*
X147825500Y-37143982D01*
X147796503Y-37035763D01*
X147796501Y-37035760D01*
X147796501Y-37035758D01*
X147740485Y-36938737D01*
X147661264Y-36859515D01*
X147476262Y-36674514D01*
X147379240Y-36618498D01*
X147379242Y-36618498D01*
X147337251Y-36607247D01*
X147271018Y-36589500D01*
X147271016Y-36589500D01*
X147181900Y-36589500D01*
X147123709Y-36570593D01*
X147111898Y-36560505D01*
X147088344Y-36536952D01*
X147088342Y-36536950D01*
X146975304Y-36479354D01*
X146975306Y-36479354D01*
X146965372Y-36477781D01*
X146910856Y-36450002D01*
X146883080Y-36395485D01*
X146892652Y-36335053D01*
X146935917Y-36291790D01*
X146965376Y-36282218D01*
X146975304Y-36280646D01*
X147088342Y-36223050D01*
X147178050Y-36133342D01*
X147235646Y-36020304D01*
X147250500Y-35926519D01*
X147250499Y-35841253D01*
X147269406Y-35783065D01*
X147318905Y-35747101D01*
X147380091Y-35747100D01*
X147419503Y-35771251D01*
G37*
%TD.AperFunction*%
%TA.AperFunction,Conductor*%
G36*
X144653427Y-60894407D02*
G01*
X144689391Y-60943907D01*
X144693388Y-60961573D01*
X144693668Y-60963704D01*
X144695349Y-60969975D01*
X144692280Y-60970797D01*
X144696032Y-61018933D01*
X144676962Y-61050000D01*
X144150500Y-61050000D01*
X144150500Y-60974500D01*
X144169407Y-60916309D01*
X144218907Y-60880345D01*
X144249500Y-60875500D01*
X144595236Y-60875500D01*
X144653427Y-60894407D01*
G37*
%TD.AperFunction*%
%TA.AperFunction,Conductor*%
G36*
X150041834Y-57234932D02*
G01*
X150105240Y-57264499D01*
X150150821Y-57270500D01*
X150200500Y-57270499D01*
X150258689Y-57289405D01*
X150294654Y-57338905D01*
X150299500Y-57369497D01*
X150299500Y-57419173D01*
X150299501Y-57419185D01*
X150305500Y-57464757D01*
X150335065Y-57528161D01*
X150342521Y-57588891D01*
X150335065Y-57611838D01*
X150305502Y-57675237D01*
X150305501Y-57675241D01*
X150299500Y-57720822D01*
X150299500Y-57919173D01*
X150299501Y-57919185D01*
X150305500Y-57964757D01*
X150305500Y-57964758D01*
X150305501Y-57964760D01*
X150320218Y-57996322D01*
X150335065Y-58028161D01*
X150342521Y-58088891D01*
X150335065Y-58111838D01*
X150305502Y-58175237D01*
X150305501Y-58175240D01*
X150303070Y-58193709D01*
X150299500Y-58220822D01*
X150299500Y-58419173D01*
X150299501Y-58419185D01*
X150305500Y-58464757D01*
X150305500Y-58464758D01*
X150305501Y-58464760D01*
X150307543Y-58469139D01*
X150335065Y-58528161D01*
X150342521Y-58588891D01*
X150335065Y-58611838D01*
X150305502Y-58675237D01*
X150305501Y-58675241D01*
X150299500Y-58720822D01*
X150299500Y-58919173D01*
X150299501Y-58919185D01*
X150305500Y-58964757D01*
X150335065Y-59028161D01*
X150342521Y-59088891D01*
X150335065Y-59111838D01*
X150305502Y-59175237D01*
X150305501Y-59175240D01*
X150302176Y-59200500D01*
X150299500Y-59220822D01*
X150299500Y-59419173D01*
X150299501Y-59419185D01*
X150305500Y-59464757D01*
X150305500Y-59464758D01*
X150305501Y-59464760D01*
X150316820Y-59489033D01*
X150335065Y-59528161D01*
X150342521Y-59588891D01*
X150335065Y-59611838D01*
X150305502Y-59675237D01*
X150305501Y-59675241D01*
X150299500Y-59720822D01*
X150299500Y-59919173D01*
X150299501Y-59919185D01*
X150305500Y-59964757D01*
X150305500Y-59964758D01*
X150305501Y-59964760D01*
X150307712Y-59969501D01*
X150335065Y-60028161D01*
X150342521Y-60088891D01*
X150335065Y-60111838D01*
X150305502Y-60175237D01*
X150305501Y-60175241D01*
X150299500Y-60220822D01*
X150299500Y-60419173D01*
X150299501Y-60419185D01*
X150305500Y-60464757D01*
X150335065Y-60528161D01*
X150342521Y-60588891D01*
X150335065Y-60611838D01*
X150305502Y-60675237D01*
X150305501Y-60675241D01*
X150299500Y-60720822D01*
X150299500Y-60770500D01*
X150280593Y-60828691D01*
X150231093Y-60864655D01*
X150200502Y-60869500D01*
X150150826Y-60869500D01*
X150150814Y-60869501D01*
X150105240Y-60875500D01*
X150041837Y-60905065D01*
X149981108Y-60912521D01*
X149958160Y-60905065D01*
X149915748Y-60885288D01*
X149894760Y-60875501D01*
X149849179Y-60869500D01*
X149849177Y-60869500D01*
X149650826Y-60869500D01*
X149650814Y-60869501D01*
X149605240Y-60875500D01*
X149541837Y-60905065D01*
X149481108Y-60912521D01*
X149458160Y-60905065D01*
X149415748Y-60885288D01*
X149394760Y-60875501D01*
X149349179Y-60869500D01*
X149349177Y-60869500D01*
X149150826Y-60869500D01*
X149150814Y-60869501D01*
X149105240Y-60875500D01*
X149041837Y-60905065D01*
X148981108Y-60912521D01*
X148958160Y-60905065D01*
X148915748Y-60885288D01*
X148894760Y-60875501D01*
X148849179Y-60869500D01*
X148849177Y-60869500D01*
X148650826Y-60869500D01*
X148650814Y-60869501D01*
X148605240Y-60875500D01*
X148541837Y-60905065D01*
X148481108Y-60912521D01*
X148458160Y-60905065D01*
X148415748Y-60885288D01*
X148394760Y-60875501D01*
X148349179Y-60869500D01*
X148349177Y-60869500D01*
X148150826Y-60869500D01*
X148150814Y-60869501D01*
X148105240Y-60875500D01*
X148041837Y-60905065D01*
X147981108Y-60912521D01*
X147958160Y-60905065D01*
X147915748Y-60885288D01*
X147894760Y-60875501D01*
X147849179Y-60869500D01*
X147849177Y-60869500D01*
X147650826Y-60869500D01*
X147650814Y-60869501D01*
X147605240Y-60875500D01*
X147541837Y-60905065D01*
X147481108Y-60912521D01*
X147458160Y-60905065D01*
X147415748Y-60885288D01*
X147394760Y-60875501D01*
X147349179Y-60869500D01*
X147349177Y-60869500D01*
X147150826Y-60869500D01*
X147150814Y-60869501D01*
X147105240Y-60875500D01*
X147041837Y-60905065D01*
X146981108Y-60912521D01*
X146958160Y-60905065D01*
X146915748Y-60885288D01*
X146894760Y-60875501D01*
X146849179Y-60869500D01*
X146849178Y-60869500D01*
X146799499Y-60869500D01*
X146741308Y-60850593D01*
X146705344Y-60801093D01*
X146700499Y-60770500D01*
X146700499Y-60720825D01*
X146700498Y-60720815D01*
X146694499Y-60675240D01*
X146694498Y-60675238D01*
X146664935Y-60611838D01*
X146657478Y-60551109D01*
X146664933Y-60528162D01*
X146694499Y-60464760D01*
X146700500Y-60419179D01*
X146700499Y-60220822D01*
X146694499Y-60175240D01*
X146673957Y-60131187D01*
X146664935Y-60111838D01*
X146657478Y-60051109D01*
X146664933Y-60028162D01*
X146694499Y-59964760D01*
X146700500Y-59919179D01*
X146700499Y-59720822D01*
X146694499Y-59675240D01*
X146682729Y-59649999D01*
X146664935Y-59611838D01*
X146657478Y-59551109D01*
X146664933Y-59528162D01*
X146694499Y-59464760D01*
X146700500Y-59419179D01*
X146700499Y-59220822D01*
X146694499Y-59175240D01*
X146688612Y-59162615D01*
X146664935Y-59111838D01*
X146657478Y-59051109D01*
X146664933Y-59028162D01*
X146694499Y-58964760D01*
X146700500Y-58919179D01*
X146700499Y-58720822D01*
X146694499Y-58675240D01*
X146692369Y-58670674D01*
X146664935Y-58611838D01*
X146657478Y-58551109D01*
X146664933Y-58528162D01*
X146694499Y-58464760D01*
X146700500Y-58419179D01*
X146700499Y-58220822D01*
X146694499Y-58175240D01*
X146692369Y-58170674D01*
X146664935Y-58111838D01*
X146657478Y-58051109D01*
X146664933Y-58028162D01*
X146694499Y-57964760D01*
X146700500Y-57919179D01*
X146700499Y-57720822D01*
X146694499Y-57675240D01*
X146686170Y-57657379D01*
X146664935Y-57611838D01*
X146657478Y-57551109D01*
X146664933Y-57528162D01*
X146694499Y-57464760D01*
X146700500Y-57419179D01*
X146700500Y-57369499D01*
X146719407Y-57311308D01*
X146768907Y-57275344D01*
X146799500Y-57270499D01*
X146849175Y-57270499D01*
X146849178Y-57270499D01*
X146894760Y-57264499D01*
X146958160Y-57234934D01*
X147018890Y-57227478D01*
X147041834Y-57234932D01*
X147105240Y-57264499D01*
X147150821Y-57270500D01*
X147349178Y-57270499D01*
X147394760Y-57264499D01*
X147458160Y-57234934D01*
X147518890Y-57227478D01*
X147541834Y-57234932D01*
X147605240Y-57264499D01*
X147650821Y-57270500D01*
X147849178Y-57270499D01*
X147894760Y-57264499D01*
X147958160Y-57234934D01*
X148018890Y-57227478D01*
X148041834Y-57234932D01*
X148105240Y-57264499D01*
X148150821Y-57270500D01*
X148349178Y-57270499D01*
X148394760Y-57264499D01*
X148458160Y-57234934D01*
X148518890Y-57227478D01*
X148541834Y-57234932D01*
X148605240Y-57264499D01*
X148650821Y-57270500D01*
X148849178Y-57270499D01*
X148894760Y-57264499D01*
X148958160Y-57234934D01*
X149018890Y-57227478D01*
X149041834Y-57234932D01*
X149105240Y-57264499D01*
X149150821Y-57270500D01*
X149349178Y-57270499D01*
X149394760Y-57264499D01*
X149458160Y-57234934D01*
X149518890Y-57227478D01*
X149541834Y-57234932D01*
X149605240Y-57264499D01*
X149650821Y-57270500D01*
X149849178Y-57270499D01*
X149894760Y-57264499D01*
X149958160Y-57234934D01*
X150018890Y-57227478D01*
X150041834Y-57234932D01*
G37*
%TD.AperFunction*%
%TA.AperFunction,Conductor*%
G36*
X153550326Y-58825500D02*
G01*
X153550331Y-58825500D01*
X153949669Y-58825500D01*
X153949674Y-58825500D01*
X153980686Y-58819331D01*
X154019314Y-58819331D01*
X154050326Y-58825500D01*
X154225500Y-58825500D01*
X154283691Y-58844407D01*
X154319655Y-58893907D01*
X154324500Y-58924500D01*
X154324500Y-59099680D01*
X154330668Y-59130688D01*
X154330668Y-59169312D01*
X154324500Y-59200319D01*
X154324500Y-59375500D01*
X154305593Y-59433691D01*
X154256093Y-59469655D01*
X154225500Y-59474500D01*
X154050326Y-59474500D01*
X154050325Y-59474500D01*
X154050315Y-59474501D01*
X153977263Y-59489033D01*
X153977257Y-59489035D01*
X153894400Y-59544397D01*
X153894397Y-59544400D01*
X153839035Y-59627257D01*
X153839033Y-59627263D01*
X153824501Y-59700315D01*
X153824500Y-59700327D01*
X153824500Y-60124679D01*
X153825795Y-60131187D01*
X153818603Y-60191948D01*
X153777070Y-60236878D01*
X153728697Y-60249500D01*
X153261190Y-60249500D01*
X153202999Y-60230593D01*
X153191186Y-60220504D01*
X152979933Y-60009251D01*
X152952156Y-59954734D01*
X152951784Y-59926324D01*
X152955250Y-59899999D01*
X152936330Y-59756291D01*
X152880861Y-59622375D01*
X152792621Y-59507379D01*
X152677625Y-59419139D01*
X152677621Y-59419137D01*
X152555274Y-59368460D01*
X152508748Y-59328724D01*
X152494464Y-59269229D01*
X152517879Y-59212701D01*
X152567535Y-59181370D01*
X152585288Y-59176614D01*
X152589398Y-59174240D01*
X152595877Y-59170501D01*
X152631385Y-59150000D01*
X152665212Y-59130470D01*
X152946061Y-58849619D01*
X153000576Y-58821843D01*
X153035380Y-58822527D01*
X153050320Y-58825499D01*
X153050323Y-58825499D01*
X153050326Y-58825500D01*
X153050327Y-58825500D01*
X153449669Y-58825500D01*
X153449674Y-58825500D01*
X153480686Y-58819331D01*
X153519314Y-58819331D01*
X153550326Y-58825500D01*
G37*
%TD.AperFunction*%
%TA.AperFunction,Conductor*%
G36*
X152245445Y-39922689D02*
G01*
X152288710Y-39965954D01*
X152299500Y-40010899D01*
X152299500Y-41424672D01*
X152299501Y-41424684D01*
X152314033Y-41497736D01*
X152314035Y-41497742D01*
X152369397Y-41580599D01*
X152369399Y-41580601D01*
X152452260Y-41635966D01*
X152507808Y-41647015D01*
X152525315Y-41650498D01*
X152525320Y-41650498D01*
X152525326Y-41650500D01*
X152525500Y-41650500D01*
X152525575Y-41650524D01*
X152530162Y-41650976D01*
X152530062Y-41651982D01*
X152583691Y-41669407D01*
X152619655Y-41718907D01*
X152624500Y-41749500D01*
X152624500Y-41975500D01*
X152605593Y-42033691D01*
X152556093Y-42069655D01*
X152525500Y-42074500D01*
X150190686Y-42074500D01*
X150132495Y-42055593D01*
X150120683Y-42045504D01*
X150072103Y-41996925D01*
X150072102Y-41996924D01*
X150055771Y-41988940D01*
X150011798Y-41946398D01*
X150001228Y-41886133D01*
X150028100Y-41831164D01*
X150055770Y-41811059D01*
X150072102Y-41803076D01*
X150079998Y-41795179D01*
X150134513Y-41767404D01*
X150194945Y-41776975D01*
X150220000Y-41795178D01*
X150227898Y-41803076D01*
X150343482Y-41859582D01*
X150418418Y-41870500D01*
X150418421Y-41870500D01*
X150761578Y-41870500D01*
X150761582Y-41870500D01*
X150836518Y-41859582D01*
X150952102Y-41803076D01*
X151043076Y-41712102D01*
X151099582Y-41596518D01*
X151110500Y-41521582D01*
X151110500Y-41078418D01*
X151099582Y-41003482D01*
X151043076Y-40887898D01*
X150952102Y-40796924D01*
X150836518Y-40740418D01*
X150761582Y-40729500D01*
X150418418Y-40729500D01*
X150343482Y-40740418D01*
X150227899Y-40796923D01*
X150227895Y-40796926D01*
X150220001Y-40804820D01*
X150165483Y-40832596D01*
X150105052Y-40823022D01*
X150079999Y-40804820D01*
X150072104Y-40796926D01*
X150072102Y-40796924D01*
X149956518Y-40740418D01*
X149881582Y-40729500D01*
X149881579Y-40729500D01*
X149874500Y-40729500D01*
X149816309Y-40710593D01*
X149780345Y-40661093D01*
X149775500Y-40630500D01*
X149775500Y-40125226D01*
X149794407Y-40067035D01*
X149843907Y-40031071D01*
X149905093Y-40031071D01*
X149919433Y-40037011D01*
X150024696Y-40090646D01*
X150118481Y-40105500D01*
X151831518Y-40105499D01*
X151831521Y-40105499D01*
X151831522Y-40105498D01*
X151878411Y-40098072D01*
X151925299Y-40090647D01*
X151925299Y-40090646D01*
X151925304Y-40090646D01*
X152038342Y-40033050D01*
X152128050Y-39943342D01*
X152128051Y-39943339D01*
X152130496Y-39940895D01*
X152185013Y-39913118D01*
X152245445Y-39922689D01*
G37*
%TD.AperFunction*%
%TA.AperFunction,Conductor*%
G36*
X153905342Y-32543147D02*
G01*
X153920659Y-32552811D01*
X154022375Y-32630861D01*
X154027013Y-32632782D01*
X154089189Y-32658536D01*
X154135715Y-32698272D01*
X154149999Y-32757767D01*
X154126585Y-32814295D01*
X154089189Y-32841464D01*
X154022378Y-32869137D01*
X154022374Y-32869139D01*
X153907381Y-32957377D01*
X153907377Y-32957381D01*
X153819139Y-33072374D01*
X153819137Y-33072378D01*
X153763670Y-33206290D01*
X153763669Y-33206291D01*
X153744750Y-33349999D01*
X153744750Y-33350000D01*
X153763669Y-33493708D01*
X153763670Y-33493709D01*
X153795925Y-33571582D01*
X153819139Y-33627625D01*
X153907379Y-33742621D01*
X154022375Y-33830861D01*
X154156291Y-33886330D01*
X154300000Y-33905250D01*
X154443709Y-33886330D01*
X154539023Y-33846849D01*
X154600020Y-33842049D01*
X154619756Y-33851051D01*
X154620528Y-33849473D01*
X154627897Y-33853075D01*
X154627898Y-33853076D01*
X154743482Y-33909582D01*
X154818418Y-33920500D01*
X154818421Y-33920500D01*
X155161578Y-33920500D01*
X155161582Y-33920500D01*
X155236518Y-33909582D01*
X155320159Y-33868691D01*
X155380740Y-33860120D01*
X155434790Y-33888795D01*
X155461663Y-33943763D01*
X155461792Y-33970554D01*
X155444750Y-34099999D01*
X155444750Y-34100000D01*
X155463669Y-34243708D01*
X155463670Y-34243709D01*
X155519139Y-34377625D01*
X155607379Y-34492621D01*
X155722375Y-34580861D01*
X155856291Y-34636330D01*
X156000000Y-34655250D01*
X156143709Y-34636330D01*
X156277625Y-34580861D01*
X156392621Y-34492621D01*
X156480861Y-34377625D01*
X156536330Y-34243709D01*
X156555250Y-34100000D01*
X156549358Y-34055250D01*
X156536330Y-33956291D01*
X156480861Y-33822375D01*
X156478378Y-33816380D01*
X156479931Y-33815736D01*
X156468902Y-33763847D01*
X156478417Y-33730721D01*
X156519582Y-33646518D01*
X156530500Y-33571582D01*
X156530500Y-33128418D01*
X156519582Y-33053482D01*
X156463076Y-32937898D01*
X156372102Y-32846924D01*
X156372100Y-32846923D01*
X156372099Y-32846922D01*
X156372097Y-32846921D01*
X156355770Y-32838939D01*
X156311796Y-32796396D01*
X156301227Y-32736130D01*
X156328100Y-32681162D01*
X156355802Y-32661044D01*
X156356755Y-32660578D01*
X156417338Y-32652035D01*
X156438072Y-32658073D01*
X156506291Y-32686330D01*
X156506290Y-32686330D01*
X156649999Y-32705250D01*
X156649999Y-32705249D01*
X156650000Y-32705250D01*
X156793709Y-32686330D01*
X156927625Y-32630861D01*
X156990233Y-32582819D01*
X157047908Y-32562396D01*
X157106574Y-32579773D01*
X157143821Y-32628314D01*
X157149500Y-32661362D01*
X157149500Y-38650500D01*
X157130593Y-38708691D01*
X157081093Y-38744655D01*
X157050500Y-38749500D01*
X155925326Y-38749500D01*
X155925325Y-38749500D01*
X155925315Y-38749501D01*
X155852263Y-38764033D01*
X155852257Y-38764035D01*
X155769400Y-38819397D01*
X155769397Y-38819400D01*
X155714035Y-38902257D01*
X155714033Y-38902263D01*
X155699501Y-38975315D01*
X155699500Y-38975327D01*
X155699500Y-40224672D01*
X155699501Y-40224684D01*
X155714033Y-40297736D01*
X155714035Y-40297742D01*
X155769397Y-40380599D01*
X155769399Y-40380601D01*
X155852260Y-40435966D01*
X155907808Y-40447015D01*
X155925315Y-40450498D01*
X155925320Y-40450498D01*
X155925326Y-40450500D01*
X157050500Y-40450500D01*
X157108691Y-40469407D01*
X157144655Y-40518907D01*
X157149500Y-40549500D01*
X157149500Y-40650500D01*
X157130593Y-40708691D01*
X157081093Y-40744655D01*
X157050500Y-40749500D01*
X155925326Y-40749500D01*
X155925325Y-40749500D01*
X155925315Y-40749501D01*
X155852263Y-40764033D01*
X155852257Y-40764035D01*
X155769400Y-40819397D01*
X155769397Y-40819400D01*
X155714035Y-40902257D01*
X155714033Y-40902263D01*
X155699501Y-40975315D01*
X155699500Y-40975327D01*
X155699500Y-41075500D01*
X155680593Y-41133691D01*
X155631093Y-41169655D01*
X155600500Y-41174500D01*
X155567256Y-41174500D01*
X155509065Y-41155593D01*
X155497252Y-41145504D01*
X155304496Y-40952748D01*
X155276719Y-40898231D01*
X155275500Y-40882744D01*
X155275500Y-38757757D01*
X155294407Y-38699566D01*
X155304490Y-38687759D01*
X155339859Y-38652391D01*
X155396017Y-38542175D01*
X155410500Y-38450735D01*
X155410499Y-38109266D01*
X155410499Y-38109262D01*
X155402630Y-38059581D01*
X155396017Y-38017825D01*
X155339859Y-37907609D01*
X155302251Y-37870001D01*
X155274476Y-37815487D01*
X155284047Y-37755055D01*
X155302250Y-37729999D01*
X155339859Y-37692391D01*
X155396017Y-37582175D01*
X155410500Y-37490735D01*
X155410499Y-37149266D01*
X155410499Y-37149262D01*
X155400780Y-37087899D01*
X155396017Y-37057825D01*
X155339859Y-36947609D01*
X155252391Y-36860141D01*
X155142175Y-36803983D01*
X155142176Y-36803983D01*
X155050736Y-36789500D01*
X154649262Y-36789500D01*
X154557825Y-36803983D01*
X154557821Y-36803984D01*
X154491106Y-36837978D01*
X154460232Y-36853709D01*
X154415287Y-36864500D01*
X153980685Y-36864500D01*
X153922494Y-36845593D01*
X153913578Y-36837978D01*
X153912103Y-36836925D01*
X153912102Y-36836924D01*
X153796518Y-36780418D01*
X153721582Y-36769500D01*
X153278418Y-36769500D01*
X153278415Y-36769500D01*
X153274848Y-36769759D01*
X153274748Y-36768392D01*
X153219616Y-36758932D01*
X153185994Y-36726615D01*
X153184811Y-36727523D01*
X153144136Y-36674515D01*
X153101152Y-36618497D01*
X153092625Y-36607384D01*
X153092624Y-36607383D01*
X153092621Y-36607379D01*
X152977625Y-36519139D01*
X152977621Y-36519137D01*
X152843709Y-36463670D01*
X152843708Y-36463669D01*
X152700000Y-36444750D01*
X152556291Y-36463669D01*
X152556290Y-36463670D01*
X152422378Y-36519137D01*
X152422374Y-36519139D01*
X152357340Y-36569042D01*
X152299664Y-36589466D01*
X152297073Y-36589500D01*
X152131900Y-36589500D01*
X152073709Y-36570593D01*
X152061898Y-36560505D01*
X152038344Y-36536952D01*
X152038342Y-36536950D01*
X151925304Y-36479354D01*
X151925306Y-36479354D01*
X151915372Y-36477781D01*
X151860856Y-36450002D01*
X151833080Y-36395485D01*
X151842652Y-36335053D01*
X151885917Y-36291790D01*
X151915376Y-36282218D01*
X151925304Y-36280646D01*
X152038342Y-36223050D01*
X152051533Y-36209859D01*
X152061898Y-36199495D01*
X152116415Y-36171719D01*
X152131900Y-36170500D01*
X153038797Y-36170500D01*
X153090217Y-36187207D01*
X153090668Y-36186322D01*
X153096255Y-36189168D01*
X153096985Y-36189406D01*
X153097605Y-36189857D01*
X153097609Y-36189859D01*
X153207825Y-36246017D01*
X153299265Y-36260500D01*
X153700734Y-36260499D01*
X153700737Y-36260499D01*
X153727332Y-36256286D01*
X153792175Y-36246017D01*
X153902391Y-36189859D01*
X153902391Y-36189858D01*
X153902394Y-36189857D01*
X153903015Y-36189406D01*
X153903744Y-36189168D01*
X153909332Y-36186322D01*
X153909782Y-36187207D01*
X153961203Y-36170500D01*
X154367243Y-36170500D01*
X154425434Y-36189407D01*
X154437240Y-36199490D01*
X154447609Y-36209859D01*
X154557825Y-36266017D01*
X154649265Y-36280500D01*
X155050734Y-36280499D01*
X155050737Y-36280499D01*
X155077332Y-36276286D01*
X155142175Y-36266017D01*
X155252391Y-36209859D01*
X155339859Y-36122391D01*
X155396017Y-36012175D01*
X155410500Y-35920735D01*
X155410499Y-35579266D01*
X155410499Y-35579262D01*
X155404882Y-35543801D01*
X155396017Y-35487825D01*
X155339859Y-35377609D01*
X155252391Y-35290141D01*
X155142175Y-35233983D01*
X155142176Y-35233983D01*
X155050736Y-35219500D01*
X154649262Y-35219500D01*
X154557825Y-35233983D01*
X154557821Y-35233984D01*
X154447610Y-35290140D01*
X154447609Y-35290140D01*
X154447609Y-35290141D01*
X154447244Y-35290505D01*
X154446788Y-35290737D01*
X154441304Y-35294722D01*
X154440673Y-35293853D01*
X154392730Y-35318281D01*
X154377243Y-35319500D01*
X153992757Y-35319500D01*
X153934566Y-35300593D01*
X153922759Y-35290509D01*
X153902391Y-35270141D01*
X153792175Y-35213983D01*
X153792176Y-35213983D01*
X153700736Y-35199500D01*
X153299262Y-35199500D01*
X153207825Y-35213983D01*
X153207821Y-35213984D01*
X153097610Y-35270140D01*
X153097609Y-35270140D01*
X153097609Y-35270141D01*
X153077244Y-35290505D01*
X153022730Y-35318281D01*
X153007243Y-35319500D01*
X152131900Y-35319500D01*
X152073709Y-35300593D01*
X152061898Y-35290505D01*
X152038344Y-35266952D01*
X152038342Y-35266950D01*
X151925304Y-35209354D01*
X151925305Y-35209354D01*
X151831522Y-35194500D01*
X151831519Y-35194500D01*
X151499500Y-35194500D01*
X151441309Y-35175593D01*
X151405345Y-35126093D01*
X151400500Y-35095500D01*
X151400500Y-34968983D01*
X151400500Y-34968982D01*
X151371503Y-34860763D01*
X151371501Y-34860760D01*
X151371501Y-34860758D01*
X151315485Y-34763737D01*
X151236264Y-34684515D01*
X150750354Y-34198606D01*
X150722576Y-34144089D01*
X150732147Y-34083657D01*
X150775412Y-34040392D01*
X150835844Y-34030821D01*
X150849983Y-34034808D01*
X150850026Y-34034651D01*
X150856291Y-34036330D01*
X151000000Y-34055250D01*
X151143709Y-34036330D01*
X151277625Y-33980861D01*
X151392621Y-33892621D01*
X151480861Y-33777625D01*
X151536330Y-33643709D01*
X151555250Y-33500000D01*
X151536330Y-33356291D01*
X151511929Y-33297382D01*
X151507131Y-33236388D01*
X151539101Y-33184219D01*
X151595629Y-33160805D01*
X151603395Y-33160500D01*
X152001636Y-33160500D01*
X152059827Y-33179407D01*
X152071633Y-33189490D01*
X152090645Y-33208502D01*
X152090647Y-33208503D01*
X152090649Y-33208504D01*
X152202971Y-33265736D01*
X152202973Y-33265736D01*
X152202978Y-33265739D01*
X152296177Y-33280500D01*
X152703822Y-33280499D01*
X152703824Y-33280499D01*
X152703825Y-33280498D01*
X152750422Y-33273119D01*
X152797017Y-33265740D01*
X152797019Y-33265739D01*
X152797022Y-33265739D01*
X152797022Y-33265738D01*
X152797025Y-33265738D01*
X152869308Y-33228907D01*
X152909355Y-33208502D01*
X152913362Y-33204494D01*
X152967877Y-33176719D01*
X152983364Y-33175500D01*
X153056016Y-33175500D01*
X153056018Y-33175500D01*
X153164237Y-33146503D01*
X153164239Y-33146501D01*
X153164241Y-33146501D01*
X153195561Y-33128418D01*
X153261263Y-33090485D01*
X153790395Y-32561351D01*
X153844910Y-32533576D01*
X153905342Y-32543147D01*
G37*
%TD.AperFunction*%
%TA.AperFunction,Conductor*%
G36*
X149590935Y-34244407D02*
G01*
X149602748Y-34254496D01*
X150373748Y-35025496D01*
X150401525Y-35080013D01*
X150391954Y-35140445D01*
X150348689Y-35183710D01*
X150303745Y-35194500D01*
X150118479Y-35194500D01*
X150118476Y-35194501D01*
X150024700Y-35209352D01*
X150024695Y-35209354D01*
X149911659Y-35266949D01*
X149821949Y-35356659D01*
X149764354Y-35469695D01*
X149749500Y-35563477D01*
X149749500Y-35926520D01*
X149749501Y-35926523D01*
X149764352Y-36020299D01*
X149764354Y-36020304D01*
X149821950Y-36133342D01*
X149911658Y-36223050D01*
X150024696Y-36280646D01*
X150034625Y-36282218D01*
X150089140Y-36309993D01*
X150116919Y-36364509D01*
X150107349Y-36424941D01*
X150064086Y-36468207D01*
X150034628Y-36477780D01*
X150024698Y-36479353D01*
X150024695Y-36479354D01*
X149911659Y-36536949D01*
X149821949Y-36626659D01*
X149764354Y-36739695D01*
X149749500Y-36833477D01*
X149749500Y-37196520D01*
X149749501Y-37196523D01*
X149764352Y-37290299D01*
X149764354Y-37290304D01*
X149821950Y-37403342D01*
X149911658Y-37493050D01*
X150024696Y-37550646D01*
X150034625Y-37552218D01*
X150089140Y-37579993D01*
X150116919Y-37634509D01*
X150107349Y-37694941D01*
X150064086Y-37738207D01*
X150034628Y-37747780D01*
X150024698Y-37749353D01*
X150024695Y-37749354D01*
X149911659Y-37806949D01*
X149821949Y-37896659D01*
X149764354Y-38009695D01*
X149749500Y-38103477D01*
X149749500Y-38466520D01*
X149749501Y-38466523D01*
X149764352Y-38560299D01*
X149764354Y-38560304D01*
X149821950Y-38673342D01*
X149911658Y-38763050D01*
X150024696Y-38820646D01*
X150034625Y-38822218D01*
X150089140Y-38849993D01*
X150116919Y-38904509D01*
X150107349Y-38964941D01*
X150064086Y-39008207D01*
X150034628Y-39017780D01*
X150024698Y-39019353D01*
X150024695Y-39019354D01*
X149911658Y-39076950D01*
X149911655Y-39076952D01*
X149888102Y-39100505D01*
X149833585Y-39128281D01*
X149818100Y-39129500D01*
X149651018Y-39129500D01*
X149538981Y-39129500D01*
X149438996Y-39156291D01*
X149438995Y-39156290D01*
X149430763Y-39158496D01*
X149430759Y-39158498D01*
X149333737Y-39214514D01*
X149284503Y-39263748D01*
X149229986Y-39291525D01*
X149169554Y-39281953D01*
X149126290Y-39238688D01*
X149115500Y-39193744D01*
X149115500Y-36383983D01*
X149112523Y-36372873D01*
X149086503Y-36275763D01*
X149086501Y-36275760D01*
X149086501Y-36275758D01*
X149030485Y-36178737D01*
X148951263Y-36099514D01*
X148951263Y-36099515D01*
X148459140Y-35607392D01*
X148431363Y-35552875D01*
X148440934Y-35492443D01*
X148484199Y-35449178D01*
X148491259Y-35445924D01*
X148527625Y-35430861D01*
X148642621Y-35342621D01*
X148730861Y-35227625D01*
X148786330Y-35093709D01*
X148805250Y-34950000D01*
X148786330Y-34806291D01*
X148730861Y-34672375D01*
X148642621Y-34557379D01*
X148527625Y-34469139D01*
X148527621Y-34469137D01*
X148399247Y-34415964D01*
X148352721Y-34376228D01*
X148338437Y-34316733D01*
X148361851Y-34260205D01*
X148414020Y-34228236D01*
X148437132Y-34225500D01*
X149532744Y-34225500D01*
X149590935Y-34244407D01*
G37*
%TD.AperFunction*%
%TA.AperFunction,Conductor*%
G36*
X143458691Y-27369407D02*
G01*
X143494655Y-27418907D01*
X143499500Y-27449500D01*
X143499500Y-29538637D01*
X143480593Y-29596828D01*
X143431093Y-29632792D01*
X143369907Y-29632792D01*
X143340233Y-29617179D01*
X143277629Y-29569142D01*
X143277628Y-29569141D01*
X143277625Y-29569139D01*
X143277622Y-29569138D01*
X143277621Y-29569137D01*
X143143709Y-29513670D01*
X143143708Y-29513669D01*
X143000000Y-29494750D01*
X142856291Y-29513669D01*
X142856290Y-29513670D01*
X142722378Y-29569137D01*
X142722374Y-29569139D01*
X142607381Y-29657377D01*
X142607377Y-29657381D01*
X142519139Y-29772374D01*
X142519137Y-29772378D01*
X142463670Y-29906290D01*
X142463669Y-29906291D01*
X142444750Y-30049999D01*
X142444750Y-30050000D01*
X142463669Y-30193708D01*
X142463670Y-30193709D01*
X142508139Y-30301070D01*
X142519139Y-30327625D01*
X142607379Y-30442621D01*
X142722375Y-30530861D01*
X142856291Y-30586330D01*
X143000000Y-30605250D01*
X143143709Y-30586330D01*
X143277625Y-30530861D01*
X143392621Y-30442621D01*
X143478278Y-30330990D01*
X143528699Y-30296337D01*
X143589863Y-30297938D01*
X143611818Y-30308944D01*
X143652260Y-30335966D01*
X143707808Y-30347015D01*
X143725315Y-30350498D01*
X143725320Y-30350498D01*
X143725326Y-30350500D01*
X143725327Y-30350500D01*
X144274673Y-30350500D01*
X144274674Y-30350500D01*
X144347740Y-30335966D01*
X144430601Y-30280601D01*
X144485966Y-30197740D01*
X144500500Y-30124674D01*
X144500500Y-27449500D01*
X144519407Y-27391309D01*
X144568907Y-27355345D01*
X144599500Y-27350500D01*
X145400500Y-27350500D01*
X145458691Y-27369407D01*
X145494655Y-27418907D01*
X145499500Y-27449500D01*
X145499500Y-30124672D01*
X145499501Y-30124684D01*
X145513232Y-30193708D01*
X145514034Y-30197740D01*
X145514035Y-30197742D01*
X145517766Y-30206749D01*
X145516595Y-30207233D01*
X145530439Y-30256328D01*
X145509259Y-30313731D01*
X145491784Y-30330977D01*
X145457386Y-30357372D01*
X145457373Y-30357385D01*
X145395195Y-30438416D01*
X145344770Y-30473072D01*
X145283606Y-30471469D01*
X145278769Y-30469613D01*
X145264759Y-30463810D01*
X145143709Y-30413670D01*
X145143706Y-30413669D01*
X145143705Y-30413669D01*
X145000000Y-30394750D01*
X144856291Y-30413669D01*
X144856290Y-30413670D01*
X144722378Y-30469137D01*
X144722374Y-30469139D01*
X144607381Y-30557377D01*
X144607377Y-30557381D01*
X144519139Y-30672374D01*
X144519137Y-30672378D01*
X144463670Y-30806290D01*
X144463669Y-30806291D01*
X144444750Y-30949999D01*
X144444750Y-30950000D01*
X144463669Y-31093706D01*
X144463669Y-31093708D01*
X144463670Y-31093709D01*
X144472370Y-31114712D01*
X144477742Y-31127682D01*
X144482541Y-31188679D01*
X144450571Y-31240847D01*
X144394043Y-31264261D01*
X144348392Y-31257030D01*
X144243709Y-31213670D01*
X144243708Y-31213669D01*
X144100000Y-31194750D01*
X143956291Y-31213669D01*
X143956290Y-31213670D01*
X143822378Y-31269137D01*
X143822374Y-31269139D01*
X143707381Y-31357377D01*
X143707377Y-31357381D01*
X143619139Y-31472374D01*
X143619137Y-31472378D01*
X143563670Y-31606290D01*
X143563669Y-31606291D01*
X143544750Y-31749999D01*
X143544750Y-31750000D01*
X143563669Y-31893708D01*
X143563670Y-31893709D01*
X143617534Y-32023752D01*
X143619139Y-32027625D01*
X143707379Y-32142621D01*
X143822375Y-32230861D01*
X143956291Y-32286330D01*
X144013132Y-32293813D01*
X144068357Y-32320154D01*
X144070214Y-32321962D01*
X144838737Y-33090485D01*
X144838739Y-33090486D01*
X144935759Y-33146501D01*
X144935757Y-33146501D01*
X144935761Y-33146502D01*
X144935763Y-33146503D01*
X145043982Y-33175500D01*
X145156019Y-33175500D01*
X145467924Y-33175500D01*
X145526115Y-33194407D01*
X145562079Y-33243907D01*
X145562079Y-33305093D01*
X145528192Y-33353042D01*
X145457381Y-33407377D01*
X145457377Y-33407381D01*
X145369139Y-33522374D01*
X145369137Y-33522378D01*
X145313670Y-33656290D01*
X145313669Y-33656291D01*
X145294750Y-33799999D01*
X145294750Y-33800003D01*
X145297473Y-33820690D01*
X145286322Y-33880850D01*
X145241939Y-33922967D01*
X145181277Y-33930952D01*
X145173699Y-33929237D01*
X145156020Y-33924500D01*
X145156018Y-33924500D01*
X144456018Y-33924500D01*
X144343982Y-33924500D01*
X144277748Y-33942247D01*
X144235758Y-33953498D01*
X144138739Y-34009513D01*
X143248737Y-34899515D01*
X143248736Y-34899514D01*
X143169514Y-34978737D01*
X143113498Y-35075758D01*
X143084500Y-35183983D01*
X143084500Y-36990315D01*
X143065593Y-37048506D01*
X143016093Y-37084470D01*
X142954907Y-37084470D01*
X142915498Y-37060320D01*
X142852102Y-36996924D01*
X142736518Y-36940418D01*
X142661582Y-36929500D01*
X142318418Y-36929500D01*
X142255020Y-36938737D01*
X142243482Y-36940418D01*
X142127899Y-36996923D01*
X142036923Y-37087899D01*
X141983822Y-37196520D01*
X141980418Y-37203482D01*
X141970381Y-37272375D01*
X141969500Y-37278421D01*
X141969500Y-37377744D01*
X141950593Y-37435935D01*
X141940504Y-37447748D01*
X141738737Y-37649515D01*
X141738736Y-37649514D01*
X141659514Y-37728737D01*
X141603498Y-37825758D01*
X141595797Y-37854500D01*
X141575337Y-37930861D01*
X141574500Y-37933983D01*
X141574500Y-38732744D01*
X141555593Y-38790935D01*
X141545503Y-38802748D01*
X141435362Y-38912888D01*
X141380846Y-38940665D01*
X141320414Y-38931093D01*
X141283043Y-38897885D01*
X141230602Y-38819400D01*
X141230599Y-38819397D01*
X141147742Y-38764035D01*
X141147740Y-38764034D01*
X141147737Y-38764033D01*
X141147736Y-38764033D01*
X141074684Y-38749501D01*
X141074674Y-38749500D01*
X141074673Y-38749500D01*
X139949500Y-38749500D01*
X139891309Y-38730593D01*
X139855345Y-38681093D01*
X139850500Y-38650500D01*
X139850500Y-36811487D01*
X139869407Y-36753296D01*
X139918907Y-36717332D01*
X139980093Y-36717332D01*
X140008827Y-36732233D01*
X140036964Y-36753296D01*
X140057670Y-36768797D01*
X140192511Y-36819089D01*
X140192512Y-36819089D01*
X140192517Y-36819091D01*
X140252127Y-36825500D01*
X140367925Y-36825499D01*
X140426114Y-36844406D01*
X140462078Y-36893906D01*
X140462079Y-36955091D01*
X140428193Y-37003040D01*
X140357382Y-37057376D01*
X140357377Y-37057381D01*
X140269139Y-37172374D01*
X140269137Y-37172378D01*
X140213670Y-37306290D01*
X140213669Y-37306291D01*
X140194750Y-37449999D01*
X140194750Y-37450000D01*
X140213669Y-37593708D01*
X140213670Y-37593709D01*
X140264116Y-37715500D01*
X140269139Y-37727625D01*
X140357379Y-37842621D01*
X140472375Y-37930861D01*
X140606291Y-37986330D01*
X140750000Y-38005250D01*
X140893709Y-37986330D01*
X141027625Y-37930861D01*
X141142621Y-37842621D01*
X141230861Y-37727625D01*
X141286330Y-37593709D01*
X141305250Y-37450000D01*
X141299495Y-37406291D01*
X141286330Y-37306291D01*
X141230861Y-37172375D01*
X141142621Y-37057379D01*
X141027625Y-36969139D01*
X141012554Y-36962896D01*
X140966029Y-36923162D01*
X140951745Y-36863667D01*
X140975159Y-36807139D01*
X141015843Y-36778675D01*
X141042331Y-36768796D01*
X141157546Y-36682546D01*
X141243796Y-36567331D01*
X141255128Y-36536950D01*
X141294089Y-36432488D01*
X141294088Y-36432488D01*
X141294091Y-36432483D01*
X141300500Y-36372873D01*
X141300499Y-35327128D01*
X141294091Y-35267517D01*
X141293880Y-35266952D01*
X141256742Y-35167379D01*
X141250500Y-35132782D01*
X141250500Y-34067217D01*
X141256742Y-34032620D01*
X141257413Y-34030821D01*
X141294091Y-33932483D01*
X141300500Y-33872873D01*
X141300499Y-32827128D01*
X141294091Y-32767517D01*
X141292730Y-32763869D01*
X141256742Y-32667379D01*
X141250500Y-32632782D01*
X141250500Y-32081008D01*
X141250499Y-32081004D01*
X141223580Y-31945672D01*
X141202056Y-31893708D01*
X141170777Y-31818193D01*
X141170771Y-31818182D01*
X141094114Y-31703458D01*
X140996541Y-31605885D01*
X140881817Y-31529228D01*
X140881806Y-31529222D01*
X140754328Y-31476420D01*
X140618995Y-31449500D01*
X140618993Y-31449500D01*
X140481007Y-31449500D01*
X140481004Y-31449500D01*
X140345672Y-31476420D01*
X140345670Y-31476420D01*
X140218193Y-31529222D01*
X140218182Y-31529228D01*
X140103458Y-31605885D01*
X140103454Y-31605889D01*
X140019504Y-31689840D01*
X139964987Y-31717617D01*
X139904555Y-31708046D01*
X139861290Y-31664781D01*
X139850500Y-31619836D01*
X139850500Y-27449500D01*
X139869407Y-27391309D01*
X139918907Y-27355345D01*
X139949500Y-27350500D01*
X143400500Y-27350500D01*
X143458691Y-27369407D01*
G37*
%TD.AperFunction*%
%TA.AperFunction,Conductor*%
G36*
X157108691Y-27369407D02*
G01*
X157144655Y-27418907D01*
X157149500Y-27449500D01*
X157149500Y-31638637D01*
X157130593Y-31696828D01*
X157081093Y-31732792D01*
X157019907Y-31732792D01*
X156990233Y-31717179D01*
X156927629Y-31669142D01*
X156927628Y-31669141D01*
X156927625Y-31669139D01*
X156927622Y-31669138D01*
X156927621Y-31669137D01*
X156793709Y-31613670D01*
X156793708Y-31613669D01*
X156650000Y-31594750D01*
X156506293Y-31613669D01*
X156438077Y-31641924D01*
X156377080Y-31646723D01*
X156356717Y-31639402D01*
X156350146Y-31636190D01*
X156306170Y-31593648D01*
X156295598Y-31533383D01*
X156322467Y-31478414D01*
X156348675Y-31459038D01*
X156369355Y-31448502D01*
X156458502Y-31359355D01*
X156515739Y-31247022D01*
X156530500Y-31153823D01*
X156530499Y-30746178D01*
X156520907Y-30685610D01*
X156515740Y-30652982D01*
X156515739Y-30652977D01*
X156500004Y-30622097D01*
X156490432Y-30561665D01*
X156496747Y-30539270D01*
X156536330Y-30443709D01*
X156555250Y-30300000D01*
X156536330Y-30156291D01*
X156480861Y-30022375D01*
X156392621Y-29907379D01*
X156277625Y-29819139D01*
X156277621Y-29819137D01*
X156143709Y-29763670D01*
X156143708Y-29763669D01*
X156000000Y-29744750D01*
X155856291Y-29763669D01*
X155856290Y-29763670D01*
X155722378Y-29819137D01*
X155722374Y-29819139D01*
X155607381Y-29907377D01*
X155607377Y-29907381D01*
X155519139Y-30022374D01*
X155519137Y-30022378D01*
X155463670Y-30156290D01*
X155463669Y-30156291D01*
X155444750Y-30299999D01*
X155444750Y-30300005D01*
X155444832Y-30300628D01*
X155444750Y-30301070D01*
X155444750Y-30306489D01*
X155443746Y-30306489D01*
X155433681Y-30360788D01*
X155389297Y-30402904D01*
X155328635Y-30410889D01*
X155301735Y-30401757D01*
X155287026Y-30394262D01*
X155287022Y-30394261D01*
X155263722Y-30390570D01*
X155193826Y-30379500D01*
X154836175Y-30379500D01*
X154836172Y-30379501D01*
X154742982Y-30394259D01*
X154742974Y-30394261D01*
X154630649Y-30451495D01*
X154630643Y-30451499D01*
X154586638Y-30495504D01*
X154532121Y-30523281D01*
X154516635Y-30524500D01*
X153956019Y-30524500D01*
X153843982Y-30524500D01*
X153783728Y-30540645D01*
X153735758Y-30553498D01*
X153638737Y-30609514D01*
X153519503Y-30728748D01*
X153464987Y-30756525D01*
X153404555Y-30746953D01*
X153361290Y-30703689D01*
X153350500Y-30658744D01*
X153350500Y-30387038D01*
X153369407Y-30328847D01*
X153394496Y-30304724D01*
X153430601Y-30280601D01*
X153485966Y-30197740D01*
X153500500Y-30124674D01*
X153500500Y-27449500D01*
X153519407Y-27391309D01*
X153568907Y-27355345D01*
X153599500Y-27350500D01*
X157050500Y-27350500D01*
X157108691Y-27369407D01*
G37*
%TD.AperFunction*%
%TD*%
M02*
