%TF.GenerationSoftware,KiCad,Pcbnew,8.0.1*%
%TF.CreationDate,2025-06-23T19:48:13+12:00*%
%TF.ProjectId,panelrev2,70616e65-6c72-4657-9632-2e6b69636164,rev?*%
%TF.SameCoordinates,Original*%
%TF.FileFunction,Paste,Top*%
%TF.FilePolarity,Positive*%
%FSLAX46Y46*%
G04 Gerber Fmt 4.6, Leading zero omitted, Abs format (unit mm)*
G04 Created by KiCad (PCBNEW 8.0.1) date 2025-06-23 19:48:13*
%MOMM*%
%LPD*%
G01*
G04 APERTURE LIST*
G04 Aperture macros list*
%AMRoundRect*
0 Rectangle with rounded corners*
0 $1 Rounding radius*
0 $2 $3 $4 $5 $6 $7 $8 $9 X,Y pos of 4 corners*
0 Add a 4 corners polygon primitive as box body*
4,1,4,$2,$3,$4,$5,$6,$7,$8,$9,$2,$3,0*
0 Add four circle primitives for the rounded corners*
1,1,$1+$1,$2,$3*
1,1,$1+$1,$4,$5*
1,1,$1+$1,$6,$7*
1,1,$1+$1,$8,$9*
0 Add four rect primitives between the rounded corners*
20,1,$1+$1,$2,$3,$4,$5,0*
20,1,$1+$1,$4,$5,$6,$7,0*
20,1,$1+$1,$6,$7,$8,$9,0*
20,1,$1+$1,$8,$9,$2,$3,0*%
G04 Aperture macros list end*
%ADD10R,1.000000X1.150000*%
%ADD11RoundRect,0.147500X0.172500X-0.147500X0.172500X0.147500X-0.172500X0.147500X-0.172500X-0.147500X0*%
%ADD12RoundRect,0.135000X0.135000X0.185000X-0.135000X0.185000X-0.135000X-0.185000X0.135000X-0.185000X0*%
%ADD13C,2.000000*%
%ADD14RoundRect,0.135000X-0.135000X-0.185000X0.135000X-0.185000X0.135000X0.185000X-0.135000X0.185000X0*%
%ADD15R,1.200000X1.200000*%
%ADD16R,1.500000X1.600000*%
%ADD17RoundRect,0.140000X0.140000X0.170000X-0.140000X0.170000X-0.140000X-0.170000X0.140000X-0.170000X0*%
%ADD18RoundRect,0.250000X0.495000X-0.495000X0.495000X0.495000X-0.495000X0.495000X-0.495000X-0.495000X0*%
%ADD19RoundRect,0.062500X0.062500X-0.337500X0.062500X0.337500X-0.062500X0.337500X-0.062500X-0.337500X0*%
%ADD20RoundRect,0.062500X0.337500X-0.062500X0.337500X0.062500X-0.337500X0.062500X-0.337500X-0.062500X0*%
%ADD21RoundRect,0.075000X-0.070711X0.176777X-0.176777X0.070711X0.070711X-0.176777X0.176777X-0.070711X0*%
%ADD22RoundRect,0.140000X-0.170000X0.140000X-0.170000X-0.140000X0.170000X-0.140000X0.170000X0.140000X0*%
%ADD23RoundRect,0.140000X-0.140000X-0.170000X0.140000X-0.170000X0.140000X0.170000X-0.140000X0.170000X0*%
%ADD24RoundRect,0.250000X0.250000X0.475000X-0.250000X0.475000X-0.250000X-0.475000X0.250000X-0.475000X0*%
%ADD25RoundRect,0.147500X0.147500X0.172500X-0.147500X0.172500X-0.147500X-0.172500X0.147500X-0.172500X0*%
%ADD26RoundRect,0.150000X-0.825000X-0.150000X0.825000X-0.150000X0.825000X0.150000X-0.825000X0.150000X0*%
%ADD27R,0.500000X2.800000*%
%ADD28R,0.600000X2.600000*%
%ADD29R,1.000000X1.000000*%
%ADD30R,1.000000X3.550000*%
%ADD31R,1.000000X3.800000*%
%ADD32R,3.550000X1.000000*%
%ADD33R,3.800000X1.000000*%
%ADD34RoundRect,0.140000X0.170000X-0.140000X0.170000X0.140000X-0.170000X0.140000X-0.170000X-0.140000X0*%
%ADD35RoundRect,0.147500X-0.147500X-0.172500X0.147500X-0.172500X0.147500X0.172500X-0.147500X0.172500X0*%
%ADD36R,0.350000X0.375000*%
%ADD37R,0.375000X0.350000*%
%ADD38RoundRect,0.135000X0.185000X-0.135000X0.185000X0.135000X-0.185000X0.135000X-0.185000X-0.135000X0*%
%ADD39RoundRect,0.075000X0.070711X-0.176777X0.176777X-0.070711X-0.070711X0.176777X-0.176777X0.070711X0*%
G04 APERTURE END LIST*
D10*
%TO.C,Y1*%
X142000000Y-58775000D03*
X142000000Y-60525000D03*
X143400000Y-60525000D03*
X143400000Y-58775000D03*
%TD*%
D11*
%TO.C,D6*%
X151000000Y-32735000D03*
X151000000Y-31765000D03*
%TD*%
D12*
%TO.C,R23*%
X156010000Y-33350000D03*
X154990000Y-33350000D03*
%TD*%
D13*
%TO.C,KiKit_TO_4*%
X162000000Y-78100000D03*
%TD*%
D12*
%TO.C,R24*%
X156010000Y-32150000D03*
X154990000Y-32150000D03*
%TD*%
D14*
%TO.C,R13*%
X149490000Y-51150000D03*
X150510000Y-51150000D03*
%TD*%
D11*
%TO.C,D4*%
X149500000Y-32735000D03*
X149500000Y-31765000D03*
%TD*%
D12*
%TO.C,R3*%
X149710000Y-41300000D03*
X148690000Y-41300000D03*
%TD*%
D15*
%TO.C,RV2*%
X140450000Y-39600000D03*
D16*
X143700000Y-40600000D03*
D15*
X140450000Y-41600000D03*
%TD*%
D13*
%TO.C,KiKit_TO_2*%
X162000000Y-22500000D03*
%TD*%
D17*
%TO.C,C12*%
X143180000Y-61850000D03*
X142220000Y-61850000D03*
%TD*%
D18*
%TO.C,U5*%
X147575000Y-59995000D03*
X149425000Y-59995000D03*
X147575000Y-58145000D03*
X149425000Y-58145000D03*
D19*
X146750000Y-61520000D03*
X147250000Y-61520000D03*
X147750000Y-61520000D03*
X148250000Y-61520000D03*
X148750000Y-61520000D03*
X149250000Y-61520000D03*
X149750000Y-61520000D03*
X150250000Y-61520000D03*
D20*
X150950000Y-60820000D03*
X150950000Y-60320000D03*
X150950000Y-59820000D03*
X150950000Y-59320000D03*
X150950000Y-58820000D03*
X150950000Y-58320000D03*
X150950000Y-57820000D03*
X150950000Y-57320000D03*
D19*
X150250000Y-56620000D03*
X149750000Y-56620000D03*
X149250000Y-56620000D03*
X148750000Y-56620000D03*
X148250000Y-56620000D03*
X147750000Y-56620000D03*
X147250000Y-56620000D03*
X146750000Y-56620000D03*
D20*
X146050000Y-57320000D03*
X146050000Y-57820000D03*
X146050000Y-58320000D03*
X146050000Y-58820000D03*
X146050000Y-59320000D03*
X146050000Y-59820000D03*
X146050000Y-60320000D03*
X146050000Y-60820000D03*
%TD*%
D15*
%TO.C,RV1*%
X156550000Y-41600000D03*
D16*
X153300000Y-40600000D03*
D15*
X156550000Y-39600000D03*
%TD*%
D11*
%TO.C,D5*%
X148000000Y-32735000D03*
X148000000Y-31765000D03*
%TD*%
D17*
%TO.C,C11*%
X143180000Y-57450000D03*
X142220000Y-57450000D03*
%TD*%
D21*
%TO.C,D15*%
X144737437Y-54812563D03*
X144242463Y-55307537D03*
%TD*%
D14*
%TO.C,R2*%
X148690000Y-42500000D03*
X149710000Y-42500000D03*
%TD*%
%TO.C,R4*%
X150590000Y-41300000D03*
X151610000Y-41300000D03*
%TD*%
D22*
%TO.C,C9*%
X153500000Y-34770000D03*
X153500000Y-35730000D03*
%TD*%
D23*
%TO.C,C21*%
X145520000Y-66150000D03*
X146480000Y-66150000D03*
%TD*%
D24*
%TO.C,C10*%
X142450000Y-33350000D03*
X140550000Y-33350000D03*
%TD*%
D25*
%TO.C,L4*%
X145485000Y-67150000D03*
X144515000Y-67150000D03*
%TD*%
D26*
%TO.C,U1*%
X146025000Y-35745000D03*
X146025000Y-37015000D03*
X146025000Y-38285000D03*
X146025000Y-39555000D03*
X150975000Y-39555000D03*
X150975000Y-38285000D03*
X150975000Y-37015000D03*
X150975000Y-35745000D03*
%TD*%
D14*
%TO.C,R17*%
X145190000Y-42500000D03*
X146210000Y-42500000D03*
%TD*%
D24*
%TO.C,C8*%
X142450000Y-35850000D03*
X140550000Y-35850000D03*
%TD*%
D13*
%TO.C,KiKit_TO_1*%
X135000000Y-22500000D03*
%TD*%
D27*
%TO.C,J3*%
X153000000Y-28700000D03*
X152000000Y-28700000D03*
X151000000Y-28700000D03*
X150000000Y-28700000D03*
X149000000Y-28700000D03*
X148000000Y-28700000D03*
X147000000Y-28700000D03*
X146000000Y-28700000D03*
X145000000Y-28700000D03*
X144000000Y-28700000D03*
D28*
X155275000Y-28600000D03*
X141725000Y-28600000D03*
%TD*%
D12*
%TO.C,R12*%
X147510000Y-53150000D03*
X146490000Y-53150000D03*
%TD*%
D29*
%TO.C,J1*%
X140350000Y-48500000D03*
D30*
X140350000Y-50775000D03*
D31*
X140350000Y-56650000D03*
D30*
X140350000Y-62525000D03*
D29*
X140350000Y-64800000D03*
D32*
X142625000Y-48500000D03*
X142625000Y-64800000D03*
D33*
X148500000Y-48500000D03*
X148500000Y-64800000D03*
D32*
X154375000Y-48500000D03*
X154375000Y-64800000D03*
D29*
X156650000Y-48500000D03*
D30*
X156650000Y-50775000D03*
D31*
X156650000Y-56650000D03*
D30*
X156650000Y-62525000D03*
D29*
X156650000Y-64800000D03*
%TD*%
D12*
%TO.C,R16*%
X143510000Y-37500000D03*
X142490000Y-37500000D03*
%TD*%
D11*
%TO.C,D7*%
X152500000Y-32735000D03*
X152500000Y-31765000D03*
%TD*%
D34*
%TO.C,C23*%
X143450000Y-67130000D03*
X143450000Y-66170000D03*
%TD*%
D35*
%TO.C,D16*%
X155015000Y-30950000D03*
X155985000Y-30950000D03*
%TD*%
D13*
%TO.C,KiKit_TO_3*%
X135000000Y-78100000D03*
%TD*%
D36*
%TO.C,U4*%
X154750000Y-58387500D03*
X154250000Y-58387500D03*
X153750000Y-58387500D03*
X153250000Y-58387500D03*
D37*
X153237500Y-58900000D03*
X153237500Y-59400000D03*
D36*
X153250000Y-59912500D03*
X153750000Y-59912500D03*
X154250000Y-59912500D03*
X154750000Y-59912500D03*
D37*
X154762500Y-59400000D03*
X154762500Y-58900000D03*
%TD*%
D34*
%TO.C,C1*%
X154850000Y-38280000D03*
X154850000Y-37320000D03*
%TD*%
D38*
%TO.C,R6*%
X153500000Y-38310000D03*
X153500000Y-37290000D03*
%TD*%
D22*
%TO.C,C2*%
X154850000Y-34790000D03*
X154850000Y-35750000D03*
%TD*%
D39*
%TO.C,D14*%
X143252513Y-56297487D03*
X143747487Y-55802513D03*
%TD*%
M02*
